<?xml version="1.0" standalone="no"?>
<!DOCTYPE svg PUBLIC "-//W3C//DTD SVG 20010904//EN"
 "http://www.w3.org/TR/2001/REC-SVG-20010904/DTD/svg10.dtd">
<svg version="1.0" xmlns="http://www.w3.org/2000/svg"
 width="700.000000pt" height="700.000000pt" viewBox="0 0 700.000000 700.000000"
 preserveAspectRatio="xMidYMid meet">
<metadata>
Created by potrace 1.14, written by Peter Selinger 2001-2017
</metadata>
<g transform="translate(0.000000,700.000000) scale(0.100000,-0.100000)"
fill="#000000" stroke="none">
<path d="M3409 6943 c-74 -66 -133 -125 -204 -205 -44 -49 -56 -57 -95 -62
-25 -3 -67 -8 -94 -11 -27 -3 -72 -11 -100 -16 -28 -6 -64 -13 -81 -15 -16 -3
-57 -12 -90 -21 -33 -8 -69 -17 -80 -19 -135 -26 -424 -134 -630 -234 -354
-173 -623 -366 -905 -649 -314 -315 -543 -654 -715 -1056 -72 -170 -163 -455
-189 -595 -3 -14 -10 -50 -16 -80 -13 -62 -14 -71 -25 -155 -4 -33 -9 -69 -11
-79 -19 -105 -26 -537 -11 -691 17 -172 49 -366 82 -495 2 -8 8 -33 13 -55 55
-220 146 -457 263 -683 69 -135 157 -288 191 -334 10 -13 41 -56 68 -96 148
-212 399 -476 630 -661 524 -419 1157 -669 1830 -722 142 -11 515 -8 595 5 17
3 53 7 80 10 337 36 743 159 1075 325 801 401 1407 1098 1686 1939 38 113 87
289 100 357 2 11 6 31 9 45 2 14 7 41 10 60 3 19 10 60 15 90 28 168 35 273
35 510 0 197 -8 346 -20 410 -3 14 -8 50 -11 80 -3 30 -7 57 -9 61 -2 3 -7 28
-11 55 -10 77 -69 308 -112 439 -134 410 -374 834 -651 1150 -71 81 -318 323
-393 384 -43 35 -78 67 -78 71 0 5 14 13 32 19 91 32 83 67 -30 123 -110 55
-168 113 -222 220 -62 123 -79 125 -134 13 -57 -117 -46 -113 -156 -56 -52 27
-138 68 -190 91 -52 23 -108 48 -125 55 -104 46 -456 150 -570 169 -16 2 -55
9 -85 15 -55 10 -91 15 -185 26 -41 5 -56 13 -84 43 -73 81 -208 216 -247 248
-57 48 -79 44 -155 -23z"/>
</g>
</svg>
