<?xml version="1.0" standalone="no"?>
<!DOCTYPE svg PUBLIC "-//W3C//DTD SVG 20010904//EN"
 "http://www.w3.org/TR/2001/REC-SVG-20010904/DTD/svg10.dtd">
<svg version="1.0" xmlns="http://www.w3.org/2000/svg"
 width="270.000000pt" height="270.000000pt" viewBox="0 0 270.000000 270.000000"
 preserveAspectRatio="xMidYMid meet">
<metadata>
Created by potrace 1.14, written by Peter Selinger 2001-2017
</metadata>
<g transform="translate(0.000000,270.000000) scale(0.100000,-0.100000)"
fill="#000000" stroke="none">
<path d="M1836 2448 c-35 -56 -50 -217 -33 -363 6 -49 66 -269 92 -337 5 -13
-3 -22 -33 -37 -56 -29 -116 -88 -146 -145 -14 -27 -26 -54 -26 -61 0 -9 -145
-11 -597 -10 -337 1 -610 -2 -625 -7 -58 -20 -58 -21 -58 -454 0 -388 0 -397
22 -435 41 -74 142 -97 213 -48 48 33 65 76 65 163 l0 74 528 -4 c857 -6 837
-4 982 -79 62 -32 67 -33 104 -20 47 16 60 29 78 75 40 100 -50 205 -212 246
-36 9 -69 20 -75 25 -14 14 13 29 51 29 47 0 176 37 234 67 125 65 201 178
196 289 -9 201 -215 346 -487 345 l-76 -1 1 148 c1 162 -4 210 -33 324 -47
183 -123 282 -165 216z m539 -854 c10 -4 23 -21 30 -38 23 -54 -11 -105 -72
-106 -36 0 -73 38 -73 75 0 35 37 75 70 75 16 0 36 -3 45 -6z"/>
<path d="M2272 2324 c-39 -16 -135 -110 -179 -174 -28 -41 -30 -49 -23 -99 4
-30 6 -101 6 -157 l-2 -101 26 1 c38 2 52 15 102 91 81 123 129 239 143 342
12 89 -13 123 -73 97z"/>
<path d="M181 1483 c-99 -52 -105 -178 -11 -241 29 -20 43 -23 83 -18 53 6 81
22 108 63 35 53 15 144 -41 185 -38 27 -98 32 -139 11z"/>
</g>
</svg>
