<?xml version="1.0" encoding="UTF-8"?>
<svg xmlns="http://www.w3.org/2000/svg" xmlns:xlink="http://www.w3.org/1999/xlink" width="0" height="0">
<defs>
<symbol viewBox="0 0 24 24" id="WrapText">
    <path         style="stroke-width:1;stroke-linecap:round;stroke-linejoin:round"
        d="M4 19h6v-2H4zM20 5H4v2h16zm-3 6H4v2h13.25c1.1 0 2 .9 2 2s-.9 2-2 2H15v-2l-3 3 3 3v-2h2c2.21 0 4-1.79 4-4s-1.79-4-4-4" ></path>
</symbol>
<symbol viewBox="0 0 24 24" id="WholeWord">
    <path         style="stroke-width:1;stroke-linecap:round;stroke-linejoin:round"
        d="M12.49 4.03v12.83c.46-.02.94.06 1.39-.06.43-.05.33-.94.7-.35.57.42 1.31.5 2 .52a4.2 4.2 0 0 0 3.7-1.82c.87-1.36.98-3.1.62-4.65a3.66 3.66 0 0 0-2.82-2.75 4.55 4.55 0 0 0-3.24.49c-.24.23-.52.53-.43.03V4.03ZM7.02 7.64a5.1 5.1 0 0 0-3.07 1.15c-.22.17-.42.36-.62.54.25.35.42.85.9.92.45.11.8-.21 1.13-.45a2.91 2.91 0 0 1 2.5-.47c.71.27.92 1.1.9 1.79-.04.14.1.47-.15.4-1.5.06-3.07.21-4.4.97-.75.42-1.31 1.27-1.2 2.16.02.96.73 1.8 1.62 2.11a4.77 4.77 0 0 0 4.28-.69c0 .48.46.84.92.8h.83v-6.05c-.04-1.1-.56-2.22-1.56-2.75a3.85 3.85 0 0 0-2.08-.43zm9.71 1.55c.94-.01 1.79.42 2.1 1.2.43 1.03.4 2.2.11 3.26a2.32 2.32 0 0 1-1.84 1.7c-.88.16-1.94.03-2.53-.73-.25-.18-.13-.5-.16-.75V10.5a3.09 3.09 0 0 1 2.32-1.32zm5.77 1.28v8.12h-21v-8.11c-.02-.96-1.37-.97-1.38 0v8.86c0 .22.3.61.49.62l22.58.01c.36 0 .65-.26.67-.48l.02-9.02c.01-.96-1.37-.93-1.38 0zm-13.74 2.5v1.4c-.64.65-1.5 1.1-2.43 1.1-.53.05-1.2-.1-1.39-.67-.14-.38-.04-.84.3-1.06.73-.48 1.62-.6 2.47-.69l1.05-.07z" ></path>
</symbol>
<symbol viewBox="0 0 24 24" id="Underline">
    <path         style="stroke-width:1;stroke-linecap:round;stroke-linejoin:round"
        d="M12 17c3.31 0 6-2.69 6-6V3h-2.5v8c0 1.93-1.57 3.5-3.5 3.5S8.5 12.93 8.5 11V3H6v8c0 3.31 2.69 6 6 6zm-7 2v2h14v-2H5z" ></path>
</symbol>
<symbol viewBox="0 0 24 24" id="Strikethrough">
    <path         style="stroke-width:1;stroke-linecap:round;stroke-linejoin:round"
        d="M12.47026 3.90436c-2.00943-.071-4.14439 1.01884-4.882 2.96155-.40203 1.03217-.38703 2.2053-.05156 3.25303h4.21047c-.83027-.29398-1.82047-.91333-1.70505-1.93039-.00824-.91617.753-1.65676 1.62783-1.79939 1.29292-.31777 2.5949.19449 3.6516.91759.57175.33396 1.01977-.2215 1.2063-.70548l.54393-1.0316c-1.22269-1.15728-2.94236-1.6752-4.60152-1.6653Zm-8.31475 7.14837v1.62991h6.34942c1.25865.5209 2.82061.57749 3.76212 1.67206.7031 1.01933.22488 2.678-.96976 3.0995-1.37156.51212-2.9361.16123-4.09545-.68943-.47232-.40423-1.29781-.83354-1.71734-.1248L6.64336 18.014c1.93109 1.90029 4.99136 2.59334 7.54784 1.68722 1.71921-.61905 2.96942-2.2687 3.12906-4.0849.11353-1.00694-.0063-2.09184-.61593-2.93368h3.14016v-1.62991H4.15551z" ></path>
</symbol>
<symbol viewBox="0 0 24 24" id="Regex">
    <path         style="stroke-width:1;stroke-linecap:round;stroke-linejoin:round"
        d="M3.87 3.71A13.36 13.36 0 0 0 .8 9.65a11.8 11.8 0 0 0 1.21 7.97c.52.96 1.18 1.82 1.86 2.67.4-.24.89-.37 1.21-.72.4-.44.18-1.06-.2-1.43a10.18 10.18 0 0 1-2.06-6.46 10.5 10.5 0 0 1 2.34-6.2c.36-.52-.03-1.22-.58-1.4Zm16.26 0c-.42.26-.94.39-1.27.77-.35.44-.08 1.02.25 1.38a10.25 10.25 0 0 1 2 7.43 10.9 10.9 0 0 1-2.27 5.22c-.35.49-.05 1.18.49 1.36l.8.42c1.57-1.88 2.85-4.09 3.16-6.54.4-2.7-.13-5.54-1.59-7.86-.46-.77-1-1.48-1.57-2.18Zm-6.74.46v1.69L11.61 5l-1.07 1.52 1.7.8-1.68.81 1.05 1.51 1.78-.85v1.7h1.9v-1.7l1.82.86 1.03-1.53-.72-.34-.95-.45 1.68-.8L17.08 5l-1.79.85V4.17ZM7.62 15.12a1.65 1.65 0 0 0-1.5 1.95c.19.97 1.38 1.55 2.26 1.12.82-.34 1.24-1.45.76-2.22a1.67 1.67 0 0 0-1.52-.85z" ></path>
</symbol>
<symbol viewBox="0 0 24 24" id="Quote">
    <path         style="stroke-width:1;stroke-linecap:round;stroke-linejoin:round"
        d="M6 17h3l2-4V7H5v6h3zm8 0h3l2-4V7h-6v6h3z" ></path>
</symbol>
<symbol viewBox="0 0 24 24" id="ListNumber">
    <path         style="stroke-width:1;stroke-linecap:round;stroke-linejoin:round"
        d="M4.02 3.65c-.12.16-.17.37-.4.49-.17.07-.4.07-.74.07v.68h1.01v2.19H2.88v.72h3.2v-.72H5.1V3.65Zm4.8.94v2.65H21.4V4.59Zm-4.5 5.22a4.73 4.73 0 0 0-1.57.25V11c.43-.24.87-.34 1.34-.38a1 1 0 0 1 .6.16c.15.1.22.24.22.43 0 .16-.06.32-.16.48a8.4 8.4 0 0 1-1.26 1.1c-.29.2-.57.39-.86.57v.68H6.4v-.8H4.24a6.76 6.76 0 0 0 1.68-1.44c.2-.24.26-.47.26-.73 0-.4-.16-.7-.48-.93a2.42 2.42 0 0 0-1.37-.32Zm4.5.94v2.64H21.4v-2.64zm-4.44 5.28a4.95 4.95 0 0 0-1.64.26v.9c.32-.1.58-.17.8-.25.59-.17.91-.15 1.27-.05.51.14.4.62-.04.76-.09.03-.2.05-.32.06-.27.02-.46.01-.72.02v.74h.67c.15 0 .28.02.38.05.11.03.2.08.26.14.2.17.17.46.04.58-.04.07-.13.1-.2.15-.26.13-.52.13-.78.15-.22 0-.45-.04-.71-.11-.29-.08-.54-.17-.79-.25v.91a5.65 5.65 0 0 0 2.6.17c.26-.06.47-.15.65-.27a1.14 1.14 0 0 0 .54-.98.8.8 0 0 0-.09-.41.94.94 0 0 0-.25-.28 1.2 1.2 0 0 0-.34-.17l-.37-.1c.1-.05.5-.2.66-.37a.89.89 0 0 0 .27-.6.8.8 0 0 0-.13-.46 1 1 0 0 0-.4-.33 2.16 2.16 0 0 0-.56-.19c-.23-.04-.5-.07-.8-.07Zm4.45.84v2.65H21.4v-2.65z" ></path>
</symbol>
<symbol viewBox="0 0 24 24" id="ListCheck">
    <path         style="stroke-width:1;stroke-linecap:round;stroke-linejoin:round"
        d="M7.25 2.84a.42.42 0 0 0-.32.13l-2.4 2.71-.98-1c-.28-.27-.58-.16-.72-.01a.57.57 0 0 0-.02.75l1.73 1.74 3.15-3.54c.19-.22.02-.53-.12-.67a.48.48 0 0 0-.32-.1zm1.43 1.68v2.65h12.57V4.52H8.68zM7.06 9.07a.42.42 0 0 0-.32.12L4.35 11.9l-.99-1c-.28-.26-.57-.16-.71 0a.57.57 0 0 0-.03.75l1.73 1.73L7.5 9.84c.19-.22.03-.53-.12-.67a.48.48 0 0 0-.32-.1zm1.62 1.6v2.65h12.57v-2.64H8.68zm-1.62 4.5a.42.42 0 0 0-.32.12L4.35 18l-.99-1c-.28-.27-.57-.16-.71 0a.57.57 0 0 0-.03.75l1.73 1.73 3.15-3.54c.19-.22.03-.53-.12-.67a.48.48 0 0 0-.32-.1zm1.62 1.63v2.65h12.57V16.8H8.68z" ></path>
</symbol>
<symbol viewBox="0 0 24 24" id="ListBullet">
    <path         style="stroke-width:1;stroke-linecap:round;stroke-linejoin:round"
        d="M4.44531 3.90625a1.92969 1.92969 0 0 0-1.92969 1.92969 1.92969 1.92969 0 0 0 1.9297 1.92969A1.92969 1.92969 0 0 0 6.375 5.83592a1.92969 1.92969 0 0 0-1.92969-1.92968Zm4.23438.61719v2.64648H21.25V4.52344h-1.32227ZM4.3125 10.0703A1.92969 1.92969 0 0 0 2.38281 12a1.92969 1.92969 0 0 0 1.92969 1.92969A1.92969 1.92969 0 0 0 6.24219 12a1.92969 1.92969 0 0 0-1.92969-1.92969Zm4.36719.60742v2.64454H21.25v-2.64454h-1.32227ZM4.4375 16.22656a1.92969 1.92969 0 0 0-1.92969 1.92969 1.92969 1.92969 0 0 0 1.92969 1.92969 1.92969 1.92969 0 0 0 1.92969-1.92969 1.92969 1.92969 0 0 0-1.92969-1.92969Zm4.24219.57617v2.64454H21.25v-2.64454h-1.32227z" ></path>
</symbol>
<symbol viewBox="0 0 24 24" id="List">
    <path         style="stroke-width:1;stroke-linecap:round;stroke-linejoin:round"
        d="M2.75 4.52344v2.64648h3.28516V4.52344h-1.9629Zm5.92969 0v2.64648H21.25V4.52344h-1.32227ZM2.75 10.67774v2.64453h3.28516v-2.64454h-1.9629Zm5.92969 0v2.64453H21.25v-2.64454h-1.32227ZM2.75 16.80273v2.64453h3.28516v-2.64454h-1.9629Zm5.92969 0v2.64453H21.25v-2.64454h-1.32227z" ></path>
</symbol>
<symbol viewBox="0 0 24 24" id="Italic">
    <path         style="stroke-width:1;stroke-linecap:round;stroke-linejoin:round"
        d="M14.25 20.11H6l.67-2.88h2.65l2.41-10.46H9.1l.66-2.88H18l-.67 2.88h-2.65l-2.41 10.46h2.64z" ></path>
</symbol>
<symbol viewBox="0 0 24 24" id="Header6">
    <path         style="stroke-width:1;stroke-linecap:round;stroke-linejoin:round"
        d="M2.84 5.37v13.21h2.2V12.8H9.8v5.78H12V5.37H9.8v5.68H5.04V5.37H2.84zm15.86.08c-.62 0-.65.06-.99.52l-2.58 4.2c-1.04 1.81-1.62 3.74-1.02 5.81.3.94.86 1.87 1.93 2.4.87.42 2.12.47 3.11-.02a3.96 3.96 0 0 0 2-2.34 5.5 5.5 0 0 0 0-3.44c-.65-1.76-1.99-2.2-2.93-2.2-.36 0-.91.06-1.46.39l.38-.56 3.2-4.76H18.7zm-1.11 6.6c1.3 0 1.98 1.04 1.98 2.41 0 1.36-.83 2.41-2.01 2.41-1.1 0-1.93-.76-1.93-2.43 0-1.24.7-2.4 1.96-2.4z" ></path>
</symbol>
<symbol viewBox="0 0 24 24" id="Header5">
    <path         style="stroke-width:1;stroke-linecap:round;stroke-linejoin:round"
        d="M2.84 5.37v13.21h2.2V12.8H9.8v5.78H12V5.37H9.8v5.68H5.04V5.37H2.84zm12.52.08-.9 6.36 1.16.4c1.03-.5 2.4-.56 3.09.26.84.98.4 2.65.38 2.75a2.1 2.1 0 0 1-1.03 1.4c-1.04.26-1.91.15-2.76-.57-.3-.22-.64-.2-.85.16l-.57.95a4.08 4.08 0 0 0 3.17 1.54c2.44 0 4.03-2.04 4.03-4.66 0-1.36-.47-2.98-1.98-3.7a4.4 4.4 0 0 0-2.83-.13l.38-2.73h2.97c.59 0 1.09-.25 1.09-1.08v-.95h-5.35z" ></path>
</symbol>
<symbol viewBox="0 0 24 24" id="Header4">
    <path         style="stroke-width:1;stroke-linecap:round;stroke-linejoin:round"
        d="M2.84 5.37v13.21h2.2V12.8H9.8v5.78H12V5.37H9.8v5.68H5.04V5.37H2.84zm15.58.07-5.13 8.3v1.13c.05.26.42.49.7.49h4.57v3.2h1.6v-3.2h1c.31 0 .37-.3.37-.45v-1.3h-1.36V5.45h-1.75zm.2 2.55c-.04.49-.06.93-.06 1.34v4.29h-3.3l3.37-5.63z" ></path>
</symbol>
<symbol viewBox="0 0 24 24" id="Header3">
    <path         style="stroke-width:1;stroke-linecap:round;stroke-linejoin:round"
        d="M17.88 5.328a4.345 4.345 0 0 0-1.642.307c-1.29.496-2.15 1.943-2.3 3.45l1.023.22c.513.129.896-.313 1.03-.856.426-1.302 2.11-1.684 2.964-.717.492.634.508 1.643.178 2.372-.484.81-1.493.876-2.22.91-.007.517.008 1.026.006 1.543.734.042 1.929.155 2.392.904.284.642.304 1.458.027 2.11-.512 1.174-1.983 1.477-2.906.775-.502-.346-.704-.998-1.028-1.512-.374-.423-.623-.226-1.052-.04-.222.11-.767.26-.653.655.365 1.234 1.102 2.425 2.23 2.844 1.34.486 2.905.384 4.102-.504 1.144-.835 1.654-2.513 1.371-4-.17-1.094-.994-1.881-1.894-2.187.266-.203.993-.55 1.32-1.108.67-1.25.545-3.049-.402-4.08-.685-.743-1.61-1.075-2.545-1.086Zm-15.03.047V18.59h2.19v-5.777h4.772v5.777h2.19V5.375h-2.19v5.684H5.04V5.375Z" ></path>
</symbol>
<symbol viewBox="0 0 24 24" id="Header2">
    <path         style="stroke-width:1;stroke-linecap:round;stroke-linejoin:round"
        d="M17.793 5.3281c-.5598-.0112-1.1232.1004-1.6387.3125-1.2655.5032-2.1106 1.9688-2.2578 3.498l.9472.1973c.4463.179.9432-.1224 1.0176-.6875.2485-1.0222 1.2217-1.5967 2.082-1.3945.7078.084 1.2485.8416 1.2618 1.666.0986 1.3746-.6028 2.582-1.373 3.5293-1.2375 1.5122-2.5155 2.9795-3.7696 4.4727-.4307.4188-.3565 1.1094-.3594 1.6953h7.6543v-1.0335c.0679-.465-.2633-.8753-.6699-.8322-1.4465.0225-3.0295-.0321-4.2676.0395l1.8223-2.1933c.8742-1.0876 1.8621-2.0918 2.4726-3.4258.6907-1.4555.6343-3.4683-.3964-4.6875-.6715-.7811-1.5925-1.1376-2.5254-1.1563ZM2.8496 5.375v13.2148h2.1895v-5.7773h4.7734v5.7773h2.1895V5.375H9.8125v5.6836H5.0391V5.375Z" ></path>
</symbol>
<symbol viewBox="0 0 24 24" id="Header1">
    <path         style="stroke-width:1;stroke-linecap:round;stroke-linejoin:round"
        d="m17.3906 5.373-3.58 3.4336.5156.797c.173.3928.6348.5897.9707.3222.523-.4688 1.0272-.966 1.543-1.4453.1936-.2327.2728-.2138.203.1543-.0212 2.7657-.002 5.5328-.0077 8.2988h-2.379v1.6934h6.4942v-1.6934h-2.1113V5.373Zm-14.541.002v13.2148h2.1895v-5.7773h4.7734v5.7773h2.1895V5.375H9.8125v5.6836H5.0391V5.375Z" ></path>
</symbol>
<symbol viewBox="0 0 24 24" id="Header">
    <path         style="stroke-width:1;stroke-linecap:round;stroke-linejoin:round"
        d="M18.3479 3.8691V20.131h-3.0365v-7.1075H8.6886v7.1075H5.652V3.869h3.0365v6.995h6.6228V3.869Z" ></path>
</symbol>
<symbol viewBox="0 0 24 24" id="CaseSensitive">
    <path         style="stroke-width:1;stroke-linecap:round;stroke-linejoin:round"
        d="M10.2552 13.8331c-.85298-2.25485-1.76857-4.48748-2.57725-6.75807-.10861-.32934-.20465-1.02838-.30551-.28551-.71762 2.11812-1.5906 4.18193-2.377 6.276-.01442.24814-.52246.83468-.07703.76758h5.33679zm4.1959 5.5253c-.69598-.01674-1.81282.36479-2.19666-.3608-.482-1.23587-.95855-2.4739-1.43844-3.7106H4.138c-.4977 1.26368-.96698 2.54006-1.48265 3.79571-.4935.56974-1.58431.28997-2.12196.22459L6.4642 4.4753H8.5l5.9511 14.8831zm7.2286-4.736c-1.43413.09311-3.01688.1138-4.22888.98426-.9211.72586-.46579 2.4555.72617 2.57295 1.31306.2445 2.7285-.39653 3.50271-1.43104V14.6224zm-5.972-4.2997c1.479-1.49283 3.882-2.14901 5.84914-1.30503 1.53109.68986 2.03099 2.49943 1.93006 4.05006v6.29067c-.50385-.05525-1.27086.20812-1.4645-.4362l-.2077-.997c-1.05674 1.10014-2.5789 1.76224-4.11558 1.57603-1.28287-.0604-2.46479-1.10436-2.49634-2.42381-.20724-1.34964.88964-2.46493 2.08188-2.8808 1.39398-.5523 2.90676-.71311 4.39504-.74782.01029-1.08438.08712-2.42964-.99561-3.0552-1.20179-.5852-2.62739-.0854-3.61579.6976-.6003.48923-1.10746-.1841-1.32402-.70335l-.02689-.04789z" ></path>
</symbol>
<symbol viewBox="0 0 24 24" id="Bold">
    <path         style="stroke-width:1;stroke-linecap:round;stroke-linejoin:round"
        d="M5.95508 3.84766v16.30468h5.2246c1.5664.03538 3.20334-.04002 4.5918-.85156 1.79037-.93192 2.67071-3.18129 2.11133-5.09765-.40166-1.42703-1.84128-2.19732-3.19922-2.47461 1.14227-.3801 2.2463-1.1424 2.6836-2.30665.44416-1.34087.21019-2.9768-.7754-4.02734-1.30048-1.30993-3.2594-1.53737-5.01952-1.54687zm4.78906 2.33398c.7582-.00636 1.5067.02334 2.3457.26758.83866.32514 1.2393 1.24318 1.18946 2.0996.10021.97328-.75108 1.7523-1.64649 1.91798-1.08806.14282-2.1902.059-3.28515.08203V6.19336c.48412.00899.94156-.0079 1.39648-.01172zM9.34766 13.2422h2.49414c.88869-.0091 1.93336.1281 2.54297.8711.5181.73763.47035 1.62428.16992 2.36523-.5423 1.02094-1.54027 1.3297-2.49805 1.30664H9.34766Z" ></path>
</symbol>
</defs>
</svg>