<?xml version="1.0" encoding="UTF-8" standalone="no"?>
<!-- Created with Inkscape (http://www.inkscape.org/) -->

<svg
   width="24"
   height="24"
   viewBox="0 0 24 24"
   version="1.1"
   id="svg5"
   inkscape:export-filename="AddEndNodeAfterIcon.svg"
   inkscape:export-xdpi="96"
   inkscape:export-ydpi="96"
   sodipodi:docname="AddEndNodeAfterIcon.svg"
   inkscape:version="1.2 (dc2aedaf03, 2022-05-15)"
   xmlns:inkscape="http://www.inkscape.org/namespaces/inkscape"
   xmlns:sodipodi="http://sodipodi.sourceforge.net/DTD/sodipodi-0.dtd"
   xmlns="http://www.w3.org/2000/svg"
   xmlns:svg="http://www.w3.org/2000/svg">
  <sodipodi:namedview
     id="namedview7"
     pagecolor="#505050"
     bordercolor="#eeeeee"
     borderopacity="1"
     inkscape:showpageshadow="0"
     inkscape:pageopacity="0"
     inkscape:pagecheckerboard="0"
     inkscape:deskcolor="#505050"
     inkscape:document-units="mm"
     showgrid="false"
     inkscape:zoom="34.708333"
     inkscape:cx="10.055222"
     inkscape:cy="12.057623"
     inkscape:window-width="2297"
     inkscape:window-height="1243"
     inkscape:window-x="2489"
     inkscape:window-y="67"
     inkscape:window-maximized="0"
     inkscape:current-layer="layer1" />
  <defs
     id="defs2" />
  <g
     inkscape:label="Layer 1"
     inkscape:groupmode="layer"
     id="layer1">
    <path
       id="path1574"
       style="color:#000000;fill:#000000;stroke-linecap:round"
       d="m 18.576172,6.7070312 c -2.645454,7e-7 -4.739987,1.939653 -5.125,4.4804688 0.02147,0.0043 0.04359,0.01245 0,0.01172 H 9.1289062 c -0.027264,0.0075 -0.015901,-1.5e-5 -0.00391,-0.0059 V 7.5253906 H 0.17578125 V 8.2148438 16.474609 H 9.125 L 9.12109,12.578125 H 13.375 c 0.0017,-0.0023 7.45e-4,-0.0023 0.0098,-0.0078 2.65e-4,0.0027 0.0017,0.0051 0.002,0.0078 0.03576,-0.0088 0.01734,-7.34e-4 0,0.0039 0.269577,2.665548 2.454691,4.710937 5.189453,4.710938 2.915391,0 5.292968,-2.377578 5.292969,-5.292969 0,-2.9153923 -2.377577,-5.2929692 -5.292969,-5.2929688 z m -5.189453,5.8749998 c -1.31e-4,-0.0013 1.29e-4,-0.0026 0,-0.0039 H 13.375 c -0.0037,0.0049 9.86e-4,0.0068 0.01172,0.0039 z m 0.06445,-1.394531 c -0.01976,-0.004 -0.03922,-0.0051 -0.002,0.0098 4.94e-4,-0.0033 0.0015,-0.0065 0.002,-0.0098 z m 5.125,-3.1015625 c 2.16984,-4e-7 3.914063,1.7442222 3.914062,3.9140625 0,2.16984 -1.744222,3.914062 -3.914062,3.914062 -2.169839,0 -3.914062,-1.744223 -3.914063,-3.914062 0,-2.1698396 1.744223,-3.914062 3.914063,-3.9140625 z M 1.5566406,8.9042969 H 7.7460938 V 15.095703 H 1.5566406 Z M 18.580078,9.3925781 c -1.432295,1e-6 -2.609375,1.1751269 -2.609375,2.6074219 0,1.432295 1.17708,2.607421 2.609375,2.607422 1.432296,0 2.607422,-1.175126 2.607422,-2.607422 0,-1.432296 -1.175126,-2.6074224 -2.607422,-2.6074219 z m 0,1.3789059 c 0.686743,0 1.228516,0.541773 1.228516,1.228516 0,0.686743 -0.541773,1.228516 -1.228516,1.228516 -0.686742,-1e-6 -1.230469,-0.541773 -1.230469,-1.228516 0,-0.686743 0.543727,-1.228515 1.230469,-1.228516 z" />
  </g>
</svg>
