<?xml version="1.0" encoding="UTF-8" standalone="no"?>
<!-- Created with Inkscape (http://www.inkscape.org/) -->

<svg
   width="24"
   height="24"
   viewBox="0 0 24 24"
   version="1.1"
   id="svg5"
   inkscape:export-filename="AddLinkIcon.svg"
   inkscape:export-xdpi="96"
   inkscape:export-ydpi="96"
   sodipodi:docname="AddLink.svg"
   xmlns:inkscape="http://www.inkscape.org/namespaces/inkscape"
   xmlns:sodipodi="http://sodipodi.sourceforge.net/DTD/sodipodi-0.dtd"
   xmlns="http://www.w3.org/2000/svg"
   xmlns:svg="http://www.w3.org/2000/svg">
  <sodipodi:namedview
     id="namedview7"
     pagecolor="#505050"
     bordercolor="#eeeeee"
     borderopacity="1"
     inkscape:showpageshadow="0"
     inkscape:pageopacity="0"
     inkscape:pagecheckerboard="0"
     inkscape:deskcolor="#505050"
     inkscape:document-units="mm"
     showgrid="false" />
  <defs
     id="defs2" />
  <g
     inkscape:label="Layer 1"
     inkscape:groupmode="layer"
     id="layer1">
    <path
       id="path4228"
       style="color:#000000;fill:#000000;stroke-linecap:round;-inkscape-stroke:none"
       d="M 11.983399,4.5234375 A 0.87874001,0.87874001 0 0 0 11.104493,5.4023438 V 7.4785156 H 9.0654298 A 0.87874001,0.87874001 0 0 0 8.1865236,8.3574219 0.87874001,0.87874001 0 0 0 9.0654298,9.2363281 h 2.0390632 v 2.0019529 a 0.87874001,0.87874001 0 0 0 0.878906,0.876953 0.87874001,0.87874001 0 0 0 0.878906,-0.876953 V 9.2363281 h 2.039063 A 0.87874001,0.87874001 0 0 0 15.780274,8.3574219 0.87874001,0.87874001 0 0 0 14.901368,7.4785156 H 12.862305 V 5.4023438 A 0.87874001,0.87874001 0 0 0 11.983399,4.5234375 Z M 3.3916017,11.496094 c -1.7178999,0 -3.12890657,1.411006 -3.12890626,3.128906 4.4e-7,1.717899 1.41100696,3.128906 3.12890626,3.128906 1.3929147,0 2.3431979,-0.975342 2.7441407,-2.242187 0.033556,0.01651 -0.03148,-0.01991 0.00391,-0.0078 H 17.848633 c 0.04569,-0.01457 -0.0427,0.0277 0,0.0059 0.397174,1.27302 1.362428,2.24414 2.759766,2.24414 1.717899,1e-6 3.128906,-1.411007 3.128906,-3.128906 0,-1.717899 -1.411007,-3.128907 -3.128906,-3.128906 -1.387576,0 -2.344565,0.988653 -2.75,2.248047 -0.04663,-0.01369 0.05416,0.0078 0.0059,0.002 H 6.145549 6.143599 c -0.4009424,-1.266844 -1.359038,-2.25 -2.7519531,-2.25 z m 0,1.757812 c 0.768089,0 1.3710939,0.603005 1.3710938,1.371094 -2e-7,0.768088 -0.603005,1.371094 -1.3710938,1.371094 -0.7680886,0 -1.3710935,-0.603006 -1.3710937,-1.371094 -2e-7,-0.768089 0.6030048,-1.371094 1.3710937,-1.371094 z m 17.2167973,0 c 0.768089,0 1.371094,0.603005 1.371094,1.371094 0,0.768089 -0.603005,1.371094 -1.371094,1.371094 -0.768089,0 -1.371094,-0.603005 -1.371094,-1.371094 0,-0.768089 0.603005,-1.371094 1.371094,-1.371094 z" />
  </g>
</svg>
