<?xml version="1.0" encoding="UTF-8" standalone="no"?>
<!-- Created with Inkscape (http://www.inkscape.org/) -->

<svg
   width="24"
   height="24"
   viewBox="0 0 24 24"
   version="1.1"
   id="svg5"
   inkscape:export-filename="BumpModerateIcon.svg"
   inkscape:export-xdpi="96"
   inkscape:export-ydpi="96"
   sodipodi:docname="BumpModerateIcon.svg"
   xmlns:inkscape="http://www.inkscape.org/namespaces/inkscape"
   xmlns:sodipodi="http://sodipodi.sourceforge.net/DTD/sodipodi-0.dtd"
   xmlns="http://www.w3.org/2000/svg"
   xmlns:svg="http://www.w3.org/2000/svg">
  <sodipodi:namedview
     id="namedview7"
     pagecolor="#505050"
     bordercolor="#eeeeee"
     borderopacity="1"
     inkscape:showpageshadow="0"
     inkscape:pageopacity="0"
     inkscape:pagecheckerboard="0"
     inkscape:deskcolor="#505050"
     inkscape:document-units="mm"
     showgrid="false"
     showguides="true" />
  <defs
     id="defs2" />
  <g
     inkscape:label="Layer 1"
     inkscape:groupmode="layer"
     id="layer1">
    <path
       id="path14665"
       style="color:#000000;fill:#000000;stroke-linecap:round;stroke-linejoin:round"
       d="M 12.029297,4.1074219 A 0.9449745,0.9449745 0 0 0 11.412109,4.3398438 L 4.6816406,10.210938 a 0.94488001,0.94488001 0 0 0 -0.091797,1.332031 0.94488001,0.94488001 0 0 0 1.3339843,0.0918 L 12.039062,6.3007812 18.083984,11.478516 A 0.94488001,0.94488001 0 0 0 19.416016,11.375 0.94488001,0.94488001 0 0 0 19.3125,10.042969 L 12.648438,4.3339844 A 0.9449745,0.9449745 0 0 0 12.029297,4.1074219 Z m 0,7.4882811 a 0.9449745,0.9449745 0 0 0 -0.617188,0.232422 l -6.7304684,5.871094 a 0.94488001,0.94488001 0 0 0 -0.091797,1.333984 0.94488001,0.94488001 0 0 0 1.3339843,0.08984 l 6.1152341,-5.333985 6.044922,5.177735 A 0.94488001,0.94488001 0 0 0 19.416016,18.863281 0.94488001,0.94488001 0 0 0 19.3125,17.53125 l -6.664062,-5.707031 a 0.9449745,0.9449745 0 0 0 -0.619141,-0.228516 z" />
  </g>
</svg>
