<?xml version="1.0" encoding="UTF-8" standalone="no"?>
<!-- Created with Inkscape (http://www.inkscape.org/) -->

<svg
   width="24"
   height="24"
   viewBox="0 0 24 24"
   version="1.1"
   id="svg5"
   inkscape:export-filename="ArrowDown.svg"
   inkscape:export-xdpi="96"
   inkscape:export-ydpi="96"
   sodipodi:docname="CloseIcon.svg"
   xmlns:inkscape="http://www.inkscape.org/namespaces/inkscape"
   xmlns:sodipodi="http://sodipodi.sourceforge.net/DTD/sodipodi-0.dtd"
   xmlns="http://www.w3.org/2000/svg"
   xmlns:svg="http://www.w3.org/2000/svg">
  <sodipodi:namedview
     id="namedview7"
     pagecolor="#505050"
     bordercolor="#eeeeee"
     borderopacity="1"
     inkscape:showpageshadow="0"
     inkscape:pageopacity="0"
     inkscape:pagecheckerboard="0"
     inkscape:deskcolor="#505050"
     inkscape:document-units="mm"
     showgrid="false"
     showguides="true" />
  <defs
     id="defs2" />
  <g
     inkscape:label="Layer 1"
     inkscape:groupmode="layer"
     id="layer1">
    <path
       id="path12821"
       style="color:#000000;fill:#000000;stroke-linecap:round;-inkscape-stroke:none"
       d="m 4.2382812,3.1699219 a 1.067715,1.067715 0 0 0 -0.7558593,0.3125 1.067715,1.067715 0 0 0 0,1.5117187 L 10.488281,12 3.4824219,19.005859 a 1.067715,1.067715 0 0 0 0,1.511719 1.067715,1.067715 0 0 0 1.5117187,0 L 12,13.511719 l 7.005859,7.005859 a 1.067715,1.067715 0 0 0 1.511719,0 1.067715,1.067715 0 0 0 0,-1.511719 L 13.511719,12 20.517578,4.9941406 a 1.067715,1.067715 0 0 0 0,-1.5117187 1.067715,1.067715 0 0 0 -0.755859,-0.3125 1.067715,1.067715 0 0 0 -0.75586,0.3125 L 12,10.488281 4.9941406,3.4824219 a 1.067715,1.067715 0 0 0 -0.7558594,-0.3125 z" />
  </g>
</svg>
