<?xml version="1.0" encoding="UTF-8" standalone="no"?>
<!-- Created with Inkscape (http://www.inkscape.org/) -->

<svg
   width="24"
   height="24"
   viewBox="0 0 24 24"
   version="1.1"
   id="svg5"
   inkscape:export-filename="CompressIcon.png"
   inkscape:export-xdpi="96"
   inkscape:export-ydpi="96"
   sodipodi:docname="CompressIcon.svg"
   xmlns:inkscape="http://www.inkscape.org/namespaces/inkscape"
   xmlns:sodipodi="http://sodipodi.sourceforge.net/DTD/sodipodi-0.dtd"
   xmlns="http://www.w3.org/2000/svg"
   xmlns:svg="http://www.w3.org/2000/svg">
  <sodipodi:namedview
     id="namedview7"
     pagecolor="#505050"
     bordercolor="#eeeeee"
     borderopacity="1"
     inkscape:showpageshadow="0"
     inkscape:pageopacity="0"
     inkscape:pagecheckerboard="0"
     inkscape:deskcolor="#505050"
     inkscape:document-units="mm"
     showgrid="false" />
  <defs
     id="defs2" />
  <g
     inkscape:label="Layer 1"
     inkscape:groupmode="layer"
     id="layer1">
    <path
       id="path1060-0"
       style="color:#000000;fill:#000000;stroke-linecap:round;-inkscape-stroke:none"
       d="m 12,1.0820312 a 0.94488001,0.94488001 0 0 0 -0.945312,0.9453126 v 2.8144531 l -1.8964849,0.015625 1.1914059,1.5117187 1.699219,2.1601563 2.783203,-3.7207031 -1.886719,0.015625 V 2.0273438 A 0.94488001,0.94488001 0 0 0 12,1.0820312 Z M 4.6464844,9.640625 A 0.94488001,0.94488001 0 0 0 3.7011719,10.585938 0.94488001,0.94488001 0 0 0 4.6464844,11.53125 H 19.353516 a 0.94488001,0.94488001 0 0 0 0.945312,-0.945312 0.94488001,0.94488001 0 0 0 -0.945312,-0.945313 z m 0,2.916016 a 0.94488001,0.94488001 0 0 0 -0.9453125,0.945312 0.94488001,0.94488001 0 0 0 0.9453125,0.943359 H 19.353516 a 0.94488001,0.94488001 0 0 0 0.945312,-0.943359 0.94488001,0.94488001 0 0 0 -0.945312,-0.945312 z m 7.3847656,2.914062 -2.7832031,3.720703 1.8867191,-0.01563 v 2.796875 a 0.94488001,0.94488001 0 0 0 0.945312,0.945313 0.94488001,0.94488001 0 0 0 0.945313,-0.945313 v -2.814453 l 1.896484,-0.01563 -1.191406,-1.511719 z" />
  </g>
</svg>
