<?xml version="1.0" encoding="UTF-8" standalone="no"?>
<!-- Created with Inkscape (http://www.inkscape.org/) -->

<svg
   width="24"
   height="24"
   viewBox="0 0 24 24"
   version="1.1"
   id="svg5"
   inkscape:export-filename="ShortcutIcon.svg"
   inkscape:export-xdpi="96"
   inkscape:export-ydpi="96"
   sodipodi:docname="StandardIcon.svg"
   xmlns:inkscape="http://www.inkscape.org/namespaces/inkscape"
   xmlns:sodipodi="http://sodipodi.sourceforge.net/DTD/sodipodi-0.dtd"
   xmlns="http://www.w3.org/2000/svg"
   xmlns:svg="http://www.w3.org/2000/svg">
  <sodipodi:namedview
     id="namedview7"
     pagecolor="#505050"
     bordercolor="#eeeeee"
     borderopacity="1"
     inkscape:showpageshadow="0"
     inkscape:pageopacity="0"
     inkscape:pagecheckerboard="0"
     inkscape:deskcolor="#505050"
     inkscape:document-units="mm"
     showgrid="false" />
  <defs
     id="defs2" />
  <g
     inkscape:label="Layer 1"
     inkscape:groupmode="layer"
     id="layer1">
    <path
       style="color:#000000;fill:#000000;stroke-linecap:round;-inkscape-stroke:none"
       d="M 10.368416,2.5566408 C 8.2237272,4.75033 6.0523982,7.04388 4.1789622,9.0078127 c -0.00992,4.1279383 0,8.2959693 0,12.4355463 H 19.825447 V 2.5566408 c -3.152344,0 -6.304687,0 -9.457031,0 z m 1.3125,1.5117188 h 6.632812 V 19.931641 H 5.690681 v -9.792969 h 5.945313 l 0.0059,-0.7499999 c 0.01303,-1.7735077 0.02603,-3.546801 0.03906,-5.3203125 z m -1.517578,0.8808593 c -0.009,1.2259617 -0.01833,2.451771 -0.02734,3.6777344 H 6.6418528 C 7.822108,7.3954461 8.9937118,6.1671253 10.163338,4.9492189 Z M 15.753181,10.259766 10.3899,15.580078 8.2414622,13.447266 C 7.522309,12.728203 6.4683148,13.821151 7.1770128,14.521525 l 3.2128912,3.1875 6.427734,-6.375 c 0.704951,-0.747322 -0.422191,-1.6815737 -1.064457,-1.074259 z"
       id="path8522"
       sodipodi:nodetypes="cccccccccccccccccccccccccc" />
  </g>
</svg>
