<?xml version="1.0" encoding="UTF-8" standalone="no"?>
<!-- Created with Inkscape (http://www.inkscape.org/) -->

<svg
   width="24"
   height="24"
   viewBox="0 0 24 24"
   version="1.1"
   id="svg5"
   inkscape:export-filename="CancelIcon.svg"
   inkscape:export-xdpi="96"
   inkscape:export-ydpi="96"
   sodipodi:docname="CancelIcon.svg"
   xmlns:inkscape="http://www.inkscape.org/namespaces/inkscape"
   xmlns:sodipodi="http://sodipodi.sourceforge.net/DTD/sodipodi-0.dtd"
   xmlns="http://www.w3.org/2000/svg"
   xmlns:svg="http://www.w3.org/2000/svg">
  <sodipodi:namedview
     id="namedview7"
     pagecolor="#505050"
     bordercolor="#eeeeee"
     borderopacity="1"
     inkscape:showpageshadow="0"
     inkscape:pageopacity="0"
     inkscape:pagecheckerboard="0"
     inkscape:deskcolor="#505050"
     inkscape:document-units="mm"
     showgrid="false" />
  <defs
     id="defs2" />
  <g
     inkscape:label="Layer 1"
     inkscape:groupmode="layer"
     id="layer1">
    <path
       id="path11189"
       style="color:#000000;fill:#000000;stroke-linecap:round"
       d="M 12,2.421875 C 6.7186558,2.4218751 2.4218751,6.7186558 2.421875,12 c 2e-7,5.281345 4.2967808,9.578125 9.578125,9.578125 4.369636,0 8.061303,-2.9425 9.207031,-6.949219 -0.548562,0.0059 -1.062683,-0.03859 -1.570312,-0.02539 C 18.556694,17.784623 15.552377,20.066406 12,20.066406 7.5356961,20.066406 3.9335938,16.464305 3.9335938,12 3.9335938,7.5356961 7.5356961,3.9335938 12,3.9335938 c 1.542211,0 2.981611,0.4309533 4.205078,1.1777343 C 16.638083,4.7613699 17.02181,4.4604743 17.388672,4.0878906 15.852277,3.0382626 13.997016,2.4218751 12,2.421875 Z M 19.570312,7.8945312 12.078125,14.447266 7.7851562,10.203125 C 6.8559781,9.2967529 5.5696425,10.687771 6.4277344,11.519531 l 5.6503906,5.642578 8.849609,-7.9531246 C 21.567843,8.5098988 20.29488,7.296485 19.570312,7.8945312 Z"
       sodipodi:nodetypes="sssccsssccsccccccc" />
  </g>
</svg>
