<?xml version="1.0" encoding="UTF-8" standalone="no"?>
<!-- Created with Inkscape (http://www.inkscape.org/) -->

<svg
   width="24"
   height="24"
   viewBox="0 0 24 24"
   version="1.1"
   id="svg5"
   inkscape:export-filename="AddIcon.svg"
   inkscape:export-xdpi="96"
   inkscape:export-ydpi="96"
   sodipodi:docname="AddIcon.svg"
   xmlns:inkscape="http://www.inkscape.org/namespaces/inkscape"
   xmlns:sodipodi="http://sodipodi.sourceforge.net/DTD/sodipodi-0.dtd"
   xmlns="http://www.w3.org/2000/svg"
   xmlns:svg="http://www.w3.org/2000/svg">
  <sodipodi:namedview
     id="namedview7"
     pagecolor="#505050"
     bordercolor="#eeeeee"
     borderopacity="1"
     inkscape:showpageshadow="0"
     inkscape:pageopacity="0"
     inkscape:pagecheckerboard="0"
     inkscape:deskcolor="#505050"
     inkscape:document-units="mm"
     showgrid="false" />
  <defs
     id="defs2" />
  <g
     inkscape:label="Layer 1"
     inkscape:groupmode="layer"
     id="layer1">
    <path
       style="color:#000000;fill:#000000;stroke-linecap:round;-inkscape-stroke:none"
       d="M 12,3.3554689 A 1.13386,1.13386 0 0 0 10.865234,4.4902345 V 10.867188 L 4.4882813,10.875 a 1.13386,1.13386 0 0 0 -1.1328124,1.134766 1.13386,1.13386 0 0 0 1.1367187,1.132812 l 6.3730464,-0.0078 v 6.375 A 1.13386,1.13386 0 0 0 12,20.644531 1.13386,1.13386 0 0 0 13.134766,19.509766 v -6.376953 l 6.376953,-0.0078 a 1.13386,1.13386 0 0 0 1.132812,-1.134766 1.13386,1.13386 0 0 0 -1.136719,-1.132812 l -6.373046,0.0078 V 4.4902345 A 1.13386,1.13386 0 0 0 12,3.3554689 Z"
       id="path2772" />
  </g>
</svg>
