<?xml version="1.0" encoding="UTF-8" standalone="no"?>
<!-- Created with Inkscape (http://www.inkscape.org/) -->

<svg
   width="24"
   height="24"
   viewBox="0 0 24 24"
   version="1.1"
   id="svg5"
   inkscape:export-filename="AddLinkIcon.svg"
   inkscape:export-xdpi="96"
   inkscape:export-ydpi="96"
   sodipodi:docname="AddLinkIcon.svg"
   xmlns:inkscape="http://www.inkscape.org/namespaces/inkscape"
   xmlns:sodipodi="http://sodipodi.sourceforge.net/DTD/sodipodi-0.dtd"
   xmlns="http://www.w3.org/2000/svg"
   xmlns:svg="http://www.w3.org/2000/svg">
  <sodipodi:namedview
     id="namedview7"
     pagecolor="#505050"
     bordercolor="#eeeeee"
     borderopacity="1"
     inkscape:showpageshadow="0"
     inkscape:pageopacity="0"
     inkscape:pagecheckerboard="0"
     inkscape:deskcolor="#505050"
     inkscape:document-units="mm"
     showgrid="false" />
  <defs
     id="defs2" />
  <g
     inkscape:label="Layer 1"
     inkscape:groupmode="layer"
     id="layer1">
    <path
       id="path18528"
       style="fill-opacity:0.195122;stroke-width:1.88976;stroke-linecap:round;stroke-linejoin:round;stroke-opacity:0.280488"
       d="M 18.71875,2.453125 A 3.109375,3.109375 0 0 0 15.753906,4.6328125 C 14.654078,4.8052125 13.739601,5.435396 13.013672,6.140625 12.179056,6.9514416 11.545465,7.8985872 11.082031,8.6289062 10.474954,9.5855935 9.0858836,10.745815 7.4375,10.980469 A 3.109375,3.109375 0 0 0 4.5,8.890625 3.109375,3.109375 0 0 0 1.390625,12 3.109375,3.109375 0 0 0 4.5,15.109375 3.109375,3.109375 0 0 0 7.4511719,12.964844 c 1.645883,0.236514 3.0322941,1.395977 3.6386721,2.351562 0.463433,0.73032 1.097024,1.677465 1.93164,2.488282 0.71939,0.698875 1.62434,1.322934 2.710938,1.501953 a 3.109375,3.109375 0 0 0 2.986328,2.240234 3.109375,3.109375 0 0 0 3.109375,-3.109375 3.109375,3.109375 0 0 0 -3.109375,-3.109375 3.109375,3.109375 0 0 0 -2.917969,2.058594 c -0.493439,-0.144236 -0.984333,-0.472588 -1.46289,-0.9375 -0.643133,-0.624793 -1.214639,-1.454756 -1.652344,-2.144531 -0.534741,-0.842692 -1.374822,-1.704768 -2.447266,-2.333985 1.068855,-0.628847 1.905958,-1.489349 2.439453,-2.330078 C 13.11544,8.9508505 13.686946,8.1208867 14.330078,7.4960938 14.804736,7.0349712 15.291869,6.7085473 15.78125,6.5625 A 3.109375,3.109375 0 0 0 18.71875,8.671875 3.109375,3.109375 0 0 0 21.828125,5.5625 3.109375,3.109375 0 0 0 18.71875,2.453125 Z m 0,1.75 A 1.359375,1.359375 0 0 1 20.078125,5.5625 1.359375,1.359375 0 0 1 18.71875,6.921875 1.359375,1.359375 0 0 1 17.359375,5.5625 1.359375,1.359375 0 0 1 18.71875,4.203125 Z M 4.5,10.640625 A 1.359375,1.359375 0 0 1 5.859375,12 1.359375,1.359375 0 0 1 4.5,13.359375 1.359375,1.359375 0 0 1 3.140625,12 1.359375,1.359375 0 0 1 4.5,10.640625 Z m 14.21875,6.4375 A 1.359375,1.359375 0 0 1 20.078125,18.4375 1.359375,1.359375 0 0 1 18.71875,19.796875 1.359375,1.359375 0 0 1 17.359375,18.4375 1.359375,1.359375 0 0 1 18.71875,17.078125 Z" />
  </g>
</svg>
