<?xml version="1.0" encoding="UTF-8" standalone="no"?>
<!-- Created with Inkscape (http://www.inkscape.org/) -->

<svg
   width="24"
   height="24"
   viewBox="0 0 24 24"
   version="1.1"
   id="svg5"
   inkscape:export-filename="BuildIcon.svg"
   inkscape:export-xdpi="96"
   inkscape:export-ydpi="96"
   sodipodi:docname="SearchIcon.svg"
   xmlns:inkscape="http://www.inkscape.org/namespaces/inkscape"
   xmlns:sodipodi="http://sodipodi.sourceforge.net/DTD/sodipodi-0.dtd"
   xmlns="http://www.w3.org/2000/svg"
   xmlns:svg="http://www.w3.org/2000/svg">
  <sodipodi:namedview
     id="namedview7"
     pagecolor="#505050"
     bordercolor="#eeeeee"
     borderopacity="1"
     inkscape:showpageshadow="0"
     inkscape:pageopacity="0"
     inkscape:pagecheckerboard="0"
     inkscape:deskcolor="#505050"
     inkscape:document-units="mm"
     showgrid="false" />
  <defs
     id="defs2" />
  <g
     inkscape:label="Layer 1"
     inkscape:groupmode="layer"
     id="layer1">
    <path
       id="path1236"
       style="color:#000000;fill:#000000;fill-opacity:1;stroke:none;stroke-width:1;stroke-linecap:round;stroke-linejoin:round"
       d="M 9.2013203,3.4310432 A 5.5710434,5.5710434 0 0 0 6.7643843,3.8917576 L 11.023972,8.151345 8.1465273,11.028789 3.8970433,6.7793052 a 5.5710434,5.5710434 0 0 0 1.155827,6.1570028 5.5710434,5.5710434 0 0 0 6.2358097,1.121476 l 5.942812,5.942811 a 1.9551257,1.9551257 0 0 0 2.764286,0 1.9551257,1.9551257 0 0 0 0,-2.764286 L 14.06307,11.303601 A 5.5710434,5.5710434 0 0 0 12.931491,5.0576883 5.5710434,5.5710434 0 0 0 9.2013203,3.4310432 Z" />
  </g>
</svg>
