<?xml version="1.0" encoding="UTF-8" standalone="no"?>
<!-- Created with Inkscape (http://www.inkscape.org/) -->

<svg
   width="24"
   height="24"
   viewBox="0 0 24 24"
   version="1.1"
   id="svg5"
   inkscape:export-filename="CompleteIcon.svg"
   inkscape:export-xdpi="96"
   inkscape:export-ydpi="96"
   sodipodi:docname="CompleteIcon.svg"
   xmlns:inkscape="http://www.inkscape.org/namespaces/inkscape"
   xmlns:sodipodi="http://sodipodi.sourceforge.net/DTD/sodipodi-0.dtd"
   xmlns="http://www.w3.org/2000/svg"
   xmlns:svg="http://www.w3.org/2000/svg">
  <sodipodi:namedview
     id="namedview7"
     pagecolor="#505050"
     bordercolor="#eeeeee"
     borderopacity="1"
     inkscape:showpageshadow="0"
     inkscape:pageopacity="0"
     inkscape:pagecheckerboard="0"
     inkscape:deskcolor="#505050"
     inkscape:document-units="mm"
     showgrid="false" />
  <defs
     id="defs2" />
  <g
     inkscape:label="Layer 1"
     inkscape:groupmode="layer"
     id="layer1">
    <path
       id="path8522"
       style="color:#000000;fill:#000000;fill-opacity:0.170732;stroke-width:1;stroke-linecap:round;-inkscape-stroke:none"
       d="m 22.135783,5.3580414 c -0.21169,-0.012421 -0.431368,0.045152 -0.62112,0.1939887 L 11.229703,16.169796 6.8889847,11.686699 C 5.9676905,10.842148 4.8701773,11.997741 5.6520843,12.886227 l 5.5776187,5.75737 11.52186,-11.8938202 c 0.577464,-0.6908311 0.01929,-1.3544743 -0.61578,-1.3917354 z m -4.454621,0.00178 c -0.2052,-0.010592 -0.418738,0.047365 -0.603322,0.192209 l -7.4498777,7.8592116 1.1977457,1.2369 7.489031,-7.898365 C 18.839194,6.0342081 18.296761,5.3915969 17.681162,5.3598214 Z M 1.9467224,11.444658 c -0.7088967,-0.07646 -1.25605063,0.906109 -0.731462,1.441569 L 6.7928802,18.643597 8.6562394,16.89236 7.4584928,15.655459 6.7928802,16.169796 2.4521608,11.686699 C 2.2825264,11.537975 2.1103139,11.462303 1.9467224,11.444658 Z" />
  </g>
</svg>
