<?xml version="1.0" encoding="UTF-8" standalone="no"?>
<!-- Created with Inkscape (http://www.inkscape.org/) -->

<svg
   width="24"
   height="24"
   viewBox="0 0 24 24"
   version="1.1"
   id="svg5"
   inkscape:export-filename="DevelopIcon.png"
   inkscape:export-xdpi="96"
   inkscape:export-ydpi="96"
   sodipodi:docname="DevelopIcon.svg"
   xmlns:inkscape="http://www.inkscape.org/namespaces/inkscape"
   xmlns:sodipodi="http://sodipodi.sourceforge.net/DTD/sodipodi-0.dtd"
   xmlns="http://www.w3.org/2000/svg"
   xmlns:svg="http://www.w3.org/2000/svg">
  <sodipodi:namedview
     id="namedview7"
     pagecolor="#505050"
     bordercolor="#eeeeee"
     borderopacity="1"
     inkscape:showpageshadow="0"
     inkscape:pageopacity="0"
     inkscape:pagecheckerboard="0"
     inkscape:deskcolor="#505050"
     inkscape:document-units="mm"
     showgrid="false"
     showguides="true" />
  <defs
     id="defs2" />
  <g
     inkscape:label="Layer 1"
     inkscape:groupmode="layer"
     id="layer1">
    <path
       id="path7736"
       style="fill:#000000;fill-opacity:1;stroke:none;stroke-width:0;stroke-linecap:round;stroke-linejoin:round;stroke-dasharray:none"
       inkscape:transform-center-x="1.1265941"
       inkscape:transform-center-y="-1.9896344"
       d="M 9.8046875,0.89257812 V 2.8007812 C 5.0488913,3.6956943 1.3593411,7.6654693 1.3144531,12.675781 c -0.00431,0.417448 0.3305985,0.759354 0.7480469,0.763672 0.4182045,0.0043 0.760427,-0.331786 0.7636719,-0.75 C 2.8637742,8.4923353 5.8697143,5.1762116 9.8046875,4.3125 V 5.625 C 11.171528,4.8371153 12.53784,4.0483141 13.904297,3.2597656 Z M 15.427734,3.9296875 c -0.193232,0.3694837 -0.05079,0.8256568 0.31836,1.0195313 2.91092,1.5238449 4.732422,4.5346528 4.732422,7.8203122 0,1.010984 -0.222039,1.9887 -0.556641,2.931641 l -0.84375,-0.632813 -0.541016,4.496094 4.144532,-1.789062 c -0.512289,-0.385525 -1.024694,-0.770895 -1.53711,-1.15625 0.498294,-1.228533 0.845703,-2.511203 0.845703,-3.84961 0,-3.8452281 -2.136301,-7.3767906 -5.542968,-9.160156 C 15.971849,3.3906826 15.658928,3.548412 15.427734,3.9296875 Z M 14.193359,6.2773438 12.494141,7.5332031 C 11.903777,7.4145294 11.322822,7.4300656 10.775391,7.5468751 L 9.0703125,6.3105469 C 8.432393,6.5646214 7.8354661,6.9114576 7.2988281,7.3398438 L 7.5351562,9.4375 c -0.3591212,0.4448455 -0.6440396,0.944772 -0.84375,1.480469 l -1.9453124,0.867187 c -0.1233887,0.698154 -0.048589,1.389287 0.011718,2.03711 l 1.9492187,0.851562 C 6.9107113,15.20892 7.1995978,15.707546 7.5625,16.150391 l -0.21875,2.09375 c 0.5405024,0.424402 1.1407304,0.766638 1.78125,1.015625 l 1.691406,-1.248047 c 0.588021,0.122351 1.16724,0.147812 1.712891,-0.0098 l 1.705078,1.238281 c 0.638604,-0.253902 1.236199,-0.600744 1.773437,-1.029296 l -0.238281,-2.097657 c 0.359121,-0.444846 0.64404,-0.944772 0.84375,-1.480469 l 1.947266,-0.86914 c 0.11984,-0.697051 0.04879,-1.388079 -0.0078,-2.035156 l -1.941399,-0.84571 C 16.40558,10.341451 16.112649,9.8373978 15.744141,9.390625 l 0.21875,-2.1015625 C 15.425745,6.8670306 14.829542,6.5261555 14.193359,6.2773438 Z m -2.541015,3.8750002 c 1.448082,6.54e-4 2.621519,1.174965 2.621094,2.623047 -6.54e-4,1.447319 -1.173775,2.62044 -2.621094,2.621093 -1.447319,-6.53e-4 -2.6204402,-1.173774 -2.621094,-2.621093 -4.249e-4,-1.448082 1.173012,-2.622393 2.621094,-2.623047 z m -8.9980471,4.589844 -0.828125,4.453124 1.4199219,-0.501953 c 1.9296618,2.733981 5.0370763,4.414063 8.4062502,4.414063 2.006621,0 3.969985,-0.58298 5.65039,-1.679688 0.350338,-0.227931 0.449209,-0.696911 0.220704,-1.046875 -0.227932,-0.350338 -0.696912,-0.449209 -1.046876,-0.220703 -1.434776,0.936399 -3.11091,1.435547 -4.824218,1.435547 -2.731948,0 -5.2400994,-1.310238 -6.902344,-3.435547 l 1.3242188,-0.46875 -0.9863282,-0.851562 z"
       sodipodi:nodetypes="cccccccccccscccccscccccccccccccccccccccccccccccccccccscccscccc" />
  </g>
</svg>
