<?xml version="1.0" encoding="UTF-8" standalone="no"?>
<!-- Created with Inkscape (http://www.inkscape.org/) -->

<svg
   width="24"
   height="24"
   viewBox="0 0 24 24"
   version="1.1"
   id="svg5"
   inkscape:export-filename="StarOutlineIcon.svg"
   inkscape:export-xdpi="96"
   inkscape:export-ydpi="96"
   sodipodi:docname="DisplaySettingsIcon.svg"
   inkscape:version="1.2 (dc2aedaf03, 2022-05-15)"
   xmlns:inkscape="http://www.inkscape.org/namespaces/inkscape"
   xmlns:sodipodi="http://sodipodi.sourceforge.net/DTD/sodipodi-0.dtd"
   xmlns="http://www.w3.org/2000/svg"
   xmlns:svg="http://www.w3.org/2000/svg">
  <sodipodi:namedview
     id="namedview7"
     pagecolor="#505050"
     bordercolor="#eeeeee"
     borderopacity="1"
     inkscape:showpageshadow="0"
     inkscape:pageopacity="0"
     inkscape:pagecheckerboard="0"
     inkscape:deskcolor="#505050"
     inkscape:document-units="mm"
     showgrid="false"
     showguides="true"
     inkscape:zoom="22.627417"
     inkscape:cx="12.131301"
     inkscape:cy="9.6122328"
     inkscape:window-width="1920"
     inkscape:window-height="991"
     inkscape:window-x="1121"
     inkscape:window-y="1345"
     inkscape:window-maximized="1"
     inkscape:current-layer="layer1" />
  <defs
     id="defs2" />
  <g
     inkscape:label="Layer 1"
     inkscape:groupmode="layer"
     id="layer1">
    <path
       id="path1375"
       style="color:#000000;fill:#000000;stroke-linecap:round;stroke-linejoin:round;-inkscape-stroke:none"
       d="M 4.890625 2.4648438 C 3.4005597 2.4648438 2.1835937 3.6818097 2.1835938 5.171875 L 2.1835938 14.828125 C 2.1835938 16.318191 3.4005596 17.535156 4.890625 17.535156 L 9.4960938 17.535156 L 9.4960938 20.027344 L 5.9375 20.027344 C 4.8822559 20.014704 4.8699952 21.534264 5.9375 21.535156 L 18.0625 21.535156 C 19.084598 21.536756 19.041617 20.028236 18.0625 20.027344 L 14.378906 20.027344 L 14.378906 17.535156 L 19.109375 17.535156 C 20.599441 17.535156 21.816406 16.318191 21.816406 14.828125 L 21.816406 5.171875 C 21.816406 3.6818096 20.599441 2.4648437 19.109375 2.4648438 L 4.890625 2.4648438 z M 4.890625 3.5976562 L 19.109375 3.5976562 C 19.990896 3.5976562 20.683594 4.2903538 20.683594 5.171875 L 20.683594 14.828125 C 20.683594 15.709646 19.990896 16.402344 19.109375 16.402344 L 4.890625 16.402344 C 4.0091038 16.402344 3.3164063 15.709646 3.3164062 14.828125 L 3.3164062 5.171875 C 3.3164062 4.2903537 4.0091037 3.5976563 4.890625 3.5976562 z M 7.8769531 5.4296875 C 7.5962005 5.4355588 7.3147043 5.63799 7.3085938 6.0195312 L 7.3085938 7.09375 L 6.59375 7.09375 C 5.7063572 7.112177 5.7422793 8.2143414 6.59375 8.2265625 L 7.3085938 8.2265625 L 7.3085938 9.3007812 C 7.3049238 10.166077 8.4181365 10.196446 8.4414062 9.3007812 L 8.4414062 8.2265625 L 17.40625 8.2265625 C 18.2384 8.2523295 18.246672 7.1059711 17.40625 7.09375 L 8.4414062 7.09375 L 8.4414062 6.0195312 C 8.4377163 5.6145047 8.1577058 5.4238162 7.8769531 5.4296875 z M 16.111328 10.550781 C 15.830578 10.54491 15.550575 10.735598 15.546875 11.140625 L 15.546875 12.214844 L 6.5820312 12.214844 C 5.7416091 12.227065 5.7498811 13.373426 6.5820312 13.347656 L 15.546875 13.347656 L 15.546875 14.421875 C 15.570145 15.31754 16.683387 15.28717 16.679688 14.421875 L 16.679688 13.347656 L 17.394531 13.347656 C 18.246002 13.335435 18.281924 12.233274 17.394531 12.214844 L 16.679688 12.214844 L 16.679688 11.140625 C 16.673577 10.759083 16.392078 10.556652 16.111328 10.550781 z M 10.628906 17.535156 L 13.246094 17.535156 L 13.246094 20.027344 L 10.628906 20.027344 L 10.628906 17.535156 z " />
  </g>
</svg>
