<?xml version="1.0" encoding="UTF-8" standalone="no"?>
<!-- Created with Inkscape (http://www.inkscape.org/) -->

<svg
   width="24"
   height="24"
   viewBox="0 0 24 24"
   version="1.1"
   id="svg5"
   inkscape:export-filename="EllipsisIcon.svg"
   inkscape:export-xdpi="96"
   inkscape:export-ydpi="96"
   sodipodi:docname="DragIcon.svg"
   inkscape:version="1.2 (dc2aedaf03, 2022-05-15)"
   xmlns:inkscape="http://www.inkscape.org/namespaces/inkscape"
   xmlns:sodipodi="http://sodipodi.sourceforge.net/DTD/sodipodi-0.dtd"
   xmlns="http://www.w3.org/2000/svg"
   xmlns:svg="http://www.w3.org/2000/svg">
  <sodipodi:namedview
     id="namedview7"
     pagecolor="#505050"
     bordercolor="#eeeeee"
     borderopacity="1"
     inkscape:showpageshadow="0"
     inkscape:pageopacity="0"
     inkscape:pagecheckerboard="0"
     inkscape:deskcolor="#505050"
     inkscape:document-units="mm"
     showgrid="false"
     inkscape:zoom="24.542498"
     inkscape:cx="4.6653768"
     inkscape:cy="12.610778"
     inkscape:window-width="1920"
     inkscape:window-height="991"
     inkscape:window-x="1121"
     inkscape:window-y="1345"
     inkscape:window-maximized="1"
     inkscape:current-layer="layer1" />
  <defs
     id="defs2" />
  <g
     inkscape:label="Layer 1"
     inkscape:groupmode="layer"
     id="layer1">
    <g
       id="g10502"
       transform="rotate(90,9.9984718,9.9984718)">
      <g
         id="g8268"
         style="stroke-width:1.00157;stroke-dasharray:none"
         transform="translate(0.0456436)" />
    </g>
    <path
       id="path853"
       style="stroke-width:1.00157;stroke-linecap:round;stroke-dasharray:none"
       d="m 16.003056,22.329357 a 2.7696521,2.7696521 0 0 1 -2.769652,-2.769652 2.7696521,2.7696521 0 0 1 2.769652,-2.769652 2.7696521,2.7696521 0 0 1 2.769652,2.769652 2.7696521,2.7696521 0 0 1 -2.769652,2.769652 z m 0,-7.559706 a 2.7696521,2.7696521 0 0 1 -2.769652,-2.769652 2.7696521,2.7696521 0 0 1 2.769652,-2.7696515 2.7696521,2.7696521 0 0 1 2.769652,2.7696515 2.7696521,2.7696521 0 0 1 -2.769652,2.769652 z m 0,-7.5597036 A 2.7696521,2.7696521 0 0 1 13.233404,4.4402953 2.7696521,2.7696521 0 0 1 16.003056,1.6706432 2.7696521,2.7696521 0 0 1 18.772708,4.4402953 2.7696521,2.7696521 0 0 1 16.003056,7.2099474 Z M 7.9969441,22.329357 a 2.7696521,2.7696521 0 0 1 -2.769652,-2.769652 2.7696521,2.7696521 0 0 1 2.769652,-2.769652 2.7696521,2.7696521 0 0 1 2.7696519,2.769652 2.7696521,2.7696521 0 0 1 -2.7696519,2.769652 z m 0,-7.559706 a 2.7696521,2.7696521 0 0 1 -2.769652,-2.769652 2.7696521,2.7696521 0 0 1 2.769652,-2.7696515 2.7696521,2.7696521 0 0 1 2.7696519,2.7696515 2.7696521,2.7696521 0 0 1 -2.7696519,2.769652 z m 0,-7.5597036 A 2.7696521,2.7696521 0 0 1 5.2272921,4.4402953 2.7696521,2.7696521 0 0 1 7.9969441,1.6706432 2.7696521,2.7696521 0 0 1 10.766596,4.4402953 2.7696521,2.7696521 0 0 1 7.9969441,7.2099474 Z" />
  </g>
</svg>
