<?xml version="1.0" encoding="UTF-8" standalone="no"?>
<!-- Created with Inkscape (http://www.inkscape.org/) -->

<svg
   width="24"
   height="24"
   viewBox="0 0 24 24"
   version="1.1"
   id="svg5"
   inkscape:export-filename="Header3Icon.svg"
   inkscape:export-xdpi="96"
   inkscape:export-ydpi="96"
   sodipodi:docname="Header3Icon.svg"
   xmlns:inkscape="http://www.inkscape.org/namespaces/inkscape"
   xmlns:sodipodi="http://sodipodi.sourceforge.net/DTD/sodipodi-0.dtd"
   xmlns="http://www.w3.org/2000/svg"
   xmlns:svg="http://www.w3.org/2000/svg">
  <sodipodi:namedview
     id="namedview7"
     pagecolor="#505050"
     bordercolor="#eeeeee"
     borderopacity="1"
     inkscape:showpageshadow="0"
     inkscape:pageopacity="0"
     inkscape:pagecheckerboard="0"
     inkscape:deskcolor="#505050"
     inkscape:document-units="mm"
     showgrid="false"
     showguides="true" />
  <defs
     id="defs2" />
  <g
     inkscape:label="Layer 1"
     inkscape:groupmode="layer"
     id="layer1">
    <path
       id="path7187"
       d="M 17.880859,5.328125 C 17.319956,5.3215558 16.755037,5.4296105 16.238281,5.6347657 14.94818,6.1309854 14.087582,7.5779361 13.9375,9.0859375 l 1.023438,0.21875 c 0.513534,0.1288283 0.895775,-0.3121879 1.029296,-0.8554687 0.426946,-1.3020304 2.110646,-1.6845109 2.964844,-0.7167969 0.491524,0.6335217 0.507871,1.6422963 0.177735,2.3710941 -0.483387,0.809728 -1.492541,0.876021 -2.220704,0.910156 -0.0062,0.517307 0.0093,1.026201 0.0067,1.543361 0.734661,0.04152 1.92905,0.155314 2.391725,0.903904 0.284746,0.64162 0.304625,1.458013 0.02734,2.109375 -0.51213,1.174843 -1.98277,1.477452 -2.90625,0.775391 -0.501473,-0.346078 -0.703597,-0.997371 -1.027344,-1.511718 -0.373966,-0.423436 -0.622796,-0.226316 -1.052734,-0.03906 -0.221119,0.109946 -0.766659,0.258753 -0.652344,0.654297 0.364773,1.233313 1.102269,2.424861 2.230468,2.84375 1.340061,0.486347 2.904008,0.383671 4.101563,-0.503907 1.143875,-0.835229 1.653671,-2.513359 1.371094,-4 -0.170958,-1.094396 -0.994306,-1.881162 -1.894532,-2.187499 0.265915,-0.202647 0.993301,-0.550326 1.320314,-1.107422 C 21.498648,9.2436509 21.373255,7.4450388 20.425781,6.4140625 19.741322,5.6710847 18.815699,5.3390736 17.880859,5.328125 Z M 2.8496094,5.375 V 18.589844 H 5.0390625 V 12.8125 h 4.7734374 v 5.777344 H 12.001954 V 5.375 H 9.8124999 v 5.683594 H 5.0390625 V 5.375 Z"
       style="font-weight:bold;font-size:16.7914px;font-family:Lato;-inkscape-font-specification:'Lato Bold';stroke-width:1.00157;stroke-linecap:round;stroke-linejoin:round"
       sodipodi:nodetypes="sccccccccccccccccccccsccccccccccccc" />
  </g>
</svg>
