<?xml version="1.0" encoding="UTF-8" standalone="no"?>
<!-- Created with Inkscape (http://www.inkscape.org/) -->

<svg
   width="24"
   height="24"
   viewBox="0 0 24 24"
   version="1.1"
   id="svg5"
   inkscape:export-filename="HelpIcon.svg"
   inkscape:export-xdpi="96"
   inkscape:export-ydpi="96"
   sodipodi:docname="HelpIcon.svg"
   xmlns:inkscape="http://www.inkscape.org/namespaces/inkscape"
   xmlns:sodipodi="http://sodipodi.sourceforge.net/DTD/sodipodi-0.dtd"
   xmlns="http://www.w3.org/2000/svg"
   xmlns:svg="http://www.w3.org/2000/svg">
  <sodipodi:namedview
     id="namedview7"
     pagecolor="#505050"
     bordercolor="#eeeeee"
     borderopacity="1"
     inkscape:showpageshadow="0"
     inkscape:pageopacity="0"
     inkscape:pagecheckerboard="0"
     inkscape:deskcolor="#505050"
     inkscape:document-units="mm"
     showgrid="false" />
  <defs
     id="defs2" />
  <g
     inkscape:label="Layer 1"
     inkscape:groupmode="layer"
     id="layer1">
    <path
       id="path8247"
       style="color:#000000;fill:#000000;stroke-linecap:round"
       d="M 12,2.4863281 C 6.7543951,2.4863282 2.4863282,6.7543951 2.4863281,12 c 2e-7,5.245605 4.268067,9.513672 9.5136719,9.513672 5.245605,0 9.513672,-4.268067 9.513672,-9.513672 0,-5.2456049 -4.268067,-9.5136717 -9.513672,-9.5136719 z m 0,1.3808594 c 4.500053,2e-7 8.132812,3.6327595 8.132812,8.1328125 0,4.500053 -3.632759,8.132812 -8.132812,8.132812 C 7.499947,20.132812 3.8671877,16.500053 3.8671875,12 3.8671876,7.4999469 7.4999469,3.8671876 12,3.8671875 Z m -0.05664,1.9335937 c -1.224627,-0.013805 -2.5138483,0.6796578 -3.2929684,1.375 0,0 -0.2413699,0.2017451 -0.2070312,0.3085938 0.2113343,0.2995642 0.3821856,0.6325935 0.6308594,0.9023438 0.3175263,0.289755 0.8486052,0.3538312 1.1718752,0.037109 0.645622,-0.6009676 1.651401,-0.8569072 2.466797,-0.4609375 0.391665,0.1802016 0.637366,0.6152732 0.554687,1.0449219 -0.08678,0.6991075 -0.726123,1.1344938 -1.261719,1.5019538 -0.571039,0.402917 -1.223603,0.884164 -1.302734,1.636718 -0.06264,0.730214 0.07833,1.756973 0.128906,2.226563 h 1.761719 c 0.04483,-0.632162 0.0904,-1.264306 0.134766,-1.896485 0.453323,-0.472552 1.073562,-0.750279 1.541015,-1.210937 0.865905,-0.763584 1.30417,-1.9938135 1.033203,-3.1269534 C 15.051618,7.0188179 14.070259,6.1781562 12.974609,5.9277344 12.638051,5.84153 12.290657,5.8006856 11.943359,5.8007812 Z m -0.326171,9.6093748 c -0.557897,0.01868 -1.097507,0.384314 -1.28711,0.916016 -0.207496,0.545091 -0.02312,1.212279 0.4375,1.570312 0.449014,0.343396 1.097091,0.401709 1.595703,0.13086 0.559905,-0.286065 0.883491,-0.990039 0.683594,-1.595703 -0.164305,-0.548526 -0.682803,-0.965281 -1.251953,-1.015625 -0.04116,-0.0039 -0.08171,-0.0059 -0.123047,-0.0059 -0.01802,-1.22e-4 -0.03669,-6.02e-4 -0.05469,0 z" />
  </g>
</svg>
