<?xml version="1.0" encoding="UTF-8" standalone="no"?>
<!-- Created with Inkscape (http://www.inkscape.org/) -->

<svg
   width="24"
   height="24"
   viewBox="0 0 24 24"
   version="1.1"
   id="svg5"
   inkscape:export-filename="HelpIcon.svg"
   inkscape:export-xdpi="96"
   inkscape:export-ydpi="96"
   sodipodi:docname="InfoIcon.svg"
   xmlns:inkscape="http://www.inkscape.org/namespaces/inkscape"
   xmlns:sodipodi="http://sodipodi.sourceforge.net/DTD/sodipodi-0.dtd"
   xmlns="http://www.w3.org/2000/svg"
   xmlns:svg="http://www.w3.org/2000/svg">
  <sodipodi:namedview
     id="namedview7"
     pagecolor="#505050"
     bordercolor="#eeeeee"
     borderopacity="1"
     inkscape:showpageshadow="0"
     inkscape:pageopacity="0"
     inkscape:pagecheckerboard="0"
     inkscape:deskcolor="#505050"
     inkscape:document-units="mm"
     showgrid="false" />
  <defs
     id="defs2" />
  <g
     inkscape:label="Layer 1"
     inkscape:groupmode="layer"
     id="layer1">
    <path
       id="path3985"
       style="color:#000000;fill:#000000;stroke-linecap:round;-inkscape-stroke:none"
       d="M 12,2.4863281 C 6.7544003,2.4863282 2.4863282,6.7544003 2.4863281,12 2.4863283,17.2456 6.7544003,21.513672 12,21.513672 17.2456,21.513672 21.513672,17.2456 21.513672,12 21.513672,6.7544003 17.2456,2.4863283 12,2.4863281 Z m 0,1.3808594 c 4.500048,2e-7 8.132812,3.632764 8.132812,8.1328125 0,4.500048 -3.632764,8.132812 -8.132812,8.132812 C 7.4999515,20.132812 3.8671877,16.500048 3.8671875,12 3.8671876,7.4999514 7.4999514,3.8671876 12,3.8671875 Z m -0.01953,2.1523437 c -0.746247,0 -1.371094,0.6248475 -1.371094,1.3710938 0,0.7462463 0.624847,1.3691406 1.371094,1.3691406 0.746246,0 1.36914,-0.6228943 1.36914,-1.3691406 0,-0.7462463 -0.622894,-1.3710937 -1.36914,-1.3710938 z M 12,10.380859 a 1.067715,0.95320182 0 0 0 -1.068359,0.953125 v 6.28711 A 1.067715,0.95320182 0 0 0 12,18.574219 1.067715,0.95320182 0 0 0 13.068359,17.621094 v -6.28711 A 1.067715,0.95320182 0 0 0 12,10.380859 Z" />
  </g>
</svg>
