<?xml version="1.0" encoding="UTF-8" standalone="no"?>
<!-- Created with Inkscape (http://www.inkscape.org/) -->

<svg
   width="24"
   height="24"
   viewBox="0 0 24 24"
   version="1.1"
   id="svg5"
   inkscape:export-filename="ListNumberIcon.svg"
   inkscape:export-xdpi="96"
   inkscape:export-ydpi="96"
   sodipodi:docname="LinkIcon.svg"
   xmlns:inkscape="http://www.inkscape.org/namespaces/inkscape"
   xmlns:sodipodi="http://sodipodi.sourceforge.net/DTD/sodipodi-0.dtd"
   xmlns="http://www.w3.org/2000/svg"
   xmlns:svg="http://www.w3.org/2000/svg">
  <sodipodi:namedview
     id="namedview7"
     pagecolor="#505050"
     bordercolor="#eeeeee"
     borderopacity="1"
     inkscape:showpageshadow="0"
     inkscape:pageopacity="0"
     inkscape:pagecheckerboard="0"
     inkscape:deskcolor="#505050"
     inkscape:document-units="mm"
     showgrid="false"
     showguides="true" />
  <defs
     id="defs2" />
  <g
     inkscape:label="Layer 1"
     inkscape:groupmode="layer"
     id="layer1">
    <path
       id="rect9292"
       style="color:#000000;fill:#000000;stroke-linecap:square;stroke-linejoin:round"
       d="m 1.718751,11.996688 c 0,2.930342 2.3880247,5.31172 5.3183594,5.318359 l 3.0011816,0.0068 c 1.22506,0.0068 1.247238,-1.892444 0.0081,-1.893149 -0.0065,0.0012 -3.0093306,-3.41e-4 -3.0093306,-3.41e-4 -1.9161065,0 -3.4296875,-1.513582 -3.4296875,-3.429688 0,-1.916106 1.5135817,-3.4310327 3.4296875,-3.4296876 l 2.9629086,0.00208 c 1.336069,0 1.320575,-1.8853082 -0.010623,-1.8929129 -0.0065,-7.64e-5 -3.0087444,1.974e-4 -3.0087444,1.974e-4 C 4.1552697,6.6783203 1.718751,9.0663458 1.718751,11.996688 Z M 14.049588,8.5666631 c 0.0065,-0.00123 2.913303,0.00229 2.913303,0.00229 1.916106,0 3.429687,1.5135819 3.429687,3.4296879 0,1.916106 -1.513581,3.429688 -3.429687,3.429688 l -2.999897,-0.0036 c -1.263837,0 -1.240486,1.883669 -0.0083,1.888035 0.0065,-5.9e-4 3.008196,0.0023 3.008196,0.0023 2.930342,0 5.318359,-2.388017 5.318359,-5.318359 0,-2.9303434 -2.388017,-5.3183599 -5.318359,-5.3183599 l -2.917879,0.013696 c -1.622726,0 -1.585721,1.8696211 0.0046,1.8746217 z M 7.312501,11.051376 c -1.2651871,7.42e-4 -1.261334,1.857348 0,1.890624 h 9.375 c 1.214008,-0.02121 1.179449,-1.836877 0,-1.890624 z"
       sodipodi:nodetypes="ssccssscccscsscccsscccccccc" />
  </g>
</svg>
