<?xml version="1.0" encoding="UTF-8" standalone="no"?>
<!-- Created with Inkscape (http://www.inkscape.org/) -->

<svg
   width="24"
   height="24"
   viewBox="0 0 24 24"
   version="1.1"
   id="svg5"
   inkscape:export-filename="ListNumberIcon.svg"
   inkscape:export-xdpi="96"
   inkscape:export-ydpi="96"
   sodipodi:docname="ListNumberIcon.svg"
   xmlns:inkscape="http://www.inkscape.org/namespaces/inkscape"
   xmlns:sodipodi="http://sodipodi.sourceforge.net/DTD/sodipodi-0.dtd"
   xmlns="http://www.w3.org/2000/svg"
   xmlns:svg="http://www.w3.org/2000/svg">
  <sodipodi:namedview
     id="namedview7"
     pagecolor="#505050"
     bordercolor="#eeeeee"
     borderopacity="1"
     inkscape:showpageshadow="0"
     inkscape:pageopacity="0"
     inkscape:pagecheckerboard="0"
     inkscape:deskcolor="#505050"
     inkscape:document-units="mm"
     showgrid="false"
     showguides="true" />
  <defs
     id="defs2" />
  <g
     inkscape:label="Layer 1"
     inkscape:groupmode="layer"
     id="layer1">
    <path
       id="path42971"
       style="font-style:normal;font-variant:normal;font-weight:bold;font-stretch:normal;font-size:6.13987px;font-family:sans-serif;-inkscape-font-specification:'sans-serif Bold';fill:#000000;fill-opacity:1;stroke:none;stroke-width:2.64567;stroke-linecap:square;stroke-linejoin:round;stroke-dasharray:none;stroke-opacity:1"
       d="M 4.0244162,3.648418 C 3.9044915,3.813695 3.8513277,4.0237993 3.6283578,4.1350911 3.4504825,4.2062344 3.2151833,4.2128712 2.8759785,4.2128712 V 4.8886523 H 3.8896507 V 7.0800586 H 2.8759788 V 7.804668 H 6.0849631 V 7.0800586 H 5.0927756 V 3.648418 Z M 8.8271507,4.5937305 V 7.2402148 H 21.397463 V 4.5937305 Z M 4.3251976,9.8066209 c -0.2991679,0 -0.5973166,0.028407 -0.8964844,0.085934 C 3.1316977,9.9500919 2.9057443,10.006894 2.752932,10.064429 v 0.921876 c 0.4295023,-0.238512 0.8694241,-0.337755 1.3378911,-0.375 0.2647312,0 0.4675233,0.05036 0.6074219,0.154297 0.1420509,0.102079 0.2128906,0.248189 0.2128906,0.4375 0,0.157759 -0.056249,0.317045 -0.1660156,0.478516 -0.4066237,0.452685 -0.8294746,0.777196 -1.2519532,1.091796 -0.2884063,0.202303 -0.576828,0.394188 -0.8652343,0.574219 v 0.683594 H 6.40137 V 13.238258 H 4.2412136 c 0.08394,-0.05197 0.2258179,-0.141565 0.4238282,-0.271485 0.5375774,-0.36469 0.8815716,-0.757644 1.2595673,-1.177462 0.1886369,-0.235711 0.2541046,-0.469046 0.2541046,-0.730741 0,-0.399037 -0.1582234,-0.706677 -0.4746094,-0.923827 C 5.3877176,9.9157392 4.9278376,9.8066209 4.3251976,9.8066209 Z m 4.5019531,0.9414061 v 2.644532 H 21.397463 v -2.644532 z m -4.4433595,5.285157 c -0.3120814,0 -0.6203558,0.03036 -0.9238281,0.08789 -0.3034724,0.05568 -0.5422626,0.11258 -0.71875,0.173828 v 0.900391 c 0.3179424,-0.105383 0.576769,-0.17291 0.8066407,-0.259766 0.5774867,-0.162709 0.904326,-0.146173 1.2656249,-0.04687 0.5103315,0.139435 0.3909832,0.625739 -0.039067,0.759765 -0.090395,0.03341 -0.1989877,0.05517 -0.328125,0.06445 -0.2631403,0.02009 -0.4573526,0.0086 -0.7207034,0.01367 v 0.740233 c 0.2269029,-0.0033 0.4794502,0.0042 0.6777343,0.0059 0.1485078,0.0019 0.2753974,0.01718 0.3808595,0.04688 0.105462,0.02784 0.1912907,0.07577 0.2558593,0.142579 0.1985294,0.165945 0.1701188,0.461561 0.044922,0.580078 -0.04735,0.06496 -0.1313028,0.105943 -0.2109374,0.152344 -0.2575336,0.122553 -0.5115983,0.130284 -0.7773437,0.142575 -0.2130765,0 -0.448757,-0.03689 -0.7070313,-0.107422 -0.2882278,-0.0815 -0.5350146,-0.169371 -0.7871091,-0.249995 v 0.910157 c 0.1786398,0.06681 0.4092574,0.127817 0.6933593,0.181641 0.2862542,0.05382 0.6291709,0.08007 1.0273438,0.08007 0.3486703,0 0.6435103,-0.03055 0.8867187,-0.09179 0.2453606,-0.0631 0.459833,-0.152604 0.640625,-0.269532 0.1850966,-0.120639 0.3219125,-0.264698 0.4101563,-0.433593 0.090397,-0.168895 0.1347655,-0.351996 0.1347655,-0.546875 0,-0.172607 -0.031334,-0.310127 -0.09375,-0.414063 C 6.2393435,18.491749 6.1552688,18.400198 6.0498069,18.322246 5.948649,18.248003 5.8365495,18.1913 5.7138694,18.152324 5.5911889,18.11335 5.4564484,18.083282 5.3418466,18.051733 c 0.1002424,-0.05108 0.4934059,-0.193992 0.6591319,-0.374022 0.1657262,-0.181887 0.2675784,-0.375326 0.2675784,-0.605469 0,-0.174462 -0.042815,-0.327111 -0.1289063,-0.457031 C 6.0535596,16.485296 5.92356,16.37608 5.7470726,16.285136 5.5985648,16.209046 5.4088086,16.14804 5.1806663,16.103496 4.9525239,16.057096 4.6872636,16.033186 4.3837912,16.033186 Z m 4.4433595,0.839843 v 2.644532 H 21.397463 v -2.644532 z"
       sodipodi:nodetypes="ccccccccccccccccccscccccscccccccccscscccccscccccccccccccccccccscccsscsccssccsccccc" />
  </g>
</svg>
