<?xml version="1.0" encoding="UTF-8" standalone="no"?>
<svg
   width="24"
   height="24"
   version="1.1"
   id="svg1795"
   sodipodi:docname="MoveUpIcon.svg"
   xmlns:inkscape="http://www.inkscape.org/namespaces/inkscape"
   xmlns:sodipodi="http://sodipodi.sourceforge.net/DTD/sodipodi-0.dtd"
   xmlns="http://www.w3.org/2000/svg"
   xmlns:svg="http://www.w3.org/2000/svg">
  <defs
     id="defs1799" />
  <sodipodi:namedview
     id="namedview1797"
     pagecolor="#505050"
     bordercolor="#eeeeee"
     borderopacity="1"
     inkscape:showpageshadow="0"
     inkscape:pageopacity="0"
     inkscape:pagecheckerboard="0"
     inkscape:deskcolor="#505050"
     showgrid="false" />
  <path
     id="path1793"
     style="fill:#000000;fill-opacity:0.25;stroke:#000000;stroke-width:0;stroke-linecap:round;stroke-dasharray:none"
     d="M 6.8330079,3.3431038 C 6.0677827,3.3713264 5.4092197,4.2962686 6.1748047,5.0618538 L 7.7548829,6.6419319 C 3.4976267,7.5350975 1.6671139,10.751388 1.584961,13.653651 c 0,3.869996 3.1300038,7 7,7 h 3 v -2 h -3 c -2.7599973,0 -5,-2.240003 -5,-5 0,-2.449998 1.7600804,-4.470157 4.0800781,-4.9101566 L 6.1748047,10.243494 c -0.8575301,0.863287 0.691135,2.130976 1.4101563,1.410157 l 4,-4.0117191 -4,-3.9882812 C 7.354885,3.42415 7.0880829,3.3336962 6.8330079,3.3431038 Z m 6.5820311,1.3144531 v 7.0000001 h 9 V 4.6575569 Z m 0,9.0000001 v 7 h 9 v -7 z m 2,2 h 5 v 3 h -5 z" />
</svg>
