<svg width="24" height="24" xmlns="http://www.w3.org/2000/svg">
    <path style="color:#000;fill:#000;fill-opacity:.236948;stroke-linecap:round;stroke-linejoin:round" d="M5.36 2.52c-.46 0-.86.4-.86.85v17.25c0 .47.4.86.86.86h5.06c.8 0 .89-1.5 0-1.51h-4.4V4.03h11.97v6.48c0 .8 1.5.88 1.5 0V3.37a.86.86 0 0 0-.85-.85zm2.63 3.64c-1.01 0-1 1.5 0 1.51h7.42c1.05.02 1-1.5 0-1.51zm0 3.56c-1.05.01-1.06 1.5 0 1.5h7.42c1.16.02 1.1-1.51 0-1.5zm12.13 1.82-1.04 1.05 1.67 1.67 1.04-1.05c.26-.24.27-.43 0-.72l-.95-.95c-.3-.3-.45-.25-.72 0zm-1.56 1.58-6.07 6.07-.61 2.27 2.25-.6 6.08-6.09zM8 13.28c-1.05 0-1.13 1.5 0 1.5h5.47a.76.76 0 0 0 0-1.5z" />
</svg>