<?xml version="1.0" encoding="UTF-8" standalone="no"?>
<!-- Created with Inkscape (http://www.inkscape.org/) -->

<svg
   width="24"
   height="24"
   viewBox="0 0 24 24"
   version="1.1"
   id="svg5"
   inkscape:export-filename="NotificationsOnIcon.svg"
   inkscape:export-xdpi="96"
   inkscape:export-ydpi="96"
   sodipodi:docname="BoldIcon.svg"
   xmlns:inkscape="http://www.inkscape.org/namespaces/inkscape"
   xmlns:sodipodi="http://sodipodi.sourceforge.net/DTD/sodipodi-0.dtd"
   xmlns="http://www.w3.org/2000/svg"
   xmlns:svg="http://www.w3.org/2000/svg">
  <sodipodi:namedview
     id="namedview7"
     pagecolor="#505050"
     bordercolor="#eeeeee"
     borderopacity="1"
     inkscape:showpageshadow="0"
     inkscape:pageopacity="0"
     inkscape:pagecheckerboard="0"
     inkscape:deskcolor="#505050"
     inkscape:document-units="mm"
     showgrid="false"
     showguides="true" />
  <defs
     id="defs2" />
  <g
     inkscape:label="Layer 1"
     inkscape:groupmode="layer"
     id="layer1">
    <path
       id="path27197"
       style="fill:#000000;fill-opacity:1;stroke:none;stroke-width:1.88976;stroke-linecap:round;stroke-linejoin:round"
       d="M 12.097656,2.4726562 C 10.93464,2.4757908 9.974791,3.3820862 9.9042969,4.5429688 7.3709064,5.2102696 5.5390625,7.2313722 5.5390625,9.6347656 v 6.2441404 c 0.026398,0.335326 -0.4664889,0.714414 -0.6699219,0.96875 -0.4123451,0.515524 -0.5602748,1.308975 -0.070312,1.320313 2.8452646,0.06586 11.3377774,0.09397 14.0449214,0.05078 0.724151,-0.01156 0.871791,-0.732911 0.371094,-1.412109 -0.188103,-0.25516 -0.704407,-0.58543 -0.664063,-0.927734 V 9.6347656 c 0,-2.3672434 -1.777696,-4.3614138 -4.251953,-5.0585937 C 14.244873,3.3997952 13.27527,2.4730898 12.097656,2.4726562 Z M 16.404297,2.96875 a 0.75590497,0.75590497 0 0 0 -0.191406,0.044922 0.75590497,0.75590497 0 0 0 -0.423829,0.3925781 0.75590497,0.75590497 0 0 0 0.371094,1.0019531 c 0,0 2.05422,0.97064 2.763672,3.1171875 a 0.75590497,0.75590497 0 0 0 0.955078,0.4804688 0.75590497,0.75590497 0 0 0 0.480469,-0.953125 C 19.422433,4.2178829 16.791016,3.0351562 16.791016,3.0351562 A 0.75590497,0.75590497 0 0 0 16.404297,2.96875 Z M 7.5957031,2.982422 A 0.75590497,0.75590497 0 0 0 7.2089844,3.048828 c 0,0 -2.631417,1.1827268 -3.5683594,4.0175781 A 0.75590497,0.75590497 0 0 0 4.1210938,8.0214844 0.75590497,0.75590497 0 0 0 5.0761719,7.5410156 C 5.785624,5.3944681 7.8398438,4.4238281 7.8398438,4.4238281 A 0.75590497,0.75590497 0 0 0 8.2109375,3.4199219 0.75590497,0.75590497 0 0 0 7.7871094,3.0273438 0.75590497,0.75590497 0 0 0 7.5957031,2.982422 Z m 1.7695313,16.132812 a 2.6530052,2.6530052 0 0 0 2.6328126,2.41211 2.6530052,2.6530052 0 0 0 2.636719,-2.41211 z" />
  </g>
</svg>
