<?xml version="1.0" encoding="UTF-8" standalone="no"?>
<!-- Created with Inkscape (http://www.inkscape.org/) -->

<svg
   width="24"
   height="24"
   viewBox="0 0 24 24"
   version="1.1"
   id="svg5"
   inkscape:export-filename="Regex.svg"
   inkscape:export-xdpi="96"
   inkscape:export-ydpi="96"
   xml:space="preserve"
   sodipodi:docname="Regex.svg"
   xmlns:inkscape="http://www.inkscape.org/namespaces/inkscape"
   xmlns:sodipodi="http://sodipodi.sourceforge.net/DTD/sodipodi-0.dtd"
   xmlns="http://www.w3.org/2000/svg"
   xmlns:svg="http://www.w3.org/2000/svg"><sodipodi:namedview
     id="namedview7"
     pagecolor="#505050"
     bordercolor="#eeeeee"
     borderopacity="1"
     inkscape:showpageshadow="0"
     inkscape:pageopacity="0"
     inkscape:pagecheckerboard="0"
     inkscape:deskcolor="#505050"
     inkscape:document-units="mm"
     showgrid="false" /><defs
     id="defs2" /><g
     inkscape:label="Layer 1"
     inkscape:groupmode="layer"
     id="layer1"><path
       id="path2209"
       style="color:#000000;-inkscape-font-specification:'Lato Light';fill:#000000;stroke-width:1;stroke-linecap:round;-inkscape-stroke:none"
       d="M 3.8652344,3.7148438 C 2.4335834,5.4384775 1.2216689,7.4173754 0.80078125,9.6464844 0.29566902,12.337444 0.63723088,15.22981 2.0136719,17.623047 2.528652,18.576292 3.1872618,19.442366 3.8652344,20.285156 4.2686137,20.04532 4.7556138,19.918117 5.0800781,19.568359 5.4767975,19.131698 5.2580089,18.512225 4.8867188,18.140625 3.5085882,16.291645 2.7143132,13.993937 2.8164062,11.677734 2.8545086,9.4162061 3.7825274,7.2510303 5.1601562,5.484375 5.5207186,4.9592122 5.1297521,4.2618367 4.578125,4.078125 Z m 16.2695316,0 c -0.424605,0.2525896 -0.941142,0.3849787 -1.271485,0.7675781 -0.357983,0.4341174 -0.08724,1.0199076 0.25,1.3769531 1.569386,2.1074345 2.356634,4.809998 1.996094,7.427734 -0.23475,1.91589 -1.096812,3.706743 -2.267578,5.22461 -0.354811,0.487759 -0.04938,1.17673 0.488281,1.363281 l 0.804688,0.410156 c 1.560599,-1.87715 2.847984,-4.080159 3.158203,-6.539062 0.394114,-2.697318 -0.1335,-5.5359696 -1.591797,-7.8515628 C 21.243439,5.123288 20.695161,4.4131447 20.134766,3.7148438 Z m -6.744141,0.4550781 v 1.6875 l -1.785156,-0.8535157 -1.06836,1.5175782 1.697266,0.8066406 -1.669922,0.8027344 1.046875,1.5117187 1.779297,-0.8496093 v 1.6894532 h 1.904297 V 8.7890625 L 17.111328,9.6523438 18.142578,8.125 17.421875,7.78125 16.472656,7.3261719 18.148438,6.5292969 17.080078,5.0117188 15.294922,5.8632812 V 4.1699219 Z M 7.6210938,15.121094 C 6.6780344,15.141451 5.8954057,16.151273 6.1152344,17.074219 6.3098808,18.039765 7.50212,18.61965 8.3847656,18.191406 9.2022484,17.848456 9.6171208,16.741204 9.1425781,15.970703 8.8516417,15.471896 8.29994,15.111408 7.7128906,15.123047 c -0.030725,-0.0014 -0.061376,-0.0026 -0.091797,-0.002 z" /></g></svg>
