<?xml version="1.0" encoding="UTF-8" standalone="no"?>
<!-- Created with Inkscape (http://www.inkscape.org/) -->

<svg
   width="24"
   height="24"
   viewBox="0 0 24 24"
   version="1.1"
   id="svg5"
   inkscape:export-filename="ProjectIcon.svg"
   inkscape:export-xdpi="96"
   inkscape:export-ydpi="96"
   sodipodi:docname="SettingsIcon.svg"
   xmlns:inkscape="http://www.inkscape.org/namespaces/inkscape"
   xmlns:sodipodi="http://sodipodi.sourceforge.net/DTD/sodipodi-0.dtd"
   xmlns="http://www.w3.org/2000/svg"
   xmlns:svg="http://www.w3.org/2000/svg">
  <sodipodi:namedview
     id="namedview7"
     pagecolor="#505050"
     bordercolor="#eeeeee"
     borderopacity="1"
     inkscape:showpageshadow="0"
     inkscape:pageopacity="0"
     inkscape:pagecheckerboard="0"
     inkscape:deskcolor="#505050"
     inkscape:document-units="mm"
     showgrid="false"
     showguides="true" />
  <defs
     id="defs2" />
  <g
     inkscape:label="Layer 1"
     inkscape:groupmode="layer"
     id="layer1">
    <path
       id="path18188"
       style="fill:#000000;fill-opacity:1;stroke:none;stroke-width:0;stroke-linecap:round;stroke-linejoin:round;stroke-dasharray:none;stroke-opacity:1"
       d="M 8.9345704,3.5624992 C 8.0750522,3.5622622 7.3776241,4.1014291 7.3779298,4.7675773 v 3.2578125 c -3.057e-4,0.6661484 0.6971224,1.207268 1.5566406,1.2070313 h 0.068359 L 6.567383,13.324218 a 3.6723657,3.6723657 0 0 0 -1.2539063,-0.230469 3.6723657,3.6723657 0 0 0 -3.671875,3.671875 3.6723657,3.6723657 0 0 0 3.671875,3.671875 3.6723657,3.6723657 0 0 0 3.6738281,-3.671875 3.6723657,3.6723657 0 0 0 -1.1347656,-2.640625 L 10.764648,9.2324211 h 2.3125 l 3.029297,4.9296869 a 3.6723657,3.6723657 0 0 0 -1.095703,2.603516 3.6723657,3.6723657 0 0 0 3.671875,3.671875 3.6723657,3.6723657 0 0 0 3.675781,-3.671875 3.6723657,3.6723657 0 0 0 -3.675781,-3.671875 3.6723657,3.6723657 0 0 0 -1.304687,0.25 L 14.852539,9.2324211 c 0.850385,-0.00802 1.537412,-0.5460159 1.537109,-1.2070313 V 4.7675773 C 16.389953,4.1014291 15.692526,3.5622622 14.833008,3.5624992 Z M 18.68457,14.593749 a 2.1721239,2.1721239 0 0 1 2.171875,2.171875 2.1721239,2.1721239 0 0 1 -2.171875,2.171875 2.1721239,2.1721239 0 0 1 -2.171875,-2.171875 2.1721239,2.1721239 0 0 1 2.171875,-2.171875 z m 0,1.21875 a 0.95321101,0.95321101 0 0 0 -0.953125,0.953125 0.95321101,0.95321101 0 0 0 0.953125,0.953125 0.95321101,0.95321101 0 0 0 0.953125,-0.953125 0.95321101,0.95321101 0 0 0 -0.953125,-0.953125 z" />
  </g>
</svg>
