<?xml version="1.0" encoding="UTF-8" standalone="no"?>
<!-- Created with Inkscape (http://www.inkscape.org/) -->

<svg
   width="24"
   height="24"
   viewBox="0 0 24 24"
   version="1.1"
   id="svg5"
   inkscape:export-filename="AddLinkIcon.svg"
   inkscape:export-xdpi="96"
   inkscape:export-ydpi="96"
   sodipodi:docname="RoutineCompleteIcon.svg"
   inkscape:version="1.2 (dc2aedaf03, 2022-05-15)"
   xmlns:inkscape="http://www.inkscape.org/namespaces/inkscape"
   xmlns:sodipodi="http://sodipodi.sourceforge.net/DTD/sodipodi-0.dtd"
   xmlns="http://www.w3.org/2000/svg"
   xmlns:svg="http://www.w3.org/2000/svg">
  <sodipodi:namedview
     id="namedview7"
     pagecolor="#505050"
     bordercolor="#eeeeee"
     borderopacity="1"
     inkscape:showpageshadow="0"
     inkscape:pageopacity="0"
     inkscape:pagecheckerboard="0"
     inkscape:deskcolor="#505050"
     inkscape:document-units="mm"
     showgrid="false"
     inkscape:zoom="34.708333"
     inkscape:cx="12.777911"
     inkscape:cy="14.27611"
     inkscape:window-width="2400"
     inkscape:window-height="1261"
     inkscape:window-x="2391"
     inkscape:window-y="-5"
     inkscape:window-maximized="1"
     inkscape:current-layer="layer1" />
  <defs
     id="defs2" />
  <g
     inkscape:label="Layer 1"
     inkscape:groupmode="layer"
     id="layer1">
    <path
       id="path6236"
       style="color:#000000;fill:#000000;stroke-width:1;stroke-linecap:round;-inkscape-stroke:none"
       d="M 18.189453 2.9101562 A 0.67304033 0.67304033 0 0 0 17.716797 3.1152344 L 9.6777344 11.414062 L 6.2832031 7.9101562 A 0.67304033 0.67304033 0 0 0 5.3320312 7.8945312 A 0.67304033 0.67304033 0 0 0 5.3164062 8.8476562 L 9.6777344 13.349609 L 18.683594 4.0507812 A 0.67304033 0.67304033 0 0 0 18.667969 3.0996094 A 0.67304033 0.67304033 0 0 0 18.189453 2.9101562 z M 3.390625 13.857422 C 1.6727302 13.857422 0.26171844 15.268434 0.26171875 16.986328 C 0.26171919 18.70422 1.6727308 20.115234 3.390625 20.115234 C 4.7835355 20.115234 5.733824 19.139889 6.1347656 17.873047 C 6.1683216 17.889557 6.105234 17.853114 6.140625 17.865234 L 17.849609 17.865234 C 17.895299 17.850664 17.806909 17.892854 17.849609 17.871094 C 18.246783 19.144108 19.21204 20.115234 20.609375 20.115234 C 22.327268 20.115235 23.738281 18.704221 23.738281 16.986328 C 23.738281 15.268435 22.327268 13.857421 20.609375 13.857422 C 19.221802 13.857422 18.26481 14.846078 17.859375 16.105469 C 17.812745 16.091779 17.913454 16.113222 17.865234 16.107422 L 6.1464844 16.107422 L 6.1445312 16.107422 C 5.7435903 14.840581 4.785489 13.857422 3.3925781 13.857422 L 3.390625 13.857422 z M 3.390625 15.615234 C 4.1587116 15.615234 4.7617188 16.218242 4.7617188 16.986328 C 4.7617186 17.754413 4.1587114 18.357422 3.390625 18.357422 C 2.6225388 18.357422 2.0195314 17.754413 2.0195312 16.986328 C 2.0195312 16.218242 2.6225385 15.615234 3.390625 15.615234 z M 20.609375 15.615234 C 21.377461 15.615234 21.980469 16.218242 21.980469 16.986328 C 21.980469 17.754414 21.377461 18.357422 20.609375 18.357422 C 19.841289 18.357422 19.238281 17.754414 19.238281 16.986328 C 19.238281 16.218242 19.841289 15.615234 20.609375 15.615234 z " />
  </g>
</svg>
