<?xml version="1.0" encoding="UTF-8" standalone="no"?>
<!-- Created with Inkscape (http://www.inkscape.org/) -->

<svg
   width="24"
   height="24"
   viewBox="0 0 24 24"
   version="1.1"
   id="svg5"
   inkscape:export-filename="RoutineIncompleteIcon.svg"
   inkscape:export-xdpi="96"
   inkscape:export-ydpi="96"
   sodipodi:docname="RoutineInvalidIcon.svg"
   xmlns:inkscape="http://www.inkscape.org/namespaces/inkscape"
   xmlns:sodipodi="http://sodipodi.sourceforge.net/DTD/sodipodi-0.dtd"
   xmlns="http://www.w3.org/2000/svg"
   xmlns:svg="http://www.w3.org/2000/svg">
  <sodipodi:namedview
     id="namedview7"
     pagecolor="#505050"
     bordercolor="#eeeeee"
     borderopacity="1"
     inkscape:showpageshadow="0"
     inkscape:pageopacity="0"
     inkscape:pagecheckerboard="0"
     inkscape:deskcolor="#505050"
     inkscape:document-units="mm"
     showgrid="false" />
  <defs
     id="defs2" />
  <g
     inkscape:label="Layer 1"
     inkscape:groupmode="layer"
     id="layer1">
    <path
       id="path861"
       style="color:#000000;fill:#000000;stroke-linecap:round;-inkscape-stroke:none"
       d="M 12,2.4863281 C 6.7543951,2.4863282 2.4863282,6.7543951 2.4863281,12 c 2e-7,5.245605 4.268067,9.513672 9.5136719,9.513672 5.245605,0 9.513672,-4.268067 9.513672,-9.513672 0,-5.2456049 -4.268067,-9.5136717 -9.513672,-9.5136719 z m 0,1.3808594 c 4.500053,2e-7 8.132812,3.6327595 8.132812,8.1328125 0,4.500053 -3.632759,8.132812 -8.132812,8.132812 C 7.499947,20.132812 3.8671877,16.500053 3.8671875,12 3.8671876,7.4999469 7.4999469,3.8671876 12,3.8671875 Z M 8.5117188,9.8007812 c -0.8622341,0 -1.5722664,0.7100318 -1.5722657,1.5722658 1e-7,0.862233 0.7100322,1.572265 1.5722657,1.572265 0.8622333,0 1.5722652,-0.710032 1.5722652,-1.572265 1e-6,-0.862234 -0.7100313,-1.5722658 -1.5722652,-1.5722658 z m 6.9765622,0 c -0.862234,-7e-7 -1.572266,0.7100318 -1.572265,1.5722658 0,0.862234 0.710031,1.572266 1.572265,1.572265 0.862233,0 1.572266,-0.710032 1.572266,-1.572265 1e-6,-0.862234 -0.710032,-1.5722658 -1.572266,-1.5722658 z m -3.626953,4.7324218 c -0.300717,0.0039 -0.610341,0.03255 -0.927734,0.08984 -1.0156598,0.183351 -2.1036825,0.66674 -3.1757815,1.617187 a 0.56693,0.56693 0 0 0 -0.046875,0.800782 0.56693,0.56693 0 0 0 0.7988281,0.04883 c 1.8727124,-1.660215 3.5338084,-1.612624 4.8261724,-1.203125 1.292362,0.409497 2.134765,1.21875 2.134765,1.21875 a 0.56693,0.56693 0 0 0 0.802735,-0.01367 0.56693,0.56693 0 0 0 -0.01367,-0.802735 c 0,0 -1.013091,-0.987241 -2.582032,-1.484374 -0.539323,-0.170891 -1.154828,-0.279984 -1.816406,-0.271485 z" />
  </g>
</svg>
