<svg width="24" height="24" xmlns="http://www.w3.org/2000/svg">
    <path style="color:#000;fill:#000;stroke:none;stroke-linecap:round;-inkscape-stroke:none" d="M10.37 2.557C8.223 4.75 6.052 7.044 4.18 9.007c-.01 4.129 0 8.297 0 12.436h15.646V2.557H10.37zm1.312 1.511h6.632v15.864H5.691v-9.793h5.946l.006-.75.039-5.32zm-1.518.881-.027 3.678H6.643c1.18-1.232 2.351-2.46 3.521-3.678zm-.48 7.563c-1.304 0-2.426 1.103-2.426 2.455A2.459 2.459 0 0 0 9.71 17.42l1.385.002c.565.003.575-.873.004-.873H9.71a1.57 1.57 0 0 1-1.581-1.582c0-.884.698-1.583 1.582-1.582l1.367.002c.616 0 .608-.872-.006-.875H9.684zm4.605 0-1.346.008c-.748 0-.731.86.002.863l1.344.002a1.57 1.57 0 0 1 1.582 1.582 1.57 1.57 0 0 1-1.582 1.582l-1.383-.002c-.583 0-.572.869-.004.871l1.387.002a2.457 2.457 0 0 0 2.453-2.453 2.459 2.459 0 0 0-2.453-2.455zm-4.451 2.017c-.584 0-.582.858 0 .873h4.324c.56-.01.544-.848 0-.873H9.838z" />
</svg>