<?xml version="1.0" encoding="UTF-8" standalone="no"?>
<!-- Created with Inkscape (http://www.inkscape.org/) -->

<svg
   width="24"
   height="24"
   viewBox="0 0 24 24"
   version="1.1"
   id="svg5"
   inkscape:export-filename="StarOutlineIcon.svg"
   inkscape:export-xdpi="96"
   inkscape:export-ydpi="96"
   sodipodi:docname="StarOutlineIcon.svg"
   xmlns:inkscape="http://www.inkscape.org/namespaces/inkscape"
   xmlns:sodipodi="http://sodipodi.sourceforge.net/DTD/sodipodi-0.dtd"
   xmlns="http://www.w3.org/2000/svg"
   xmlns:svg="http://www.w3.org/2000/svg">
  <sodipodi:namedview
     id="namedview7"
     pagecolor="#505050"
     bordercolor="#eeeeee"
     borderopacity="1"
     inkscape:showpageshadow="0"
     inkscape:pageopacity="0"
     inkscape:pagecheckerboard="0"
     inkscape:deskcolor="#505050"
     inkscape:document-units="mm"
     showgrid="false"
     showguides="true" />
  <defs
     id="defs2" />
  <g
     inkscape:label="Layer 1"
     inkscape:groupmode="layer"
     id="layer1">
    <path
       style="color:#000000;fill:#000000;stroke-width:0.584233;stroke-linecap:round;stroke-linejoin:round;-inkscape-stroke:none"
       d="M 12.036992,2.6849032 A 0.75671333,0.75525151 0.75871136 0 0 11.358614,3.105729 L 8.761147,8.3612886 2.9505954,9.2055268 A 0.75671333,0.75525151 0.75871136 0 0 2.5314652,10.492824 l 4.2054087,4.090419 -0.9903154,5.776195 a 0.75671333,0.75525151 0.75871136 0 0 1.097481,0.795486 l 5.1969575,-2.72779 5.197839,2.726348 a 0.75671333,0.75525151 0.75871136 0 0 1.096868,-0.797209 L 17.341859,14.581165 21.54596,10.489238 A 0.75671333,0.75525151 0.75871136 0 0 21.126665,9.201099 L 15.315581,8.3602969 12.71565,3.1054577 A 0.75671333,0.75525151 0.75871136 0 0 12.036992,2.6849032 Z m 5.32e-4,2.4614325 2.097082,4.2380725 a 0.75671333,0.75525151 0.75871136 0 0 0.570237,0.4134184 l 4.686937,0.6788464 -3.39059,3.300086 a 0.75671333,0.75525151 0.75871136 0 0 -0.217892,0.66862 l 0.801861,4.659851 -4.192747,-2.200005 a 0.75671333,0.75525151 0.75871136 0 0 -0.703644,-1.94e-4 L 7.495989,19.106858 8.295616,14.446553 A 0.75671333,0.75525151 0.75871136 0 0 8.0782987,13.777871 L 4.6859922,10.479171 9.3726485,9.7990422 A 0.75671333,0.75525151 0.75871136 0 0 9.9424073,9.3858987 Z"
       id="path5494" />
  </g>
</svg>
