<?xml version="1.0" encoding="UTF-8" standalone="no"?>
<!-- Created with Inkscape (http://www.inkscape.org/) -->

<svg
   width="24"
   height="24"
   viewBox="0 0 24 24"
   version="1.1"
   id="svg5"
   inkscape:export-filename="HelpIcon.svg"
   inkscape:export-xdpi="96"
   inkscape:export-ydpi="96"
   sodipodi:docname="ActionIcon.svg"
   xmlns:inkscape="http://www.inkscape.org/namespaces/inkscape"
   xmlns:sodipodi="http://sodipodi.sourceforge.net/DTD/sodipodi-0.dtd"
   xmlns="http://www.w3.org/2000/svg"
   xmlns:svg="http://www.w3.org/2000/svg">
  <sodipodi:namedview
     id="namedview7"
     pagecolor="#505050"
     bordercolor="#eeeeee"
     borderopacity="1"
     inkscape:showpageshadow="0"
     inkscape:pageopacity="0"
     inkscape:pagecheckerboard="0"
     inkscape:deskcolor="#505050"
     inkscape:document-units="mm"
     showgrid="false" />
  <defs
     id="defs2" />
  <g
     inkscape:label="Layer 1"
     inkscape:groupmode="layer"
     id="layer1">
    <path
       id="rect2476"
       style="fill:#000000;fill-opacity:0.167683;stroke:none;stroke-width:1.88976;stroke-linecap:round;stroke-linejoin:round"
       d="m 3.1459853,4.9890177 0.080102,5.6126603 c -0.005,0.588781 0.2219296,1.095996 0.5980024,1.415594 l 8.2822643,8.282265 c 0.744827,0.744827 1.944112,0.746208 2.688939,0.0014 l 5.500794,-5.500794 c 0.744827,-0.744827 0.743446,-1.944111 -0.0014,-2.688939 L 12.012441,3.8289212 C 11.617086,3.4297914 11.231023,3.2366527 10.607895,3.2198702 L 4.993854,3.141149 C 3.7149393,3.1656314 3.1466323,3.8809723 3.1459853,4.9890177 Z m 2.5439269,0.7043448 c 0.5675549,-0.5673013 1.4874742,-0.5673013 2.0550291,0 0.5686034,0.5673313 0.5692215,1.4883162 0.00138,2.0564102 -0.568094,0.5678415 -1.489079,0.5672235 -2.0564103,-0.00138 -0.5673013,-0.5675549 -0.5673013,-1.4874742 0,-2.0550291 z"
       sodipodi:nodetypes="cccscscccccscccss" />
  </g>
</svg>
