<?xml version="1.0" encoding="UTF-8" standalone="no"?>
<!-- Created with Inkscape (http://www.inkscape.org/) -->

<svg
   width="24"
   height="24"
   viewBox="0 0 24 24"
   version="1.1"
   id="svg5"
   inkscape:export-filename="AddOutgoingLink.svg"
   inkscape:export-xdpi="96"
   inkscape:export-ydpi="96"
   sodipodi:docname="UnlinkNode.svg"
   xmlns:inkscape="http://www.inkscape.org/namespaces/inkscape"
   xmlns:sodipodi="http://sodipodi.sourceforge.net/DTD/sodipodi-0.dtd"
   xmlns="http://www.w3.org/2000/svg"
   xmlns:svg="http://www.w3.org/2000/svg">
  <sodipodi:namedview
     id="namedview7"
     pagecolor="#505050"
     bordercolor="#eeeeee"
     borderopacity="1"
     inkscape:showpageshadow="0"
     inkscape:pageopacity="0"
     inkscape:pagecheckerboard="0"
     inkscape:deskcolor="#505050"
     inkscape:document-units="mm"
     showgrid="false" />
  <defs
     id="defs2" />
  <g
     inkscape:label="Layer 1"
     inkscape:groupmode="layer"
     id="layer1">
    <path
       id="path3719"
       style="color:#000000;fill:#000000;stroke-linecap:round;-inkscape-stroke:none"
       d="M 14.929688,2.8457031 16.744141,4.6679688 14.96875,6.4375 c -0.638752,0.631592 0.396186,1.5194258 0.974609,0.9785156 L 17.71875,5.6484375 19.476562,7.4121094 C 20.102202,8.0303748 21.004764,6.9519412 20.455078,6.4375 l -1.757812,-1.7636719 1.8125,-1.8046875 C 21.149802,2.1349357 20.172633,1.3264291 19.535156,1.890625 l -1.8125,1.8046875 -1.814453,-1.8222656 C 15.293497,1.3221149 14.409045,2.3108063 14.929688,2.8457031 Z M 0.46679688,5.6972656 V 18.302734 H 13.072266 v -5.613281 h 4.77539 c 0.34314,1.243016 1.304915,2.25 2.652344,2.25 1.61577,0 2.941406,-1.323683 2.941406,-2.939453 0,-1.61577 -1.325636,-2.9394534 -2.941406,-2.9394531 -1.347429,3e-7 -2.309204,1.0069841 -2.652344,2.2500001 h -4.77539 V 5.6972656 Z M 1.8476562,7.078125 h 9.8437498 v 9.84375 H 1.8476562 Z M 20.5,10.439453 c 0.870218,0 1.560547,0.690329 1.560547,1.560547 0,0.870218 -0.690329,1.560547 -1.560547,1.560547 -0.870218,0 -1.560547,-0.690329 -1.560547,-1.560547 0,-0.870218 0.690329,-1.560547 1.560547,-1.560547 z"
       sodipodi:nodetypes="ccccccccccccccccccssscccccccccsssss" />
  </g>
</svg>
