<?xml version="1.0" encoding="UTF-8" standalone="no"?>
<!-- Created with Inkscape (http://www.inkscape.org/) -->

<svg
   width="24"
   height="24"
   viewBox="0 0 24 24"
   version="1.1"
   id="svg5"
   inkscape:export-filename="UnlinkedNodes.svg"
   inkscape:export-xdpi="96"
   inkscape:export-ydpi="96"
   sodipodi:docname="UnlinkedNodesIcon.svg"
   xmlns:inkscape="http://www.inkscape.org/namespaces/inkscape"
   xmlns:sodipodi="http://sodipodi.sourceforge.net/DTD/sodipodi-0.dtd"
   xmlns="http://www.w3.org/2000/svg"
   xmlns:svg="http://www.w3.org/2000/svg">
  <sodipodi:namedview
     id="namedview7"
     pagecolor="#505050"
     bordercolor="#eeeeee"
     borderopacity="1"
     inkscape:showpageshadow="0"
     inkscape:pageopacity="0"
     inkscape:pagecheckerboard="0"
     inkscape:deskcolor="#505050"
     inkscape:document-units="mm"
     showgrid="false" />
  <defs
     id="defs2" />
  <g
     inkscape:label="Layer 1"
     inkscape:groupmode="layer"
     id="layer1">
    <path
       id="path3423"
       style="color:#000000;-inkscape-font-specification:'Lato Light';fill:#000000;stroke-linecap:round;-inkscape-stroke:none"
       d="M 12.117188,3.6132812 C 11.255149,3.6000353 10.428379,4.0181825 9.859375,4.6542969 9.7318198,4.7344828 9.7171,4.8268117 9.8261719,4.9335938 10.002839,5.2050753 10.1499,5.5560269 10.507812,5.6191406 c 0.366963,0.1056567 0.579544,-0.2620527 0.865235,-0.40625 0.441979,-0.2538732 1.08936,-0.2753525 1.451172,0.125 0.282959,0.3739408 0.09708,0.9107801 -0.226563,1.1972656 -0.444219,0.4365212 -1.12063,0.7102286 -1.310547,1.3535157 -0.08569,0.3331672 -0.02059,0.6682406 -0.02148,1.0175781 0.009,0.2470975 0.01835,0.49509 0.02734,0.7421875 h 1.296875 c 0.03056,-0.4485678 0.06147,-0.8971279 0.0918,-1.3457031 0.35113,-0.3713478 0.835655,-0.5975405 1.166012,-0.9960938 C 14.569895,6.5277471 14.669383,5.2046211 13.949219,4.390625 13.49859,3.8687945 12.796997,3.6111005 12.117188,3.6132812 Z m -0.181641,6.7246098 c -0.621685,-0.02149 -1.132269,0.635344 -0.962891,1.232421 0.116153,0.619727 0.893504,0.946565 1.431641,0.642579 0.54328,-0.26629 0.703134,-1.060575 0.291015,-1.509766 -0.18619,-0.223047 -0.468083,-0.363362 -0.759765,-0.365234 z m -8.5273439,1.158203 c -1.7178999,0 -3.12890653,1.411006 -3.12890622,3.128906 4.4e-7,1.717899 1.41100692,3.128906 3.12890622,3.128906 1.3929147,0 2.7125571,-0.915274 2.9316407,-2.201172 l 11.5000002,-0.07031 c 0.132411,1.062155 1.387818,2.271484 2.785156,2.271484 1.717899,1e-6 3.128906,-1.411007 3.128906,-3.128906 0,-1.717899 -1.411007,-3.128907 -3.128906,-3.128906 -1.387576,0 -2.590443,0.998044 -2.787109,2.253906 L 6.2617188,13.796875 C 6.1641705,12.477833 4.8011182,11.496093 3.4082031,11.496094 Z m 0,1.757812 c 0.768089,0 1.3710939,0.603005 1.3710938,1.371094 -2e-7,0.768088 -0.603005,1.371094 -1.3710938,1.371094 -0.7680886,0 -1.3710935,-0.603006 -1.3710937,-1.371094 -2e-7,-0.768089 0.6030048,-1.371094 1.3710937,-1.371094 z m 17.2167969,0 c 0.768089,0 1.371094,0.603005 1.371094,1.371094 0,0.768089 -0.603005,1.371094 -1.371094,1.371094 -0.768089,0 -1.371094,-0.603005 -1.371094,-1.371094 0,-0.768089 0.603005,-1.371094 1.371094,-1.371094 z" />
  </g>
</svg>
