<svg width="24mm" height="24mm" viewBox="0 0 24 24" xmlns="http://www.w3.org/2000/svg">
    <path
        style="stroke-width:1;stroke-linecap:round;stroke-linejoin:round"
        d="M10.2552 13.8331c-.85298-2.25485-1.76857-4.48748-2.57725-6.75807-.10861-.32934-.20465-1.02838-.30551-.28551-.71762 2.11812-1.5906 4.18193-2.377 6.276-.01442.24814-.52246.83468-.07703.76758h5.33679zm4.1959 5.5253c-.69598-.01674-1.81282.36479-2.19666-.3608-.482-1.23587-.95855-2.4739-1.43844-3.7106H4.138c-.4977 1.26368-.96698 2.54006-1.48265 3.79571-.4935.56974-1.58431.28997-2.12196.22459L6.4642 4.4753H8.5l5.9511 14.8831zm7.2286-4.736c-1.43413.09311-3.01688.1138-4.22888.98426-.9211.72586-.46579 2.4555.72617 2.57295 1.31306.2445 2.7285-.39653 3.50271-1.43104V14.6224zm-5.972-4.2997c1.479-1.49283 3.882-2.14901 5.84914-1.30503 1.53109.68986 2.03099 2.49943 1.93006 4.05006v6.29067c-.50385-.05525-1.27086.20812-1.4645-.4362l-.2077-.997c-1.05674 1.10014-2.5789 1.76224-4.11558 1.57603-1.28287-.0604-2.46479-1.10436-2.49634-2.42381-.20724-1.34964.88964-2.46493 2.08188-2.8808 1.39398-.5523 2.90676-.71311 4.39504-.74782.01029-1.08438.08712-2.42964-.99561-3.0552-1.20179-.5852-2.62739-.0854-3.61579.6976-.6003.48923-1.10746-.1841-1.32402-.70335l-.02689-.04789z" />
</svg>