<svg viewBox="0 0 24 24" xmlns="http://www.w3.org/2000/svg">
    <path
        style="stroke-width:1;stroke-linecap:round;stroke-linejoin:round"
        d="M17.88 5.328a4.345 4.345 0 0 0-1.642.307c-1.29.496-2.15 1.943-2.3 3.45l1.023.22c.513.129.896-.313 1.03-.856.426-1.302 2.11-1.684 2.964-.717.492.634.508 1.643.178 2.372-.484.81-1.493.876-2.22.91-.007.517.008 1.026.006 1.543.734.042 1.929.155 2.392.904.284.642.304 1.458.027 2.11-.512 1.174-1.983 1.477-2.906.775-.502-.346-.704-.998-1.028-1.512-.374-.423-.623-.226-1.052-.04-.222.11-.767.26-.653.655.365 1.234 1.102 2.425 2.23 2.844 1.34.486 2.905.384 4.102-.504 1.144-.835 1.654-2.513 1.371-4-.17-1.094-.994-1.881-1.894-2.187.266-.203.993-.55 1.32-1.108.67-1.25.545-3.049-.402-4.08-.685-.743-1.61-1.075-2.545-1.086Zm-15.03.047V18.59h2.19v-5.777h4.772v5.777h2.19V5.375h-2.19v5.684H5.04V5.375Z" />
</svg> 