<svg width="24mm" height="24mm" viewBox="0 0 24 24" xmlns="http://www.w3.org/2000/svg">
    <path
        style="stroke-width:1;stroke-linecap:round;stroke-linejoin:round"
        d="M2.84 5.37v13.21h2.2V12.8H9.8v5.78H12V5.37H9.8v5.68H5.04V5.37H2.84zm12.52.08-.9 6.36 1.16.4c1.03-.5 2.4-.56 3.09.26.84.98.4 2.65.38 2.75a2.1 2.1 0 0 1-1.03 1.4c-1.04.26-1.91.15-2.76-.57-.3-.22-.64-.2-.85.16l-.57.95a4.08 4.08 0 0 0 3.17 1.54c2.44 0 4.03-2.04 4.03-4.66 0-1.36-.47-2.98-1.98-3.7a4.4 4.4 0 0 0-2.83-.13l.38-2.73h2.97c.59 0 1.09-.25 1.09-1.08v-.95h-5.35z" />
</svg> 