<svg viewBox="0 0 24 24" xmlns="http://www.w3.org/2000/svg">
    <path
        style="stroke-width:1;stroke-linecap:round;stroke-linejoin:round"
        d="M2.84 5.37v13.21h2.2V12.8H9.8v5.78H12V5.37H9.8v5.68H5.04V5.37H2.84zm15.86.08c-.62 0-.65.06-.99.52l-2.58 4.2c-1.04 1.81-1.62 3.74-1.02 5.81.3.94.86 1.87 1.93 2.4.87.42 2.12.47 3.11-.02a3.96 3.96 0 0 0 2-2.34 5.5 5.5 0 0 0 0-3.44c-.65-1.76-1.99-2.2-2.93-2.2-.36 0-.91.06-1.46.39l.38-.56 3.2-4.76H18.7zm-1.11 6.6c1.3 0 1.98 1.04 1.98 2.41 0 1.36-.83 2.41-2.01 2.41-1.1 0-1.93-.76-1.93-2.43 0-1.24.7-2.4 1.96-2.4z" />
</svg> 