<svg width="24mm" height="24mm" viewBox="0 0 24 24" xmlns="http://www.w3.org/2000/svg">
    <path
        style="stroke-width:1;stroke-linecap:round;stroke-linejoin:round"
        d="M7.25 2.84a.42.42 0 0 0-.32.13l-2.4 2.71-.98-1c-.28-.27-.58-.16-.72-.01a.57.57 0 0 0-.02.75l1.73 1.74 3.15-3.54c.19-.22.02-.53-.12-.67a.48.48 0 0 0-.32-.1zm1.43 1.68v2.65h12.57V4.52H8.68zM7.06 9.07a.42.42 0 0 0-.32.12L4.35 11.9l-.99-1c-.28-.26-.57-.16-.71 0a.57.57 0 0 0-.03.75l1.73 1.73L7.5 9.84c.19-.22.03-.53-.12-.67a.48.48 0 0 0-.32-.1zm1.62 1.6v2.65h12.57v-2.64H8.68zm-1.62 4.5a.42.42 0 0 0-.32.12L4.35 18l-.99-1c-.28-.27-.57-.16-.71 0a.57.57 0 0 0-.03.75l1.73 1.73 3.15-3.54c.19-.22.03-.53-.12-.67a.48.48 0 0 0-.32-.1zm1.62 1.63v2.65h12.57V16.8H8.68z" />
</svg> 