<svg viewBox="0 0 24 24" xmlns="http://www.w3.org/2000/svg">
    <path
        style="stroke-width:1;stroke-linecap:round;stroke-linejoin:round"
        d="M12.47026 3.90436c-2.00943-.071-4.14439 1.01884-4.882 2.96155-.40203 1.03217-.38703 2.2053-.05156 3.25303h4.21047c-.83027-.29398-1.82047-.91333-1.70505-1.93039-.00824-.91617.753-1.65676 1.62783-1.79939 1.29292-.31777 2.5949.19449 3.6516.91759.57175.33396 1.01977-.2215 1.2063-.70548l.54393-1.0316c-1.22269-1.15728-2.94236-1.6752-4.60152-1.6653Zm-8.31475 7.14837v1.62991h6.34942c1.25865.5209 2.82061.57749 3.76212 1.67206.7031 1.01933.22488 2.678-.96976 3.0995-1.37156.51212-2.9361.16123-4.09545-.68943-.47232-.40423-1.29781-.83354-1.71734-.1248L6.64336 18.014c1.93109 1.90029 4.99136 2.59334 7.54784 1.68722 1.71921-.61905 2.96942-2.2687 3.12906-4.0849.11353-1.00694-.0063-2.09184-.61593-2.93368h3.14016v-1.62991H4.15551z" />
</svg> 