<svg width="24mm" height="24mm" viewBox="0 0 24 24" xmlns="http://www.w3.org/2000/svg">
    <path
        style="stroke-width:1;stroke-linecap:round;stroke-linejoin:round"
        d="M12.49 4.03v12.83c.46-.02.94.06 1.39-.06.43-.05.33-.94.7-.35.57.42 1.31.5 2 .52a4.2 4.2 0 0 0 3.7-1.82c.87-1.36.98-3.1.62-4.65a3.66 3.66 0 0 0-2.82-2.75 4.55 4.55 0 0 0-3.24.49c-.24.23-.52.53-.43.03V4.03ZM7.02 7.64a5.1 5.1 0 0 0-3.07 1.15c-.22.17-.42.36-.62.54.25.35.42.85.9.92.45.11.8-.21 1.13-.45a2.91 2.91 0 0 1 2.5-.47c.71.27.92 1.1.9 1.79-.04.14.1.47-.15.4-1.5.06-3.07.21-4.4.97-.75.42-1.31 1.27-1.2 2.16.02.96.73 1.8 1.62 2.11a4.77 4.77 0 0 0 4.28-.69c0 .48.46.84.92.8h.83v-6.05c-.04-1.1-.56-2.22-1.56-2.75a3.85 3.85 0 0 0-2.08-.43zm9.71 1.55c.94-.01 1.79.42 2.1 1.2.43 1.03.4 2.2.11 3.26a2.32 2.32 0 0 1-1.84 1.7c-.88.16-1.94.03-2.53-.73-.25-.18-.13-.5-.16-.75V10.5a3.09 3.09 0 0 1 2.32-1.32zm5.77 1.28v8.12h-21v-8.11c-.02-.96-1.37-.97-1.38 0v8.86c0 .22.3.61.49.62l22.58.01c.36 0 .65-.26.67-.48l.02-9.02c.01-.96-1.37-.93-1.38 0zm-13.74 2.5v1.4c-.64.65-1.5 1.1-2.43 1.1-.53.05-1.2-.1-1.39-.67-.14-.38-.04-.84.3-1.06.73-.48 1.62-.6 2.47-.69l1.05-.07z" />
</svg> 