<svg viewBox="0 0 1303 851" xmlns="http://www.w3.org/2000/svg"><path fill="#fffdf0" d="M987.3 92.6c-.3 1 12.5 7.3 14.1 9.1 44 20.5 62.4 67.5 76.7 94.7 14.4 27.2 12.8 28.7 19 41.8 30.2 58.4 30.7 85.6 33 131.8-24.3 78.1-87.2 58-97-20-3.7-30.3-26.8-66.9-39.3-105.4-20.9-50.3-31-84.2-78-101L859.3 88c19-8.6 40-11.6 61-11 7 .3 13.7.8 20 1.6 16.2 2 31.9 6.7 47 14"/><path d="M431.6 592.6c110 31.9 241.4-3 354 15.3 138.4 62.6 195.1 73 334.6 14.5 92.9-.3 89.2 44 72.5 59.2-14.9 13.5-48.3 22.2-62.4 27.4-28.7 9.4-60.2 15-132.8 25A2210.7 2210.7 0 0 1 753 749c-16.7 0-33.6.9-50 .7a9473 9473 0 0 0-119.2-.7c-8 0-25.7-.6-53-1.9 0 0-158.8-8.8-247-20.3a958 958 0 0 1-157-33.5c-17.8-5.3-20.5-5.8-30.8-11.4-10.4-5.6-13.9-9.4-16.7-14.3a17.7 17.7 0 0 1-2.7-11.8c-7.6-80.5 236.2-62.2 355-63.2z" style="fill:#ffcecd;fill-opacity:1"/><path fill="#fdffff" d="M980.7 333.4c-32 67-214.7 51.8-205.8-6.6 8.8-58.3.6-74.2-1.4-119.9a151 151 0 0 1 20.8-66.4 143.7 143.7 0 0 1 65.1-52.4c17.3 2 36.3-.6 54.4-1 17-.6 27.6 1.1 41.4 11.4 1.9 1.4 4 2.5 6 3.5 3.7 1.7 6.5 3.3 8.4 5 6 5.3 12.9 9.7 17.8 16.1 4.9 6.2 8.6 13 12.7 19.6 2.5 4.3 3.5 14.7 3.6 14.9 1 2-.1 8.6 2.3 19.1 2.4 10.1-.7 20.5-2.2 30.6-.5 3.7-1.8 7.7-4 12-.1.3-.2.3-.4.1v-.3c-3.9 7 13.3 47.3-18.7 114.3"/><path fill="#feeae3" d="M987.3 92.6c29.3 12.2 54 34.4 70.4 61.4 11 16 22.4 31.9 30.2 49.9 21.2 35.2 32.5 75.2 45.8 113.8 1.8 19.8 19.1 37.6 12.4 58.1-9.5 16.8-13.3 37.5-28 50.9-13.3 9.3-30.5 1.7-43.9-3.8-6.7-5.7-20.2-4.4-22.6-13.5-3.8-10.7-8.2-21.2-11-32.2a26.3 26.3 0 0 0 22.6 18.6c7.4 4.3 28 5.9 29.8 2.9 7.8-1.5 16-3 21.6-9.4 7.6-10 14-21.8 11.8-35-1-33.5-12.3-65.5-22-97.2-5.8-14.6-13.3-28.8-19.7-42.9-5.7-10.3-10.3-22.4-18.7-31.4-5.3-12.7-15-22.8-21.9-35-9.8-14-24.2-23.4-36.3-35.1-6-7.3-14.5-14.3-20.5-20"/><path fill="#fffff9" d="M802.3 126.6a22.3 22.3 0 0 0-4.7 4.9 158.4 158.4 0 0 0-25 63c-6.2 26.3-8 234.2-31.4 234.3C648 416 665.8 263.2 774 150.1c5-6.4 11.7-9.7 17-15.8 4.6-5.4 10.7-10 16-15 .3-.5.8-.7 1.2-.8.6 0 .7.1.3.5z"/><path fill="#4b2f37" d="M438.2 123.5h14.6c41.6-.1 83.5-.1 126 0h20c53-.3 106-.3 159 0 27.3.3 28.2 10.4 28.3 14.8.1 8.9-36.8 14.3-55.3 17.4-155.5 53.3-426.2-12.5-556.2 111.2l-5.7.1c-.1 0-.3 0-.4-.2l-.5-3.2.1-3.2v-104l.2-4.2c1-4 2-8.2 3.6-11.7 5.6-11.7 15.2-17.5 29-17.3l21.6.1c72 0 143.9 0 215.7.2"/><path fill="#755f65" d="M784.6 139.8c-6 8-10 12.5-15.4 21.1L216.4 453.6h-9.2a.9.9 0 0 0-.9 1.2l3 10.5h-1c-.2 0-.4 0-.4.4v.4L205 457l-1.9-5.7c-.2-.7-1-1.1-1.6-1l-16.8 3.3c-.4 0-.5.3-.5.7l1.3 9.4 2.8 14.9 3 19.2-.6-.3c-.4-.2-.6 0-.6.3v1.3l-6.5-29.3a475 475 0 0 1-2-15.5c0-1.5-1.2-2.5-3.2-2.9l-3-3.1-3.9-5.6a94.7 94.7 0 0 1-3-29.8v-2l1-238.8c-.3-11-.5-18.8 2.8-28.2 3-8.6 8.3-14.1 16-16.6 3-1 9-1.5 18.1-1.4 180.2.8 360.4.1 540.5 0 22.8.2 31.5-.5 37.3 11"/><path fill="#ffd9d3" d="M1047.4 138.6q14 16.6 22 28.6 7.2 10.6 20 32.2 5.2 8.7 9.8 17.4 16.7 31.7 24.8 50.5 10 22.9 22.2 60.2 2.2 6.8 4.3 15c1.7 6.8 3.7 13.5 4.8 20.2 1.6 9.8 3.4 19.7 3.7 29.6l.2 10.6q.1 13.4-2.3 26.6c-4.2 23-21.9 42.8-47.3 37.2h-1c-1.3.4-2-.6-2.9-.9q-9.4-3.3-18.2-8-.5-.2-.7-.7l-.3-.6-.4-.5q-14.5-11-23.2-24.6-12.3-19.4-19.4-44c1.6 1.4.6 3.7 3 4.9q.4.2.4.7l.4 3.1a.5.6 19.6 0 0 .1.3l6.2 6.8q.2.3.6.3h.3l.4.1 10 8.2 5 4.3q4.2 3.8 9 5.4 4 1.3 12.5 3.3 3.5.8 6.4.3 4-.7 9.3-2.4 2.6-.8 3.8-2.1.3-.4.8-.5 1-.4 2-1.2 4.7-3.5 8.4-7.2 4.6-4.6 7-7.7 3.3-4.1 5.5-9 .2-.5.6-.9.6-.6 1-1.6c.7-3.4 2.6-6.4 3-9.7q1-6.5 1.6-13.1.3-3-.4-6.1l-1-5.5q-.4-3.2-1-5.4l-7.6-34.3c-.6-3-2-6-2.8-9.1q-.2-.6-.5-.7l-.6-.2a.6.6 0 0 1-.6-.4l-9-28-3.9-10.7q-1.3-3.6-2.3-7.3-1.2-4-2.6-7.1-4-9.1-7.8-18.4l-1-3.4c-.7-1.9-1.9-3.3-2.5-5q-1-3.3-2.8-6.2-1-1.7-2-4.6c-1-2.5-3-5-3.9-6.6q-3.3-5.7-3.2-6.4l-3.5-7.1-3.6-6.8-1-2.8q-.4-1.2-1.3-2.2-.3-.4-.3-.9-.3-2-2.2-4-2.9-3-10.6-14.5-1-1.7-1.8-4.3-1-3.3-2.7-6.1-.6-1-3.3-4-1.8-1.8-3-4.1l-2.6-4.3q-1.4-2.4-2-4.6"/><path fill="#b75969" d="m1015.3 167.1.3 1.8q-.5 0-.7-1 0-.2-.2 0v.2q.4 4 0 8.2l-1.2-12.8q-.7-9-4-17.5h.4q4 10.3 5.4 21.1"/><path fill="#ffe3cd" d="M768.5 156.8c0 3 .5 5-.2 6-2.6 3.8-2.8 4.2-9.7 17.5-1.8 21.8-25 29.6-39.3 33-138.2-15-474 29.9-527-30.5v-20.4c0-7.7 4.3-14.8 18.8-14.8 180.4.4 361-.3 541.3 0 9.5-.2 16 .3 16.1 9.2z"/><path fill="#feeae3" d="m1013.5 163.5 1.2 12.8 4.3 72.5q-.7.8 0 2.8.5 1.2-.3 1.4-.5.1-.4.6l.3 1.9-.2-.4q0-.4-.4-.1-6 5.3-13.6 8.1-3.2 1.3-8 1.6l-8.6.7a.5.5 0 0 1-.6-.4v-1c1.4-12-2.2-25.6-13-32.3q7 1.3 12 7.6 3 3.2 4 7.4a2 2 0 0 0 2.5 1.4q3.3-.9 4-5c.2-2.2 2.2-5.5 3-8q1.3-3.8 4.2-11.3 3-7.5 4.7-18.8 1-6.6 2-21.1 0-.6-.4-1-1.4-2.3.4-4.2a1.5 1.5 0 0 0 .4-1q0-2.2 2-3.6.4-.3.4-.8z"/><path fill="#fdffff" d="M1031.1 330.1c-2-14-4.6-28.4-6-42.2-2.8-29.2-5.2-59.7-7-91.6-.5-8-1.3-17-2.5-27.4l-.3-1.8 1-1c0-.3.2-.3.4 0 .5.3 1 .3 1.4 0 .3-.2.6-.2.8 0l4.2 2.2c.4.2.6.5.7.8 1.1 2.2 3.3 3.7 4.6 5.2 1.4 1.7 3 2.6 4 4.4 9.5 7.6 13.3 24.5 19.8 33.4l3.5 5c3.7 5.9 7.7 11.5 10.7 18a384 384 0 0 1 17 39.4c1.5 4.3 3 10.8 4.1 19.3 1 7.1.5 13.7-1.7 19.7-1.3 3.6-6.4 9.4-8 13-4.5 6-8.4 6.8-14.4 7.2a16 16 0 0 1-8.3-2c-3-1.6-6-2.6-9.4-3.1-3.9 1.3-7.5.4-12.2.2-.4 0-.7-.2-1-.5l-.6-.5c-.2-.3-.3-.3-.3.1 0 1 0 1.8-.5 2.2"/><path fill="#ffd9cc" d="M192.2 182.5c7.8 9.6 27 1.5 38.5 6 50.8 5.5 102.9 7.4 154 6.6 27.2.8 54.5-2.7 81.6 1 40.4 3.5 82 .5 122.7-.8 28.6-.1 57.4 1.5 86 .7l76.1-2.3c6.2-5.2-2.3 10-3 14.6-2 2.8-5.9 26.7-9 21.5-123.5 7.4-244.5-2-368.2 1.8-67.6 5-173-4.1-178-10.8-1-1.3-.6-12.7-.8-16.7z"/><path fill="#63292b" d="M952.3 187.2c3.6 3.2 7.7 4.2 11.3 6.7a1.6 1.6 0 0 1 0 2.7c-5.9 3-13.5-.6-16.4-6-2-3.7 2.2-6 5.1-3.4M832 190.3c5.7 2.6-5 16-12.2 12a1.7 1.7 0 0 1-.3-2.9q5.3-4.2 10.2-8.6 1-1 2.3-.5"/><path fill="#feeae3" d="M772.5 194.4c-4 30.5-4.8 61.5-11.6 91.6-3.3 29.1-6.6 58.2-9.2 87.4-2.6 26-3.9 52.6 1.2 78.4 1.4 8.7 12 38.3-1.5 38-8.8.8-17.7-24.2-20.9-32a170.3 170.3 0 0 1-9-44.2c6 3.4 15.1 10.7 22 8 2.8-7.3 5.2-19 4-29 1-10.2 2.5-20.4 3-30.7-1.5-14.1-.7-28.2 1.3-42.2.3-16.5 3.8-32.6 5.1-49 2.2-9.5 3.3-19.1 5.2-28.6 1.5-13.2 3-26.6 6.1-39.4 2.7-2.4 2.8-5.2 4.3-8.3"/><path fill="#feeae3" d="M773.3 206.9h.3c1.5 7.7 1.8 16.3 3 24.5.6 3.1 1.5 7.3 3 12.5a27 27 0 0 0 4 8.9 36 36 0 0 0 9 9c1.4 1 2 2.7 3.3 3.5 1.5 1 3 1 4.7.1 1.2 9.1 5.6 15.1 13.4 17.9 5 1.7 9.5 1.2 13.7-1.7 8 9.1 11 18.3 8 28.8-1.3 2.6-6.5 9.3-8.6 15.7-1.8 15.6 5.2 21.6 26.1 23.7 36.8 0 60.3 4 97.2-7.2L960 331l-1.9-9.3-7.6-14.6-.7-17.6 4.7-14.5a17 17 0 0 0 10.1 6.2h.3c27.2 22.7 49 22.6 46.8 40.8-2.1 2.3-3.5 5.9-5 8.6-1.2 2-3.8 4-7 7.5-1 1-2.9 1.7-4.6 2.8-21.2 17.7-76 33.6-103.5 33.5-27.5-.1-28-4.8-31.8-5.7-39.6-9.1-9-1.9-39.7-10.7a67 67 0 0 1-41-24.4 69.1 69.1 0 0 1-15.9-34.1 43 43 0 0 1 1-17.4c2.1-9.4 5-18.7 5.8-28a410 410 0 0 0 1.8-25.7c.3-7.2 1-14.3 1.6-21.5m33.5 84.3c-.3-1.8-2.8-2.8-5.5-2.3-2.8.5-4.8 2.4-4.4 4.2.3 1.8 2.8 2.8 5.6 2.3 2.7-.5 4.7-2.4 4.3-4.2z"/><path fill="#755f65" d="M262 512.7 473.6 447l311.8 54.5-2.1 8.5-211.2.5c3.3 21.4 6.7 42.3 12.3 63l34.2 16.8 12.8 13.4-13.9 1-43.8 1.4-51 .2-12.5-.3-12.4-.2c-37.4 0-75-.1-112.4-.3-1.4 0-3-.5-4.6-1.4-4-2-4.9-7-2-10.3.8-1 2.6-2 5.4-3.4a245.6 245.6 0 0 0 21-11.1l2.6-1.5 6.5-4c.4-.1.6-.4.6-.7l3.4-17.1.3-2.7 7.8-42.4"/><path fill="#ffcecd" d="M744.1 219.5c-10.8 33.7-15.3 68.7-22 103.2-8.3 93-307.8 56.7-529.9 6.4-.2-38.5-.2-78 0-117.1 69.3-.6 125.7 19.9 194.5 11.1 64.6-7.2 20.2 6.2 61.7 5.3a79.4 79.4 0 0 1 33.7-9.5c22.7 1.2 38.3 4.6 60.8 7.2 9.6-3.2 20.4 1 30-3.8 18.7 7.4 100.9-14.5 110.6.4 19 0 37.6-7.5 56.7-3.8 4.3-3.4 2 1.4 4 .6"/><path fill="#5a3035" d="M974.1 231.7c11 6.7 14.5 20.3 13 32.4q-1.6 8.4-8.4 13.5l-10 3.2q0 .2-.3.2l-3.9.2q-5.7-1-10-6.2-2.8-3.5-4.5-8.2-2.7-9.3-1.6-18.4c1.5-12.5 13-23.3 25.7-16.7m-145 48.7-1.4 1.2q-6.3 4.3-13.7 1.7-11.7-4.1-13.4-17.9-1.6-9.8 1.4-18.8c4-11.7 16-17.2 25.8-7.9 9 8.5 10.3 32.3 1.3 41.7"/><ellipse fill="#fdffff" rx="6.7" ry="4.8" transform="rotate(107.3)" cx="-51.3" cy="-987.7"/><path fill="#edb6c3" d="M530.3 323.5q2.4 3.2 5.6 3.2 17.7.4 35.1.3a.8.8 0 0 1 .8.8v6.3q-.3 1.4-1 1c-1-.4-2-.9-3-.9h-28.3q-4 0-5.9-1.2-3-1.7-3.4-5.5-.6-2.7 0-4"/><ellipse fill="#fffff9" rx="6.7" ry="4.3" transform="rotate(115.3)" cx="-122.5" cy="-838.5"/><path fill="#ffd9d3" d="M1019 248.8a938 938 0 0 0 5.3 52.7c-4 22.3-23.4 68.7-26.7 81.1-3.8 8-20-1.3-33.2.6-39.3 4-40.3.5-58.9.6-6.7-4.5-10.6 1.7-12.7 7a1 1 0 0 1-1 .6l-3.5-.4c-.5 0-.8-.3-.8-.8-.4-5.2-4.3-11.8-10-11.1-4 .5-7.6 4.6-9.3 8-.1.3-.5.4-.8.4-3.8-.6-3.7-3.7-5.2-5.9-2.9-4.3-7.1-6.5-12.2-4.3-4.5 2-5.3 7.2-6 7.1l-8.6-1.4c-3 .8-3 5.3-3.4 7.6-1.8 20-4 23.2-4.3 22.8-8.2-7-19.6-9-19.5-9.3 6.6-12.2 13-26.6 20-38.6 12.5 2.4 24.8 7.4 37.1 7.9.3 0 .4-.4 0-.5l-31.8-8.4-3.2-.7c-19.5-5.7-38-15.3-51.4-30.2l1-.3c.4 0 .6 0 .7.2l2.1 3.3c3.6.7 5.6 4.2 8.8 5.2 4.5 1 11.8 5.8 12 6 1.9 1.8 4 3.3 6.3 4.4.7.3 18.6 4.4 39.7 11.9a98 98 0 0 0 11.2 3.4c3.9.9 7.7 1.9 11.5 3 2 2.5 13.8 2 17 1.1 5.7-1.8 13.3-1.2 19.4-1.3 1.5 0 3-.3 4.6-1 2-.7 3.5-1 4.5-1.2 19.1-3.7 39.2-8.4 56.5-17.4 13.3-7.3 24.3-9.6 31.4-21.4 1.6-2.7 3.4-5.2 5.5-7.5.8-1-.3-2.5-.8-3-2.5-3.5-3.4.5-14.5-.1a40.4 40.4 0 0 1-29.9-15.8c-4.6-7.4-2.5-13.6-1-21.8 5 .5 9.6-.8 13.8-3.7 4.6-3.4 7.4-7.9 8.4-13.5l.1.9c0 .3.3.5.6.4l8.5-.7c3.4-.2 6-.7 8.1-1.6 5-1.9 9.6-4.6 13.6-8.1.2-.2.4-.2.4.1l.1.4h.1l-.3-1.9c0-.3 0-.5.4-.6.6-.1.7-.6.3-1.4-.4-1.3-.4-2.3 0-2.8"/><path fill="#edb6c3" d="M430.1 307.4c-2 .4-6 1.4-6-1.8l.3-47.8c2.5.9 4.9 2.8 5 5.3 0 14.4 1 30.2.7 44.3"/><path fill="#eb9ba7" d="M587.7 310.3c-.3-15.2 2.6-42.6 2.5-51.4.4-.2 6.5-.3 6.7 0 2.7 14 1.3 35.8 1.6 50"/><path fill="#956b6d" d="M978.7 277.6q-6.2 4.4-13.9 3.7h-.3l4-.3v-.7q-7-.4-10.9-6c-3.8-5.5-1.4-7.9 4.4-8.9a.9.9 0 0 1 .8.3c2.2 2.7 3.1 4.9 7.1 6h1c3.7-1.8 5-5.9 6-9.8a.9 1 2.3 0 1 .7-.6l3.2-.7q1.2-.3 1.5 1 2.3 9.5-4.8 15.5-.9.7.2.6zM830 265.1c9 16.4-16.2 24-23.6 9.5-1.6-3.2 7-12.3 10.3-6.1 1.2 2 2.5 5.2 5 5.6 4 .8 6.5-6 7.4-8.9a.5.5 0 0 1 .8 0"/><path fill="#fffdf0" d="M950 266.8a30 30 0 0 0 4.4 8.2l.6 4.7v1c-3 6.8-4.3 14.1-4 21.9 0 2.2.3 3.7 1.5 5.6a85.1 85.1 0 0 1 8.2 15.1c1.5 3.3 3.7 6 6.7 8.2.3.2.4.5.4.9v3.4c0 .4-.1.7-.5 1-3.2 2-6.6 3.7-10 5l-4.9 2.4a79 79 0 0 1-18.3 5.3l-4.8 1.2c-2.3.6-4.7.5-6.7.8a122 122 0 0 1-26 1.3 718 718 0 0 1-43.4-3c-6.3-.7-11.6-1.6-16-2.8-5.3-1.5-10.5-3.4-15.5-5.7-2.4-1-4.4-2.3-6-3.6a2 2 0 0 1 0-3 79 79 0 0 0 9-11 88 88 0 0 0 7.5-12.3c2.3-5 3.2-10.3 2.6-16a10 10 0 0 0-1.7-4.6c-2-3-3.7-6.1-5.4-9.2l1.4-1.1 5.5 7.5a27 27 0 0 1 4.3 14c-.5 7.2-2.8 12.7-5 19.4l-4.7 13c-.1.3 0 .5.2.7 1.5 1 3 1.6 4.6 1.7 2.9.2 5.6.8 8 1.7l7 2.4c8 2 16.2 3.1 24.4 3.4l9.1.5c2.8.2 5.9.3 9.2.2l29.5-1.4c4.8-.3 9.5-1 14.1-2.2 1-.4 0-1.2 1-1.6 2.4-1 4.3-1.9 7.2-2.2 8.4-.8 12-6.7 12.2-7.6 1.3-5.4.5-8.3-2.4-13a85.9 85.9 0 0 1-4-7.3c-1-1.9-1.6-3.9-1.8-6-.4-5.4-.3-11.6.3-18.6.2-1.7.6-3 1.3-3.8.7-.7 1.8-2.7 3.3-6 .1-.3.1-.5 0-.8-1.5-2.4-2.3-5-2.4-7.7"/><path fill="#eb9ba7" d="m497.1 288.1-1.4 1.2q-.5.4-.7-.3-1.4-5-5.7-7.4c-4-2.2-8.4-1.5-10.6 2.8-3.3 6-3 12.6-2.8 20l.3 10.4q.5 5.2 2.5 10.1.3.7-2 .3-8-18.2-3.9-39.9c1.1-5.8 5.3-12.1 11.5-13 8-1.2 12 9.1 12.8 15.8"/><path fill="#edb6c3" d="M523.5 319.5a49.2 49.2 0 0 1-9.9 24.4 32.2 32.2 0 0 1-25.4 12.5q-19.3.5-31-14.2-4.5-5.5-6.6-12.4l-.6-3.3q0-.6.5-.6 1 0 1.8 1.8c10.4 22.2 38.7 29.7 57 12.1q1.3-1.3 4.3-6 2-3.2 3.2-6.6 8.7-26 1.4-52.3 0-1 1 .1l.3.7a76 76 0 0 1 4 43.8m26.7-11.6 20.4-30a.6.6 0 0 1 1 .2l.2 29.3a.6.6 0 0 1-.5.5l-20.6.9a.6.6 0 0 1-.5-.9"/><path fill="#eb9ba7" d="M400.4 293.1q-6.2 6.6-11 14.7l-9.2.3q-.9 0-.4-.7l20.3-29.5a.3.3 0 0 1 .6.2z"/><path fill="#ffcecd" d="M497.1 288.1c1.2 9 3 36.5-10.2 40.2q-5 1.4-10.3-3.1 2.4.4 2.1-.3-2-5-2.5-10.1l-.3-10.4c-.2-7.4-.5-14 2.8-20 2.3-4.3 6.5-5 10.6-2.8q4.3 2.3 5.7 7.4.2.7.8.3z"/><path fill="#ffc4c2" d="m897.3 292.4-12.3 7q-3.2-.4-6.8-3.3c-4.2-3.4-6.2-9.8.7-11.8 4.4-1.4 17.6-3.2 19.6 3.3q1 2.9-1.2 4.8"/><ellipse fill="#fdffff" rx="5.1" ry="3.3" transform="rotate(-10.7)" cx="733.7" cy="436"/><path fill="#63292b" d="M897.3 292.4q-3.3 4.9-7.7 7.8-.5.3-.5.8l-.2 6.5q0 .5.5.7 7.8 2.5 9.6 10.7a.6.6 0 0 1-.3.7l-.6.2a.6.6 0 0 1-.8-.4c-3.7-11-14.6-11.7-16 1a.7.7 0 0 1-.7.7h-.4a1 1 0 0 1-1-1q.5-7.4 6.8-11.2.4-.2.4-.7.6-4.2-1.4-8.7z"/><path fill="#ffcecd" d="m400.4 293.1.2 14.3q0 .6-.6.6l-10.7-.2q5-8.1 11.1-14.6"/><path fill="#f0d0d6" d="m1024.4 301.5 3.8 26.9c0 .9-.3 1.8-1.2 2.8a91 91 0 0 1-31 22.4c-5.1 2.3-11 4.6-17.7 6.9a459 459 0 0 1-18.9 5.9v.1a149 149 0 0 0 26.4-6.1c7.3-2 14.2-5.1 20.4-9.4.7-.4 1.5-.3 2 .3 1.7 2.1 2.1 4.8 3.5 7a644.2 644.2 0 0 1 17.6 30.8 995 995 0 0 1 25.7 54 306.2 306.2 0 0 1 14.1 37l5.1 17.7a205 205 0 0 1 4.5 17.8l4.5 23.5c.4 1.8 0 4.5 1 6.6v1c-.2 3.7 1.1 7.4 1.2 10.8l.4 10.6c1 19.9-1.4 38.6-10 55.8a80.5 80.5 0 0 1-11 16.5c-5.2 6-11 11.5-17.4 16.6a3 3 0 0 0-1 1.7c-.3.4 0 .5.2.3l9-5.6c.3-.3.5-.2.6.3 4.2 13.9-14.6 22.6-26.2 28a231 231 0 0 1-62.9 19c-4 .6-7.9 1-11.9 1.2-6.2.2-11.8.3-16.8-1.7-6-2.3-9.2-19-4.3-21l56.8-37.8c25.8-29.8 52.7-47 61.4-89 9.8-44.4 6-63.7-48-165.8a95 95 0 0 0-6.7-4c-23.5-11.3-51.7-5.4-77.9-6.8-.7 0-.8-1.2 0-1.2 13.7-1.3 26-7 38.5-11.7 9-2.4 16.3-6 25-10.3 2.7-1 22.8-15.3 26.5-25.5 3.8-4.1 7.6-17.6 9-22.9.2-4.8.6-3 1.6-6.5.6.2 3 2.8 4.1 3.8z"/><path fill="#dc8698" d="M824.3 366.1q-.6 5.7-2.5 9.5a2306 2306 0 0 1-10 19.8c-20.5.7-22.6-6.7-37-28.3l-16-43.5 2.6-20.2q.2-1.4.4 0c.7 3.6 1.2 7.2 2.4 10.5a77.4 77.4 0 0 0 25.3 33.8c9 6.8 20.5 13 30.8 15.4q2.2.6 4 3"/><path fill="#f3ceda" d="M450.6 329.8c6.6 26.7 46 36.8 63 14.1 8.4-6.9 8.3-34.7 16.5-15.9 2.7 6.5 4.1 6.2 12.8 6.3 18.3.1 44-2.5 29 7.2l28.6-10c14.5 9.3 11.6-15.5 12.6-9.9 24.5 6 50.3 5.7 75.5 6 8.8 2.2 31.3-4.5 28.1 8.7-2.4 8.8-4 31.7-7 40.3L192 365l.1-37.1c14.5 2 34.4 3 50.4.7 10.4-.8 22.2 1.2 30.7.3 9.4 1.5 20.6.2 30 1.8 17.5-.2 35.4 3.8 53 0 14.2 4.7 29.3 4 44.3 3.6-7 47.5 37.7-.3 38-.3 3.7-6.3 1.5-26 10-9.7l1 2.7z"/><path fill="#b2a7cd" d="M722.4 318.4c-.8 11-2.4 22.7-3 33q-1 22.8-1.2 45.7c0 2.2.4 4 .2 6.3-.2 2.6.6 5 .7 7.2q.4 7.7 1.2 15.3.2 1.3.8 2.6l1 2.6q-8.4 1-15.7.4l-1-2.1q-.6-1-.7-2.2-.3-11.9 0-23.8 1.1-22 6.2-43.7l6.8-27.6z"/><path fill="#eb9ba7" d="M758.6 323.6q0 .5.7 0 .6-.3.7.4 0 .9 1 1l1 .4a34.2 34.2 0 0 1 5 6.2l3.7 5.3c2 2.4 3 5.3 4.4 7.6a69.4 69.4 0 0 1 5.6 10.6 24 24 0 0 0 3 5l3.3 4.9 4.1 5.1c2 2.3 3.4 5 5.5 7q8.8 8.7 15.1 18.3l-4.4 7.8a1.4 1.4 0 0 1-.7.6l.2 74.7-20 19.3-29.5-11.8c-1.2-2.7.5-22.6 0-24.6q-4-14-4.8-22.8-2-23 .2-55z"/><path fill="#edb6c3" d="m364.1 326.4 35.5.3a1.2 1.2 0 0 1 1.2 1.2l-.2 6.4q-9.9.3-19.5.2h-4.7q-8 .2-14.2-3 .3-2.7.3-4.1 0-1.6 1.6-1M441 318.7c.3 6.1 1.6 17.8-7.7 16.4-2.4-.3-6.2-.7-5.9 2.5.5 5.7 1.8 17.4-6 18.4-4.2.5-12.4.5-16.4-1.8-2.8-1.6-2.7-12.4 0-5.9 4.2.6 14.3 2.2 17.6-1.8.9-1 1.4-3 1.4-5.6l.2-13.2c0-.3.3-.6.6-.6 5.3 0 12.3 1.6 13-6 .4-4.6.4-8.5 0-11.6 2.2 1.7 3.3 4.8 3.1 9.2m171.4-.1v8.7c0 4.4-1.7 7.1-5.4 8.1-2 .6-5-.4-7.6-.2-.3 0-.6.3-.6.7.2 4.3 0 8.5-.3 12.7-.3 4.9-2.9 7.4-7.7 7.5-3.2 0-11.8.9-14.2-1.5-1.2-1.2-1.7-2.9-1.3-5 0-.3.2-.5.6-.6l3.8-.3c3.2.4 6.4.4 9.7 0 3.6-.5 5.2-2.7 5.3-6.2l.1-15.1c0-.4.2-.6.6-.6 5 .5 11.5 1.6 13-4.2.7-2.8.9-6 .5-9.8 0-.5 0-.7.2-.8.6-.2 1.2 0 1.3.5z"/><path fill="#e8d0e0" d="M711 359.7c0 7.8-1.3 9.6-3.8 22.3-1.6 7.7-1.2 36.8-2 40.3l-512.8-13.8c-1-1 .1-21.3-.2-26.4.3-6.8-.6-17.3.5-21.9 7.1-.5 16.2 3 24.1 2.5-16.4 2.1 6.6 1.6 12.8.1 18.3-2.5 36.4 2.8 54.8.3 17 0 34.1-2.2 51 1.7 21-.6 42-4.3 63-4.9 5.7.6 18.3-.7 6 1.2-5.5-.5-27.7 1.4-22.6 2.3 18.3 0 36-2.3 54-2.9 16-2 32.5-3.1 48 .2 12.7-3.5 30.8 1.6 40.7-2.6a349 349 0 0 1 32.7 0c9.7.4 24.7 6 31.4 1 6.5 2.3 21.2-.6 31.2 2 10.7.7 21.2 3.1 31.7 1.7 15.8 0 32.2.4 48.3 0 4.1-2.2 10.4 3.3 11-3.1"/><path fill="#feeae3" d="M843.4 396.7c.5-3.7 1.7-7 2-10.7.2-2.6 1.2-4 2.6-6.1q1.3-2 2.4-1.7 1.8.4 1 2-2 3.4-2.8 7.1a25 25 0 0 1-3.2 10 1 1 0 0 1-2-.6"/><path fill="#ffd9d3" d="m855.4 378.3 6.3 6a1 1 0 0 1-.9 1.7l-8.2-1.4a1 1 0 0 1-.7-1.3l2-4.7a1 1 0 0 1 1.5-.3"/><path fill="#feeae3" d="M997.6 382.6c10.3 4.9 16.7 14.3 23.2 23.3l3.5 4.6c14 18 26 55.8 28.8 65.1 9.4 32.2 13 60.7 4.8 94.1l-1.6 5.1c-2.8 7.2-5.2 12.8-7.4 16.8-8 14.5-18.1 26-30.6 34.6-4.8 3.4-26.5 15-27.4 15.2a116.8 116.8 0 0 0-47.6 0c-4.3 1-9.5 3-15.7 6a57.1 57.1 0 0 0-16.2 14c-11-.2-17.6-.7-27.8-2.3l-10-4.1-35.4-15.4c-5.4-2.3-12-4.3-20-5.9-1.5-.3-4-.1-6-1a2 2 0 0 0-.9-.2c-2 0-6.8-.6-7.8-2.6-.2-.5-.4-.9-.7-1.1a78.4 78.4 0 0 1-20.9-38.1c-2.5-13-3.3-26.1-2.5-39.3 1-16.1 3.5-31.6 7.4-46.3 2.3-8.3 5.3-17.8 9-28.3a97 97 0 0 1 3.8 2.3c1.5.9 2.9 1.4 4.2 1.5 6.6.9 12.8-.2 18.6-3.3v14.4l80.3-17.4 2.8-90.5c-.3-.8-.3-1.5 0-2.2 0-.3.4-.4.7-.3 3 1 41-.7 55.7-2.1 12.3-2.5 23.9 1.1 35.7 3.4"/><path fill="#ffacb2" d="M795.3 410.4a43.5 43.5 0 0 0-11.3 24.2c-1 6.8-.6 13 1.1 18.5-1 1.3-2.2 2-3.4 2.2-16.5 4.7-20.7-15.8-21.9-28.3-1-7-1.2-29.9 6.1-40.9l.1-.3.7-5.6c.1-.9 1-1.3 1.8-.9 2.2 1.4 3.5 4 4.6 5.5 8 11.3 3.4 2.3 18.6 19.8 1.8 2 3 3.9 3.6 5.8"/><path fill="#feeae3" d="M875.5 401.1c11.3 4.2-11.3 23.8-8.9 1.2 0-6.8 1.1-15.2 5.8-20 10.2-7.1 17.3 9.3 12.6 8.6l-10.3-1c-5.3 10.4-2.7 12.1.8 11.2z"/><path fill="#b75969" d="M752.7 383.5q-2.3 32-.2 55.1.8 8.8 4.7 22.8 1 3 2.8 7.1 1.6 3.6 3 7.3 0 .5-.5.6l-1 .2Q756 465 753 451.8q-5.8-32.1-2.2-65 .1 3.4.4 6.7l.2.4q.3.2.3-.2z"/><path fill="#d7f0e2" d="M910.4 472.4c.6 1.8 1 3.3 1 5.3a1012 1012 0 0 1-4.5 40q.3.4-.5 1.3c-26.9-4.9-54-8.7-80.7-13.8-4-.8-3.4-3.9-3-7.4a5567 5567 0 0 1 2.8-27c1.2-15.3 3.7-42.4 3.6-55.2 0-12.8 2.7-21.3 5.4-31a1 1 0 0 1 1.2-.7l7 1a2 2 0 0 1 1.5 2.7c-2 4.6-2.8 9.1-.3 13.8l7.5-13.9a1.2 1.2 0 0 1 1.4-.9l14 2.5q.6.1.5.7c-2 17.2-.3 23.6 3.7 23.6 4.6 0 7.5-6.5 7.7-9 .2-1.7-5.4-4.8-6.5-5.5-1.7-1 .8-6.4 2.4-8q.2-.6 1-.5l15.3 2.8 9.2 1.6 13.5 1.7q1.4.1 1.3 1.6a759 759 0 0 1-2.2 25.5v2.5c0 2.9-3 6.4-4.5 8.7a30.3 30.3 0 0 0 2.2 37.6"/><path fill="#fff6f0" d="M892.2 404.7q-.5-1.5 0-4c.7-3.6 3.1-15.8 7.3-15.7q.6 0 .4.6a61 61 0 0 0-6 23.5q0 .7.7.7l4.5.4q1.6.2 1 1.7c-1.3 3.3-3.8 4-6.5 1.7q-3.6-3-1.5-8 .2-.4 0-.9"/><path fill="#feeae3" d="M902.5 384.2c2.4 1 6 5.8 5.4 8.6-.8 3-5.5.8-8.2 1-2 .2 0-11.4 2.8-9.6z"/><path fill="#edb6c3" d="M260.1 645c60 6.3-6.4 26.4-43.2 23.6"/><path fill="#fffff9" d="M907 443.5q1.2-4.1 3.4-8.2c2.5-4.6 6.6-8.4 10.3-12.5a41.3 41.3 0 0 1 5.4-5c8-6.3 15.8-13.2 26.6-19.7s11-5.4 13.2-6c4.2-1.1 11-1.7 15.3-1.3q5.2.5 8.8 3.1c3.2 2.4 7 4.9 9.6 10.4 2.6 5.5 2 9.1 1.5 12.2q-.4 3.5-3.2 8.3a114 114 0 0 1-9.7 14q-2.7 3.4-7 6.6c-3.2 2.5-5.8 5.4-16.3 12a80 80 0 0 1-26.5 5.7 36.5 36.5 0 0 1-29.4-11.4q-1.6-1.6-1.8-3.7a38 38 0 0 1-.3-4.5"/><path fill="#fdffff" d="M951.8 397.1q-12.5 7-24 16-.5.5-.4-.2l.6-10.3c.2-3.5-7.2-6-9.8-6.5q-.6-1.8.8-1.8l7.6-.3c2.4 0 8.2.5 12.2 0l5-.5 10.3-.4q.5 0 .8.4l.3.7q.3.5-.3.7-2 .4-3 2.2"/><path fill="#b5cce7" d="M924 399.1c5.5 3.2 2.6 11.5 1.3 16.3-1.4 1.9-11.6 13-11.5 11l1.7-29.1c2.6-.3 6 .7 8.5 1.8"/><path fill="#dfcfe4" d="M704.7 403.4c-4.3 10.5 11 43.5-9.5 28.2-60.2 20.2-444.3-3.3-454.7.6-14.4-4-36.7 7.7-45.9-10-3.5-12-5.5-29.6 12.7-20.8 15.4 0 29.7 7.5 45.4 4.3 29.8.2 60 .2 89.6-2.8 24.5-2.2 49.2.3 73.4-4.8 30.4 1.3 61-.4 91.2.3 5.3 3.3 19.1-.2 21.2 3.1 3.3-1.9 8.8-.3 13.6-1 3.7 2.8 12.6-.7 20.2.5 12.4 1.3 25 .3 36.8 2.3a959 959 0 0 0 66.5.8c13.3.2 26.1 1 39.4-.7"/><path fill="#fffdf0" d="M855.2 400.7c-1.3 8.9-14 10.5-13-2.6"/><path fill="#fffff9" d="M831.5 435.1c-7.8 29.8-30.7 30.3-39.7 21-5.7-6.1-5.9-14-6-16.4q0-5.6 1.7-11.1c3.8-12 11.8-23 25.8-22.6q3.5 0 6.4 2c9.5 6 11.5 16.5 11.8 27"/><path fill="#4b2f37" d="m252.1 431.8-1.4 3.7c-.2.4 0 .8.4.9 1.4.2 2.5 1 3.3 2.1.2.3.3.6.3 1 10.3 25-7.5 87.5-26.7 98.4l-9.2-1.5-9.2-63.4-1.7-7v-.3c0-.3.2-.4.5-.4h1l2 8.5c1.1 7.4 3 18.5 5.1 33.3 0 .4.2.5.6.3.2 0 .3-.4.3-.8-.4-17.6-.8-35.3-1-53 0-3.7.3-7.5 1.1-11.5a30 30 0 0 1 3-8.2c1-1.4.8-1.3 2-2 7-3.3 10.6-1.9 17.1-.4.4.1.6 0 .7-.3 1.5-4 2.8-13.2 9-10.5 1.4.6 3.6 1 3.5 3.1l-.7 8"/><path fill="#ffc4c2" d="m251 424.4-1 8.3c-.3 1.7-2.1 2.6-3.6 1.7l-3-1.7c-1-.6-1.5-1.7-1-2.8l2.3-6.5c1-2.7 6.7-2.3 6.2 1M137.5 433.5q-3.7-.4-6.7 1.4-.5.3-.7-.3l-2.3-7.1a2 2 0 0 1 3.3-2l6.7 7.2a.5.5 0 0 1-.3.8"/><path fill="#c2d7ce" d="M833.7 429.2q1 1.3 1.6.7a1.4 1 63.6 0 1 2 1q1 4 .8 8-.4 11.4-2.9 21c-.9 3.3-2.5 6-5.7 8q-2.2 1.4-4 3 0-2.3.3-4.9.3-2.2 1.5-4.5 8.3-14.7 6.3-32.3"/><path fill="#5a3035" d="M722.1 431.1q4 11.6 5 23.7-1.5-2.2-9-1 .2-.2-.8-.5-1.7 0-1.6-1.4 0-.5-.3-1-5.3-7.5-7.9-16.4-.2-.9-1.5-1.9-.4-.4 0-.8l.4-.3q7.3.6 15.7-.4"/><path fill="#f8f0f5" d="M234.2 436.1c-12.7-3.2-13.2 9.4-13.3 18.3l-1.8 24a.3.3 0 0 1-.7 0v-28.3c0-8.5 2-19.8 13.3-18.5 1.6.2 4 .7 3.6 2.9q-.3.9-1 1.6"/><path fill="#4b2f37" d="M151.1 444.2a14 14 0 0 1 4.2 5.5c2 3 3.6 5.6 4.6 7.7l18 34.7 4.5 8.4 11 21.5c.2.3.6.1.5-.1l-3.9-22.8.1-1.3c0-.4.2-.5.6-.3l.7.3c4 16.8 1.2 15.2 8 38a5 5 0 0 1-2.8-.5c-3-8-6.4-15.6-10.2-22.5a2264 2264 0 0 0-29.7-57l-4.6-7.3c-.2-.3-.5-.4-.9-.3l-10.9 4.8-6.9 3.5a1 1 0 0 0-.4 1.3c3.8 9 9.3 18.4 13 26.2 7.8 17 18 30.1 26.2 46.5l89.8-1.2c-4.3 3.8-19.2 7-31 6.4 0-.1-.1-.2-.3-.2v-.2l9.5-21.4c3.2-4.4 5.7-9.2 7.6-14.3 8.1-13.5 16-27.1 24.7-40.1l.3-.9.5-5c4.2-2 8.5-3 13.1-3 .4 0 .6-.2.7-.5 7.3-19 22.8-9.6 13.3 3.5l3 14.6c-6.3 12-22.8 25.6-24 44.6-3.4 60.8 19.6 146-51 155.1l-4.9.6c-10.5.6-20.7-.8-30.5-4.1-19.7-6.7-32-25.5-36-45-.8-5.7-1.3-10-1.5-12.6-.8-20.7-1.2-41.4-1-62.2v-15.4l9.7-3.2-25-50.6-7.3-15.2a82 82 0 0 1-2.4-16.7 80 80 0 0 0-3.2-15c-.5-1.9 0-3.2 1.5-4.1 1.6-.4 2.5-.7 3-1.2"/><path fill="#755f65" d="m706.3 431.5-.3.3c-.2.3-.2.5 0 .8.9.7 1.4 1.3 1.5 2a56.5 56.5 0 0 0 8 16.4l.2 1c0 .9.6 1.3 1.6 1.3l-416.9.3a4.7 4.7 0 0 1 1-4.6c.3-.2.5-.5.5-.8.8-5.7-3.4-9.2-8.7-5.8-2.8 2-4.9 4.5-6 7.7-.2.3-.4.5-.8.5-4.6 0-9 1-13 3l-19.4.6c-.7.2-.4-1.6 0-3.4.5-3.7 1-7.5.7-11.4 0-1-1.5-2.6-3.6-3a.7.7 0 0 1-.4-.9l1.3-3.7c14.4-.2 28.7-.2 43-.1 33.4.3 67-.4 100.4-.3h282.4c7.8 0 19 .3 28.5.1"/><path fill="#fffff9" d="M131.4 437.4c-.1-.9 5.8-4.3 8.8-1.5 3.4 3.2 6.8 6 9.6 9.6.2.2.1.5 0 .6l-16.4 7.8c-.2.1-.5 0-.6-.3"/><path fill="#d5e4f2" d="M237.1 441.7c-3.5-1.2.5-8.5 6.8-6.6l4.7 1.4c6.3 1.9 5.6 10.1 2 9.2z"/><path fill="#ffd9d3" d="M831.5 435.1c.5 14.7-6.2 33.6-23.7 33.8-10.5.2-17-7.7-20.7-16.8-1-2.6-.8-5.3-1.9-8.1a1.3 1.3 0 0 1 0-.7l.7-3.6q0 3.5 1 6.3.6 1.6 2.5 3.5c1.4 1.4 2.4 3 4.1 4 19.1 10.8 17.2-8.4 34.5-14.7q2.5-1.2 3.5-3.8"/><path fill="#ffcecd" d="M193.1 436.1c3.5 1.7 4.4 8.8 5 12.3a.6.6 0 0 1-.4.6l-11.2 2.5a1 1 0 0 1-1-.6l-3.2-11a.8.8 0 0 1 .4-.9c2.2-1.3 8-4.2 10.4-3"/><path fill="#755f65" d="m234.2 436.1-4.4 7a43.2 43.2 0 0 0-2.3 10.9c-2-.4-3.4-.2-4.2.6-1-1.4-1.8-1.5-2.4-.2 0-8.9.6-21.5 13.3-18.3"/><path fill="#f3ceda" d="M1002.6 437.2c2.1 6-.4 11.6-2.5 17-4.3 7.2-9.5 15.1-14.7 21.8a59.3 59.3 0 0 1-16 13.5 91.6 91.6 0 0 1-22 11.4c-6.4 4.5-15.7.7-20.8 7.4-1.5 6.8-1.3 15-6.5 20.3-6.5 4.8-14.7.9-22 .4-17.5-3-35.4-6.3-52.8-10.5-4.4-.2-11.4-2-10.8-9.1 25.7 4 52.6 9.1 78.3 13 9.4 2.4 7.7-9.9 9-15.5l3-27.6a62.1 62.1 0 0 0 29-.6c21.8-5 39-22 48.8-41.5"/><path fill="#fffdf0" d="m822.1 482.1-1 19.6c4.5 7 16.5 3.9 13 15.2 15 5.2 31.3 6.2 46.8 10 12 .4 24 8.9 36 4.6 8.7-4.3 8-13.6 8.5-20.2 1.1-10.5 16-6.2 22.7-10.8 11.5-4 21.3-11.6 31.2-18.3 9.2-8.2 14.8-19.3 20.6-29.9 1-8.5 7.3-11.7 11.4-6.9 7 8 12 17.7 18.1 26.5 5.6 10 11.5 20.2 14.3 31 4.7 23.7 1 50.7-10.3 72a123.6 123.6 0 0 1-36.2 33.9 154.5 154.5 0 0 1-88.4 19.7c-8.5-.5-16-3.4-24.7-3.4a183 183 0 0 1-49.5-11.6c-15.4-6-31.8-13.8-38.7-29.7-5-8.6-6-19.6-8.9-29-1.5-16.6-.6-34 5.4-49.7a33.5 33.5 0 0 1 20.8-18.6c5.2-1 6.7-8.7 9-4.4"/><path fill="#ffcecd" d="M289.1 451.4c-.7-1 .2-1.8.8-2.7 7-10.2 13.5-6 6.5 4.4-.7 1-1 1.9-2.3 1.7z"/><path fill="#b5cce7" d="M243.2 503.1a44.6 44.6 0 0 0-3 10.8l-9.6 21.4.1.2q.2 0 .2.2l-9.3.5q-2.5-13-1.5-26 .4-5.1 2.8-15c4.2-17.2 5.8-35.7 8.8-50.8q0-.5.6-.6 1.5-.4 3.1 0 8.2 1.9 16.3 4c.5 0 .8.5.7 1-2 18.3-4 35.7-9.2 54.3"/><path fill="#ffc4c2" d="M186.4 512.8c-1.3 7.9-5.8 12.5-10.9 13.3-5.7.8-31.9-47-35.2-73.1l11-4.8q.4-.2.8.3 2.8 4.2 4.6 7.4 13.8 25.4 29.7 56.9"/><path fill="#d7f0e2" d="M205 457c.7 10.4-13.7 17-19.5 6.7l-1.3-9.4q0-.6.5-.7l16.8-3.3c2-.9 2.8 4.6 3.5 6.7"/><path fill="#f3ceda" d="M753 451.8c2 8.8 4.8 17 8.5 24.8a37.1 37.1 0 0 0 12.8 12.9c3.7.9 12 3.4 12.5 8.3-.7 1-1 2.5-1 4.6 0 .3-.3.6-.6.5-4-.8-8.6-1-12-1.6-16.4-3.3-27-14-35.5-28.5.6-.7 1-.4 1.5.8.2.5 6 2.4 11.2-.8 2-1.3 3.5-2.8 4.2-4.7.5-1.1.5-2.8 0-5a52 52 0 0 1-1.7-11.3"/><path fill="#fdffff" d="m279.1 457.3-3.6 1.2c-.8.3-1.7-.5-1.4-1.4l.7-3.2c.2-.5.6-.8 1-.8l5.5-.7c1.2-.3 2 1.1 1 1.9l-2.8 2.7"/><path fill="#ffacb2" d="M140.3 453q2 7.7 5.5 15 2.7 6 6.8 11 2.6 3.4 3.8 6 2.6 5.6 4.3 10 5.7 15 12 25.3 1.6 2.8 5 2.3c3-.4 4.7-3.6 5.5-6.3q.7-2 3.2-3.5 5.6 10.4 10.2 22.5-14-.3-26.2-4.6-.2-1-.8-1.9-.9-1-1-1.6c-7-14.6-15.4-28.6-22.5-43.2-3.8-7.8-9.3-17.2-13-26.2a1 1 0 0 1 .3-1.3z"/><path fill="#fdffff" d="M254.5 453.6h18.8l-.5 5c0 .3 0 .6-.3.9-8.8 13-16.6 26.7-24.7 40h-.6c-.2 0-.4-.3-.4-.6v-.3c2.7-13.2 5-28.4 6.8-45"/><path fill="#e8d0e0" d="m291.7 465.3-12.2-6.2a.6.6 0 0 1-.2-1l4.2-4.4q.3-.3.7-.4 7-.6 10.2 5.5a1 1 0 0 1 0 .8l-2 5.5a.5.5 0 0 1-.7.2"/><path fill="#fdffff" d="M717.3 453.3q1 .3.7.6c1.4-.3 4.6.3 4.4 1.6 5.7 5.3 8.3 25.8 13.1 36.4 2.8 5 4.1 13.4 1.7 15.2-5 .1-28.6 1.2-33.5 1.6h-33.3q-46-.2-92.2 0h-20q-66.4-.6-132.8 0h-2.2c-48.2.3-94.2 0-141.4-.5q-.7 0-2.4.9-.5.1-.4-.4a617 617 0 0 0 15.4-25.9c2-3.5 5.7-9 7.2-13.8 1.2-3.7-1.2-7-3.4-9.7a1.1 1.1 0 0 1-.2-.9q.4-3 2.4-4.8z"/><path fill="#b2a7cd" d="M718 453.9c5-.9 8.2-.5 9.2 1a87.2 87.2 0 0 0 18 33.1 52 52 0 0 0 38.7 17c.4 0 .5.2.5.5 0 2.3-1.3 3-3.4 3.1-10.6.4-21.2.7-31.8.8.1-.8-23.9-22.3-26.4-41-.5-3.8-2.3-15-4.8-14.5"/><path fill="#fdffff" d="M227.5 454.1a199 199 0 0 0-1.8 12c-1.2 11.3-3.8 21.9-6 32.8q-.2.7-.7.1-.4-.5-.3-1.5 2.4-25.7 4.5-43 1.1-1.2 4.2-.6m-22.5 3c2 5.2 3.3 10.6 4.5 16-1.7 12.4-17 13.6-21.2 5.6l-2.8-15q10.5-1.5 19.5-6.6"/><path fill="#ffc4c2" d="M257.1 531.6a74.4 74.4 0 0 1-23.7 3.5c.5-2 1-4.4 2-6.3a602.1 602.1 0 0 1 38.5-68.2c.2-.3.4-.4.7-.4 5 .3 12 4.9 16 7.6.5.3.7.8.5 1.3-1.7 8-32.2 60.3-34 62.5"/><path fill="#fdffff" d="M298.2 473.3q-3.2-.6-3.6-2.9 1.4-.6.7-2.7-.2-.4 0-1l1.7-5a.4.4 0 0 1 .7-.2q5.2 4.8.5 11.8"/><path fill="#edb6c3" d="M822.4 477.3q-8.8 4.6-18.6 3.3-2-.2-4-1.5l-4-2.3q.7-3.8 3.2-6.5.3-.4.8-.2 8.1 2.6 16.2.2c3-.8 5-2.8 7.3-4.7q.7-.5.6.4z"/><ellipse fill="#755f65" rx="13.2" ry="12.8" transform="rotate(33.1)" cx="677.4" cy="132.4"/><path fill="#9d93bb" d="M294.7 470.4c.2 1.5 1.4 2.5 3.5 3a276 276 0 0 1-16 26.1l3-11.6z"/><path fill="#533258" d="M910.4 472.4q1.6 0 1.1.5 0 1.1 1.3 1.6a1.2 1.2 0 0 1 .7 1.3q-2.4 15.4-4 30.4-.6 6.7-2.6 11.5 2.6-20.1 4.4-40c.2-2-.3-3.5-.9-5.4"/><path fill="#fdffff" d="M820.3 502.9c2.4 5.6 9.6 3.5 14.3 6.5.3 2.3.5 4 2 5.6 12.3 5.9 26 6.6 39 9.6 13 2 26 5.3 39.3 5.7 9.2-.8 8.4-11.2 11.2-17.5 3.8-5 9.2-1.9 14.2-4.5 7.8-2.8 15-6.4 22.8-9.8 7.5-4.6 13.7-11.3 21.6-15.2 6-3.2 10-16.5 16.6-5.8 7.8 4.8 12.5 13 17.6 20.5 5 9.1 8.5 19 9 29.4-.3 6.1 0 13.2-1.6 19.5-2.9 10-6.8 19.7-12 28.6-5 7-12.5 12.2-18.8 16.8-17.2 9.5-36.7 14-55.8 17.7-7.8 1.6-15.3 1.5-23 1.4-21.6-.2-43-3.7-63.3-11-12.4-5.7-26.7-9-36-19.8-9.7-8.4-13.2-21.6-16-33.3-.8-10.1-.2-21 5.7-29.5 4.3-6 5.5-15.1 13-16.6v.3z"/><path fill="#97a9bd" d="m911.5 472.9 14.2 6.4c-.8-.2-1.1 0-1 .6l-.6-.5c-.4-.3-1 0-1.2.4-1.6 12.7-3 25.3-4 38-.5 5.1-9.6 2-12.5 1.2.6-.6.7-1 .5-1.3a41 41 0 0 0 2.7-11.5c2.7-27.2 4.3-30.8 3.2-31.7-1-.3-1.3-.9-1.3-1.6"/><path fill="#d7f0e2" d="m209.5 473.1 9.2 63.3q-9.9.4-19.3-.6l-1.5-5q-.8-2.5-1.3-5l-5.2-28-3-19.2q4 .4 8-1 6.4-2 13.1-4.6"/><path fill="#eaeff9" d="M725.2 475.8c12.7 18 8 12.1 12.2 18.6 10 9.5 12.6 12.3 12 15-2 0-4.5-.3-6.4-.2-13-.3-26-.2-39-.5 5.2.1 28-9.7 29.3-13.6-.5-2.9-7-8-8-19.3"/><path fill="#d0c6de" d="M288.1 482.5q.8.3 1 1l-1 2.6q-4 5.6-5.9 13.4-8 11.2-14 23.9-1.4 3.1-4.2 5-.3.2-.3.6v.3q-.7.2-1.7 0z"/><path fill="#9d93bb" d="M572 520.2c-6.3 15.2-104.4 19.7-145.8-.1l2-9.4c47.3-.2 97.8-.4 141.7.2.4 0 .6.2.6.5z"/><path fill="#b2a7cd" d="m426.2 520.1 2.4.8 1 .2q69.2-.2 138.3 0c1.6 0 2.5-.7 4-.9l2.8 16.9-151.4-.2z"/><path fill="#d5e4f2" d="m279 528.5.6 25.3c-11.3 38.6-50.6 60-111.8 42-10-3.7-10.3-12.9-11.4-32.5v-32.8c2.7.8 5.3 1.4 8 2.5 19 8 40.7 8.8 62.3 7.6 16.7-1 30.7-3.6 45.1-9.7a43.6 43.6 0 0 1 7-2.4"/><path fill="#d0c6de" d="m574.6 537.1 3.7 18q2 9.5 4.8 18.2a1 1 0 0 1-1 1.3l-9.2-.2-143.5-.1-12.5-.1q-.3 0-.6-.3l-.4-.3 7.2-36.8z"/><path fill="#ffd9d3" d="M1113 567.6c3.7 12.7.5 1.3 2.2 9.3.7 20.8-3.9 14.2 2 15.3 9 2 13.4 8.8 12.8 18.6a38 38 0 0 1-3.7 11c-31.4 25.5-59.3 24.5-41.4-16 1.2-10.9 3-36.6 2-52-6-12.1 17.6-6.8 26 13.8"/><path fill="#fffdf0" d="M1113 567.6a20.6 20.6 0 0 1 2.2 9.3c-1 1.1-1.7 2.4-4 5a18.6 18.6 0 0 1-8.5 4.8c-10 3.3-13.6-14.3-13.5-20.6.4-8.6-1.5-10.5 3.7-11.1 6-1 7.3.4 10 1.5a8.6 8.6 0 0 1 4.3 3.4c1.8 2 4 4.7 5.7 7.8"/><path fill="#dfcfe4" d="M414.5 574.6a99 99 0 0 0 16.3 1l12.3-.4q69.6.5 139.3-.1.7 0 1.3-.3a1.1 1.1 0 0 1 1 0l20.2 10.3c-63.6 6.7-128 4.3-192 4.9l-2.9-12.2z"/><path fill="#f8f0f5" d="M410 577.8c0-.3.3-.4.6-.1v.8l.2.3c1.4.2 3 0 4.3.5 12 3.8 45.1 7 52.5 7l28 .3c34 2.1 67.8.5 101.5-2.6 3-.3 4.4.7 8 1.1a269 269 0 0 1 12.1 6c3.4 1.7 5 4.1 4.7 7.4-79.6 2.5-162.6.5-243 1-.8-2.9-.2-4.9 2-6 11.6-5.8 21.3-11 29.1-15.7"/><path fill="#f8bfc4" d="M401.7 581.3c-6 3.5-11.8 6.5-17.6 9.1a17.9 17.9 0 0 0-5.4 3.4 6.7 6.7 0 0 0 2 10.4 10 10 0 0 0 4.6 1.3c45.8.5 91.5-.3 137.2.8-10 .6-16 7.9-20 7.9-46-.1 24.4-1-127.2-.5-32.4-.2-66.4 3-95.7-8l.8-18.4c46.2-2.9 67.5-3 121.3-6zm199.9.7c59 1 118.3 3.2 177.4 5.1a58.5 58.5 0 0 1 6.4 20.7c-1.6-.4-97.7 30-211.8-1.7l44-1.4c8.2-2.5 6.3-11.3-.2-14.6"/><path fill="#d0c6de" d="M622 598.5q0 2.9-2.3 4.1c-1.7 1-4.3.7-6.4 1q-58.6.2-89.9 0l-8.6.2H401.2q-13.3 0-17.5-.5-3.6-.4-4.8-3.9 1-.3 1.7-1.7.2-.5.8-.4 8.8 1.5 12.8 1.5l54.3-.5c7.5 0 16.2.5 22.7.5q71.8-.5 143.6-.5.5 0 1-.3 2.6-1.2 6 .5"/><path fill="#a2b4d7" d="M279.2 602.1c-2.5 30.2-16.5 58.7-49 63.6-17 3-34.5-.7-49-10.2a62.2 62.2 0 0 1-21.5-34.4"/><path fill="#dfcfe4" d="m1080.7 619.1.4 1.2q0 .3.4.5l13 4.8q.2 0 .3-.2l.1-.5a.2.2 0 0 1 .4-.1q2.5 1.5 6 1.6 13.3.4 25-4.6-5.8 6.3-14 9.8a.7.7 0 0 0-.5.8q1.1 3.6.2 5.3-8.8 16.5-28.6 16.6-12.2.1-21.2-6.2-.6-.4 0-.8 12.3-12 18.6-28.3"/><path fill="#fdffff" d="m726 640.6 19 43.5q-3.9 2.8-7 2.9c-15.8.7-39 .1-58.3.1H561.4q-98.7-.1-197.5.2a5397 5397 0 0 1-64-.2q-5.4 0-8.6-1.8-.4-.2-.8 0-.6.5-1 .4.7-3 4-9.1 3.1-6.1 15-31a83 83 0 0 0 7.5-13.4c2-4.1 6.3-3.8 10-3.8 23.5-.1 47 .2 70.4.1q149.8-.4 299.6-.1 9.3 0 18.7.3c4 .2 5.3 1.4 7.1 5.1a50 50 0 0 0 4.1 6.8"/><path fill="#533258" d="M338.6 670.5q1-2.7 2.4-4a.4.4 0 0 1 .6.4c-1 3.7-5 15-9.3 15h-27c-3.5.1-7.3-1.8-5.5-6 6.5-15 14.4-29.4 21-44.5q.1-.3.5-.5.5-.3.3.3-1.7 5.3-3.5 8.9-8.7 17.6-17 35.3c-1.9 3.8-.3 5.5 3.6 5.5l27.3.1a2.7 2.7 0 0 0 2.3-1.3q2.5-4.3 4.3-9.2"/><path fill="#888599" d="M346.2 646q-13-.2-27 0-.6 0-.7-.7 0-.5.4-.5a664 664 0 0 0 26.8 0c4.4-.1 7-14.3 8.8-14.1q.7 0 .5.6a36.8 36.8 0 0 1-5 12.6.5.5 0 0 0 .4.8l28.2.2q2.4 0 3.4-2.2a43.3 43.3 0 0 0 3.3-10.6 1 1 0 0 1 .6-.7l.4-.1a.6.6 0 0 1 .8.6l-2.8 9.7-.5 1c-2.8 3-1.8 6.2-2.6 9.4a84 84 0 0 1-2.9 9.5.6.6 0 0 0 .6.9l31 .2c.3 0 .7-.3.8-.7l1.1-5c.6-2.6 2.3-5.7 2.1-9.2 0-.4.6-.5.7-.2 1 3.3-1.2 10.7-2.4 14a1.5 1.5 0 0 0 0 .9q.2.7-.3 1.1-.3.3-1 .3c-10.8-.4-21.9.5-32.6-.4-2.3-.2-5 .4-7 .4H346a.9.9 0 0 1-.7-.3q-1.4-1.5-2.8-.3-.5.4-1 .4-15.5-.5-30.8-.5-.5 0-.7-.3a.3.3 0 0 1 .2-.5l30.6.3a1.5 1.5 0 0 0 1.4-1c1.3-5.8 7-13 4-15.6m223.3-2.7q1.3 1.5 3 1.5h24.1a1.6 1.6 0 0 0 1.6-1.7l-1-11.4c0-.9 1.2-1 1.3-.2l1.8 12.6q.1.5.7.5l28.2.2a.7.7 0 0 0 .7-1l-.8-2.1a.3.3 0 0 1 0-.2q.5-5-1.5-9.7a.7.7 0 0 1 .4-1l.6-.2q.4-.1.6.4l2.8 11.3a3.1 3.1 0 0 0 3 2.4l26.4-.2q.2 0 .2-.2l-3.2-12.9q-.2-.7.5-.4 1 .6 1 1.1a117 117 0 0 0 4 11.3 1.8 1.8 0 0 0 1.6 1.2l25.7-.1a.4.4 0 0 0 .4-.6l-3.8-12.6q-.2-.8.5-.4 1.2.7 1.6 2.2 1.6 5.1 4.4 11 .2.4.8.4l24.3-.3a1 1 0 0 0 .8-1.3l-4-10.6q-.3-.9.5-.5.7.4 1.1 1.4 4 9.5 18.2 41.7c1.6 3.7 1.2 7.4-3.5 7.4q-11.2 0-22.3-.5-.8 0-2.8-1.4a1 1 0 0 1-.3-.5q-.7-1.9-2.3-3a2.2 2.2 0 0 1-.7-.8l-4.5-9.2a.8.8 0 0 1 0-.7q1-2-.6-3.6a.7.7 0 0 0-.9-.1l-1 .7a1.7 1.7 0 0 1-1 .3h-26a1.3 1.3 0 0 0-1 2 67 67 0 0 1 4.5 10.7c1.7 5.2 4.1 4.8 9.3 4.8q9.7.2 19.3 0 1.5-.1 2.1-1.1c.3-.5 1-.1.8.4q-.6 1.5-1.6 1.5a591 591 0 0 1-26.7.2.5.5 0 0 1-.2-.1l-4.3-3.3a.7.7 0 0 1-.2-.2c-1-2.8-1.7-5.2-3.2-8.2q-1.7-3.6-.7-7.8a.8.8 0 0 0-.2-.7q0-.2-.3-.2-.4-.2-.4.2v1.2q0 .5-.6.5l-30.3.2q-.5 0-.7-.4l-.2-.4q-.2-.5-.7-.2c-.8.5-1.3.8-2.2.8q-29 0-58 .3a2 2 0 0 1-1-.3q-2.4-1.2-4.6.3a1.5 1.5 0 0 1-.9.3l-25.9-.1q-.6 0-.5-.6a.5.5 0 0 1 .5-.4l27-.1a.8.8 0 0 0 .8-.9l-1-14c0-.3.4-.4.4 0 .4 1.4 1.1 2.7 1.2 4.4a83 83 0 0 0 1 9.4.7.7 0 0 0 .6.6l27.7.3a1.2 1.2 0 0 0 1.2-1.5 49.5 49.5 0 0 1-1.4-13.9 1.2 1.2 0 0 0-1.2-1.2l-28.5-.1q-.6 0-.5-.6zm95.3 8q1.3 2.6 3 9.2a2.2 2.2 0 0 0 2.1 1.7l27.5-.2a.7.7 0 0 0 .6-.9 126 126 0 0 0-4.3-11.7q-.3-.7 0-1.8c.2-.4.7-.4.8 0l5.8 13.7c.2.5.7.8 1.2.8l25.8-.2a.8.8 0 0 0 .8-1l-6.4-14.9q-1-2.2-3.3-.6-.5.4-1 .4l-24 .2a1.3 1.3 0 0 1-.8-.3q-1-.9-2.3 0a1.4 1.4 0 0 1-.8.2q-12.7.3-25.5 0a.9.9 0 0 0-.5.2l-.4.4q-.3.5-.5 0l-.4-.9q-.2-.5-.7-.2-1 .5-1.5.5-8.8.2-26 0-.3 0-.8.5-.4.4-.6-.1l-.5-1.5q-.2-.8-.9-.2l-1.3 1.2a1 1 0 0 1-.7.3L601 646a.8.8 0 0 0-.7 1c2 4.4 1.4 9.3 3 14.7q.1.5.7.5h28.3a1.5 1.5 0 0 0 1.6-1.8q-1-5-2.4-10.5-.3-1 .6-1.7.3-.3.5.2l4 13c0 .6.5 1 1.1 1l27.1-.2a1.2 1.2 0 0 0 1.1-1.6 144 144 0 0 1-2.7-8.7q-2.4-8.6 1.7-.6m37 15a367 367 0 0 1 5.5 11.5c.5 1.2 2 2.8 3 3q8.4 1 22.1.4c3.3-.1 3.8-2.8 2.6-5.4l-6-12.5q-.3-.5-.8-.4-12.7 1-25.4.4-1 0-1.3.9-.3.8.4 2.1"/><path fill="#755f65" d="m569.5 643.3-.7-.4q-.4-.2-.5-.6l-1.2-11.1a.3.3 0 0 1 .3-.3h.3q.2 0 .2.3z"/><path fill="#888599" d="m414.8 645.5-.2.1h-.3q-14.7.6-29.4 0-.7 0-1-.2a.3.3 0 0 1 0-.6h27.8q2 0 2.3-1.8.4-2.2 1.5-4.7a17 17 0 0 0 1.3-6.7.5.5 0 0 1 1-.3q.5.5.4 1.6-.4 4.7-2 9-.3.5-.7.8-.6.5-.7 1.3 0 .7.6.7l28 .2q.5 0 1-.4c2.4-2.7 3-9.3 3.2-13a.5.5 0 0 1 .6-.3q1.2.5 1 2-1 4.5-1.5 9.2a1.3 1.3 0 0 1-.6 1q-1 .6-1.2 1.7 0 .4-.6.5-1.8.5-3.7.5-11.8 0-23.5-.4-1.3 0-2.5-.4-.4 0-.7.2m91.5.2q-12.7.5-25.3 0-1.6 0-2.2-1.3-.3-.7.5-.5c1 .3 1.6.7 2.6.7q11.4.2 23.5.1a1.7 1.7 0 0 0 1.6-1.6l.5-11.4a.4.4 0 0 1 .7-.3l.3.3.3.5q.4 5-.2 10.2 0 .5-.3 1-.9 1-1 2.4 0 1-.4.3v-.1l-.6-.3"/><path fill="#755f65" d="M539.3 642.5a.2.2 0 0 1-.2.2 5.5 1.2 88.1 0 1-1.5-5.5v-.2a5.5 1.2 88.1 0 1 1-5.5h.1a.2.2 0 0 1 .2.2z"/><path fill="#888599" d="M476.2 644.1c1.7-3.3 1.6-7.1 1.5-11.5q0-1.1 1.1-1 .4.1.5.5.7 7-1.6 13.4-.2.5-.7.5l-25.3.1q-1.8 0-3.4-.7-.5-.2-.7-.6v-.5q.1-.5.6-.3c.8.4 1.5.8 2.4.8h24.6a1.1 1.1 0 0 0 1-.7"/><path fill="#fffdf0" d="M861.3 650.8c31.6 44-60.5 39.8-72.5 34.8a33 33 0 0 1-25.8-20.4c-.9-5 1-9 3.6-13.9a50.9 50.9 0 0 1 44.4-17.6c19 1.7 30.5 8.2 50.3 17.1"/><path fill="#533258" d="M308.4 645.6q-11.8 24.9-15 31-3.2 6-4 9.1-1.7 4.5.3 8.3c2.7 5 11.7 3 16 3q102 .5 149.7.5H718c7.4 0 25 1.7 27-3.9q1.2-3.8-.2-9.5L726 640.6q3.3 5 7.7 14.3 5.6 12 11 24.2c4 9 4.7 19.5-8.6 19.8l-26 .3q-164.7.3-329.3.2c-28.2 0-56.3-.4-84.5-.5a8.6 8.6 0 0 1-8.2-6.4q-1.6-5.2 1.2-10.7 10.8-21.8 19.2-36.3"/><path fill="#fdffff" d="M518.2 274.9q7.3 26.4-1.4 52.2-1.2 3.5-3.2 6.7-3 4.7-4.4 6c-18.2 17.6-46.5 10.1-56.9-12q-4.5-11.3-4.9-23.5c-.4-10.4.3-20.3 4-29.7a35.4 35.4 0 0 1 67 .3m-41.8 50.3q5.3 4.5 10.3 3c13.2-3.6 11.4-31 10.2-40-.8-6.8-4.8-17-12.8-16-6.2 1-10.4 7.3-11.5 13.1q-4 21.7 3.8 39.9m118.5-64-.6 45.3q0 .6.5.8 1.4.4 3.5 0l8.1 1c.3 0 .6.1.8.4q1.3 1.7 1.4 4.1.4 5.6-.6 9.8c-1.4 5.8-7.9 4.7-12.9 4.2q-.6 0-.6.6v15.1c0 3.5-1.8 5.7-5.5 6.2q-4.9.6-9.6 0c-10 0-7.4-8.3-7.8-14.6v-6.3a.8.8 0 0 0-.8-.8q-17.4 0-35-.3-3.3 0-5.7-3.2a132 132 0 0 1 0-9.2c0-4.4.8-6.4 3.5-10.1q16.5-22.9 32-46.4c2-3 5.8-4.7 9.6-4.8q11-.2 14.4 0 5.5.4 5.3 8.1m-44.9 46.8a.6.6 0 0 0 .5.9l20.6-.9a.6.6 0 0 0 .5-.5v-29.3c0-.5-.8-.7-1-.3zm-125.8-50.1a3749 3749 0 0 0-.4 47.8c0 3.2 4.1 2.2 6 1.8q5.1-.7 7.8 2.1.5 4.7 0 11.6c-.7 7.6-7.7 6-13 6a.6.6 0 0 0-.6.6l-.2 13.2q0 4-1.4 5.6c-3.3 4-13.4 2.4-17.6 1.8q-4.2-.5-4.3-6.2 0-4.8-.2-7.8l.3-6.4a1.2 1.2 0 0 0-1.2-1.2l-35.6-.3q-2.9-1.4-3.3-4c-.8-5.4-.7-12.4 2.3-17.3 3.2-5 7.5-10.4 10.3-14.6a6921 6921 0 0 1 21.8-32q3.6-5.2 9.3-5.3l14.3-.2q5 0 5.7 4.8M400 308q.6 0 .6-.6l-.2-14.2.3-15.1c0-.3-.4-.5-.6-.2l-20.3 29.5q-.5.7.4.7c6.6-.4 13.2-.2 19.8-.1"/><path fill="#fffdf0" d="M1000.1 645.7q3.6 4 4.6 9.7.8 4.9-2 8.6-4.3 5.4-10.2 8.6-2.3 1.3-4.8 3t-5 2.6q-7.6 2.6-18.3 5.4-6 1.6-11 1.7-8.9 0-17.9-1.4-.7-.2-1.4.2-.5.2-.7-.3l-.3-.6q2.3-13.7 13.6-22.6.2-.2 0 0-2 .3-2.7.8-13.3 10.2-13.5 27.4-.4 2.4-1.8 2.3-9.7-.4-18.8-3.8-.4-.1-.7-.6l-2.7-4c-1-1.7-1-3-1-4.8q1.4-7 5-12.2c19-27.8 60.2-27.8 89.6-20"/><path fill="#755f65" d="M565.2 644.9c1 0 1.2-.4 2-.8q.5-.2.6.3l.1.4a.8.8 0 0 1-.8 1q-13.8.2-26.2 0-.6 0-.9-.2l-.3-.6q0-.7.5-.4l.5.3 1 .2zm-55.3-.5q1 .5 2.1.6h23.2q1 0 2.1-1 .3-.2.6 0l.3.3a.4.4 0 0 1 0 .6q-1 .8-3.5.9-11.7.4-23.5.1-1.5 0-1.6-1.4a.2.2 0 0 1 .3-.1"/><path fill="#fdffff" d="M664.8 651.3q-4-8-1.7.6a144 144 0 0 0 2.7 8.7 1.2 1.2 0 0 1-1 1.6l-27.2.2a1.3 1.3 0 0 1-1.2-1l-4-13q0-.5-.5-.2-.8.7-.5 1.7 1.4 5.5 2.4 10.5a1.5 1.5 0 0 1-1.6 1.9H604q-.6 0-.8-.6c-1.5-5.4-1-10.3-2.9-14.6a.8.8 0 0 1 .7-1.1h28.3q.4 0 .7-.2l1.3-1.2q.6-.6 1 .2l.4 1.5q.2.5.6.1.5-.5.8-.5 17.2.2 26 0 .6 0 1.5-.5.5-.3.7.2l.4.9q.2.5.5 0l.4-.4a.9.9 0 0 1 .5-.1q12.8.2 25.5 0a1.4 1.4 0 0 0 .8-.3q1.2-.9 2.3 0 .4.3 1 .3l23.8-.2a1.9 1.9 0 0 0 1-.4q2.4-1.6 3.3.6l6.4 14.8a.8.8 0 0 1-.8 1.1l-25.8.2a1.3 1.3 0 0 1-1.2-.8l-5.8-13.7c0-.4-.6-.4-.7 0q-.4 1.1 0 1.8 2.3 5.5 4.2 11.7a.7.7 0 0 1-.6.9l-27.6.2a2.2 2.2 0 0 1-2-1.7q-1.7-6.6-3-9.2m-312.6-5.4q13.5.2 27.4.2c3 0 .1 4.6-.2 6.6l-2.8 9.1q0 .7-.8.7h-31a.9.9 0 0 1-.9-1.3 159 159 0 0 0 4.3-11c1-4.4-.4-4.6 4-4.3"/><path fill="#fdffff" d="M94 646.8c.7 1 .3 1.6 0 2-14.4 15.3 41.7 32.8 49.2 35a917 917 0 0 0 165.2 30.3c31 2.8 58 6.2 92.8 8.1a35928 35928 0 0 1 175.8 9.9c11.5.7 25.5 2 42 3.8a309 309 0 0 0 20 1.7 930 930 0 0 0 94-.3c86-4.7 151.8-8.1 197.3-10.4a513 513 0 0 0 37.1-3.2l54-6.3a298 298 0 0 0 19.7-2.8c18-3.3 35.6-5.9 53.8-11.4 10.1-3 21.2-5.3 30.5-8.1l39-12.5c27.4-8.9 28-28.2 23.8-33l7.5 5.6c2.1 14.6-12.2 24-24.4 28.7-28.3 11-53 17.3-80 24.6-14 3.7-28.3 6-42.5 8.8a338 338 0 0 1-19.8 3.1c-25 3.3-50.2 6.3-75.4 9a340 340 0 0 1-19.9 1.7c-53.8 2.6-107.5 4.6-161.3 8.3-9.4.6-27.3 1.5-53.8 2.5-3.5.2-7.9.8-11.9.8l-35.4-.2a638 638 0 0 1-71.2-4.4c-7.4-.9-14-1.5-19.9-1.9-53.6-3.4-107.2-6-160.8-9-5.2-.2-11.8-.7-20-1.4-13.3-1-27.6-1.7-40-2.8-15.5-1.4-31-3-46.5-4.2-5.3-.4-11-1.4-15.6-1.9a735 735 0 0 1-69-10 3266 3266 0 0 0-35.9-7c-15-3-29.8-7-44.6-10.8a164 164 0 0 1-44.5-17c-7.3-4.4-12.7-8.2-15.6-15.7-1.3-3.7 1.8-7.5 4.2-9.8.5-.4 1.2-.8 2 .2"/><path d="M790.5 657.2c-.4-.7-.8-.5-1.4.5-.1.3-.3.3-.5.2-.3-.2-.6-.2-1-.1 4.1-6.3 7.4-9.6 14.4-11 2-.5 2-.2.2.7-4.3 2-8.2 5.2-11.7 9.7m-25.2-486.5a303 303 0 0 0-21 54.3c-1.7 6.5-4 13.3-5.5 19.5a767 767 0 0 0-13.4 69 271 271 0 0 0-2 19.3l-1.7 19.3a448 448 0 0 0-.4 61.5c1 10.2 2.1 17.8 3.3 22.7 1.2 5 2 10.2 3.2 14.3 2.5 7.8 5.8 15.2 9.8 22.2 8.4 14.4 19 25.2 35.5 28.5 3.4.7 8 .8 12 1.6.3 0 .7-.2.6-.5 0-2.2.2-3.7 1-4.6 3.4-8.8 8.6-25.8 9.8-29 .2-.2.2-.5 0-.6a25.9 25.9 0 0 1-11.5-15.1c-1.7-6-2.1-12.3-1-18.5 1-9 5-17.5 11.2-24.2 3.2-3 7.1-5.3 11.3-6.6.3-.1.6-.3.7-.6l4.4-7.8 10-19.8c1.3-2.5 2.2-5.7 2.6-9.4 5.7.1 3.6 2.2.5 8.4l-14.6 28.5c0 .3 0 .4.3.3 6.5-2 13.5 3.6 17 8.5.1.3.5.2.6-.1l3.1-21.2c.4-2.5 1.1-5 2.1-7.4.2-.6.8-1 1.4-.9l9.2 1.2c.3 0 .7-.1.8-.5 1-2.7 2-5.2 4.8-6.4 5.1-2.2 10 .7 12.8 5 1.5 2.2 1.4 5.3 5.2 6 .3 0 .6-.2.8-.5 1.6-3.4 5.3-7.5 9.3-8 5.7-.7 9.6 6 10 11.1 0 .5.3.8.8.9l3.5.3a1 1 0 0 0 1-.5c2.1-5.4 6-11.6 12.7-7.1 3 2.5 4.5 5.7 5 9.7 0 .3.3.6.6.7l7 1.9c2.7.5 10 3 10 6.5l-.7 10.3c0 .5.1.6.5.3 7.6-6 15.6-11.4 24-16.1l7.8-4.2c1-.7 3.4-2.6 4.2-1.7.7.8-2 1.9-3.2 2.8l-8 4.2c-.8.2-1.6.7-2.3 1.2-8.2 6-16.3 12.1-24.3 18.4-2 1.5-3.7 3.2-5.4 5-3.7 4.1-7.8 8-10.3 12.5a47 47 0 0 0-3.5 8.2c-4.4 11.3.3 24 11 29.7 3.5 2.2 7.4 3.7 11.5 4.4 34.1 5 63.6-19 76.4-49.8h.1l-3.4 9.4c-15 29.1-40 46.3-73.7 43.1-1.3-.1-2-.6-3-1l-14.3-6.4c.4-.3 0-.5-1-.5a30.3 30.3 0 0 1-2.3-37.6c1.5-2.3 4.6-5.8 4.5-8.7v-2.5c.9-8.5 1.6-17 2.2-25.5 0-1-.4-1.5-1.3-1.6l-13.5-1.7c-.7-.1-1.4.4-1.6 1.1l-1.8 10.5c0 .4.2.7.5.7l2.2.2c1.6 0 2-2.2.3-2.5l-.7-.1c-.4-.1-.5-.2 0-.4l.7-.2c.1-.1.3-.2.3-.4.1-.9.7-1.3 1.7-1.2.4 0 .7.3 1 .7l.4 2.6c.3 5 0 9.4-4.7 11.4-1.4.6-3 .4-4.3-.4-7.3-4.3-4.5-15.6-2.3-22 .3-1 0-1.5-1-1.6l-15.4-2.8c-.4 0-.7.1-.8.5-1.1 2.4-1.6 5-1.3 7.7 0 .3.2.6.5.8.8.5 1.6.5 2.4 0 .7-.4 1.7-.2 2 .6 2.1 4.7 1.7 8.9-1.3 12.6-4 5.2-10.8-.1-12-4.8a22 22 0 0 1 .5-8 497 497 0 0 1 2-10c0-.4-.2-.6-.6-.7l-14-2.5c-.6-.1-1.3.3-1.4 1-.8 3.3-2.5 7.1-1.8 10.6.2 1.2 2 1.1 2-.1.2-1.2 1-1.8 2.3-1.7 1 0 1.7.8 1.7 1.7.3 3.1.2 7.2-2 9.5-3.4 3.4-9.5 1.3-11.5-2.5-2.4-4.6 0-12.9 2-17.5a2 2 0 0 0-1.4-2.7l-7-1a1 1 0 0 0-1.2.7c-2.7 9.7-3.5 19.6-5 29.5 0 .3 0 .6.2 1a52.6 52.6 0 0 1-2.4 46.4c-.8 1.4-1.3 3-1.5 4.5l-.3 4.8-2.9 27c-.3 3.5-.9 6.6 3 7.4 27 5.1 54 9 80.8 13.8 3 .7 12 4 12.4-1.1 1-12.7 2.4-25.4 4-38 0-.7.8-1 1.3-.6l.7.6a870 870 0 0 1-4.5 37.5c-.4 3.3-1.8 5.5-5.4 5.2-3.5-.3-8.6-1-15.2-2.2a7536 7536 0 0 0-65-11 221 221 0 0 1-8.3-1.8c-3-.7-5-2.3-6-4.8l1.7-20.7.3-4.8 1.4-11.3c.1-.6 0-.7-.6-.4-2.4 2-4.4 3.9-7.2 4.7-5.3 1.6-11 1.5-16.2-.2a.7.7 0 0 0-.9.2 13 13 0 0 0-3.2 6.5c-3.7 10.5-6.6 20-8.9 28.3-4 15.2-6.4 30.7-7.4 46.3-.8 13.2 0 26.4 2.5 39.3a77.7 77.7 0 0 0 21 38l.6 1.2c1 2 5.7 2.7 7.8 2.6.3 0 .6 0 1 .2 2 .9 4.4.7 6 1a96.5 96.5 0 0 1 20 6l35.3 15.3c2 .8 4.4 1.3 6.5 2.2a72.8 72.8 0 0 1-18.7-5.2c-19.7-8.9-34.2-15.3-53.2-17a48.7 48.7 0 0 0-40.3 16.3c-8.5 9.8-11.9 28.2 3 34.5 3.8 1.6 8 2.4 12 2.2.3 0 .5-.3.4-.6a24.2 24.2 0 0 1-1.5-14l1.2-5.4c1-4 2.6-7.3 4.6-10.2h1c.2.2.4.2.5 0 .5-1.1 1-1.3 1.4-.6a35.8 35.8 0 0 0-6.7 18.3c-.6 4.3.4 8.3 2.8 11.9.3.6 1 1 1.5 1.1 7 1.8 14 2.8 21.2 2.8 14 0 26.1-1.1 37-3.4l30.6-6.6c7.4-1.6 14.6-4 21.8-6.1 2.2-.7 4.6-1.9 5.8-4 4.8-10.4 13-19 23.2-24a76 76 0 0 1 15.6-5.7c15.3-3.3 31.1-3.3 47.6 0a68.9 68.9 0 0 1 22 8c.4.3.4.4-.2.2l-12.6-4c-29.4-7.8-70.8-7.8-89.8 20a33 33 0 0 0-4.9 12.2c-2.2 11.1 4.7 19.8 15.8 20.9l11.7 1c.4 0 .5-.1.3-.4a21.3 21.3 0 0 1-2.7-10.6c-.2-10.8 4.8-21 13.5-27.4.8-.5 1.7-.8 2.6-.9.2 0 .2 0 0 .1a35 35 0 0 0-13.5 22.6c-1.3 5.4-.7 14.7 5.3 17 5 2 10.6 1.9 16.8 1.7 4-.1 8-.5 12-1.1a234 234 0 0 0 62.8-19.1c11.6-5.4 30.4-14.1 26.2-28 0-.5-.4-.5-.7-.3l-8.9 5.6c-.3.2-.5.1-.3-.3.2-.7.5-1.2 1-1.7a124 124 0 0 0 17.4-16.6c4.3-5 8-10.6 11-16.5 8.7-17.2 11.1-36 10-55.8l-.3-10.6c0-3.4-1.4-7-1.2-10.8v-1c-1-2.1-.6-4.8-1-6.6l-4.5-23.4c-1.2-6-2.7-12-4.5-17.9l-5-17.7c-2.8-9.5-7.5-21.9-14.2-37a995 995 0 0 0-25.7-54c.2-2 1-2.4 2.4-1.4l5.2 11.1c1.3 3.3 3.8 6.5 5.2 9.5l11.8 24.9c3 6.3 5 13.7 8 20.5a328.2 328.2 0 0 1 25 92.5c.1.2.4.3.8.3 14-.6 26.6 11 29.5 24.5 1 4.9.3 10.3-1.6 16.2-.4 3-.2 2.6.3 3.7 14-.5 22.8 17.6 12 33.8-3.1 3.3-6.9 5.8-11 7.3-.4.1-.6.5-.6.8a7.7 7.7 0 0 1-1.2 3.4 29.8 29.8 0 0 1-15.1 17 40.1 40.1 0 0 1-38-2.5c-1-.5-1.6-.8-2-.7-1 0-1.7.6-2 1.6-.2.2-.2.5 0 .7 6.7 13.8-10.9 23.2-20.2 28a220.7 220.7 0 0 1-79.9 24.4c-5.8.6-11.9.3-18.2-1a91 91 0 0 0-8.6-1c-7.4 0-14.6-1.9-21-5.6-6.5-4.9-8.7-12-6.5-21.3 0-.2 0-.3-.2-.2-12.2 5-24 7.5-36.9 10.3a297 297 0 0 1-54.3 8c-8.9.4-17.8-.6-26.4-3-1.7-.5-3.5-.7-5.3-.7-9.6 0-16.6-4.3-21-12.8l-1-4.8v-1c.7-2 0-3.8.2-5.5a40 40 0 0 1 19-25.6c7.4-4.7 16-7.3 24.7-7.8.3 0 .4-.3.2-.4a75 75 0 0 1-17.2-24.4 31 31 0 0 1-3.5-8.1l-1.9-6.2c-.7-2.2-1-4.4-1-6.5l-2-13.2-.5-11c1-19.5 3.5-38.5 7.4-57.9a52 52 0 0 1-38.6-17c-21.9-24.1-25.6-62.3-26.2-77.3 0-2.3-1-4.6-.7-7.3.2-2.3-.3-4.1-.2-6.3 0-15.3.5-30.5 1.2-45.7.5-10.3 2.2-22 3-33L725 302c2.2-13.4 5.5-27.2 8.2-40.8a283 283 0 0 1 4.7-19.5l6.3-22.2 10-28.2c2.7-7.4 6-14.6 10-21.6zm80.1 215.4c-.3 3.8-1.5 7-2 10.7-.2 1.1 1.4 1.7 2 .7 2-3.2 2.4-5.6 3.2-10 .5-2.5 1.4-5 2.7-7.2.6-1 .3-1.8-1-2-.7-.2-1.5.4-2.3 1.7-1.4 2-2.4 3.5-2.6 6.2m10-7.8a1 1 0 0 0-1.6.3l-2 4.7a1 1 0 0 0 .8 1.3l8.2 1.4c1 .2 1.7-1 1-1.7zm22 4.7-2 3.3c-.5 1 0 2.3 1.2 2.5l8 1.4c.6.1 1-.3 1-.8-.9-5-3.3-7.6-7.4-8-2-.3-3.9.3-5.4 1.6a9.1 9.1 0 0 0-3 5.7c0 .3 0 .7-.3 1-2.6 4-.7 8.6-1.9 13.1-1 4 .2 8.5 5 9.4.2 0 .5 0 .7-.2 2.6-2.8 7.3-8.9 1.3-10.2a1 1 0 0 0-1 1.4l.7 2.3c.6 1.6 0 2.3-1.7 2-4-.5-2-5.5-2-7.9 0-6.3 2-12.4 5.7-17.4.5-.8 1.7 0 1.2.8m14.6 22.6c-1.4 3.4-1 6 1.5 8 2.7 2.2 5.2 1.6 6.5-1.7.4-1 0-1.6-1-1.7l-4.5-.4c-.4 0-.7-.2-.7-.7.5-8.2 2.5-16.1 6-23.5.1-.4 0-.6-.4-.6-4.2-.1-6.6 12.1-7.3 15.6a9 9 0 0 0 0 4.1v.9m15.7-12.8c.6-2.8-3.3-7-5.7-8a.5.5 0 0 0-.7.3l-2 7c-.2.3.1.6.4.6 2.1-.3 4.1 0 6 1 .8.4 1.8 0 2-1m16 6.8c-2.4-1-4.8-1.7-7.4-2-.3 0-.5.2-.5.5l-1.9 26.9c0 .6.7.8 1 .4a48 48 0 0 1 9.1-9.4c.3-.2.5-.5.6-.9a47 47 0 0 0 1.4-7.8c.3-3.7 1-6.2-2.4-7.7m-79-.3c-.6-.4-1-.2-1.2.7-1.6 8 10 9.3 8.6 1.9a1.2 1.2 0 0 0-1.9-.8c-1.7 1.3-4.5 2.9-4.9-1 0-.3-.2-.7-.6-.8m-59 40.5a39 39 0 0 0 1.3 12.4c3.6 9 10.2 17 20.7 16.8 17.5-.2 24.2-19.1 23.7-33.9-.2-10.5-2.3-21-11.8-27-1.9-1.3-4.1-2-6.4-2-14-.4-22 10.5-25.8 22.6a34.6 34.6 0 0 0-1.6 11m294.8 179.4a77.2 77.2 0 0 1-18.7 28.2c-.3.3-.3.6 0 .8 6 4.2 13.2 6.3 21.3 6.2a30 30 0 0 0 28.6-16.6c.6-1.1.5-2.9-.2-5.3 0-.3.2-.6.4-.7a41 41 0 0 0 14-9.9c2.4-5.1 3.6-8.8 3.8-11 .6-9.7-3.5-15.7-12.5-17.7-3.3-.7-6.2 1.4-9 3.2-.3.3-.7-.2-.4-.5a29 29 0 0 0 7-18.9c.1-3-.6-6-2.2-9.2-4-11-13.4-18.7-25.8-18.9a221 221 0 0 1 .6 44.5 97.4 97.4 0 0 1-7 25.8M773.4 206.9c-1.6 15.7-1.8 31.5-3.4 47.2-.9 9.3-3.7 18.6-5.8 28a43 43 0 0 0-1 17.4c2 12.7 7.4 24 15.8 34.1a112 112 0 0 0 54.5 31l32 8.3c.3 0 .2.5 0 .5-12.4-.5-24.4-4.4-36.9-6.8l-1 2.2c-.7 1.1-3-2.8-3.2-2.6-1.2-1.7-2.6-2.7-4-3a88.6 88.6 0 0 1-30.9-15.5 77.4 77.4 0 0 1-25.3-33.8c-1.2-3.4-1.7-7-2.4-10.5-.1-1-.2-1-.4 0l-2.7 20.2-6 60-1 10.1c0 .3 0 .3-.3.2l-.2-.4a162 162 0 0 1-.4-6.6c.8-10.3 1.4-20.6 2.5-30.7a4887 4887 0 0 0 6.6-62 134 134 0 0 1 2-13.1 177 177 0 0 0 3.7-22c.4-4 1.3-8.3 1.6-12a3209 3209 0 0 1 3.8-39.4l.7-2.3c0-.2.2-.3.4-.4.8-.2 1.3.5 1.3 2m29-80.4c-.7 2.4 0 1.6 1.5 1.6-5 5.8-8 9.9-9.5 12.3a151 151 0 0 0-20.8 66.4h-.2c0-1.5-.5-2.1-1.3-1.9-.2 0-.3.2-.4.4l-.7 2.3 1.6-13.3a160.4 160.4 0 0 1 25-63c1-1.4 2.6-3 4.8-4.8m117.2-51.7c31.6-.3 57 9.3 83.7 22.6 23.6 12.9 44.6 37 56.8 53.2 4.6 5 9.2 11.4 14 18.9a691 691 0 0 1 40.5 71.9c11.8 23 20.5 47.3 29.7 71.4 5.9 20.7 12.9 42.6 16.1 63.5 1.5 22.5 2.2 45-5.8 66.6-3.3 9-16.2 36.8-58.2 22.2-14.5-8.3-32.4-26-39.2-38.7a225 225 0 0 1-13.3-31l-6-18-1.8-5.8-2-11.6-1-2.4-4.2-22.6c0-.3-.5-.5-.7-.2l-13 11c-4.4 1.9-5.8 3.1-4 3.8l20.6 38c-1.4-1-2.2-.6-2.4 1.4-3.7-7-7.6-14-11.6-21l-6-9.9c-1.4-2.1-1.8-4.8-3.4-6.9-.5-.7-1.4-.8-2-.3a65 65 0 0 1-20.5 9.4 149 149 0 0 1-26.3 6 459 459 0 0 0 18.8-6 122.4 122.4 0 0 0 34.1-16.1 91 91 0 0 0 14.6-13.1c.9-1 1.3-2 1.2-2.8l-3.9-27a938 938 0 0 1-5.3-52.6l-4.3-72.5a42.1 42.1 0 0 0 0-8.5h.2c.2.7.4 1 .7 1.1 1.2 10.3 2 19.5 2.4 27.5 1.9 31.8 4.3 62.3 7.1 91.5 1.4 13.8 4 28.1 6 42.2 1 11.4 4 23.6 7.8 41.8.4 2 1 3.7 1.6 5.3l3 10.2a165 165 0 0 0 19.4 44c38.6 53.8 86 42.3 94-1.9 4.8-25.6 2.4-54-6.4-87-1.3-5.5-2.7-10.5-4.3-15-8.2-24.9-15.6-45-22.2-60.2a702 702 0 0 0-54.6-100.1c-5.3-8-12.6-17.5-22-28.6-42.5-53.4-102.9-60.8-127-61.5a137 137 0 0 0-61 11 143.7 143.7 0 0 0-55.5 40.1c-1.6.4-2.1.6-1.6-1.6l6.2-7.6c.4-.4.3-.6-.3-.5-.4 0-1 .2-1.4.7-5 5-11.2 9.7-15.9 15.1a531 531 0 0 0-15.3 18.8c-4 5.4-7 11.6-10.3 17.6l-1.3-1 4.2-7.3.6-1c1.4-1.8 1.8-2.8 4.2-6.7 8.7-12.8 18.6-24 30.1-34.2 4.8-4.3 10.3-7.4 15.5-11.6l9.5-6.7 2.8-2.1 15.6-9.1 14.8-6c7.6-3.2 15-5.5 22.3-7 12-2.4 24-3.4 36-3.1" style="fill:#63292b;fill-opacity:1"/><path fill="#888599" d="M445.3 651.1c.2-1 .3-2.7.7-3.9q.4-1 .5 0c.6 3.8-.3 7.3-.9 11.3q-.3 2.6-1.7 4.9-.3.4-.8.4l-29-.2q-.4 0-.4-.4t.5-.4l27.2-.2a2.1 2.1 0 0 0 2-1.4q1-2.4 1-5.2c0-2 .4-3.2 1-5"/><path fill="#ffcecd" d="M1108.3 647.1c-.6 5.4 13.4 6 7.1 17.2-20.6 33.3-90.8 33.5-98.9 36.7-.6.2-26.8 7.4-58.8 8.9-9.1.5-15.4-1.2-26-1.8-27.7-3-55.6-2.9-83.2-6.7-7.6-1-14.1-1.7-19.5-1.8l-9.6-.3c-13.2 2-22-3-33.3-5.1-17.3-2.8-26.3-4.4-26.6-16.8a22 22 0 0 0 21 12.8c2 0 3.8.2 5.3.7a85.5 85.5 0 0 0 26.4 3 297 297 0 0 0 54.4-8c12.7-2.8 24.6-5.3 36.8-10.3.2 0 .3 0 .2.2-2.2 9.3 0 16.4 6.5 21.3a40.5 40.5 0 0 0 21 5.6c2.8.1 5.7.5 8.6 1a61.2 61.2 0 0 0 18.3 1l17.5-2.6 15.2-3.5 16.3-5 12.7-4.7c16.3-6.2 61-19.5 80.3-35.7 3.3-1.7 6-3.7 8.3-6" style="fill:#ffbab8;fill-opacity:1"/><path fill="#888599" d="m475.8 661.6.5-1.5a.5.5 0 0 0 0-.3q-.3-5.6 1.3-11a.4.4 0 0 1 .8 0l-.8 12.4q-.2 2.8-3 2.7l-27.3-.2q-.5 0-.7-.4v-.4q0-.6.6-.6l27.1.3a1.6 1.6 0 0 0 1.5-1m34.3 1.1h27.4a1.4 1.4 0 0 0 1.3-1.4l-.3-12.2q0-.5.5-.5.3 0 .3.2.8 6.8.5 12.8a2.4 2.4 0 0 1-2.4 2.3q-13.5 0-26.5-.3-1 0-1-.4-.2-.5.2-.5m-1.5-1.9c-.2 2.2-2.8 3.1-5 3l-23.5-.3h-1a.5.5 0 0 1 0-1l26 .2a2.3 2.3 0 0 0 2.4-2.3q.1-4.5 0-9.3 0-1.1.5-1.8a.5.5 0 0 1 .8.2q.5 5.8-.2 11.3"/><path fill="#edb6c3" d="m1100 653.1 3.3 5.5c1.4 2.1 1 4.1-1 6-17.8 12.4-40.6 16.9-60.8 23.8a61 61 0 0 1-18 3.2c-3.5 0-5.7-.3-8-1.1a211 211 0 0 0 22.3-10.1c9.3-5 27-14.4 20-28v-.8c.6-1 1.2-1.5 2-1.6.6 0 1.3.2 2.1.7 12 7.2 24.7 8 38.1 2.4"/><path fill="#ffd9d3" d="m768 651.3-1.5 3c-1.9 3.2-1.3 5 .1 8.2 2 4.3 5.5 7 10.3 5.9h.8q.4.1 1-.1 1.4-.8 4.3-.3l-1.2 5.4q-1.4 7 1.5 14a.5.5 0 0 1-.4.6q-6.2.2-12-2.2c-14.9-6.3-11.5-24.7-3-34.5"/><path fill="#f3ceda" d="M861.4 652.1q9.3 3.9 18.7 5.1 15.3 2.5 31.7 2.7-4.3 6-7.3 11.4c-1.2 2-3.6 3.2-5.8 3.9-7.2 2.2-14.3 4.4-21.8 6l-30.7 6.7q-16 3.4-36.9 3.4a84.5 84.5 0 0 1-21.2-2.8 2.7 2.6 80.1 0 1-1.5-1.1q-3.6-5.5-2.8-11.9 1 3 6.2 3.5 15.6 1.8 31.4 1.2 1.8 0 5-1 2.6-.7 5.3-.7 3 0 5-.4l10.3-2.7q2.8-.6 5.6-2.2c5.8-3 10.5-3.7 11-11.7q0-1.7-1-4.7-.7-2.3-1.2-4.8"/><path fill="#fdffff" d="M702 666.3q-.8-1.4-.5-2.1.4-1 1.3-.9 12.7.7 25.4-.4.5 0 .7.4l6 12.5c1.3 2.6.8 5.2-2.5 5.4q-13.7.6-22-.4c-1.2-.2-2.6-1.8-3-3l-5.5-11.5"/><path fill="#755f65" d="M372.5 677.7a.6.6 0 0 0-1-.3l-3 4.3a.7.7 0 0 1-.6.4h-28.2q-1-.1-1.3-1 0-.7.5-.6l2.1.6h26a2.4 2.4 0 0 0 2.2-1.4l7-14.8a.3.3 0 0 1 .4 0q.3.4 0 1-1.7 5.2-3.6 11.8a2.6 2.6 0 0 0 2.5 3.4h28c1.5 0 3-1 3.3-2.5q.8-5.9 3-11.4a.8.8 0 0 1 1-.3q.7.4.4 1.3c-1.2 3.5-2 13.9-7.2 13.9h-30a1.3 1.3 0 0 1-1.4-1.3zM636.2 673.1q.7-.4 1 2.1l.3 4.7a2.1 2.1 0 0 1-2 2.3h-26.6q-4.3 0-5-4.1c-.6-3.7-2.9-7.3-3-11a1 1 0 0 1 1.8-.3l3 12.5a2.5 2.5 0 0 0 2.4 2l27.1-.2a1.6 1.6 0 0 0 1.6-1.7zm.7-7.4q3 6.5 4.5 12.2c.6 2 1.7 3.2 3.8 3.2h24.5q.8 0 2.2-.6 1-.4.4.5l-.4.9a.7.7 0 0 1-.6.3l-26 .2c-4.2 0-5.9-5-7-8.8z"/><path fill="#533258" d="m553.2 682.3-5.8-.1-.3-.1q-.2 0-.2-.2-.3-.4.2-.4h51.1a1.9 1.9 0 0 0 2-2v-6.6q0-.2.1-.1.2 0 .3.4c.2 2.6 1.6 9-3 9q-22.3.2-44.4.1"/><path fill="#edb6c3" d="M905.4 677.9c.2 1.8 0 3.1 1.1 4.7l2.7 4.1q.3.4.7.6 9.1 3.4 18.8 3.8 1.4 0 1.8-2.3 0 5.7 2.7 10.6.3.4-.3.4-5.9-.4-11.7-1c-11-1.1-18-9.8-15.8-21"/><path fill="#755f65" d="M564 681.4H547q-.5.1-.2.5l.2.2h.3l5.8.2q-60.3.3-140.8 0-2.2-.1-2.6-1.7a.4.4 0 0 1 .6-.4c2.8 1.8 7.8 1 11 1q71.3-.3 142.5.2"/><path fill="#bbb9d6" d="M744.8 684.1q1.4 5.7.1 9.5c-1.9 5.6-19.5 4-27 4l-262.5-.1q-47.7 0-149.6-.5c-4.4 0-13.4 2-16-3q-2-3.8-.4-8.3.5 0 1-.3t1-.1q3 1.7 8.6 1.8l64 .2q98.7-.3 197.4-.3l118.3.1c19.2 0 42.5.5 58.1-.1q3.3-.1 7-2.9"/><path fill="#b5cce7" d="m279.6 553.8-.4 48.3c-1.8 9.3-74.5 72.3-119.5 19a102 102 0 0 1-2.4-17c-.5-12.3-.8-26-.9-40.8.6 1.9 2.2 3.8 2.2 5.8.3 2.5 11.4 11.3 13.7 12.8 23.9 16 38 22.6 65.1 10.6 15-6.8 29-23.5 39.1-36.1 2-2.6 2.3-3.2 3-2.6"/></svg>