<svg viewBox="0 0 1792 1024" xmlns="http://www.w3.org/2000/svg"><path fill="#e7f6f4" d="M292 942.9c-16-16-31-46-72-95a439 439 0 0 1-34-481 570 570 0 0 1 342-277c203-66 425-74 632-23 133 29 263 85 358 186a460 460 0 0 1 40 626z"/><path fill="#bae3e6" d="m905 441-3-7c-2-6-6-10-10-14l-1-67-1-1h-51l-6-4-1-2-2-19 77-261V50c0-2 1-3 4-4l16 1h1v64l1 261c0 2 0 4-2 6a513 513 0 0 1-20 19v42l-1 1-1 1zm49-389h1v47s0 1 0 0l-9-2V60l-1-5 1-5h2c2 1 4 0 6 2z"/><path fill="#cae7eb" d="M1561 872c-2 5-7 4-12-1 0-6 11 5 13-10 21-122 1-530 8-515a364 364 0 0 1 66 138c44 115-10 271-58 361-5 9-8 24-18 27zM484 120c0 27 2 57 1 84l-39 48-1-114c0-7 10-9 16-11 7-2 12-7 19-8 2-1 4-1 4 1z"/><path fill="#bae3e6" d="M982 58v100c-8 0-17-1-17 10v106c0 9 13 7 19 7a1 1 0 0 1 1 1v4l-1 1q-12 1-14 12a15 15 0 0 0 22 17c11 6-5 16-5 5l-1-1c-2 3-1 6 1 8a1 1 25 0 1 1 1v14l1 3a1 1 0 0 0 1 0v-18h1q6 0 7-7c1-4-2-4-4-6 6-5 9-11 6-19q-3-7-12-9l-1-1 1-4v-1l44 1 1 1 1 63-50 1h-4q-13 2-18 15l-1 13-4 1h-25a1 1 0 0 1-1-1V67a2 2 0 0 1 3-3l7 1a2 2 0 0 1 2 3v28a2 2-10 0 1-1 2c-6 2-9 7-9 13 1 11 14 18 22 9q7-7 4-16l-1-5V50l6 1 17 1h1v6Z"/><path fill="#fff" d="M907 50v232l1 55-1 1h-60l-2-1-4-8c-1-3-8-2-11-2L688 187l-16-2c-5-96 76-102 153-127l1-1h1v11l77 5 1-18c0-2 0-4 2-5z"/><path fill="#bae3e6" d="M825 58v48l-1 1H724a9 9 0 0 0-7 3l-34 33c-2 2-2 4-2 6v34h-11c-1-8-9-10-15-10l2-1-1-2V90l-1-16 1-1 1-2a1 1 0 0 1 1-1l4-1 25-5 5-1 37-6 45-3 9-1h13l10-1 18-1v1l1 6Z"/><path fill="#fff" d="M985 64c5 11 22 10 24 3l1-12 1 1 1 9 27 1 1-1 1 1 1 5h15l1-8h1v1l1 3v91h1c5 1 7 5 7 10v105c0 9-7 9-14 8a1 1 0 0 0-1 1l1 64h-3l-1-64-1-1-12 1h-1v64l-2 1-1-64-1-1-44-1v1a8 8 0 0 1-1 4l1 1c6 1 9 5 12 10 3 7 0 14-6 18v1c2 1 5 1 4 5-1 5-3 7-7 7h-1v18h-1l-1-3v-14a1 1 0 0 0-1-1c-2-2-3-5-1-8l1 1c0 11 16 1 5-5-12 6-24-4-22-17 2-7 6-11 14-12l1-1v-4a1 1 0 0 0-1-1c-6 0-19 2-19-7V168c0-11 9-10 17-10V53a1 1 0 0 1 1-1l1 3 1 9z"/><path fill="#bae3e6" d="m1039 66 1 56a1 1 84 0 1-1 1c-11 2-11 17-2 20q3 1 2 3l-1 11-1 1h-21a1 1 0 0 1 0-1q4-7-4-10V65c0-3 1-4 3-5l8 2 15 1 1 1v2Zm30 280h-15l-1-64a1 1 0 0 1 1-1c7 1 14 1 14-8V168c0-5-2-9-7-10l-1-1V68l1-4 1-1 25 8 1 1v1l6 1a3 3-85 0 1 2 3v195a2 2 67 0 1 0 2l-11 11-1 1c-6-1-11 3-11 9q0 4 4 7l6 1v30a2 2-21 0 1-1 2l-13 11v1ZM904 64v78l1 59v124l1 10a1 1-2 0 1-1 0h-58q-5-7 0-11l31-29 9-8q2-2 2-6V147a2 2 14 0 0-1-2c-4-2-6-6-8-8l-29-29-3-1h-19a1 1 0 0 1-1-1V68l23-3h14l12-1h-1v-1q7-1 13 1l1-1h5l9 1Zm81 0 13 1h11v81l-1 1q-7 3-4 11 1 0 0 0h-18a1 1 0 0 1-1-1V64Z"/><path fill="#bae3e6" d="m1057 71 1 86a1 1-86 0 1-2 2l-14-1a1 1 89 0 1 0-1v-12l1-1c5-3 10-10 7-15-1-3-4-4-7-6a2 2-75 0 1-1-2V71l1-2q8-1 14 2Zm57 7v6l-1 124v20l1 94-2 5-14 17v2h-26l14-11a1 1-21 0 0 0-1v-33a1 1-20 0 1 1-1q7-6 0-13v-1q4-6 10-11l2-4V72l1-1 3 1 10 4h1v2Z"/><path fill="#fff" d="M609 92c2 4 1 7 1 11l1 66a2 2 0 0 0 1 1 44 44 0 0 1 11 9l-1 3a1 1 0 0 1-1 1h-3a5 5 0 0 0-1-4c-5-7-13-9-20-6-4 2-6 5-8 8-2 5-1 10 2 15l-6 2a54 54 0 0 1 0-5c0-10 1-16 9-22l1-1a20 20 0 0 0 1-6v-49a120 120 0 0 0-1-9 1 1 0 0 0 0-1c-4-2-6-5-5-9 1-5 4-8 8-8a1 1 0 0 0 2-2 17 17 0 0 1-1-9l2-1a2 2 0 0 1 1 2v8l1 1c3 1 5 3 6 5zm-10 76a1 1 0 0 0 1 1h7a1 1 0 0 0 1-1 1816 1816 0 0 1-1-70c1-8-11-11-14-3-1 4 1 7 4 8l1 2zm518-87v243l20-1V95l1-3a1 1 0 0 1 1 0l1 14v216a1 1 0 0 0 1 1h39a1 1 0 0 0 1-1l-1-86a1 1 0 0 1 1-1h4c6-1 8 6 8 10a27 27 0 0 0 4 9l4 4a58 58 0 0 0 7 3c1 1 1 3-1 3-1 1-3 0-4-1a1 1 0 0 0-1-1c-8 2-1 15 9 9 5-3 8-12 1-15l-7-7c-4-4-7-10-11-17l-2-5a1 1 0 0 0-1 0h-18l-1 18c0 6-2 11-5 15l-3 6v1c7 7-5 13-8 7-2-2-2-5 0-7l5-3c3-4 6-8 7-12a33 33 0 0 0 2-7 500 500 0 0 0 0-18h-3a82 82 0 0 0-11 20v1c3 1 5 3 5 6s-1 6-4 8a2 2 0 0 1-1 1c-6 0-9-3-9-8 0-3-1-5 2-6 2-1 3-1 4-4l10-18c2-2 3-3 6-3l23-1a1 1 0 0 1 1 1 79 79 0 0 0 8 14c5 6 6 12 13 16a1 1 0 0 0 1-1c2-5 3-13-1-17l-14-14a4 4 0 0 1-1-3V92h2l1 12v107c0 4-2 7 2 11a82 82 0 0 0 5 5l10 9 1 1c-1 6 0 12-2 18v1c2 5 2 10-2 15-6 7-18 6-20-4-1-3 1-5 2-7a1 1 0 0 0 0-1c-4-3-6-7-7-11s-1-12-7-10a1 1 0 0 0-1 1l1 84a2 2 0 0 1-3 3h-41v19h-2v-18a1 1 0 0 0-2-1h-18a4 4 0 0 0-3 1l-12 14-3 5h-2a2 2 0 0 1 0-1v-1l14-17 2-5-1-94v-20a4935 4935 0 0 0 1-130c1-2 2-1 2 3z"/><path fill="#bae3e6" d="M1137 95v228l-20 1V81l2-2 16 4 2 2zm-514 84-11-9-1-1-1-66c0-4 1-7-1-11l6-1 5-2 6-1a442 442 0 0 0 27-4l1 90c-8 2-25 2-31 5zm-24-11-1-63-1-2c-3-1-5-4-4-8 3-8 15-5 15 3a1726 1726 0 0 0-1 71h-7l-1-1zm-46 43-24 15v-2a5246 5246 0 0 1-1-121l7-5 8-4 2-2 5-1 1 2v31l1 83 1 4zm646-112v121l1 3 14 13c4 4 3 12 1 18-8-4-9-10-14-16l-8-14-1-1-23 1c-3 0-4 1-6 3l-10 19-4 3c-2 2-2 3-2 6 1 6 3 8 9 8l1-1c3-2 4-5 4-8s-2-5-5-6v-1c3-7 6-14 11-20h3a736 736 0 0 1-2 25c-1 4-4 8-7 12l-5 3c-2 2-2 5 0 8 3 5 15-1 8-8v-1l3-6c3-4 5-9 5-15a380 380 0 0 0 1-18h19l2 5 10 17 9 7c6 3 3 12-2 15-10 6-17-7-9-9l1 1c1 1 3 2 5 1v-3l-7-3-4-4-3-9c-1-4-2-11-9-10h-4l-1 1 1 86-1 1h-39l-1-1a5538 5538 0 0 0 1-219l1-1 9 3 5 1 5 1 6 1h1l5 2h1l1 1 1 1-1 80c-8 2-12 8-12 16 1 5 3 8 8 10 3 2 8 1 11 1 9 0 13-5 13-13 0-2 0-4-2-6-3-5-8-8-15-8v-1a10355 10355 0 0 0 3-98l6 1 11 2v1z"/><path fill="#bae3e6" d="M590 96q-1 6 5 10a1 1-78 0 1 1 0v58l-1 6-1 1c-8 6-9 12-9 22v5h-3l-1 1-4 1q-2-1-2-3l1-95 2-2a1 1 0 0 1 1 0l5-3 1-1 1-1h3l1 1Zm644 15v156a2 2 82 0 1-1 2c-16 4-21 25-6 34 2 2 5 2 8 3v1l1 36a1 1 1 0 0 1 1h1v-36a1 1 0 0 1 1-1c6-1 9-3 13-6h1v33c0 6 4 6 5 10l-118 1v-19a1 1 0 0 1 1 0h40a2 2 0 0 0 3-3l-1-84a1 1-9 0 1 1-1c6-2 6 6 7 10q1 7 7 12c-1 2-3 5-2 8 2 9 14 10 20 3q5-7 2-15a2 2-48 0 1 0-1c2-6 1-12 2-18a2 2 0 0 0-1-1l-10-9-5-5c-4-4-2-7-2-11V104q0-3 5-1l11 4 7 2h1l8 1Z"/><path fill="#fff" d="m1237 119 1 148 1 1c6 1 10 3 13 8h1V125l1-2h1l1 2v152l1 6c1 4 0 8-1 12v41l1 1 7 7h-6c-1-4-5-4-5-10a896 896 0 0 0 0-33h-1c-4 3-7 5-13 6a1 1 0 0 0-1 1v35l-1 1a1 1 0 0 1-1-1l-1-36v-1l-8-3c-15-9-10-30 6-34a2 2 0 0 0 1-2V105c0-1 0-2 2-2a1 1 0 0 1 1 2z"/><path fill="#bae3e6" d="m572 202-17 8-1-7v-90a1 1-18 0 1 0-1h3v-1l14-5h1v1q-1 1 0 0v-2l1 69-1 28Z"/><ellipse fill="#fff" transform="rotate(-44)" rx="6.3" ry="5.7" cx="603.6" cy="736.3" style="fill:#bae3e6;fill-opacity:1"/><path fill="#bae3e6" d="M505 250c-20 27-35 57-40 92l-2 3h-16l-1-1v-77l2-1h23c5 0 7-2 8-6v-24a553 553 0 0 1 1-27c3-2 7-6 7-9v-84l1-1 11-7h4l1 1v141zm19-20-16 16-1-3V116l1-1a21 21 0 0 1 9-3l8-4 1 115-1 4-1 3z"/><path fill="#afcfec" d="M816 325 688 187c-2 0-2-3-4-3a1372 1372 0 0 1 3-40 682 682 0 0 0 34-34h125l3 1 20 20 16 15 1 1v135l-1 2-42 41h-27z"/><path fill="#bae3e6" d="M1290 123v26c-1 5-2 4-4 6a7 7 0 0 0 3 11l1 1c1 3 2 10-1 13a99 99 0 0 0-11 0c-6 1-7 5-7 11v124c0 7 1 10 7 10l11 1a1 1 0 0 1 1 0v18h-27l-6-7a1 1 0 0 1-1-1v-40l1-13-1-6V116c1-2 2-3 4-2 4 2 9 4 13 4a151 151 0 0 1 16 4z"/><path fill="#fff" d="M487 119v82c0 2-4 6-7 8l-1 1a553 553 0 0 0 0 50c-1 4-3 6-8 6l-25 1v77l1 1h17v2h-19l-1-1-1-80c-15 .1-36.6 4-51.6 3.2-2-2-.7-6.7-.7-9.7 0-29.6 4.7-60.8 5.3-90.5 0-7 6-8 13-8h33l1-27 1-1v1l1 3v23l1 1h26c5 0 7 4 7 9v37c4-3 5-5 5-10v-77l1-3c0-2 2-2 2 0v1zm-11 50c0-3-2-5-4-5l-69 1c-3 0-5 2-5 5v88c0 3 2 5 5 5h68c3 0 5-2 5-5z"/><path fill="#bae3e6" d="M1253 125v151h-1q-5-7-13-8a1 1 3 0 1-1-1l-1-148q1-4 6-2h9v1l1 6Z"/><rect fill="#fff" x="729.4" y="120.2" width="109.8" height="3.1" rx="1.5"/><path fill="#fff" d="M1292 131v22a1 1 0 0 0 0 1c6 3 6 9 0 12a1 1 0 0 0 0 1v12l1 1 71-1c6 0 11 2 11 8a7165 7165 0 0 1 0 133c-2 7-9 5-14 6h-1v15l-1 1a1 1 0 0 1-1 0v-16h-17a1 1 0 0 0-1 1l-1 15-1 1h-1v-16l-1-1h-20l-1 1v17h-3l1-17a1 1 0 0 0-1-1h-19a1 1 0 0 0-1 0v18h-2v-18a1 1 0 0 0-1-1h-11c-6 0-7-3-7-10V191c0-6 1-11 7-11a99 99 0 0 1 11 0l1-13a2 2 0 0 0-1-1 7 7 0 0 1-3-11c2-2 3-1 3-5l1-27v-1l2 1zm80 57a5 5 0 0 0-5-5h-88a5 5 0 0 0-5 5v130a5 5 0 0 0 5 5h88a5 5 0 0 0 5-5z"/><ellipse fill="#bae3e6" transform="rotate(97)" rx="7.3" ry="6.9" cx="5.8" cy="-1048.9"/><rect fill="#fff" x="724.7" y="127.3" width="6.8" height="3.9" rx="1.5"/><path fill="#fff" d="m848 130-3 2h-4v-2l1-2h5l1 1z"/><path fill="#bae3e6" d="m1392 343-77 1v-17a1 1 0 0 1 1-1h20l1 1v16h1l1-1v-15a1 1-89 0 1 2-1h17v15a1 1-85 0 0 1 1q1 1 1-1v-15h1c5-1 12 1 14-6V187c0-6-5-7-11-7h-72a1 1 90 0 1 0-1v-12a1 1 75 0 1 1-1c5-3 5-9-1-12v-23l3-3 8 3 8 3q4 3 9 4l13 3 8 3 24 11 10 5h1l1 1 8 4 6 3v138l1 37Z"/><ellipse fill="#fff" transform="rotate(-23 766 -2062)" rx="2.6" ry="2.1"/><path fill="#fff" d="M868 275V160a1 1 0 0 0-1-1h-9a2 2 0 0 1-2-1v-15a1 1 0 0 1 1-1h12l2 3v145a2 2 0 0 1-3 2h-14v-15q0-2 2-2h12Zm0-129a1 1 0 0 0-1-1h-7a1 1 0 0 0-2 1v9a1 1 0 0 0 2 1h7a1 1 0 0 0 1-1v-9Zm1 132a1 1 0 0 0-1-1h-11a1 1 0 0 0-1 1v11a1 1 0 0 0 1 1h11a1 1 0 0 0 1-1v-11Z"/><path fill="#cae7eb" d="M318 216c-1 9 4 19-2 27-24 42-40 57-63 80a26 26 0 0 1-11 2v-29c3-11 12-18 18-27 9-11 18-23 29-33a96 96 0 0 1 20-17c2-3 9-10 9-3z"/><path fill="#fff" d="M695 196v-50c-1-3 3-4 5-4h16c3 0 1 4-1 4h-6v12c-1 2-2 1-3 1h-8v38l-3-1zm11-49c0-2-2-1-3-1h-4c-2 0-2 2-2 3v7l4 1h4l1-3v-7z"/><ellipse fill="#bae3e6" transform="rotate(93)" rx="4.5" ry="3.6" cx="99.9" cy="-1016.5"/><path fill="#fff" d="M819 291c-9-1-4-3 3-3l21 1-1-26h-20c-10 0-27 2-32-2 2-2 18-1 20-1h33V154c-2-3-6-1-8-2H726l1 50c-3 1-3 3-3-5v-47c1-2 5-1 7-1h114v142l-14 1-13-1z"/><ellipse fill="#bae3e6" transform="rotate(96)" rx="3.5" ry="3.2" cx="24.4" cy="-1300.3"/><path fill="#ffe4c7" d="m968 273 1-107a5 5 0 0 1 4-4l87-1a5 5 0 0 1 5 5v108a5 5 0 0 1-4 4h-89a5 5 0 0 1-4-5z"/><path fill="#d0e8dd" d="M476 169v89a5 5 0 0 1-5 5h-68a5 5 0 0 1-5-5v-89a5 5 0 0 1 5-4l69-1a5 5 0 0 1 4 5z"/><rect fill="#fff" x="406.5" y="178.1" width="58.7" height="2.7" rx="1.1" style="stroke-width:.999999"/><rect fill="#fff" x="406.4" y="195.3" width="58.7" height="2.7" rx="1.1" style="stroke-width:.999999"/><rect fill="#fff" x="407.1" y="212.6" width="58.7" height="2.7" rx="1.1" style="stroke-width:.999999"/><rect fill="#fff" x="407.2" y="229.8" width="58.7" height="2.7" rx="1.1" style="stroke-width:.999999"/><rect fill="#fff" x="408.4" y="247" width="58.7" height="2.7" rx="1.1" style="stroke-width:.999999"/><path fill="#bae3e6" d="M618 183h-1c-12 14-12 17-24 13h-2a17 17 0 0 1-2-14c2-4 4-7 8-9 7-3 15-1 20 6a5 5 0 0 1 1 4z"/><path fill="#fff" d="M370 202v116h9c6 2 5 11 5 16v121c0 7 1 17-9 17a2 2 0 0 0-2 1l1 21-3 4v-25a1 1 0 0 0-1-1h-18a1 1 0 0 0-1 1v49l-1 3-1-1v-8a771 771 0 0 1 0-43 1 1 0 0 0-1-1h-46l-1 1 1 88v17c0 7 0 13 2 17l-4 8-1-37a7073 7073 0 0 0 0-93l-1-1h-15v1a1273 1273 0 0 0-1 31v123l1 20-1 9h-1l-1-10v-93a6220 6220 0 0 1 0-80l-1-3a13 13 0 0 1-2-7V334c0-7-1-11 3-15v-43a187 187 0 0 0 0-17c0-2 0-3 2-4a597 597 0 0 0 32-11c3-1 5-2 5-5l-1-23c2-2 3-2 3-1l1 25c0 4-4 5-8 7l-29 11a3 3 0 0 0-2 2l-1 57 1 1h17a1 1 0 0 0 0-1 738 738 0 0 1 0-36 8 8 0 0 0 0-3c-2-5-2-10 4-12 13-4 14 18 0 14a1 1 0 0 0-1 1v36l1 1h43l1-2v-97l1-23v-3h2v123a1 1 0 0 0 1 2h15a1 1 0 0 0 0-1V177l2-2v1zm-90 172 100 1 1-1a1353 1353 0 0 1 0-48c0-2-1-4-3-4a10 10 0 0 0-4-1h-88c-3 1-6 1-6 5a2092 2092 0 0 0 0 48zm0 4-1 52h102v-52h-1zm100 55h-99a1 1 0 0 0-1 2l-1 30c1 2 3 4 6 4h74a432 432 0 0 1 17 0 4 4 0 0 0 5-4v-31a1 1 0 0 0-1-1z"/><path d="M844 356c28 8 3 34-7 50l-11 11-504 250-6-15c37-80 155-172 125-258-3-9-1-23 6-29 4-7 6-16 15-18v-6c7-47 30-78 46-95 7-7 13-14 21-20s17-12 26-16l16-8 14-4a184 184 0 0 0 11-3c0-3 2-7 5-9 4-3 11-2 14-3h6l1-1 1-3c15-10 25-6 34-6 4 0 12 2 13 10l13 1 11 3 4 7 1 1 23 6c10 3 15 5 19 8a175 175 0 0 1 77 80l9 24 3 13 2 21 1 1 6 3" style="fill:#602120;fill-opacity:1"/><path fill="#ffac8c" d="m655 177 8 2c4 2 4 8 4 13l2 73c2 9 0 20-10 24-8 0-33 8-32-4v-30c-2-23-2-46-2-69-1-3 0-5 3-6 5-2 11-4 15-4l12 1Z"/><path fill="#bae3e6" d="M1451 215c3 1 2 3 2 6v50a2 2 0 0 0 2 2h27l3 1c4 3 8 6 8 11v55q0 2 2 2v-1l1-57-1-4q-4-6-9-9a5 5 60 0 0-3-1h-27l-1-40 1-8q1-1 3 2 7 10 17 20l7 7 3 4 5 3 4 3 4 5 12 12 4 4 7 7 9 12 4 5 2 3 13 14 3 3h1l2 10v55a1 1 81 0 1-1 1l-18 4-1 1v-25q0-7-4-14l-6-7q-8-5-18-7l1-11v-45a6 6 0 0 0-1-5l-19-22a1 1 0 0 0-1 1q6 11 15 20c2 2 4 4 4 7l-1 47-1 7-11-1-100 1V178q0-3 3-1l11 6 14 6 1 1v105c0 5 4 7 7 10s3 4 7 4l23 1a3 3 0 0 1 2 2v26l1 3a1 1 51 0 0 2 0v-29h1c15-4 5-22-6-12h-1l-18-1a3 3 0 0 1-3-2l1-6-1-71c0-4 5-5 8-6l1 1h4Z"/><path fill="#ffe4c7" d="M665 224v25l-1 16a1 1 0 0 1-1 0v-2l-2-54c0-6 0-17-5-21q-4-2-10-2c-10 1-12 8-12 18l1 30 1 38v5a1 1 0 0 1-1 0l-3-35-1-40c0-9-1-15 6-19q3-2 8-2 12 0 17 11l1 9 2 23Z"/><path fill="#d8d3e8" d="M1372 318a5 5 0 0 1-5 5h-88a5 5 0 0 1-5-5V188a5 5 0 0 1 5-5h88a5 5 0 0 1 5 5z"/><path fill="#bae3e6" d="m395 186 .6 76.2 2.6 3.5c12.6.4 32.1.7 44.8.3l1 81h18l-2 15v1l-7 5c-7 6-12 17-9 26 3 8 8 13 16 16 .2.3.2.7 0 1l-3 3c-12 9-20 18-30 27l-1-23V306c0-7 4-12 0-19-3-5-11-8-17-6a18 18 0 0 0-13 12c-2 7 4 14 9 17l1 2 1 148-33 35-1-21c0-1.1.9-2 2-2 10 0 9-10 9-17V334c0-5 0-14-6-16h-8a1 1 0 0 1 0-1V202c0-2 0-3 3-5 1-1 12-8 15-8 6-2 7-6 7-4z"/><path fill="#ffac8c" d="m622 186 2 107c2 24-21 23-30 16l5-110c0-3 0-9 4-10s8-3 11-2h1zm71 8 16 131-1 1a65 65 0 0 0-11-1l-19-1h-1l-2-46-2-22-2-49-1-20c5-1 11-1 16 1 4 1 6 3 7 6z"/><path fill="#bae3e6" d="M367 190v127a1 1 90 0 1 0 1h-15a1 1 0 0 1-1-1V196h1l13-7h1l1 1Z"/><path fill="#fff" d="M1038 205c-.7 3.9-6.6 1.2-9.5 2H984c-1.9 2.8-2.3 9.5 2.6 9h50.4c3.1 2.8-2.5 3.6-4.5 3H984c-1.7 3.7-1.1 8.4-.5 12.2 3.7 2 8.4 0 12.5.8h42.5c0 3.8-5.4 1.4-7.8 2.1l-46.7.9c-2.2 2.5-.4 6-1 9 .8 2.7-2 8.2 2.3 8.1 9-.2 18.1 0 27.1-.1h40.6c.1 4.1-6 1.1-8.6 2-21.1-.2-42.3.5-63.4 1-2.1-2.2-.5-5.4-1-8.1V190c4.5-2.2 9.5-.2 14.2-.8l41.8.8c4-.4 3.5 4.1-.8 3H983c.8 3.4-1.5 7.4 1 10.3 4.2 1.6 9.3 0 13.8.4l37.2-.7c1 .7 3.2.2 3 2z"/><path fill="#f48570" d="m667 192 2 45 1 10v5l4 55v3c0 10-46 17-47-8v-47l1 5v25l2 2 10 2 20-3 4-2 2-3 1-11v-5c1-6 0-11-2-16v-25l1-6a167 167 0 0 1 0-20l1-6z"/><path fill="#bae3e6" d="M1185 196c5 2 8 7 7 13-1 7-10 8-16 7-17-1-10-28 9-20Zm-836 1-1 22v97q0 2-2 2h-43v-37a1 1 0 0 1 1 0c13 3 13-19-1-14-5 2-5 6-3 11v39a1 1 89 0 1 0 1h-17a1 1 0 0 1-1 0l1-57a3 3 81 0 1 2-3l29-11c4-1 8-3 8-7l-1-25 3-5q10-8 23-15l1 1 1 1Z"/><path fill="#fff" d="m1289 202.1 66 .9c3 2 0 9 1 13v88c-1 2-3 1-5 1h-64c-4-3 4-3 6-3h60v-96c-2-2-7 0-11 0l-53-1c-5-.1-4.9-3 0-2.9z"/><path fill="#ffac8c" d="M698 198a232 232 0 0 1 32 11l14 7 17 10c11 8 20 17 28 25 8 9 16 20 22 33 0 53-93 47-101 20l-7-59-6-46v-1a1 1 0 0 1 1 0zm-102 1a183 183 0 0 1-1 13l-1 13-1 36-1 4a817 817 0 0 1-1 45c-43 30-100 21-111-15a174 174 0 0 1 59-70c4-4 9-7 15-10a153 153 0 0 1 42-16z"/><path fill="#fff" d="m1456 222-1 8 1 40a1 1 90 0 0 1 0h26a5 5 60 0 1 3 1q5 3 9 9l1 4-1 58-2-1v-56c0-5-4-8-8-11a5 5 0 0 0-3-1h-27a2 2 0 0 1-2-2v-50c0-3 1-5-2-6-7-4-5-12 2-14q3-1 5 1t5 5c2 5-4 7-6 10h-1v5Zm3-13a5 5 0 0 0-4-4 5 5 0 0 0-5 4 5 5 0 0 0 5 5 5 5 0 0 0 4-5Z"/><path fill="#bae3e6" d="M1441 213c-4 2-5 4-5 8v76q0 3 2 5l4 1 15-1a1 1 84 0 1 1 1v3q0 1 0 0h-22c-3 0-7-5-8-7q-2-2-2-5v-90l1-1 14 9a1 1 0 0 1 0 1Z"/><path fill="#fff" d="M721 222c-3-1-18-7-15-12 2-5 14 3 17 5s4 3 2 6q-2 2-4 1Zm-158-6c6-4 10-6 17-7a3 3 55 0 1 1 0c5 3-5 12-7 14q-13 13-25 20-2 2-6 1a1 1 88 0 1 0-1q-2-5 1-9 8-10 19-18Z"/><rect fill="#fff" x="1286.6" y="216.1" width="46.4" height="2.8" rx="1.4"/><path fill="#fff" d="M755 241c-10-3-19-10-26-17v-1c3-12 26 10 29 14a3 3 36 0 1 0 2q0 3-3 2ZM1287 230h24a22 1 0 0 1 22 0v2a22 1 0 0 1-22 1h-24a1 1 0 0 1 0-1v-2ZM1333 244a3 2 0 0 1-3 3h-41a3 2 0 0 1-3-3h47Zm-558 12c-3 1-8-2-6-5a2 2-52 0 1 3-1q3 2 3 5v1Z"/><ellipse fill="#bae3e6" transform="rotate(128)" rx="5.1" ry="4.8" cx="-509.8" cy="-1065.6"/><ellipse fill="#fff" transform="rotate(125 195 268)" rx="5.4" ry="3.2"/><path fill="#fff" d="m1509 344-4-1 1-7 1-47c0-3-2-5-4-7q-9-9-15-20a1 1 0 0 1 2-1l18 22a6 6 0 0 1 2 5l-1 45-1 11Z"/><ellipse fill="#b4dfe6" transform="rotate(-40)" rx="3.3" ry="2.8" cx="714.4" cy="953.5"/><ellipse fill="#bae3e6" transform="rotate(-22 857 -651)" rx="4.7" ry="4.5"/><path fill="#bae3e6" d="M1251 297a16 16 0 0 1-22 4 16 16 0 0 1-4-23 16 16 0 0 1 22-3 16 16 0 0 1 4 22z"/><path fill="#b4dfe6" d="M280 276v43c-4 4-4 8-4 15v82l1 47c0 3 0 5 2 7l1 3v126c-8-3-31-2-37-3l-1-16V326l1-4 3-2 1-1c1-4 4-7 6-11l2-3c1-1 3-2 3-4v-1l16-21 3-2 2-3h1v2z"/><path fill="#fff" d="M1249 288a11 11 0 1 1-23 0 11 11 0 0 1 23 0z"/><ellipse fill="#bae3e6" transform="rotate(59)" rx="8.6" ry="8.4" cx="884.7" cy="-912.1"/><path fill="#fff" d="m427 441-2 1h-1l-1-135a1 1 0 0 0-1 0 18 18 0 0 1-12 4l-1 1v140l1 5-3 3-1-148-1-2c-5-3-11-10-9-17 1-6 7-11 13-12 6-2 14 1 17 6 4 7 0 13 0 19v112l1 23z"/><path fill="#bae3e6" d="M1051 346h-15v-64l1-1h13v1l1 64Z"/><path fill="#f48570" d="M811 284q11 22 15 46l2 15q0 2-2 1l-14-5-11-3-5-1-14-3-7-1q-25-5-55-7h-7a1 1 0 0 1-1-1l-2-21 1 2h1c4 2 5 4 9 3h1l5 1 8 2h1v1l12 1q6 1 15-1h2q12-2 22-8l11-7 3-3 4-5 4-3h1l1-3Z"/><ellipse fill="#bae3e6" transform="rotate(88 55 359)" rx="7.7" ry="6.7"/><path fill="#bae3e6" d="M399 299q-2-7 4-12a1 1 0 0 1 1 0q-5 7 2 13c5 5 11 4 14-2q3-6 0-12v-1c6 3 6 13 3 17a13 13 0 0 1-24-3Z"/><ellipse fill="#bae3e6" transform="rotate(-13 1849 -4674)" rx="5.8" ry="5.1"/><circle fill="#bae3e6" cx="985.2" cy="302.1" r="12.6"/><path fill="#e66c5b" d="M624 293v32a1 1 88 0 1-1 1l-29 2-1-1 1-18q9 0 17-3l6-2 6-3a1 1-15 0 0 0-1l1-7Z"/><path fill="#f48570" d="M480 295c1 3 3 6 6 8a79 79 0 0 1 6 4 66 66 0 0 0 24 13 65 65 0 0 0 31 3 114 114 0 0 0 29-5v-1l15-7-1 18a1 1 0 0 1-1 1 785 785 0 0 0-89 18 204 204 0 0 0-17 5 162 162 0 0 0-18 8l-1 1s-1 0 0 0l1-10c1-8 2-16 5-26a137 137 0 0 1 10-30z"/><path fill="#e7f6f4" d="m849 298 3-1a1 1 0 0 1 1 1l1 2a1 1 0 0 1-1 1h-4a1 1 0 0 1-1-1v-1a1 1 0 0 1 1-1Z" style="fill:#fff;fill-opacity:1"/><ellipse fill="#bae3e6" transform="rotate(-12)" rx="4.7" ry="4" cx="1369.9" cy="602.6"/><path fill="#e66c5b" d="M627 302c1 3 0 4 2 4l3 1 8 2h32l1 1h1v-3l1 16-2 2a353 353 0 0 0-46 0v-23z"/><rect fill="#fff" x="-3.3" y="-1.7" transform="rotate(2 -7907 23143)" width="6.6" height="3.4" rx="1.5"/><path fill="#bae3e6" d="m425 442-15 15-1-5V312l1-1q7 1 12-4a1 1 0 0 1 1 0l1 135h1Z"/><path fill="#fff" d="m827 313-1-3 8-1q3 0 3 2a2 2 0 0 1-1 2h-9Z"/><path fill="#ffccce" d="m380 375-100-1v-48c0-4 3-4 6-5h88l4 1c2 0 3 2 3 4v48a1 1 0 0 1-1 1z"/><path fill="#bae3e6" d="m1138 345-37 1 2-5 12-14a4 4 21 0 1 3-1h18a1 1 0 0 1 1 1v18Zm175-1h-21v-18a1 1-90 0 1 1 0h19a1 1-87 0 1 1 1v17Z"/><path fill="#b4dfe6" d="M241 688q-11-5-22-3v-2h-1l1-80V352l1-1 4-5 3-5 3-4c3-4 4-8 8-11h2v296c-8 1-15 9-16 16-2 11 5 20 16 22v25l1 3Z"/><path fill="#ffbe95" d="m844 362 1 3q-6-1-11-4-2-2-5-2l-18-5-25-5q-68-10-137-9-37 1-66 5l-31 4-20 4q-27 5-46 11l-23 10-15 11q1-7 4-12c9-9 22-14 33-18l24-8 18-4 19-4 40-6 32-3q37-2 73-1 28 0 50 3l5 1c13 2 27 3 38 6q23 4 40 10l12 6c4 2 5 4 8 7Z"/><path fill="#e66c5b" d="M845 365q6 8 2 18l-9 9c-3 1-6 4-9 1v-1l11-11q2-1 2-5l-1-1a30 30 0 0 0-14-8q-16-5-33-7l-42-5-9-1-3-1-68-2-47 1-20 1-59 7c-24 4-48 10-71 18-7 2-22 9-21 16 0 4 5 7 8 9l4 4q-1 2-3 1c-5-2-12-7-14-12l-1-3-1-4 1-5 15-10 23-10q19-6 46-11l20-4 31-4q29-4 66-5 69-1 137 9l25 5 18 5 5 2q5 3 11 4Z"/><path fill="#3d1f1f" d="m1505 343 4 1c6 1 12 4 17 7l6 7c3 4 4 9 4 14v26c15 52 5 102 3 153l-16 161c-8 44-103 21-136 19l-361-13-54-185-4-7-2-3a282 282 0 0 1-4-4v-3l-1-36V375l1-13c3-9 9-14 18-15h4l50-1h67l37-1h2l118-1h57l77-1a39475 39475 0 0 1 113 0z"/><path fill="#786a71" d="M1516 448c-1 7 2 16-3 6l-528 97c-17-15-23-17-21-66V365c7-21 22-14 57-15l318-3c54 0 108-2 161-1 25 3 13 34 16 51v51z"/><path fill="#bc969c" d="M1534 557v208q-1 8-6 13c-3 3-7 4-11 6h-2v-1l2-8v-36l1-22-1-1-1 2h-1l4-10V536l-1-15 1-6-1-153q0-7-4-13 0-1 0 0 9 2 15 7c4 4 5 15 5 22v179Z"/><path fill="#fff" d="m892 420-3-3v-62h-44l-1 1-3-2-2-2h51a1 1 0 0 1 1 1l1 66Z"/><path fill="#cae7eb" d="M216 424a592 592 0 0 0-15 331c5 27 8 51 14 78-4 10-14-22-21-27-11-13-13-30-21-44a465 465 0 0 1-25-79c-11-47-16-96-6-143 5-48 24-92 40-137a292 292 0 0 1 32-51c5 7 1 18 2 26z"/><path fill="#b4dfe6" d="m889 417-6-4-9-4a2 1 8 0 1-1-1l-2-4q-5-3-14-5c-7-2-12-2-17 3h-1l-4-3v-2c8-4 16-12 17-22l-2-10-6-9 1-1a1 1-60 0 1 1 0h43v62Z"/><path fill="#e2bdc4" d="M812 380c0 1 5 5 7 17l-1-1c-99-35-235 32-331 1l5-11 2-5c1-3 4-6 8-7l35-8a747 747 0 0 1 196-9 1519 1519 0 0 1 69 10l6 7z"/><path fill="#b4dfe6" d="M1561 843c55-109 29-240-24-348l-1-8v-89 1h1c7.6-1 15-3 22-6v-31l3 3 2 2 1 1 2 2v1l3 2 2 6 9 14 4 7 7 11 8 18 2 8 4 10 1 1v1l7 20 3 6 5 16 6 21a172 172 0 0 1 5 23l5 25 2 5 1 3 1 9 3 32v5l1 6v6l-1 6a1024 1024 0 0 1-4 38l-1 6a170 170 0 0 1-7 28v1l-3 10-5 17-2 7-5 11-2 7-6 17-8 14-2 6a438 438 0 0 1-14 25l-3 4a81 81 0 0 0-7 14l-5 8-5.4 12.2c-2.5 2.5-3.7 4-3.7 6l-1.9-3.2Z"/><path fill="#311f24" d="M1496 435c0 83 5 167 5 250 0 13-1 17-22 17l-164-3-337-5 6-152v-64l-1-60 1-35c0-5 1-9 5-11 4-3 11-3 15-3l122-1c58-2 116-2 175-2h5l175-1c8 0 15 4 15 14z"/><path fill="#f5d9da" d="M818 396c-111 12-231 22-341 39l-1 1 7-24 2-7 2-8 13-5c4-3 10-4 31-8 21-5 30-7 41-8l35-5 15-2 34-2c17-1 34 1 51 2l19 2a364 364 0 0 1 88 19c2 1 3 3 4 6z"/><path fill="#850e07" d="M829 392v1q-6-3-9-9l-4-6-2-3-4-7a1 1 75 0 1 0-1l13 3c5 1 10 2 15 6l1 1-2 3-9 10a1 1 0 0 0 0 1l1 1Z"/><path fill="#5196cc" d="M1493 380v101c-29 39-82 50-122 77-30-9-100 18-115-22 9-11-4-33-8-46 50-64 84-82 150-116 5-7 27-5 55-5h30c8 1 10 3 10 11z"/><path fill="#67aad6" d="M1440 369c-9 10-27 17-39 27-27 18-52 38-78 58-180 66-253 44-314 19-13-11 11-51 15-64 6-12 26-25 31-37 12-2 25 0 36-1l283-2h66z"/><path fill="#5196cc" d="m1067 371-11 2-13 21a329 329 0 0 0-24 51c-2 5-5 10-6 16 4 2 13-1 27 3 95-17 162-2 148 24-11 19-4 45 14 57 6 3 40 10 38 14-16 5-93 37-110 35-180-18 137-22-144-55V393c1-21 1-20 17-21a1318 1318 0 0 1 63-1z"/><path fill="#67aad6" d="M1020 376c3 1 5-3 9-3 3 0 5 4 2 6-10 12-19 25-31 37l-6 6c-3 2-4-2-3-5s5-6 7-9l20-29 2-3z"/><path fill="#850e07" d="m466 407-4-4 2 1 1-1q0-3-2-4c-3-1-9-6-5-9 5-4 11-6 17-9l18-6a1 1 0 0 1 1 1l-3 2a2 2-13 0 0-1 1q-1 5-4 8a2 2-16 0 0-1 1q-1 7-8 11l-11 8Z"/><path fill="#fff" d="m818 396 1 1c0 1 2 2 3 7l3 10 1 3c7.5 29.4 18.7 63.7 15.7 84.8-3 21-16.7 24.2-21.7 31.2l-4 3c-7 4-12 12-14 20-8 15-66 31-85 47-92 25-161 16-235-50l-7-15-5-17-2-9c1-19 2-38 5-56l4-21 3-12c1-2 2-8 4-10 2-3 5-5 8-6l5-2c5-3 9-5 15-6l37-11 20-4 7-1 9-1 10-2 40-3 20-1 58 2a592 592 0 0 1 105 18z"/><path fill="#afcfec" d="M280 378h101v52H279l1-52z"/><path fill="#b4dfe6" d="M961 378v76h-48a2 2 0 0 1-3-2v-54a3 3-22 0 1 1-2l17-16a4 4 23 0 1 3-1h30v-1Z"/><path fill="#5ea2d2" d="M1493 380v53c-1 2-1 7-2 5l-12 4c-3 4-6 7-11 8l-16 6c-8 2-15 6-23 7a84 84 0 0 1-25 2h-52c-8-2 4-8 8-11 16-10 32-21 49-30 18-10 36-22 55-31 6-4 13-7 21-10 2-1 5-3 8-3z"/><path fill="#f5d9da" d="m834 401 2 2v1l-6 8-4-11v-1l-1-4 1-1 8 6Zm-364 41c0-4-10 0-13-5s-1-12 2-18c2-5 14-13 21-18h1s1 0 0 0c-5 14-8 28-11 41z"/><path fill="#b4dfe6" d="M216 424v136c-30 70-20 163-2 237 2 5 2 24 1 30-1 11-2-17-7-20-6-12-13-24-17-37a368 368 0 0 1-35-160c-2-22 5-44 7-65 0-8 2-13 1-15 8-33 26-63 32-97 1-11 10-19 15-29 5-8 5 4 4 8l1 12z"/><ellipse fill="#461407" transform="rotate(32 -344 1534)" rx="8" ry="5.1"/><ellipse fill="#461407" transform="rotate(-38 863 -589)" rx="8.3" ry="4.9"/><path fill="#e2bdc4" d="m866 410-10 17c-9 13 13 60-40 48-10-24 18-71 32-75 11-1 23 7 18 10z"/><path fill="#715e64" d="m866 410-9 12-19-8h-1q5-6 11-10l5 1 13 5Z"/><path fill="#bc969c" d="M888.7 425.4c-3.5-1-17.4-7.1-23.4-9.1 2-3 4.6-8.2 7.7-5.3z"/><path fill="#715e64" d="M874 415c4 0 8 0 12 2 9 7 14 13 14 19 6 37-12 84-34 112l-6 1c-11-9-23-8-20-11 16-31 10-47 3-79 2-9 11-35 24-43 2-1 29 13 7-1z"/><path fill="#fff" d="M462 416h1v1c-1 4 0 7 3 12s4 9 4 13l-1 9v-2h-1l-1 3-9 20c-23 39-41 78-72 112a909 909 0 0 0-64 81c-5 7-9 16-10 25a90 90 0 0 1-11-1l-1 1-15-6c0 1 0 1 0 0h-1a232 232 0 0 1 23-83l6-12a439 439 0 0 1 73-100c18-20 36-39 56-57l18-15z"/><path fill="#715e64" d="M855 426c-5.3 9.3-8 20.6-11.4 30L822 444c3-9 6-17 11-25-.7-1.3 1.3-2.3 2-1z"/><path fill="#5ea2d2" d="m1323 454-53 38c-11 7-18 0-27-4-15-14-16-8-29-10-7 11-38 5-48 3-20-6-41-14-62-10-10 9-23 3-34 4-13-2-26-3-38-6-10-1-25-8-14-20 2-6 3-8 6-2 10 10 26 2 34-6 7-5 14-20 18-20 10 1 20-6 31-2s22 1 33 4c12 4 25 3 37 5 10 2 20 4 31 4 10 3 21 1 31 4 13 1 25 6 37 8l37 8 10 2z"/><path fill="#bc969c" d="M861 425c0-1 0-3 2-2l12 6c2 1 0 3-2 3l-6-2-7-3 1-2zm34 27c-2-6-5-13-10-18l1-3 2-2 3 4c3 6 4 13 4 19h-1z"/><path fill="#ffe4c7" d="M281 433h99a1 1 0 0 1 1 1v31a4 4 1 0 1-5 4h-92c-2 0-4-2-4-4v-30a1 1 0 0 1 1-2Z"/><path fill="#635663" d="M1496 435c-1 9 2 17 11 16 7-2 9 15 9 3v23c-1 76 1 152-1 228-2 23-31 14-46 15l-398-8h-43c-1-21-12-18 65-17 130 1 260 5 391 7 20-1 11-17 12-64V435z"/><path fill="#49343b" d="M897 433c5 5 7 13 7 18 1 11 0 22-4 32l-3 9-3 9-15 33a370 370 0 0 1-12 19l-5-5 2-1 6-10a509 509 0 0 0 24-56c4-12 7-23 5-34l-1-8zm-75 11 21.6 11-2.9 17.4c0 7-.5 16.1 1.5 24.1l-20.1-8c-6-2-7.1-7.5-6.1-14.5v1h1a98 98 0 0 1 1-20l1-1c0-3 1-7 3-10z"/><path fill="#461407" d="M763 492a18 18 0 0 1-18 8 19 19 0 0 1-15-14c-4-11-3-23 4-32s18-7 25 1c3 4 5 9 7 15 1 8 0 15-3 21z"/><path fill="#f5d9da" d="M469.8 445.4 465 475c-3 10-11 17-16 26l-14 19c-13 18-26 37-40 54l-37 43c-5-3-9 11-11 7 10-13 21-24 32-36 6-5 9-13 14-20 11-13 19-27 29-40a562 562 0 0 0 47.8-82.6z"/><path fill="#461407" d="M548 497c-14-10-11-38 4-46 10-6 18-1 22 8 4 11 5 22 0 32-4 10-17 13-26 6z"/><ellipse fill="#fff" transform="rotate(89 137 608)" rx="7.5" ry="5.3"/><ellipse fill="#fff" transform="rotate(95 66 487)" rx="7.9" ry="5.6"/><path fill="#49343b" d="M846 456c3 8 8 13 16 22v5c-1.3 3.3-2 7-2 11-6 14-10.7 23.7-14 29-3.3 4.7-5.7 9-7 13l1 1h3l-1 1-1 1c-1.3 0-2-.7-2-2-4.7-2-9.7-2.7-15-2a1 1 0 0 1-1-1l5.5-9.4 10.2-20.6 3.3-19c-.7-10 .7-19.7 4-29z"/><path fill="#b4dfe6" d="m928 478-17-18 1-2 17-1v19l-1 2Zm33-21v19l-28 1a1 1 0 0 1-1-1v-19h29Z"/><path fill="#a6d4e4" d="m300 603-13 34-1 6-5 25-2-10 1-12 1 10a1 1 0 0 0 1 0V504l1-31v-1h15l1 1v93l1 37Z"/><path fill="#b4dfe6" d="m371 498-19 24v-49a1 1-1 0 1 0-1h18a1 1 0 0 1 1 1v25Zm-21 27q-21 27-35 49l-11 21q-2-7-2-17v-17l-1-88 1-1h46a1 1 0 0 1 1 1v43l-1 8 1 1Z"/><path fill="#fff" d="M753 477h1a3 3-85 0 1 2 2v1a3 3-85 0 1-2 2h-1v-5Z"/><ellipse fill="#e2bdc4" transform="rotate(74 -44 609)" rx="2.9" ry="2"/><ellipse fill="#e2bdc4" transform="rotate(91 46 520)" rx="3.1" ry="2"/><ellipse fill="#e2bdc4" transform="rotate(84 102 655)" rx="2.4" ry="2"/><path fill="#b4dfe6" d="M930 480h32v38h-1l-3-5q-13-17-28-33Z"/><path fill="#367bbe" d="M1493 481v62c-4 3-2 32-7 36-24 53-113 18-148-1-8 3-8-4-6-7 9-9 29-18 38-26 26-19 54-35 83-48 11-5 21-11 33-14a217 217 0 0 1 7-2z"/><path fill="#f28a8f" d="M463 511v1c-7.6 32.6-22.9 61.8-38.4 91-11-1-39.6 4-43.6-9l22-27 6-7c15-18 29-36.6 42-56 3-5 7-14 13-20h1c-.2 1-.5 2-1 3z"/><path fill="#a6d4e4" d="M1560 850v-21l2-3c12-26 10-129 5-177l-7-2v-64l-6-5v-2c5-2 5-9 2-12-4-6-16-4-16 5 0 0 0 7 7 8l-8 1v1h1l-4 1v-93l1 3v6l2 2 3 4 5 3 5 5 1 3 1 3 5 4 10 3c4 0 6 2 12 6s10 5 15 6l5 1 1 3 1 1 3 2 9 3a25 25 0 0 1 8 14l2 7 5 23 2 13c2 6 3 16 3 26v15l-7 53-6 25a338 338 0 0 1-34 84l-9 15-6 10c-2 1-2 4-6 10l-5 12-1 6-1 1v-1z"/><path fill="#e6d3d1" d="m840 538-1-2q2-6 7-13 5-8 14-29l2-4h1l-1 3q-9 23-22 45Z"/><path fill="#fbe9e6" d="M745 500a18 18 0 0 0 17-8l14-1c5 0 10-1 15 1a33 33 0 0 1 20 18c3 7-2 13-4 19-2 5-8 8-12 12-3 1-6 5-10 6-5 1-11 2-15-2-6-4-10-11-16-14-6-4-11-9-11-16-1-5 2-9 2-14v-1Z" style="fill:#f5d9da;fill-opacity:1"/><path fill="#f28a8f" d="M657 513c-1-3-4-4-4 0-5-2-14-9-11-15 4-10 31-7 25 6-2 4-6 7-10 9Z"/><path fill="#f5d9da" d="M514 546c-7-2-11-7-16-12a23 23 0 0 1 0-26 34 34 0 0 1 27-15c9-1 19 1 25 8 3 4 10 3 11 9 2 6 0 13-3 18-5 6-12 9-17 14-8 5-19 9-27 4z"/><path fill="#fff" d="M839 499v-1a1 1 0 0 1 1 1l-3 3a1 1 0 0 1-1 0l-1-5 1-1 2 2a1 1-33 0 0 1 1Z"/><path fill="#602120" d="M1536 507v257c0 12-7 21-20 22h-1l2-2c4-2 8-3 11-6q5-5 5-13l1-30V557q2 0 2-3v-48Z"/><path fill="#6a0d09" d="M657 513c1 3-1 7 1 10l10 11c0 2-2 3-4 2-2 0-2-2-3-3l-5-5c-2 0-3 2-4 3l-4 5c-2 2-5 1-5-2 0-2 3-3 4-5l5-6 1-11c1-2 4-1 4 1z"/><path fill="#f5d9da" d="M397 638c5-13 20-23 26-36 10-17 18-36 26-55l14-35.7 2 3.7c0 6 4 14 5 20-10 54-32 81-54 116-22-2-19-12-19-13z"/><path fill="#3f85c4" d="M1205 547c15 8 34 2 46-11 7-7 21 5 29 6 28 2 55 5 83 3 12 1-8 11-11 16-8 6 .1 41-11.9 37l-181.1 4c-88-7-123-15-173-57v-28c15 5 29 15 44 17 12 5 25 5 38 10 17 5 35 5 53 9 22 1 44 5 66-2 7 1 12-6 18-4z"/><path fill="#f5d9da" d="M891 517c3 5 43-8 46-2l-9 61c-11 4-24-8-42-28-2-3 0-13-1-17l3-8z"/><path fill="#f28a8f" d="m888 523 1 4c-1 4 3 8 4 10l20 26 43 52-48 16c-28-15-30-30-39-57l1-21 8-16c3-6 7-8 10-14z"/><path fill="#a43434" d="M889 527c0 4 3 6 5 9 3 2 5 6 7 9l3 4 5 5 12 16 16 20 20 23c13 16 26 30 37 49l1 2v1h-1q-21-28-44-54l-38-47-9-11-5-7-5-6-6-10a2 2 0 0 1 0-3h2Z"/><path fill="#2c6fb5" d="M1493 536v79c-1 6-17 13-25 15-145 66-271 41-428 19-17-2-17-34-25-47-3-8-10-14 2-10 32 4 69-7 100 3l221-17c20-3 40-4 59-4 20-4 41-3 60-12 12-6 31-11 36-23v-3z"/><path fill="#367bbe" d="m1337 578-31 38c-8 3-20 1-29 3h-29c-9-2-20 1-30-1-20-1-40-1-60-5-21-5-43 3-64-3-25-5-52 7-77 4-11 1-12-35-17-42-5-10-16-14-13-31 9 0 19 7 28 11 15 7 31 9 46 13 6-2 12 0 18 1 17 2 32 7 49 8 17 4 35 5 52 1l33-3 28-3c13-2 27 3 40 5 14 3 29 4 43 4h13z"/><path fill="#fff" d="m886.9 624.7-3.9-.7c.7 0 .7 0 0 0h-2l-2 4a17 17 0 0 1-19 2c-2.7-.7-5-2-7-4l-12-15-6-7-6-7-2-4-4-5-3-4-6-6a1 1 0 0 1-1-1c0-2-1-3.7-3-5v-1l-2-5-1-7c2-8 5-12 11-18l11-2c7.3 0 15.6 1.5 23.6 6.2a71.2 71.2 0 0 1 28.3 28.5 88.5 88.5 0 0 1 6 51z"/><path fill="#96cde2" d="m478 645-35 93-2 5-20 15-2 2-5-1-1-6c-39-68-10-76 28-154l20-43c2-4 6-16 9-19 9 3 20 67 8 108z"/><path fill="#a43434" d="M818 541a28 28 0 0 0-11 18l-1 4v5c-5-4-6-13 8-28z"/><path fill="#fff" d="m908 462 2 1 17 20c26 27 51 57 71 89l22 47c10 27 11 41 12 58-2 19-28 12-34 9-2-7 0-17-4-23-11-20-24-34-37-50l-20-23c-8-9-13-16-15-21 0-3-2-6-4-9l-5-7c-2-2-2-4-3-7-3-4-7-9-9-14l-10-15 9-22 8-33zm356 34c4 15 1 29-9 41-13 16-30 19-50 10-22-14-30-42-14-64 21-31 63-21 73 13z"/><path fill="#96cde2" d="m216 560 1 126c17 38 37 78 51 119-1 0-38 8-34 15l7 36c-4-7-13-9-15-16-11-1-6-21-8-30v-58c-3-1-1 7-1 10l-1 53c-6-6-4-19-10-26-9-18-14-38-22-56-4-13-9-25-10-38-3-19-9-38-8-57l3-40c1-14 9-25 17-36 3-8 12-12 19-12 8-5 11 1 11 10z"/><path fill="#f5d9da" d="m482 550 3.5 3 11 7 11.5 6 24.5 12.5 28.1 10c11.6 3.6 26 7.3 40.4 10.5a318 318 0 0 0 97-2l13-3c-7 8-12 16-17 24-29 31-156 2-191-17z"/><path fill="#afcfec" d="m475 550 5 7q-2 3-2 10v64l1 10-1 4q-2 0-2-3v-86c0-2-2-5-1-6Z"/><path fill="#f5d9da" d="M802 556c0 7-3 14-5 15-10 6-25 19-36 17l-11-8a95 95 0 0 1 6-3l7-4a43 43 0 0 1 11-5l4-1 3-3a164 164 0 0 0 16-8z"/><path fill="#96cde2" d="M480 557q11 14 26 24c3 2 5 4 9 5a1 1-60 0 1 0 1l-8 10-28 44-1-10v-64q0-7 2-10Z"/><path fill="#fbe9e6" d="m807 559 2 7 1 5 1 1a11 11 0 0 1 2 5l1 1 6 6a24 24 0 0 0 3 4 23 23 0 0 1 4 5l2 4a33 33 0 0 1 6 7c1 2 5 4 6 7l12 15 7 5c7 2 14 1 19-3l2-4h3l1-2c-2 11-4 20-9 31-1 12-24 5-30 2l-29-39c-5-12-7-31-15-39-1-1 5-4 4-6v-8Z"/><ellipse fill="#96cde2" transform="rotate(103)" rx="5.6" ry="5.4" cx="206.5" cy="-1637.3"/><path fill="#f5d9da" d="M806 563v8l2 5 1 4c0 2 3 4 8 10l9 17 9 18a72 72 0 0 0 15 22c4 3 8 5 12 5l8 1c2 1 3 0 3-1a77 77 0 0 1-73 41c-1 0-2 0 0 1 11 4 23 4 34 0 2-1 3 0 3 1a371 371 0 0 0 16 41l7 32v7l1 6 1 20c-2 22-3.3 44.8-15.3 63.8L842 869c-9 8-10 0-15 0 1-13-8-11-9-21 26-26 39-62 34-99l-3-17-2-7-3-6-1-3c-31 16-76 2-104-17l-1-2-1-1-2-2v-1c4-4 3-8-1-11l-1-1 1-4c40 18 68-80 70-109h2z"/><path fill="#49343b" d="M723 639c9 13 26-1 42-4 38 1 35-14 34-36a54 54 0 0 0 5-7h-1l-19 21c-1 1-3 2-6 1l-3-1h3v-1l-5-12c.3-.2 0-1.6.4-1.4 6-4.6 10.8-9.6 15.4-15.6l12.2-10a1 1 0 0 1 1 0c4 18 10 34 13 52v8a147 147 0 0 1-27 27 70 70 0 0 1-52 15l-2-3c2-2 5-4 2-7-2-2-5-5-8-2-12 28-29 0-18-6 3-7 9-13 13-18z"/><path fill="#96cde2" d="M1549 753.7c-4 3-8 15-12 16l-1-3v-184l2-1c1-1 8-3 11-2h1l7 7 1 3a9438 9438 0 0 1-1 151l-4 1c-4 3-5 7-4 12z"/><path fill="#bae3e6" d="m793 579-4 5-17 16c-3-3-7-6-8-9l2-2c23-13 32-15 27-11z"/><path fill="#e2bdc4" d="M743.4 581c0 2-1 4.7-4.4 4.7 4.4 8 9.1 7.5 11 13.4l-2 1.9a365.2 365.2 0 0 0-45.4 17.5c-.7-1.8-.2-2.8.4-4.5 9.8-13.2 22.2-32.3 40.4-33z"/><path fill="#715e64" d="M742 582c3.3.7 6.7 2.7 10 6l3 2 8 5v1c-5 2.2-10.2 3.7-14.2 7l-.8-2 1-2-1-1c-3.3-2.7-6.3-6-9-10l-2-2v-1c3.3 0 5-1 5-3z"/><path fill="#96cde2" d="M280 599v47l-1 12c0 3 0 6 2 11a174 174 0 0 0-1 28 1029 1029 0 0 1 0 48l-4-8-2-3-6 2-1-1 6-5-2-7-1-1c-1-5-4-9-8-12h-1l-4 4-1 1h-1l-1-2c0-3 2-6 5-8v-1l-7-8-9-7v-1a599 599 0 0 0 0-28c7 0 14-5 16-11 6-13-2-24-15-27l-1-2v-24c0-3 0-9 10-8 15 0 24-2 26 0l1 11z"/><path fill="#715e64" d="M748 601v1q-15 15-27 33l-6-5q-6-5-10-11a1 1 53 0 0-2 0l-1 1 3-4q11-14 24-26l4-2h1q2 5 6 8l5 5h3Z"/><path fill="#e6d3d1" d="m799 599-12 14c-3 3-4 3-8 3l-10-1v-1h9q4 1 6-1l19-21h1l-5 7Z"/><path fill="#f5d9da" d="M905 621c3 5 16 11 16 17-9 7-15 8-21-1a46 46 0 0 1-10-25l-1-18 2-1h1a560 560 0 0 1 8 18l5 10z"/><path fill="#ffb0ab" d="M423 602c-6 12-13 25-18 38a3 3 0 0 0 2 3 9 9 0 0 0 7 0 5116 5116 0 0 0-11 15c-16 24-37 46-63 58a54 54 0 0 1-9 3c-2-2-5-2-9-3a2 2 0 0 1-1 0c-9-6-10-14-9-26a52 52 0 0 1 11-25v1a620 620 0 0 1 59-73 1 1 0 0 1 1 0h2l9 1 11 5 18 3z"/><path fill="#fff" d="M516 594c18 10 37 16 56 21 35 8 70 8 105 7 7 5 22-12 14 2-8 11-4 26 10 34l30 33 6 21 11 24 6 16 4 14c4 9 8 14 10 15 5 9 7 24 13 25 9 5-5 27-12 25-87 57-280-7-292-14-25-12-34-60-35-67-1-20 6-34 19-66 10-23 23-46 36-68 6-8 11-16 19-23z"/><path fill="#715e64" d="M778 614h-9v1l9 1c4 0 6 0 9-3l12-14 2 1c.6 0 1 .4 1 1 2 3.3 3.7 8 5 14 1 4 1 6-1 10a69 69 0 0 1-23 22 44 44 0 0 1-18 8 42 42 0 0 1-42-16 123.4 123.4 0 0 1 29.7-38.2l6.3-1.8c5-1 10.6-1.5 13.6 3.5 2 3.3 3 6 1.4 9.1 1.5.6 2.7 1.5 4 2.4z"/><path fill="#ffb0ab" d="M950 611a704 704 0 0 1 44 54l1-1-1-1a78 78 0 0 1 10 20c2 8 1 16-1 23a14 14 0 0 1-14 10v2l2 1c-26-5-48-24-64-44a587 587 0 0 1-24-35l-6-12 3 6v1a7 7 0 0 1 3 3 2 2 0 0 0 1 1 10 10 0 0 0 6 1 1 1 0 0 0 1 0c1-6-5-15-5-18 6-3 15 0 22-4s8-7 16-6l6-1z"/><path fill="#2364ad" d="m1493 615-1 74c0 14-35 8-48 8l-407-7c-3-13-1-30-6-43-6-11-3-15 7-8 16-5 31 0 47-4 18 2 35 9 52 13 18 5 36 10 54 13 22-1 42 9 63 7 13-4 25-11 36-19 19-12 42-11 64-11 17-1 32-11 49-12 20-6 41-4 61-8 9 1 22-6 28-2z"/><path fill="#635663" d="M703 615v2l2-1-3 4-5 7-4 8-4 8a1 1 0 0 1-1-1c2-8 6-14 10-21l5-7Z"/><path fill="#49343b" d="M721 635q-9 12-15 26a1 1 0 0 1-2 0c-6-4-18-11-16-19a1 1 0 0 0 1 1l4-8 4-8 5-7 1-1a1 1 53 0 1 2 0q4 6 10 11l6 5Z"/><path fill="#715e64" d="m817 620 1 6-1-6Z"/><path fill="#afcfec" d="m900.5 640.3 3.8 116.3L903 781l-14 25-13-20c0-7.2-4.6-16.4 2-18.4l-1.8-57c4.5-26.3 8.2-49.9 7.8-76.2l5-11.4h1z"/><path fill="#96cde2" d="M258 641a16 16 0 1 1-32 0 16 16 0 0 1 32 0z"/><path fill="#e7f6f4" d="M251 634a11 10-37 0 1-2 15 11 10-37 0 1-15-2 11 10-37 0 1 2-14 11 10-37 0 1 15 1Zm-1 7a8 8 0 0 0-8-8 8 8 0 0 0-7 8 8 8 0 0 0 7 8 8 8 0 0 0 8-8Zm183 101h-3l1-15-1-95v-1l1-1 1 1v107q0 2 2 3l-1 1Z"/><path fill="#8cc5e0" d="m893 627 47 69c7 7 16 14 27 20v17l-1 1-15-1-10-1c-4 0-8 1-12 4l-6 10-20 35-1-3c-1-4-4-6-8-7l-1-2c0-13.7.4-27.3 1-41 4-1 5-6 4-9-2-3-5.9-4.5-5.9-5.5 0-27-1.1-59.5.9-86.5Zm-6 0 2 26 1 61h-1c-5 2-8 10-3 13l4 2v41c-7 2-10 7-10 14 0 6 4 8 9 10l1 1v11l-23 43c-4 2-8 2-10 0 0-5 10-29 7-68-2-21-8-41-14-60-1-5-13-29-12-31 23-12 40-39 49-63z"/><path fill="#7c686b" d="M287 637q1 4-1 6l1-6Z"/><path fill="#8cc5e0" d="M1560 829v-70c7-3 9-8 7-15-1-3-3-5-6-6l-1-1v-96l1-1h2l7-1h12l5-1h6l4 1 2 3 4 6 5 9c2 4 4 7 4 10v16l-1 12v9a1070 1070 0 0 1-11 51l-4 10a152 152 0 0 1-31 60l-4 7h-1v-3z"/><path fill="#afcfec" d="m415 649 1 6v49l1 49a1 1 0 0 1-2 1l-1-78v-17l-1-7 2-3Z"/><path fill="#8cc5e0" d="m413 652 1 7v17l1 78-1 5q-12 3-19 11a49 49 0 0 0-12 34c1 8 3 19 11 23a1 1-54 0 1 0 1 26 26 0 0 0-7 13c-1 5-2 10-1 15l-10 2a1 1 85 0 1-2-1v-55q-2-47-2-95v-4a1 1 66 0 1 0-1q2-1 1-2a252 252 0 0 0 40-48Z"/><path fill="#afcfec" d="m466 666-5 11-4-1c-8 1-11-6-10-12l2-5c5-3 11-3 15 2l2 5z"/><ellipse fill="#84bede" transform="rotate(60)" rx="7.1" ry="6.2" cx="804.7" cy="-61.6"/><circle fill="#367bbe" cx="1224" cy="531.6" r="9.4"/><path fill="#f5d9da" d="M702 665q2 2 5 2h1c4 2 9 6 13 7h1v4a1 1-14 0 1-1 1l-1 1v1l1 2q1 0 0 0-3 1-2 5l-8-4c-4-2-8-7-10-11q-2-4 1-8Zm329 2q2 15 0 26-1 8-5 15c-8 11-22 14-35 11l-2-1a1 1 0 0 1 0-2q11 0 14-10 4-11 1-23l11-2h6l6-1h2l1-3h1v1-11Z"/><path fill="#602120" d="M626 750c-2 17-10 31-28 34-28 5-54-22-66-44l-10-17a86 86 0 0 1-7-24v-12c0-1 0-1 0 0l1 9a701 701 0 0 1 7 18c43 82 104 73 98 30 0-19-7-39-16-55l-10-19v-1a122 122 0 0 1 29 59c2 8 2 15 2 22z"/><path fill="#e7f6f4" d="M265 694a7 7 67 0 1-9-4 7 7 67 0 1 4-9 7 7 67 0 1 9 4 7 7 67 0 1-4 9Zm2-3a6 5 39 0 0-1-7 6 5 39 0 0-8 0 6 5 39 0 0 2 7 6 5 39 0 0 7 0Z"/><path fill="#454b2c" d="m241 688 2 1 9 7a360 360 0 0 1 7 9c-3 2-5 5-5 8v1h-23c37 43-43 32 18 31-44-69-26-82 6 0 28 73 30 58 30 28v-6l-1-1-9-2 3-3c1-1 2-3 1-4l-1-6c0-4-2-8-4-12l-1-1v-1l-1-1c-1 0-7 2-7-1v-1c1 0 2-1 1-2v-1c2-2 3-5 2-8l-5-8c-1-2-3-2-5 0h-1v-1l4-4h1c4 3 7 7 8 12l1 1 2 7-6 5 1 1 6-2 2 3 4 8 1 6c2 3 2 5 2 8v1l-4 3c2 1 4 1 5-1l1 1 1 2h1l1-1h1c2 1 3 1 5-1l23-30 29-15h2c5 8 6 17 5 26 0 5-1 11-3 16h-8l-1 1c3 0 5 2 7 4l-5 11-3 5h-2v1h1v1h-1l-5 1c-2 0-2 2 0 3 8 1-3 16-5 19-1 1 0 1 1 1l4-1-4 11-19 2c-14 1-29 2-43 0-8 2-15-9-14-12l-1-2-1-1a571 571 0 0 0-8-16l3-4c1 0 1 0 0 0l-2-2h-1v2h-1l-2-1-4-5-7-12-5-8c-1-2 0-4 2-4s2-1 2-3c-3-1-7 0-8-4v-1c-2-2-9-10-6-13a303 303 0 0 1 9-5l-1-1-9 3h-1c-6-5-7-20-6-28 1-7 4-13 11-16l2-1c8-2 15-1 21 3z"/><path fill="#f5d9da" d="M284 684h1q0 1 0 0 7 5 15 6l1-1h1l10 1c-1 12 0 20 9 26h1q6 0 9 2-14 4-26 1c-16-5-21-20-21-35Z"/><path fill="#715e64" d="M731 686a2 2-81 0 1 2 3 2 2-81 0 1-3 2l1-5Z"/><path fill="#a0a878" d="m254 713 1 1 1 1a6 6 0 0 0 1-1v1a1 1 0 0 0 1 0c2-2 4-2 5 1l5 7c1 3 0 6-2 8 1 2 0 3-1 3a1 1 0 0 0 0 1c0 3 6 2 7 1l1 1v1l1 1c2 4 4 8 4 12l1 6a3 3 0 0 1-1 3l-3 4c3 6-4 12-9 7a697 697 0 0 1-11-26 382 382 0 0 0-27-54v1c11 18 19 36 26 55 1 7-20 9-23 2-2-3-6 1-7-3a2 2 0 0 0 0-1 62 62 0 0 1-6-6c-5-6 5-8 7-10l1-2-2-2a20 20 0 0 0-8 0 1 1 0 0 1-1 0l-3-2a1 1 0 0 1-1 0 27 27 0 0 0-2-9v-5a22 22 0 0 1 6-19l1-1a61 61 0 0 0 3-1h14a38 38 0 0 1 12 5l11 10v1c-3 2-4 6-2 10z"/><path fill="#afcfec" d="m281 698 1 4v1l1 2v46h-2l-1-6v-48l1 1Z"/><path fill="#fff" d="M847 726a402 402 0 0 0 3 11c13 34-5 99-46 95v2h-4c-1 0-1-1 0 0-46-6-60-109-61-132a1 1 0 0 1-1-1l1-1h6a99 99 0 0 1 39 3l26 10c6 3 17 5 23 3 2 0 3-3 6-3 2 0 4 1 4 3l1 3a34 34 0 0 1 3 7z"/><path fill="#ffd7d7" d="m373 700-1 2v5l2 95v55l1 1 11-2 2 9c7 17 21 25 40 23l3 1c49 42 107 44 163 38 17 0-25 4 81 4 15 0 30-2 46 0l16 1c18 2 35 1 52-2 8 0 24-11 33-11 53-5-11 16 57 18l7 1h6l25 2 5 1a609 609 0 0 0 68 4h19l14-2 18-8 9-4h1l9-4 22-8 84 5h4l117 7c7 0 13-3 20-5a8548 8548 0 0 1 66-22l2-4c1-3 2-10 0-12-1-3-4-3-8-4h-10l3-1 6-3c17-22 22-65 20-103l127 8 24 88h4l4 1a782 782 0 0 0 31 12c6 3 11 7 15 11 9 11-11 22-20 27-2 0-22 9-38 10-52 16-111 23-207 34-47 6-131 15-224 20l-209 5c-66-2-131-9-196-9-112 0-101-9-189-12-75-8-119-11-190-25-37-5-104-28-111-39l-1-2-2-3c2-4 6-7 10-10a184 184 0 0 1 26-10c44 4 66 6 96-4l3-16c4 0-1-1 12-3l22-3-1-53-1-81v-21z"/><path fill="#3f85c4" d="m1229 509-1 7a1 1 0 0 1-1 2h-6a2 2 89 0 1-2-2c0-8-2-12 6-16 5-2 7-10-1-11-6-1-5 6-10 6s-7-2-6-7c3-12 20-16 29-7 7 7 5 18-3 24l-5 3a1 1-15 0 0 0 1Z"/><path fill="#84bede" d="M371 702v22l1 80 1 53c0 1-1 2-10 3l-12 1v-97l-1-4 3-16c1-9 0-19-5-26l-3-1c8-4 18-13 26-15z"/><path fill="#96cde2" d="M283 705c3 6 6 11 10 14 3 3 7 4 11 4l1 1-1 2c-5 6-9 13-12 21-2 5-5 12 3 15l-1 2h-6l-2 1-1-3h-1c-1 2-3 2-5 1l4-3v-1c0-3 0-5-2-8h2v-46z"/><path fill="#f5d9da" d="M621 744q2 17-8 28-3 4-10 6-9 2-19 1l-12-4a126 126 0 0 1-49-62l1 2h1v-2a1 1 0 0 1 3-1l7 13a161 161 0 0 0 26 32l12 8q8 5 19 6c9 1 17 0 23-7q7-8 6-20Z"/><path fill="#ebe0de" d="M1515 718h2l-1 54c-1 11 0 14-17 13-44-1-86-3-129-6h-19l-14-1h-28l-8-1a3440 3440 0 0 1-122-4l-57-2h-6l-7-1c1-2 2-4 1-6-1-4-4-8-7-13-5-8-7-12-16-12l-29-2h-6a2055 2055 0 0 1-83-4l-1-17c16 8 35 12 51 4l8-5h5l58 1 297 5 110 3c6 0 15-1 18-6z"/><path fill="#7c4f59" d="m1517 784-2 2v1h1-20l-14-1h-19l-68-2-4-1h-4l-1 1a169 169 0 0 0-12-1h-2l1 4a144 144 0 0 1 3 15l5 33c2 6 5 11 10 16l-1 15-4 5-19 9-12 6-245 9 3-120-5-1v-3h14l57 2a2005 2005 0 0 0 122 4l8 1h28l14 1 19 1 116 3 6 1h17c2 0 3 0 4-2l2-10 1-50v-4l1-2 1 1-1 22v36l-2 8v1h2z"/><circle fill="#84bede" cx="890.8" cy="721.8" r="5.1"/><path fill="#a0a878" d="M348 753v3l-8 2c-1 0-2 1-1 2l4 7c-7 8-26 17-31 8l16-45-15 39c-6 1-12 0-17-4v-1l-1-1h-1v-1c-1-1-6-3-4-7 3-11 9-21 17-30 13 1 26-2 38-7 1-1 1-2 4 6 2 6 2 18-1 29z"/><path fill="#f5d9da" d="m522 723 10 17c12 23 38 49 66 44 18-3 26-17 28-34v15c-2 15-11 31-27 33q-7 2-15 1t-16-6a84 84 0 0 1-28-27q-11-17-18-34v-9Z"/><path fill="#fbe9e6" d="m847 726 3 6 1 4 1 4 1 3 1 5a152 152 0 0 1 4 24l1 3 1 22-4 12-1 3-2 5-2 3-3 3c-4 8-8 14-13 17l-12 7-5 2c-13 10-22 1-19-10l5-7 6-5 8-5c2-1 5-2 6-4l10-9c5-6 8-12 11-19v-2l2-4 3-11 2-15v-10l-2-11-3-11zm-400 4c0 9 1 19 3 28 1 7 3 13 6 18 2 6 2 9 7 17 5 9 8 10 10 12l10 7 28 9 25 5c11 3 22 4 56 10 34 5 59 6 84 4l26-6c18-5 28-7 43-13l21-7h4c10-3 15-1 18 7 1 2 4-5 8 13l-7 7c-12 3-49 6-73 42-13 7-10 11-32 10-37 13-51 14-94-7-6-13-16-23-28-30-14-9-31-14-48-14-46 13-104-46-67-112Z"/><path fill="#7c686b" d="M934 928c-8-6-11-11-11-23l-58.4-17.2L858 877v-1c19-46.8 45.2-90.5 69-135 3-6 7-7 14-7 135 6 138 5 149 7l7 4-67 137c-7 15-16 30-24 44h-30l-3 9z"/><ellipse fill="#84bede" transform="rotate(93)" rx="8.3" ry="7.5" cx="666.4" cy="-1595.4"/><path fill="#2b2c51" d="M1056 796c-2 3-5 4-8 4l-24-2-48-2-55.5-3.8c-4.7-.4-5.3-1.4-2.5-6.2a825 825 0 0 1 22-40c1-2 3-2 6-2l82 3 43 3c8 0 6 7 3 11-6.2 11.6-12.2 23.2-18 35z"/><path fill="#fff" d="M429 826c-35-3-34-5-42-13-5-19 3-44 22-51 21-2 6 3 16-13 3-4 8-5 13-4 1 0 4 2 3 3-2 24 2 49 3 73l-15 5z"/><path fill="#67aad6" d="M1073 758c-35 21-1 30-138 26-2 0-4.3-8.6-9.3-7.6L942 746h1a5364 5364 0 0 1 130 6 2 2 0 0 1 1 2l-1.3 4.1z"/><path fill="#838a65" d="m254 747 18 45 9 25-1 1q-5 1-10-2h-2l-1-1c-4-3-7-6-10-11l-5-5-5-10v-1l2-3a1 1 0 0 0 0-2 32 32 0 0 1-13-11l-3-5c-2-3-5-8-3-11a1 1 60 0 0 0-1l1-6h3l4 1h12l3-1q2-1 1-2Z"/><path fill="#84bede" d="M1549 751c1 4 4 6 8 8h1a1297 1297 0 0 0-1 46v50l-3 9h-3a1 1 0 0 0-1 0l-5 5-1 2 1 3-4-1h-4a689 689 0 0 0-22-6 2 2 0 0 1-2-2v-78l3-1c13-1 20-10 20-22v2h1l1-2v-9l1-7h4l2 2 4 1z"/><rect fill="#fff" x="301.4" y="442.8" width="56.5" height="2.3" rx="1.1"/><rect fill="#fff" x="295.7" y="455.8" width="70.5" height="2.7" rx="1.3"/><rect fill="#fff" x="300.3" y="395.6" width="56.5" height="2.3" rx="1.1"/><rect fill="#fff" x="294.6" y="408.6" width="70.5" height="2.7" rx="1.3"/><rect fill="#fff" x="301.9" y="339.3" width="56.5" height="2.3" rx="1.1"/><rect fill="#fff" x="296.2" y="352.3" width="70.5" height="2.7" rx="1.3"/><path fill="#49343b" d="M1058 867.9c-11.5 14-23.7 61.5-48 73.7-3-9.5-1.5-9.8-3.5-14.7l31.6-62.7c16.2-31.1 30.7-63 47.5-93.7l10.7-21.5c0-1.4 3.5-1 3.5.4 3.3 5.3 6.6 11 8 16.3-.7 13.2-12 27.2-49.7 102.2z"/><path fill="#5ea2d2" d="m1073 757.6-19 37.4c-2 4-4 3-8 3-42-3-84-5.4-126-8-1.5 0-2-.8-1-2l7-12 10-1 29 1h22l15-1 14-1 18-3c9.3-1.3 18.3-4 27-8l3-1c2-.7 3.5-2.2 4.8-4.2h1z"/><path fill="#f5d9da" d="m443 758 1 8 2 5 5 21q0 3 5 10l6 9 7 7 10 9 5 3 2 2 20 9 1 1a1 1 71 0 0 1 0h6c-19 1-37 12-43 30a1 1 0 0 1-1 0l-5-7a159 159 0 0 1-22-107Z"/><path fill="#afcfec" d="m350 760 1 3v98h-2v-2l-1-28 1-21v-32l-1-6v-7q-2-3-7-4a1 1 0 0 1 1-1h8Z"/><path fill="#838a65" d="m275 764 9 2a1 1-88 0 1 1 1v6l1 42 1 2-1 1c-3 0-3-1-4-4l-16-43 1 1a1 1 54 0 0 1 0q4-3 7-8Zm21 1q8 5 17 3-7 24-16 47v2l-6 1-1-1-1-35v-16q4 1 7-1Z"/><path fill="#8cc5e0" d="M348 765v7l1 6a529 529 0 0 1-1 54 616 616 0 0 1 1 28v1l-1 1-9 1 8-43c1-9-3-10-10-13l1 1 1-1v-16l2-10v-1l-1 1a136 136 0 0 1 3-5l5-11z"/><path fill="#838a65" d="m343 767-3 7q0 3-2 3a1 1-89 0 0-1 1q-1 3-4 3a1 1-85 0 0-1 1q0 2-3 3l-1 1q4 0 5 3v1l-4 8-2 2v1l-3 4a2 2 90 0 0-1 0q-2 5-6 9l-4 2q-7 2-14 1h-1l14-42 11 1 12-4q2-1 2-3a1 1 70 0 1 0-1l6-1Z"/><circle fill="#84bede" cx="891.2" cy="782.3" r="8.6"/><path fill="#a6d4e4" d="m1108 774 5 1v12c-1 4-3 7-6 9-3 3-6 2-6 8v42h-5c-3-29.2 1-68.5 12-72z"/><path fill="#84bede" d="M1113 775c16 0 32 0 48 2l2 5v63c0 1-28 5-62-1v-40c0-6 3-5 6-8 3-2 5-5 6-9v-12z"/><path fill="#ffd7d7" d="M1161 777h22l7 1c11 30 10 55 15 69l-9 5-9 5-5 2-6 4c-19 4-25-1-36 0-49 0-56-4-73-8l6-13 13 1h37l38 2c1-16 2-46 0-68z"/><path fill="#84bede" d="M1164 777h18l1 8a5746 5746 0 0 0-3 61 494 494 0 0 1-16-2zm19 0 34 2h4v1l-4 48q0 6-2 10-3 6-9 9l-20-1-2-2v-64l-1-3Z"/><path fill="#b78493" d="m1223 789 1-10a1 1 0 0 1 1-1 492 492 0 0 0 34 2 254 254 0 0 1 27 1h6l46 1h11c3 0 6-1 10 1a1 1 0 0 1 0 1 41 41 0 0 0 1 7l9 41-148-2z"/><path fill="#b4dfe6" d="m337 807-4-1-4 1a1 1 0 0 1-1-1c2-3 13-18 5-20a2 2 0 0 1 0-2l5-1h1v-2h1l1-1v1l-2 10v16l-1 1-1-1Z"/><path fill="#a0a878" d="M339 781v1l-1-1q-1 0 0 0h1Z"/><path fill="#a6d4e4" d="m253 807-3-2-1 1h-1l-5 1-1-1q-2-10-2-23l2 1h1v-2a1 1-63 0 1 1 0l2 2a1 1 0 0 1 0 1l-3 4 8 14 1 2 1 2Z"/><path fill="#bc969c" d="m1353 881-7 3-17-2 8-4 8-4a934 934 0 0 0 31-14l9-4-15-.8-151-20.2 2-12v1h1v-1l14 1h34c13-.7 26-.7 39 0l19 1 12 1h29v-1l-4-18-4-24c0-.6.4-1 1-1h6l1 1c2 6 3 10 4.8 23.2 1.7 13.2 3.7 22.6 6.2 31.8v1l7 12a8 8 0 0 1 1 4c0 3 1 7-1 11l-3 2-9 4a220 220 0 0 0-22 9z"/><path fill="#84bede" d="m1391 783 2 3v1l-1 62v1l-1 1c-5-5-8-10-10-16a274 274 0 0 1-6-35l-2-13-1-4h2l12 1 1-1zm72 3v73l-37-5h-3l-11-1-8-1h-8l-2-2 1-9c.2-19 .2-38 0-57zm2 0h16c-2 0-2 1-2 2l1 72-1 1-12-1-2-2zm16 0 15 1c-1 0-2 1-1 2v2c.1 24.3.1 48.7 0 73l-13-2-1-2zm30 1v80c-3 0-11 0-14-3v-1l1-76h6zm-412.7 3.3-.3 52.7h-15l1-22z"/><path fill="#afcfec" d="M1447 809a7 6 20 0 1-9 4 7 6 20 0 1-4-9 7 6 20 0 1 8-3 7 6 20 0 1 5 8Zm-5 3a5 5 72 0 0 3-7 5 5 72 0 0-6-3 5 5 72 0 0-3 6 5 5 72 0 0 6 4Z"/><path fill="#311f24" d="M928 804q-9-2-17-1c-2 0-3 1-4 3l-7 11q-1 2 1 3l15 2 4 1a1 1 0 0 0 2-1l6-11a1 1 0 0 1 1 0l-6 12-1 1q-2 0-3 2l-1 1-3 1-18-1a2 2-74 0 0-2 1l-6 11-1 4a1 1 3 0 0 1 0l14 2 4 2a1 1-77 0 0 1-1l12-19a1 1 0 0 1 1 1c-1 5-5 10-10 18-2 2-2 3-5 3l-19-1v-1l-1-3v-1l1-4 7-11a4 4-75 0 1 3-2h18v-1h-1l-13-1a2 2-9 0 1-2-1v-4c-1-4 5-10 7-13 1-3 3-5 7-5l15 1 2 2h-2Z"/><path fill="#fbe9e6" d="m928 804-9 17h-1l-2 1-15-2q-2-1-1-3l7-11c1-2 2-3 4-3q8-1 17 1Z"/><path fill="#3d1f1f" d="M927 825c-2-1-2-2-1-4l7-13 4-4 1-1a251 251 0 0 0 19 2c3 4-1 9-3 12a42 42 0 0 0-4 8 5 5 0 0 1-2 2 1 1 0 0 1-1 0l-18-1-2-1z"/><path fill="#fbe9e6" d="m956 807-10 15-1 1h-11l-5-1h-1l8-16a3 3 15 0 1 3-1l16 1v1Z"/><path fill="#2b2c51" d="m253 807 34 48 52-46-9-1c-3 0-2 0 3-2l4 1c7 3 11 4 10 12l-8 44-3 16c-1 7 4 11-3 13-29 9-78 2-79 2-5-2-6-8-7-13l-1-3-5-22-7-38c-2-8 3-10 9-11h5l1-1h1l3 1z"/><path fill="#49343b" d="m955 827-1-1h-1l-1 3a6 6 0 0 0 3 0l14 2 5 1v1l-1 4a404 404 0 0 1-5 8l-1 4-3 4-10-3c-1 0-1 0 0 0h4c3 1 5 1 6-1l7-14v-2l-15-2c-2 0-3-1-4 1a16 16 0 0 0-3 4v-2l2-3v-1l-1-1 12-21a3 3 0 0 1 3-2l16 1c8 1 5 9 3 13v1l1-1a663 663 0 0 1 6-11 3 3 0 0 1 3-2l16 1a3 3 0 0 1 2 2l4 5c2-1 2-2 2-4a3 3 0 0 1 3-2h17c5 1 5 2 7 6v1c-2 7-5 12-9 17h-3a2 2 0 0 0-1 0l-16-1c-4-1-5-3-5-6l2-5a33 33 0 0 0 2-5 1 1 0 0 0-1-1 1 1 0 0 0-1 1 335 335 0 0 1-5 11l-2 3c-3 2-5 1-7 1l-14-1c-2 0-4-1-4-3a1 1 0 0 0-1 0c-4 3-4 2-10 2-4 0-12 0-15-2z"/><path fill="#bc969c" d="m956 807 1 1v1l-8 14-2 1h-9l-4-1h11l1-1 9-15Z"/><path fill="#8e9ec7" d="m253 807 5 6 5 3 3 3c-3 0-9 2-16 1-11 3-11-2-9-11l10-1 2-1z"/><path fill="#fbe9e6" d="m983 809-8 16a2 2 0 0 1-2 1l-16-1h-2v-1l8-15a2 2-78 0 1 2-1h8l10 1Z"/><path fill="#8e9ec7" d="M343 812c0 3 1 5-1 5h-20l-1-2 3-3c1-3 3-4 6-4l9 1 4 3z"/><path fill="#fbe9e6" d="m1012 810-8 15c-2 2-3 3-6 2h-13q-2 0-1-2l9-16a1 1 0 0 1 1-1l16 1 1 1Z"/><path fill="#7c686b" d="m983 809 2 5-7 13-1 1-20-3 16 1a2 2 0 0 0 2-1l8-17Z"/><path fill="#9fbbd7" d="M242 809v3l-1 1 1 3c25 14 99 2 99-1 2 1 2 0 3-3l1 5a647 647 0 0 1-4 18c-10 38-67 49-99 14a7165 7165 0 0 1-6-32c-1-4 1-7 6-8z"/><path fill="#7c686b" d="M1012 810v2a1 1 0 0 1 1 1l-1 2a2 2 80 0 0-1 1l-6 12-1 1-15-2h9c3 1 4 0 6-2l8-15Z"/><path fill="#f28a8f" d="m1041 814-8 14a2 2 0 0 1-1 1h-5l-13-2a1 1 0 0 1-1-1l7-15a1 1-89 0 1 1 0l3-1 16 1a2 2 71 0 1 1 1q2 1 0 2Z"/><path fill="#fbe9e6" d="M441 815c1 8 5 18 8 26-3 16-34 9-39 11-2-14-17-23-20-40h2l12 7 7 1 5-2c4-1 8-2 12-1l11-2h1c0 1 0 1 0 0z"/><path fill="#e66c5b" d="m1041 814 1 2-5 11q-1 2-3 1-3 2-7 1h5a2 2 0 0 0 1-1l8-14Z"/><path fill="#afcfec" d="m342 815-1 2-16 6-21 2h-16a481 481 0 0 1-41-4c-4-1-5-3-5-6l8 2a278 278 0 0 0 79 0zm742 6-1 22c-5 0-7 1-9-1l10-21z"/><path fill="#f5d9da" d="m396 823 7 5 5 4 8 7 2 1 7 6 5 1a54 54 0 0 0 13-2l3-2 1-4 2 5 7 13c8 10-60 19-68-12 1-4 4-10 10-16v-3l-2-3z"/><path fill="#bc969c" d="M955 827v2h-3l1-3h1l1 1Z"/><path fill="#fbe9e6" d="m915 828-8 15q-2 3-4 3l-14-2a1 1 3 0 1-1-1l1-4 7-11a2 2-74 0 1 1-1l18 1Zm28 4q-5 4-6 9 1 3-2 5l-2 1h-2l-16-1 8-13 1-3 1-1 17 2a1 1 0 0 1 1 0v1Zm28 3-2 1-9 14h-10 1q-4-2-6-1h-2l6-13 3-4c1-2 2-1 4-1l15 2v2Z"/><path fill="#3d1f1f" d="m923 833-8 13q10 3 19 2h1a1 1 0 0 1 1 0c0 2-1 3-3 3l-18-2a2 2-66 0 1-1-3l7-13 1-1h1Zm26 1v2l-6 12v1h7l7 1h-3v1l10 2q-1 2-3 1l-18-2h-1q-2-2-1-5l7-15a1 1 0 0 1 1 0v2Z"/><path fill="#bc969c" d="m943 832-4 6-2 3q1-5 5-9Z"/><path fill="#3d1f1f" d="m980 833-9 17a1 1 0 0 0 1 1l10 1 10 1a1 1 17 0 0 1-1l8-16 1-1a1 1 0 0 1 1 0v4q-5 7-8 15a3 3-76 0 1-3 2l-16-2c-4 0-6-1-7-4a1 1-45 0 1 0-1l8-15 1-1h2Z"/><path fill="#fbe9e6" d="M1001 835c-4 2-8 13-10 16a2 2 0 0 1-1 1h-8l-10-1a1 1 0 0 1-1-1l9-17 20 2Z"/><path fill="#3d1f1f" d="m1004 842 4-7a68 68 0 0 1 21-1l1 1c3 2 3 5 1 9a157 157 0 0 0-6 11 4 4 0 0 1-3 2 208 208 0 0 0-19-1c-3 0-5-1-4-4l5-10z"/><path fill="#e2bdc4" d="m971 835-7 14q-2 3-6 1h3l8-14 2-1Z"/><path fill="#bc969c" d="M1001 835v1l-8 16a1 1 17 0 1-1 1l-10-1 8 1a2 2 0 0 0 1-2c2-3 6-14 10-16Z"/><path fill="#8e9ec7" d="M341 835a560 560 0 0 1-7 43c-1 1-2 2-1 3 0 3-1 5-4 6-3 2-7 3-13 4-19 3-38 2-58-2-5-1-8-4-8-9l-3-9-5-22 20 9c13 7 26 8 38 6 5-2 11-3 20-9s12-10 15-15l5-2v-1z"/><path fill="#7c686b" d="M797 835v1h1l-3 4 2-5Z"/><path fill="#e2bdc4" d="m1219 835 19 1h67l32 2a178 178 0 0 1 19 1 165 165 0 0 0 17 2l6 6 4 5c-59 13-114 5-169-8z"/><path fill="#fbe9e6" d="M1026 837h2v1l-8 15a1 1-76 0 1-1 1l-10-1h-7a1 1 0 0 1-1-2l7-14 2-2 16 2Z"/><path fill="#7c686b" d="M1026 837h4q1 4-1 6l-5 10c-1 3-5 2-8 1l-7-1h10a1 1-76 0 0 1 0l8-15v-1h-2Z"/><path fill="#e2bdc4" d="M392 840c2 5 4 10 8 12l1 1c3-1 6 0 8 1l11 5 14 1c5 0 9-1 13-3h1v-1l4-2v-1l-2-4v-7c5 12 12 24 20 34 35 25-11 29-25 21l-10-10c-14-6-27 7-41-21-4-8-5-17-2-26z"/><path fill="#f5d9da" d="M788 844h9c1-1 2 1 1 1l-2 3v1c1 6 9 4 13 2 0-1 0-1 0 0v2c-6 1-6 8 0 8 3 0 6-1 8-4 0-1 0-1 0 0 0 2-1 4-3 5v1c-3 8 4 7 9 7 1-1 1 0 1 1 0 4 1 6 4 6l1 1c2 1 3 2 2 4v10c-27 43-95 35-108 30-10-4-15-12-13-24 6-40 57-54 78-54Z"/><path fill="#e6d3d1" d="M1215 844c5 1 11 2 34 3l49 1c17-.3 34.1.7 51 3l33.7.9 2.3 4.1-9 4a934 934 0 0 1-31 14 844.4 844.4 0 0 1-16 8l-16-1c-5-.4-10-.8-15-1-21.7-.9-43.3-1.9-65-3a50 50 0 0 0-5 0l-61-5-1-1 4-1 1-1 14-8c12-5 22-9 29-17z"/><path fill="#fff" d="M575 871c-2 87-105 40-96-7 9-11 21-17 35-17 22-2 45 9 61 24zm202-25 11 2c3 1 7 3 13 11l13 16c3 2 4 5-3 11-7 7-9 8-16 12s-12 6-20 8-14 1-23-2c-8-2-20-14-20-14-3-5-5-11-6-18 14-14 31-23 50-26z"/><path fill="#bc969c" d="M915 846h16l2 1 2-1-1 2q-9 1-19-2Zm35 3h-5 6-1Z"/><path fill="#ffccce" d="m867 849-10 28.1-5-.1h-1a9 9 0 0 0-6-5v-2l7.3-15.4 4.7-5.6c2.7 2 6 2 10 0z"/><path fill="#2b2c51" d="m900 864-3 8a2 2 0 0 1-2 2 216 216 0 0 0-16-2c-4-1-7-3-4-7l8-14a2 2 0 0 1 2-1l19 2a2 2 0 0 1 1 1l-5 11z"/><path fill="#67aad6" d="m894 870-18-1a1 1 0 0 1-1-2l9-15a1 1 18 0 1 1 0l18 1a1 1 0 0 1 0 1q-5 7-8 16h-1Z"/><path fill="#49343b" d="M925 875v3h-1c-3-2-5-1-8-1l-12-2c-3-1-4-2-3-5a367 367 0 0 1 9-16 1 1 0 0 1 1-1c8-1 16 0 24 2h6c7 0 14 0 21 2a1 1 0 0 1 0 1 6 6 0 0 0-2 4v1l-3 5c-2 3-4 6-4 9a2 2 0 0 1-3 2l-9-1c-7 0-10 0-13-5l7-17v-1a1 1 0 0 0-1 1 147 147 0 0 0-9 18v1z"/><path fill="#fbe9e6" d="m929 855-8 16h-18v-1l8-15 1-1 17 1Z"/><path fill="#eba4ae" d="m1067 855 57 4 25 2 14 1h10l3 1-15 10-21-2a5939 5939 0 0 1-79-5z"/><path fill="#bc969c" d="M929 855h3a1 1 25 0 1 0 2l-8 15a1 1-81 0 1-1 1l-2-2 8-16Z"/><path fill="#fbe9e6" d="M959 860q-2-1-3 1l-7 12-3 2-14-1-1-1a1 1-47 0 1 0-1l8-15a1 1 16 0 1 1-1l18 2h1l-1 2Z"/><path fill="#3d1f1f" d="m968 858-9 18 1 1 1 1 19 1h1l9-19h1l1 1-9 18c-1 3-3 3-6 2l-16-2c-4 0-5-2-3-5l7-14 1-2h2Z"/><path fill="#fbe9e6" d="m959 876 9-18 18 2a1 1 0 0 1 1 1l-8 14a4 4 0 0 1-3 2l-17-1Z"/><path fill="#602120" d="M995 862c1-2 1-3 3-3l20 1c8 2 2 11 0 15a39 39 0 0 1-7 10l-1 1-3-2h-1c-5 0-17 1-19-4l1-4a182 182 0 0 1 6-14z"/><rect fill="#eba4ae" x="-.5" y="-3.3" transform="rotate(25 -1550 2303)" width="1.1" height="6.6" rx=".4"/><path fill="#bc969c" d="m959 860-1 1-8 15a1 1-72 0 1 0 1l-14-2-4-1 13 1 4-2 7-12q1-2 2-1Z"/><path fill="#ffe4c7" d="m1019 863-10 16-1 1-6-1-13-1a1 1 0 0 1-1 0l9-17a1 1-74 0 1 1 0l21 2Z"/><path fill="#a43434" d="m1019 863 1 3-9 14-1 1-8-2 6 1 1-1 10-17Z"/><path fill="#f5d9da" d="m479 864 3 8c1 5 2 8 10 14l14 10 13 6c6 3 10 4 22 2 12-1 14-3 20-6 5-3 8-7 10-14l4-13c8 8 13 18 16 28 2 7-3 16-10 19l-11 4a129 129 0 0 1-46 0l-12-3c-15-5-31-15-37-30-1-4-2-7-1-11 1-5 2-10 5-14z"/><path fill="#b78493" d="M832 867q1 3-2 4a1 1 0 0 1-1-1l3-4Z"/><path fill="#7c686b" d="M1140 871h-2v1l4 1c-2 2-4 5 2 8l23 2 6-1 1 1-1 1h14v1l1 1h2c-2 3 2 0 5 1l1-1c1 0 1 0 0 0v-1l14 1 2-1 1-1 12-6 8 1 1-1-6-1h5l65 3 15 1a273 273 0 0 0 40 0v1l1 1h6l-8 5-15 13-44 13c-8 15-251-12-251-14l16-34 17 1h14l51 4z"/><path fill="#bc969c" d="M1060 868q9 2 18 1v1l-9 5-9-1-2-1-1-1 3-4Z"/><path fill="#fbe9e6" d="m1090 878-15-1v-1l8-6h1l20 1-13 7h-1Zm23 1-15-1-1-1c5-3 10-6 15-5h16v1l-11 6h-4Zm29-6 12 1v1q-6 1-11 5h-1l-4 1h-4l-15-1 9-5c4-3 9-2 14-2Zm31 9-6 1-23-2 10-4c2-2 3-3 5-3h8l16 2q1 0 0 0l-10 6Zm14 2h-14l1-1c6-2 8-7 16-7l13 1-16 7Z"/><path fill="#e66c5b" d="M845 879a2 1-86 0 1 1-2 2 1-86 0 1 2 2h-3Z"/><path fill="#fbe9e6" d="m1225 878-12 6v1l-2 1-15-1h-1a1 1 0 0 1-1-1l10-6 2-1 19 1Z"/><path fill="#f28a8f" d="m889 879-3 9h-1l-3-5a1 1 72 0 0-1 0h-4q0 5-3 10l-2 1-1-1q4-4 2-10c0-3-2-3-3-5l18 1Z"/><path fill="#e66c5b" d="M866 881c0 3 2 6-1 9a1 1-22 0 1-1-1l1-6v-1l-1-4h2v3Z"/><path fill="#bc969c" d="m1051 885 4-7 2 1 11-1a1 1 0 0 1 0 1c-4 3-7 7-12 5a1 1 41 0 0-1 0l-4 1Z"/><path fill="#715e64" d="M949 885q-2 0-2 2l-7 14c-1 2-1 2-3 2l-17-1h-1l-1-1h18a2 2-77 0 0 2-1l6-13 1-1 1-1-1-1-18-1h-1l-2 5q0-2-4 0v1l-4 6q-3 4-3 9-2-1-2-3l-1-1-1 1 2-4 1-3 6-11a1 1 0 0 0-1-2l-15-1q-4 0-6 2v-1q2-3 6-3l16 2h6l2 1 22 1q2 0 1 2v1Z"/><path fill="#fbe9e6" d="M1081 887c4-3 10-7 15-7l11 1v1l-12 7a1 1-52 0 1-1 0l-10-2h-18l-1-1 7-7 3-1 12 1 1 1-9 5v1a1 1 0 0 0 2 1Z"/><path fill="#a43434" d="M891 889h-4a1 1 0 0 0-1 1q0 5-3 8a1 1 0 0 1-2-1l2-6 2-2v-1h1l3-9h3a1 1 0 0 1 1 1l-2 9Z"/><path fill="#eba4ae" d="M336 879c5 1 7 4 6 7 0 2-1 3-3 4l-4 3a193 193 0 0 1-21 5l-9 1-14 1a433 433 0 0 1-24-1l-17-4a13 13 0 0 1-9-7l-1-5 7-2c1 5 3 9 8 10 6 3 15 4 32 5 17 0 29-1 40-4 7-2 8-6 9-13z"/><path fill="#fbe9e6" d="m1231 887-14-1v-1l10-6h1l21 2q1 0 0 0l-12 7-6-1Z"/><path fill="#f28a8f" d="m909 901-6-2h-1v-4l-1-1-6-1q-2 1-1-1l2-10q2-2 6-2l15 1a1 1 0 0 1 1 2l-6 11-1 3-2 4Z"/><path fill="#fbe9e6" d="M1268 889h-3l-20-1q-1 0 0 0c3-4 8-7 13-7l18 1v1l-8 6Zm-168-1 9-4c4-2 6-3 10-2l13 1v1l-10 5-4 1-18-1v-1Zm196 3-24-1v-1l9-7 29 2a34 34 0 0 0-10 6 6 6 0 0 1-4 1zm-381 9 9-12 2-5h1l18 1 1 1-1 1a2 2 0 0 0-1 1l-6 13a2 2 0 0 1-2 1c-11 1-12 1-21-1z"/><path fill="#f5d9da" d="M714 883c-5 8-4.6 19.9-2.6 29.9a799.5 799.5 0 0 1-120.4-.2c2.2-8.6 4.3-17.5-1-26.7h4l25 5c18 3 31 2 38 2l19-1 9-2 19-4z"/><path fill="#fbe9e6" d="m1142 892-17-1v-1l9-5c6-3 8-1 14-1h9v1l-7 4c-3 1-4 4-8 3Z"/><path fill="#3d1f1f" d="m945 901 7-14c2-3 4-4 8-3l11 1 8 1a1 1-59 0 1 0 1l-1 1-1 1-6 15c-2 2-1 6-5 6l-18-2h-3a1 1 2 0 1 0-1v-6Zm2 2v2l18 2a2 2-75 0 0 3-2l7-15 2-2v-1h-4l-16-2a2 2 0 0 0-2 1l-7 12-1 5Z"/><path fill="#7c4f59" d="M1357 884h10c4 1 7 1 8 4 2 3 1 9 0 12q0 3-3 4l-23 8-42 14c-7 2-13 5-20 5l-117-7h-5l-27-2-56-3-47-4q-1-2 1-2l10 1h15l26 2h5l52 3 36 2h4l6 1 19 1 20 1 37 2c9 0 18 2 27 0a1 1 0 0 0 1 0v-8l3-3v9l1 1 3-1 56-18 11-4 4-2 1-4v-3l-1-4c-1-2-4-1-6-1-16 6-30 12-48 17h-2a1 1 41 0 1 0-2l14-4 11-3 21-9h-15l-6-2v-1h16Z"/><path fill="#eba4ae" d="M894 933c27 2 53 2 79 6 8 2 19 2 24 2 29 3 31-26 37-26l9 1 39 3c-25 7-43 24-69 27-24 0-52 3-76-2-29-6-58-5-88-10-9-9-15-14-30-7-32 4-65 9-98 4-42-2-85 1-127-1-26 3-52 4-79 1-18-7-41-3-59-13-15-1-45-6-53-22 8-5 21-8 30-11 8 9 25 23 38 14 11-5 21 23 52 26 28 4 50 5 69-13 41 6 78 1 120 2 19 17 48 14 72 9 22-5 44-19 53-41 18 2 14 8 4 20-7 14 6 32 23 28z"/><path fill="#fbe9e6" d="m1328 893-25-2q-1 0 0 0l9-6 4-1 12 1 13 1q2 0 0 1l-12 6h-1Zm-355-6h2l-1 3-9 15c-1 2-2 1-4 1-5 0-10-1-14-3l1-5 7-12a2 2 0 0 1 2-1zm175 6v-1a456 456 0 0 0 10-5 9 9 0 0 1 4-1 104 104 0 0 1 20 0v1l-8 6c-2 2-4 1-7 1a11 11 0 0 1-3 0c-5-1-10-2-16-1z"/><path fill="#49343b" d="m982 892-7 12q-2 3 1 3l20 2h1a2 2-74 0 0 2-1l6-12 1-1 1-2a1 1 81 0 1 0-1l1-1-1-1h-1l-2-1-18-2-2 2v-2c4-2 7-1 11-1l10 1c5 1 6 3 4 8l-9 18a2 2 20 0 1-2 1l-20-3c-5 0-9-3-6-8q4-6 6-13h1l3 2Z"/><path fill="#fbe9e6" d="m1190 886 5 1 12 1q1 0 0 0c-3 3-9 8-13 7l-19-1q-1 0 0 0l10-7 5-1Z"/><path fill="#bc969c" d="M973 887h4v1l-2 2-7 15c-.4 1.2-2 2.2-3.1 1.5L947 905v-2l14 2c2 0 2 0 3-2 3.3-4 6-8.7 8-14l2-1v-1z"/><path fill="#fbe9e6" d="M1347 887h15v1q-11 3-21 8l-11 3 7-7 4-3 6-2Z"/><path fill="#a0a878" d="m1006 890-10 19-20-2q-3 0-1-3l7-12 2-3 2-2 18 2 2 1Z"/><path fill="#bc969c" d="M1050 888c2 2 6 0 8 0l1 1-10 6-1 1c-1.3 0-2 .7-2 2l1 1c4.7-.7 8.7-.3 12 1-2 0-3 .7-3 2-.7 1.3-.3 2 1 2l47 3 64 4 19 1 15 1 37 3c16 0 27 1 41 3l14-1v8a1 1 0 0 1-1 0c-9 2-18 0-27 0l-37-2-20-1-19-1-5-1h-4l-36-2-53-3h-5l-26-2h-15l-10-1c3.5-12 4.7-17.7 14-25z"/><path fill="#fbe9e6" d="m1186 905-28-1v-1l12-7h4l22 2a2 2-57 0 0 2 0l15-10h1l21 1v1l-10 7q-11 1-21-1h-2l-16 9h-1Z"/><path fill="#fbe9e6" d="M1372 889q-18 8-37 14l-19 6-19 6-3 3-14 1a847 847 0 0 0-41-3l-37-3-15-1-19-1-64-4-47-3q-2 0-1-2 0-2 3-2l41 2 21 2 20 1c20 2 38 4 61 4l19 1h9l13 2 40 3c3 1 7 1 10-1q12-6 25-9c18-4 32-11 48-16 2-1 5-2 6 1Zm-312 7h-6q-1 0 0 0l3-3 2-1 4-2c3-2 11-1 15 0h9a1 1 0 0 1 0 1l-12 6v1l-15-2Z"/><path fill="#bc969c" d="m1372 889 1 4v3l-1 4-4 2-11 4-56 18-3 1-1-1v-9l19-6 19-6q19-6 37-14Z"/><path fill="#454b2c" d="M1006 890h1l1 1-1 1a1 1 81 0 0 0 1l-1 2-1 1-6 12a2 2-74 0 1-2 1h-1l10-19Z"/><path fill="#fbe9e6" d="m1255 899-22-1a1 1 0 0 1-1-1l10-7 23 1a1 1 0 0 1 0 1l-10 7Zm-177-1 3-1 8-5 5-1 17 1v1l-10 5-3 1-20-1h-1 1Z"/><path fill="#786a71" d="m840 906.8 9.3-18 57 16.4L905 916l-60-5c-2.1.1-5.8-2.2-5-4.2z"/><path fill="#e66c5b" d="m877 901-19-2c-1 1-2-10-2-10l24 10-3 2zm17-9 1 1c0 2-1 9-4 9a1 1 0 0 1-1-1l3-9h1z"/><path fill="#fbe9e6" d="m1293 893-9 7a5 5 29 0 1-3 1l-23-1v-1l8-5 5-2 22 1Zm-189 7v-1q5-2 9-6l1-1h2l26 2-12 6-1 1a1 1-67 0 1-1 0l-24-1Zm205 3-20-2a1 1 0 0 1 0-1l9-6a1 1 0 0 1 1 0l26 1a1 1 0 0 1 0 1l-16 7a1 1 0 0 1-1 0Z"/><path fill="#340d0a" d="m889 417 3 3c4 4 8 8 10 14l3 7 3 15 2 2-2 2v2a185 185 0 0 1-17 55l-3 6-9 18c-2 3-4 10-8 14 0 2-2 2-4-1v-1l2-3 10-16 15-33 3-9 3-9c4-10 5-21 4-32 0-5-3-10-6-15s-12-18-24-21c-3-2-3-2-7 1l-5 7-1 2-1 1c-7 9-11 19-14 30-3 9-4 19-4 29l2 6c0 1 0 1 0 0 4-4 9-6 14-8 2 0 2 0 1 2h-1c-4 2-9 4-12 8l-3 7-3 6a2304 2304 0 0 0-16 29c6.4-1.5 16.1.1 21.2 2.5l-3 1.3-18.2-.2-8 3.4-3 3c-2 0-3 1-3 2-3 4-4 8-5 13l1 9 1 11 1 7 9 32c3 10 1 10-1 15-9 10-17 21-28 30a70 70 0 0 1-54 13v5c4 3 5 7 3 10-3 4 0 4 0 4l1 1 1 3-1 1 1 1c3 3 4 7 1 11 2 1 4 3 4 5v1c3 1 4 4 3 7v1c3 2 4 5 3 8l1 1c4 2 5 5 3 9v1l2 1c3 3 2 6 0 10h1c4-2 7 5 4 8 3 1 6 7 5 9 3 0 5 6 4 8 3 1 7 6 5 9 2 0 7 7 4 10 3 0 8 6 5 9 8 0 6 5 5 8 5 0 5 5 4 6 15 0 7 11 7 11s13-6 5 6c8-8 6 1 7 5l6 3c1 3 4 5 6 7 3 1 4 3 4 8 5-3 9 1 10 5 2 1 1-2 3 0h1l3-5 4-5 1-2 3-2v2c-2 5-4 9-8 13l1 2c2 1 4 2 5 5h1l3-3 12-25 22-43 14-25 20-35 6-10c4-3 8-4 12-4l10 1 15 1 1-1-1-17h2l1 18c28 2 55 3 83 3h6l29 2c9 0 11 4 16 12 3 5 6 9 7 13 1 2 0 4-1 6l-1 2v2l-1 2c-27.3 52.8-52.2 107-83 158-6 7-16 11-25 9l-3-1h-1l-2 1h-2l-2-2-1 1-4 2c-4-3-9-4-14-3l-4-1-1-1-70-5-45-3c-5-1-10-12-12-20-1-4 5-14 8-20h1l1-2c-15 4-10-9-10-9s-9 7-10-3c-4 1-5-2-5-7-4 1-12 1-9-7v-1l3-4c-1 0-5 3-8 3-6 0-7-6 0-10-6 3-12 4-13-2v-1l2-3c-13 2-16-3-7-10-5 1-9 0-11-3v-2l6-5c-1 0-9 3-11-1-1-5 8-5 6-7s-11 3-12-3c4-2 10-6 8-6-1 0-11 3-11-2 0-4 8-6 6-7-2 0-9 4-11-2 0-3 5-5 7-7-3 1-8 3-10 0-5-4 6-8 6-8l-9 1c-3-1-5-3-3-6l1-1c3 0 7-3 6-4s-8 4-10 1c-4-5 5-9 5-10h-10c-2-1-3-3-1-4 1-2 7-4 8-5 0 0-10 4-11-2l1-4 6-3-6 1c-6 0-8-6 1-9-8 0-9-1-9-5l1-1 6-6c-1 0-6 3-9 2-2 0-3-2-3-5l5-5c-9 4-15-6 2-9-2 0-8 1-11-1-3-1-2-7 5-8-7-1-7-2-7-4-1-2 1-5 3-5 1 0-4 0-6-2 0-2 0-4 2-5 1 0 1 0 0 0l-1-2v-1l1-1 1-1v-4h-1c-4-1-9-5-13-7h-1c-2 0-4 0-5-2-6-3-11-8-15-13-3-4-4-8-2-13l9-21c4-8 10-16 17-24 5-4 10-9 17-13 6-4 15-4 22-1l11 8 12-5 17-10 5-3c2-1 4-3 5-6l2-8c2-8 7-16 14-20l4-3c5.3-7 10-14.3 14-22l3.5-9.3c-1.2-5-4.5-5.7-6.5-6.7l-4-2c-7-2-12-5-14-12-3-10-2-21 0-31 3-11 8-22 13-33l4-5 6-8v-1l-2-2 1-2 4 3h1c5-6 10-6 17-3l14 5 2 4 1 1 8 4 6 4zm-73 57c-1 7 1 11 7 13l9 4 8 3h1c-2-7-3-15-2-22l3-17a156 156 0 0 1 15-33l9-12v-2l-2-1-15-5h-1c-8 5-15 12-20 21l-6 13c-4 12-7 25-6 38zm-41 139h-2c1-4 0-8-2-11-3-5-7-3-12-2l-4 1c-13 11-24 23-32 38-4 5-8 11-11 19l-2 5 1 1c2 2 8 6 12 5h1l4-7c3-4 8-1 10 1 2 3-1 6-2 9v2c19 2 36-4 51-15 10-8 18-17 26-27 1-2 2-4 1-6l-6-19-3-12c-1-4-1-9-3-13l-1-9c1 0 0-1 0 0l-11 11-16 16h-1l5 12v1zm-10-21 6 6h1c8-5.4 13.6-12.7 20.4-19.7L791 577Zm-62 22-5 7c-4 7-8 13-10 21s10 15 15 19h3a228 228 0 0 1 42-60h1c4-3 9-5 14-5v-1l-8-5-3-2c-3-3-7-5-11-6-6 0-13 4-17 9-8 7-15 15-21 23zm161 265 1 3v1l-1 6 1 1c3-3 1-6 1-10l1-2h1l2 1c2 1 3 1 3 4 1 4 1 7-2 10l1 1 2-1c2-3 3-7 3-10h4l4 5v1l-2 2-2 6 2 1c2-2 3-5 3-8l1-1h4c-1 1 0 3 2 3l-3 9 1 1c3 0 4-7 4-9l6 1 1 1v4l6 1h2l1 1 2 3 3 4h2v-4l-2-3c-1-1-2-4 0-6l4-6v-1h4l-6 11v2l1 1h1l17 1c2 0 2 0 3-2a355 355 0 0 0 9-16v3a500 500 0 0 0-10 19l-16-1c3 2 6 3 10 3v1c-2 3-2 6-1 8h2l1-5 1-1 6 3v7l-3 5 1 1 3-5v1l1-1v-3l1-3h1l5 1c3 1 1 8 0 10h1l1-1h1v-5c0-2 1-2 3-2l5 1v1l-1 7c0 1 1 2 2 1l1-7 1-1 6 1 2 2-1 4h1l1-4 1-1 30 1h1l23-45c20-43 42-84 64-127l2-6v-1l-5-4-13-1-37-1-17-1h-4l-50-2-28-1c-7-1-10 0-13 6l-40 72-9 18a669 669 0 0 0-21 45c2 0 4 0 6 2zm240-107c1-2 3-3 2-7l-7-15h-2l-10 21-12 22-33 67-2 5-26 51-6 11v1l2 11v1c6-3 13-7 15-14 .5-1.6 56.2-107 79-154zM849 892l-7 15c0 2 1 4 3 4l60 5-1-4h-1l-1 1h-2l-6-6h-6l-1-1c-1-2-3-4-6-5l-1 2-20-1c-5-1-4-5-4-9l-6-2zm10 6 18 3v-1l-2-3h-6c-3-1-4-4-6-5h-1c-5 1-4 1-4 6zm63 20c0 1 0 1 0 0 2-2 3-5 1-7l-2-5v6zm-8-4h1v-2l-1-1-2-3h-1v5zm93 25-2-11-1-1-17 1s-1 0 0 0l3 5v1l2 4 11 2 3-1zm-24-8 2-2v-1h-4l-1 1z"/><path fill="#602120" d="M916 895q-2 4 0 6l2 3v4a1 1-52 0 1-2 0l-3-4q0-6 3-9Z"/><path fill="#fbe9e6" d="m1155 903-25-1v-1l3 1 1-1 9-6 2-1 19 2h2l-10 7h-1Zm56 4c-6-1-13-2-20-1v-1l10-6 5-1 18 2q1 0 0 0l-12 6-1 1Z"/><path fill="#a43434" d="M902 899h1l-1 6q0 3-3 3a1 1 21 0 1 0-1l3-4v-4Z"/><path fill="#fbe9e6" d="m1216 908 10-7a7 7 0 0 1 5-1l20 1v1l-11 7c-8-1-17-3-24-1Zm42-7 24 2v1l-11 6h-1q-13 1-25-1l11-7a3 3-60 0 1 2 0Z"/><path fill="#602120" d="m908 904 1-1-1 6a1 1 0 0 1-1 0q-1-3 1-5Z"/><path fill="#f5d9da" d="M204 903c20 16 47 21 70 32 42 4 84 20 125 20 10-3 45 8 39 5 36 8 74 5 111 11 66 7 133 14 199 11 44 1 89 3 132 7 46-4 92 1 137-4 36 2 70-4 106-3 72-7 144-10 216-16 32-5 64-7 96-14 43-11 87-13 128-27 3 7-59 20-83 25a3800 3800 0 0 1-357 39 4202 4202 0 0 1-785-35c-44-10-92-13-129-41l-3-4z"/><path fill="#fbe9e6" d="M1299 904h7v1l-15 5-7 2h-9v-1l11-7h13Z"/><path fill="#7c686b" d="m922 918-1-6v-6c2 1 2 3 3 5q2 4-1 7h-1Zm-8-4-3-1a1 1 8 0 1 0-1v-4h1l2 3a1 1-71 0 1 1 1v2h-1Z"/><path fill="#49343b" d="m849 926-4-5-1-7 66 5c12 2 21 8 32 12a338 338 0 0 0 15 5l-17-2-72-5c-8-1-14 0-19-3z"/><ellipse fill="#602120" transform="rotate(122 211 718)" rx="2.4" ry=".8"/><path fill="#715e64" d="m942 922 1 1-3 5a1 1 86 0 1-1-1l3-5Z"/><path fill="#f5d9da" d="m852 935-8-2q-3 0-3-3a1 1 71 0 0-2-1h-1v-1l2-1a1 1 0 0 0-2-2h-7l-3 2h-3l-7 2-5 1h-24l34-4a1 1 0 0 0 1-1h1l5-1 3-1q3-1 6 1a1 1 12 0 1 1 0v4l7 5h1l4 2Z"/><path fill="#49343b" d="m1005 928 2 11-3 1-12-2-1-5-1-1-3-4 17-1 1 1Z"/><path fill="#602120" d="m983 931-3-2c0-.6.4-1 1-1h4c.2.3.2.7 0 1zm-73-473 1 2c29 27 52 56 77 92l9 15 13 22 9 21 9 25c4.4 16 7 32.4 8 49v10c-2 8-4 15-9 22l-8 4c-16 8-35 4-51-4h-1c-11-6-20-13-27-20-9-9-18-20-27-33l-3-4-17-29-3-7h-1l-1 9c-7 25-24 47-47 59v1l11 28c7 19 11 39 13 60 2 17 1 35-2 48l-6 21-4 8 1-2h-1l-3 2-1 2-4 5a137 137 0 0 0 15-89v-7a596 596 0 0 0-11-42l-12-31-3-1c-11 4-23 4-34 0v-1c30 3 59-13 73-41a79 79 0 0 0 6-77c-6-12-15-22-27-29-7-4-15-6-23-7l-11 2-2 1 8.9-5.2L842 538l2-1 6 3 16.5 11.5C873 556.3 882 572 882 572s7 16 7 22l2 18 1 7c1 4 3 7 5 9l6 12 24 35c16 20 38 39 64 44 13 3 27 0 35-11 3-5 5-10 5-15a178 178 0 0 0-21-92l-15-29a538 538 0 0 0-87-112ZM457 414l3 3-18 15a879 879 0 0 0-96 105c-12 16-23 33-33 52l-6 12c-9 18-16 38-20 57-2 9-3 17-3 26 0 15 5 30 21 35 8 2 17 2 26 0l9-3c26-12 47-34 63-57l11-16 20-35c12.1-23.5 23-47.6 33-72v-1l-4-24 5-1v2l2 9 5 17 10 17c13.4 20.6 37.7 31 60 39 7 3 14 4 21 5l13 4 7 3-8-1a203 203 0 0 1-59-15l-3 4-6 8c-8 10-15 21-21 32l-13 23a365 365 0 0 0-30 80l-3 21a159 159 0 0 0 27 114h1c6-18 24-29 43-30 18 1 34 5 48 14 12 7 22 17 28 30 4 6 6 13 5 21l-1 2 1 2c38 4 76.2 3.7 114-1-2-10 0-19 5-27 12-20 31-35 54-40l6-1 5-2 8-1c4 1 5 3 1 5l-8 2c-20 2-39 11-54 26-7 7-11 16-14 26-2 12 4 18 14 22l9 2c32 5 75-1 94-32l2-8c0 2 10-11 11-9l-7 14c-6 14-18 25-32 31a117 117 0 0 1-73 8c-7-2-13-6-18-11h-1c-31 3-61 3-92 2h-9c-4 0-8-2-12-1h-1l-4-2h-1l-7 7c-4 3-10 5-15 6-15 2-30 2-44 0-15-3-29-8-40-17l-10-10h-1c-4 4-9 3-15 3-11 1-21-5-26-15l-2-1-4 1c-19 2-33-6-40-23l-2-9c-1-5 0-10 1-15s4-9 7-13v-1c-8-4-11-15-11-23-1-13 4-25 12-34 5-6 12-10 19-11l5 1 1-1c-1-5 3-11 6-14l4-3h11v-4c5-21 11-41 20-61l5-11 12-21 1-4 28-44c3-3 5-6 5-9-1-3-3-5-6-7-10-6-19-14-26-24l-5-7-4-9h-2l-6 15-19 43a377 377 0 0 1-71 101l-3 2c-6 6-14 11-22 14v2l-1 1h-2c-6 2-13 5-20 6l-10 1h-8l-1 1c-7 8-12 17-15 28-1 2 2 5 3 7-8-3-5-10-2-15 3-8 7-15 12-21l1-2-1-1c-4 0-8-2-11-4-4-3-8-8-10-14l-1-2v-1l-1-4v-30c1-10.5 3-20.9 6-31l13-34 3-8a390 390 0 0 1 46-70l2-3 20-24 3-4 32-34 4-3 15-15 2-1c10-9 18-18 30-27zm-68 398c2 5 4 9 7 11l2 3v3a33.8 33.8 0 0 0-4 37c7 13 21 20 36 17l4-2 4 7c2 2 4 5 7 6 7 6 20 5 29 3l-4-10c-1-3 0-8-2-10-8-10-14-21-19-33l-2-4c-3-8-5-17-6-25l-3-23a157 157 0 0 1 1-44l-1-2c-5 0-9 0-12 5-1 2-3 5-3 8v6h-1c-4-2-8-2-12-1-18 8-25 30-20 48zm90 52c-3 4-4 9-5 14-1 4 0 7 1 11 6 15 22 25 37 30l12 3c15 2 31 3 46 0l11-4c7-3 12-12 10-19-3-11-9-20-16-28a84 84 0 0 0-61-24c-14 0-26 6-35 17z"/></svg>