<svg viewBox="0 0 24 24" xmlns="http://www.w3.org/2000/svg">
    <path
        style="stroke-width:1;stroke-linecap:round;stroke-linejoin:round"
        d="M6.23374.70117c-.38146-.0009-.69123.30799-.6914.68946v2.57226H2.9857c-.3807.00017-.68929.30875-.68946.68945.00017.3807.30875.68929.68946.68946h2.55664v2.49218c.00017.38147.30994.69037.6914.68946.3807-.00017.68929-.30875.68946-.68946V5.3418h2.50586c.3807-.00017.68928-.30875.68945-.68946-.00017-.3807-.30875-.68928-.68945-.68945H6.9232V1.39063c-.00017-.3807-.30875-.68929-.68946-.68946Zm4.61915 4.9961v5.61328h-4.7754c-.34313-1.24302-1.30491-2.25-2.65234-2.25-1.61577 0-2.8835 1.32368-2.8835 2.93945s1.26773 2.93945 2.8835 2.93945c1.34743 0 2.3092-1.00698 2.65234-2.25h4.7754v5.61328h12.60546V5.69727Zm1.38085 1.38086h9.84375v9.84375h-9.84375zm-8.80859 3.36132c.87022 0 1.56055.69033 1.56055 1.56055 0 .87022-.69033 1.56055-1.56055 1.56055-.87022 0-1.56055-.69033-1.56055-1.56055 0-.87022.69033-1.56055 1.56055-1.56055z" />
</svg>