<svg width="24mm" height="24mm" viewBox="0 0 24 24" xmlns="http://www.w3.org/2000/svg">
    <path
        style="stroke-width:1;stroke-linecap:round;stroke-linejoin:round"
        d="M11.9834 4.52344a.87874.87874 0 0 0-.8789.8789v2.07618H9.06542a.87874.87874 0 0 0-.8789.8789.87874.87874 0 0 0 .8789.8789h2.03906v2.00196a.87874.87874 0 0 0 .8789.87695.87874.87874 0 0 0 .87892-.87695V9.23633h2.03906a.87874.87874 0 0 0 .8789-.8789.87874.87874 0 0 0-.8789-.87891H12.8623V5.40234a.87874.87874 0 0 0-.8789-.8789Zm-8.5918 6.97265c-1.7179 0-3.1289 1.41101-3.1289 3.12891 0 1.7179 1.411 3.1289 3.1289 3.1289 1.39292 0 2.3432-.97534 2.74414-2.24218.03356.0165-.03148-.01991.00391-.0078h11.70898c.0457-.01457-.0427.0277 0 .0059.39718 1.27302 1.36243 2.24414 2.75977 2.24414 1.7179 0 3.1289-1.411 3.1289-3.1289 0-1.7179-1.411-3.12891-3.1289-3.12891-1.38758 0-2.34457.98865-2.75 2.24804-.04663-.01369.05416.0078.0059.002H6.1436c-.40094-1.26684-1.35904-2.25-2.75195-2.25zm0 1.75782c.7681 0 1.3711.603 1.3711 1.37109 0 .76809-.603 1.3711-1.3711 1.3711-.76809 0-1.3711-.60301-1.3711-1.3711 0-.76809.60301-1.3711 1.3711-1.3711zm17.2168 0c.76809 0 1.3711.603 1.3711 1.37109 0 .76809-.60301 1.3711-1.3711 1.3711-.76809 0-1.3711-.60301-1.3711-1.3711 0-.76809.60301-1.3711 1.3711-1.3711z" />
</svg>