<svg viewBox="0 0 24 24" xmlns="http://www.w3.org/2000/svg">
    <path
        style="stroke-width:1;stroke-linecap:round;stroke-linejoin:round"
        d="M17.6914.70117c-.3807.00017-.68928.30875-.68945.68946v2.57226H14.4961c-.3807.00017-.68928.30875-.68945.68945.00017.3807.30875.68929.68945.68946h2.50586v2.49218c.00017.3807.30875.68929.68946.68946.38146.0009.69123-.30799.6914-.68946V5.3418h2.55664c.3807-.00017.68929-.30875.68946-.68946-.00017-.3807-.30875-.68928-.68946-.68945h-2.55664V1.39063c-.00017-.38147-.30994-.69037-.6914-.68946ZM.4668 5.69727v12.60546h12.60547v-5.61328h4.77539c.34314 1.24302 1.30491 2.25 2.65234 2.25 1.61577 0 2.9414-1.32368 2.9414-2.93945S22.11578 9.06055 20.5 9.06055c-1.34743 0-2.3092 1.00698-2.65234 2.25h-4.7754V5.69727H.4668zm1.38086 1.38086h9.84375v9.84375H1.84766ZM20.5 10.43944c.87022 0 1.56055.69033 1.56055 1.56055 0 .87022-.69033 1.56055-1.56055 1.56055-.87022 0-1.56055-.69033-1.56055-1.56055 0-.87022.69033-1.56055 1.56055-1.56055z" />
</svg>