<svg width="24mm" height="24mm" viewBox="0 0 24 24" xmlns="http://www.w3.org/2000/svg">
    <path
        style="stroke-width:1;stroke-linecap:round;stroke-linejoin:round"
        d="M23.6621 7.5254v8.9492h-8.9492v-3.78515H9.125v3.78516H.1758V7.52539H9.125v3.78516h5.5879V7.52539Zm-1.3789 1.3789h-6.1914v6.1914h6.1914zm-14.5371 0H1.55468v6.1914h6.1914zm-3.09766.60547c.38147.00016.69036.30994.68945.6914v1.19922h1.1914c.38071.00017.68929.30875.68946.68945-.00017.3807-.30875.68929-.68945.68946H5.33789v1.15234c-.00017.3807-.30875.68928-.68945.68945-.3807-.00017-.68929-.30875-.68946-.68945V12.7793h-1.1621c-.38071-.00017-.68929-.30875-.68946-.68946.00017-.3807.30875-.68928.68945-.68945h1.16211v-1.19922c-.0009-.38146.30799-.69124.68946-.6914z" />
</svg>