<svg width="24mm" height="24mm" viewBox="0 0 24 24" xmlns="http://www.w3.org/2000/svg">
    <path
        style="stroke-width:1;stroke-linecap:round;stroke-linejoin:round"
        d="M11.56 2.5 9.37 4.13c-.81.66.2 1.59.83 1.1l1.04-.77V7H6.96v4.29H4.42l.78-1.05c.52-.79-.53-1.5-1.1-.82L2.45 11.6c-.18.31-.17.57 0 .82l1.63 2.19c.54.62 1.63-.22 1.1-.83l-.83-1.11h2.6v4.35h4.28v2.55l-1.04-.78c-.75-.53-1.54.53-.82 1.1l2.18 1.64c.3.18.6.17.82 0l2.19-1.63c.73-.64-.23-1.56-.83-1.1l-1.12.83v-2.6h4.36v-4.36h2.65l-.83 1.11c-.54.68.67 1.43 1.1.83l1.63-2.19c.21-.27.16-.59 0-.82L19.9 9.42c-.55-.7-1.65.07-1.1.82l.78 1.05h-2.6V7h-4.36V4.4l1.12.84c.75.55 1.56-.6.83-1.1L12.38 2.5a.6.6 0 0 0-.82 0zM8.34 8.38h7.26v7.26H8.34Z" />
</svg>