<svg viewBox="0 0 24 24" xmlns="http://www.w3.org/2000/svg">
    <path
        style="stroke-width:1;stroke-linecap:round;stroke-linejoin:round"
        d="M6.56 5.61c-1.1 0-1.97.9-1.97 2S5.46 9.6 6.56 9.6a2 2 0 0 0 0-3.99Zm5.44 0a2 2 0 1 0 0 3.99 2 2 0 0 0 0-3.99Zm5.44 0a2 2 0 1 0 0 3.99 2 2 0 0 0 0-3.99zM3.39 13.86a3.14 3.14 0 0 0-3.13 3.13 3.14 3.14 0 0 0 3.13 3.13c1.4 0 2.34-.98 2.74-2.25.04.02-.02-.02.01 0h11.71c.05-.02-.04.02 0 0 .4 1.27 1.36 2.25 2.76 2.25a3.14 3.14 0 0 0 3.13-3.13 3.14 3.14 0 0 0-3.13-3.13c-1.39 0-2.35.99-2.75 2.25-.05-.02.05 0 0 0H6.16c-.4-1.27-1.36-2.25-2.76-2.25zm0 1.76c.77 0 1.37.6 1.37 1.37 0 .76-.6 1.37-1.37 1.37-.77 0-1.37-.6-1.37-1.37 0-.77.6-1.37 1.37-1.37zm17.22 0c.77 0 1.37.6 1.37 1.37 0 .76-.6 1.37-1.37 1.37-.77 0-1.37-.6-1.37-1.37 0-.77.6-1.37 1.37-1.37z" />
</svg> 