<svg width="24mm" height="24mm" viewBox="0 0 24 24" xmlns="http://www.w3.org/2000/svg">
    <path
        style="stroke-width:1;stroke-linecap:round;stroke-linejoin:round"
        d="M9 3.6c-1 0-1.6.5-1.6 1.2V8c0 .7.7 1.2 1.5 1.2H9l-2.4 4.1a3.7 3.7 0 0 0-1.3-.2 3.7 3.7 0 0 0-3.7 3.7 3.7 3.7 0 0 0 3.7 3.6A3.7 3.7 0 0 0 9 16.8 3.7 3.7 0 0 0 7.9 14l2.9-4.9H13l3 5a3.7 3.7 0 0 0-1 2.6 3.7 3.7 0 0 0 3.6 3.6 3.7 3.7 0 0 0 3.7-3.6 3.7 3.7 0 0 0-3.7-3.7 3.7 3.7 0 0 0-1.3.2l-2.5-4c.8 0 1.5-.6 1.5-1.3V4.8c0-.7-.7-1.2-1.6-1.2Zm9.7 11a2.2 2.2 0 0 1 2.2 2.2 2.2 2.2 0 0 1-2.2 2.1 2.2 2.2 0 0 1-2.2-2.1 2.2 2.2 0 0 1 2.2-2.2zm0 1.2a1 1 0 0 0-1 1 1 1 0 0 0 1 1 1 1 0 0 0 1-1 1 1 0 0 0-1-1z" />
</svg> 