<svg width="24mm" height="24mm" viewBox="0 0 24 24" xmlns="http://www.w3.org/2000/svg">
    <path
        style="stroke-width:1;stroke-linecap:round;stroke-linejoin:round"
        d="M12 2.486c-5.246 0-9.514 4.268-9.514 9.514 0 5.246 4.268 9.514 9.514 9.514 5.246 0 9.514-4.268 9.514-9.514 0-5.246-4.268-9.514-9.514-9.514zm0 1.381c4.5 0 8.133 3.633 8.133 8.133 0 4.5-3.633 8.133-8.133 8.133A8.122 8.122 0 0 1 3.867 12C3.867 7.5 7.5 3.867 12 3.867ZM8.512 8.75a1.58 1.58 0 0 0-1.573 1.572c0 .862.71 1.57 1.573 1.57.862 0 1.572-.708 1.572-1.57A1.58 1.58 0 0 0 8.512 8.75Zm6.976 0a1.58 1.58 0 0 0-1.572 1.572c0 .862.71 1.57 1.572 1.57.863 0 1.573-.708 1.573-1.57a1.58 1.58 0 0 0-1.573-1.572zm-9.27 5.018-.001.502c0 1.28.692 2.424 1.746 3.22 1.054.796 2.476 1.27 4.037 1.27 1.56 0 2.984-.476 4.037-1.272s1.746-1.938 1.746-3.218l-.002-.502H6.22z" />
</svg> 