<svg width="24mm" height="24mm" viewBox="0 0 24 24" xmlns="http://www.w3.org/2000/svg">
    <path
        style="stroke-width:1;stroke-linecap:round;stroke-linejoin:round"
        d="M12 2.486c-5.246 0-9.514 4.268-9.514 9.514 0 5.246 4.268 9.514 9.514 9.514 5.246 0 9.514-4.268 9.514-9.514 0-5.246-4.268-9.514-9.514-9.514zm0 1.381c4.5 0 8.133 3.633 8.133 8.133 0 4.5-3.633 8.133-8.133 8.133A8.122 8.122 0 0 1 3.867 12C3.867 7.5 7.5 3.867 12 3.867ZM8.512 9.801a1.58 1.58 0 0 0-1.573 1.572c0 .862.71 1.572 1.573 1.572a1.58 1.58 0 0 0 1.572-1.572 1.58 1.58 0 0 0-1.572-1.572zm6.976 0a1.58 1.58 0 0 0-1.572 1.572c0 .862.71 1.572 1.572 1.572a1.58 1.58 0 0 0 1.573-1.572 1.58 1.58 0 0 0-1.573-1.572zm-3.627 4.732c-.3.004-.61.033-.927.09-1.016.183-2.104.667-3.176 1.617a.567.567 0 0 0-.047.801.567.567 0 0 0 .799.049c1.872-1.66 3.534-1.613 4.826-1.203a5.983 5.983 0 0 1 2.135 1.218.567.567 0 0 0 .802-.013.567.567 0 0 0-.013-.803s-1.013-.987-2.582-1.484a5.78 5.78 0 0 0-1.817-.272z" />
</svg> 