<svg viewBox="0 0 24 24" xmlns="http://www.w3.org/2000/svg">
    <path
        style="stroke-width:1;stroke-linecap:round;stroke-linejoin:round"
        d="M12.12 3.61c-.86-.01-1.7.4-2.26 1.04-.13.08-.14.18-.03.28.17.28.32.63.68.69.36.1.58-.26.86-.4.45-.26 1.1-.28 1.45.12.29.37.1.9-.22 1.2-.45.43-1.12.7-1.31 1.35-.09.33-.02.67-.02 1.02l.02.74h1.3l.1-1.35c.34-.37.83-.6 1.16-1 .72-.77.82-2.1.1-2.9a2.42 2.42 0 0 0-1.83-.79Zm-.18 6.73a1 1 0 0 0-.97 1.23c.12.62.9.95 1.43.64.55-.26.7-1.06.3-1.5a1.01 1.01 0 0 0-.76-.37zM3.4 11.5a3.14 3.14 0 0 0-3.13 3.12 3.14 3.14 0 0 0 3.13 3.13c1.4 0 2.71-.91 2.93-2.2l11.5-.07c.13 1.06 1.39 2.27 2.78 2.27a3.14 3.14 0 0 0 3.13-3.12 3.14 3.14 0 0 0-3.12-3.13 2.8 2.8 0 0 0-2.8 2.25l-11.57.05c-.1-1.32-1.46-2.3-2.85-2.3Zm0 1.75c.77 0 1.37.6 1.37 1.37 0 .77-.6 1.38-1.37 1.38-.77 0-1.37-.6-1.37-1.38 0-.76.6-1.37 1.37-1.37zm17.21 0c.77 0 1.38.6 1.38 1.37 0 .77-.6 1.38-1.38 1.38-.76 0-1.37-.6-1.37-1.38 0-.76.6-1.37 1.38-1.37z" />
</svg>