<?xml version="1.0" encoding="UTF-8" standalone="no"?>
<!-- Created with Inkscape (http://www.inkscape.org/) -->

<svg
   width="24"
   height="24"
   viewBox="0 0 24 24"
   version="1.1"
   id="svg5"
   inkscape:export-filename="CancelIcon.svg"
   inkscape:export-xdpi="96"
   inkscape:export-ydpi="96"
   sodipodi:docname="CancelIcon.svg"
   xmlns:inkscape="http://www.inkscape.org/namespaces/inkscape"
   xmlns:sodipodi="http://sodipodi.sourceforge.net/DTD/sodipodi-0.dtd"
   xmlns="http://www.w3.org/2000/svg"
   xmlns:svg="http://www.w3.org/2000/svg">
  <sodipodi:namedview
     id="namedview7"
     pagecolor="#505050"
     bordercolor="#eeeeee"
     borderopacity="1"
     inkscape:showpageshadow="0"
     inkscape:pageopacity="0"
     inkscape:pagecheckerboard="0"
     inkscape:deskcolor="#505050"
     inkscape:document-units="mm"
     showgrid="false" />
  <defs
     id="defs2" />
  <g
     inkscape:label="Layer 1"
     inkscape:groupmode="layer"
     id="layer1">
    <path
       style="color:#000000;fill:#000000;stroke-linecap:round;-inkscape-stroke:none"
       d="M 12,2.421875 C 6.7186452,2.4218751 2.4218751,6.7186452 2.421875,12 c 2e-7,5.281355 4.2967702,9.578125 9.578125,9.578125 5.281355,0 9.578125,-4.29677 9.578125,-9.578125 0,-5.2813548 -4.29677,-9.5781248 -9.578125,-9.578125 z m 0,1.5117188 c 4.464313,10e-8 8.066406,3.6020933 8.066406,8.0664062 0,4.464313 -3.602093,8.066406 -8.066406,8.066406 C 7.5356871,20.066406 3.9335939,16.464313 3.9335938,12 3.9335939,7.5356871 7.5356871,3.9335939 12,3.9335938 Z M 14.806641,8.4375 A 0.75590497,0.75590497 0 0 0 14.271484,8.6601563 L 12,10.931641 9.7246094,8.6621094 a 0.75590497,0.75590497 0 0 0 -1.0683594,0.00195 0.75590497,0.75590497 0 0 0 0,1.0683594 l 2.273438,2.2695312 -2.2695317,2.269531 a 0.75590497,0.75590497 0 0 0 0,1.06836 0.75590497,0.75590497 0 0 0 1.0683593,0 L 12,13.068359 l 2.275391,2.269532 a 0.75590497,0.75590497 0 0 0 1.068359,-0.002 0.75590497,0.75590497 0 0 0 0,-1.06836 L 13.070313,11.998 15.339844,9.7284686 a 0.75590497,0.75590497 0 0 0 0,-1.0683593 A 0.75590497,0.75590497 0 0 0 14.806641,8.4375 Z"
       id="path11189" />
  </g>
</svg>
