<?xml version="1.0" encoding="UTF-8" standalone="no"?>
<svg
   width="24"
   height="24"
   viewBox="0 0 24 24"
   fill="none"
   stroke="black"
   stroke-width="2"
   stroke-linecap="round"
   stroke-linejoin="round"
   version="1.1"
   id="svg7470"
   sodipodi:docname="GridIcon.svg"
   inkscape:version="1.2 (dc2aedaf03, 2022-05-15)"
   xmlns:inkscape="http://www.inkscape.org/namespaces/inkscape"
   xmlns:sodipodi="http://sodipodi.sourceforge.net/DTD/sodipodi-0.dtd"
   xmlns="http://www.w3.org/2000/svg"
   xmlns:svg="http://www.w3.org/2000/svg">
  <defs
     id="defs7474" />
  <sodipodi:namedview
     id="namedview7472"
     pagecolor="#505050"
     bordercolor="#eeeeee"
     borderopacity="1"
     inkscape:showpageshadow="0"
     inkscape:pageopacity="0"
     inkscape:pagecheckerboard="0"
     inkscape:deskcolor="#505050"
     showgrid="false"
     inkscape:zoom="16"
     inkscape:cx="25.59375"
     inkscape:cy="11.15625"
     inkscape:window-width="2042"
     inkscape:window-height="1243"
     inkscape:window-x="31"
     inkscape:window-y="19"
     inkscape:window-maximized="0"
     inkscape:current-layer="svg7470" />
  <path
     style="color:#000000;fill:#000000;stroke:none"
     d="m 4.0021225,2.8980135 c -0.6313014,0 -1.1582031,0.5249486 -1.1582031,1.15625 v 6.2343755 c 0,0.631301 0.5269018,1.158203 1.1582031,1.158203 h 6.2343745 c 0.631302,0 1.158204,-0.526902 1.158204,-1.158203 V 4.0542635 c 0,-0.6313011 -0.526902,-1.15625 -1.158204,-1.15625 z m 0,1.1328125 h 6.2343745 c 0,2.0272786 0.02344,6.257812 0.02344,6.257812 -2.0116637,0 -4.2177999,0.02344 -6.2578145,0.02344 0,0 0,-4.3522814 0,-6.2812489 z"
     id="rect8734"
     sodipodi:nodetypes="sssssssssccccc" />
  <path
     style="color:#000000;fill:#000000;stroke:none"
     d="m 13.763503,2.8980133 c -0.631301,0 -1.158203,0.5249486 -1.158203,1.15625 v 6.2343757 c 0,0.631301 0.526902,1.158203 1.158203,1.158203 h 6.234374 c 0.631302,0 1.158204,-0.526902 1.158204,-1.158203 V 4.0542633 c 0,-0.6313012 -0.526902,-1.15625 -1.158204,-1.15625 z m 0,1.1328125 h 6.234374 c 0,2.0272778 0.02344,6.2578122 0.02344,6.2578122 -2.011663,0 -4.217799,0.02344 -6.257814,0.02344 0,0 0,-4.3522814 0,-6.2812492 z"
     id="rect8734-1"
     sodipodi:nodetypes="sssssssssccccc" />
  <path
     style="color:#000000;fill:#000000;stroke:none"
     d="m 4.0021225,12.553159 c -0.6313014,0 -1.1582031,0.524949 -1.1582031,1.15625 v 6.234375 c 0,0.631301 0.5269018,1.158203 1.1582031,1.158203 h 6.2343745 c 0.631302,0 1.158204,-0.526902 1.158204,-1.158203 v -6.234375 c 0,-0.631301 -0.526902,-1.15625 -1.158204,-1.15625 z m 0,1.132813 h 6.2343745 c 0,2.027278 0.02344,6.257811 0.02344,6.257811 -2.0116637,0 -4.2177999,0.02344 -6.2578145,0.02344 0,0 0,-4.352281 0,-6.281248 z"
     id="rect8734-8"
     sodipodi:nodetypes="sssssssssccccc" />
  <path
     style="color:#000000;fill:#000000;stroke:none"
     d="m 13.763503,12.553159 c -0.631301,0 -1.158203,0.524948 -1.158203,1.15625 v 6.234375 c 0,0.631301 0.526902,1.158203 1.158203,1.158203 h 6.234374 c 0.631302,0 1.158204,-0.526902 1.158204,-1.158203 v -6.234375 c 0,-0.631301 -0.526902,-1.15625 -1.158204,-1.15625 z m 0,1.132812 h 6.234374 c 0,2.027278 0.02344,6.257812 0.02344,6.257812 -2.011663,0 -4.217799,0.02344 -6.257814,0.02344 0,0 0,-4.352281 0,-6.281249 z"
     id="rect8734-1-2"
     sodipodi:nodetypes="sssssssssccccc" />
</svg>
