<?xml version="1.0" encoding="UTF-8" standalone="no"?>
<!-- Created with Inkscape (http://www.inkscape.org/) -->

<svg
   width="24"
   height="24"
   viewBox="0 0 24 24"
   version="1.1"
   id="svg5"
   inkscape:export-filename="StrikethroughIcon.svg"
   inkscape:export-xdpi="96"
   inkscape:export-ydpi="96"
   sodipodi:docname="HeartOutlineIcon.svg"
   xmlns:inkscape="http://www.inkscape.org/namespaces/inkscape"
   xmlns:sodipodi="http://sodipodi.sourceforge.net/DTD/sodipodi-0.dtd"
   xmlns="http://www.w3.org/2000/svg"
   xmlns:svg="http://www.w3.org/2000/svg">
  <sodipodi:namedview
     id="namedview7"
     pagecolor="#505050"
     bordercolor="#eeeeee"
     borderopacity="1"
     inkscape:showpageshadow="0"
     inkscape:pageopacity="0"
     inkscape:pagecheckerboard="0"
     inkscape:deskcolor="#505050"
     inkscape:document-units="mm"
     showgrid="false"
     showguides="true" />
  <defs
     id="defs2" />
  <g
     inkscape:label="Layer 1"
     inkscape:groupmode="layer"
     id="layer1">
    <path
       id="path7499-9"
       style="fill:#000000;fill-opacity:1;stroke:none;stroke-width:2.64566;stroke-linecap:square;stroke-linejoin:round;stroke-dasharray:none;stroke-opacity:1"
       d="M 4.4453125,3.90625 A 1.9296874,1.9296874 0 0 0 2.515625,5.8359375 1.9296874,1.9296874 0 0 0 4.4453125,7.765625 1.9296874,1.9296874 0 0 0 6.375,5.8359375 1.9296874,1.9296874 0 0 0 4.4453125,3.90625 Z m 4.234375,0.6171875 V 7.1699219 H 19.927734 21.25 V 4.5234375 H 19.927734 Z M 4.3125,10.070312 A 1.9296874,1.9296874 0 0 0 2.3828125,12 1.9296874,1.9296874 0 0 0 4.3125,13.929688 1.9296874,1.9296874 0 0 0 6.2421875,12 1.9296874,1.9296874 0 0 0 4.3125,10.070312 Z m 4.3671875,0.607422 v 2.644532 H 19.927734 21.25 V 10.677734 H 19.927734 Z M 4.4375,16.226562 A 1.9296874,1.9296874 0 0 0 2.5078125,18.15625 1.9296874,1.9296874 0 0 0 4.4375,20.085938 1.9296874,1.9296874 0 0 0 6.3671875,18.15625 1.9296874,1.9296874 0 0 0 4.4375,16.226562 Z m 4.2421875,0.576172 v 2.644532 H 19.927734 21.25 v -2.644532 h -1.322266 z" />
  </g>
</svg>
