<?xml version="1.0" encoding="UTF-8" standalone="no"?>
<!-- Created with Inkscape (http://www.inkscape.org/) -->

<svg
   width="24"
   height="24"
   viewBox="0 0 24 24"
   version="1.1"
   id="svg5"
   inkscape:export-filename="SaveIcon2.svg"
   inkscape:export-xdpi="96"
   inkscape:export-ydpi="96"
   sodipodi:docname="RefreshIcon.svg"
   xmlns:inkscape="http://www.inkscape.org/namespaces/inkscape"
   xmlns:sodipodi="http://sodipodi.sourceforge.net/DTD/sodipodi-0.dtd"
   xmlns="http://www.w3.org/2000/svg"
   xmlns:svg="http://www.w3.org/2000/svg">
  <sodipodi:namedview
     id="namedview7"
     pagecolor="#505050"
     bordercolor="#eeeeee"
     borderopacity="1"
     inkscape:showpageshadow="0"
     inkscape:pageopacity="0"
     inkscape:pagecheckerboard="0"
     inkscape:deskcolor="#505050"
     inkscape:document-units="mm"
     showgrid="false" />
  <defs
     id="defs2" />
  <g
     inkscape:label="Layer 1"
     inkscape:groupmode="layer"
     id="layer1">
    <path
       id="path854"
       style="color:#000000;fill:#000000;stroke-linecap:round;-inkscape-stroke:none"
       d="M 10.986328,0.68164062 V 2.3496094 C 5.2205413,3.207911 2.3493075,7.8595353 2.2324219,12 c 2.361e-4,2.638849 1.068227,5.167064 2.9609375,7.005859 1.069922,0.9826 2.3526601,-0.406533 1.3183594,-1.355468 C 4.9846681,16.166838 4.1232374,14.12904 4.1230469,12 4.1234018,8.0328511 7.0600923,4.7133818 10.986328,4.2011719 V 6.3808594 C 12.046864,5.4317031 13.106576,4.4816292 14.166016,3.53125 13.088533,2.5668831 11.927941,1.5259648 10.986328,0.68164062 Z m 6.81836,5.99414058 C 19.137846,8.129027 19.876777,10.027885 19.876953,12 c -3.31e-4,3.697203 -2.560815,6.880116 -6.166015,7.683594 v -2.267578 c -1.059332,0.9505 -2.119388,1.90019 -3.179688,2.849609 1.070076,0.957673 2.06832,1.853098 3.179688,2.849609 V 21.306641 C 18.980045,20.839362 21.670518,15.680062 21.767578,12 21.76736,9.5554419 20.849799,7.1998251 19.197266,5.3984375 18.251121,4.3734842 16.97234,5.4679043 17.804688,6.6757812 Z"
       sodipodi:nodetypes="cccccccccccccccccccc" />
  </g>
</svg>
