<?xml version="1.0" encoding="UTF-8" standalone="no"?>
<!-- Created with Inkscape (http://www.inkscape.org/) -->

<svg
   width="24"
   height="24"
   viewBox="0 0 24 24"
   version="1.1"
   id="svg5"
   inkscape:export-filename="RoutineValidIcon.png"
   inkscape:export-xdpi="96"
   inkscape:export-ydpi="96"
   sodipodi:docname="RoutineValidIcon.svg"
   xmlns:inkscape="http://www.inkscape.org/namespaces/inkscape"
   xmlns:sodipodi="http://sodipodi.sourceforge.net/DTD/sodipodi-0.dtd"
   xmlns="http://www.w3.org/2000/svg"
   xmlns:svg="http://www.w3.org/2000/svg">
  <sodipodi:namedview
     id="namedview7"
     pagecolor="#505050"
     bordercolor="#eeeeee"
     borderopacity="1"
     inkscape:showpageshadow="0"
     inkscape:pageopacity="0"
     inkscape:pagecheckerboard="0"
     inkscape:deskcolor="#505050"
     inkscape:document-units="mm"
     showgrid="false" />
  <defs
     id="defs2" />
  <g
     inkscape:label="Layer 1"
     inkscape:groupmode="layer"
     id="layer1">
    <path
       id="path807"
       style="color:#000000;fill:#000000;stroke-linecap:round;-inkscape-stroke:none"
       d="M 12,2.4863281 C 6.7543951,2.4863282 2.4863282,6.7543951 2.4863281,12 c 2e-7,5.245605 4.268067,9.513672 9.5136719,9.513672 5.245605,0 9.513672,-4.268067 9.513672,-9.513672 0,-5.2456049 -4.268067,-9.5136717 -9.513672,-9.5136719 z m 0,1.3808594 c 4.500053,2e-7 8.132812,3.6327595 8.132812,8.1328125 0,4.500053 -3.632759,8.132812 -8.132812,8.132812 C 7.499947,20.132812 3.8671877,16.500053 3.8671875,12 3.8671876,7.4999469 7.4999469,3.8671876 12,3.8671875 Z M 8.5117188,8.75 c -0.8622337,0 -1.5722658,0.7100317 -1.5722657,1.572266 1e-7,0.862233 0.7100322,1.570312 1.5722657,1.570312 0.8622333,0 1.5722652,-0.708079 1.5722652,-1.570312 C 10.083985,9.4600317 9.3739523,8.75 8.5117188,8.75 Z m 6.9765622,0 c -0.862234,-7e-7 -1.572266,0.7100312 -1.572265,1.572266 0,0.862233 0.710031,1.570313 1.572265,1.570312 0.862233,0 1.572266,-0.708079 1.572266,-1.570312 0,-0.8622343 -0.710032,-1.5722659 -1.572266,-1.572266 z M 6.21875,13.767578 6.2168,14.269531 c -2.498e-4,1.280943 0.6923801,2.424881 1.7460937,3.220703 1.0537137,0.795824 2.4761303,1.269705 4.0371093,1.269532 1.560618,-2.15e-4 2.983767,-0.475681 4.037109,-1.271485 1.053342,-0.795803 1.746344,-1.938102 1.746094,-3.21875 l -0.002,-0.501953 c -3.854167,0 -7.708333,0 -11.5624999,0 z"
       sodipodi:nodetypes="ssssssssssssssssssssccscsccc" />
  </g>
</svg>
