<?xml version="1.0" encoding="UTF-8" standalone="no"?>
<!-- Created with Inkscape (http://www.inkscape.org/) -->

<svg
   width="24"
   height="24"
   viewBox="0 0 24 24"
   version="1.1"
   id="svg5"
   inkscape:export-filename="AddIncomingLink.svg"
   inkscape:export-xdpi="96"
   inkscape:export-ydpi="96"
   sodipodi:docname="AddOutgoingLink.svg"
   xmlns:inkscape="http://www.inkscape.org/namespaces/inkscape"
   xmlns:sodipodi="http://sodipodi.sourceforge.net/DTD/sodipodi-0.dtd"
   xmlns="http://www.w3.org/2000/svg"
   xmlns:svg="http://www.w3.org/2000/svg">
  <sodipodi:namedview
     id="namedview7"
     pagecolor="#505050"
     bordercolor="#eeeeee"
     borderopacity="1"
     inkscape:showpageshadow="0"
     inkscape:pageopacity="0"
     inkscape:pagecheckerboard="0"
     inkscape:deskcolor="#505050"
     inkscape:document-units="mm"
     showgrid="false" />
  <defs
     id="defs2" />
  <g
     inkscape:label="Layer 1"
     inkscape:groupmode="layer"
     id="layer1">
    <path
       id="path4849"
       style="color:#000000;fill:#000000;stroke-linecap:round;-inkscape-stroke:none"
       d="M 17.691406,0.70117188 C 17.310702,0.7013413 17.002122,1.0099208 17.001953,1.390625 V 3.9628906 H 14.496094 C 14.11539,3.96306 13.80681,4.2716395 13.806641,4.6523438 13.80681,5.033048 14.11539,5.3416275 14.496094,5.3417969 h 2.505859 v 2.4921875 c 1.69e-4,0.3807042 0.308749,0.6892837 0.689453,0.6894531 0.381467,9.103e-4 0.691237,-0.3079854 0.691406,-0.6894531 V 5.3417969 h 2.556641 C 21.320157,5.3416275 21.628737,5.033048 21.628906,4.6523438 21.628737,4.2716395 21.320157,3.96306 20.939453,3.9628906 H 18.382812 V 1.390625 C 18.382643,1.0091573 18.072873,0.70026155 17.691406,0.70117188 Z M 0.46679688,5.6972656 V 18.302734 H 13.072266 v -5.613281 h 4.77539 c 0.34314,1.243016 1.304915,2.25 2.652344,2.25 1.61577,0 2.941406,-1.323683 2.941406,-2.939453 0,-1.61577 -1.325636,-2.9394534 -2.941406,-2.9394531 -1.347429,3e-7 -2.309204,1.0069841 -2.652344,2.2500001 h -4.77539 V 5.6972656 c -4.201823,0 -8.4036461,0 -12.60546912,0 z M 1.8476562,7.078125 h 9.8437498 v 9.84375 H 1.8476562 Z M 20.5,10.439453 c 0.870218,0 1.560547,0.690329 1.560547,1.560547 0,0.870218 -0.690329,1.560547 -1.560547,1.560547 -0.870218,0 -1.560547,-0.690329 -1.560547,-1.560547 0,-0.870218 0.690329,-1.560547 1.560547,-1.560547 z"
       sodipodi:nodetypes="ccccccccccccccccccccccssscccccccccsssss" />
  </g>
</svg>
