<?xml version="1.0" encoding="UTF-8" standalone="no"?>
<!-- Created with Inkscape (http://www.inkscape.org/) -->

<svg
   width="24"
   height="24"
   viewBox="0 0 24 24"
   version="1.1"
   id="svg5"
   inkscape:export-filename="ArrowUp-smaller.svg"
   inkscape:export-xdpi="96"
   inkscape:export-ydpi="96"
   sodipodi:docname="ArrowDownIcon.svg"
   xmlns:inkscape="http://www.inkscape.org/namespaces/inkscape"
   xmlns:sodipodi="http://sodipodi.sourceforge.net/DTD/sodipodi-0.dtd"
   xmlns="http://www.w3.org/2000/svg"
   xmlns:svg="http://www.w3.org/2000/svg">
  <sodipodi:namedview
     id="namedview7"
     pagecolor="#505050"
     bordercolor="#eeeeee"
     borderopacity="1"
     inkscape:showpageshadow="0"
     inkscape:pageopacity="0"
     inkscape:pagecheckerboard="0"
     inkscape:deskcolor="#505050"
     inkscape:document-units="mm"
     showgrid="false" />
  <defs
     id="defs2" />
  <g
     inkscape:label="Layer 1"
     inkscape:groupmode="layer"
     id="layer1">
    <path
       style="color:#000000;fill:#000000;stroke-linecap:round;-inkscape-stroke:none"
       d="m 21.902343,11.996095 c 3.56e-4,-0.590186 -0.478173,-1.068716 -1.06836,-1.06836 H 5.527343 L 10.36328,5.4394541 C 10.754062,4.9972975 10.712073,4.3219853 10.26953,3.9316416 9.826851,3.5413505 9.151499,3.584216 8.761718,4.0273446 L 2.304174,11.379658 c -0.09817,0.135516 -0.194783,0.37015 -0.206519,0.616437 0.01747,0.227121 0.107128,0.4427 0.205909,0.601232 0.01281,0.04928 6.458156,7.37533 6.458156,7.37533 0.389782,0.443128 1.065133,0.485992 1.507812,0.0957 0.442543,-0.390344 0.484531,-1.065656 0.09375,-1.507812 L 5.517577,13.062501 h 15.316406 c 0.589424,3.56e-4 1.067637,-0.476983 1.06836,-1.066406 z"
       id="path7209"
       sodipodi:nodetypes="ccccccccccccccc" />
  </g>
</svg>
