<?xml version="1.0" encoding="UTF-8" standalone="no"?>
<!-- Created with Inkscape (http://www.inkscape.org/) -->

<svg
   width="24"
   height="24"
   viewBox="0 0 24 24"
   version="1.1"
   id="svg5"
   inkscape:export-filename="StarOutlineIcon.svg"
   inkscape:export-xdpi="96"
   inkscape:export-ydpi="96"
   sodipodi:docname="AwardIcon.svg"
   inkscape:version="1.2 (dc2aedaf03, 2022-05-15)"
   xmlns:inkscape="http://www.inkscape.org/namespaces/inkscape"
   xmlns:sodipodi="http://sodipodi.sourceforge.net/DTD/sodipodi-0.dtd"
   xmlns="http://www.w3.org/2000/svg"
   xmlns:svg="http://www.w3.org/2000/svg">
  <sodipodi:namedview
     id="namedview7"
     pagecolor="#505050"
     bordercolor="#eeeeee"
     borderopacity="1"
     inkscape:showpageshadow="0"
     inkscape:pageopacity="0"
     inkscape:pagecheckerboard="0"
     inkscape:deskcolor="#505050"
     inkscape:document-units="mm"
     showgrid="false"
     showguides="true"
     inkscape:zoom="16"
     inkscape:cx="16.40625"
     inkscape:cy="7.09375"
     inkscape:window-width="1920"
     inkscape:window-height="991"
     inkscape:window-x="1121"
     inkscape:window-y="1345"
     inkscape:window-maximized="1"
     inkscape:current-layer="layer1" />
  <defs
     id="defs2" />
  <g
     inkscape:label="Layer 1"
     inkscape:groupmode="layer"
     id="layer1">
    <path
       id="path2265"
       style="color:#000000;fill:#000000;stroke-width:1;stroke-linecap:round;stroke-linejoin:round;-inkscape-stroke:none"
       d="M 8.0791174,2.4580195 C 5.913864,2.4814639 5.5548083,2.7652284 5.5009924,4.3231195 4.3185559,3.9810628 3.4158484,3.9647689 2.7080236,4.201388 1.9857047,4.4428524 1.4988762,4.9732691 1.2412268,5.5295652 0.74194852,6.6075663 0.94839882,7.7175347 0.96192993,7.7881183 1.1637192,10.042867 2.5189504,11.322615 3.745133,11.940031 c 0.797084,0.470528 1.7299083,0.576173 2.5800782,0.649957 1.0009063,1.97249 2.813848,3.366582 4.9355478,3.617163 v 3.654118 H 8.5127112 c -1.2564963,-0.01568 -1.2440392,1.686919 0,1.682503 h 7.0078128 c 1.344885,-0.03351 1.266136,-1.68692 0,-1.682503 h -2.748047 v -3.671508 c 2.077286,-0.290985 3.889295,-1.667537 4.904297,-3.599773 0.986129,-0.08656 1.85102,-0.297229 2.578125,-0.652127 1.226184,-0.617416 2.581416,-1.897161 2.783203,-4.151913 0.0141,-0.073746 0.219225,-1.1800122 -0.279296,-2.2563795 C 22.501144,4.9732694 22.014327,4.4406786 21.292009,4.1992142 20.588523,3.9640457 19.692298,3.9805204 18.520524,4.3165981 18.405525,2.1721928 17.590631,2.4881869 11.950212,2.4841048 10.253857,2.4828772 9.0025925,2.4480204 8.0791174,2.4580195 Z M 21.750993,6.10779 c 0.647353,1.3182603 -0.296438,3.6909043 -1.962878,4.680139 -0.607808,0.306048 -1.201682,0.447499 -1.580078,0.513012 0.21543,-0.704407 0.332031,-1.4571747 0.332032,-2.2389897 8.08e-4,-1.1378554 1.14e-4,-2.3851703 -0.002,-3.4823893 1.300554,-0.4049298 2.776805,-0.2892903 3.212924,0.528228 z M 5.4931799,5.5730372 c 1.445e-4,1.1242314 0,2.3264486 0,3.4889101 0,0.783845 0.1140235,1.5373087 0.3222656,2.2433377 C 5.4384544,11.242168 4.8314397,11.102041 4.2119299,10.790101 2.1193836,9.3070823 1.5504472,7.1412727 2.5999982,5.727207 3.3323285,5.098643 4.7678507,5.4423756 5.4931799,5.5730372 Z"
       sodipodi:nodetypes="scsscccccccccccccccscssccccccccsccc" />
  </g>
</svg>
