<?xml version="1.0" encoding="UTF-8" standalone="no"?>
<svg
   width="24"
   height="24"
   version="1.1"
   id="svg11255"
   sodipodi:docname="CaseSensitiveIcon.svg"
   inkscape:export-filename="CaseSensitiveIcon.png"
   inkscape:export-xdpi="96"
   inkscape:export-ydpi="96"
   xmlns:inkscape="http://www.inkscape.org/namespaces/inkscape"
   xmlns:sodipodi="http://sodipodi.sourceforge.net/DTD/sodipodi-0.dtd"
   xmlns="http://www.w3.org/2000/svg"
   xmlns:svg="http://www.w3.org/2000/svg">
  <defs
     id="defs11259" />
  <sodipodi:namedview
     id="namedview11257"
     pagecolor="#505050"
     bordercolor="#eeeeee"
     borderopacity="1"
     inkscape:showpageshadow="0"
     inkscape:pageopacity="0"
     inkscape:pagecheckerboard="0"
     inkscape:deskcolor="#505050"
     showgrid="false" />
  <g
     aria-label="Aa"
     fill="#000000"
     stroke-width="0.81"
     stroke-linecap="round"
     id="g11253">
    <path
       d="M 10.2552,13.8331 C 9.402224,11.578245 8.4866343,9.3456205 7.6779492,7.0750324 7.569339,6.7456922 7.4732976,6.0466533 7.3724375,6.7895188 6.6548233,8.9076364 5.7818344,10.971447 4.9954438,13.065513 c -0.014422,0.248147 -0.5224672,0.834689 -0.07703,0.767587 1.7789288,0 3.5578577,0 5.3367862,0 z m 4.1959,5.5253 C 13.755124,19.341662 12.63828,19.723186 12.254444,18.997598 11.772432,17.761728 11.295888,16.523706 10.816,15.287 c -2.226,0 -4.452,0 -6.678,0 C 3.640305,16.550684 3.1710174,17.827059 2.65535,19.082714 2.1618491,19.652452 1.0710391,19.37268 0.53339398,19.307298 2.5103293,14.363299 4.4872647,9.4192993 6.4642,4.4753 c 0.6786,0 1.3572,0 2.0358,0 1.9837,4.9610333 3.9674,9.922067 5.9511,14.8831 z m 7.2286,-4.736 c -1.434128,0.09311 -3.016885,0.113803 -4.228883,0.984262 -0.921097,0.725858 -0.465786,2.455499 0.726177,2.572949 1.313059,0.244499 2.728497,-0.396534 3.502706,-1.431039 0,-0.708724 0,-1.417448 0,-2.126172 z m -5.972,-4.2997 c 1.478995,-1.4928328 3.881999,-2.1490147 5.849144,-1.3050312 1.531085,0.6898658 2.030985,2.4994352 1.930056,4.0500582 0,2.096891 0,4.193782 0,6.290673 -0.503853,-0.05525 -1.270865,0.208119 -1.4645,-0.4362 -0.06923,-0.332333 -0.138467,-0.664667 -0.2077,-0.997 -1.056736,1.10014 -2.578894,1.762242 -4.115576,1.576028 -1.282878,-0.0604 -2.464791,-1.10436 -2.496343,-2.423809 -0.207243,-1.349642 0.889642,-2.464931 2.081883,-2.880797 1.393972,-0.55231 2.906751,-0.713115 4.395036,-0.747822 0.01029,-1.084378 0.08712,-2.429635 -0.995614,-3.0552 -1.201785,-0.5851926 -2.627383,-0.0854 -3.615786,0.6976 -0.600293,0.489233 -1.107458,-0.184096 -1.324016,-0.703345 l -0.02689,-0.04789 z"
       id="path11744"
       sodipodi:nodetypes="cccccccccccccccccccccssccscccccccscccscsccccccscccscsccscscccsccc" />
  </g>
</svg>
