<?xml version="1.0" encoding="UTF-8" standalone="no"?>
<svg
   width="24"
   height="24"
   version="1.1"
   id="svg10742"
   sodipodi:docname="CelebrateIcon.svg"
   inkscape:export-filename="CelebrateIcon.svg"
   inkscape:export-xdpi="96"
   inkscape:export-ydpi="96"
   xmlns:inkscape="http://www.inkscape.org/namespaces/inkscape"
   xmlns:sodipodi="http://sodipodi.sourceforge.net/DTD/sodipodi-0.dtd"
   xmlns="http://www.w3.org/2000/svg"
   xmlns:svg="http://www.w3.org/2000/svg">
  <defs
     id="defs10746" />
  <sodipodi:namedview
     id="namedview10744"
     pagecolor="#505050"
     bordercolor="#eeeeee"
     borderopacity="1"
     inkscape:showpageshadow="0"
     inkscape:pageopacity="0"
     inkscape:pagecheckerboard="0"
     inkscape:deskcolor="#505050"
     showgrid="false" />
  <path
     id="path12261"
     style="color:#000000;fill:#000000;stroke-linejoin:round;-inkscape-stroke:none"
     d="m 14.062501,2.3320312 c -0.281503,0.2331849 -0.521085,0.7030252 -0.171876,0.9941407 0.380819,0.4306003 0.785297,0.8419922 1.150391,1.2851562 0.254825,0.4543525 -0.182252,0.7994529 -0.453125,1.1015625 -0.748453,0.8321712 -1.515075,1.6485071 -2.251953,2.4902344 -0.257127,0.4453165 0.241829,0.7606004 0.484374,1.0664062 0.240878,0.2512309 0.496434,0.6780296 0.908204,0.4960938 C 14.17222,9.4171607 14.5066,8.9421842 14.904297,8.5390625 15.51324,7.8490416 16.168981,7.1961321 16.742188,6.4765625 17.524771,5.351941 17.303895,3.7110013 16.296875,2.796875 15.919094,2.4150138 15.687495,2.030919 15.161101,1.8724855 14.634707,1.7140522 14.361135,2.0665538 14.062501,2.3320312 Z M 10.81836,3.1894531 C 10.37139,3.2792451 10.264476,3.57623 9.9355469,3.8593751 9.4713473,4.3693458 10.024961,4.7838986 10.261719,5.1503906 10.368447,5.6264217 9.6762566,5.7443363 9.6835938,6.21875 9.789846,6.672332 10.21485,6.9165597 10.498047,7.2539062 10.924458,7.6523238 11.307327,7.1622111 11.585938,6.8730469 12.506271,5.9811166 12.429784,4.3460655 11.455078,3.5234375 11.278799,3.3599812 11.093052,3.1808206 10.81836,3.1894531 Z M 19.136719,7 C 18.3663,6.973755 17.684591,7.3999111 17.177734,7.9453125 15.96285,9.1117758 15.771965,9.3052826 14.568359,10.482422 c -0.247255,0.364175 0.15337,0.646509 0.388672,0.871094 0.258092,0.204583 0.480673,0.619914 0.867188,0.482422 0.433751,-0.317219 0.792876,-0.736452 1.195312,-1.095704 0.972329,-0.9188005 0.886942,-0.9012685 1.869141,-1.8085934 0.391732,-0.2398155 0.68206,0.1798133 0.939453,0.4121094 0.261884,0.3130592 0.646609,0.085024 0.847656,-0.1660156 0.216932,-0.2435337 0.534673,-0.417868 0.652344,-0.7304688 C 21.386497,8.0763627 20.997998,7.8949578 20.791016,7.6542969 20.351478,7.231727 19.745093,6.9978926 19.136719,7 Z M 7.3236826,7.0105133 C 6.8763393,7.0948164 6.7911077,7.8697979 6.5722656,8.3300781 5.0007604,12.745035 3.4092981,17.153541 1.8496094,21.572266 c -0.1421104,0.599323 0.590324,1.049133 1.0898437,0.734375 4.64003,-1.661618 9.2876629,-3.309075 13.9238279,-4.980469 0.589729,-0.298443 0.389318,-1.0589 -0.07617,-1.363281 C 13.84572,13.026665 11.070689,10.290905 8.1230469,7.3613281 8.0016573,7.2660514 7.7710259,6.9262101 7.3236826,7.0105133 Z M 17.423828,11.939453 c -0.285269,0.275399 -0.66073,0.473049 -0.853516,0.830078 -0.07976,0.527065 0.477555,0.736673 0.785157,1.054688 0.335087,0.393809 0.823789,0.119635 1.109375,-0.185547 0.309318,-0.237304 0.576307,-0.543095 0.916015,-0.732422 0.462111,-0.125775 0.732629,0.35115 1.066407,0.576172 0.354746,0.261669 0.319287,0.530807 0.808593,0.144531 0.229107,-0.224952 0.7297,-0.602958 0.846426,-0.932022 0.116726,-0.329065 -0.0036,-0.335525 -0.289776,-0.634388 -0.579412,-0.519241 -1.739387,-1.074296 -2.417524,-1.100355 -0.678136,-0.02606 -1.392695,0.43426 -1.971157,0.979265 z"
     sodipodi:nodetypes="ccccccccccccccccccccccccccccccccccccccccccccccccccc" />
</svg>
