<?xml version="1.0" encoding="UTF-8" standalone="no"?>
<!-- Created with Inkscape (http://www.inkscape.org/) -->

<svg
   width="24"
   height="24"
   viewBox="0 0 24 24"
   version="1.1"
   id="svg5"
   inkscape:export-filename="HelpIcon.svg"
   inkscape:export-xdpi="96"
   inkscape:export-ydpi="96"
   sodipodi:docname="InfoIcon.svg"
   xmlns:inkscape="http://www.inkscape.org/namespaces/inkscape"
   xmlns:sodipodi="http://sodipodi.sourceforge.net/DTD/sodipodi-0.dtd"
   xmlns="http://www.w3.org/2000/svg"
   xmlns:svg="http://www.w3.org/2000/svg">
  <sodipodi:namedview
     id="namedview7"
     pagecolor="#505050"
     bordercolor="#eeeeee"
     borderopacity="1"
     inkscape:showpageshadow="0"
     inkscape:pageopacity="0"
     inkscape:pagecheckerboard="0"
     inkscape:deskcolor="#505050"
     inkscape:document-units="mm"
     showgrid="false" />
  <defs
     id="defs2" />
  <g
     inkscape:label="Layer 1"
     inkscape:groupmode="layer"
     id="layer1">
    <path
       id="path3985"
       style="color:#000000;fill:#000000;stroke-linecap:round;-inkscape-stroke:none"
       d="M 12,21.513672 C 6.7544003,21.513672 2.4863282,17.2456 2.4863281,12 2.4863283,6.7544001 6.7544003,2.4863281 12,2.4863281 c 5.2456,0 9.513672,4.268072 9.513672,9.5136719 0,5.2456 -4.268072,9.513672 -9.513672,9.513672 z m 0,-1.380859 C 16.500048,20.132812 20.132812,16.500049 20.132812,12 20.132812,7.4999521 16.500048,3.8671881 12,3.8671881 7.4999515,3.8671881 3.8671877,7.4999521 3.8671875,12 3.8671876,16.500049 7.4999514,20.132812 12,20.132813 Z m -0.01953,-2.152344 c -0.746247,0 -1.371094,-0.624848 -1.371094,-1.371094 0,-0.746246 0.624847,-1.36914 1.371094,-1.36914 0.746246,0 1.36914,0.622894 1.36914,1.36914 0,0.746246 -0.622894,1.371094 -1.36914,1.371094 z M 12,13.619141 A 1.067715,0.95320182 0 0 1 10.931641,12.666016 V 6.3789061 A 1.067715,0.95320182 0 0 1 12,5.4257811 1.067715,0.95320182 0 0 1 13.068359,6.3789061 V 12.666016 A 1.067715,0.95320182 0 0 1 12,13.619141 Z" />
  </g>
</svg>
