<?xml version="1.0" encoding="UTF-8" standalone="no"?>
<!-- Created with Inkscape (http://www.inkscape.org/) -->

<svg
    width="24"
    height="24"
    viewBox="0 0 24 24"
    version="1.1"
    id="svg5"
    inkscape:export-filename="FoodIcon.svg"
    inkscape:export-xdpi="96"
    inkscape:export-ydpi="96"
    sodipodi:docname="FoodIcon.svg"
    inkscape:version="1.2 (dc2aedaf03, 2022-05-15)"
    xmlns:inkscape="http://www.inkscape.org/namespaces/inkscape"
    xmlns:sodipodi="http://sodipodi.sourceforge.net/DTD/sodipodi-0.dtd"
    xmlns="http://www.w3.org/2000/svg"
    xmlns:svg="http://www.w3.org/2000/svg">
    <sodipodi:namedview
        id="namedview7"
        pagecolor="#505050"
        bordercolor="#eeeeee"
        borderopacity="1"
        inkscape:showpageshadow="0"
        inkscape:pageopacity="0"
        inkscape:pagecheckerboard="0"
        inkscape:deskcolor="#505050"
        inkscape:document-units="mm"
        showgrid="false"
        showguides="true"
        inkscape:zoom="16"
        inkscape:cx="20"
        inkscape:cy="17.625"
        inkscape:window-width="1920"
        inkscape:window-height="1009"
        inkscape:window-x="-8"
        inkscape:window-y="-8"
        inkscape:window-maximized="1"
        inkscape:current-layer="layer1" />
    <defs
        id="defs2" />
    <g
        inkscape:label="Layer 1"
        inkscape:groupmode="layer"
        id="layer1">
        <path
            id="path5942"
            style="fill:#000000;fill-opacity:1;stroke-width:1.00157;stroke-linecap:round;stroke-linejoin:round"
            d="M18.06 22.99h1.66c.84 0 1.53-.64 1.63-1.46L23 5.05h-5V1h-1.97v4.05h-4.97l.3 2.34c1.71.47 3.31 1.32 4.27 2.26 1.44 1.42 2.43 2.89 2.43 5.29v8.05zM1 21.99V21h15.03v.99c0 .55-.45 1-1.01 1H2.01c-.56 0-1.01-.45-1.01-1zm15.03-7c0-8-15.03-8-15.03 0h15.03zM1.02 17h15v2h-15z" />
    </g>
</svg>