<?xml version="1.0" encoding="UTF-8" standalone="no"?>
<!-- Created with Inkscape (http://www.inkscape.org/) -->

<svg
    width="24"
    height="24"
    viewBox="0 0 24 24"
    version="1.1"
    id="svg5"
    inkscape:export-filename="handleIcon.svg"
    inkscape:export-xdpi="96"
    inkscape:export-ydpi="96"
    sodipodi:docname="handleIcon.svg"
    xmlns:inkscape="http://www.inkscape.org/namespaces/inkscape"
    xmlns:sodipodi="http://sodipodi.sourceforge.net/DTD/sodipodi-0.dtd"
    xmlns="http://www.w3.org/2000/svg"
    xmlns:svg="http://www.w3.org/2000/svg">
    <sodipodi:namedview
        id="namedview7"
        pagecolor="#505050"
        bordercolor="#eeeeee"
        borderopacity="1"
        inkscape:showpageshadow="0"
        inkscape:pageopacity="0"
        inkscape:pagecheckerboard="0"
        inkscape:deskcolor="#505050"
        inkscape:document-units="mm"
        showgrid="false"
        showguides="true" />
    <defs
        id="defs2" />
    <g
        inkscape:label="Layer 1"
        inkscape:groupmode="layer"
        id="layer1">
        <path
            id="path15592"
            style="fill:#000000;fill-opacity:1;stroke:none;stroke-width:1.88976;stroke-linecap:round;stroke-linejoin:round;stroke-dasharray:none;stroke-opacity:1"
            d="M12 2a10 10 0 0 0 0 20h5v-2h-5c-4.34 0-8-3.66-8-8s3.66-8 8-8 8 3.66 8 8v1.43c0 .79-.71 1.57-1.5 1.57s-1.5-.78-1.5-1.57V12a5 5 0 1 0-1.46 3.53A3.7 3.7 0 0 0 18.5 17c1.97 0 3.5-1.6 3.5-3.57V12A10 10 0 0 0 12 2zm0 13a3 3 0 1 1 0-6 3 3 0 0 1 0 6z" />
    </g>
</svg>