<?xml version="1.0" encoding="UTF-8" standalone="no"?>
<!-- Created with Inkscape (http://www.inkscape.org/) -->

<svg
    width="24"
    height="24"
    viewBox="0 0 24 24"
    version="1.1"
    id="svg5"
    inkscape:export-filename="Header3Icon.svg"
    inkscape:export-xdpi="96"
    inkscape:export-ydpi="96"
    sodipodi:docname="Header4Icon.svg"
    inkscape:version="1.3 (0e150ed6c4, 2023-07-21)"
    xmlns:inkscape="http://www.inkscape.org/namespaces/inkscape"
    xmlns:sodipodi="http://sodipodi.sourceforge.net/DTD/sodipodi-0.dtd"
    xmlns="http://www.w3.org/2000/svg"
    xmlns:svg="http://www.w3.org/2000/svg">
    <sodipodi:namedview
        id="namedview7"
        pagecolor="#505050"
        bordercolor="#eeeeee"
        borderopacity="1"
        inkscape:showpageshadow="0"
        inkscape:pageopacity="0"
        inkscape:pagecheckerboard="0"
        inkscape:deskcolor="#505050"
        inkscape:document-units="mm"
        showgrid="false"
        showguides="true"
        inkscape:zoom="26.723218"
        inkscape:cx="11.450717"
        inkscape:cy="10.346808"
        inkscape:window-width="1920"
        inkscape:window-height="1009"
        inkscape:window-x="896"
        inkscape:window-y="1075"
        inkscape:window-maximized="1"
        inkscape:current-layer="layer1" />
    <defs
        id="defs2" />
    <g
        inkscape:label="Layer 1"
        inkscape:groupmode="layer"
        id="layer1">
        <path
            id="path7187-3"
            style="font-weight:bold;font-size:16.7914px;font-family:Lato;-inkscape-font-specification:'Lato Bold';fill:#000000;stroke-width:1.00157;stroke-linecap:round;stroke-linejoin:round"
            d="M 2.84375 5.3671875 L 2.84375 18.582031 L 5.0332031 18.582031 L 5.0332031 12.804688 L 9.8066406 12.804688 L 9.8066406 18.582031 L 11.996094 18.582031 L 11.996094 5.3671875 L 9.8066406 5.3671875 L 9.8066406 11.050781 L 5.0332031 11.050781 L 5.0332031 5.3671875 L 2.84375 5.3671875 z M 18.416016 5.4375 L 13.289062 13.736328 L 13.296875 14.869141 C 13.342995 15.126193 13.714912 15.359375 13.992188 15.359375 L 18.558594 15.359375 L 18.558594 18.560547 L 20.167969 18.560547 L 20.167969 15.359375 L 21.15625 15.359375 C 21.472823 15.359375 21.53125 15.053043 21.53125 14.914062 L 21.53125 13.617188 L 20.167969 13.617188 L 20.167969 5.4375 L 18.416016 5.4375 z M 18.626953 7.9863281 C 18.582047 8.4760532 18.558594 8.9230437 18.558594 9.328125 L 18.558594 13.617188 L 15.265625 13.617188 L 18.626953 7.9863281 z " />
    </g>
</svg>