<?xml version="1.0" encoding="UTF-8" standalone="no"?>
<!-- Created with Inkscape (http://www.inkscape.org/) -->

<svg
    width="24"
    height="24"
    viewBox="0 0 24 24"
    version="1.1"
    id="svg5"
    inkscape:export-filename="Header3Icon.svg"
    inkscape:export-xdpi="96"
    inkscape:export-ydpi="96"
    sodipodi:docname="Header5Icon.svg"
    inkscape:version="1.3 (0e150ed6c4, 2023-07-21)"
    xmlns:inkscape="http://www.inkscape.org/namespaces/inkscape"
    xmlns:sodipodi="http://sodipodi.sourceforge.net/DTD/sodipodi-0.dtd"
    xmlns="http://www.w3.org/2000/svg"
    xmlns:svg="http://www.w3.org/2000/svg">
    <sodipodi:namedview
        id="namedview7"
        pagecolor="#505050"
        bordercolor="#eeeeee"
        borderopacity="1"
        inkscape:showpageshadow="0"
        inkscape:pageopacity="0"
        inkscape:pagecheckerboard="0"
        inkscape:deskcolor="#505050"
        inkscape:document-units="mm"
        showgrid="false"
        showguides="true"
        inkscape:zoom="26.723218"
        inkscape:cx="11.600399"
        inkscape:cy="13.527563"
        inkscape:window-width="1920"
        inkscape:window-height="1009"
        inkscape:window-x="896"
        inkscape:window-y="1075"
        inkscape:window-maximized="1"
        inkscape:current-layer="layer1" />
    <defs
        id="defs2" />
    <g
        inkscape:label="Layer 1"
        inkscape:groupmode="layer"
        id="layer1">
        <path
            id="path7187-3"
            style="font-weight:bold;font-size:16.7914px;font-family:Lato;-inkscape-font-specification:'Lato Bold';fill:#000000;stroke-width:1.00157;stroke-linecap:round;stroke-linejoin:round"
            d="M 2.84375 5.3671875 L 2.84375 18.582031 L 5.0332031 18.582031 L 5.0332031 12.804688 L 9.8066406 12.804688 L 9.8066406 18.582031 L 11.996094 18.582031 L 11.996094 5.3671875 L 9.8066406 5.3671875 L 9.8066406 11.050781 L 5.0332031 11.050781 L 5.0332031 5.3671875 L 2.84375 5.3671875 z M 15.363281 5.4472656 L 14.464844 11.8125 L 15.617188 12.212891 C 16.653222 11.705725 18.014117 11.645062 18.708984 12.474609 C 19.551936 13.451558 19.117489 15.120309 19.089844 15.222656 C 18.95731 15.732744 18.670546 16.314207 18.056641 16.628906 C 17.01547 16.877902 16.14635 16.773921 15.302734 16.048828 C 15.003904 15.82601 14.664493 15.841419 14.449219 16.210938 L 13.880859 17.164062 C 14.060496 17.369627 14.261782 17.56648 14.486328 17.753906 C 15.404713 18.479612 16.298192 18.705078 17.054688 18.705078 C 19.48796 18.705078 21.082031 16.660938 21.082031 14.044922 C 21.082031 12.681348 20.614229 11.06187 19.097656 10.34375 C 18.070715 9.8574779 16.864095 10.058409 16.267578 10.208984 L 16.650391 7.4785156 L 19.621094 7.4785156 C 20.209188 7.4785156 20.707031 7.2313498 20.707031 6.3984375 L 20.707031 5.4472656 L 15.363281 5.4472656 z " />
    </g>
</svg>