<?xml version="1.0" encoding="UTF-8" standalone="no"?>
<!-- Created with Inkscape (http://www.inkscape.org/) -->

<svg
    width="24"
    height="24"
    viewBox="0 0 24 24"
    version="1.1"
    id="svg5"
    inkscape:export-filename="Header3Icon.svg"
    inkscape:export-xdpi="96"
    inkscape:export-ydpi="96"
    sodipodi:docname="Header6Icon.svg"
    inkscape:version="1.3 (0e150ed6c4, 2023-07-21)"
    xmlns:inkscape="http://www.inkscape.org/namespaces/inkscape"
    xmlns:sodipodi="http://sodipodi.sourceforge.net/DTD/sodipodi-0.dtd"
    xmlns="http://www.w3.org/2000/svg"
    xmlns:svg="http://www.w3.org/2000/svg">
    <sodipodi:namedview
        id="namedview7"
        pagecolor="#505050"
        bordercolor="#eeeeee"
        borderopacity="1"
        inkscape:showpageshadow="0"
        inkscape:pageopacity="0"
        inkscape:pagecheckerboard="0"
        inkscape:deskcolor="#505050"
        inkscape:document-units="mm"
        showgrid="false"
        showguides="true"
        inkscape:zoom="26.723218"
        inkscape:cx="7.5215493"
        inkscape:cy="9.1119267"
        inkscape:window-width="1920"
        inkscape:window-height="1009"
        inkscape:window-x="896"
        inkscape:window-y="1075"
        inkscape:window-maximized="1"
        inkscape:current-layer="layer1" />
    <defs
        id="defs2" />
    <g
        inkscape:label="Layer 1"
        inkscape:groupmode="layer"
        id="layer1">
        <path
            id="path7187-3"
            style="font-weight:bold;font-size:16.7914px;font-family:Lato;-inkscape-font-specification:'Lato Bold';fill:#000000;stroke-width:1.00157;stroke-linecap:round;stroke-linejoin:round"
            d="M 2.84375 5.3671875 L 2.84375 18.582031 L 5.0332031 18.582031 L 5.0332031 12.804688 L 9.8066406 12.804688 L 9.8066406 18.582031 L 11.996094 18.582031 L 11.996094 5.3671875 L 9.8066406 5.3671875 L 9.8066406 11.050781 L 5.0332031 11.050781 L 5.0332031 5.3671875 L 2.84375 5.3671875 z M 18.701172 5.4472656 C 18.084057 5.4472656 18.051392 5.5092881 17.712891 5.9726562 L 15.130859 10.171875 C 14.087044 11.981113 13.506665 13.912438 14.113281 15.984375 C 14.404253 16.92116 14.968777 17.850503 16.037109 18.371094 C 16.913302 18.798098 18.162019 18.845446 19.150391 18.361328 C 20.30415 17.802152 20.866777 16.810645 21.140625 16.021484 C 21.560156 14.798662 21.458352 13.42887 21.148438 12.583984 C 20.502886 10.82409 19.161907 10.371094 18.222656 10.371094 C 17.861165 10.371094 17.307898 10.438645 16.761719 10.769531 L 17.136719 10.208984 L 20.347656 5.4472656 L 18.701172 5.4472656 z M 17.585938 12.048828 C 18.881101 12.048828 19.568359 13.093955 19.568359 14.460938 C 19.568359 15.823332 18.738321 16.873047 17.556641 16.873047 C 16.463613 16.873047 15.632812 16.105114 15.632812 14.443359 C 15.632813 13.197146 16.33712 12.048828 17.585938 12.048828 z " />
    </g>
</svg>