<?xml version="1.0" encoding="UTF-8" standalone="no"?>
<!-- Created with Inkscape (http://www.inkscape.org/) -->

<svg
   width="24"
   height="24"
   viewBox="0 0 24 24"
   version="1.1"
   id="svg5"
   inkscape:export-filename="HeartOutlineIcon.svg"
   inkscape:export-xdpi="96"
   inkscape:export-ydpi="96"
   sodipodi:docname="HeartOutlineIcon.svg"
   xmlns:inkscape="http://www.inkscape.org/namespaces/inkscape"
   xmlns:sodipodi="http://sodipodi.sourceforge.net/DTD/sodipodi-0.dtd"
   xmlns="http://www.w3.org/2000/svg"
   xmlns:svg="http://www.w3.org/2000/svg">
  <sodipodi:namedview
     id="namedview7"
     pagecolor="#505050"
     bordercolor="#eeeeee"
     borderopacity="1"
     inkscape:showpageshadow="0"
     inkscape:pageopacity="0"
     inkscape:pagecheckerboard="0"
     inkscape:deskcolor="#505050"
     inkscape:document-units="mm"
     showgrid="false"
     showguides="true" />
  <defs
     id="defs2" />
  <g
     inkscape:label="Layer 1"
     inkscape:groupmode="layer"
     id="layer1">
    <path
       style="color:#000000;fill:#000000;stroke-linecap:round;stroke-linejoin:round;-inkscape-stroke:none"
       d="m 7.7988281,3.3574219 c -1.4184823,0 -2.8404398,0.5494241 -3.921875,1.6308593 -2.1636023,2.1636024 -2.1636027,5.6801478 0,7.8437498 a 0.75598056,0.75598056 0 0 0 0.00391,0.0039 c 1.0030909,0.987725 7.5839849,7.583984 7.5839849,7.583984 a 0.75598056,0.75598056 0 0 0 1.070312,0.002 l 7.587891,-7.589844 c 2.163602,-2.163602 2.163602,-5.6801473 0,-7.8437498 -2.163603,-2.1636022 -5.680149,-2.1636023 -7.84375,0 L 12,5.2675781 11.720703,4.9882812 C 10.639267,3.9068465 9.2173105,3.357422 7.7988281,3.3574219 Z m 8.4023439,1.5078125 c 1.029083,10e-8 2.058584,0.396475 2.853515,1.1914062 1.589862,1.589862 1.589863,4.1171694 0,5.7070314 L 12,18.818359 C 11.19801,18.0145 5.92092,12.724446 4.9453125,11.763672 l -0.00391,-0.0039 c -1.5858544,-1.590098 -1.584619,-4.1146001 0.00391,-5.7031254 0.7952968,-0.7952968 1.822761,-1.1875 2.8535156,-1.1875 1.0307548,1e-7 2.0582174,0.3922027 2.8535159,1.1875 l 0.8125,0.8144531 a 0.75598056,0.75598056 0 0 0 1.070312,0 l 0.8125,-0.8144531 c 0.794931,-0.7949308 1.824433,-1.1914063 2.853516,-1.1914062 z"
       id="rect4273" />
  </g>
</svg>
