<?xml version="1.0" encoding="UTF-8" standalone="no"?>
<svg
    class="MuiSvgIcon-root MuiSvgIcon-fontSizeMedium MuiBox-root css-uqopch"
    focusable="false"
    aria-hidden="true"
    viewBox="0 0 24 24"
    data-testid="RecordVoiceOverIcon"
    version="1.1"
    id="svg1"
    sodipodi:docname="KeyPhrasesIcon.svg"
    inkscape:version="1.3 (0e150ed6c4, 2023-07-21)"
    xmlns:inkscape="http://www.inkscape.org/namespaces/inkscape"
    xmlns:sodipodi="http://sodipodi.sourceforge.net/DTD/sodipodi-0.dtd"
    xmlns="http://www.w3.org/2000/svg"
    xmlns:svg="http://www.w3.org/2000/svg">
    <defs
        id="defs1" />
    <sodipodi:namedview
        id="namedview1"
        pagecolor="#505050"
        bordercolor="#eeeeee"
        borderopacity="1"
        inkscape:showpageshadow="0"
        inkscape:pageopacity="0"
        inkscape:pagecheckerboard="0"
        inkscape:deskcolor="#d1d1d1"
        inkscape:zoom="16.9375"
        inkscape:cx="3.4243542"
        inkscape:cy="14.140221"
        inkscape:window-width="1920"
        inkscape:window-height="1009"
        inkscape:window-x="896"
        inkscape:window-y="1075"
        inkscape:window-maximized="1"
        inkscape:current-layer="svg1" />
    <path
        id="path2"
        d="M9 15c-2.7 0-8 1.3-8 4v2h16v-2c0-2.7-5.3-4-8-4zm7.8-9.6L15 7c.8 1.2.8 2.8 0 4l1.7 1.6c2-2 2-5 0-7.2zM20 2l-1.7 1.6a8 8 0 0 1 0 10.8l1.7 1.6C24 12.1 24 6 20 2zM13 9a4 4 0 0 1-4 4 4 4 0 0 1-4-4 4 4 0 0 1 4-4 4 4 0 0 1 4 4Z" />
</svg>