<?xml version="1.0" encoding="UTF-8" standalone="no"?>
<!-- Created with Inkscape (http://www.inkscape.org/) -->

<svg
   width="24"
   height="24"
   viewBox="0 0 24 24"
   version="1.1"
   id="svg5"
   inkscape:export-filename="CancelIcon.svg"
   inkscape:export-xdpi="96"
   inkscape:export-ydpi="96"
   sodipodi:docname="CancelIcon.svg"
   xmlns:inkscape="http://www.inkscape.org/namespaces/inkscape"
   xmlns:sodipodi="http://sodipodi.sourceforge.net/DTD/sodipodi-0.dtd"
   xmlns="http://www.w3.org/2000/svg"
   xmlns:svg="http://www.w3.org/2000/svg">
  <sodipodi:namedview
     id="namedview7"
     pagecolor="#505050"
     bordercolor="#eeeeee"
     borderopacity="1"
     inkscape:showpageshadow="0"
     inkscape:pageopacity="0"
     inkscape:pagecheckerboard="0"
     inkscape:deskcolor="#505050"
     inkscape:document-units="mm"
     showgrid="false" />
  <defs
     id="defs2" />
  <g
     inkscape:label="Layer 1"
     inkscape:groupmode="layer"
     id="layer1">
    <path
       id="path1686"
       style="color:#000000;fill:#000000;stroke-linecap:round;stroke-linejoin:round"
       d="M 5.7167969,1.21875 C 5.5939797,1.2191172 5.4945079,1.318589 5.4941406,1.4414062 5.4945078,1.5642234 5.5939797,1.6636953 5.7167969,1.6640625 5.8396141,1.6636952 5.9390859,1.5642234 5.9394531,1.4414062 5.9390858,1.318589 5.8396141,1.2191173 5.7167969,1.21875 Z M 7.0566406,1.5507812 C 6.8094816,1.5504404 6.6090341,1.7508879 6.609375,1.9980469 6.6090342,2.2452059 6.8094816,2.4456533 7.0566406,2.4453125 7.3030365,2.4445748 7.5022937,2.2444437 7.5019531,1.9980469 7.5022938,1.7516501 7.3030366,1.5515189 7.0566406,1.5507812 Z M 5.8808594,16.318359 c 0.6098532,0.03148 1.1560207,0.663585 1.15625,1.28125 -0.1488291,0.614239 -0.6475995,0.912348 -1.0581938,1.109909 -0.2040332,0.09817 -1.2535904,-0.9955 -1.3695406,-1.429244 0.1554603,-0.69698 0.6616311,-0.922622 1.2714844,-0.961915 z m 9.3398436,-5.640625 c -0.01433,-0.250335 -0.192452,-0.421369 -0.412109,-0.414062 -0.268208,0.04996 -0.541316,0.07453 -0.814453,0.07617 C 11.521155,10.339243 9.5359856,8.402842 9.5351562,6.015625 9.5364816,4.7887457 10.073008,3.6201012 11.017578,2.7988281 11.300306,2.5532167 11.092058,2.0901399 10.720703,2.1386719 5.7670247,2.7812019 2.0526607,7.0048252 2.0488281,12 c -0.015413,2.604197 0.795399,4.555619 2.5527344,6.671875 1.734374,1.766512 4.0429499,3.304456 7.4999995,3.345703 3.347675,-0.0056 7.667321,-2.601295 9.148438,-6.419922 0.109738,-0.285938 -0.148335,-0.576837 -0.445312,-0.501953 -0.361518,0.09295 -0.733337,0.139706 -1.107422,0.142578 -1.132365,1.58e-4 -2.042855,-0.393258 -2.604709,-0.888783 -0.799888,-0.642098 -1.24298,-1.353842 -1.602173,-2.207292 -0.257912,-0.612804 -0.260028,-1.192833 -0.269681,-1.464472 z m -0.167242,4.722417 c -0.501486,-0.100456 -1.296654,-0.388192 -1.313227,-1.458744 -0.0096,-0.617489 0.875289,-1.272699 1.200972,-1.143669 0.263136,0.615173 1.086547,1.578571 1.297125,1.781658 0.06657,0.06421 -0.600249,0.937864 -1.18487,0.820755 z M 9.7734375,3.2246094 C 9.1933153,4.0572298 8.7784522,4.9894924 8.7773438,6.015625 c 0.2783194,3.6462213 3.1070462,5.14005 5.7246092,5.033203 0.01266,0.422181 0.106559,0.818927 0.21875,1.207031 -0.822642,0.194434 -1.492187,0.829031 -1.492187,1.708985 0,1.026946 0.842793,1.867187 1.86914,1.867187 0.653825,0 1.166864,-0.389587 1.5,-0.902343 1.175206,0.768957 2.15668,1.060443 3.601563,1 C 18.683747,19.091558 15.547743,21.18263 12,21.193359 9.8593737,21.19315 7.9560491,20.379831 6.3945312,19.154297 7.0537723,18.865567 7.5837019,18.330754 7.5839844,17.568359 7.5836035,16.542371 6.7584099,15.842178 5.7324219,15.841797 5.038571,15.842054 4.5265594,16.148835 4.2050781,16.714844 3.3622919,15.32674 2.8068109,13.743811 2.8066406,12 2.8098957,7.7575626 5.7544133,4.251441 9.7734375,3.2246094 Z m 4.9003905,0.46875 c -0.449149,-0.00959 -0.798078,0.5121222 -0.921875,1.0214844 -0.09944,0.4091326 0.440247,0.3371796 0.632813,0.5214843 0.181811,0.174012 0.109321,0.4921875 0.380859,0.4921875 0.559136,-10e-8 1.141262,-0.1710891 1.232422,-0.78125 0.08149,-0.545428 -0.682067,-1.1454387 -1.232422,-1.2441406 -0.0308,-0.00552 -0.06185,-0.00913 -0.0918,-0.00977 z M 13.816406,7.578125 c -0.106746,1.044e-4 -0.193255,0.086613 -0.193359,0.1933594 1.04e-4,0.1067461 0.08661,0.193255 0.193359,0.1933594 0.106747,-1.038e-4 0.193256,-0.086613 0.19336,-0.1933594 -1.04e-4,-0.1067465 -0.08661,-0.1932556 -0.19336,-0.1933594 z m 4.138672,0.015625 c -0.298699,0.011716 -0.53125,0.203165 -0.53125,0.5058594 0.40937,0.4752149 0.757653,0.3276307 1.126953,0.058594 0,-0.3124586 -0.253947,-0.5644532 -0.566406,-0.5644531 -0.0098,0 -0.01966,-3.779e-4 -0.0293,0 z M 12.640625,8.0253906 C 12.49294,8.0256175 12.373274,8.1452836 12.373047,8.2929688 12.373274,8.440654 12.49294,8.56032 12.640625,8.5605469 12.78831,8.56032 12.907976,8.440654 12.908203,8.2929688 12.907976,8.1452836 12.78831,8.0256175 12.640625,8.0253906 Z m 9.630859,0.234375 c -0.170232,0 -0.288371,0.3441094 -0.501953,0.3496094 -0.310134,0.00799 -0.716797,-0.076111 -0.716797,0.1894531 0,0.4357975 0.353265,0.7890626 0.789063,0.7890625 0.435797,1e-7 0.789062,-0.353265 0.789062,-0.7890625 0,-0.4357974 0.07642,-0.5390624 -0.359375,-0.5390625 z m -8.544922,0.1523438 c -0.28779,-1e-7 -0.716795,0.4446311 -0.513671,0.7714844 0.7159,0.3330878 1.445181,-0.048178 0.513671,-0.7714844 z M 7.1450289,8.8208102 C 6.3400118,8.7438511 5.3887079,9.518379 5.3883269,10.544366 5.3873604,11.571293 6.0297138,12.468369 7.0566406,12.46875 8.1066028,12.259795 8.5621471,11.638523 8.737956,10.511221 8.6381382,9.3848581 8.171955,8.819844 7.1450289,8.8208102 Z M 7.167126,9.379749 c 0.6182531,-5.817e-4 1.0006134,0.6016074 1.0008428,1.21986 5.825e-4,0.618842 -0.492487,1.222395 -1.1113282,1.221814 C 6.2837074,11.743854 5.9466837,11.217863 5.9472656,10.599609 5.947495,9.9819441 6.5494603,9.3799782 7.167126,9.379749 Z m 13.89928,0.66322 c -0.17449,0.0062 -0.410537,0.08501 -0.679687,0.257812 -0.226494,0.378622 0.201399,0.75569 0.546875,0.65625 0.619482,-0.533645 0.546078,-0.92864 0.132812,-0.914062 z m -2.351562,2.701172 c -0.254431,3.31e-4 -0.460607,0.206506 -0.460938,0.460937 -7.48e-4,0.255194 0.205743,0.46256 0.460938,0.462891 0.255195,-3.31e-4 0.461685,-0.207697 0.460937,-0.462891 -3.31e-4,-0.254431 -0.206506,-0.460606 -0.460937,-0.460937 z m -6.238282,3.939453 c -1.025988,3.81e-4 -1.767369,0.808053 -1.867187,1.867187 3.81e-4,1.025988 0.874345,1.435914 1.955575,1.590974 1.025988,-3.8e-4 2.120924,-0.609179 2.121305,-1.635168 -3.81e-4,-1.025988 -1.249996,-1.723176 -2.209693,-1.822993 z m 9.210938,0.0059 c -0.206221,-4.65e-4 -0.373512,0.166826 -0.373047,0.373047 6.15e-4,0.205457 0.167589,0.371558 0.373047,0.371094 0.204696,-6.12e-4 0.370482,-0.166398 0.371094,-0.371094 4.64e-4,-0.205458 -0.165637,-0.372432 -0.371094,-0.373047 z m -9.233035,0.530982 c 0.617666,2.29e-4 1.650525,0.712681 1.650755,1.330346 -2.3e-4,0.617667 -0.767924,1.064952 -1.38559,1.065181 -0.617666,-2.29e-4 -1.551088,-0.425417 -1.551316,-1.043084 2.28e-4,-0.617665 0.668485,-1.352213 1.286151,-1.352443 z"
       sodipodi:nodetypes="ccccccccccccscccccccccccccccscsscssccccssccccccccccsssssscscccsccssccsccsscssscccccccccccccsccscccccccccccccccccccccc" />
  </g>
</svg>
