<?xml version="1.0" encoding="UTF-8" standalone="no"?>
<!-- Created with Inkscape (http://www.inkscape.org/) -->

<svg
   width="24"
   height="24"
   viewBox="0 0 24 24"
   version="1.1"
   id="svg5"
   inkscape:export-filename="StrikethroughIcon.svg"
   inkscape:export-xdpi="96"
   inkscape:export-ydpi="96"
   sodipodi:docname="ListCheckIcon.svg"
   inkscape:version="1.2 (dc2aedaf03, 2022-05-15)"
   xmlns:inkscape="http://www.inkscape.org/namespaces/inkscape"
   xmlns:sodipodi="http://sodipodi.sourceforge.net/DTD/sodipodi-0.dtd"
   xmlns="http://www.w3.org/2000/svg"
   xmlns:svg="http://www.w3.org/2000/svg">
  <sodipodi:namedview
     id="namedview7"
     pagecolor="#505050"
     bordercolor="#eeeeee"
     borderopacity="1"
     inkscape:showpageshadow="0"
     inkscape:pageopacity="0"
     inkscape:pagecheckerboard="0"
     inkscape:deskcolor="#505050"
     inkscape:document-units="mm"
     showgrid="false"
     showguides="false"
     inkscape:zoom="11.313709"
     inkscape:cx="-3.2703689"
     inkscape:cy="4.5078057"
     inkscape:window-width="1920"
     inkscape:window-height="1009"
     inkscape:window-x="1912"
     inkscape:window-y="-8"
     inkscape:window-maximized="1"
     inkscape:current-layer="layer1" />
  <defs
     id="defs2" />
  <g
     inkscape:label="Layer 1"
     inkscape:groupmode="layer"
     id="layer1">
    <path
       id="path865"
       style="color:#000000;fill:#000000;stroke-linecap:square;stroke-linejoin:round;fill-opacity:1;stroke-width:1.0015748;stroke-dasharray:none"
       d="M 7.2480469 2.84375 C 7.1247778 2.8436778 7.0012028 2.8827779 6.9257812 2.9707031 L 4.5390625 5.6796875 L 3.5507812 4.6777344 C 3.2659683 4.412358 2.9714741 4.5219007 2.8320312 4.6699219 C 2.6925884 4.817943 2.5757819 5.1304499 2.8085938 5.4238281 L 4.5390625 7.1601562 L 7.6914062 3.6191406 C 7.8776446 3.3996058 7.7127541 3.088475 7.5664062 2.9511719 C 7.4932324 2.8825202 7.3713159 2.8438222 7.2480469 2.84375 z M 8.6796875 4.5234375 L 8.6796875 7.1699219 L 19.927734 7.1699219 L 21.25 7.1699219 L 21.25 4.5234375 L 19.927734 4.5234375 L 8.6796875 4.5234375 z M 7.0605469 9.0664062 C 6.9372778 9.0663341 6.8137028 9.1054341 6.7382812 9.1933594 L 4.3515625 11.902344 L 3.3632812 10.900391 C 3.0784683 10.635015 2.7859272 10.744556 2.6464844 10.892578 C 2.5070415 11.040599 2.3882819 11.353107 2.6210938 11.646484 L 4.3515625 13.384766 L 7.5039062 9.8417969 C 7.6901446 9.6222621 7.5252541 9.3111313 7.3789062 9.1738281 C 7.3057324 9.1051765 7.1838159 9.0664784 7.0605469 9.0664062 z M 8.6796875 10.677734 L 8.6796875 13.322266 L 19.927734 13.322266 L 21.25 13.322266 L 21.25 10.677734 L 19.927734 10.677734 L 8.6796875 10.677734 z M 7.0605469 15.166016 C 6.9372778 15.165943 6.8137028 15.205046 6.7382812 15.292969 L 4.3515625 18.001953 L 3.3632812 17 C 3.0784683 16.734623 2.7859272 16.844176 2.6464844 16.992188 C 2.5070415 17.140208 2.3882816 17.452716 2.6210938 17.746094 L 4.3515625 19.482422 L 7.5039062 15.939453 C 7.6901446 15.719918 7.5252545 15.41074 7.3789062 15.273438 C 7.3057324 15.204786 7.1838159 15.166088 7.0605469 15.166016 z M 8.6796875 16.802734 L 8.6796875 19.447266 L 19.927734 19.447266 L 21.25 19.447266 L 21.25 16.802734 L 19.927734 16.802734 L 8.6796875 16.802734 z " />
  </g>
</svg>
