<?xml version="1.0" encoding="UTF-8" standalone="no"?>
<!-- Created with Inkscape (http://www.inkscape.org/) -->

<svg
    width="24"
    height="24"
    viewBox="0 0 24 24"
    version="1.1"
    id="svg5"
    inkscape:export-filename="LogOutIcon.svg"
    inkscape:export-xdpi="96"
    inkscape:export-ydpi="96"
    sodipodi:docname="CopyIcon.svg"
    xmlns:inkscape="http://www.inkscape.org/namespaces/inkscape"
    xmlns:sodipodi="http://sodipodi.sourceforge.net/DTD/sodipodi-0.dtd"
    xmlns="http://www.w3.org/2000/svg"
    xmlns:svg="http://www.w3.org/2000/svg">
    <sodipodi:namedview
        id="namedview7"
        pagecolor="#505050"
        bordercolor="#eeeeee"
        borderopacity="1"
        inkscape:showpageshadow="0"
        inkscape:pageopacity="0"
        inkscape:pagecheckerboard="0"
        inkscape:deskcolor="#505050"
        inkscape:document-units="mm"
        showgrid="false" />
    <defs
        id="defs2" />
    <g
        inkscape:label="Layer 1"
        inkscape:groupmode="layer"
        id="layer1">
        <path
            id="path21076"
            style="color:#000000;fill:#000000;stroke-width:0.999999;stroke-linecap:round;stroke-linejoin:round;-inkscape-stroke:none"
            d="M 5.9882813,3.4160158 C 4.5045838,3.4160157 3.3867189,4.7257463 3.3867189,6.2050783 V 17.796875 c -10e-8,1.480308 1.1196679,2.787109 2.6015624,2.787109 H 13.726562 A 0.89778169,0.89778169 0 0 0 14.625,19.6875 0.89778169,0.89778169 0 0 0 13.726562,18.789062 H 5.9882813 c -0.3790546,0 -0.8046874,-0.407777 -0.8046874,-0.992187 V 6.2050783 c 0,-0.585383 0.4240748,-0.9941406 0.8046874,-0.9941406 H 13.726562 A 0.89778169,0.89778169 0 0 0 14.625,4.3125002 0.89778169,0.89778169 0 0 0 13.726562,3.4160158 Z m 9.5761717,3.6386719 a 1.0144939,1.0144939 0 0 0 -0.605469,0.2890625 1.0144939,1.0144939 0 0 0 -0.002,1.4355469 l 2.234375,2.2441409 H 9.8652345 a 0.96840189,0.96840189 0 0 0 -0.9667969,0.966796 0.96840189,0.96840189 0 0 0 0.9667969,0.96875 h 7.3417965 l -2.25,2.261719 a 1.0144939,1.0144939 0 0 0 0.002,1.435547 1.0144939,1.0144939 0 0 0 1.435547,-0.002 l 3.898438,-3.917969 a 1.0144939,1.0144939 0 0 0 0.183593,-0.253906 1.0144939,1.0144939 0 0 0 0.0098,-0.01758 0.96840189,0.96840189 0 0 0 0.126953,-0.47461 0.96840189,0.96840189 0 0 0 -0.166015,-0.529296 1.0144939,1.0144939 0 0 0 -0.0059,-0.0078 1.0144939,1.0144939 0 0 0 -0.148437,-0.189453 L 16.394531,7.3457033 A 1.0144939,1.0144939 0 0 0 15.564453,7.0546877 Z" />
    </g>
</svg>