<?xml version="1.0" encoding="UTF-8" standalone="no"?>
<!-- Created with Inkscape (http://www.inkscape.org/) -->

<svg
   width="24"
   height="24"
   viewBox="0 0 24 24"
   version="1.1"
   id="svg5"
   inkscape:export-filename="NotificationsOnIcon.svg"
   inkscape:export-xdpi="96"
   inkscape:export-ydpi="96"
   sodipodi:docname="Microphone.svg"
   inkscape:version="1.2 (dc2aedaf03, 2022-05-15)"
   xmlns:inkscape="http://www.inkscape.org/namespaces/inkscape"
   xmlns:sodipodi="http://sodipodi.sourceforge.net/DTD/sodipodi-0.dtd"
   xmlns="http://www.w3.org/2000/svg"
   xmlns:svg="http://www.w3.org/2000/svg">
  <sodipodi:namedview
     id="namedview7"
     pagecolor="#505050"
     bordercolor="#eeeeee"
     borderopacity="1"
     inkscape:showpageshadow="0"
     inkscape:pageopacity="0"
     inkscape:pagecheckerboard="0"
     inkscape:deskcolor="#505050"
     inkscape:document-units="mm"
     showgrid="false"
     showguides="true"
     inkscape:zoom="30.788608"
     inkscape:cx="7.6489331"
     inkscape:cy="10.864408"
     inkscape:window-width="2400"
     inkscape:window-height="1261"
     inkscape:window-x="-9"
     inkscape:window-y="-9"
     inkscape:window-maximized="1"
     inkscape:current-layer="layer1" />
  <defs
     id="defs2" />
  <g
     inkscape:label="Layer 1"
     inkscape:groupmode="layer"
     id="layer1">
    <path
       style="color:#000000;fill:#000000;stroke-linecap:round;stroke-linejoin:round;-inkscape-stroke:none"
       d="m 12,2.5292969 c -2.7006832,0 -4.609375,1.8495908 -4.609375,4.1230468 v 5.6132813 c 0,2.273456 1.9086918,4.121094 4.609375,4.121094 2.700683,0 4.609375,-1.847638 4.609375,-4.121094 V 6.6523437 C 16.609375,4.3788877 14.700683,2.5292969 12,2.5292969 Z m 0,1.1347656 c 2.21292,0 3.474609,1.3233704 3.474609,2.9882812 v 5.6132813 c 0,1.66491 -1.261689,2.988281 -3.474609,2.988281 -2.2129201,0 -3.4746094,-1.323371 -3.4746094,-2.988281 V 6.6523437 C 8.5253906,4.9874329 9.7870799,3.6640625 12,3.6640625 Z m 7.519531,9.6777345 a 0.56693,0.56693 0 0 0 -0.726562,0.339844 C 17.896318,16.160534 15.859814,17.970703 12,17.970703 c -3.8726852,0 -5.7582497,-1.655463 -6.7988281,-4.302734 a 0.56693,0.56693 0 0 0 -0.734375,-0.320313 0.56693,0.56693 0 0 0 -0.3203125,0.734375 c 1.106245,2.81433 3.4419525,4.757052 7.2871096,4.949219 v 1.871094 A 0.56693,0.56693 0 0 0 12,21.470703 0.56693,0.56693 0 0 0 12.566406,20.902344 v -1.875 c 3.87014,-0.201238 6.311397,-2.245315 7.292969,-4.958985 a 0.56693,0.56693 0 0 0 -0.339844,-0.726562 z"
       id="path5709" />
  </g>
</svg>
