<?xml version="1.0" encoding="UTF-8" standalone="no"?>
<!-- Created with Inkscape (http://www.inkscape.org/) -->

<svg
   width="24"
   height="24"
   viewBox="0 0 24 24"
   version="1.1"
   id="svg5"
   inkscape:export-filename="NotificationsOnIcon.svg"
   inkscape:export-xdpi="96"
   inkscape:export-ydpi="96"
   sodipodi:docname="MicrophoneOnIcon.svg"
   inkscape:version="1.2 (dc2aedaf03, 2022-05-15)"
   xmlns:inkscape="http://www.inkscape.org/namespaces/inkscape"
   xmlns:sodipodi="http://sodipodi.sourceforge.net/DTD/sodipodi-0.dtd"
   xmlns="http://www.w3.org/2000/svg"
   xmlns:svg="http://www.w3.org/2000/svg">
  <sodipodi:namedview
     id="namedview7"
     pagecolor="#505050"
     bordercolor="#eeeeee"
     borderopacity="1"
     inkscape:showpageshadow="0"
     inkscape:pageopacity="0"
     inkscape:pagecheckerboard="0"
     inkscape:deskcolor="#505050"
     inkscape:document-units="mm"
     showgrid="false"
     showguides="true"
     inkscape:zoom="30.788608"
     inkscape:cx="5.4728034"
     inkscape:cy="10.961847"
     inkscape:window-width="2400"
     inkscape:window-height="1261"
     inkscape:window-x="-9"
     inkscape:window-y="-9"
     inkscape:window-maximized="1"
     inkscape:current-layer="layer1" />
  <defs
     id="defs2" />
  <g
     inkscape:label="Layer 1"
     inkscape:groupmode="layer"
     id="layer1">
    <path
       style="color:#000000;fill:#000000;stroke-linecap:round;stroke-linejoin:round;-inkscape-stroke:none"
       d="m 12,2.5292969 c -2.7006832,0 -4.609375,1.8495908 -4.609375,4.1230468 v 5.6132813 c 0,2.273456 1.9086918,4.121094 4.609375,4.121094 2.700683,0 4.609375,-1.847638 4.609375,-4.121094 V 6.6523437 C 16.609375,4.3788877 14.700683,2.5292969 12,2.5292969 Z m 7.519531,10.8125001 c -0.294487,-0.106939 -0.619883,0.04526 -0.726562,0.339844 -0.896651,2.478893 -2.933155,4.289062 -6.792969,4.289062 -3.8726852,0 -5.7582497,-1.655463 -6.7988281,-4.302734 -0.114513,-0.291077 -0.4431355,-0.434413 -0.734375,-0.320313 -0.2910771,0.114513 -0.4344124,0.443136 -0.3203125,0.734375 1.106245,2.81433 3.4419525,4.757052 7.2871096,4.949219 v 1.871094 c -7.9e-4,0.31346 0.252945,0.56807 0.566406,0.568359 0.313461,-2.89e-4 0.567196,-0.254899 0.566406,-0.568359 v -1.875 c 3.87014,-0.201238 6.311397,-2.245315 7.292969,-4.958985 0.106939,-0.294487 -0.04526,-0.619883 -0.339844,-0.726562 z"
       id="path5709"
       sodipodi:nodetypes="sssssssccscccccccccc" />
  </g>
</svg>
