<?xml version="1.0" encoding="UTF-8" standalone="no"?>
<!-- Created with Inkscape (http://www.inkscape.org/) -->

<svg
   width="24"
   height="24"
   viewBox="0 0 24 24"
   version="1.1"
   id="svg5"
   inkscape:export-filename="ArticleIcon.svg"
   inkscape:export-xdpi="96"
   inkscape:export-ydpi="96"
   sodipodi:docname="MonthIcon.svg"
   inkscape:version="1.2 (dc2aedaf03, 2022-05-15)"
   xmlns:inkscape="http://www.inkscape.org/namespaces/inkscape"
   xmlns:sodipodi="http://sodipodi.sourceforge.net/DTD/sodipodi-0.dtd"
   xmlns="http://www.w3.org/2000/svg"
   xmlns:svg="http://www.w3.org/2000/svg">
  <sodipodi:namedview
     id="namedview7"
     pagecolor="#505050"
     bordercolor="#eeeeee"
     borderopacity="1"
     inkscape:showpageshadow="0"
     inkscape:pageopacity="0"
     inkscape:pagecheckerboard="0"
     inkscape:deskcolor="#505050"
     inkscape:document-units="mm"
     showgrid="false"
     showguides="true"
     inkscape:zoom="22.36624"
     inkscape:cx="9.2103097"
     inkscape:cy="11.244626"
     inkscape:window-width="1920"
     inkscape:window-height="991"
     inkscape:window-x="-9"
     inkscape:window-y="-9"
     inkscape:window-maximized="1"
     inkscape:current-layer="layer1" />
  <defs
     id="defs2" />
  <g
     inkscape:label="Layer 1"
     inkscape:groupmode="layer"
     id="layer1">
    <path
       id="path3247"
       style="fill:#000000;fill-opacity:1;stroke-width:1.00157;stroke-linecap:round;stroke-linejoin:round"
       d="m 5.4335938,3.8515625 c -0.8756778,0 -1.5820313,0.7063535 -1.5820313,1.5820313 V 18.566406 c 0,0.875675 0.7063535,1.582031 1.5820313,1.582032 H 18.566406 c 0.875675,0 1.582031,-0.706357 1.582032,-1.582032 V 5.4335938 c 0,-0.8756778 -0.706357,-1.5820313 -1.582032,-1.5820313 z m 1.6875,1.296875 h 9.7578122 c 0.279947,0 0.50586,0.2259167 0.50586,0.5058594 V 5.828125 c 0,0.2799426 -0.225913,0.5058594 -0.50586,0.5058594 H 7.1210938 c -0.2799441,0 -0.5058594,-0.2259168 -0.5058594,-0.5058594 V 5.6542969 c 0,-0.2799427 0.2259153,-0.5058594 0.5058594,-0.5058594 z m 1.2089843,3.6542969 h 1.578125 c 0.2560549,0 0.4609379,0.2068394 0.4609379,0.4628906 v 1.578125 c 0,0.256055 -0.204883,0.460937 -0.4609379,0.460938 h -1.578125 c -0.2560512,0 -0.4628906,-0.204883 -0.4628906,-0.460938 V 9.265625 c 0,-0.2560512 0.2068394,-0.4628906 0.4628906,-0.4628906 z m 2.8769529,0 h 1.578125 c 0.256055,0 0.462891,0.2068391 0.462891,0.4628906 v 1.578125 c 0,0.256055 -0.206836,0.460937 -0.462891,0.460938 h -1.578125 c -0.256044,0 -0.46289,-0.204883 -0.46289,-0.460938 V 9.265625 c 0,-0.2560515 0.206846,-0.4628906 0.46289,-0.4628906 z m 2.878907,0 h 1.578124 c 0.256055,0 0.460938,0.2068388 0.460938,0.4628906 v 1.578125 c 0,0.256055 -0.204883,0.460937 -0.460938,0.460938 h -1.578124 c -0.256055,0 -0.462891,-0.204883 -0.462891,-0.460938 V 9.265625 c 0,-0.2560518 0.206836,-0.4628906 0.462891,-0.4628906 z m 2.876953,0 h 1.578125 c 0.256046,0 0.46289,0.2068385 0.46289,0.4628906 v 1.578125 c 0,0.256055 -0.206844,0.460937 -0.46289,0.460938 h -1.578125 c -0.256055,0 -0.460938,-0.204883 -0.460938,-0.460938 V 9.265625 c 0,-0.2560521 0.204883,-0.4628906 0.460938,-0.4628906 z M 5.4511719,11.878906 h 1.578125 c 0.2560524,0 0.4628906,0.204883 0.4628906,0.460938 v 1.578125 c 0,0.256047 -0.2068382,0.46289 -0.4628906,0.46289 h -1.578125 c -0.2560532,0 -0.4628906,-0.206843 -0.4628907,-0.46289 v -1.578125 c 0,-0.256055 0.2068375,-0.460938 0.4628907,-0.460938 z m 2.8789062,0 h 1.578125 c 0.2560549,0 0.4609379,0.204883 0.4609379,0.460938 v 1.578125 c 0,0.256048 -0.204883,0.46289 -0.4609379,0.46289 h -1.578125 c -0.2560527,0 -0.4628906,-0.206842 -0.4628906,-0.46289 v -1.578125 c 0,-0.256055 0.2068379,-0.460938 0.4628906,-0.460938 z m 2.8769529,0 h 1.578125 c 0.256055,0 0.462891,0.204883 0.462891,0.460938 v 1.578125 c 0,0.256049 -0.206836,0.46289 -0.462891,0.46289 h -1.578125 c -0.256049,0 -0.46289,-0.206841 -0.46289,-0.46289 v -1.578125 c 0,-0.256055 0.206841,-0.460938 0.46289,-0.460938 z m 2.878907,0 h 1.578124 c 0.256055,0 0.460938,0.204883 0.460938,0.460938 v 1.578125 c 0,0.25605 -0.204883,0.46289 -0.460938,0.46289 h -1.578124 c -0.256055,0 -0.462891,-0.20684 -0.462891,-0.46289 v -1.578125 c 0,-0.256055 0.206836,-0.460938 0.462891,-0.460938 z m 2.876953,0 h 1.578125 c 0.256051,0 0.46289,0.204883 0.46289,0.460938 v 1.578125 c 0,0.256051 -0.206839,0.46289 -0.46289,0.46289 h -1.578125 c -0.256055,0 -0.460938,-0.206839 -0.460938,-0.46289 v -1.578125 c 0,-0.256055 0.204883,-0.460938 0.460938,-0.460938 z M 5.3671875,14.953125 h 1.578125 c 0.2560539,0 0.4628906,0.206836 0.4628906,0.462891 v 1.578125 c 0,0.256052 -0.2068367,0.46289 -0.4628906,0.46289 h -1.578125 c -0.2560539,0 -0.4609375,-0.206838 -0.4609375,-0.46289 v -1.578125 c 0,-0.256055 0.2048836,-0.462891 0.4609375,-0.462891 z m 2.8789063,0 h 1.578125 c 0.2560542,0 0.4628902,0.206836 0.4628902,0.462891 v 1.578125 c 0,0.256053 -0.206836,0.46289 -0.4628902,0.46289 h -1.578125 c -0.2560544,0 -0.4628907,-0.206837 -0.4628907,-0.46289 v -1.578125 c 0,-0.256055 0.2068363,-0.462891 0.4628907,-0.462891 z m 2.8769532,0 h 1.578125 c 0.256054,0 0.462891,0.206836 0.46289,0.462891 v 1.578125 c 0,0.256054 -0.206836,0.46289 -0.46289,0.46289 h -1.578125 c -0.256055,0 -0.460938,-0.206836 -0.460938,-0.46289 v -1.578125 c 0,-0.256055 0.204883,-0.462891 0.460938,-0.462891 z"
       sodipodi:nodetypes="ssscscsssssssssssssssscsssssssscsssssssscsssssssscssssssssssssssssssssssssssssssssssssssssssssssssssssssssssssssssssssscssssss" />
  </g>
</svg>
