<?xml version="1.0" encoding="UTF-8" standalone="no"?>
<svg
    width="24"
    height="24"
    version="1.1"
    id="svg944"
    sodipodi:docname="MoveDownIcon.svg"
    inkscape:export-filename="MoveRightIcon.svg"
    inkscape:export-xdpi="96"
    inkscape:export-ydpi="96"
    xmlns:inkscape="http://www.inkscape.org/namespaces/inkscape"
    xmlns:sodipodi="http://sodipodi.sourceforge.net/DTD/sodipodi-0.dtd"
    xmlns="http://www.w3.org/2000/svg"
    xmlns:svg="http://www.w3.org/2000/svg">
    <defs
        id="defs948" />
    <sodipodi:namedview
        id="namedview946"
        pagecolor="#505050"
        bordercolor="#eeeeee"
        borderopacity="1"
        inkscape:showpageshadow="0"
        inkscape:pageopacity="0"
        inkscape:pagecheckerboard="0"
        inkscape:deskcolor="#505050"
        showgrid="false" />
    <path
        id="path4590"
        style="fill:#000000;stroke:#000000;stroke-width:0;stroke-linecap:round;stroke-dasharray:none"
        d="m 12.039062,1.4941406 c -3.5991098,0 -6.558467,2.7073396 -6.9550776,6.1992188 C 4.5990879,7.2693748 3.8878242,6.6319649 3.3710938,6.1152344 2.3503148,5.0944554 1.0429354,6.6050875 1.9609375,7.5253906 L 5.9511719,11.525391 9.9609375,7.5253906 C 10.681756,6.8063703 9.4140664,5.2577052 8.5507812,6.1152344 L 7.1347656,7.5234375 C 7.5869792,5.2274328 9.6110978,3.4941406 12.039062,3.4941406 c 2.449997,0 4.470158,1.7600825 4.910157,4.0800782 l -1.5,-1.4902344 C 14.585934,5.2264552 13.318243,6.7751203 14.039062,7.4941406 l 4.009766,4.0000004 3.990234,-4.0000004 C 22.268563,7.2640649 22.359017,6.9972622 22.349609,6.7421875 22.321389,5.9769633 21.39449,5.3184001 20.628906,6.0839844 L 19.048828,7.6640625 C 18.155663,3.4068101 14.941324,1.5762925 12.039062,1.4941406 Z m 1.111329,13.0097654 v 7 h 8.507812 v -7 z m -9.7968754,0.0293 v 7 h 8.1796874 v -7 z m 11.6875004,1.970703 h 4.726562 v 3 h -4.726562 z" />
</svg>