<?xml version="1.0" encoding="UTF-8" standalone="no"?>
<svg
   width="24"
   height="24"
   version="1.1"
   id="svg944"
   sodipodi:docname="MoveDownIcon.svg"
   xmlns:inkscape="http://www.inkscape.org/namespaces/inkscape"
   xmlns:sodipodi="http://sodipodi.sourceforge.net/DTD/sodipodi-0.dtd"
   xmlns="http://www.w3.org/2000/svg"
   xmlns:svg="http://www.w3.org/2000/svg">
  <defs
     id="defs948" />
  <sodipodi:namedview
     id="namedview946"
     pagecolor="#505050"
     bordercolor="#eeeeee"
     borderopacity="1"
     inkscape:showpageshadow="0"
     inkscape:pageopacity="0"
     inkscape:pagecheckerboard="0"
     inkscape:deskcolor="#505050"
     showgrid="false" />
  <path
     id="path942"
     style="fill:#000000;stroke:#000000;stroke-width:0;stroke-linecap:round;stroke-dasharray:none"
     d="m 13.503906,3.3424693 v 6.9999997 h 9 V 3.3424693 Z m -5.0078122,0.00391 c -3.8699962,0 -7.0000001,3.1300036 -7.0000001,6.9999997 0.082153,2.902263 1.9126657,6.1166 6.1699219,7.009766 l -1.5800781,1.580074 c -1.0207799,1.02078 0.4898521,2.328159 1.4101562,1.410156 L 11.496094,16.356141 7.4960937,12.346375 C 6.7770725,11.625556 5.2284074,12.891292 6.0859375,13.754578 l 1.4902343,1.5 c -2.3199977,-0.439999 -4.080078,-2.458205 -4.080078,-4.908203 0,-2.759997 2.2400027,-4.9999995 5,-4.9999995 h 3.0000002 v -2 z m 7.0078122,1.99609 h 5 v 3 h -5 z m -2,6.9999997 v 7 h 9 v -7 z" />
</svg>
