<?xml version="1.0" encoding="UTF-8" standalone="no"?>
<!-- Created with Inkscape (http://www.inkscape.org/) -->

<svg
   width="24"
   height="24"
   viewBox="0 0 24 24"
   version="1.1"
   id="svg5"
   inkscape:export-filename="DeleteIcon.svg"
   inkscape:export-xdpi="96"
   inkscape:export-ydpi="96"
   sodipodi:docname="BoldIcon.svg"
   xmlns:inkscape="http://www.inkscape.org/namespaces/inkscape"
   xmlns:sodipodi="http://sodipodi.sourceforge.net/DTD/sodipodi-0.dtd"
   xmlns="http://www.w3.org/2000/svg"
   xmlns:svg="http://www.w3.org/2000/svg">
  <sodipodi:namedview
     id="namedview7"
     pagecolor="#505050"
     bordercolor="#eeeeee"
     borderopacity="1"
     inkscape:showpageshadow="0"
     inkscape:pageopacity="0"
     inkscape:pagecheckerboard="0"
     inkscape:deskcolor="#505050"
     inkscape:document-units="mm"
     showgrid="false"
     showguides="true" />
  <defs
     id="defs2" />
  <g
     inkscape:label="Layer 1"
     inkscape:groupmode="layer"
     id="layer1">
    <path
       id="rect23309"
       style="fill:#000000;fill-opacity:1;stroke:none;stroke-width:1.88976;stroke-linecap:round;stroke-linejoin:round"
       d="M 12.097817,2.4723698 C 10.9348,2.4755044 9.974382,3.3818145 9.9038878,4.5426982 7.3704948,5.2099997 5.5383448,7.2310052 5.5383448,9.634401 v 6.245318 c 0.026398,0.335326 -0.4660759,0.713877 -0.6695091,0.968214 -0.4123455,0.515524 -0.5603468,1.308797 -0.070384,1.320135 2.8452674,0.06586 11.3388113,0.09469 14.0459583,0.0515 0.724152,-0.01156 0.871502,-0.733638 0.370804,-1.412837 -0.188103,-0.255161 -0.704702,-0.584708 -0.664358,-0.927012 V 9.634401 c 0,-2.3672458 -1.777983,-4.3619052 -4.252242,-5.0590858 C 14.244659,3.3989373 13.275432,2.4728034 12.097817,2.4723698 Z M 9.364847,19.11568 a 2.6530052,2.6530052 0 0 0 2.633402,2.41195 2.6530052,2.6530052 0 0 0 2.636837,-2.41195 z" />
  </g>
</svg>
