<?xml version="1.0" encoding="UTF-8" standalone="no"?>
<!-- Created with Inkscape (http://www.inkscape.org/) -->

<svg
   width="24"
   height="24"
   viewBox="0 0 24 24"
   version="1.1"
   id="svg5"
   inkscape:export-filename="HelpIcon.svg"
   inkscape:export-xdpi="96"
   inkscape:export-ydpi="96"
   sodipodi:docname="ObjectIcon.svg"
   inkscape:version="1.3 (0e150ed6c4, 2023-07-21)"
   xmlns:inkscape="http://www.inkscape.org/namespaces/inkscape"
   xmlns:sodipodi="http://sodipodi.sourceforge.net/DTD/sodipodi-0.dtd"
   xmlns="http://www.w3.org/2000/svg"
   xmlns:svg="http://www.w3.org/2000/svg">
  <sodipodi:namedview
     id="namedview7"
     pagecolor="#505050"
     bordercolor="#eeeeee"
     borderopacity="1"
     inkscape:showpageshadow="0"
     inkscape:pageopacity="0"
     inkscape:pagecheckerboard="0"
     inkscape:deskcolor="#505050"
     inkscape:document-units="mm"
     showgrid="false"
     inkscape:zoom="23.953242"
     inkscape:cx="10.01952"
     inkscape:cy="8.7044584"
     inkscape:window-width="1920"
     inkscape:window-height="1009"
     inkscape:window-x="-8"
     inkscape:window-y="-8"
     inkscape:window-maximized="1"
     inkscape:current-layer="layer1" />
  <defs
     id="defs2" />
  <g
     inkscape:label="Layer 1"
     inkscape:groupmode="layer"
     id="layer1">
    <path
       d="m 4,7 v 2 c 0,0.55 -0.45,1 -1,1 0,0 -1,0.04431 -1,2 0,1.955688 1,2 1,2 0.55,0 1,0.45 1,1 v 2 c 0,1.65 1.35,3 3,3 h 3 V 18 H 7 C 6.45,18 6,17.55 6,17 V 15 C 6,13.7 5.16,12.58 4,12.17 V 11.83 C 5.16,11.42 6,10.3 6,9 V 7 C 6,6.45 6.45,6 7,6 h 3 V 4 H 7 C 5.35,4 4,5.35 4,7 Z m 17,3 C 20.45,10 20,9.55 20,9 V 7 C 20,5.35 18.65,4 17,4 h -3 v 2 h 3 c 0.55,0 1,0.45 1,1 v 2 c 0,1.3 0.84,2.42 2,2.83 v 0.34 c -1.16,0.41 -2,1.52 -2,2.83 v 2 c 0,0.55 -0.45,1 -1,1 h -3 v 2 h 3 c 1.65,0 3,-1.35 3,-3 v -2 c 0,-0.55 0.45,-1 1,-1 0,0 1,-0.04431 1,-2 0,-1.955688 -1,-2 -1,-2 z"
       id="path1"
       sodipodi:nodetypes="ssszssssccsssccsssccssssssccsssccsssccsssszs" />
  </g>
</svg>
