<?xml version="1.0" encoding="UTF-8" standalone="no"?>
<svg
   width="24"
   height="24"
   version="1.1"
   id="svg2951"
   sodipodi:docname="OpenInNewIcon.svg"
   xmlns:inkscape="http://www.inkscape.org/namespaces/inkscape"
   xmlns:sodipodi="http://sodipodi.sourceforge.net/DTD/sodipodi-0.dtd"
   xmlns="http://www.w3.org/2000/svg"
   xmlns:svg="http://www.w3.org/2000/svg">
  <defs
     id="defs2955" />
  <sodipodi:namedview
     id="namedview2953"
     pagecolor="#505050"
     bordercolor="#eeeeee"
     borderopacity="1"
     inkscape:showpageshadow="0"
     inkscape:pageopacity="0"
     inkscape:pagecheckerboard="0"
     inkscape:deskcolor="#505050"
     showgrid="false" />
  <path
     style="fill:#000000;fill-opacity:1;stroke:none;stroke-width:0;stroke-linecap:round"
     d="M 19,19 H 5 V 5 h 6.559871 V 3 H 5 C 3.89,3 3,3.9 3,5 v 14 c 0,1.1 0.89,2 2,2 h 14 c 1.1,0 2,-0.9 2,-2 V 12.562956 H 19 Z M 14,3 c -0.82495,0 -0.837445,2 0,2 h 3.59 c 0,0 -7.8213439,7.673842 -7.83,7.83 -0.049265,0.888749 0.468959,1.399764 1.41,1.41 C 11.249076,14.24086 19,6.41 19,6.41 V 10 c 0,0.758787 2,0.799729 2,0 V 3 Z"
     id="path2949"
     sodipodi:nodetypes="cccccsssssscccsscsscsscs" />
</svg>
