<?xml version="1.0" encoding="UTF-8" standalone="no"?>
<!-- Created with Inkscape (http://www.inkscape.org/) -->

<svg
    width="24"
    height="24"
    viewBox="0 0 24 24"
    version="1.1"
    id="svg5"
    inkscape:export-filename="PersonaIcon.svg"
    inkscape:export-xdpi="96"
    inkscape:export-ydpi="96"
    sodipodi:docname="PersonaIcon.svg"
    inkscape:version="1.3 (0e150ed6c4, 2023-07-21)"
    xmlns:inkscape="http://www.inkscape.org/namespaces/inkscape"
    xmlns:sodipodi="http://sodipodi.sourceforge.net/DTD/sodipodi-0.dtd"
    xmlns="http://www.w3.org/2000/svg"
    xmlns:svg="http://www.w3.org/2000/svg">
    <sodipodi:namedview
        id="namedview7"
        pagecolor="#505050"
        bordercolor="#eeeeee"
        borderopacity="1"
        inkscape:showpageshadow="0"
        inkscape:pageopacity="0"
        inkscape:pagecheckerboard="0"
        inkscape:deskcolor="#505050"
        inkscape:document-units="mm"
        showgrid="false"
        inkscape:zoom="33.875"
        inkscape:cx="10.774908"
        inkscape:cy="11.793358"
        inkscape:window-width="1920"
        inkscape:window-height="1009"
        inkscape:window-x="896"
        inkscape:window-y="1075"
        inkscape:window-maximized="1"
        inkscape:current-layer="layer1" />
    <defs
        id="defs2" />
    <g
        inkscape:label="Layer 1"
        inkscape:groupmode="layer"
        id="layer1">
        <path
            id="path3"
            style="stroke-width:18.8976;stroke-linecap:square;stroke-linejoin:round;stroke-opacity:0.34949"
            d="M14.4 10a1.4 1.4 0 0 1-1.4 1.3 1.4 1.4 0 0 1-1.4-1.4A1.4 1.4 0 0 1 13 8.6a1.4 1.4 0 0 1 1.4 1.3M13 3a7 7 0 0 0-7 6.6l-1.9 2.6c-.2.3 0 .8.4.8H6v3c0 1.1.9 2 2 2h1v3h7v-4.7A7 7 0 0 0 13 3Zm3 7v.4l.8.7s.1.1 0 .2l-.7 1.4h-.3l-1-.3a3 3 0 0 1-.6.4l-.2 1-.2.2h-1.6c-.1 0-.2 0-.2-.2l-.1-1-.7-.4-1 .4-.3-.1-.8-1.4V11l1-.6-.1-.4v-.4L9.2 9s-.1-.1 0-.2l.7-1.4h.3l1 .3.7-.4.1-1 .2-.2h1.6c.1 0 .2 0 .2.2l.1 1 .7.4 1-.4.3.1.8 1.4V9l-1 .6.1.4Z" />
    </g>
</svg>