<?xml version="1.0" encoding="UTF-8" standalone="no"?>
<!-- Created with Inkscape (http://www.inkscape.org/) -->

<svg
   width="24"
   height="24"
   viewBox="0 0 24 24"
   version="1.1"
   id="svg5"
   inkscape:export-filename="NotificationsOnIcon.svg"
   inkscape:export-xdpi="96"
   inkscape:export-ydpi="96"
   sodipodi:docname="PhoneIcon.svg"
   inkscape:version="1.2 (dc2aedaf03, 2022-05-15)"
   xmlns:inkscape="http://www.inkscape.org/namespaces/inkscape"
   xmlns:sodipodi="http://sodipodi.sourceforge.net/DTD/sodipodi-0.dtd"
   xmlns="http://www.w3.org/2000/svg"
   xmlns:svg="http://www.w3.org/2000/svg">
  <sodipodi:namedview
     id="namedview7"
     pagecolor="#505050"
     bordercolor="#eeeeee"
     borderopacity="1"
     inkscape:showpageshadow="0"
     inkscape:pageopacity="0"
     inkscape:pagecheckerboard="0"
     inkscape:deskcolor="#505050"
     inkscape:document-units="mm"
     showgrid="false"
     showguides="true"
     inkscape:zoom="21.770834"
     inkscape:cx="1.492823"
     inkscape:cy="11.689952"
     inkscape:window-width="1920"
     inkscape:window-height="991"
     inkscape:window-x="1121"
     inkscape:window-y="1345"
     inkscape:window-maximized="1"
     inkscape:current-layer="layer1" />
  <defs
     id="defs2" />
  <g
     inkscape:label="Layer 1"
     inkscape:groupmode="layer"
     id="layer1">
    <path
       id="path2456"
       style="color:#000000;fill:#000000;stroke-linecap:round;stroke-linejoin:round"
       d="m 7.1250001,2.46875 c -0.7883134,0 -1.4414063,0.6530927 -1.4414062,1.4414062 V 20.089844 c 0,0.788313 0.6530931,1.441406 1.4414062,1.441406 H 16.875 c 0.788313,0 1.441406,-0.653094 1.441406,-1.441406 V 3.9101562 C 18.316406,3.121843 17.663313,2.46875 16.875,2.46875 Z m 2.2304688,0.8984375 h 5.2890621 c 0.157483,0 0.285156,0.1276732 0.285157,0.2851563 0,0.1574829 -0.127674,0.2832031 -0.285157,0.2832031 H 9.3554689 c -0.1574831,0 -0.2851563,-0.1257202 -0.2851563,-0.2832031 0,-0.1574831 0.1276732,-0.2851563 0.2851563,-0.2851563 z M 6.8183595,4.7890625 H 17.181641 V 18.673828 H 6.8183595 Z M 12,19.292969 A 0.86070794,0.86070794 0 0 1 12.861328,20.154297 0.86070794,0.86070794 0 0 1 12,21.013672 0.86070794,0.86070794 0 0 1 11.138672,20.154297 0.86070794,0.86070794 0 0 1 12,19.292969 Z" />
  </g>
</svg>
