<?xml version="1.0" encoding="UTF-8" standalone="no"?>
<!-- Created with Inkscape (http://www.inkscape.org/) -->

<svg
    width="24"
    height="24"
    viewBox="0 0 24 24"
    version="1.1"
    id="svg5"
    inkscape:export-filename="PlusIcon.svg"
    inkscape:export-xdpi="96"
    inkscape:export-ydpi="96"
    sodipodi:docname="PlusIcon.svg"
    xmlns:inkscape="http://www.inkscape.org/namespaces/inkscape"
    xmlns:sodipodi="http://sodipodi.sourceforge.net/DTD/sodipodi-0.dtd"
    xmlns="http://www.w3.org/2000/svg"
    xmlns:svg="http://www.w3.org/2000/svg">
    <sodipodi:namedview
        id="namedview7"
        pagecolor="#505050"
        bordercolor="#eeeeee"
        borderopacity="1"
        inkscape:showpageshadow="0"
        inkscape:pageopacity="0"
        inkscape:pagecheckerboard="0"
        inkscape:deskcolor="#505050"
        inkscape:document-units="mm"
        showgrid="false"
        showguides="true" />
    <defs
        id="defs2" />
    <g
        inkscape:label="Layer 1"
        inkscape:groupmode="layer"
        id="layer1">
        <path
            id="path6359-2"
            style="color:#000000;fill:#000000;stroke:none;stroke-width:1.07887;stroke-linecap:round;stroke-linejoin:round;-inkscape-stroke:none"
            d="M 13.511719,4.9120647 C 13.511669,4.1947842 12.834878,3.6133243 12,3.6132812 c -0.834878,4.31e-5 -1.511669,0.581503 -1.511719,1.2987835 V 19.087935 c 5e-5,0.717281 0.67684,1.298741 1.511719,1.298784 0.834879,-4.3e-5 1.511669,-0.581503 1.511719,-1.298784 z M 4.912065,10.488281 c -0.7172807,5e-5 -1.2987409,0.67684 -1.298784,1.511719 4.31e-5,0.834879 0.5815033,1.511669 1.298784,1.511719 h 14.17587 c 0.717281,-5e-5 1.298741,-0.67684 1.298784,-1.511719 -4.3e-5,-0.834879 -0.581503,-1.511669 -1.298784,-1.511719 z"
            sodipodi:nodetypes="cccccccccccccc" />
    </g>
</svg>