<?xml version="1.0" encoding="UTF-8" standalone="no"?>
<!-- Created with Inkscape (http://www.inkscape.org/) -->

<svg
    width="24"
    height="24"
    viewBox="0 0 24 24"
    version="1.1"
    id="svg5"
    inkscape:export-filename="QrCodeIcon.svg"
    inkscape:export-xdpi="96"
    inkscape:export-ydpi="96"
    sodipodi:docname="QrCodeIcon.svg"
    inkscape:version="1.2 (dc2aedaf03, 2022-05-15)"
    xmlns:inkscape="http://www.inkscape.org/namespaces/inkscape"
    xmlns:sodipodi="http://sodipodi.sourceforge.net/DTD/sodipodi-0.dtd"
    xmlns="http://www.w3.org/2000/svg"
    xmlns:svg="http://www.w3.org/2000/svg">
    <sodipodi:namedview
        id="namedview7"
        pagecolor="#505050"
        bordercolor="#eeeeee"
        borderopacity="1"
        inkscape:showpageshadow="0"
        inkscape:pageopacity="0"
        inkscape:pagecheckerboard="0"
        inkscape:deskcolor="#505050"
        inkscape:document-units="mm"
        showgrid="false"
        inkscape:zoom="24.424647"
        inkscape:cx="12.630684"
        inkscape:cy="13.347174"
        inkscape:window-width="1920"
        inkscape:window-height="1009"
        inkscape:window-x="-8"
        inkscape:window-y="-8"
        inkscape:window-maximized="1"
        inkscape:current-layer="layer1" />
    <defs
        id="defs2" />
    <g
        inkscape:label="Layer 1"
        inkscape:groupmode="layer"
        id="layer1">
        <path
            id="path8716"
            style="stroke-width:3.77953;stroke-linecap:round;stroke-linejoin:round"
            d="M3 11h8V3H3v8zm2-6h4v4H5V5zM3 21h8v-8H3v8zm2-6h4v4H5v-4zm8-12v8h8V3h-8zm6 6h-4V5h4v4zm0 10h2v2h-2zm-6-6h2v2h-2zm2 2h2v2h-2zm-2 2h2v2h-2zm2 2h2v2h-2zm2-2h2v2h-2zm0-4h2v2h-2zm2 2h2v2h-2z" />
    </g>
</svg>