<?xml version="1.0" encoding="UTF-8" standalone="no"?>
<!-- Created with Inkscape (http://www.inkscape.org/) -->

<svg
   width="24"
   height="24"
   viewBox="0 0 24 24"
   version="1.1"
   id="svg5"
   inkscape:export-filename="UndoIcon.svg"
   inkscape:export-xdpi="96"
   inkscape:export-ydpi="96"
   sodipodi:docname="RedoIcon.svg"
   xmlns:inkscape="http://www.inkscape.org/namespaces/inkscape"
   xmlns:sodipodi="http://sodipodi.sourceforge.net/DTD/sodipodi-0.dtd"
   xmlns="http://www.w3.org/2000/svg"
   xmlns:svg="http://www.w3.org/2000/svg">
  <sodipodi:namedview
     id="namedview7"
     pagecolor="#505050"
     bordercolor="#eeeeee"
     borderopacity="1"
     inkscape:showpageshadow="0"
     inkscape:pageopacity="0"
     inkscape:pagecheckerboard="0"
     inkscape:deskcolor="#505050"
     inkscape:document-units="mm"
     showgrid="false" />
  <defs
     id="defs2" />
  <g
     inkscape:label="Layer 1"
     inkscape:groupmode="layer"
     id="layer1">
    <path
       style="color:#000000;fill:#000000;stroke-linecap:round;-inkscape-stroke:none"
       d="M 10.757813,8.8867188 C 9.8243606,8.9955886 8.95592,9.255743 8.1738281,9.5976563 5.0454605,10.965309 3.1464844,13.630859 3.1464844,13.630859 c -0.8590347,1.015034 0.6700814,2.129889 1.53125,1.109375 0,0 1.7022519,-2.297436 4.2519531,-3.412109 1.2748505,-0.557336 2.7171465,-0.821768 4.3320315,-0.414062 0.951136,0.24013 1.998202,0.840907 3.08789,1.679687 l -3.130859,2.558011 c 2.54035,0.0068 5.254422,0.04159 7.765847,0.03264 -0.0056,-2.143171 0.08167,-4.029423 0.04861,-6.2234595 L 17.843752,11.435549 C 16.447963,10.287125 15.062324,9.417807 13.724609,9.0800781 12.6885,8.8184946 11.691264,8.7778489 10.757813,8.8867188 Z"
       id="path16016"
       sodipodi:nodetypes="ssccsscccccss" />
  </g>
</svg>
