<?xml version="1.0" encoding="UTF-8" standalone="no"?>
<!-- Created with Inkscape (http://www.inkscape.org/) -->

<svg
   width="24"
   height="24"
   viewBox="0 0 24 24"
   version="1.1"
   id="svg5"
   inkscape:export-filename="SearchIcon.svg"
   inkscape:export-xdpi="96"
   inkscape:export-ydpi="96"
   sodipodi:docname="SearchIcon.svg"
   xmlns:inkscape="http://www.inkscape.org/namespaces/inkscape"
   xmlns:sodipodi="http://sodipodi.sourceforge.net/DTD/sodipodi-0.dtd"
   xmlns="http://www.w3.org/2000/svg"
   xmlns:svg="http://www.w3.org/2000/svg">
  <sodipodi:namedview
     id="namedview7"
     pagecolor="#505050"
     bordercolor="#eeeeee"
     borderopacity="1"
     inkscape:showpageshadow="0"
     inkscape:pageopacity="0"
     inkscape:pagecheckerboard="0"
     inkscape:deskcolor="#505050"
     inkscape:document-units="mm"
     showgrid="false" />
  <defs
     id="defs2" />
  <g
     inkscape:label="Layer 1"
     inkscape:groupmode="layer"
     id="layer1">
    <path
       style="color:#000000;fill:#000000;stroke-linecap:round;-inkscape-stroke:none"
       d="m 9.3085938,3.625 c -1.4572067,10e-8 -2.9136637,0.5542886 -4.0214844,1.6621094 -2.2156421,2.2156418 -2.2156423,5.8292806 0,8.0449216 2.0430185,2.043018 5.2308086,2.113343 7.4589846,0.388672 l 6.451172,6.453125 a 0.68976003,0.68976003 0 0 0 0.976562,0 0.68976003,0.68976003 0 0 0 0,-0.976562 L 13.720703,12.746094 C 15.445375,10.517918 15.37505,7.3301285 13.332031,5.2871094 12.22421,4.1792887 10.7658,3.6249999 9.3085938,3.625 Z m 0,1.3710937 c 1.1012682,0 2.2026452,0.4213951 3.0468752,1.265625 1.68846,1.6884605 1.688461,4.4052903 0,6.0937503 -1.68846,1.688459 -4.4052903,1.688459 -6.0937503,0 -1.6884606,-1.68846 -1.6884604,-4.40529 0,-6.0937503 0.8442301,-0.84423 1.9456065,-1.2656249 3.0468751,-1.265625 z"
       id="path3488" />
  </g>
</svg>
