<?xml version="1.0" encoding="UTF-8" standalone="no"?>
<!-- Created with Inkscape (http://www.inkscape.org/) -->

<svg
    width="24"
    height="24"
    viewBox="0 0 24 24"
    version="1.1"
    id="svg5"
    inkscape:export-filename="ShareIcon.svg"
    inkscape:export-xdpi="96"
    inkscape:export-ydpi="96"
    sodipodi:docname="ShareIcon.svg"
    inkscape:version="1.2 (dc2aedaf03, 2022-05-15)"
    xmlns:inkscape="http://www.inkscape.org/namespaces/inkscape"
    xmlns:sodipodi="http://sodipodi.sourceforge.net/DTD/sodipodi-0.dtd"
    xmlns="http://www.w3.org/2000/svg"
    xmlns:svg="http://www.w3.org/2000/svg">
    <sodipodi:namedview
        id="namedview7"
        pagecolor="#505050"
        bordercolor="#eeeeee"
        borderopacity="1"
        inkscape:showpageshadow="0"
        inkscape:pageopacity="0"
        inkscape:pagecheckerboard="0"
        inkscape:deskcolor="#505050"
        inkscape:document-units="mm"
        showgrid="false"
        inkscape:zoom="24.424647"
        inkscape:cx="12.630684"
        inkscape:cy="13.347174"
        inkscape:window-width="1920"
        inkscape:window-height="1009"
        inkscape:window-x="-8"
        inkscape:window-y="-8"
        inkscape:window-maximized="1"
        inkscape:current-layer="layer1" />
    <defs
        id="defs2" />
    <g
        inkscape:label="Layer 1"
        inkscape:groupmode="layer"
        id="layer1">
        <path
            id="path8716"
            style="stroke-width:3.77953;stroke-linecap:round;stroke-linejoin:round"
            d="M 18.657227,1.1914061 A 2.7226596,2.7226596 0 0 0 15.934571,3.9140624 2.7226596,2.7226596 0 0 0 16.09668,4.8183593 L 7.1181641,10.046875 A 2.7226596,2.7226596 0 0 0 5.2197266,9.2773437 2.7226596,2.7226596 0 0 0 2.4970703,12 2.7226596,2.7226596 0 0 0 5.2197266,14.722656 2.7226596,2.7226596 0 0 0 7.1005859,13.96875 l 9.0214851,5.560547 a 2.7226596,2.7226596 0 0 0 -0.06445,0.556641 2.7226596,2.7226596 0 0 0 2.722656,2.722656 2.7226596,2.7226596 0 0 0 2.722656,-2.722656 2.7226596,2.7226596 0 0 0 -2.722656,-2.722657 2.7226596,2.7226596 0 0 0 -1.947266,0.830078 L 7.8623047,12.664062 v -0.002 A 2.7226596,2.7226596 0 0 0 7.9423827,12 2.7226596,2.7226596 0 0 0 7.8662107,11.359375 L 16.983399,6.0527343 a 2.7226596,2.7226596 0 0 0 1.673828,0.5839844 2.7226596,2.7226596 0 0 0 2.722656,-2.7226563 2.7226596,2.7226596 0 0 0 -2.722656,-2.7226563 z" />
    </g>
</svg>