<?xml version="1.0" encoding="UTF-8" standalone="no"?>
<!-- Created with Inkscape (http://www.inkscape.org/) -->

<svg
    width="24"
    height="24"
    viewBox="0 0 24 24"
    version="1.1"
    id="svg5"
    inkscape:export-filename="ArticleIcon.svg"
    inkscape:export-xdpi="96"
    inkscape:export-ydpi="96"
    sodipodi:docname="TodayIcon.svg"
    inkscape:version="1.2 (dc2aedaf03, 2022-05-15)"
    xmlns:inkscape="http://www.inkscape.org/namespaces/inkscape"
    xmlns:sodipodi="http://sodipodi.sourceforge.net/DTD/sodipodi-0.dtd"
    xmlns="http://www.w3.org/2000/svg"
    xmlns:svg="http://www.w3.org/2000/svg">
    <sodipodi:namedview
        id="namedview7"
        pagecolor="#505050"
        bordercolor="#eeeeee"
        borderopacity="1"
        inkscape:showpageshadow="0"
        inkscape:pageopacity="0"
        inkscape:pagecheckerboard="0"
        inkscape:deskcolor="#505050"
        inkscape:document-units="mm"
        showgrid="false"
        showguides="true"
        inkscape:zoom="11.18312"
        inkscape:cx="-8.2266845"
        inkscape:cy="3.9792115"
        inkscape:window-width="1920"
        inkscape:window-height="991"
        inkscape:window-x="-9"
        inkscape:window-y="-9"
        inkscape:window-maximized="1"
        inkscape:current-layer="layer1" />
    <defs
        id="defs2" />
    <g
        inkscape:label="Layer 1"
        inkscape:groupmode="layer"
        id="layer1">
        <path
            id="path3838"
            style="fill:#000000;stroke-width:1.00157;stroke-linecap:round;stroke-linejoin:round"
            d="M 5.4335938 3.8515625 C 4.5579184 3.8515625 3.8515625 4.5579184 3.8515625 5.4335938 L 3.8515625 18.566406 C 3.8515625 19.442078 4.5579184 20.148437 5.4335938 20.148438 L 10.683594 20.148438 L 10.683594 12.367188 C 10.683594 11.993964 10.982245 11.695313 11.355469 11.695312 L 20.148438 11.695312 L 20.148438 5.4335938 C 20.148438 4.5579184 19.442078 3.8515625 18.566406 3.8515625 L 5.4335938 3.8515625 z M 7.1210938 5.1484375 L 16.878906 5.1484375 C 17.158853 5.1484375 17.384766 5.3743551 17.384766 5.6542969 L 17.384766 5.828125 C 17.384766 6.1080667 17.158853 6.3339844 16.878906 6.3339844 L 7.1210938 6.3339844 C 6.8411503 6.3339844 6.6152344 6.1080667 6.6152344 5.828125 L 6.6152344 5.6542969 C 6.6152344 5.3743551 6.8411503 5.1484375 7.1210938 5.1484375 z M 8.3300781 8.8027344 L 9.9082031 8.8027344 C 10.164258 8.8027344 10.369141 9.0095747 10.369141 9.265625 L 10.369141 10.84375 C 10.369141 11.099805 10.164258 11.304687 9.9082031 11.304688 L 8.3300781 11.304688 C 8.0740278 11.304688 7.8671875 11.099805 7.8671875 10.84375 L 7.8671875 9.265625 C 7.8671875 9.0095747 8.0740278 8.8027344 8.3300781 8.8027344 z M 11.207031 8.8027344 L 12.785156 8.8027344 C 13.041211 8.8027344 13.248047 9.0095744 13.248047 9.265625 L 13.248047 10.84375 C 13.248047 11.099805 13.041211 11.304687 12.785156 11.304688 L 11.207031 11.304688 C 10.95099 11.304688 10.744141 11.099805 10.744141 10.84375 L 10.744141 9.265625 C 10.744141 9.0095744 10.95099 8.8027344 11.207031 8.8027344 z M 14.085938 8.8027344 L 15.664062 8.8027344 C 15.920117 8.8027344 16.125 9.0095741 16.125 9.265625 L 16.125 10.84375 C 16.125 11.099805 15.920117 11.304687 15.664062 11.304688 L 14.085938 11.304688 C 13.829883 11.304688 13.623047 11.099805 13.623047 10.84375 L 13.623047 9.265625 C 13.623047 9.0095741 13.829883 8.8027344 14.085938 8.8027344 z M 16.962891 8.8027344 L 18.541016 8.8027344 C 18.797059 8.8027344 19.003906 9.0095738 19.003906 9.265625 L 19.003906 10.84375 C 19.003906 11.099805 18.797059 11.304687 18.541016 11.304688 L 16.962891 11.304688 C 16.706836 11.304688 16.501953 11.099805 16.501953 10.84375 L 16.501953 9.265625 C 16.501953 9.0095738 16.706836 8.8027344 16.962891 8.8027344 z M 5.4511719 11.878906 L 7.0292969 11.878906 C 7.2853484 11.878906 7.4921875 12.083789 7.4921875 12.339844 L 7.4921875 13.917969 C 7.4921875 14.174013 7.2853484 14.380859 7.0292969 14.380859 L 5.4511719 14.380859 C 5.1951193 14.380859 4.9882813 14.174013 4.9882812 13.917969 L 4.9882812 12.339844 C 4.9882812 12.083789 5.1951193 11.878906 5.4511719 11.878906 z M 8.3300781 11.878906 L 9.9082031 11.878906 C 10.164258 11.878906 10.369141 12.083789 10.369141 12.339844 L 10.369141 13.917969 C 10.369141 14.174014 10.164258 14.380859 9.9082031 14.380859 L 8.3300781 14.380859 C 8.0740263 14.380859 7.8671875 14.174014 7.8671875 13.917969 L 7.8671875 12.339844 C 7.8671875 12.083789 8.0740263 11.878906 8.3300781 11.878906 z M 11.896484 12.222656 C 11.568029 12.222656 11.304687 12.485996 11.304688 12.814453 L 11.304688 21.373047 C 11.304688 21.701504 11.568029 21.964844 11.896484 21.964844 L 20.453125 21.964844 C 20.781582 21.964844 21.046875 21.701504 21.046875 21.373047 L 21.046875 12.814453 C 21.046875 12.485996 20.781582 12.222656 20.453125 12.222656 L 11.896484 12.222656 z M 15.949219 14.724609 A 2.2130442 2.2130442 0 0 1 16.878906 14.859375 A 2.2130442 2.2130442 0 0 1 18.179688 17.703125 L 18.173828 17.716797 A 2.2130442 2.2130442 0 0 1 15.324219 19.003906 A 2.2130442 2.2130442 0 0 1 14.033203 16.154297 A 2.2130442 2.2130442 0 0 1 15.949219 14.724609 z M 5.3671875 14.953125 L 6.9453125 14.953125 C 7.2013655 14.953125 7.4082031 15.159961 7.4082031 15.416016 L 7.4082031 16.994141 C 7.4082031 17.25019 7.2013655 17.457031 6.9453125 17.457031 L 5.3671875 17.457031 C 5.1111345 17.457031 4.90625 17.25019 4.90625 16.994141 L 4.90625 15.416016 C 4.90625 15.159961 5.1111345 14.953125 5.3671875 14.953125 z M 8.2460938 14.953125 L 9.8242188 14.953125 C 10.080273 14.953125 10.287109 15.159961 10.287109 15.416016 L 10.287109 16.994141 C 10.287109 17.250191 10.080273 17.457031 9.8242188 17.457031 L 8.2460938 17.457031 C 7.99004 17.457031 7.7832031 17.250191 7.7832031 16.994141 L 7.7832031 15.416016 C 7.7832031 15.159961 7.99004 14.953125 8.2460938 14.953125 z " />
    </g>
</svg>