<?xml version="1.0" encoding="UTF-8" standalone="no"?>
<!-- Created with Inkscape (http://www.inkscape.org/) -->

<svg
   width="24"
   height="24"
   viewBox="0 0 24 24"
   version="1.1"
   id="svg5"
   inkscape:export-filename="DownvoteTallIcon.svg"
   inkscape:export-xdpi="96"
   inkscape:export-ydpi="96"
   sodipodi:docname="UndoIcon.svg"
   xmlns:inkscape="http://www.inkscape.org/namespaces/inkscape"
   xmlns:sodipodi="http://sodipodi.sourceforge.net/DTD/sodipodi-0.dtd"
   xmlns="http://www.w3.org/2000/svg"
   xmlns:svg="http://www.w3.org/2000/svg">
  <sodipodi:namedview
     id="namedview7"
     pagecolor="#505050"
     bordercolor="#eeeeee"
     borderopacity="1"
     inkscape:showpageshadow="0"
     inkscape:pageopacity="0"
     inkscape:pagecheckerboard="0"
     inkscape:deskcolor="#505050"
     inkscape:document-units="mm"
     showgrid="false" />
  <defs
     id="defs2" />
  <g
     inkscape:label="Layer 1"
     inkscape:groupmode="layer"
     id="layer1">
    <path
       style="color:#000000;fill:#000000;stroke-linecap:round;-inkscape-stroke:none"
       d="M 13.242188,8.8867188 C 12.308736,8.777849 11.3115,8.8184946 10.275391,9.0800781 8.9376758,9.417807 7.5520371,10.287125 6.15625,11.435547 L 2.9667969,8.9609375 c 0.011494,2.0582155 0.00417,4.1266555 -0.00112,6.2089845 2.5693608,-0.04876 5.1459869,0.01971 7.8155691,-0.03264 L 7.6503906,12.59375 c 1.0896889,-0.83878 2.1367543,-1.439557 3.0878904,-1.679687 1.614885,-0.407706 3.057181,-0.143274 4.332032,0.414062 2.549701,1.114673 4.251953,3.412109 4.251953,3.412109 1.068912,1.092379 2.381606,-0.169813 1.53125,-1.109375 0,0 -1.898976,-2.66555 -5.027344,-4.0332027 C 15.04408,9.255743 14.175639,8.9955885 13.242188,8.8867188 Z"
       id="path16016"
       sodipodi:nodetypes="sscccccssccss" />
  </g>
</svg>
