<?xml version="1.0" encoding="UTF-8" standalone="no"?>
<svg
   width="24mm"
   height="24mm"
   viewBox="0 0 24 24"
   version="1.1"
   id="svg4"
   sodipodi:docname="VrooliIcon.svg"
   inkscape:version="1.2 (dc2aedaf03, 2022-05-15)"
   xmlns:inkscape="http://www.inkscape.org/namespaces/inkscape"
   xmlns:sodipodi="http://sodipodi.sourceforge.net/DTD/sodipodi-0.dtd"
   xmlns="http://www.w3.org/2000/svg"
   xmlns:svg="http://www.w3.org/2000/svg">
  <defs
     id="defs8" />
  <sodipodi:namedview
     id="namedview6"
     pagecolor="#505050"
     bordercolor="#eeeeee"
     borderopacity="1"
     inkscape:showpageshadow="0"
     inkscape:pageopacity="0"
     inkscape:pagecheckerboard="0"
     inkscape:deskcolor="#505050"
     inkscape:document-units="mm"
     showgrid="false"
     inkscape:zoom="4"
     inkscape:cx="65.25"
     inkscape:cy="38.25"
     inkscape:window-width="1920"
     inkscape:window-height="1009"
     inkscape:window-x="-8"
     inkscape:window-y="-8"
     inkscape:window-maximized="1"
     inkscape:current-layer="svg4" />
  <path
     id="path2081"
     style="color:#000000;fill:#000000;fill-opacity:0.285714;stroke-width:0.999994;stroke-linecap:round;stroke-linejoin:round"
     inkscape:label="tail"
     d="m 16.321278,2.208261 c -0.102964,0.1615763 -0.197405,0.4207251 -0.262588,0.7490165 -0.130173,0.6566776 -0.14933,1.5877688 -0.01697,2.6126082 0.139385,0.9857862 0.540075,2.0344924 0.858084,3.0541415 -0.424316,0.1677931 -0.780812,0.3991621 -1.070712,0.6759931 -0.413666,0.39502 -0.694546,0.8856727 -0.836398,1.4300757 -3.454479,-0.0253 -7.04373,-0.01726 -10.5330427,-0.03162 -0.4598933,-0.0085 -0.8214911,0.362741 -0.8227283,0.822727 0.00208,2.159094 -0.00565,4.318214 -0.00639,6.477332 1e-7,0.751219 0.5973246,1.348594 1.3485445,1.348594 0.7512205,0 1.3485447,-0.597375 1.3485447,-1.348594 v -0.993951 c 3.5218177,-0.0015 7.1772098,0.05541 10.7325928,0.0832 1.670768,-0.0033 2.325041,0.445062 2.971678,0.810138 0.656452,0.357607 1.60826,-0.381569 1.38857,-1.356509 -0.206941,-0.915811 -1.400931,-1.434884 -2.634246,-1.639754 l 0.01692,-0.268341 0.735887,-0.0866 C 20.44871,14.420433 21.247948,14.10456 21.854425,13.667981 22.654278,13.092208 23.11445,12.321547 23.10394,11.478958 23.09363,10.652425 22.691939,9.8790883 21.932713,9.2964773 21.173497,8.7138743 20.05311,8.3291818 18.628574,8.3248512 c -0.186723,0.00691 -0.44657,5.808e-4 -0.619248,0.0177 0.152081,-0.9599667 0.16492,-1.8025194 0.04839,-2.8211052 C 17.925247,4.4966098 17.666449,3.5722564 17.367846,2.9258554 17.218544,2.6027028 17.057895,2.3496771 16.913922,2.1940005 16.659367,1.9260234 16.483257,1.959769 16.321278,2.208261 Z m 3.986773,1.0571892 c -0.186601,0.069178 -0.414705,0.2427292 -0.667536,0.4599724 -0.416883,0.3581711 -0.879353,0.9014318 -1.306894,1.5621067 0.144524,0.8922061 0.170531,1.7122993 0.102382,2.7398702 0.1769,-0.00168 0.35919,0.00671 0.561517,0.017307 0.314763,-0.3993447 0.609024,-0.852606 0.887933,-1.2688336 C 20.331048,5.994152 20.954212,4.6661968 20.868044,3.609419 20.780199,3.2730237 20.522148,3.2040569 20.308053,3.2654498 Z m 0.463169,6.4903631 h 4.8e-5 c 0.379702,0 0.68755,0.3077997 0.68755,0.6874997 0,0.3797 -0.307848,0.6875 -0.68755,0.6875 -0.3797,2.7e-5 -0.687521,-0.307749 -0.687548,-0.687451 -2.7e-5,-0.3797 0.307799,-0.6875217 0.6875,-0.6875487 z M 2.1388428,10.679249 c -0.7107128,-0.0068 -1.25446478,0.544825 -1.24277158,1.242673 0.0119271,0.697733 0.60315338,1.257591 1.24277158,1.242625 0.6396179,-0.01509 1.2226627,-0.418462 1.2399685,-1.168815 0.017423,-0.750235 -0.5292557,-1.309699 -1.2399685,-1.316483 z"
     sodipodi:nodetypes="ccccsccccsscccccccssscccccccccccccccscsscccccc" />
  <path
     style="color:#000000;display:none;fill:#000000;fill-opacity:0.285714;stroke-linecap:round;stroke-linejoin:round"
     d="m 206.23343,75.477005 c -3.99024,2.8e-4 -7.22515,3.23514 -7.22488,7.2254 2.8e-4,3.99026 3.23514,7.22464 7.2254,7.22436 3.99026,0 7.2254,-3.23462 7.2254,-7.22488 0,-3.99024 -3.23514,-7.22488 -7.2254,-7.22488 z"
     id="path2079"
     inkscape:label="eye" />
  <path
     style="color:#000000;display:none;fill:#000000;fill-opacity:0.285714;stroke-linecap:round;stroke-linejoin:round"
     d="m 161.68111,-11.023141 c -2.84598,0.068 -5.02212,1.8577953 -6.55412,4.2627893 -1.532,2.403996 -2.60862,5.577997 -3.36362,9.385991 -3.33726,21.4522037 1.12716,37.2897347 7.7432,58.2879147 -3.2578,1.718084 -6.14791,3.797541 -8.64443,6.181531 -3.97277,3.79369 -6.9336,8.33347 -8.85166,13.31185 H 34.83511 c -4.83299,0 -9.081762,2.53582 -11.505758,6.3438 -2.840994,-3.95698 -7.481043,-6.54585 -12.701033,-6.54585 -8.600984,0 -15.6269534,7.02597 -15.6269534,15.62695 0,8.599985 7.0259694,15.625925 15.6269534,15.625925 4.045992,0 7.743978,-1.55491 10.525972,-4.09691 -9.72e-4,18.94342 -0.03256,37.9509 -0.03256,54.76152 0,10.57802 8.593926,19.17195 19.171956,19.17195 10.578034,0 19.171957,-8.59393 19.171957,-19.17195 v -5.42241 c 4.827854,0.0299 70.266796,0.43717 108.046636,0.85369 11.16793,0.52292 19.83072,5.37927 28.22515,10.65103 12.20698,6.477 27.56984,1.8521 27.52184,-15.87086 -0.118,-3.527 -3.804,-16.93021 -19.54196,-23.51019 0.30224,-0.14542 13.55608,-5.82572 16.84031,-8.15248 9.40304,-6.76887 15.34267,-16.39862 15.20889,-27.124965 -0.12832,-10.28848 -5.25,-19.92122 -14.26579,-26.8397 -6.74752,-5.177884 -15.65527,-8.875853 -26.35963,-10.429341 8.08135,-10.993867 15.58997,-24.99177 18.13687,-37.878308 0.722,-3.832992 0.92007,-7.2569 0.41807,-10.1998937 -0.501,-2.943994 -1.80976,-5.59236 -4.26176,-7.008358 -2.454,-1.416996 -5.40103,-1.224583 -8.20001,-0.187585 -2.8,1.037998 -5.66887,2.919654 -8.62687,5.460648 -3.89998,3.350994 -7.94518,7.8823027 -11.81116,13.2792927 -1.502,-6.727986 -3.47587,-12.7659667 -5.74487,-17.6769567 -1.731,-3.747992 -3.61839,-6.850405 -5.76037,-9.167399 -2.141,-2.315996 -4.76488,-3.9897253 -7.60988,-3.9217253 z"
     id="path2"
     inkscape:label="original-outline" />
</svg>
