<?xml version="1.0" encoding="UTF-8" standalone="no"?>
<!-- Created with Inkscape (http://www.inkscape.org/) -->

<svg
   width="24"
   height="24"
   viewBox="0 0 24 24"
   version="1.1"
   id="svg5"
   inkscape:export-filename="ArticleIcon.svg"
   inkscape:export-xdpi="96"
   inkscape:export-ydpi="96"
   sodipodi:docname="WeekIcon.svg"
   inkscape:version="1.2 (dc2aedaf03, 2022-05-15)"
   xmlns:inkscape="http://www.inkscape.org/namespaces/inkscape"
   xmlns:sodipodi="http://sodipodi.sourceforge.net/DTD/sodipodi-0.dtd"
   xmlns="http://www.w3.org/2000/svg"
   xmlns:svg="http://www.w3.org/2000/svg">
  <sodipodi:namedview
     id="namedview7"
     pagecolor="#505050"
     bordercolor="#eeeeee"
     borderopacity="1"
     inkscape:showpageshadow="0"
     inkscape:pageopacity="0"
     inkscape:pagecheckerboard="0"
     inkscape:deskcolor="#505050"
     inkscape:document-units="mm"
     showgrid="false"
     showguides="true"
     inkscape:zoom="15.81532"
     inkscape:cx="-1.0749071"
     inkscape:cy="5.9119891"
     inkscape:window-width="1920"
     inkscape:window-height="991"
     inkscape:window-x="-9"
     inkscape:window-y="-9"
     inkscape:window-maximized="1"
     inkscape:current-layer="layer1" />
  <defs
     id="defs2" />
  <g
     inkscape:label="Layer 1"
     inkscape:groupmode="layer"
     id="layer1">
    <path
       id="path3838"
       style="fill:#000000;fill-opacity:1;stroke-width:1.00157;stroke-linecap:round;stroke-linejoin:round"
       d="M 5.4335938 3.8515625 C 4.5579176 3.8515625 3.8515625 4.5579176 3.8515625 5.4335938 L 3.8515625 18.566406 C 3.8515625 19.442079 4.5579176 20.148437 5.4335938 20.148438 L 10.683594 20.148438 L 10.683594 12.367188 C 10.683594 11.993964 10.982245 11.695313 11.355469 11.695312 L 20.148438 11.695312 L 20.148438 5.4335938 C 20.148438 4.5579176 19.442079 3.8515625 18.566406 3.8515625 L 5.4335938 3.8515625 z M 7.1210938 5.1484375 L 16.878906 5.1484375 C 17.158853 5.1484375 17.384766 5.3743548 17.384766 5.6542969 L 17.384766 5.828125 C 17.384766 6.108067 17.158853 6.3339844 16.878906 6.3339844 L 7.1210938 6.3339844 C 6.8411501 6.3339844 6.6152344 6.108067 6.6152344 5.828125 L 6.6152344 5.6542969 C 6.6152344 5.3743548 6.8411501 5.1484375 7.1210938 5.1484375 z M 8.3300781 8.8027344 L 9.9082031 8.8027344 C 10.164258 8.8027344 10.369141 9.0095744 10.369141 9.265625 L 10.369141 10.84375 C 10.369141 11.099805 10.164258 11.304687 9.9082031 11.304688 L 8.3300781 11.304688 C 8.0740275 11.304688 7.8671875 11.099805 7.8671875 10.84375 L 7.8671875 9.265625 C 7.8671875 9.0095744 8.0740275 8.8027344 8.3300781 8.8027344 z M 11.207031 8.8027344 L 12.785156 8.8027344 C 13.041211 8.8027344 13.248047 9.0095741 13.248047 9.265625 L 13.248047 10.84375 C 13.248047 11.099805 13.041211 11.304687 12.785156 11.304688 L 11.207031 11.304688 C 10.950989 11.304688 10.744141 11.099805 10.744141 10.84375 L 10.744141 9.265625 C 10.744141 9.0095741 10.950989 8.8027344 11.207031 8.8027344 z M 14.085938 8.8027344 L 15.664062 8.8027344 C 15.920117 8.8027344 16.125 9.0095738 16.125 9.265625 L 16.125 10.84375 C 16.125 11.099805 15.920117 11.304687 15.664062 11.304688 L 14.085938 11.304688 C 13.829883 11.304688 13.623047 11.099805 13.623047 10.84375 L 13.623047 9.265625 C 13.623047 9.0095738 13.829883 8.8027344 14.085938 8.8027344 z M 16.962891 8.8027344 L 18.541016 8.8027344 C 18.79706 8.8027344 19.003906 9.0095735 19.003906 9.265625 L 19.003906 10.84375 C 19.003906 11.099805 18.79706 11.304687 18.541016 11.304688 L 16.962891 11.304688 C 16.706836 11.304688 16.501953 11.099805 16.501953 10.84375 L 16.501953 9.265625 C 16.501953 9.0095735 16.706836 8.8027344 16.962891 8.8027344 z M 5.4511719 11.878906 L 7.0292969 11.878906 C 7.2853487 11.878906 7.4921875 12.083789 7.4921875 12.339844 L 7.4921875 13.917969 C 7.4921875 14.174014 7.2853487 14.380859 7.0292969 14.380859 L 5.4511719 14.380859 C 5.1951191 14.380859 4.9882813 14.174014 4.9882812 13.917969 L 4.9882812 12.339844 C 4.9882812 12.083789 5.1951191 11.878906 5.4511719 11.878906 z M 8.3300781 11.878906 L 9.9082031 11.878906 C 10.164258 11.878906 10.369141 12.083789 10.369141 12.339844 L 10.369141 13.917969 C 10.369141 14.174015 10.164258 14.380859 9.9082031 14.380859 L 8.3300781 14.380859 C 8.074026 14.380859 7.8671875 14.174015 7.8671875 13.917969 L 7.8671875 12.339844 C 7.8671875 12.083789 8.074026 11.878906 8.3300781 11.878906 z M 11.896484 12.222656 C 11.568028 12.222656 11.304687 12.485996 11.304688 12.814453 L 11.304688 21.373047 C 11.304688 21.701504 11.568028 21.964844 11.896484 21.964844 L 20.453125 21.964844 C 20.781582 21.964844 21.046875 21.701504 21.046875 21.373047 L 21.046875 12.814453 C 21.046875 12.485996 20.781582 12.222656 20.453125 12.222656 L 11.896484 12.222656 z M 13.962891 13.890625 L 18.386719 13.890625 L 18.386719 14.365234 C 18.386719 14.506955 18.37327 14.620408 18.34375 14.708984 C 18.31423 14.794604 18.283446 14.868683 18.253906 14.927734 L 15.826172 19.923828 C 15.775982 20.027166 15.706763 20.113688 15.615234 20.1875 C 15.523704 20.25836 15.401577 20.296875 15.248047 20.296875 L 14.453125 20.296875 L 16.929688 15.402344 C 16.985787 15.301959 17.040604 15.209624 17.09375 15.126953 C 17.14985 15.041333 17.211388 14.961532 17.279297 14.884766 L 14.214844 14.884766 C 14.146934 14.884766 14.087302 14.858804 14.037109 14.808594 C 13.986919 14.758404 13.962891 14.698766 13.962891 14.630859 L 13.962891 13.890625 z M 5.3671875 14.953125 L 6.9453125 14.953125 C 7.2013658 14.953125 7.4082031 15.159961 7.4082031 15.416016 L 7.4082031 16.994141 C 7.4082031 17.250191 7.2013658 17.457031 6.9453125 17.457031 L 5.3671875 17.457031 C 5.1111342 17.457031 4.90625 17.250191 4.90625 16.994141 L 4.90625 15.416016 C 4.90625 15.159961 5.1111342 14.953125 5.3671875 14.953125 z M 8.2460938 14.953125 L 9.8242188 14.953125 C 10.080273 14.953125 10.287109 15.159961 10.287109 15.416016 L 10.287109 16.994141 C 10.287109 17.250192 10.080273 17.457031 9.8242188 17.457031 L 8.2460938 17.457031 C 7.9900398 17.457031 7.7832031 17.250192 7.7832031 16.994141 L 7.7832031 15.416016 C 7.7832031 15.159961 7.9900398 14.953125 8.2460938 14.953125 z " />
  </g>
</svg>
