<?xml version="1.0" encoding="UTF-8" standalone="no"?>
<!-- Created with Inkscape (http://www.inkscape.org/) -->

<svg
   width="24"
   height="24"
   viewBox="0 0 24 24"
   version="1.1"
   id="svg5"
   inkscape:export-filename="WholeWord.svg"
   inkscape:export-xdpi="96"
   inkscape:export-ydpi="96"
   xml:space="preserve"
   sodipodi:docname="WholeWord.svg"
   xmlns:inkscape="http://www.inkscape.org/namespaces/inkscape"
   xmlns:sodipodi="http://sodipodi.sourceforge.net/DTD/sodipodi-0.dtd"
   xmlns="http://www.w3.org/2000/svg"
   xmlns:svg="http://www.w3.org/2000/svg"><sodipodi:namedview
     id="namedview7"
     pagecolor="#505050"
     bordercolor="#eeeeee"
     borderopacity="1"
     inkscape:showpageshadow="0"
     inkscape:pageopacity="0"
     inkscape:pagecheckerboard="0"
     inkscape:deskcolor="#505050"
     inkscape:document-units="mm"
     showgrid="false" /><defs
     id="defs2" /><g
     inkscape:label="Layer 1"
     inkscape:groupmode="layer"
     id="layer1"><path
       id="path44733"
       style="color:#000000;font-weight:300;font-size:16px;font-family:Lato;-inkscape-font-specification:'Lato Light';white-space:pre;fill:#000000;stroke:none;stroke-width:1.00157"
       d="M 12.485316,4.0263575 V 16.862295 c 0.462633,-0.02407 0.940513,0.05842 1.390625,-0.06445 0.431022,-0.04659 0.332971,-0.939444 0.701172,-0.34375 0.569854,0.413239 1.317105,0.48948 2.003906,0.513671 1.431793,0.054 2.915653,-0.582982 3.697266,-1.816406 0.873705,-1.362013 0.986061,-3.107964 0.617187,-4.652344 C 20.577191,9.1430925 19.460573,8.0033178 18.077113,7.7509669 16.993856,7.5458068 15.791753,7.6404412 14.840785,8.2353419 14.597723,8.4737852 14.323434,8.7698081 14.411098,8.2704982 V 4.0263575 Z M 7.0185197,7.643545 C 5.9056357,7.671719 4.814618,8.0836082 3.9521134,8.7880763 3.733515,8.9590741 3.5327856,9.1491639 3.3251603,9.3329982 3.578612,9.6828406 3.7545114,10.179768 4.2392228,10.25292 4.6811652,10.361372 5.0329534,10.038475 5.3583634,9.7958884 6.0713147,9.2827469 7.0197984,9.0701896 7.8681291,9.331045 c 0.701726,0.2712998 0.9109257,1.102088 0.8925781,1.785156 -0.037678,0.146316 0.1080149,0.469053 -0.1503907,0.404297 -1.4998859,0.05981 -3.0664478,0.209306 -4.3925781,0.972656 -0.7618105,0.421393 -1.3213715,1.266376 -1.2128906,2.158203 0.027255,0.962213 0.7324228,1.806894 1.6269531,2.113281 1.1066373,0.390004 2.3579122,0.2626 3.4238282,-0.197265 0.2970468,-0.131239 0.6154518,-0.319833 0.8554687,-0.494141 -0.00436,0.474428 0.4622834,0.838357 0.9238281,0.789063 h 0.8242181 c -0.0044,-2.013937 0.01014,-4.027275 -0.0059,-6.041016 C 10.622041,9.7288359 10.0992,8.5975333 9.1025041,8.0732325 8.5349271,7.7632041 7.883314,7.641633 7.2411759,7.643545 c -0.074334,-0.00155 -0.148464,-0.00188 -0.2226562,0 z M 16.733363,9.19042 c 0.936435,-0.013021 1.786998,0.417423 2.103516,1.205078 0.418199,1.023387 0.392432,2.19951 0.105469,3.253906 -0.22766,0.858602 -0.951199,1.567365 -1.837891,1.701172 -0.889332,0.154971 -1.94514,0.02773 -2.533203,-0.734375 -0.25567,-0.175127 -0.131997,-0.491177 -0.160156,-0.75 v -3.353516 c 0.554117,-0.7276725 1.38583,-1.3092444 2.322265,-1.322265 z m 5.769531,1.27539 v 8.126953 H 1.4989884 v -8.113281 c -0.01521,-0.9606585 -1.37056661,-0.9732502 -1.38085939,0 l 0.006973,8.858006 c -0.005571,0.221481 0.29058078,0.612227 0.48242244,0.623134 0.009639,0.0054 22.58677655,0.01302 22.58677655,0.01302 0.351955,-0.0012 0.646562,-0.267185 0.667031,-0.481249 1.5e-5,-0.0026 0.02047,-9.026564 0.02047,-9.026564 0.01127,-0.9600068 -1.367013,-0.9274062 -1.378908,-1.9e-5 z M 8.7607072,12.979482 v 1.396484 c -0.6443246,0.641313 -1.5050195,1.093096 -2.4277344,1.09961 -0.5300572,0.04024 -1.2058657,-0.109281 -1.390625,-0.679688 -0.1387983,-0.376226 -0.046974,-0.834765 0.3066406,-1.05664 0.720295,-0.484146 1.6150199,-0.590934 2.4570313,-0.689453 0.3510446,-0.0307 0.7029222,-0.05017 1.0546875,-0.07031 z"
       sodipodi:nodetypes="ccccccccccccscccccccccccccccccssccccccsccccccccccccccccccc" /></g></svg>
