<svg xmlns="http://www.w3.org/2000/svg" viewBox="0 0 512 512" role="img" aria-labelledby="title desc">
  <title id="title">Notification Hub</title>
  <desc id="desc">A blue notification bell inside a rounded square.</desc>
  <rect width="512" height="512" rx="112" fill="#0f172a"/>
  <path fill="#60a5fa" d="M256 106c-57 0-103 46-103 103v42c0 24-9 48-26 66l-24 25c-11 12-3 31 13 31h280c16 0 24-19 13-31l-24-25c-17-18-26-42-26-66v-42c0-57-46-103-103-103zm0 316c27 0 49-18 56-43H200c7 25 29 43 56 43z"/>
  <circle cx="256" cy="116" r="18" fill="#22d3ee"/>
</svg>
