<svg xmlns="http://www.w3.org/2000/svg" viewBox="0 0 48 48" width="96" height="96">
    <path fill="#2395ec" d="M47.527 19.847c-.13-.102-1.345-1.007-3.908-1.007-.677.003-1.352.06-2.019.171-.496-3.354-3.219-4.93-3.345-5.003l-.688-.392-.453.644c-.567.866-1.068 1.76-1.311 2.763-.459 1.915-.18 3.713.806 5.25-1.192.655-3.223.713-3.609.727H1.582c-.826.001-1.496.66-1.501 1.474-.037 2.733.353 5.553 1.306 8.119 1.089 2.818 2.71 4.894 4.818 6.164C8.567 40.184 12.405 41 16.756 41c1.965.006 3.927-.169 5.859-.524 2.686-.487 5.271-1.413 7.647-2.74 1.958-1.119 3.72-2.542 5.219-4.215 2.505-2.798 3.997-5.913 5.107-8.682h.442c2.743 0 4.429-1.083 5.359-1.99.618-.579 1.101-1.284 1.414-2.065l.197-.568-.473-.369z" />
    <path fill="#2395ec" d="M8 22H5c-.552 0-1-.448-1-1v-3c0-.552.448-1 1-1h3c.552 0 1 .448 1 1v3c0 .552-.448 1-1 1zM14 22h-3c-.552 0-1-.448-1-1v-3c0-.552.448-1 1-1h3c.552 0 1 .448 1 1v3c0 .552-.448 1-1 1zM20 22h-3c-.552 0-1-.448-1-1v-3c0-.552.448-1 1-1h3c.552 0 1 .448 1 1v3c0 .552-.448 1-1 1zM26 22h-3c-.552 0-1-.448-1-1v-3c0-.552.448-1 1-1h3c.552 0 1 .448 1 1v3c0 .552-.448 1-1 1zM14 16h-3c-.552 0-1-.448-1-1v-3c0-.552.448-1 1-1h3c.552 0 1 .448 1 1v3c0 .552-.448 1-1 1zM20 16h-3c-.552 0-1-.448-1-1v-3c0-.552.448-1 1-1h3c.552 0 1 .448 1 1v3c0 .552-.448 1-1 1zM26 16h-3c-.552 0-1-.448-1-1v-3c0-.552.448-1 1-1h3c.552 0 1 .448 1 1v3c0 .552-.448 1-1 1zM26 10h-3c-.552 0-1-.448-1-1V6c0-.552.448-1 1-1h3c.552 0 1 .448 1 1v3c0 .552-.448 1-1 1zM32 22h-3c-.552 0-1-.448-1-1v-3c0-.552.448-1 1-1h3c.552 0 1 .448 1 1v3c0 .552-.448 1-1 1z" />
</svg>