<svg viewBox="0 0 24 24" xmlns="http://www.w3.org/2000/svg">
    <path
        style="stroke-width:1;stroke-linecap:round;stroke-linejoin:round"
        d="M12 3.35547a1.13386 1.13386 0 0 0-1.13477 1.13476v6.37696l-6.37695.00781a1.13386 1.13386 0 0 0-1.13281 1.13477 1.13386 1.13386 0 0 0 1.13672 1.1328l6.37304-.0078v6.375A1.13386 1.13386 0 0 0 12 20.64454a1.13386 1.13386 0 0 0 1.13477-1.13476V13.1328l6.37695-.0078a1.13386 1.13386 0 0 0 1.13281-1.13476 1.13386 1.13386 0 0 0-1.13672-1.13281l-6.37304.0078v-6.375A1.13386 1.13386 0 0 0 12 3.35546Z" />
</svg>