<svg viewBox="0 0 24 24" xmlns="http://www.w3.org/2000/svg">
    <path
        style="stroke-width:1;stroke-linecap:round;stroke-linejoin:round"
        d="M12 1.91c-1.34 0-2.79.43-3.56 1.7-2.25-.44-3.84.87-3.83 2.82-2.56 1.13-2.42 3.75-.9 4.9.66.43 2.13.54 4.4.57-.02.09-.05.2-.1.3-.14.28-.33.56-1.13.57-.59.01-1.09.2-1.43.51-.35.3-.55.7-.66 1.05-.06.15-.1.3-.12.45a1.93 1.93 0 1 0 1.15.06l.04-.16c.07-.22.18-.41.33-.54.15-.13.35-.23.7-.24 1.14-.02 1.85-.62 2.14-1.2.14-.3.2-.58.23-.8h2.41c0 .3-.02.83-.12 1.37-.07.39-.14.77-.47 1.1-.44.23-.7.3-.99.55a1.8 1.8 0 0 0-.5.63 6.14 6.14 0 0 0-.4 1.7c-.05.45-.08.9-.09 1.28a1.93 1.93 0 1 0 1.14 0c0-.35.03-.75.08-1.15.06-.53.17-1.05.32-1.38.07-.16.29-.38.62-.53.37-.15.63-.3.95-.64.33-.35.37-.9.46-1.36.11-.63.13-1.24.13-1.57h2.38c0 .25.06.64.22 1.04a2.3 2.3 0 0 0 2.14 1.45c.33 0 .5.1.65.28.16.17.29.44.36.73l.1.47a1.93 1.93 0 1 0 1.13-.07 4.76 4.76 0 0 0-.13-.69 2.8 2.8 0 0 0-.62-1.21 2.04 2.04 0 0 0-1.47-.64c-.75-.02-.95-.34-1.11-.74a2.2 2.2 0 0 1-.14-.63c2.04-.04 3.36-.16 3.98-.57 1.52-1.14 1.66-3.76-.9-4.89 0-1.95-1.58-3.26-3.83-2.83-.77-1.26-2.22-1.69-3.56-1.69Z" />
</svg>