<svg viewBox="0 0 24 24" xmlns="http://www.w3.org/2000/svg">
    <path
        style="stroke-width:1;stroke-linecap:round;stroke-linejoin:round"
        d="M8.08 2.46c-2.17.02-2.53.3-2.58 1.86a4.7 4.7 0 0 0-2.8-.12c-.71.24-1.2.77-1.46 1.33a4.02 4.02 0 0 0-.28 2.26 5 5 0 0 0 2.79 4.15 6 6 0 0 0 2.58.65 6.47 6.47 0 0 0 4.93 3.62v3.65H8.51c-1.25-.01-1.24 1.69 0 1.68h7.01c1.35-.03 1.27-1.68 0-1.68h-2.75V16.2a6.69 6.69 0 0 0 4.9-3.6c1-.09 1.86-.3 2.58-.65a5 5 0 0 0 2.79-4.15c.01-.08.22-1.18-.28-2.26a2.5 2.5 0 0 0-1.47-1.33c-.7-.24-1.6-.22-2.77.12-.11-2.15-.93-1.83-6.57-1.84-1.7 0-2.95-.03-3.87-.02ZM21.75 6.1c.65 1.32-.3 3.69-1.96 4.68-.61.3-1.2.45-1.58.51.21-.7.33-1.46.33-2.24V5.58c1.3-.4 2.77-.29 3.21.53zM5.5 5.57v3.5c0 .78.12 1.53.33 2.24-.38-.07-.99-.2-1.6-.52-2.1-1.48-2.67-3.65-1.62-5.06.73-.63 2.17-.29 2.9-.16Z" />
</svg>