<svg width="24mm" height="24mm" viewBox="0 0 24 24" xmlns="http://www.w3.org/2000/svg">
    <path
        style="stroke-width:1;stroke-linecap:round;stroke-linejoin:round"
        d="M9.20132 3.43104a5.57104 5.57104 0 0 0-2.43694.46072l4.2596 4.25958-2.87745 2.87745L3.89704 6.7793a5.57104 5.57104 0 0 0 1.15583 6.157 5.57104 5.57104 0 0 0 6.23581 1.12147l5.94281 5.94282a1.95513 1.95513 0 0 0 2.76429 0 1.95513 1.95513 0 0 0 0-2.7643l-5.93271-5.9327a5.57104 5.57104 0 0 0-1.13158-6.24591 5.57104 5.57104 0 0 0-3.73017-1.62665Z" />
</svg>