<svg width="24mm" height="24mm" viewBox="0 0 24 24" xmlns="http://www.w3.org/2000/svg">
    <path
        style="stroke-width:1;stroke-linecap:round;stroke-linejoin:round"
        d="M12.0293 1.81445a.94497.94497 0 0 0-.6172.23243L4.68165 7.91796A.94488.94488 0 0 0 4.58984 9.25a.94488.94488 0 0 0 1.33399.0918l6.11523-5.33399 6.04492 5.17774a.94488.94488 0 0 0 1.33204-.10352A.94488.94488 0 0 0 19.3125 7.75l-6.66406-5.70703a.94497.94497 0 0 0-.61914-.22852Zm0 6.32422a.94497.94497 0 0 0-.6172.23242l-6.73046 5.8711a.94488.94488 0 0 0-.0918 1.33203.94488.94488 0 0 0 1.33399.0918l6.11523-5.33399 6.04492 5.17774a.94488.94488 0 0 0 1.33204-.10352.94488.94488 0 0 0-.10352-1.33203l-6.66406-5.70899a.94497.94497 0 0 0-.61914-.22656Zm0 6.32422a.94497.94497 0 0 0-.6172.23242l-6.73046 5.86914a.94488.94488 0 0 0-.0918 1.33399.94488.94488 0 0 0 1.33399.0918l6.11523-5.33399 6.04492 5.17578a.94488.94488 0 0 0 1.33204-.10156.94488.94488 0 0 0-.10352-1.33399l-6.66406-5.70703a.94497.94497 0 0 0-.61914-.22656z" />
</svg>