<svg viewBox="0 0 24 24" xmlns="http://www.w3.org/2000/svg">
    <path
        style="stroke-width:1;stroke-linecap:round;stroke-linejoin:round"
        d="M12.0293 4.10742a.94497.94497 0 0 0-.6172.23242l-6.73046 5.8711a.94488.94488 0 0 0-.0918 1.33203.94488.94488 0 0 0 1.33399.0918l6.11523-5.33399 6.04492 5.17774a.94488.94488 0 0 0 1.33204-.10352.94488.94488 0 0 0-.10352-1.33203l-6.66406-5.70899a.94497.94497 0 0 0-.61914-.22656Zm0 7.48828a.94497.94497 0 0 0-.6172.23242l-6.73046 5.8711a.94488.94488 0 0 0-.0918 1.33398.94488.94488 0 0 0 1.33399.08984l6.11523-5.33398 6.04492 5.17773a.94488.94488 0 0 0 1.33204-.1035.94488.94488 0 0 0-.10352-1.33204l-6.66406-5.70703a.94497.94497 0 0 0-.61914-.22852z" />
</svg>