<svg viewBox="0 0 24 24" xmlns="http://www.w3.org/2000/svg">
    <path
        style="stroke-width:1;stroke-linecap:round;stroke-linejoin:round"
        d="M12 7.94a4.07 4.07 0 0 0 0 8.12 4.07 4.07 0 0 0 0-8.12Zm0 1.14a2.91 2.91 0 1 1 0 5.85A2.91 2.91 0 0 1 9.08 12c0-1.62 1.3-2.92 2.92-2.92zm-6.54-6.6a2.31 2.31 0 0 0-2.3 2.31v3.75h1.13V4.8c0-.66.51-1.17 1.17-1.17h3.08V2.5Zm10 0v1.14h3.08c.66 0 1.17.51 1.17 1.17v3.75h1.14V4.8c0-1.27-1.04-2.3-2.3-2.3zM3.16 15.47v3.75c0 1.27 1.03 2.3 2.3 2.3h3.08v-1.13H5.46c-.66 0-1.17-.51-1.17-1.17v-3.75zm16.55 0v3.75c0 .66-.51 1.17-1.17 1.17h-3.08v1.13h3.08c1.27 0 2.3-1.03 2.3-2.3v-3.75z" />
</svg>