<svg width="24mm" height="24mm" viewBox="0 0 24 24" xmlns="http://www.w3.org/2000/svg">
    <path
        style="stroke-width:1;stroke-linecap:round;stroke-linejoin:round"
        d="M12 1.08a.94.94 0 0 0-.95.95v2.81l-1.9.02 1.2 1.5 1.7 2.17 2.78-3.72-1.88.01v-2.8a.94.94 0 0 0-.95-.94ZM4.65 9.64a.94.94 0 0 0-.95.95.94.94 0 0 0 .95.94h14.7a.94.94 0 0 0 .95-.94.94.94 0 0 0-.95-.95zm0 2.92a.94.94 0 0 0-.95.94.94.94 0 0 0 .95.95h14.7a.94.94 0 0 0 .95-.95.94.94 0 0 0-.95-.94zm7.38 2.91L9.25 19.2l1.88-.01v2.8a.94.94 0 0 0 .95.94.94.94 0 0 0 .95-.95v-2.81l1.9-.02-1.2-1.5z" />
</svg> 