<svg viewBox="0 0 24 24" xmlns="http://www.w3.org/2000/svg">
    <path
        style="stroke-width:1;stroke-linecap:round;stroke-linejoin:round"
        d="M12 2.422c-5.281 0-9.578 4.297-9.578 9.578S6.719 21.578 12 21.578s9.578-4.297 9.578-9.578S17.281 2.422 12 2.422zm0 1.512A8.054 8.054 0 0 1 20.066 12 8.054 8.054 0 0 1 12 20.066 8.054 8.054 0 0 1 3.934 12 8.054 8.054 0 0 1 12 3.934Zm0 3.341a.756.756 0 0 0-.756.756v3.213l-3.213.004a.756.756 0 0 0-.756.758.756.756 0 0 0 .758.754l3.211-.004v3.213a.756.756 0 0 0 .756.756.756.756 0 0 0 .756-.756v-3.213l3.213-.004a.756.756 0 0 0 .756-.758.756.756 0 0 0-.758-.754l-3.211.004V8.031A.756.756 0 0 0 12 7.275Z" />
</svg> 