<svg viewBox="0 0 24 24" xmlns="http://www.w3.org/2000/svg">
    <path
        style="stroke-width:1;stroke-linecap:round;stroke-linejoin:round"
        d="M5.43 3.85c-.87 0-1.58.7-1.58 1.58v13.14c0 .87.7 1.58 1.58 1.58h13.14c.87 0 1.58-.7 1.58-1.58V5.43c0-.87-.7-1.58-1.58-1.58H5.43zm1.7 1.3h9.75c.28 0 .5.22.5.5v.18a.5.5 0 0 1-.5.5H7.12a.5.5 0 0 1-.5-.5v-.18c0-.28.22-.5.5-.5zm4.8 3.87h1.15v7.09h1.46v1.03h-4.5v-1.03h1.65v-4.73c0-.19 0-.38.02-.58l-1.17.98a.51.51 0 0 1-.2.1.48.48 0 0 1-.34-.06.36.36 0 0 1-.1-.1l-.44-.6 2.48-2.1z" />
</svg> 