<svg viewBox="0 0 24 24" xmlns="http://www.w3.org/2000/svg">
    <path
        style="stroke-width:1;stroke-linecap:round;stroke-linejoin:round"
        d="M9.59375 2.32227c-.81429 0-1.47578.62718-1.53516 1.42578H5.03516c-.75063 0-1.35785.58782-1.39063 1.33008h-.0039V6.5332h16.71874V5.07813h-.0039c-.03278-.74226-.64-1.33008-1.39063-1.33008h-3.02343c-.05938-.7986-.72087-1.42578-1.53516-1.42578ZM5.18165 7.6621v11.44726c0 1.42325 1.14511 2.56836 2.56835 2.56836h8.49805c1.42324 0 2.5703-1.14511 2.5703-2.56835V7.6621Zm3.83202 3.07812a.94488.94488 0 0 1 .66797.27735L12 13.33594l2.31836-2.31836a.94488.94488 0 0 1 .66797-.27735.94488.94488 0 0 1 .66797.27735.94488.94488 0 0 1 0 1.33594l-2.31836 2.31836 2.3164 2.31445a.94488.94488 0 0 1 0 1.33789.94488.94488 0 0 1-1.33593 0L12 16.00782l-2.3164 2.3164a.94488.94488 0 0 1-1.33594 0 .94488.94488 0 0 1 0-1.3379l2.3164-2.31444-2.31836-2.31836a.94488.94488 0 0 1 0-1.33594.94488.94488 0 0 1 .66797-.27735z" />
</svg> 