<svg width="24mm" height="24mm" viewBox="0 0 24 24" xmlns="http://www.w3.org/2000/svg">
    <path
        style="stroke-width:1;stroke-linecap:round;stroke-linejoin:round"
        d="M4.9 2.46a2.71 2.71 0 0 0-2.72 2.71v9.66c0 1.49 1.22 2.7 2.71 2.7h4.6v2.5H5.95c-1.06-.02-1.07 1.5 0 1.5h12.12c1.02 0 .98-1.5 0-1.5h-3.68v-2.5h4.73c1.49 0 2.7-1.21 2.7-2.7V5.17c0-1.49-1.21-2.7-2.7-2.7H4.89zm0 1.14h14.2c.9 0 1.58.69 1.58 1.57v9.66c0 .88-.69 1.57-1.57 1.57H4.89c-.88 0-1.57-.69-1.57-1.57V5.17c0-.88.69-1.57 1.57-1.57zm2.98 1.83c-.28 0-.57.2-.57.59v1.07h-.72c-.88.02-.85 1.12 0 1.14h.72V9.3c0 .87 1.1.9 1.13 0V8.23h8.97c.83.02.84-1.12 0-1.14H8.44V6.02c0-.4-.28-.6-.56-.59zm8.23 5.12c-.28 0-.56.19-.56.6v1.06H6.58c-.84.02-.83 1.16 0 1.14h8.97v1.07c.02.9 1.13.87 1.13 0v-1.07h.71c.86-.01.9-1.12 0-1.14h-.71v-1.07a.57.57 0 0 0-.57-.59zm-5.48 6.99h2.62v2.49h-2.62v-2.5z" />
</svg> 