<svg viewBox="0 0 24 24" xmlns="http://www.w3.org/2000/svg">
    <path
        style="stroke-width:1;stroke-linecap:round;stroke-linejoin:round"
        d="M16 22.33a2.77 2.77 0 0 1-2.77-2.77A2.77 2.77 0 0 1 16 16.79a2.77 2.77 0 0 1 2.77 2.77A2.77 2.77 0 0 1 16 22.33zm0-7.56A2.77 2.77 0 0 1 13.23 12 2.77 2.77 0 0 1 16 9.23 2.77 2.77 0 0 1 18.77 12 2.77 2.77 0 0 1 16 14.77zm0-7.56a2.77 2.77 0 0 1-2.77-2.77A2.77 2.77 0 0 1 16 1.67a2.77 2.77 0 0 1 2.77 2.77A2.77 2.77 0 0 1 16 7.21ZM8 22.33a2.77 2.77 0 0 1-2.77-2.77A2.77 2.77 0 0 1 8 16.79a2.77 2.77 0 0 1 2.77 2.77A2.77 2.77 0 0 1 8 22.33zm0-7.56A2.77 2.77 0 0 1 5.23 12 2.77 2.77 0 0 1 8 9.23 2.77 2.77 0 0 1 10.77 12 2.77 2.77 0 0 1 8 14.77zm0-7.56a2.77 2.77 0 0 1-2.77-2.77A2.77 2.77 0 0 1 8 1.67a2.77 2.77 0 0 1 2.77 2.77A2.77 2.77 0 0 1 8 7.21Z" />
</svg> 