<svg width="24mm" height="24mm" viewBox="0 0 24 24" xmlns="http://www.w3.org/2000/svg">
    <path
        style="stroke-width:1;stroke-linecap:round;stroke-linejoin:round"
        d="M12 4a2 2 0 0 0-2 2 2 2 0 0 0 2 2 2 2 0 0 0 2-2 2 2 0 0 0-2-2zm-.5 5a2 2 0 0 0-1.6.7l-1.3 1.6A7.2 7.2 0 0 1 3 14v2c2.8 0 5.2-1.2 7-3.3V15l-3.9 1.6c-.7.2-1.1.9-1.1 1.6 0 1 .8 1.8 1.8 1.8H9v-.5c0-1.4 1.1-2.5 2.5-2.5h3c.3 0 .5.2.5.5s-.2.5-.5.5h-3c-.8 0-1.5.7-1.5 1.5v.5h7.2a1.8 1.8 0 0 0 .7-3.4L14 15v-2.3c1.8 2.1 4.2 3.3 7 3.3v-2c-2.2 0-4.2-1-5.6-2.7l-1.3-1.6a2 2 0 0 0-1.6-.7h-1z" />
</svg> 