<svg viewBox="0 0 24 24" xmlns="http://www.w3.org/2000/svg">
    <path
        style="stroke-width:1;stroke-linecap:round;stroke-linejoin:round"
        d="M5.717 1.219c-.123 0-.222.1-.223.222a.223.223 0 0 0 .445 0c0-.122-.1-.222-.222-.222Zm1.34.332a.447.447 0 1 0-.002.893.447.447 0 0 0 .002-.893ZM5.88 16.318c.61.032 1.156.664 1.156 1.282-.149.614-.647.912-1.058 1.11-.204.098-1.254-.996-1.37-1.43.156-.697.662-.922 1.272-.962zm9.34-5.64c-.015-.25-.193-.422-.412-.414-.269.05-.542.074-.815.076-2.473 0-4.458-1.937-4.459-4.324a4.267 4.267 0 0 1 1.483-3.217.378.378 0 0 0-.297-.66A9.957 9.957 0 0 0 2.049 12c-.016 2.604.795 4.556 2.553 6.672 1.734 1.766 4.043 3.304 7.5 3.346 3.347-.006 7.667-2.602 9.148-6.42a.378.378 0 0 0-.445-.502c-.362.093-.734.14-1.108.142-1.132 0-2.043-.393-2.604-.889-.8-.642-1.243-1.353-1.603-2.207-.258-.613-.26-1.193-.27-1.464zm-.168 4.722c-.501-.1-1.296-.388-1.313-1.459-.01-.617.876-1.272 1.201-1.143.263.615 1.087 1.578 1.297 1.781.067.065-.6.938-1.185.821zM9.773 3.225c-.58.832-.995 1.764-.996 2.79.279 3.647 3.107 5.14 5.725 5.034.013.422.107.819.219 1.207-.823.194-1.492.829-1.492 1.709 0 1.027.842 1.867 1.869 1.867.653 0 1.167-.39 1.5-.902 1.175.769 2.156 1.06 3.601 1-1.515 3.162-4.651 5.253-8.199 5.263-2.14 0-4.044-.813-5.605-2.039.659-.288 1.189-.823 1.189-1.586 0-1.026-.826-1.726-1.852-1.726-.693 0-1.205.307-1.527.873-.843-1.388-1.398-2.971-1.398-4.715.003-4.242 2.947-7.749 6.966-8.775Zm4.9.468c-.448-.01-.797.512-.921 1.022-.1.409.44.337.633.521.182.174.11.493.38.493.56 0 1.142-.172 1.233-.782.082-.545-.682-1.145-1.232-1.244a.597.597 0 0 0-.092-.01zm-.857 3.885a.194.194 0 1 0 0 .387.194.194 0 0 0 0-.387zm4.14.016c-.3.011-.532.203-.532.506.41.475.757.327 1.127.058a.565.565 0 0 0-.567-.564h-.029zm-5.315.431a.268.268 0 1 0 0 .536.268.268 0 0 0 0-.536Zm9.63.235c-.17 0-.288.344-.501.35-.31.007-.717-.077-.717.189a.789.789 0 1 0 1.578 0c0-.436.076-.54-.36-.54zm-8.544.152c-.288 0-.717.445-.514.772.716.333 1.445-.049.514-.772zm-6.582.409c-.805-.077-1.756.697-1.757 1.723 0 1.027.642 1.924 1.669 1.925 1.05-.21 1.505-.83 1.681-1.958-.1-1.126-.566-1.691-1.593-1.69Zm.022.559c.618 0 1 .601 1.001 1.22 0 .618-.493 1.222-1.111 1.221-.773-.077-1.11-.603-1.11-1.221 0-.618.602-1.22 1.22-1.22Zm13.9.663c-.175.006-.411.085-.68.258-.227.378.201.755.547.656.62-.534.546-.929.132-.914zm-2.352 2.701a.462.462 0 1 0 .001.923.462.462 0 0 0-.001-.923zm-6.238 3.94c-1.026 0-1.768.808-1.868 1.867 0 1.026.875 1.436 1.956 1.59 1.026 0 2.12-.608 2.121-1.634 0-1.026-1.25-1.724-2.21-1.823zm9.21.005a.372.372 0 1 0-.001.745.372.372 0 0 0 .002-.745zm-9.233.531c.618 0 1.651.713 1.651 1.33 0 .618-.768 1.066-1.385 1.066-.618 0-1.551-.425-1.552-1.043 0-.618.669-1.352 1.286-1.353z" />
</svg> 