<svg width="24mm" height="24mm" viewBox="0 0 24 24" xmlns="http://www.w3.org/2000/svg">
    <path
        style="stroke-width:1;stroke-linecap:round;stroke-linejoin:round"
        d="m20.13.83-1.38 3.04-3.33.12 3.04 1.38.12 3.33 1.38-3.03 3.33-.13-3.04-1.38-.12-3.33zm-14.02.19.78 2.9L4.64 5.9l2.9-.78 2 2.25-.78-2.9 2.24-2-2.9.78-1.99-2.24zM13.66 7c-.25 0-.5.1-.7.29L1.3 18.96a.99.99 0 0 0 0 1.4l1.9 1.86a1 1 0 0 0 1.4 0l11.66-11.66a1 1 0 0 0 0-1.41l-1.88-1.86a1 1 0 0 0-.7-.3zm0 1.22 1.59 1.55-2.44 2.44-1.59-1.55 2.44-2.44zm7.24 3.7-2.44 2.4-3.24-1.11 2.4 2.44-1.11 3.23 2.44-2.4 3.23 1.12-2.4-2.44 1.12-3.24z" />
</svg> 