<svg viewBox="0 0 24 24" xmlns="http://www.w3.org/2000/svg">
    <path
        style="stroke-width:1;stroke-linecap:round;stroke-linejoin:round"
        d="M5.43 3.85c-.87 0-1.58.7-1.58 1.58v13.14c0 .87.7 1.58 1.58 1.58h13.14c.87 0 1.58-.7 1.58-1.58V5.43c0-.87-.7-1.58-1.58-1.58zm1.7 1.3h9.75c.28 0 .5.22.5.5v.18a.5.5 0 0 1-.5.5H7.12a.5.5 0 0 1-.5-.5v-.18c0-.28.22-.5.5-.5zm1.2 3.65h1.58c.25 0 .46.21.46.47v1.57c0 .26-.2.46-.46.46H8.33a.46.46 0 0 1-.46-.46V9.27c0-.26.2-.47.46-.47zm2.88 0h1.58c.25 0 .46.21.46.47v1.57c0 .26-.2.46-.46.46H11.2a.46.46 0 0 1-.47-.46V9.27c0-.26.21-.47.47-.47zm2.88 0h1.57c.26 0 .47.21.47.47v1.57c0 .26-.21.46-.47.46H14.1a.46.46 0 0 1-.47-.46V9.27c0-.26.21-.47.47-.47zm2.87 0h1.58c.26 0 .46.21.46.47v1.57c0 .26-.2.46-.46.46h-1.58a.46.46 0 0 1-.46-.46V9.27c0-.26.2-.47.46-.47zm-11.5 3.08h1.57c.26 0 .46.2.46.46v1.58c0 .25-.2.46-.46.46H5.45a.46.46 0 0 1-.46-.46v-1.58c0-.26.2-.46.46-.46zm2.87 0h1.58c.25 0 .46.2.46.46v1.58c0 .25-.2.46-.46.46H8.33a.46.46 0 0 1-.46-.46v-1.58c0-.26.2-.46.46-.46zm2.88 0h1.58c.25 0 .46.2.46.46v1.58c0 .25-.2.46-.46.46H11.2a.46.46 0 0 1-.47-.46v-1.58c0-.26.21-.46.47-.46zm2.88 0h1.57c.26 0 .47.2.47.46v1.58c0 .25-.21.46-.47.46H14.1a.46.46 0 0 1-.47-.46v-1.58c0-.26.21-.46.47-.46zm2.87 0h1.58c.26 0 .46.2.46.46v1.58c0 .25-.2.46-.46.46h-1.58a.46.46 0 0 1-.46-.46v-1.58c0-.26.2-.46.46-.46zm-11.6 3.07h1.59c.25 0 .46.21.46.47v1.57c0 .26-.2.47-.46.47H5.37a.46.46 0 0 1-.46-.47v-1.57c0-.26.2-.47.46-.47zm2.89 0h1.57c.26 0 .47.21.47.47v1.57c0 .26-.21.47-.47.47H8.25a.46.46 0 0 1-.47-.47v-1.57c0-.26.21-.47.47-.47zm2.87 0h1.58c.26 0 .46.21.46.47v1.57c0 .26-.2.47-.46.47h-1.58a.46.46 0 0 1-.46-.47v-1.57c0-.26.2-.47.46-.47z" />
</svg> 