<svg width="24mm" height="24mm" viewBox="0 0 24 24" xmlns="http://www.w3.org/2000/svg">
    <path
        style="stroke-width:1;stroke-linecap:round;stroke-linejoin:round"
        d="M4 7v2a1 1 0 0 1-1 1s-1 .04-1 2 1 2 1 2a1 1 0 0 1 1 1v2a3 3 0 0 0 3 3h3v-2H7a1 1 0 0 1-1-1v-2c0-1.3-.84-2.42-2-2.83v-.34C5.16 11.42 6 10.3 6 9V7a1 1 0 0 1 1-1h3V4H7a3 3 0 0 0-3 3Zm17 3a1 1 0 0 1-1-1V7a3 3 0 0 0-3-3h-3v2h3a1 1 0 0 1 1 1v2c0 1.3.84 2.42 2 2.83v.34A3 3 0 0 0 18 15v2a1 1 0 0 1-1 1h-3v2h3a3 3 0 0 0 3-3v-2a1 1 0 0 1 1-1s1-.04 1-2-1-2-1-2z"
    />
</svg> 