<svg width="24mm" height="24mm" viewBox="0 0 24 24" xmlns="http://www.w3.org/2000/svg">
    <path
        style="stroke-width:1;stroke-linecap:round;stroke-linejoin:round"
        d="M16.46164 3.417a1.88976 1.88976 0 0 0-1.88867 1.88866v13.38672a1.88976 1.88976 0 0 0 1.88867 1.89063 1.88976 1.88976 0 0 0 1.89063-1.89063V5.30566A1.88976 1.88976 0 0 0 16.46164 3.417Zm-8.92523 0a1.88976 1.88976 0 0 0-1.88868 1.88866v13.38672a1.88976 1.88976 0 0 0 1.88868 1.89063 1.88976 1.88976 0 0 0 1.89062-1.89063V5.30566A1.88976 1.88976 0 0 0 7.5364 3.417Z" />
</svg> 