<svg viewBox="0 0 24 24" xmlns="http://www.w3.org/2000/svg">
    <path
        style="stroke-width:1;stroke-linecap:round;stroke-linejoin:round"
        d="M14.4 10a1.4 1.4 0 0 1-1.4 1.3 1.4 1.4 0 0 1-1.4-1.4A1.4 1.4 0 0 1 13 8.6a1.4 1.4 0 0 1 1.4 1.3M13 3a7 7 0 0 0-7 6.6l-1.9 2.6c-.2.3 0 .8.4.8H6v3c0 1.1.9 2 2 2h1v3h7v-4.7A7 7 0 0 0 13 3Zm3 7v.4l.8.7s.1.1 0 .2l-.7 1.4h-.3l-1-.3a3 3 0 0 1-.6.4l-.2 1-.2.2h-1.6c-.1 0-.2 0-.2-.2l-.1-1-.7-.4-1 .4-.3-.1-.8-1.4V11l1-.6-.1-.4v-.4L9.2 9s-.1-.1 0-.2l.7-1.4h.3l1 .3.7-.4.1-1 .2-.2h1.6c.1 0 .2 0 .2.2l.1 1 .7.4 1-.4.3.1.8 1.4V9l-1 .6.1.4Z" />
</svg> 