<svg width="24mm" height="24mm" viewBox="0 0 24 24" xmlns="http://www.w3.org/2000/svg">
    <path
        style="stroke-width:1;stroke-linecap:round;stroke-linejoin:round"
        d="M5.43 3.85c-.87 0-1.58.7-1.58 1.58v13.14c0 .87.7 1.58 1.58 1.58h5.25v-7.78c0-.38.3-.67.68-.67h8.79V5.43c0-.87-.7-1.58-1.58-1.58H5.43zm1.7 1.3h9.75c.28 0 .5.22.5.5v.18a.5.5 0 0 1-.5.5H7.12a.5.5 0 0 1-.5-.5v-.18c0-.28.22-.5.5-.5zm1.2 3.65h1.58c.25 0 .46.21.46.47v1.57c0 .26-.2.46-.46.46H8.33a.46.46 0 0 1-.46-.46V9.27c0-.26.2-.47.46-.47zm2.88 0h1.58c.25 0 .46.21.46.47v1.57c0 .26-.2.46-.46.46H11.2a.46.46 0 0 1-.47-.46V9.27c0-.26.21-.47.47-.47zm2.88 0h1.57c.26 0 .46.21.46.47v1.57c0 .26-.2.46-.46.46H14.1a.46.46 0 0 1-.47-.46V9.27c0-.26.21-.47.47-.47zm2.87 0h1.58c.26 0 .46.21.46.47v1.57c0 .26-.2.46-.46.46h-1.58a.46.46 0 0 1-.46-.46V9.27c0-.26.2-.47.46-.47zm-11.5 3.08h1.57c.26 0 .46.2.46.46v1.58c0 .25-.2.46-.46.46H5.45a.46.46 0 0 1-.46-.46v-1.58c0-.26.2-.46.46-.46zm2.87 0h1.58c.25 0 .46.2.46.46v1.58c0 .25-.2.46-.46.46H8.33a.46.46 0 0 1-.46-.46v-1.58c0-.26.2-.46.46-.46zm3.57.34c-.33 0-.6.27-.6.6v8.55c0 .33.27.6.6.6h8.55a.6.6 0 0 0 .6-.6v-8.56a.6.6 0 0 0-.6-.59H11.9zm4.05 2.5a2.21 2.21 0 0 1 .93.14 2.21 2.21 0 0 1 1.3 2.84v.02A2.21 2.21 0 0 1 15.31 19a2.21 2.21 0 0 1-1.29-2.85 2.21 2.21 0 0 1 1.92-1.43zm-10.58.23h1.58c.25 0 .46.21.46.47v1.57c0 .26-.2.47-.46.47H5.37a.46.46 0 0 1-.46-.47v-1.57c0-.26.2-.47.46-.47zm2.88 0h1.57c.26 0 .47.21.47.47v1.57c0 .26-.21.47-.47.47H8.25a.46.46 0 0 1-.47-.47v-1.57c0-.26.21-.47.47-.47z" />
</svg> 