<svg width="24mm" height="24mm" viewBox="0 0 24 24" xmlns="http://www.w3.org/2000/svg">
    <path
        style="stroke-width:1;stroke-linecap:round;stroke-linejoin:round"
        d="M16.32 2.2c-.1.17-.2.43-.26.76a8.54 8.54 0 0 0-.02 2.61c.14.99.54 2.03.86 3.05-.42.17-.78.4-1.07.68a3 3 0 0 0-.84 1.43c-3.45-.03-7.04-.02-10.53-.03a.81.81 0 0 0-.82.82V18c0 .75.59 1.35 1.34 1.35.75 0 1.35-.6 1.35-1.35v-1c3.52 0 7.17.06 10.73.09 1.67 0 2.33.44 2.97.8.66.37 1.61-.37 1.39-1.35-.2-.91-1.4-1.43-2.63-1.64l.01-.27.74-.08a5.2 5.2 0 0 0 2.31-.88c.8-.58 1.26-1.35 1.25-2.2a2.78 2.78 0 0 0-1.17-2.17 5.41 5.41 0 0 0-3.3-.98c-.19.01-.45 0-.62.02a9.9 9.9 0 0 0-.64-5.41 2.92 2.92 0 0 0-.46-.74c-.25-.26-.43-.23-.59.02Zm3.99 1.07c-.19.06-.42.24-.67.46-.42.35-.88.9-1.3 1.56.14.89.16 1.71.1 2.74l.56.01c.31-.4.6-.85.89-1.26.44-.79 1.06-2.11.98-3.17-.09-.34-.35-.4-.56-.34Zm.46 6.49a.69.69 0 1 1 0 1.37.69.69 0 0 1 0-1.37zm-18.63.92A1.2 1.2 0 0 0 .9 11.92c0 .7.6 1.26 1.24 1.24.64-.01 1.22-.41 1.24-1.16a1.24 1.24 0 0 0-1.24-1.32z" />
</svg>