<?xml version="1.0" standalone="no"?>
<!DOCTYPE svg PUBLIC "-//W3C//DTD SVG 20010904//EN"
 "http://www.w3.org/TR/2001/REC-SVG-20010904/DTD/svg10.dtd">
<svg version="1.0" xmlns="http://www.w3.org/2000/svg"
 width="354.000000pt" height="354.000000pt" viewBox="0 0 354.000000 354.000000"
 preserveAspectRatio="xMidYMid meet">
<metadata>
Created by potrace 1.14, written by Peter Selinger 2001-2017
</metadata>
<g transform="translate(0.000000,354.000000) scale(0.100000,-0.100000)"
fill="#000000" stroke="none">
<path d="M557 3522 c-16 -17 -17 -154 -17 -1759 0 -1454 2 -1742 14 -1752 10
-8 337 -10 1222 -9 l1209 3 9 65 c4 36 10 656 12 1378 l4 1313 -387 389 -386
390 -832 0 c-793 0 -833 -1 -848 -18z m2027 -412 l376 -380 -4 -1287 c-2 -709
-7 -1312 -11 -1340 l-7 -53 -1174 0 -1174 0 0 1713 c0 943 3 1717 7 1720 3 4
367 7 808 7 l802 0 377 -380z"/>
<path d="M685 3388 c-3 -7 -4 -740 -3 -1628 l3 -1615 1085 0 1085 0 3 1267 2
1267 -308 3 -309 3 -37 28 c-20 16 -41 40 -47 54 -5 13 -9 154 -9 313 0 159
-3 295 -6 304 -6 14 -79 16 -730 16 -571 0 -726 -3 -729 -12z m1415 -275 c0
-137 5 -277 10 -313 8 -59 13 -69 54 -106 25 -23 59 -44 77 -48 17 -3 155 -6
305 -6 l274 0 0 -1230 0 -1230 -1050 0 -1050 0 0 1590 0 1590 690 0 690 0 0
-247z"/>
<path d="M1407 2495 c-67 -46 -87 -127 -47 -193 39 -64 118 -88 196 -60 31 11
33 10 113 -62 l81 -74 0 -67 c0 -37 -4 -70 -8 -73 -5 -3 -24 -8 -42 -11 -36
-6 -86 -37 -112 -69 -16 -20 -17 -20 -76 22 -32 23 -62 39 -66 35 -3 -3 -6 -2
-6 4 0 12 -44 33 -69 33 -18 0 -72 -33 -147 -89 l-31 -23 -34 21 c-64 39 -163
18 -200 -43 -24 -39 -25 -110 -1 -155 23 -46 65 -69 128 -70 43 -1 56 4 87 30
43 36 62 86 53 139 -6 38 -6 39 66 89 75 53 102 58 133 27 7 -7 36 -27 64 -45
48 -31 60 -55 38 -77 -11 -11 -8 -152 3 -159 6 -4 8 -10 6 -14 -7 -11 46 -86
78 -112 16 -13 52 -30 80 -39 48 -16 77 -50 43 -50 -24 0 -78 -51 -93 -87
l-14 -33 -98 0 -98 0 -15 36 c-30 77 -128 115 -199 76 -107 -58 -107 -211 0
-264 42 -21 79 -22 117 -5 35 15 79 59 88 86 6 19 14 21 108 21 l102 0 17 -41
c13 -31 26 -44 57 -57 36 -15 41 -21 41 -49 0 -26 -4 -33 -19 -33 -29 0 -78
-52 -92 -98 -17 -57 0 -110 46 -151 31 -27 43 -31 95 -31 52 0 64 4 95 31 46
40 63 95 46 149 -13 46 -61 97 -94 102 -15 2 -23 11 -25 30 -3 23 3 29 41 46
34 15 49 30 66 64 11 24 21 54 21 66 0 55 -42 115 -97 138 -32 14 -45 40 -20
41 88 4 183 75 214 163 19 53 0 50 205 29 l127 -13 3 -77 3 -77 -31 -11 c-55
-20 -78 -54 -82 -124 -4 -75 17 -115 73 -141 107 -51 225 34 212 151 -6 52
-53 108 -99 118 l-28 7 0 86 c0 48 -4 93 -9 101 -7 11 -57 19 -185 30 l-176
15 0 34 c0 18 -7 49 -15 68 -13 31 -13 38 -1 50 8 8 17 14 21 14 3 0 44 29 92
65 70 53 93 65 124 65 33 0 39 -4 56 -37 25 -52 75 -83 132 -83 86 0 141 56
141 145 0 25 -7 59 -15 76 -53 102 -222 87 -264 -24 -9 -22 -17 -27 -45 -27
-52 0 -74 -12 -187 -94 -57 -42 -105 -72 -108 -68 -25 36 -103 72 -158 75 -9
0 -13 20 -13 65 l0 65 78 80 c70 71 81 78 100 68 33 -18 103 -13 140 9 95 58
95 192 0 250 -63 39 -162 17 -199 -44 -21 -35 -25 -115 -8 -148 10 -18 3 -29
-59 -90 l-69 -70 -58 47 c-32 25 -68 59 -82 75 -22 27 -23 32 -12 69 10 34 9
47 -5 86 -35 91 -139 124 -219 70z m118 -49 c39 -16 51 -46 41 -100 -7 -34
-36 -56 -77 -56 -85 0 -112 122 -35 156 39 16 31 16 71 0z m559 -2 c51 -13 48
-116 -4 -144 -26 -14 -83 -6 -99 14 -19 23 -29 70 -20 94 9 24 65 54 87 47 8
-3 24 -8 36 -11z m405 -349 c76 -39 43 -156 -41 -150 -44 2 -63 16 -76 54 -18
50 22 108 76 110 7 1 26 -6 41 -14z m-660 -195 c119 -34 182 -166 132 -275
-28 -62 -95 -112 -159 -120 -44 -5 -109 16 -147 47 -98 82 -98 224 1 306 57
48 110 60 173 42z m-687 -78 c17 -17 21 -37 19 -83 -1 -18 -11 -31 -38 -46
-34 -19 -41 -20 -70 -8 -17 7 -37 23 -43 35 -13 24 -10 80 5 96 35 37 94 40
127 6z m1295 -427 c77 -54 17 -174 -73 -145 -39 13 -54 35 -54 80 0 63 75 101
127 65z m-1080 -86 c30 -59 -6 -119 -72 -119 -91 0 -116 119 -33 155 41 16 87
1 105 -36z m493 0 c30 -55 -8 -121 -70 -123 -47 -1 -80 32 -80 82 0 85 111
115 150 41z m-13 -331 c34 -32 31 -82 -6 -117 -35 -32 -60 -33 -101 -3 -24 19
-30 30 -30 62 0 73 83 109 137 58z"/>
<path d="M2292 3043 l3 -218 215 0 c203 0 215 1 218 19 6 27 -383 416 -416
416 l-22 0 2 -217z m328 -160 c0 -2 -61 -3 -135 -3 l-135 0 0 137 0 138 135
-135 c74 -74 135 -136 135 -137z"/>
</g>
</svg>
