<?xml version="1.0" encoding="UTF-8" standalone="no"?>
<!-- Created with Inkscape (http://www.inkscape.org/) -->

<svg
   width="24"
   height="24"
   viewBox="0 0 24 24"
   version="1.1"
   id="svg5"
   inkscape:export-filename="AddRoutineListAfterIcon.svg"
   inkscape:export-xdpi="96"
   inkscape:export-ydpi="96"
   sodipodi:docname="AddRoutineListAfter.svg"
   xmlns:inkscape="http://www.inkscape.org/namespaces/inkscape"
   xmlns:sodipodi="http://sodipodi.sourceforge.net/DTD/sodipodi-0.dtd"
   xmlns="http://www.w3.org/2000/svg"
   xmlns:svg="http://www.w3.org/2000/svg">
  <sodipodi:namedview
     id="namedview7"
     pagecolor="#505050"
     bordercolor="#eeeeee"
     borderopacity="1"
     inkscape:showpageshadow="0"
     inkscape:pageopacity="0"
     inkscape:pagecheckerboard="0"
     inkscape:deskcolor="#505050"
     inkscape:document-units="mm"
     showgrid="false" />
  <defs
     id="defs2" />
  <g
     inkscape:label="Layer 1"
     inkscape:groupmode="layer"
     id="layer1">
    <path
       id="path5384"
       style="color:#000000;fill:#000000;stroke-linecap:round;-inkscape-stroke:none"
       d="M 23.662109,7.5253906 V 16.474609 H 14.71289 V 12.689453 H 9.1249993 v 3.785156 H 0.17578125 V 7.5253906 H 9.1249993 c 0,1.2617188 0,2.5234374 0,3.7851564 H 14.71289 V 7.5253906 Z m -1.378906,1.3789063 h -6.191407 v 6.1914061 h 6.191407 z m -14.5371097,0 h -6.191406 v 6.1914061 h 6.191406 z m -3.097656,0.6054687 c 0.381468,1.687e-4 0.6903639,0.3099396 0.689453,0.6914064 v 1.199219 h 1.191406 c 0.380704,1.69e-4 0.689284,0.308749 0.689453,0.689453 -1.69e-4,0.380704 -0.308749,0.689284 -0.689453,0.689453 h -1.191406 v 1.152344 c -1.69e-4,0.380704 -0.308749,0.689284 -0.689453,0.689453 -0.3807041,-1.69e-4 -0.689284,-0.308749 -0.689453,-0.689453 v -1.152344 h -1.16211 c -0.380704,-1.69e-4 -0.689284,-0.308749 -0.689453,-0.689453 1.69e-4,-0.380704 0.308749,-0.689284 0.689453,-0.689453 h 1.16211 v -1.199219 c -9.11e-4,-0.3814668 0.307985,-0.6912377 0.689453,-0.6914064 z"
       sodipodi:nodetypes="cccccccccccccccccccccccccccccccccccccccc" />
  </g>
</svg>
