<?xml version="1.0" encoding="UTF-8" standalone="no"?>
<!-- Created with Inkscape (http://www.inkscape.org/) -->

<svg
   width="24"
   height="24"
   viewBox="0 0 24 24"
   version="1.1"
   id="svg5"
   inkscape:export-filename="AddRoutineListAfter.svg"
   inkscape:export-xdpi="96"
   inkscape:export-ydpi="96"
   sodipodi:docname="AddRoutineListAfter.svg"
   xmlns:inkscape="http://www.inkscape.org/namespaces/inkscape"
   xmlns:sodipodi="http://sodipodi.sourceforge.net/DTD/sodipodi-0.dtd"
   xmlns="http://www.w3.org/2000/svg"
   xmlns:svg="http://www.w3.org/2000/svg">
  <sodipodi:namedview
     id="namedview7"
     pagecolor="#505050"
     bordercolor="#eeeeee"
     borderopacity="1"
     inkscape:showpageshadow="0"
     inkscape:pageopacity="0"
     inkscape:pagecheckerboard="0"
     inkscape:deskcolor="#505050"
     inkscape:document-units="mm"
     showgrid="false" />
  <defs
     id="defs2" />
  <g
     inkscape:label="Layer 1"
     inkscape:groupmode="layer"
     id="layer1">
    <path
       id="path5384"
       style="color:#000000;fill:#000000;stroke-linecap:round;-inkscape-stroke:none"
       d="M 0.17578125,7.5253906 V 16.474609 H 9.125 v -3.785156 h 5.587891 v 3.785156 h 8.949218 V 7.5253906 h -8.949218 c 0,1.2617188 0,2.5234374 0,3.7851564 H 9.125 V 7.5253906 Z M 1.5546875,8.9042969 H 7.7460938 V 15.095703 H 1.5546875 Z m 14.5371095,0 h 6.191406 v 6.1914061 h -6.191406 z m 3.097656,0.6054687 C 18.807985,9.5099343 18.499089,9.8197052 18.5,10.201172 v 1.199219 h -1.191406 c -0.380704,1.69e-4 -0.689284,0.308749 -0.689453,0.689453 1.69e-4,0.380704 0.308749,0.689284 0.689453,0.689453 H 18.5 v 1.152344 c 1.69e-4,0.380704 0.308749,0.689284 0.689453,0.689453 0.380704,-1.69e-4 0.689284,-0.308749 0.689453,-0.689453 v -1.152344 h 1.16211 C 21.42172,12.779128 21.7303,12.470548 21.730469,12.089844 21.7303,11.70914 21.42172,11.40056 21.041016,11.400391 h -1.16211 V 10.201172 C 19.879817,9.8197052 19.570921,9.5099343 19.189453,9.5097656 Z"
       sodipodi:nodetypes="cccccccccccccccccccccccccccccccccccccccc" />
  </g>
</svg>
