<?xml version="1.0" encoding="UTF-8" standalone="no"?>
<!-- Created with Inkscape (http://www.inkscape.org/) -->

<svg
   width="24"
   height="24"
   viewBox="0 0 24 24"
   version="1.1"
   id="svg5"
   inkscape:export-filename="PersonIcon.svg"
   inkscape:export-xdpi="96"
   inkscape:export-ydpi="96"
   sodipodi:docname="BotIcon.svg"
   inkscape:version="1.2 (dc2aedaf03, 2022-05-15)"
   xmlns:inkscape="http://www.inkscape.org/namespaces/inkscape"
   xmlns:sodipodi="http://sodipodi.sourceforge.net/DTD/sodipodi-0.dtd"
   xmlns="http://www.w3.org/2000/svg"
   xmlns:svg="http://www.w3.org/2000/svg">
  <sodipodi:namedview
     id="namedview7"
     pagecolor="#505050"
     bordercolor="#eeeeee"
     borderopacity="1"
     inkscape:showpageshadow="0"
     inkscape:pageopacity="0"
     inkscape:pagecheckerboard="0"
     inkscape:deskcolor="#505050"
     inkscape:document-units="mm"
     showgrid="false"
     showguides="true"
     inkscape:zoom="16"
     inkscape:cx="20"
     inkscape:cy="17.625"
     inkscape:window-width="1920"
     inkscape:window-height="1009"
     inkscape:window-x="-8"
     inkscape:window-y="-8"
     inkscape:window-maximized="1"
     inkscape:current-layer="layer1" />
  <defs
     id="defs2" />
  <g
     inkscape:label="Layer 1"
     inkscape:groupmode="layer"
     id="layer1">
    <path
       id="path5942"
       style="fill:#000000;fill-opacity:1;stroke-width:1.00157;stroke-linecap:round;stroke-linejoin:round"
       d="M 12 2.2578125 C 11.136483 2.2582703 10.436879 2.9587485 10.4375 3.8222656 C 10.438373 4.5078149 10.885789 5.1128167 11.541016 5.3144531 L 11.240234 6.7304688 L 7.2480469 6.7304688 C 5.5015429 6.7304688 4.0957031 8.1363085 4.0957031 9.8828125 L 4.0957031 11.160156 C 2.0897395 11.160156 2.0839844 11.166258 2.0839844 13.332031 C 2.0839844 15.503469 2.0855763 15.501953 4.0957031 15.501953 L 4.0957031 18.964844 C 4.0957031 20.711347 5.5015429 22.119141 7.2480469 22.119141 L 16.609375 22.119141 C 18.355879 22.119141 19.761719 20.711347 19.761719 18.964844 L 19.761719 15.490234 C 21.921558 15.507034 21.916016 15.506492 21.916016 13.332031 C 21.916016 11.169792 21.912714 11.171875 19.761719 11.171875 L 19.761719 9.8828125 C 19.761719 8.1363085 18.355879 6.7304688 16.609375 6.7304688 L 12.757812 6.7304688 L 12.447266 5.3203125 C 13.109203 5.1222726 13.562638 4.5131936 13.5625 3.8222656 C 13.563121 2.9587485 12.863517 2.2582703 12 2.2578125 z M 7.625 10.695312 L 10.232422 10.695312 L 10.232422 13.304688 L 7.625 13.304688 L 7.625 10.695312 z M 13.767578 10.695312 L 16.375 10.695312 L 16.375 13.304688 L 13.767578 13.304688 L 13.767578 10.695312 z M 16.642578 15.691406 C 16.642578 15.691406 16.663086 18.462856 11.974609 18.472656 C 7.3285021 18.482394 7.3574219 15.697266 7.3574219 15.697266 L 8.1132812 15.695312 C 8.1132812 15.695313 8.2466193 17.771816 11.990234 17.759766 C 15.9575 17.746993 15.9375 15.697266 15.9375 15.697266 L 16.642578 15.691406 z " />
  </g>
</svg>
