<?xml version="1.0" encoding="UTF-8" standalone="no"?>
<!-- Created with Inkscape (http://www.inkscape.org/) -->

<svg
   width="24"
   height="24"
   viewBox="0 0 24 24"
   version="1.1"
   id="svg5"
   inkscape:export-filename="BumpMajorIcon.png"
   inkscape:export-xdpi="96"
   inkscape:export-ydpi="96"
   sodipodi:docname="BumpMajorIcon.svg"
   xmlns:inkscape="http://www.inkscape.org/namespaces/inkscape"
   xmlns:sodipodi="http://sodipodi.sourceforge.net/DTD/sodipodi-0.dtd"
   xmlns="http://www.w3.org/2000/svg"
   xmlns:svg="http://www.w3.org/2000/svg">
  <sodipodi:namedview
     id="namedview7"
     pagecolor="#505050"
     bordercolor="#eeeeee"
     borderopacity="1"
     inkscape:showpageshadow="0"
     inkscape:pageopacity="0"
     inkscape:pagecheckerboard="0"
     inkscape:deskcolor="#505050"
     inkscape:document-units="mm"
     showgrid="false"
     showguides="true" />
  <defs
     id="defs2" />
  <g
     inkscape:label="Layer 1"
     inkscape:groupmode="layer"
     id="layer1">
    <path
       id="path14665"
       style="color:#000000;fill:#000000;stroke-linecap:round;stroke-linejoin:round"
       d="M 12.029297,1.8144531 A 0.9449745,0.9449745 0 0 0 11.412109,2.046875 L 4.6816406,7.9179688 A 0.94488001,0.94488001 0 0 0 4.5898438,9.25 0.94488001,0.94488001 0 0 0 5.9238281,9.3417969 L 12.039062,4.0078125 18.083984,9.1855469 A 0.94488001,0.94488001 0 0 0 19.416016,9.0820312 0.94488001,0.94488001 0 0 0 19.3125,7.75 L 12.648438,2.0429688 A 0.9449745,0.9449745 0 0 0 12.029297,1.8144531 Z m 0,6.3242188 A 0.9449745,0.9449745 0 0 0 11.412109,8.3710938 L 4.6816406,14.242188 a 0.94488001,0.94488001 0 0 0 -0.091797,1.332031 0.94488001,0.94488001 0 0 0 1.3339843,0.0918 l 6.1152341,-5.333985 6.044922,5.177735 A 0.94488001,0.94488001 0 0 0 19.416016,15.40625 0.94488001,0.94488001 0 0 0 19.3125,14.074219 L 12.648438,8.3652344 A 0.9449745,0.9449745 0 0 0 12.029297,8.1386719 Z m 0,6.3242191 a 0.9449745,0.9449745 0 0 0 -0.617188,0.232421 l -6.7304684,5.869141 a 0.94488001,0.94488001 0 0 0 -0.091797,1.333985 0.94488001,0.94488001 0 0 0 1.3339843,0.0918 l 6.1152341,-5.333984 6.044922,5.175781 A 0.94488001,0.94488001 0 0 0 19.416016,21.730469 0.94488001,0.94488001 0 0 0 19.3125,20.396484 l -6.664062,-5.707031 a 0.9449745,0.9449745 0 0 0 -0.619141,-0.226562 z" />
  </g>
</svg>
