<?xml version="1.0" encoding="UTF-8" standalone="no"?>
<!-- Created with Inkscape (http://www.inkscape.org/) -->

<svg
   width="24"
   height="24"
   viewBox="0 0 24 24"
   version="1.1"
   id="svg5"
   inkscape:export-filename="CopyIcon.svg"
   inkscape:export-xdpi="96"
   inkscape:export-ydpi="96"
   sodipodi:docname="ReportIcon.svg"
   xmlns:inkscape="http://www.inkscape.org/namespaces/inkscape"
   xmlns:sodipodi="http://sodipodi.sourceforge.net/DTD/sodipodi-0.dtd"
   xmlns="http://www.w3.org/2000/svg"
   xmlns:svg="http://www.w3.org/2000/svg">
  <sodipodi:namedview
     id="namedview7"
     pagecolor="#505050"
     bordercolor="#eeeeee"
     borderopacity="1"
     inkscape:showpageshadow="0"
     inkscape:pageopacity="0"
     inkscape:pagecheckerboard="0"
     inkscape:deskcolor="#505050"
     inkscape:document-units="mm"
     showgrid="false" />
  <defs
     id="defs2" />
  <g
     inkscape:label="Layer 1"
     inkscape:groupmode="layer"
     id="layer1">
    <path
       id="path9753"
       style="color:#000000;fill:#000000;stroke-width:0.999997;stroke-linecap:round;stroke-linejoin:round;-inkscape-stroke:none"
       d="m 14.54924,3.3149264 -8.5084675,0.023107 c -0.5507775,0 -1.3878678,0.9132402 -1.3880934,1.4640174 L 4.647727,15.853981 c 0.0027,0.39652 1.5970202,0.397344 1.609264,0.0017 7.336e-4,-0.02371 -0.018155,-10.6871629 -0.018155,-10.6871629 0,-0.2177547 0.057883,-0.2739876 0.2756379,-0.2739876 9.3673661,0 5.3993401,-0.0033 8.0314651,-0.0033 0.395079,0 0.412837,-1.571718 0.0033,-1.5762534 z M 9.4161,6.1026667 c -0.981058,0 -1.7924722,0.8148342 -1.7924722,1.7941229 V 18.892601 c 0,0.979289 0.8131832,1.792473 1.7924722,1.792473 h 8.143701 c 0.97929,0 1.792472,-0.813184 1.792472,-1.792473 V 7.8967897 c 0,-0.9792887 -0.811413,-1.7941229 -1.792472,-1.7941229 z m 0,1.5960597 h 8.143701 c 0.120495,0 0.194763,0.075798 0.194763,0.1980632 V 18.892601 c 0,0.122263 -0.0725,0.196413 -0.194763,0.196413 H 9.4161 c -0.122263,0 -0.196412,-0.07415 -0.196412,-0.196413 V 7.8967897 c 0,-0.1222643 0.07592,-0.1980632 0.196412,-0.1980633 z" />
  </g>
</svg>
