<?xml version="1.0" encoding="UTF-8" standalone="no"?>
<!-- Created with Inkscape (http://www.inkscape.org/) -->

<svg
    width="24"
    height="24"
    viewBox="0 0 24 24"
    version="1.1"
    id="svg5"
    inkscape:export-filename="CreateAccountIcon.svg"
    inkscape:export-xdpi="96"
    inkscape:export-ydpi="96"
    sodipodi:docname="CreateAccountIcon.svg"
    xmlns:inkscape="http://www.inkscape.org/namespaces/inkscape"
    xmlns:sodipodi="http://sodipodi.sourceforge.net/DTD/sodipodi-0.dtd"
    xmlns="http://www.w3.org/2000/svg"
    xmlns:svg="http://www.w3.org/2000/svg">
    <sodipodi:namedview
        id="namedview7"
        pagecolor="#505050"
        bordercolor="#eeeeee"
        borderopacity="1"
        inkscape:showpageshadow="0"
        inkscape:pageopacity="0"
        inkscape:pagecheckerboard="0"
        inkscape:deskcolor="#505050"
        inkscape:document-units="mm"
        showgrid="false"
        showguides="true" />
    <defs
        id="defs2" />
    <g
        inkscape:label="Layer 1"
        inkscape:groupmode="layer"
        id="layer1">
        <path
            id="path16467"
            style="fill:#000000;fill-opacity:1;stroke:none;stroke-width:1.88976;stroke-linecap:round;stroke-linejoin:round;stroke-dasharray:none;stroke-opacity:1"
            d="m 9.5332038,4.9707035 a 3.5676173,3.5676173 0 0 0 -3.56836,3.568359 3.5676173,3.5676173 0 0 0 3.56836,3.5664065 3.5676173,3.5676173 0 0 0 3.5664052,-3.5664065 3.5676173,3.5676173 0 0 0 -3.5664052,-3.568359 z m 8.1347652,2.398437 a 0.49929811,0.49929811 0 0 0 -0.5,0.5 v 2.8085935 l -2.808594,0.0039 a 0.49929811,0.49929811 0 0 0 -0.498047,0.5 0.49929811,0.49929811 0 0 0 0.5,0.498047 l 2.806641,-0.0039 v 2.808594 a 0.49929811,0.49929811 0 0 0 0.5,0.498047 0.49929811,0.49929811 0 0 0 0.5,-0.498047 v -2.808594 l 2.808594,-0.0039 a 0.49929811,0.49929811 0 0 0 0.498046,-0.5 0.49929811,0.49929811 0 0 0 -0.5,-0.498047 l -2.80664,0.0039 V 7.8691405 a 0.49929811,0.49929811 0 0 0 -0.5,-0.5 z M 9.4277348,13.232422 c -4.586927,0 -6.902344,3.09375 -6.902344,3.09375 v 2.703125 l 14.0156252,-0.03711 -0.0078,-2.677735 c 0,0 -2.518541,-3.082031 -7.1054682,-3.082031 z" />
    </g>
</svg>