<?xml version="1.0" encoding="UTF-8" standalone="no"?>
<!-- Created with Inkscape (http://www.inkscape.org/) -->

<svg
   width="24"
   height="24"
   viewBox="0 0 24 24"
   version="1.1"
   id="svg5"
   inkscape:export-filename="ArticleIcon.svg"
   inkscape:export-xdpi="96"
   inkscape:export-ydpi="96"
   sodipodi:docname="TodayIcon.svg"
   inkscape:version="1.2 (dc2aedaf03, 2022-05-15)"
   xmlns:inkscape="http://www.inkscape.org/namespaces/inkscape"
   xmlns:sodipodi="http://sodipodi.sourceforge.net/DTD/sodipodi-0.dtd"
   xmlns="http://www.w3.org/2000/svg"
   xmlns:svg="http://www.w3.org/2000/svg">
  <sodipodi:namedview
     id="namedview7"
     pagecolor="#505050"
     bordercolor="#eeeeee"
     borderopacity="1"
     inkscape:showpageshadow="0"
     inkscape:pageopacity="0"
     inkscape:pagecheckerboard="0"
     inkscape:deskcolor="#505050"
     inkscape:document-units="mm"
     showgrid="false"
     showguides="true"
     inkscape:zoom="22.627417"
     inkscape:cx="13.545514"
     inkscape:cy="14.385204"
     inkscape:window-width="1920"
     inkscape:window-height="991"
     inkscape:window-x="-9"
     inkscape:window-y="-9"
     inkscape:window-maximized="1"
     inkscape:current-layer="layer1" />
  <defs
     id="defs2" />
  <g
     inkscape:label="Layer 1"
     inkscape:groupmode="layer"
     id="layer1">
    <path
       id="path3247"
       style="fill:#000000;fill-opacity:1;stroke-width:1.00157;stroke-linecap:round;stroke-linejoin:round"
       d="M 5.4335938 3.8515625 C 4.5579056 3.8515625 3.8515625 4.5579056 3.8515625 5.4335938 L 3.8515625 18.566406 C 3.8515625 19.442094 4.5579056 20.148438 5.4335938 20.148438 L 18.566406 20.148438 C 19.442094 20.148438 20.148438 19.442094 20.148438 18.566406 L 20.148438 5.4335938 C 20.148438 4.5579056 19.442094 3.8515625 18.566406 3.8515625 L 5.4335938 3.8515625 z M 7.1210938 5.1484375 L 16.878906 5.1484375 C 17.158853 5.1484375 17.384766 5.3743503 17.384766 5.6542969 L 17.384766 5.828125 C 17.384766 6.1080715 17.158853 6.3339844 16.878906 6.3339844 L 7.1210938 6.3339844 C 6.8411471 6.3339844 6.6152344 6.1080715 6.6152344 5.828125 L 6.6152344 5.6542969 C 6.6152344 5.3743503 6.8411471 5.1484375 7.1210938 5.1484375 z M 11.9375 9.0234375 L 13.076172 9.0234375 L 13.076172 16.105469 L 14.535156 16.105469 L 14.535156 17.142578 L 10.048828 17.142578 L 10.048828 16.105469 L 11.691406 16.105469 L 11.691406 11.376953 C 11.691406 11.190018 11.697768 10.998932 11.708984 10.800781 L 10.541016 11.775391 C 10.473719 11.827732 10.40714 11.861998 10.339844 11.876953 C 10.276286 11.888169 10.214116 11.888169 10.154297 11.876953 C 10.098216 11.865737 10.048771 11.846483 10.003906 11.820312 C 9.9590419 11.790403 9.9247759 11.760211 9.9023438 11.726562 L 9.4648438 11.125 L 11.9375 9.0234375 z " />
  </g>
</svg>
