<?xml version="1.0" encoding="UTF-8" standalone="no"?>
<!-- Created with Inkscape (http://www.inkscape.org/) -->

<svg
   width="24"
   height="24"
   viewBox="0 0 24 24"
   version="1.1"
   id="svg5"
   inkscape:export-filename="DonateIcon.svg"
   inkscape:export-xdpi="96"
   inkscape:export-ydpi="96"
   sodipodi:docname="DefaultSocialIcon.svg"
   inkscape:version="1.2 (dc2aedaf03, 2022-05-15)"
   xmlns:inkscape="http://www.inkscape.org/namespaces/inkscape"
   xmlns:sodipodi="http://sodipodi.sourceforge.net/DTD/sodipodi-0.dtd"
   xmlns="http://www.w3.org/2000/svg"
   xmlns:svg="http://www.w3.org/2000/svg">
  <sodipodi:namedview
     id="namedview7"
     pagecolor="#505050"
     bordercolor="#eeeeee"
     borderopacity="1"
     inkscape:showpageshadow="0"
     inkscape:pageopacity="0"
     inkscape:pagecheckerboard="0"
     inkscape:deskcolor="#505050"
     inkscape:document-units="mm"
     showgrid="false"
     inkscape:zoom="24.424647"
     inkscape:cx="14.55497"
     inkscape:cy="20.143587"
     inkscape:window-width="1920"
     inkscape:window-height="1009"
     inkscape:window-x="-8"
     inkscape:window-y="-8"
     inkscape:window-maximized="1"
     inkscape:current-layer="layer1" />
  <defs
     id="defs2" />
  <g
     inkscape:label="Layer 1"
     inkscape:groupmode="layer"
     id="layer1">
    <path
       id="path2494"
       style="fill:#000000;fill-opacity:0.271341;stroke:none;stroke-width:0;stroke-linecap:round;stroke-linejoin:round;stroke-dasharray:none;stroke-opacity:0.398329"
       d="M 18.286295,0.96602594 C 15.748308,0.99203864 13.575431,3.448482 13.903913,5.9755007 14.087686,6.4960323 13.321194,6.5333754 13.01546,6.8057031 L 9.0402012,8.9816509 C 7.49449,7.0003559 4.2871784,6.7786107 2.4709559,8.5062365 0.51154951,10.153032 0.45745656,13.454471 2.3307463,15.186276 c 1.6038814,1.628916 4.4580995,1.745201 6.164533,0.207484 1.7967377,0.96012 3.5841987,1.962954 5.3867217,2.896438 -0.146654,2.413523 1.904981,4.654923 4.317273,4.731605 2.566991,0.227415 4.956369,-2.096065 4.833519,-4.663379 0.0048,-2.409619 -2.165778,-4.54283 -4.576573,-4.482288 -1.690972,-0.02472 -3.335532,1.002841 -4.087891,2.511719 L 9.64567,13.89962 c 0.700466,-1.002075 0.801227,-2.535029 0.431308,-3.390076 l 4.580411,-2.4146119 c 1.373831,2.1790649 4.673784,2.6964059 6.64267,1.0317833 C 23.197349,7.6881366 23.607,4.7298761 22.147909,2.8421166 21.27933,1.6178339 19.780812,0.90854114 18.286295,0.96602594 Z M 18.45231,2.2765727 C 19.797323,2.2023369 20.663496,4.0133161 19.733671,5.00292 18.981868,5.9917845 17.248045,5.6971125 16.889529,4.4998224 16.466257,3.465973 17.33971,2.2422228 18.45231,2.2765727 Z m -0.03125,3.9238282 c 1.043624,0.00891 3.046854,0.5268811 3.012191,1.5840544 -1.227796,1.7229383 -3.94632,1.8577121 -5.48466,0.5142803 -1.202504,-1.0974131 0.843233,-1.9184143 1.821419,-2.0507211 0.215482,-0.031595 0.433258,-0.047644 0.65105,-0.047614 z M 5.5245762,8.6457133 C 6.8695894,8.5714773 7.7357615,10.382456 6.8059362,11.37206 6.0541339,12.360926 4.3203193,12.066251 3.9618013,10.868963 3.5385191,9.8351141 4.4119769,8.6113631 5.5245762,8.6457133 Z m -0.03125,3.9238277 c 1.0436231,0.0089 3.0468304,0.526887 3.0121905,1.584033 -1.2282695,1.722579 -3.9600517,1.753349 -5.4846595,0.513684 -1.3145774,-1.157457 0.8436594,-1.917907 1.8214189,-2.050103 0.2154817,-0.0316 0.4332575,-0.04765 0.6510501,-0.04761 z M 18.45231,15.186729 c 1.344937,-0.07352 2.211197,1.738259 1.281361,2.727847 -0.752303,0.987216 -2.484828,0.692514 -2.844135,-0.503439 -0.423172,-1.033533 0.450906,-2.257801 1.562774,-2.224408 z m -0.03125,3.925781 c 1.043623,0.0089 3.046831,0.526886 3.012191,1.584033 -1.22827,1.722578 -3.919111,1.876175 -5.546073,0.564862 -1.365755,-1.096045 0.905073,-1.969085 1.882832,-2.101281 0.215482,-0.0316 0.433258,-0.04764 0.65105,-0.04761 z"
       sodipodi:nodetypes="cccccccccccccccccccccccccccccccccccccccccscccss" />
  </g>
</svg>
