<?xml version="1.0" encoding="UTF-8" standalone="no"?>
<!-- Created with Inkscape (http://www.inkscape.org/) -->

<svg
   width="24"
   height="24"
   viewBox="0 0 24 24"
   version="1.1"
   id="svg5"
   inkscape:export-filename="BuildIcon.svg"
   inkscape:export-xdpi="96"
   inkscape:export-ydpi="96"
   sodipodi:docname="SearchIcon.svg"
   xmlns:inkscape="http://www.inkscape.org/namespaces/inkscape"
   xmlns:sodipodi="http://sodipodi.sourceforge.net/DTD/sodipodi-0.dtd"
   xmlns="http://www.w3.org/2000/svg"
   xmlns:svg="http://www.w3.org/2000/svg">
  <sodipodi:namedview
     id="namedview7"
     pagecolor="#505050"
     bordercolor="#eeeeee"
     borderopacity="1"
     inkscape:showpageshadow="0"
     inkscape:pageopacity="0"
     inkscape:pagecheckerboard="0"
     inkscape:deskcolor="#505050"
     inkscape:document-units="mm"
     showgrid="false" />
  <defs
     id="defs2" />
  <g
     inkscape:label="Layer 1"
     inkscape:groupmode="layer"
     id="layer1">
    <path
       id="rect1343"
       style="stroke-width:3.77952;stroke-linecap:round;stroke-linejoin:round"
       d="m 1.9697765,5.0045299 v 6.0073621 h 4.865964 c -0.223533,-0.969753 0.03884,-2.0295583 0.793386,-2.7841016 0.581901,-0.5819005 1.347603,-0.8783177 2.110863,-0.8783177 0.4525735,0 0.9042475,0.1068664 1.3195475,0.3127971 V 5.0045299 Z m 10.9706855,0 v 2.6598114 c 1.1152,-0.5496889 2.503215,-0.3637455 3.430412,0.5634491 0.754543,0.7545431 1.016917,1.8143486 0.793386,2.7841016 h 4.865963 V 5.0045299 Z m -2.498234,3.6582765 c -0.5262485,0 -1.0550585,0.2036719 -1.4562665,0.6048792 -0.802687,0.8026884 -0.802687,2.1077784 0,2.9104644 l 0.0021,0.0022 c 0.372141,0.366441 2.8131005,2.813103 2.8131005,2.813103 0.109382,0.110033 0.287948,0.109627 0.397729,0 l 2.815175,-2.815175 c 0.802687,-0.802686 0.802687,-2.107777 0,-2.910464 -0.802685,-0.8026865 -2.107778,-0.8026865 -2.910463,0 L 12.000028,9.3713105 11.896453,9.2677353 C 11.495226,8.866458 10.96848,8.6628065 10.442228,8.6628064 Z M 1.9697765,12.892818 V 18.99547 H 11.059537 V 15.875785 C 10.29871,15.113399 8.8481485,13.662675 8.0744995,12.892818 Z m 13.9557235,0 -2.985038,2.98711 v 3.115542 h 9.089761 v -6.102652 z" />
  </g>
</svg>
