<?xml version="1.0" encoding="UTF-8" standalone="no"?>
<!-- Created with Inkscape (http://www.inkscape.org/) -->

<svg
   width="24"
   height="24"
   viewBox="0 0 24 24"
   version="1.1"
   id="svg5"
   inkscape:export-filename="ThoughtIcon.svg"
   inkscape:export-xdpi="96"
   inkscape:export-ydpi="96"
   sodipodi:docname="IdeaIcon.svg"
   xmlns:inkscape="http://www.inkscape.org/namespaces/inkscape"
   xmlns:sodipodi="http://sodipodi.sourceforge.net/DTD/sodipodi-0.dtd"
   xmlns="http://www.w3.org/2000/svg"
   xmlns:svg="http://www.w3.org/2000/svg">
  <sodipodi:namedview
     id="namedview7"
     pagecolor="#505050"
     bordercolor="#eeeeee"
     borderopacity="1"
     inkscape:showpageshadow="0"
     inkscape:pageopacity="0"
     inkscape:pagecheckerboard="0"
     inkscape:deskcolor="#505050"
     inkscape:document-units="mm"
     showgrid="false"
     showguides="true" />
  <defs
     id="defs2" />
  <g
     inkscape:label="Layer 1"
     inkscape:groupmode="layer"
     id="layer1">
    <path
       id="path12339"
       style="color:#000000;fill:#000000;stroke-width:0;stroke-linecap:round;stroke-linejoin:round"
       d="m 15.007812,2.09375 -1.130859,3.0253906 c -0.110292,0.2934102 0.03845,0.620638 0.332031,0.7304688 0.293962,0.1100965 0.62143,-0.039628 0.730469,-0.3339844 L 16.070312,2.4921875 C 16.180604,2.1987773 16.031862,1.8715496 15.738281,1.7617188 15.381309,1.6184835 15.124215,1.8122046 15.007812,2.09375 Z M 8.328125,1.8007808 C 8.0289303,1.8920991 7.8172728,2.2202185 7.9082031,2.5195312 L 8.8476562,5.609375 C 8.93895,5.909573 9.2567185,6.0785243 9.5566406,5.9863281 9.8558353,5.8950103 10.024524,5.5786096 9.9335938,5.2792969 L 8.9921875,2.1894531 C 8.879519,1.8221725 8.4689212,1.7643807 8.328125,1.8007808 Z M 2.65625,5.5859375 C 2.4600373,5.8297509 2.4985037,6.1864389 2.7421875,6.3828125 L 5.2558594,8.4101562 C 5.4991585,8.6068245 5.85578,8.5692395 6.0527344,8.3261719 6.2489471,8.0823585 6.2104807,7.7256705 5.9667969,7.5292969 L 3.453125,5.5019531 C 3.199089,5.3306984 2.8846678,5.3409265 2.65625,5.5859375 Z M 20.619141,5.5625 18.066406,7.5410156 C 17.818987,7.7325606 17.773531,8.0883386 17.964844,8.3359375 18.15652,8.5846088 18.513797,8.630144 18.761719,8.4375 L 21.3125,6.4589844 C 21.559919,6.2674394 21.605375,5.9116614 21.414062,5.6640625 21.141843,5.3133821 20.878368,5.3787022 20.619141,5.5625 Z m -8.722657,1.7988281 c -0.827435,0.00775 -1.646821,0.1683323 -2.2617184,0.4824219 -1.2422899,0.7253397 -2.0499315,2.162983 -2.3652344,3.642578 -0.2591427,1.448422 0.1735435,2.743658 0.9121094,4.003906 0.6826724,0.942283 1.2579438,2.073475 1.6347656,3.240235 l 4.3925778,-0.0059 c 0.395392,-1.263708 0.941027,-2.113997 1.597657,-3.189453 0.756838,-1.569944 1.193421,-2.514216 0.914062,-4.298828 C 16.43885,9.9319533 15.385692,8.3531798 14.210938,7.8027344 13.560094,7.4988863 12.723919,7.3535763 11.896484,7.3613281 Z M 1.3496094,10.511719 c -0.3118337,-0.03268 -0.59097922,0.193962 -0.6230469,0.505859 -0.0315698,0.310425 0.1936395,0.588008 0.5039063,0.621094 l 3.2128906,0.335937 C 4.755193,12.007289 5.0343385,11.780647 5.0664062,11.46875 5.099086,11.156916 4.8724443,10.877771 4.5605469,10.845703 Z m 21.3183596,0.390625 -3.21875,0.257812 c -0.311551,0.02518 -0.543948,0.297764 -0.519531,0.609375 0.02518,0.31155 0.297763,0.543947 0.609374,0.519531 l 3.21875,-0.255859 c 0.312334,-0.02416 0.545872,-0.297059 0.521485,-0.609375 -0.02414,-0.313159 -0.298279,-0.54701 -0.611328,-0.521484 z m -12.660157,8.917968 c 0.05478,0.714489 0.07261,1.60485 0.701172,2.015626 0.812483,0.110382 1.644724,0.100342 2.458985,0.01953 0.649718,-0.189689 0.747448,-1.073515 0.800781,-1.708985 0.0087,-0.108758 0.01651,-0.217263 0.02344,-0.326172 z"
       sodipodi:nodetypes="ccccccccccccccccccccccccccccccccccccsccccccccccccccccccccc" />
  </g>
</svg>
