<?xml version="1.0" encoding="UTF-8" standalone="no"?>
<!-- Created with Inkscape (http://www.inkscape.org/) -->

<svg
    width="24"
    height="24"
    viewBox="0 0 24 24"
    version="1.1"
    id="svg5"
    inkscape:export-filename="CopyIcon.svg"
    inkscape:export-xdpi="96"
    inkscape:export-ydpi="96"
    sodipodi:docname="CopyIcon.svg"
    xmlns:inkscape="http://www.inkscape.org/namespaces/inkscape"
    xmlns:sodipodi="http://sodipodi.sourceforge.net/DTD/sodipodi-0.dtd"
    xmlns="http://www.w3.org/2000/svg"
    xmlns:svg="http://www.w3.org/2000/svg">
    <sodipodi:namedview
        id="namedview7"
        pagecolor="#505050"
        bordercolor="#eeeeee"
        borderopacity="1"
        inkscape:showpageshadow="0"
        inkscape:pageopacity="0"
        inkscape:pagecheckerboard="0"
        inkscape:deskcolor="#505050"
        inkscape:document-units="mm"
        showgrid="false" />
    <defs
        id="defs2" />
    <g
        inkscape:label="Layer 1"
        inkscape:groupmode="layer"
        id="layer1">
        <path
            id="path20108"
            style="color:#000000;fill:#000000;stroke-width:0.999999;stroke-linecap:round;stroke-linejoin:round;-inkscape-stroke:none"
            d="M 10.274133,3.4152087 A 0.89778169,0.89778169 0 0 0 9.3759412,4.3134013 0.89778169,0.89778169 0 0 0 10.274133,5.211594 h 7.736705 c 0.380613,0 0.805405,0.4074532 0.805405,0.9928368 V 17.797424 c 0,0.584411 -0.42635,0.990982 -0.805405,0.990982 h -7.736705 a 0.89778169,0.89778169 0 0 0 -0.8981918,0.898193 0.89778169,0.89778169 0 0 0 0.8981918,0.898192 h 7.736705 c 1.481896,0 2.60179,-1.307058 2.60179,-2.787367 V 6.2044308 c 0,-1.4793335 -1.118091,-2.7892222 -2.60179,-2.7892221 z m -0.220836,3.6391647 a 1.0144939,1.0144939 0 0 0 -0.6049808,0.2895001 1.0144939,1.0144939 0 0 0 -0.0037,1.4345101 L 11.678952,11.023865 H 4.3542279 a 0.96840189,0.96840189 0 0 0 -0.9668561,0.966856 0.96840189,0.96840189 0 0 0 0.9668561,0.968712 h 7.3414251 l -2.2510478,2.262183 a 1.0144939,1.0144939 0 0 0 0.0037,1.434511 1.0144939,1.0144939 0 0 0 1.4345098,-0.0019 l 3.898972,-3.91753 a 1.0144939,1.0144939 0 0 0 0.183721,-0.254241 1.0144939,1.0144939 0 0 0 0.0093,-0.01856 0.96840189,0.96840189 0 0 0 0.126192,-0.473221 0.96840189,0.96840189 0 0 0 -0.165164,-0.528894 1.0144939,1.0144939 0 0 0 -0.0056,-0.0093 1.0144939,1.0144939 0 0 0 -0.148461,-0.189289 L 10.882826,7.3457293 A 1.0144939,1.0144939 0 0 0 10.053297,7.0543734 Z" />
        <path
            style="color:#000000;fill:#000000;stroke-width:2.03841;stroke-linecap:round;-inkscape-stroke:none"
            d="M 14.377044,11.990947 H 4.0866074"
            id="path20998" />
    </g>
</svg>