<?xml version="1.0" encoding="UTF-8" standalone="no"?>
<svg
   width="24"
   height="24"
   version="1.1"
   id="svg4"
   sodipodi:docname="MoveUpDownIcon.svg"
   xmlns:inkscape="http://www.inkscape.org/namespaces/inkscape"
   xmlns:sodipodi="http://sodipodi.sourceforge.net/DTD/sodipodi-0.dtd"
   xmlns="http://www.w3.org/2000/svg"
   xmlns:svg="http://www.w3.org/2000/svg">
  <defs
     id="defs8" />
  <sodipodi:namedview
     id="namedview6"
     pagecolor="#505050"
     bordercolor="#eeeeee"
     borderopacity="1"
     inkscape:showpageshadow="0"
     inkscape:pageopacity="0"
     inkscape:pagecheckerboard="0"
     inkscape:deskcolor="#505050"
     showgrid="false" />
  <path
     id="path2"
     style="fill:#000000;fill-opacity:0.25;stroke:#000000;stroke-width:0;stroke-linecap:round;stroke-dasharray:none"
     d="m 12.232422,1.6504167 c -0.765225,0.028223 -1.423788,0.955118 -0.658203,1.7207031 l 1.580078,1.5800782 c -4.2572564,0.8931656 -6.0877692,4.1075026 -6.1699221,7.009766 0,3.599114 2.7073364,6.558467 6.1992191,6.955078 -0.423985,0.484897 -1.061394,1.19616 -1.578125,1.712891 -1.02078,1.02078 0.489852,2.328159 1.410156,1.410156 l 4,-3.990234 -4,-4.009766 c -0.719021,-0.720819 -2.267686,0.54687 -1.410156,1.410156 l 1.408203,1.416016 c -2.296007,-0.452214 -4.0292971,-2.47633 -4.0292971,-4.904297 0,-2.4499984 1.7600801,-4.4701571 4.0800781,-4.9101566 l -1.490234,1.5000002 c -0.85753,0.863286 0.691135,2.1309754 1.410156,1.410156 l 4,-4.0097656 -4,-3.9902344 C 12.754299,1.7314629 12.487497,1.6410092 12.232422,1.6504167 Z"
     sodipodi:nodetypes="sscccccccccscccccs" />
</svg>
