<?xml version="1.0" encoding="UTF-8" standalone="no"?>
<svg
   width="24"
   height="24"
   version="1.1"
   id="svg944"
   sodipodi:docname="MoveDownIcon.svg"
   xmlns:inkscape="http://www.inkscape.org/namespaces/inkscape"
   xmlns:sodipodi="http://sodipodi.sourceforge.net/DTD/sodipodi-0.dtd"
   xmlns="http://www.w3.org/2000/svg"
   xmlns:svg="http://www.w3.org/2000/svg">
  <defs
     id="defs948" />
  <sodipodi:namedview
     id="namedview946"
     pagecolor="#505050"
     bordercolor="#eeeeee"
     borderopacity="1"
     inkscape:showpageshadow="0"
     inkscape:pageopacity="0"
     inkscape:pagecheckerboard="0"
     inkscape:deskcolor="#505050"
     showgrid="false" />
  <path
     id="path942"
     style="fill:#000000;stroke:#000000;stroke-width:0;stroke-linecap:round;stroke-dasharray:none"
     d="M 13.654297,1.4960938 C 10.752037,1.5782467 7.5376964,3.4087637 6.6445312,7.6660156 L 5.0644531,6.0859375 C 4.0436741,5.0651586 2.7362948,6.5757906 3.6542969,7.4960938 L 7.6445312,11.496094 11.654297,7.4960938 C 12.375115,6.7770733 11.109379,5.2284083 10.246094,6.0859375 L 8.7460938,7.5761719 C 9.1860923,5.2561765 11.204301,3.4960938 13.654297,3.4960938 c 2.759994,0 5,2.2400054 5,5 v 3.0000002 h 2 V 8.4960938 c 0,-3.8699924 -3.130008,-7 -7,-7 z M 3.3542224,14.532857 v 7 H 11.53391 v -7 z m 9.7961686,-0.02895 v 7 h 8.507812 v -7 z m 1.890625,2 h 4.726562 v 3 h -4.726562 z"
     sodipodi:nodetypes="ccscccccssccscccccccccccccccc" />
</svg>
