<?xml version="1.0" encoding="UTF-8" standalone="no"?>
<svg
    width="24"
    height="24"
    version="1.1"
    id="svg944"
    sodipodi:docname="MoveDownIcon.svg"
    inkscape:export-filename="MoveLeftIcon.svg"
    inkscape:export-xdpi="96"
    inkscape:export-ydpi="96"
    xmlns:inkscape="http://www.inkscape.org/namespaces/inkscape"
    xmlns:sodipodi="http://sodipodi.sourceforge.net/DTD/sodipodi-0.dtd"
    xmlns="http://www.w3.org/2000/svg"
    xmlns:svg="http://www.w3.org/2000/svg">
    <defs
        id="defs948" />
    <sodipodi:namedview
        id="namedview946"
        pagecolor="#505050"
        bordercolor="#eeeeee"
        borderopacity="1"
        inkscape:showpageshadow="0"
        inkscape:pageopacity="0"
        inkscape:pagecheckerboard="0"
        inkscape:deskcolor="#505050"
        showgrid="false" />
    <path
        id="path2969"
        style="fill:#000000;stroke:#000000;stroke-width:0;stroke-linecap:round;stroke-dasharray:none"
        d="m 10.34375,1.4960938 c -3.8699881,0 -7,3.1300114 -7,7 v 3.0000002 h 2 V 8.4960938 c 0,-2.7599919 2.2400088,-5 5,-5 2.449994,0 4.468206,1.760085 4.908203,4.0800781 l -1.5,-1.4902344 C 12.888669,5.2284092 11.622933,6.777074 12.34375,7.4960938 L 16.353516,11.496094 20.34375,7.4960938 C 21.261751,6.5757915 19.954372,5.0651596 18.933594,6.0859375 L 17.353516,7.6660156 C 16.460352,3.408768 13.246007,1.5782467 10.34375,1.4960938 Z m 2.806641,13.0078122 v 7 h 8.507812 v -7 z m -9.7968754,0.0293 v 7 h 8.1796874 v -7 z m 11.6875004,1.970703 h 4.726562 v 3 h -4.726562 z" />
</svg>