<?xml version="1.0" encoding="UTF-8" standalone="no"?>
<!-- Created with Inkscape (http://www.inkscape.org/) -->

<svg
    width="24"
    height="24"
    viewBox="0 0 24 24"
    version="1.1"
    id="svg5"
    inkscape:export-filename="AddIncomingLink.svg"
    inkscape:export-xdpi="96"
    inkscape:export-ydpi="96"
    sodipodi:docname="MoveNode.svg"
    xmlns:inkscape="http://www.inkscape.org/namespaces/inkscape"
    xmlns:sodipodi="http://sodipodi.sourceforge.net/DTD/sodipodi-0.dtd"
    xmlns="http://www.w3.org/2000/svg"
    xmlns:svg="http://www.w3.org/2000/svg">
    <sodipodi:namedview
        id="namedview7"
        pagecolor="#505050"
        bordercolor="#eeeeee"
        borderopacity="1"
        inkscape:showpageshadow="0"
        inkscape:pageopacity="0"
        inkscape:pagecheckerboard="0"
        inkscape:deskcolor="#505050"
        inkscape:document-units="mm"
        showgrid="false" />
    <defs
        id="defs2" />
    <g
        inkscape:label="Layer 1"
        inkscape:groupmode="layer"
        id="layer1">
        <g
            id="path3866-3-6">
            <path
                style="color:#000000;fill:#646464;fill-opacity:0;stroke-width:1.37953;stroke-linecap:round;-inkscape-stroke:none"
                d="m 14.182513,19.330252 -2.184878,1.631155 m -2.1801485,-1.631155 2.1848775,1.631155 m -0.03926,-0.07328 V 16.329071 M 4.6735304,14.182513 3.0423764,11.997635 m 1.631154,-2.1801483 -1.631154,2.1848773 m 0.07328,-0.03926 h 4.559055 m 11.7044376,2.21941 1.631154,-2.184878 m -1.631154,-2.1801496 1.631154,2.1848786 m -0.07328,-0.03926 H 16.377968 M 14.180258,4.6704321 11.99538,3.0392773 M 9.8152313,4.6704321 12.000109,3.0392773 m -0.03926,0.073283 v 4.5590526 m -4.2810666,0.00817 H 16.320218 V 16.320218 H 7.6797824 Z"
                id="path44207" />
            <path
                style="color:#000000;fill:#000000;stroke-linecap:round;-inkscape-stroke:none"
                d="M 11.559366,2.5000036 9.3738193,4.130863 c -0.8157702,0.6590941 0.194573,1.5853285 0.8261717,1.1054687 l 1.042968,-0.7792968 v 2.546875 H 6.9617099 V 11.287114 H 4.4187411 L 5.198038,10.244145 C 5.7216198,9.451914 4.6650508,8.7409246 4.0925692,9.4179724 L 2.4617099,11.60352 c -0.1827891,0.306661 -0.1712866,0.571213 -4.4e-6,0.820307 l 1.6308593,2.185547 C 4.6284707,15.233451 5.7151612,14.3863 5.1980336,13.783202 l -0.83398,-1.117182 h 2.5976563 v 4.357422 h 4.2832031 v 2.546875 L 10.201944,18.79102 C 9.4526638,18.25685 8.6582938,19.316357 9.3757724,19.896488 l 2.1855466,1.63086 c 0.306652,0.182748 0.599527,0.171329 0.820307,0 l 2.185547,-1.63086 c 0.729593,-0.640724 -0.224855,-1.557673 -0.826172,-1.105468 l -1.117187,0.833984 v -2.601562 h 4.357422 V 12.66602 h 2.65039 l -0.833984,1.117187 c -0.53417,0.671942 0.668968,1.422117 1.105469,0.826172 l 1.630864,-2.185547 c 0.210532,-0.270109 0.152889,-0.590199 -1e-5,-0.820312 L 19.903116,9.4179724 c -0.552336,-0.6964476 -1.65711,0.070175 -1.105469,0.8261726 l 0.779297,1.042969 H 16.981241 V 7.0039099 H 12.621866 V 4.4023474 l 1.117187,0.8339843 C 14.493815,5.7857608 15.304644,4.6323998 14.565225,4.130863 L 12.379678,2.5000036 c -0.250267,-0.2201829 -0.577581,-0.2068181 -0.820312,0 z M 8.3406161,8.3828161 H 15.602334 V 15.644535 H 8.3406161 Z"
                id="path44209"
                sodipodi:nodetypes="cccccccccccccccccccccccccccccccccccccccccccccccccc" />
        </g>
    </g>
</svg>