<?xml version="1.0" encoding="UTF-8" standalone="no"?>
<!-- Created with Inkscape (http://www.inkscape.org/) -->

<svg
   width="24"
   height="24"
   viewBox="0 0 24 24"
   version="1.1"
   id="svg5"
   inkscape:export-filename="NotificationsOnIcon.svg"
   inkscape:export-xdpi="96"
   inkscape:export-ydpi="96"
   sodipodi:docname="BoldIcon.svg"
   xmlns:inkscape="http://www.inkscape.org/namespaces/inkscape"
   xmlns:sodipodi="http://sodipodi.sourceforge.net/DTD/sodipodi-0.dtd"
   xmlns="http://www.w3.org/2000/svg"
   xmlns:svg="http://www.w3.org/2000/svg">
  <sodipodi:namedview
     id="namedview7"
     pagecolor="#505050"
     bordercolor="#eeeeee"
     borderopacity="1"
     inkscape:showpageshadow="0"
     inkscape:pageopacity="0"
     inkscape:pagecheckerboard="0"
     inkscape:deskcolor="#505050"
     inkscape:document-units="mm"
     showgrid="false"
     showguides="true" />
  <defs
     id="defs2" />
  <g
     inkscape:label="Layer 1"
     inkscape:groupmode="layer"
     id="layer1">
    <path
       id="path30214"
       style="color:#000000;fill:#000000;fill-opacity:0.971354;stroke:none;stroke-linecap:round;stroke-linejoin:round;-inkscape-stroke:none"
       d="M 12.097656,2.4726562 C 10.93464,2.4757862 9.9747908,3.3820862 9.9042969,4.5429688 7.3709064,5.2102696 5.5390625,7.2313722 5.5390625,9.6347656 v 6.2441404 c 0.0264,0.335326 -0.4664891,0.714414 -0.6699219,0.96875 -0.4123456,0.515524 -0.560279,1.308975 -0.070312,1.320313 2.8452642,0.06586 11.3377774,0.09397 14.0449214,0.05078 0.724151,-0.01156 0.871791,-0.732911 0.371094,-1.412109 -0.188103,-0.25516 -0.704407,-0.58543 -0.664063,-0.927734 V 9.6347656 c 0,-2.3672434 -1.777696,-4.3614138 -4.251953,-5.0585937 C 14.244873,3.3997952 13.27527,2.4730898 12.097656,2.4726562 Z m 0,0.9453126 c 0.681476,0.00126 1.224624,0.5201441 1.25586,1.2011718 a 0.9449745,0.9449745 0 0 0 0.6875,0.8652344 c 2.135157,0.6016309 3.564453,2.2562668 3.564453,4.1503906 v 6.2441404 l 0.0059,-0.109375 c -0.07917,0.671754 0.291899,1.036641 0.496094,1.253907 0.148663,0.15818 0.203625,0.20639 0.251953,0.25 -2.732536,0.03391 -9.3708103,0.0067 -12.5566406,-0.04688 0.073618,-0.07632 0.101364,-0.09916 0.2011718,-0.214843 0.1977435,-0.22919 0.5260702,-0.553341 0.4746094,-1.207031 l 0.00391,0.07422 V 9.6347656 c 0,-1.9231931 1.4746262,-3.6015462 3.6621094,-4.1777344 a 0.9449745,0.9449745 0 0 0 0.701172,-0.8574218 c 0.04079,-0.6716492 0.579335,-1.1788358 1.251953,-1.1816406 z M 9.3652344,19.115234 a 2.6530052,2.6530052 0 0 0 2.6328126,2.41211 2.6530052,2.6530052 0 0 0 2.636719,-2.41211 z M 10.8125,20.060547 h 2.375 c -0.308394,0.31279 -0.713661,0.520029 -1.189453,0.521484 -0.474423,-0.0021 -0.877726,-0.209817 -1.185547,-0.521484 z" />
  </g>
</svg>
