<?xml version="1.0" encoding="UTF-8" standalone="no"?>
<!-- Created with Inkscape (http://www.inkscape.org/) -->

<svg
   width="24"
   height="24"
   viewBox="0 0 24 24"
   version="1.1"
   id="svg5"
   inkscape:export-filename="StarOutlineIcon.svg"
   inkscape:export-xdpi="96"
   inkscape:export-ydpi="96"
   sodipodi:docname="PremiumIcon.svg"
   inkscape:version="1.2 (dc2aedaf03, 2022-05-15)"
   xmlns:inkscape="http://www.inkscape.org/namespaces/inkscape"
   xmlns:sodipodi="http://sodipodi.sourceforge.net/DTD/sodipodi-0.dtd"
   xmlns="http://www.w3.org/2000/svg"
   xmlns:svg="http://www.w3.org/2000/svg">
  <sodipodi:namedview
     id="namedview7"
     pagecolor="#505050"
     bordercolor="#eeeeee"
     borderopacity="1"
     inkscape:showpageshadow="0"
     inkscape:pageopacity="0"
     inkscape:pagecheckerboard="0"
     inkscape:deskcolor="#505050"
     inkscape:document-units="mm"
     showgrid="false"
     showguides="true"
     inkscape:zoom="16"
     inkscape:cx="10.65625"
     inkscape:cy="15.09375"
     inkscape:window-width="1920"
     inkscape:window-height="991"
     inkscape:window-x="1121"
     inkscape:window-y="1345"
     inkscape:window-maximized="1"
     inkscape:current-layer="layer1" />
  <defs
     id="defs2" />
  <g
     inkscape:label="Layer 1"
     inkscape:groupmode="layer"
     id="layer1">
    <path
       id="path2948"
       style="color:#000000;fill:#000000;stroke-linecap:round;stroke-linejoin:round;-inkscape-stroke:none"
       d="M 14.026841,0.70452196 C 13.252815,0.73921131 12.550537,1.3161849 11.802232,1.4994438 10.910924,1.5376638 10.231942,0.73456685 9.339341,0.72600633 8.3367335,0.6408608 7.9185158,1.6700957 7.6655128,2.454522 7.5296069,3.1800619 7.0566174,3.6889924 6.3295754,3.8275688 5.6144728,4.0827543 4.6533127,4.4381425 4.5912941,5.3236626 4.5337514,6.2629337 5.3024918,6.9962006 5.3998878,7.8939751 5.2615372,8.8338767 4.395047,9.6383504 4.6713722,10.643975 c 0.2290882,0.774532 1.043272,0.985062 1.7460938,1.240234 l -3.6875,8.484375 a 0.56698669,0.56698669 0 0 0 0.7011718,0.763672 L 6.3178566,20.1596 7.5795754,22.962334 a 0.56698669,0.56698669 0 0 0 1.0371093,-0.0059 l 3.3847663,-7.716756 3.382812,7.716797 a 0.56698669,0.56698669 0 0 0 1.035157,0.0059 l 1.261718,-2.802734 2.886719,0.972656 a 0.56698669,0.56698669 0 0 0 0.701172,-0.765625 l -3.8125,-8.693359 C 18.118052,11.437768 18.89843,10.957625 18.827623,10.15374 18.790815,9.2819648 18.107823,8.592563 18.017076,7.7435844 18.155951,6.8038187 19.022596,6.0010828 18.745591,4.9955376 18.470161,4.0745874 17.365753,3.9515679 16.610826,3.5990532 15.889041,3.4595692 15.826196,2.6491666 15.571763,2.0912407 15.373478,1.5791293 15.100431,1.0208459 14.57567,0.77874071 14.387987,0.71763364 14.205463,0.69651673 14.026841,0.70452196 Z m 0.01172,1.19140624 c 0.114744,0.00336 0.215266,0.036395 0.296875,0.1113281 0.613746,0.8106799 0.360929,1.9070349 1.339844,2.4394531 0.541569,0.4706024 1.957297,0.3194047 1.935547,1.140625 -0.264234,0.9104049 -1.062149,1.7837428 -0.677735,2.7832032 0.07807,0.6630498 1.22611,1.6334314 0.44336,2.0917964 -0.818669,0.409554 -1.94444,0.500393 -2.363281,1.44336 -0.413855,0.523641 -0.286197,2.017793 -1.164063,1.789062 -0.868921,-0.288139 -1.728377,-1.021703 -2.691406,-0.65039 -0.661797,0.07822 -1.6161452,1.212307 -2.0859382,0.455078 C 8.663438,12.706908 8.593044,11.629716 7.7123878,11.175225 7.1815373,10.70691 5.6194899,10.870065 5.8334816,9.9603812 6.1216985,9.091413 6.8542972,8.2321608 6.4838722,7.2689751 6.4073704,6.606881 5.2711118,5.6516135 6.0287941,5.1830376 6.8218206,4.7757768 7.8989356,4.7043569 8.3530128,3.8236626 8.8214298,3.2929721 8.6595819,1.7311663 9.5678566,1.9447563 10.436881,2.2331857 11.295944,2.9653113 12.259263,2.595147 12.787536,2.429941 13.541338,1.8813777 14.03856,1.8959282 Z m 2.365234,10.1992188 3.310547,7.552734 -2.158203,-0.728515 a 0.56698669,0.56698669 0 0 0 -0.697265,0.304687 l -0.949219,2.109375 -2.972656,-6.777344 c 0.508076,0.241661 1.018158,0.460412 1.595703,0.300782 0.922039,-0.274937 1.045317,-1.380577 1.396484,-2.136719 0.05854,-0.308051 0.243108,-0.491061 0.474609,-0.625 z m -8.9999999,0.365234 c 0.2036112,0.318095 0.2889537,0.749198 0.4433594,1.087891 0.2318403,0.666505 0.7167978,1.462717 1.5292969,1.390625 0.6563766,-0.02834 1.2076526,-0.420172 1.8027346,-0.652344 L 8.0912941,21.331475 7.1420754,19.224053 A 0.56698669,0.56698669 0 0 0 6.4428566,18.919366 l -2.1621094,0.730468 z" />
  </g>
</svg>
