<?xml version="1.0" encoding="UTF-8" standalone="no"?>
<!-- Created with Inkscape (http://www.inkscape.org/) -->

<svg
   width="24"
   height="24"
   viewBox="0 0 24 24"
   version="1.1"
   id="svg5"
   inkscape:export-filename="SaveIcon.svg"
   inkscape:export-xdpi="96"
   inkscape:export-ydpi="96"
   sodipodi:docname="SaveIcon.svg"
   xmlns:inkscape="http://www.inkscape.org/namespaces/inkscape"
   xmlns:sodipodi="http://sodipodi.sourceforge.net/DTD/sodipodi-0.dtd"
   xmlns="http://www.w3.org/2000/svg"
   xmlns:svg="http://www.w3.org/2000/svg">
  <sodipodi:namedview
     id="namedview7"
     pagecolor="#505050"
     bordercolor="#eeeeee"
     borderopacity="1"
     inkscape:showpageshadow="0"
     inkscape:pageopacity="0"
     inkscape:pagecheckerboard="0"
     inkscape:deskcolor="#505050"
     inkscape:document-units="mm"
     showgrid="false" />
  <defs
     id="defs2" />
  <g
     inkscape:label="Layer 1"
     inkscape:groupmode="layer"
     id="layer1">
    <path
       id="path2216"
       style="color:#000000;fill:#000000;stroke-linecap:round;-inkscape-stroke:none"
       d="m 10.986328,0.68164062 -0.0293,1.62304688 C 6.3706267,2.9577817 2.2328631,7.0682626 2.2324219,12 c 2.361e-4,2.638849 1.068227,5.167064 2.9609375,7.005859 0.374564,0.364752 0.9741335,0.355999 1.3378906,-0.01953 C 6.8946934,18.611996 6.8859499,18.013936 6.5117188,17.650391 4.9846681,16.166838 4.1232374,14.12904 4.1230469,12 4.1234018,8.0328511 7.0600923,4.7133818 10.986328,4.2011719 V 6.3808594 C 12.046863,5.431704 13.106577,4.4816282 14.166016,3.53125 13.105449,2.5821308 12.04598,1.6317811 10.986328,0.68164062 Z m 7.554688,4.41015628 c -0.250499,-0.010773 -0.49501,0.078459 -0.679688,0.2480469 -0.384885,0.3531116 -0.410256,0.9515154 -0.05664,1.3359374 C 19.137846,8.129027 19.876777,10.027885 19.876953,12 c -3.31e-4,3.697203 -2.560815,6.880116 -6.166015,7.683594 v -2.267578 c -1.05933,0.950499 -2.119389,1.900191 -3.179688,2.849609 1.060566,0.949119 2.120036,1.899469 3.179688,2.849609 0.02584,-0.0066 0.01953,-1.601562 0.01953,-1.601562 4.4829,-0.97626 8.0367,-4.925702 8.03711,-9.513672 C 21.76736,9.5554419 20.849799,7.1998251 19.197266,5.3984375 19.027936,5.2131052 18.791814,5.1027745 18.541016,5.0917969 Z M 16.21875,8.4257812 c -0.210155,0.00911 -0.427395,0.084914 -0.625,0.2480469 L 10.404297,13.826172 8.40625,11.841797 C 7.6099102,10.995703 6.229726,12.305084 7.0761719,13.183594 l 3.3281251,3.304687 6.519531,-6.472656 C 17.624153,9.2182681 16.969304,8.3932465 16.21875,8.4257812 Z" />
  </g>
</svg>
