<?xml version="1.0" encoding="UTF-8" standalone="no"?>
<!-- Created with Inkscape (http://www.inkscape.org/) -->

<svg
   width="24"
   height="24"
   viewBox="0 0 24 24"
   version="1.1"
   id="svg5"
   inkscape:export-filename="UndoIcon.svg"
   inkscape:export-xdpi="96"
   inkscape:export-ydpi="96"
   sodipodi:docname="RedoIcon.svg"
   xmlns:inkscape="http://www.inkscape.org/namespaces/inkscape"
   xmlns:sodipodi="http://sodipodi.sourceforge.net/DTD/sodipodi-0.dtd"
   xmlns="http://www.w3.org/2000/svg"
   xmlns:svg="http://www.w3.org/2000/svg">
  <sodipodi:namedview
     id="namedview7"
     pagecolor="#505050"
     bordercolor="#eeeeee"
     borderopacity="1"
     inkscape:showpageshadow="0"
     inkscape:pageopacity="0"
     inkscape:pagecheckerboard="0"
     inkscape:deskcolor="#505050"
     inkscape:document-units="mm"
     showgrid="false" />
  <defs
     id="defs2" />
  <g
     inkscape:label="Layer 1"
     inkscape:groupmode="layer"
     id="layer1">
    <path
       id="path7736"
       style="fill:#000000;fill-opacity:1;stroke:none;stroke-width:0;stroke-linecap:round;stroke-linejoin:round;stroke-dasharray:none"
       inkscape:transform-center-x="1.6491942"
       inkscape:transform-center-y="-2.9125883"
       d="M 15.719768,2.4971726 13.231802,4.3364298 A 7.7725825,7.7725825 0 0 0 12.000006,4.2351862 7.7725825,7.7725825 0 0 0 10.715714,4.3551785 L 8.2202482,2.5440448 A 10.215393,10.215393 0 0 0 5.6254157,4.0514497 L 5.9722674,7.1225012 A 7.7725825,7.7725825 0 0 0 4.7385965,9.2898624 L 1.8887792,10.56103 a 10.215393,10.215393 0 0 0 -0.1049933,1.447408 10.215393,10.215393 0 0 0 0.1218671,1.533651 l 2.8554421,1.244921 a 7.7725825,7.7725825 0 0 0 1.2524228,2.161734 l -0.3206042,3.067303 a 10.215393,10.215393 0 0 0 2.6079578,1.48678 l 2.4748415,-1.828008 a 7.7725825,7.7725825 0 0 0 1.224296,0.106868 7.7725825,7.7725825 0 0 0 1.284293,-0.119992 l 2.495465,1.811134 a 10.215393,10.215393 0 0 0 2.594818,-1.50743 l -0.346853,-3.071053 a 7.7725825,7.7725825 0 0 0 1.233672,-2.167361 l 2.849817,-1.271168 a 10.215393,10.215393 0 0 0 0.104993,-1.447408 10.215393,10.215393 0 0 0 -0.116242,-1.531777 L 19.259528,9.237337 A 7.7725825,7.7725825 0 0 0 17.98837,7.0530967 L 18.308977,3.9783278 A 10.215393,10.215393 0 0 0 15.719768,2.4971726 Z m -3.719762,5.6733865 a 3.8387034,3.8387034 0 0 1 3.837879,3.8378789 3.8387034,3.8387034 0 0 1 -3.837879,3.837878 3.8387034,3.8387034 0 0 1 -3.837879,-3.837878 3.8387034,3.8387034 0 0 1 3.837879,-3.8378789 z" />
  </g>
</svg>
