<?xml version="1.0" encoding="UTF-8" standalone="no"?>
<!-- Created with Inkscape (http://www.inkscape.org/) -->

<svg
   width="24"
   height="24"
   viewBox="0 0 24 24"
   version="1.1"
   id="svg5"
   inkscape:export-filename="CompleteIcon.svg"
   inkscape:export-xdpi="96"
   inkscape:export-ydpi="96"
   sodipodi:docname="HelpIcon.svg"
   xmlns:inkscape="http://www.inkscape.org/namespaces/inkscape"
   xmlns:sodipodi="http://sodipodi.sourceforge.net/DTD/sodipodi-0.dtd"
   xmlns="http://www.w3.org/2000/svg"
   xmlns:svg="http://www.w3.org/2000/svg">
  <sodipodi:namedview
     id="namedview7"
     pagecolor="#505050"
     bordercolor="#eeeeee"
     borderopacity="1"
     inkscape:showpageshadow="0"
     inkscape:pageopacity="0"
     inkscape:pagecheckerboard="0"
     inkscape:deskcolor="#505050"
     inkscape:document-units="mm"
     showgrid="false" />
  <defs
     id="defs2" />
  <g
     inkscape:label="Layer 1"
     inkscape:groupmode="layer"
     id="layer1">
    <path
       id="path10672"
       style="fill:#000000;fill-opacity:0.985915;stroke:#000000;stroke-width:0;stroke-linecap:round"
       d="M 14.924005,12 A 2.9240048,2.9240048 0 0 1 12,14.924005 2.9240048,2.9240048 0 0 1 9.0759952,12 2.9240048,2.9240048 0 0 1 12,9.0759952 2.9240048,2.9240048 0 0 1 14.924005,12 Z M 11.970703,6.0664062 A 9.6795292,9.6795292 0 0 0 3.0878906,11.935547 9.6795292,9.6795292 0 0 0 12.019531,17.933594 9.6795292,9.6795292 0 0 0 20.912109,12.039062 9.6795292,9.6795292 0 0 0 11.970703,6.0664062 Z M 12,7.4550781 A 4.5452352,4.5452352 0 0 1 16.544922,12 4.5452352,4.5452352 0 0 1 12,16.544922 4.5452352,4.5452352 0 0 1 7.4550781,12 4.5452352,4.5452352 0 0 1 12,7.4550781 Z" />
  </g>
</svg>
