<?xml version="1.0" encoding="UTF-8" standalone="no"?>
<svg
   width="24"
   height="24"
   version="1.1"
   id="svg12414"
   sodipodi:docname="WalletIcon.svg"
   xmlns:inkscape="http://www.inkscape.org/namespaces/inkscape"
   xmlns:sodipodi="http://sodipodi.sourceforge.net/DTD/sodipodi-0.dtd"
   xmlns="http://www.w3.org/2000/svg"
   xmlns:svg="http://www.w3.org/2000/svg">
  <defs
     id="defs12418" />
  <sodipodi:namedview
     id="namedview12416"
     pagecolor="#505050"
     bordercolor="#eeeeee"
     borderopacity="1"
     inkscape:showpageshadow="0"
     inkscape:pageopacity="0"
     inkscape:pagecheckerboard="0"
     inkscape:deskcolor="#505050"
     showgrid="false" />
  <path
     id="path12412"
     style="color:#000000;fill:#000000;stroke-width:0;stroke-linecap:round;stroke-linejoin:round"
     d="m 5.6465316,3.8945344 c -2.1332033,0 -1.8085938,2.8410256 -1.8085938,3.8359375 V 18.296878 c 0,0.999045 0.8095489,1.808593 1.8085938,1.808593 H 18.308641 c 0.999044,0 1.808594,-0.809548 1.808594,-1.808593 v -2.351824 h -3.913846 c -0.994911,0 -1.948759,-0.798058 -2.073759,-1.808594 -0.08597,-0.694976 -0.07621,-1.404705 0,-2.100818 0.109375,-0.999045 1.074723,-1.804668 2.073759,-1.808594 l 3.976346,-0.01563 c -0.0017,-0.5918495 -0.05081,-2.228512 -0.06196,-2.7634561 L 6.5918441,7.4346301 C 6.1041817,7.4341492 5.7109847,7.0414334 5.7109847,6.5537707 c 0,-0.4876627 0.3932061,-0.877832 0.8808594,-0.8808593 l 9.3269529,-0.057901 c 0.909591,-0.00381 0.856397,-1.7241667 0.01519,-1.7204759 z M 16.203389,11.775087 c -0.931873,0.0029 -0.931631,2.774215 0,2.795631 1.085616,0.02495 3.949627,0 3.949627,0 v -2.795631 c 0,0 -3.018691,-0.0029 -3.949627,0 z"
     sodipodi:nodetypes="sssssscssssccsssccsssccs" />
</svg>
