<svg viewBox="0 0 1580 1580" xml:space="preserve" xmlns="http://www.w3.org/2000/svg"><path style="fill:#012963;fill-opacity:1;stroke:none;stroke-width:.755906;stroke-linecap:round;stroke-linejoin:round;stroke-opacity:.200557" d="M1569 790c9 377-302 726-675 770-434 71-875-303-887-740-4-211 69-429 227-574C478 8 882-60 1180 116a788 788 0 0 1 389 674z"/><path d="M1006 1471c-75-15-152 57-227 1-66-81-133 72-37 86 67-2 137 10 205-9 53-8 168-47 157-62-32-7-64-25-98-16zm-276 76z" style="fill:#2a536f;fill-opacity:1;stroke:none"/><path style="fill:#0b4a81;fill-opacity:1" d="M-1045 728c-425-611-213-305 0 0z"/><path style="fill:#49823d;fill-opacity:1;stroke:none;stroke-width:.755906;stroke-linecap:round;stroke-linejoin:round;stroke-opacity:.200557" d="M496 86c-90 14-153 77-165 165-28 79-126 112-137 197 5 36-28 168 1 78 7 83-3 207 101 239 64 20 81 111 144 122 75 44 116 134 165 203 38 109-8 222-12 332-9 50 55 134 98 101-58-25 23-97 53-100 32-47 102-65 123-117 101-20 102-127 148-193 13-117-163-49-198-136-22-69-118-60-159-111-71-39-149-29-217 0-66-21-21-97-78-120 2-72-89-5-88-86-20-86 64-116 129-88 107-16 156-139 262-160 39-10 59 4 44-42 17-41 46 63 58 4-14-74-105-175-176-113-14 92-155-48-47-39 72 22 13-117 94-87 31-6 69-21 78-5 42-81-65-14-92-23-45 24 17-21-27-10-46 2 8 83-56 79-81-3 86-56-9-60-31 57-83 0-29-29zm116 55c-1 11-1 17 0 0z"/><path style="fill:#39581f;fill-opacity:1;stroke:none;stroke-width:.755906;stroke-linecap:round;stroke-linejoin:round;stroke-opacity:.200557" d="M1001 44a758 758 0 0 1 558 646c25 100-18 202-46 297-54-34 12-175-69-159-48 32-116 12-89-53-17-89-181-117-121-227 39-73-43-121-48-180 73-8-56-62 5-101 3-25-48-71 2-39 44-50-60-73-78-86 25 14 109 92 28 60-47-9-106-71-97-112 35-4 95 30 35-5-26-14-55-24-80-41z"/><path style="fill:#05397b;fill-opacity:1;stroke:none" d="M142 577C43 521 8 671 17 742c-8 116 11 234 55 341 44 55 119 2 62-52-39-71-23-167 53-199 25-82-13-169-5-253-6-21-30-13-40-2zm40-12z"/><path d="M98 1140a732 732 0 0 0 266 299c-28-64 22-150-5-199 6-35 61-93-1-132-66-71-159 3-235-30-27-38-80-29-45 23l20 39z" style="fill:#074387;fill-opacity:1;stroke:none"/><path d="M147 831c-89 39-33 149-48 220-12 71 43 129 112 97 50 26 119 5 82-63-19-81 39-224-60-261-28 1-58 21-86 7zm137 7v1z" style="fill:#083e78;fill-opacity:1;stroke:none"/><path d="M286 353c-45 36-102 143-1 136 62-22 113-129 43-171-26-18-48 10-42 35zm-50 83-2 1z" style="fill:#997d36;fill-opacity:1;stroke:none"/><path style="fill:#012353;fill-opacity:1;stroke:none" d="M1416 916c-78 75-64 192-107 282-41 84-137 76-215 85-82 25-3-154-81-98-9 62-84 123-84 138 104-18 19 192 39 144 85 11 182 41 250-31 82-58 155-127 213-208 13-96 60-199 15-293-7-9-18-16-30-19zm-90 272zm39 116zm-33 38z"/><path style="fill:#ac8b4d;fill-opacity:1;stroke:none" d="M566 863c-84 8-94 87-137 137-1 90 72 162 128 226 63 44-15 201 96 169 40-95-10-193-44-282 4-78-40-156-61-219 6-10 14-19 18-31z"/><path style="fill:#548a36;fill-opacity:1;stroke:none" d="M659 296c-51 29-103 75-158 52-27 39 61 41 1 60-54 10-137 96-55 124 75-19 123-92 176-141 17-47 135-60 57-100l-10 1zM555 453c-14 4 10 9 0 0zm-19 9c-8-3 2 7 0 0z"/><path style="fill:#035c90;fill-opacity:1;stroke:none" d="M740 16c-31-1-173 20-75 33 40 9 164 22 144-29-21-11-46-2-69-4Zm72 35h1z"/><path style="fill:#324924;fill-opacity:1;stroke:none" d="M494 991c-1 78 72 149 120 200 82 57-32 207 76 225 110-34 89-170 73-258-10-86 12-172-70-233-27-44-117-62-142-37-11 38-41 67-57 103z"/><path style="fill:#619044;fill-opacity:1;stroke-width:1;stroke:none" d="M759 1163c-37 75 50 175 123 114 84-59 64-211-37-240-83-38-93 72-86 126z"/><path style="fill:#1c4870;fill-opacity:1;stroke:none" d="M913 342c-82 83-54 210-95 310-74 65-40 217 66 220 22 35 79 56 73 98 50 0 123 0 143 25 98-38 147 88 105 161 5 70-60 107-97 137 57 20 30 49 7 82 41 84 117-26 159-59 27-83 70-159 75-252 42-67 17-165-77-153-37-12-147 40-82-28-5-92-127-64-190-83-30-49-93-12-72-6 21-80-15-180 55-240 48-22 97-94 102-164 5-81-130-166-177-87-2 13 1 27 5 39zm298 708z"/><path style="fill:#01316d;fill-opacity:1;stroke:none" d="M741 244c16 38-27 37-4 39 57 30 41 89 95 112-18 35-108 22-71 47-76-7-80 107 1 86 60 26 140 29 132-59 12-52 85-49 47-115-16-52-159-69-137-79-8 35-23-46-51-23zm136 44zm0 1h1zm18 2c-4 15 14-5 0 0zm-62 285c-59 41-42 149-126 156-15 15-102-11-42 24 66 29 54 133 124 151 23 84 162 10 98-39-42-14-58-43-88-68 4-68 47-132 35-197l-4-13zm110 311c-122-11-40 172 52 131 83 8 23 155 101 96 4-33-46-57 4-83 31-60-50-71-87-73-12-47-2-86-70-71z"/><path style="fill:#7c9d49;fill-opacity:1;stroke:none" d="M961 1053c-62-11-104 95-43 95-19 37 24 120 38 49 13-45 91-124 5-144zm-8 155-1 1zm-9 16v1zm-10 1c-9 4 10 4 0 0z"/><path style="fill:#e7f4f2;fill-opacity:1;stroke:none" d="M824 72c-57-16-134 62-51 86-26 61 72 121 96 38 52-54 13-100-45-124zm-99 33zm66 120h-1z"/><path style="fill:#013471;fill-opacity:1;stroke:none" d="M1081 284c-104 4 12 121-37 173 21 83 77 183-17 245-52 58-111 3-107-60-39-50-55 27-19 48 13 51-57 46-8 88 28 64 101-7 115 71 34 17 82-17 125 18 46 18-10 103 66 75 72-46 124 40 191 43 28-104-116-113-161-179-63-87-12-192-30-288-17-60-31-134-35-186-26-18-59-26-83-48zm106 67c-1 28 13 5 0 0z"/><path style="fill:#034b90;fill-opacity:1;stroke:none" d="M885 75c-8 88 130 69 105 147-45 60 65 120 87 48-2-90-52-198-161-192l-31-3Zm61 83c-3-3 0 4 0 0z"/><path style="fill:#5d804c;fill-opacity:1;stroke:none" d="M1468 778c118 149 104 3 94-112-36-197-92-172-106-60l1 1"/><path fill="#486f22" d="M583 1178c-42-14-76-133-3-72 23 11 60 97 3 72z" style="stroke:none"/><path style="fill:#466d22;fill-opacity:1;stroke:none" d="M737 933c-54 52 59 117-7 180-68 38 23 89 48 45-1-23-4-74 8-102 24 26 69 17 111 17 28 4-49-58-72-73-30-34-38-64-85-59z"/><path style="fill:#03306c;fill-opacity:1;stroke:none" d="M350 933c-92 0-73 126-39 178 51 23 103 65 33 95-50-19 31 91-4 104 53 45-42 94 14 118-30-7 78 49 107 67 39 19 147 69 149 5-35-85-15-179-43-261-53-67-135-123-141-215 7-66-35-83-74-85l-1-4zm74 88c-8 6 7 6 0 0zm-99 375 3 1zm26-136v1zm4 107v1zm12 69 2 1z"/><path style="fill:#49823d;fill-opacity:1;stroke:none;stroke-width:.755906;stroke-linecap:round;stroke-linejoin:round;stroke-opacity:.200557" d="M617 185c41 49 112 54 71-1 78 48-30-115-65-34-7 10-9 23-6 35z"/><path style="fill:#a1a64a;fill-opacity:1;stroke:none;stroke-width:.755906;stroke-linecap:round;stroke-linejoin:round;stroke-opacity:.200557" d="M229 484c-25 67-41 180 26 222 46-33-36-110 44-133 64-22 110-68 97-130 37-67 27-143 14-215-35-52-121 52-99 102 47 54 10 149-64 152-6-1-12 1-18 2z"/><path style="fill:#324924;fill-opacity:1;stroke:none;stroke-width:.755906;stroke-linecap:round;stroke-linejoin:round;stroke-opacity:.200557" d="M360 761c10-40 19-114-36-57-94 6-40-182 52-131 47-6 74 44 79 70 29-34 0-117 74-109 9-63 78-97 133-110 31 35 91-42 19-44-55-64-73 86-139 79-38 57-100 111-146 35-37 54-190 87-124 185 23 44 97 65 80 46 4 12 4 24 8 36z"/><path style="fill:#64633d;fill-opacity:1;stroke:none;stroke-width:.755906;stroke-linecap:round;stroke-linejoin:round;stroke-opacity:.200557" d="M221 408c7-84 99-132 125-211 35-49 55 30 7 40-67 47-37 152-123 175-1 20-6-1-9-4z"/><path style="fill:#436e1f;fill-opacity:1;stroke:none;stroke-width:.755906;stroke-linecap:round;stroke-linejoin:round;stroke-opacity:.200557" d="M1248 581c21-95 155-119 179-14 17 55 54 72 44 137 16 84-76 168-156 154-71-34-102-121-100-197-3-23-19-129 33-80z"/><path style="fill:#89b342;fill-opacity:1;stroke:none;stroke-width:.755906;stroke-linecap:round;stroke-linejoin:round;stroke-opacity:.200557" d="M1444 1212a749 749 0 0 0 125-441c-37 16-59-20-60-2-43 82 17 176-18 261-14 60-46 119-47 182z"/><path style="fill:#0e335d;fill-opacity:1;stroke:none;stroke-width:.755906;stroke-linecap:round;stroke-linejoin:round;stroke-opacity:.200557" d="M1247 447c52 11 88-97 127-19 33 19 53 7 53-19 71-41-108-125-36-41-24-14-63-68-87-53 45 0 69 102 35 35-64-56-97 27-70 75-8 6-18 12-22 22zm106-146c-35-76 63 37 0 0z"/><path style="fill:#87a547;fill-opacity:.976471;stroke:none;stroke-width:.755906;stroke-linecap:round;stroke-linejoin:round;stroke-opacity:.200557" d="M1189 389c28 29 96 74 77-2-9-48 21-135 56-113-30-75-158-28-96 48 61 70-70 13-37 67z"/><path style="fill:#727335;fill-opacity:1;stroke:none;stroke-width:.755906;stroke-linecap:round;stroke-linejoin:round;stroke-opacity:.200557" d="M1267 338c-36-47 38-73 0 0z"/><path style="fill:#859340;fill-opacity:1;stroke:none;stroke-width:.755906;stroke-linecap:round;stroke-linejoin:round;stroke-opacity:.200557" d="M1127 198c39-53-132-135-46-56 13 20 20 49 46 56z"/></svg>