<?xml version="1.0" encoding="UTF-8"?>
<svg xmlns="http://www.w3.org/2000/svg" xmlns:xlink="http://www.w3.org/1999/xlink" width="0" height="0">
<defs>
<symbol viewBox="0 0 24 24" id="Week">
    <path         style="stroke-width:1;stroke-linecap:round;stroke-linejoin:round"
        d="M5.43 3.85c-.87 0-1.58.7-1.58 1.58v13.14c0 .87.7 1.58 1.58 1.58h5.25v-7.78c0-.38.3-.67.68-.67h8.79V5.43c0-.87-.7-1.58-1.58-1.58H5.43zm1.7 1.3h9.75c.28 0 .5.22.5.5v.18a.5.5 0 0 1-.5.5H7.12a.5.5 0 0 1-.5-.5v-.18c0-.28.22-.5.5-.5zm1.2 3.65h1.58c.25 0 .46.21.46.47v1.57c0 .26-.2.46-.46.46H8.33a.46.46 0 0 1-.46-.46V9.27c0-.26.2-.47.46-.47zm2.88 0h1.58c.25 0 .46.21.46.47v1.57c0 .26-.2.46-.46.46H11.2a.46.46 0 0 1-.47-.46V9.27c0-.26.21-.47.47-.47zm2.88 0h1.57c.26 0 .46.21.46.47v1.57c0 .26-.2.46-.46.46H14.1a.46.46 0 0 1-.47-.46V9.27c0-.26.21-.47.47-.47zm2.87 0h1.58c.26 0 .46.21.46.47v1.57c0 .26-.2.46-.46.46h-1.58a.46.46 0 0 1-.46-.46V9.27c0-.26.2-.47.46-.47zm-11.5 3.08h1.57c.26 0 .46.2.46.46v1.58c0 .25-.2.46-.46.46H5.45a.46.46 0 0 1-.46-.46v-1.58c0-.26.2-.46.46-.46zm2.87 0h1.58c.25 0 .46.2.46.46v1.58c0 .25-.2.46-.46.46H8.33a.46.46 0 0 1-.46-.46v-1.58c0-.26.2-.46.46-.46zm3.57.34c-.33 0-.6.27-.6.6v8.55c0 .33.27.6.6.6h8.55a.6.6 0 0 0 .6-.6v-8.56a.6.6 0 0 0-.6-.59H11.9zm2.06 1.67h4.43v.48a1.1 1.1 0 0 1-.14.56l-2.42 5a.76.76 0 0 1-.21.26c-.1.07-.22.1-.37.1h-.8l2.48-4.89a5.24 5.24 0 0 1 .35-.52H14.2a.24.24 0 0 1-.17-.07.24.24 0 0 1-.08-.18v-.74zm-8.6 1.06h1.59c.25 0 .46.21.46.47v1.57c0 .26-.2.47-.46.47H5.37a.46.46 0 0 1-.46-.47v-1.57c0-.26.2-.47.46-.47zm2.89 0h1.57c.26 0 .47.21.47.47v1.57c0 .26-.21.47-.47.47H8.25a.46.46 0 0 1-.47-.47v-1.57c0-.26.21-.47.47-.47z" ></path>
</symbol>
<symbol viewBox="0 0 24 24" id="Website">
    <path         style="stroke-width:1;stroke-linecap:round;stroke-linejoin:round"
        d="M20 4H4c-1.1 0-1.99.9-1.99 2L2 18c0 1.1.9 2 2 2h16c1.1 0 2-.9 2-2V6c0-1.1-.9-2-2-2zm-5 14H4v-4h11v4zm0-5H4V9h11v4zm5 5h-4V9h4v9z" ></path>
</symbol>
<symbol viewBox="0 0 24 24" id="Warning">
    <path         style="stroke-width:1;stroke-linecap:round;stroke-linejoin:round"
        d="M11.984 2.084c-.283 0-.561.115-.724.344L.707 20.638a.851.851 0 0 0 .74 1.278h21.108a.851.851 0 0 0 .738-1.277L12.74 2.428a.965.965 0 0 0-.756-.344ZM12 4.557l9.072 15.656H2.928Zm-.018 2.968c-.519.003-1.033.335-1.05.989V14.8c.022 1.256 2.16 1.292 2.136 0V8.514c-.04-.666-.566-.992-1.086-.989Zm-.002 9.315c-.746 0-1.37.623-1.37 1.369s.624 1.371 1.37 1.371c.747 0 1.37-.625 1.37-1.371s-.623-1.37-1.37-1.37z" ></path>
</symbol>
<symbol viewBox="0 0 24 24" id="Wallet">
    <path         style="stroke-width:1;stroke-linecap:round;stroke-linejoin:round"
        d="M5.6 3.9c-2 0-1.8 2.8-1.8 3.8v10.6c0 1 .8 1.8 1.8 1.8h12.7c1 0 1.8-.8 1.8-1.8v-2.4h-3.9c-1 0-2-.8-2-1.8-.2-.7-.1-1.4 0-2 0-1 1-1.9 2-1.9h4V7.4H6.5a.9.9 0 1 1 0-1.7h9.3c1 0 .9-1.8 0-1.8zm10.6 7.9c-1 0-1 2.7 0 2.8h4v-2.8h-4z" ></path>
</symbol>
<symbol viewBox="0 0 24 24" id="Vrooli">
    <path         style="stroke-width:1;stroke-linecap:round;stroke-linejoin:round"
        d="M16.32 2.2c-.1.17-.2.43-.26.76a8.54 8.54 0 0 0-.02 2.61c.14.99.54 2.03.86 3.05-.42.17-.78.4-1.07.68a3 3 0 0 0-.84 1.43c-3.45-.03-7.04-.02-10.53-.03a.81.81 0 0 0-.82.82V18c0 .75.59 1.35 1.34 1.35.75 0 1.35-.6 1.35-1.35v-1c3.52 0 7.17.06 10.73.09 1.67 0 2.33.44 2.97.8.66.37 1.61-.37 1.39-1.35-.2-.91-1.4-1.43-2.63-1.64l.01-.27.74-.08a5.2 5.2 0 0 0 2.31-.88c.8-.58 1.26-1.35 1.25-2.2a2.78 2.78 0 0 0-1.17-2.17 5.41 5.41 0 0 0-3.3-.98c-.19.01-.45 0-.62.02a9.9 9.9 0 0 0-.64-5.41 2.92 2.92 0 0 0-.46-.74c-.25-.26-.43-.23-.59.02Zm3.99 1.07c-.19.06-.42.24-.67.46-.42.35-.88.9-1.3 1.56.14.89.16 1.71.1 2.74l.56.01c.31-.4.6-.85.89-1.26.44-.79 1.06-2.11.98-3.17-.09-.34-.35-.4-.56-.34Zm.46 6.49a.69.69 0 1 1 0 1.37.69.69 0 0 1 0-1.37zm-18.63.92A1.2 1.2 0 0 0 .9 11.92c0 .7.6 1.26 1.24 1.24.64-.01 1.22-.41 1.24-1.16a1.24 1.24 0 0 0-1.24-1.32z" ></path>
</symbol>
<symbol viewBox="0 0 24 24" id="Visible">
    <path         style="stroke-width:1;stroke-linecap:round;stroke-linejoin:round"
        d="M14.92 12A2.92 2.92 0 0 1 12 14.92 2.92 2.92 0 0 1 9.08 12 2.92 2.92 0 0 1 12 9.08 2.92 2.92 0 0 1 14.92 12Zm-2.95-5.93a9.68 9.68 0 0 0-8.88 5.87 9.68 9.68 0 0 0 8.93 6 9.68 9.68 0 0 0 8.9-5.9 9.68 9.68 0 0 0-8.95-5.97ZM12 7.46A4.55 4.55 0 0 1 16.54 12 4.55 4.55 0 0 1 12 16.54 4.55 4.55 0 0 1 7.46 12 4.55 4.55 0 0 1 12 7.46Z" ></path>
</symbol>
<symbol viewBox="0 0 24 24" id="User">
    <path         style="stroke-width:1;stroke-linecap:round;stroke-linejoin:round"
        d="M2.9 21.13v-3.51s3-4.02 8.97-4.02c5.95 0 9.23 4 9.23 4v3.48zM16.63 7.5A4.63 4.63 0 0 1 12 12.14 4.63 4.63 0 0 1 7.37 7.5 4.63 4.63 0 0 1 12 2.87a4.63 4.63 0 0 1 4.63 4.63Z" ></path>
</symbol>
<symbol viewBox="0 0 24 24" id="Upload">
    <path         style="stroke-width:1;stroke-linecap:round;stroke-linejoin:round"
        d="M 10.432031,19.301266 10.335525,11.693844 7.5410742,13.831366 C 6.2285967,14.753093 4.9727883,12.716204 6.0074141,11.949703 l 4.7089839,-3.574219 c 1.058459,-0.86836 1.371151,-0.893101 2.388672,-0.04101 0.03706,0.0084 4.851563,3.726562 4.851563,3.726562 1.162099,1.004954 -0.161706,2.7034556 -1.492188,1.775386 l -2.886719,-2.148438 0.02149,7.6132813 c -0.006,1.653111 -3.123049,1.6359475 -3.16718,0 z M 5.0269453,5.841686 c -1.1170303,0 -1.1784436,-2.376357 0,-2.376357 H 19.026945 c 1.076088,0 1.076088,2.376357 0,2.376357 z" ></path>
</symbol>
<symbol viewBox="0 0 24 24" id="Unlock">
    <path         style="stroke-width:1;stroke-linecap:round;stroke-linejoin:round"
        d="M12 17a2 2 0 0 1-2-2c0-1.1.9-2 2-2a2 2 0 0 1 2 2 2 2 0 0 1-2 2zM6 8h1V6a5 5 0 0 1 5-5c2.8 0 4.7 1.6 5 4.2h-1.9c-.2-1.7-1.4-2.3-3.1-2.3A3.1 3.1 0 0 0 8.9 6v2H18a2 2 0 0 1 2 2v10a2 2 0 0 1-2 2H6a2 2 0 0 1-2-2V10c0-1.1.9-2 2-2Zm0 12h12V10H6Z" ></path>
</symbol>
<symbol viewBox="0 0 24 24" id="UnlinkNode">
    <path         style="stroke-width:1;stroke-linecap:round;stroke-linejoin:round"
        d="m14.93 2.85 1.81 1.82-1.77 1.77c-.64.63.4 1.52.97.98l1.78-1.77 1.76 1.76c.62.62 1.52-.46.98-.97L18.7 4.67l1.81-1.8c.64-.74-.34-1.54-.97-.98l-1.82 1.8-1.81-1.82c-.62-.55-1.5.44-.98.98ZM.47 5.7v12.6h12.6v-5.6h4.78c.34 1.24 1.3 2.25 2.65 2.25A2.95 2.95 0 0 0 23.44 12a2.95 2.95 0 0 0-2.94-2.94c-1.35 0-2.3 1-2.65 2.25h-4.78V5.7Zm1.38 1.38h9.84v9.84H1.85Zm18.65 3.36c.87 0 1.56.69 1.56 1.56 0 .87-.69 1.56-1.56 1.56-.87 0-1.56-.69-1.56-1.56 0-.87.69-1.56 1.56-1.56z" ></path>
</symbol>
<symbol viewBox="0 0 24 24" id="Undo">
    <path         style="stroke-width:1;stroke-linecap:round;stroke-linejoin:round"
        d="M13.24 8.89a8.18 8.18 0 0 0-2.96.19 11.2 11.2 0 0 0-4.12 2.36l-3.2-2.48c.02 2.06.01 4.13 0 6.21 2.58-.05 5.15.02 7.82-.03l-3.13-2.55a8.98 8.98 0 0 1 3.09-1.68 6.53 6.53 0 0 1 4.33.42 11.95 11.95 0 0 1 4.25 3.41c1.07 1.1 2.38-.17 1.53-1.1 0 0-1.9-2.67-5.02-4.04a9.08 9.08 0 0 0-2.59-.71Z" ></path>
</symbol>
<symbol viewBox="0 0 24 24" id="Translate">
    <path         style="stroke-width:1;stroke-linecap:round;stroke-linejoin:round"
        d="m12.87 15.07-2.54-2.51.03-.03c1.74-1.94 2.98-4.17 3.71-6.53H17V4h-7V2H8v2H1v1.99h11.17C11.5 7.92 10.44 9.75 9 11.35 8.07 10.32 7.3 9.19 6.69 8h-2c.73 1.63 1.73 3.17 2.98 4.56l-5.09 5.02L4 19l5-5 3.11 3.11.76-2.04zM18.5 10h-2L12 22h2l1.12-3h4.75L21 22h2l-4.5-12zm-2.62 7 1.62-4.33L19.12 17h-3.24z" ></path>
</symbol>
<symbol viewBox="0 0 24 24" id="Today">
    <path         style="stroke-width:1;stroke-linecap:round;stroke-linejoin:round"
        d="M5.43 3.85c-.87 0-1.58.7-1.58 1.58v13.14c0 .87.7 1.58 1.58 1.58h5.25v-7.78c0-.38.3-.67.68-.67h8.79V5.43c0-.87-.7-1.58-1.58-1.58H5.43zm1.7 1.3h9.75c.28 0 .5.22.5.5v.18a.5.5 0 0 1-.5.5H7.12a.5.5 0 0 1-.5-.5v-.18c0-.28.22-.5.5-.5zm1.2 3.65h1.58c.25 0 .46.21.46.47v1.57c0 .26-.2.46-.46.46H8.33a.46.46 0 0 1-.46-.46V9.27c0-.26.2-.47.46-.47zm2.88 0h1.58c.25 0 .46.21.46.47v1.57c0 .26-.2.46-.46.46H11.2a.46.46 0 0 1-.47-.46V9.27c0-.26.21-.47.47-.47zm2.88 0h1.57c.26 0 .46.21.46.47v1.57c0 .26-.2.46-.46.46H14.1a.46.46 0 0 1-.47-.46V9.27c0-.26.21-.47.47-.47zm2.87 0h1.58c.26 0 .46.21.46.47v1.57c0 .26-.2.46-.46.46h-1.58a.46.46 0 0 1-.46-.46V9.27c0-.26.2-.47.46-.47zm-11.5 3.08h1.57c.26 0 .46.2.46.46v1.58c0 .25-.2.46-.46.46H5.45a.46.46 0 0 1-.46-.46v-1.58c0-.26.2-.46.46-.46zm2.87 0h1.58c.25 0 .46.2.46.46v1.58c0 .25-.2.46-.46.46H8.33a.46.46 0 0 1-.46-.46v-1.58c0-.26.2-.46.46-.46zm3.57.34c-.33 0-.6.27-.6.6v8.55c0 .33.27.6.6.6h8.55a.6.6 0 0 0 .6-.6v-8.56a.6.6 0 0 0-.6-.59H11.9zm4.05 2.5a2.21 2.21 0 0 1 .93.14 2.21 2.21 0 0 1 1.3 2.84v.02A2.21 2.21 0 0 1 15.31 19a2.21 2.21 0 0 1-1.29-2.85 2.21 2.21 0 0 1 1.92-1.43zm-10.58.23h1.58c.25 0 .46.21.46.47v1.57c0 .26-.2.47-.46.47H5.37a.46.46 0 0 1-.46-.47v-1.57c0-.26.2-.47.46-.47zm2.88 0h1.57c.26 0 .47.21.47.47v1.57c0 .26-.21.47-.47.47H8.25a.46.46 0 0 1-.47-.47v-1.57c0-.26.21-.47.47-.47z" ></path>
</symbol>
<symbol viewBox="0 0 24 24" id="Terminal">
    <path         style="stroke-width:1;stroke-linecap:round;stroke-linejoin:round"
        d="M20 4H4a2 2 0 0 0-2 2v12c0 1.1.9 2 2 2h16a2 2 0 0 0 2-2V6a2 2 0 0 0-2-2zm0 14H4V8h16v10zm-2-1h-6v-2h6v2zM7.5 17l-1.4-1.4L8.7 13 6 10.4 7.5 9l4 4-4 4z" ></path>
</symbol>
<symbol viewBox="0 0 24 24" id="Team">
    <path         style="stroke-width:1;stroke-linecap:round;stroke-linejoin:round"
        d="M20.96 10.76a2.48 2.62 0 0 1-2.48 2.62 2.48 2.62 0 0 1-2.47-2.62 2.48 2.62 0 0 1 2.47-2.61 2.48 2.62 0 0 1 2.48 2.61zm-3.53 3.52a6 6 0 0 1 .61.64v3.52h5.3v-1.97s-1.74-2.27-4.93-2.27c-.35 0-.67.03-.98.08zm-11.4 4.19v-3.54s.17-.25.53-.6a6.5 6.5 0 0 0-1.12-.1A6.1 6.1 0 0 0 .65 16.5v1.99zm1.96-7.68a2.48 2.62 0 0 1-2.47 2.62 2.48 2.62 0 0 1-2.48-2.62 2.48 2.62 0 0 1 2.48-2.61 2.48 2.62 0 0 1 2.47 2.61zm-1.51 7.67v-3.5S8.3 12.4 11.9 12.4c3.62 0 5.6 2.56 5.6 2.56v3.48zm8.32-9.98a2.81 2.97 0 0 1-2.8 2.97 2.81 2.97 0 0 1-2.81-2.97 2.81 2.97 0 0 1 2.8-2.97 2.81 2.97 0 0 1 2.81 2.97Z" ></path>
</symbol>
<symbol viewBox="0 0 24 24" id="Tag">
    <path         style="stroke-width:1;stroke-linecap:round;stroke-linejoin:round"
        d="m3.15 4.99.08 5.61c0 .59.22 1.1.6 1.42l8.28 8.28a1.9 1.9 0 0 0 2.69 0l5.5-5.5a1.9 1.9 0 0 0 0-2.69L12 3.83c-.4-.4-.78-.6-1.4-.61l-5.62-.08c-1.28.03-1.84.74-1.84 1.85Zm2.54.7a1.45 1.45 0 1 1 2.05 2.06A1.45 1.45 0 0 1 5.7 5.69z" ></path>
</symbol>
<symbol viewBox="0 0 24 24" id="Table">
    <path         style="stroke-width:1;stroke-linecap:round;stroke-linejoin:round"
        d="M20 2H4c-1.1 0-2 .9-2 2v16c0 1.1.9 2 2 2h16c1.1 0 2-.9 2-2V4c0-1.1-.9-2-2-2zM8 20H4v-4h4v4zm0-6H4v-4h4v4zm0-6H4V4h4v4zm6 12h-4v-4h4v4zm0-6h-4v-4h4v4zm0-6h-4V4h4v4zm6 12h-4v-4h4v4zm0-6h-4v-4h4v4zm0-6h-4V4h4v4z" ></path>
</symbol>
<symbol viewBox="0 0 24 24" id="Switch">
    <path         style="stroke-width:1;stroke-linecap:round;stroke-linejoin:round"
        d="M17 7H7c-2.76 0-5 2.24-5 5s2.24 5 5 5h10c2.76 0 5-2.24 5-5s-2.24-5-5-5m0 8c-1.66 0-3-1.34-3-3s1.34-3 3-3 3 1.34 3 3-1.34 3-3 3" ></path>
</symbol>
<symbol viewBox="0 0 24 24" id="Success">
    <path         style="stroke-width:1;stroke-linecap:round;stroke-linejoin:round"
        d="M12 2.422c-5.281 0-9.578 4.297-9.578 9.578S6.719 21.578 12 21.578c4.37 0 8.061-2.942 9.207-6.95-.549.007-1.063-.038-1.57-.024A8.054 8.054 0 0 1 12 20.066 8.054 8.054 0 0 1 3.934 12 8.054 8.054 0 0 1 12 3.934a8.04 8.04 0 0 1 4.205 1.177c.433-.35.817-.65 1.184-1.023A9.522 9.522 0 0 0 12 2.422Zm7.57 5.473-7.492 6.552-4.293-4.244c-.929-.906-2.215.485-1.357 1.317l5.65 5.642 8.85-7.953c.64-.7-.633-1.913-1.358-1.314Z" ></path>
</symbol>
<symbol viewBox="0 0 24 24" id="StepListOpen">
    <path         style="stroke-width:1;stroke-linecap:round;stroke-linejoin:round"
        d="M22.047 22.074v0 0-20.147 0h-20.12v0 20.147 0h20.12zM22.047 24h-20.12q-.803 0-1.365-.562t-.562-1.365v-20.147q0-.776.562-1.351t1.365-.575h20.147q.776 0 1.351.575t.575 1.351v20.147q0 .803-.575 1.365t-1.378.562v0zM17.873 12.977h-4.923v4.896q0 .401-.281.682t-.682.281v0q-.375 0-.669-.281t-.294-.682v-4.896h-4.923q-.401 0-.682-.294t-.281-.669v0q0-.401.281-.682t.682-.281h4.923v-4.896q0-.401.294-.682t.669-.281v0q.401 0 .682.281t.281.682v4.896h4.923q.401 0 .682.281t.281.682v0q0 .375-.281.669t-.682.294z" ></path>
</symbol>
<symbol viewBox="0 0 24 24" id="StepListEnd">
    <path         style="stroke-width:1;stroke-linecap:round;stroke-linejoin:round"
        d="M17.485 17.512q-.281.281-.682.281t-.696-.268l-4.12-4.147-4.12 4.147q-.294.268-.696.268t-.682-.281-.281-.682.294-.669l4.12-4.147-4.12-4.147q-.294-.268-.294-.669t.281-.682.682-.281.696 .268l4.12 4.147 4.12-4.147q.294-.268.696-.268t.682.281 .281.669-.294.682l-4.12 4.147 4.12 4.147q.294.268 .294.669t-.281.682zM22.047 22.074v0 0-20.147 0h-20.12v0 20.147 0h20.12zM22.047 24h-20.12q-.803 0-1.365-.562t-.562-1.365v-20.147q0-.776.562-1.351t1.365-.575h20.147q.776 0 1.351.575t.575 1.351v20.147q0 .803-.575 1.365t-1.378.562v0z" ></path>
</symbol>
<symbol viewBox="0 0 24 24" id="StepListClose">
    <path         style="stroke-width:1;stroke-linecap:round;stroke-linejoin:round"
        d="M22.047 22.074v0 0-20.147 0h-20.12v0 20.147 0h20.12zM22.047 24h-20.12q-.803 0-1.365-.562t-.562-1.365v-20.147q0-.776.562-1.351t1.365-.575h20.147q.776 0 1.351.575t.575 1.351v20.147q0 .803-.575 1.365t-1.378.562v0zM17.873 11.023h-11.826q-.375 0-.669.281t-.294.682v0q0 .401.294 .682t.669.281h11.826q.375 0 .669-.281t.294-.682v0q0-.401-.294-.682t-.669-.281z" ></path>
</symbol>
<symbol viewBox="0 0 24 24" id="Stats">
    <path         style="stroke-width:1;stroke-linecap:round;stroke-linejoin:round"
        d="M19.9 18.5a4.5 4.5 0 1 0-1.4 1.4l3 3.1 1.5-1.4-3.1-3.1zm-3.8 0a2.5 2.5 0 1 1 0-5 2.5 2.5 0 0 1 0 5zm-.4-8.4c-.7 0-1.4.2-2 .4l-.6-.8-3.8 6.2-3-3.5-3.7 5.8L1 17l5-8 3 3.5L13 6l2.7 4zm2.6.5a6 6 0 0 0-2-.5l5-8.1L23 3.2l-4.7 7.4z" ></path>
</symbol>
<symbol viewBox="0 0 24 24" id="Standard">
    <path         style="stroke-width:1;stroke-linecap:round;stroke-linejoin:round"
        d="M10.4 2.6 4.2 9v12.4h15.6V2.6h-9.4zM11.7 4h6.6v15.8H5.7V10h6V4zm-1.5.8v3.7H6.5L10.2 5Zm5.6 5.4-5.4 5.3-2.2-2.2c-.7-.7-1.7.4-1 1.1l3.2 3.2 6.4-6.4c.7-.7-.4-1.6-1-1z" ></path>
</symbol>
<symbol viewBox="0 0 24 24" id="Sort">
    <path         style="stroke-width:1;stroke-linecap:round;stroke-linejoin:round"
        d="M3 18h6v-2H3v2zM3 6v2h18V6H3zm0 7h12v-2H3v2z" ></path>
</symbol>
<symbol viewBox="0 0 24 24" id="SocialVideo">
    <path         style="stroke-width:1;stroke-linecap:round;stroke-linejoin:round"
        d="M18 10.5V6a2 2 0 0 0-2-2H4a2 2 0 0 0-2 2v12c0 1.1.9 2 2 2h12a2 2 0 0 0 2-2v-4.5l4 4v-11l-4 4zM10 8c1.1 0 2 .9 2 2s-.9 2-2 2-2-.9-2-2 .9-2 2-2zm4 8H6v-.6a2 2 0 0 1 1.2-1.8 7 7 0 0 1 5.6 0 2 2 0 0 1 1.2 1.8v.6z" ></path>
</symbol>
<symbol viewBox="0 0 24 24" id="SmartContract">
    <path         style="stroke-width:1;stroke-linecap:round;stroke-linejoin:round"
        d="M10.37 2.557C8.223 4.75 6.052 7.044 4.18 9.007c-.01 4.129 0 8.297 0 12.436h15.646V2.557H10.37zm1.312 1.511h6.632v15.864H5.691v-9.793h5.946l.006-.75.039-5.32zm-1.518.881-.027 3.678H6.643c1.18-1.232 2.351-2.46 3.521-3.678zm-.48 7.563c-1.304 0-2.426 1.103-2.426 2.455A2.459 2.459 0 0 0 9.71 17.42l1.385.002c.565.003.575-.873.004-.873H9.71a1.57 1.57 0 0 1-1.581-1.582c0-.884.698-1.583 1.582-1.582l1.367.002c.616 0 .608-.872-.006-.875H9.684zm4.605 0-1.346.008c-.748 0-.731.86.002.863l1.344.002a1.57 1.57 0 0 1 1.582 1.582 1.57 1.57 0 0 1-1.582 1.582l-1.383-.002c-.583 0-.572.869-.004.871l1.387.002a2.457 2.457 0 0 0 2.453-2.453 2.459 2.459 0 0 0-2.453-2.455zm-4.451 2.017c-.584 0-.582.858 0 .873h4.324c.56-.01.544-.848 0-.873H9.838z" ></path>
</symbol>
<symbol viewBox="0 0 24 24" id="Slider">
    <path         style="stroke-width:1;stroke-linecap:round;stroke-linejoin:round"
        d="M19.5 9.5c-1.03 0-1.9.62-2.29 1.5h-2.92c-.39-.88-1.26-1.5-2.29-1.5s-1.9.62-2.29 1.5H6.79c-.39-.88-1.26-1.5-2.29-1.5C3.12 9.5 2 10.62 2 12s1.12 2.5 2.5 2.5c1.03 0 1.9-.62 2.29-1.5h2.92c.39.88 1.26 1.5 2.29 1.5s1.9-.62 2.29-1.5h2.92c.39.88 1.26 1.5 2.29 1.5 1.38 0 2.5-1.12 2.5-2.5s-1.12-2.5-2.5-2.5" ></path>
</symbol>
<symbol viewBox="0 0 24 24" id="Shortcut">
    <path         style="stroke-width:1;stroke-linecap:round;stroke-linejoin:round"
        d="M3.2 7.8v4.6c0 1 .7 1.7 1.7 1.7H15l-.8.9c-1.5 1.7 1 4 2.5 2.4l3.5-3.7c.7-.7.7-1.7 0-2.5l-3.5-3.6C15 6 12.6 8.3 14.2 10l.8.8H6.6v-3c0-2-3.4-2-3.4 0Z" ></path>
</symbol>
<symbol viewBox="0 0 24 24" id="ShoppingCart">
    <path         style="stroke-width:1;stroke-linecap:round;stroke-linejoin:round"
        d="M7 18c-1.1 0-1.99.9-1.99 2S5.9 22 7 22s2-.9 2-2-.9-2-2-2zM1 2v2h2l3.6 7.59-1.35 2.45c-.16.28-.25.61-.25.96 0 1.1.9 2 2 2h12v-2H7.42c-.14 0-.25-.11-.25-.25l.03-.12.9-1.63h7.45c.75 0 1.41-.41 1.75-1.03l3.58-6.49c.08-.14.12-.31.12-.48 0-.55-.45-1-1-1H5.21l-.94-2H1zm16 16c-1.1 0-1.99.9-1.99 2s.89 2 1.99 2 2-.9 2-2-.9-2-2-2z" ></path>
</symbol>
<symbol viewBox="0 0 24 24" id="Share">
    <path         style="stroke-width:1;stroke-linecap:round;stroke-linejoin:round"
        d="M18.65723 1.1914a2.72266 2.72266 0 0 0-2.72266 2.72266 2.72266 2.72266 0 0 0 .16211.9043l-8.97852 5.22851a2.72266 2.72266 0 0 0-1.89843-.76953A2.72266 2.72266 0 0 0 2.49707 12a2.72266 2.72266 0 0 0 2.72266 2.72266 2.72266 2.72266 0 0 0 1.88086-.75391l9.02148 5.56055a2.72266 2.72266 0 0 0-.06445.55664 2.72266 2.72266 0 0 0 2.72266 2.72265 2.72266 2.72266 0 0 0 2.72265-2.72265 2.72266 2.72266 0 0 0-2.72265-2.72266 2.72266 2.72266 0 0 0-1.94727.83008l-8.9707-5.5293v-.002A2.72266 2.72266 0 0 0 7.94237 12a2.72266 2.72266 0 0 0-.07617-.64063l9.11719-5.30664a2.72266 2.72266 0 0 0 1.67383.58399 2.72266 2.72266 0 0 0 2.72265-2.72266 2.72266 2.72266 0 0 0-2.72265-2.72265z" ></path>
</symbol>
<symbol viewBox="0 0 24 24" id="Settings">
    <path         style="stroke-width:1;stroke-linecap:round;stroke-linejoin:round"
        d="m15.72 2.497-2.488 1.84A7.773 7.773 0 0 0 12 4.234a7.773 7.773 0 0 0-1.284.12L8.22 2.544a10.215 10.215 0 0 0-2.595 1.507l.347 3.072A7.773 7.773 0 0 0 4.74 9.29l-2.85 1.271a10.215 10.215 0 0 0-.105 1.447 10.215 10.215 0 0 0 .122 1.534l2.855 1.245a7.773 7.773 0 0 0 1.253 2.162l-.321 3.067A10.215 10.215 0 0 0 8.3 21.503l2.475-1.828a7.773 7.773 0 0 0 1.224.107 7.773 7.773 0 0 0 1.284-.12l2.496 1.81a10.215 10.215 0 0 0 2.595-1.507l-.347-3.07a7.773 7.773 0 0 0 1.233-2.168l2.85-1.271a10.215 10.215 0 0 0 .105-1.448 10.215 10.215 0 0 0-.116-1.531l-2.84-1.24a7.773 7.773 0 0 0-1.272-2.184l.321-3.075a10.215 10.215 0 0 0-2.59-1.48ZM12 8.171a3.839 3.839 0 0 1 3.838 3.837A3.839 3.839 0 0 1 12 15.846a3.839 3.839 0 0 1-3.838-3.838A3.839 3.839 0 0 1 12 8.171z" ></path>
</symbol>
<symbol viewBox="0 0 24 24" id="Send">
    <path         style="stroke-width:1;stroke-linecap:round;stroke-linejoin:round"
        d="M2.01 21 23 12 2.01 3 2 10l15 2-15 2z" ></path>
</symbol>
<symbol viewBox="0 0 24 24" id="Search">
    <path         style="stroke-width:1;stroke-linecap:round;stroke-linejoin:round"
        d="M9.3 3.63a5.67 5.67 0 0 0-4.01 9.7 5.64 5.64 0 0 0 7.46.4l6.45 6.44a.69.69 0 0 0 .97 0 .69.69 0 0 0 0-.97l-6.45-6.45a5.64 5.64 0 0 0-.39-7.46 5.67 5.67 0 0 0-4.02-1.67ZM9.3 5a4.3 4.3 0 1 1-3.05 7.36A4.3 4.3 0 0 1 9.32 5z" ></path>
</symbol>
<symbol viewBox="0 0 24 24" id="Schedule">
    <path         style="stroke-width:1;stroke-linecap:round;stroke-linejoin:round"
        d="M17 12h-5v5h5v-5zM16 1v2H8V1H6v2H5c-1.11 0-1.99.9-1.99 2L3 19c0 1.1.89 2 2 2h14c1.1 0 2-.9 2-2V5c0-1.1-.9-2-2-2h-1V1h-2zm3 18H5V8h14v11z" ></path>
</symbol>
<symbol viewBox="0 0 24 24" id="Save">
    <path         style="stroke-width:1;stroke-linecap:round;stroke-linejoin:round"
        d="m10.99.68-.03 1.62c-4.59.66-8.73 4.77-8.73 9.7a9.77 9.77 0 0 0 2.96 7 .94.94 0 1 0 1.32-1.35A7.88 7.88 0 0 1 11 4.2v2.18l3.18-2.85L10.99.68Zm7.55 4.41a.94.94 0 0 0-.74 1.59 7.87 7.87 0 0 1-4.09 13v-2.26l-3.18 2.85 3.18 2.85c.03-.01.02-1.6.02-1.6 4.48-.98 8.04-4.93 8.04-9.52 0-2.44-.92-4.8-2.57-6.6a.94.94 0 0 0-.66-.3Zm-2.32 3.34c-.21 0-.43.08-.63.24l-5.19 5.16-2-1.99c-.79-.84-2.17.47-1.32 1.34l3.32 3.3 6.52-6.46c.7-.8.05-1.63-.7-1.6Z" ></path>
</symbol>
<symbol viewBox="0 0 24 24" id="Research">
    <path         style="stroke-width:1;stroke-linecap:round;stroke-linejoin:round"
        d="M8.85 1.96c-.92 0-1.5.61-1.04 1.1l1.54 1.67v6.22l-6.08 8.13C2.3 20.38 3.49 22 5.4 22l13.17.04c1.92 0 3.12-1.6 2.17-2.9l-6.09-8.3V4.71l1.54-1.63c.46-.5-.11-1.11-1.03-1.11Z" ></path>
</symbol>
<symbol viewBox="0 0 24 24" id="Report">
    <path         style="stroke-width:1;stroke-linecap:round;stroke-linejoin:round"
        d="M4.21474 2.7357v18.5286h1.98364v-9.57794h6.02961v1.56006h7.55727V4.29575h-6.03887V2.7357Z" ></path>
</symbol>
<symbol viewBox="0 0 24 24" id="Reply">
    <path         style="stroke-width:1;stroke-linecap:round;stroke-linejoin:round"
        d="M10 9V5l-7 7 7 7v-4.1c5 0 8.5 1.6 11 5.1-1-5-4-10-11-11z" ></path>
</symbol>
<symbol viewBox="0 0 24 24" id="Reorder">
    <path         style="stroke-width:1;stroke-linecap:round;stroke-linejoin:round"
        d="M6.91 4.54v1.52c-3.16.51-5.68 2.86-5.68 5.92 0 3.07 2.54 5.42 5.71 5.92v1.56l3.88-2.35-3.88-2.36v1.27c-2.21-.46-3.82-2.1-3.82-4.04s1.6-3.57 3.8-4.03v1.3l3.87-2.36L6.9 4.54Zm5.34 1.31c-1.36 0-1.3 1.87 0 1.9h9.5c1.31-.02 1.33-1.9 0-1.9zm0 5.19a.95.95 0 0 0 0 1.89h9.5c1.4.03 1.3-1.87 0-1.9zm0 5.18c-1.34-.02-1.13 1.88 0 1.89h9.5c1.4-.01 1.31-1.8 0-1.9z" ></path>
</symbol>
<symbol viewBox="0 0 24 24" id="Reminder">
    <path         style="stroke-width:1;stroke-linecap:round;stroke-linejoin:round"
        d="M3.89 3.04a1.93 1.93 0 0 0-1.93 1.93A1.93 1.93 0 0 0 3.89 6.9a1.93 1.93 0 0 0 1.93-1.93 1.93 1.93 0 0 0-1.93-1.93Zm4.23.61V6.3H20.7V3.65h-1.32zM17.13 8a1.5 1.5 0 0 0-1.49 1.4c-1.72.46-2.97 1.83-2.97 3.47v4.25c.02.23-.32.49-.46.66-.28.35-.38.89-.04.9 1.93.04 7.71.06 9.55.03.5 0 .6-.5.25-.96-.12-.17-.47-.4-.45-.63v-4.25c0-1.61-1.2-2.97-2.89-3.44A1.5 1.5 0 0 0 17.13 8ZM3.76 9.2a1.93 1.93 0 0 0-1.93 1.93 1.93 1.93 0 0 0 1.93 1.93 1.93 1.93 0 0 0 1.92-1.93A1.93 1.93 0 0 0 3.76 9.2Zm4.36.6v2.65h3V9.81Zm-4.24 5.56a1.93 1.93 0 0 0-1.93 1.93 1.93 1.93 0 0 0 1.93 1.93 1.93 1.93 0 0 0 1.93-1.93 1.93 1.93 0 0 0-1.93-1.93Zm4.24.57v2.65h3v-2.65zm7.15 3.4a1.8 1.8 0 0 0 1.8 1.63 1.8 1.8 0 0 0 1.79-1.64z" ></path>
</symbol>
<symbol viewBox="0 0 24 24" id="Refresh">
    <path         style="stroke-width:1;stroke-linecap:round;stroke-linejoin:round"
        d="M11 .7v1.6A10 10 0 0 0 2.2 12c0 2.6 1.1 5.2 3 7 1 1 2.3-.4 1.3-1.3A7.9 7.9 0 0 1 11 4.2v2.2l3.2-2.9L11 .7Zm6.8 6a7.9 7.9 0 0 1-4 13v-2.3l-3.3 2.9 3.2 2.8v-1.8c5.3-.5 8-5.6 8-9.3a10 10 0 0 0-2.5-6.6c-1-1-2.2 0-1.4 1.3Z" ></path>
</symbol>
<symbol viewBox="0 0 24 24" id="Redo">
    <path         style="stroke-width:1;stroke-linecap:round;stroke-linejoin:round"
        d="M10.8 8.9a9 9 0 0 0-2.6.7c-3.2 1.4-5 4-5 4-1 1 .6 2.2 1.5 1.1 0 0 1.7-2.3 4.2-3.4 1.3-.5 2.7-.8 4.4-.4 1 .3 2 .9 3 1.7l-3 2.6H21V9l-3.2 2.4a11 11 0 0 0-4-2.3 7.9 7.9 0 0 0-3-.2" ></path>
</symbol>
<symbol viewBox="0 0 24 24" id="Redirect">
    <path         style="stroke-width:1;stroke-linecap:round;stroke-linejoin:round"
        d="M3.7 12.3a1 1 0 0 1 1.4 0l.9.9V9a6 6 0 0 1 12 0v11c0 .6-.5 1-1 1s-1-.5-1-1V9a4 4 0 1 0-8 0v4.2l.9-1a1 1 0 1 1 1.4 1.5l-2.6 2.6a1 1 0 0 1-1.4 0l-2.6-2.6a1 1 0 0 1 0-1.4z" ></path>
</symbol>
<symbol viewBox="0 0 24 24" id="QrCode">
    <path         style="stroke-width:1;stroke-linecap:round;stroke-linejoin:round"
        d="M3 11h8V3H3v8zm2-6h4v4H5V5zM3 21h8v-8H3v8zm2-6h4v4H5v-4zm8-12v8h8V3h-8zm6 6h-4V5h4v4zm0 10h2v2h-2zm-6-6h2v2h-2zm2 2h2v2h-2zm-2 2h2v2h-2zm2 2h2v2h-2zm2-2h2v2h-2zm0-4h2v2h-2zm2 2h2v2h-2z" ></path>
</symbol>
<symbol viewBox="0 0 24 24" id="Proposal">
    <path         style="stroke-width:1;stroke-linecap:round;stroke-linejoin:round"
        d="M18 13h-.68l-2 2h1.91L19 17H5l1.78-2h2.05l-2-2H6l-3 3v4c0 1.1.89 2 1.99 2H19c1.1 0 2-.89 2-2v-4l-3-3zm-1-5.05-4.95 4.95-3.54-3.54 4.95-4.95L17 7.95zm-4.24-5.66L6.39 8.66c-.39.39-.39 1.02 0 1.41l4.95 4.95c.39.39 1.02.39 1.41 0l6.36-6.36c.39-.39.39-1.02 0-1.41L14.16 2.3c-.38-.4-1.01-.4-1.4-.01z" ></path>
</symbol>
<symbol viewBox="0 0 24 24" id="Project">
    <path         style="stroke-width:1;stroke-linecap:round;stroke-linejoin:round"
        d="m6.6 4-4.1 7h8.3Zm11.2 0a3.7 3.7 0 0 0-3.6 3.6 3.7 3.7 0 0 0 3.6 3.7 3.7 3.7 0 0 0 3.7-3.7A3.7 3.7 0 0 0 17.8 4zm-9.4 8.9V20h7.2v-7z" ></path>
</symbol>
<symbol viewBox="0 0 24 24" id="Profile">
    <path         style="stroke-width:1;stroke-linecap:round;stroke-linejoin:round"
        d="M12 4.6A3.78 3.78 0 0 0 8.5 6.93 3.8 3.8 0 0 0 10.95 12a3.8 3.8 0 0 0 4.76-3A3.8 3.8 0 0 0 12 4.6zm-.08 8.9a9.9 9.9 0 0 0-7.1 2.94 8.46 8.46 0 0 0 4.9 3.7 8.46 8.46 0 0 0 9.4-3.62 9.9 9.9 0 0 0-7.2-3.03z" ></path>
</symbol>
<symbol viewBox="0 0 24 24" id="Premium">
    <path         style="stroke-width:1;stroke-linecap:round;stroke-linejoin:round"
        d="M14.03.7c-.78.04-1.48.62-2.23.8-.89.04-1.57-.77-2.46-.77-1-.09-1.42.94-1.67 1.72-.14.73-.61 1.24-1.34 1.38-.72.25-1.68.6-1.74 1.5-.06.93.71 1.67.81 2.56-.14.94-1 1.75-.73 2.75.23.78 1.04.99 1.75 1.24l-3.69 8.49a.57.57 0 0 0 .7.76l2.89-.97 1.26 2.8a.57.57 0 0 0 1.04 0L12 15.24l3.38 7.72a.57.57 0 0 0 1.04 0l1.26-2.8 2.89.97a.57.57 0 0 0 .7-.76l-3.81-8.7c.66-.23 1.44-.71 1.37-1.52-.04-.87-.72-1.56-.81-2.4.14-.95 1-1.75.73-2.75-.28-.93-1.38-1.05-2.14-1.4-.72-.14-.78-.95-1.04-1.5-.2-.52-.47-1.08-1-1.32a1.53 1.53 0 0 0-.54-.08Zm0 1.2c.12 0 .22.03.3.1.62.82.37 1.91 1.35 2.45.54.47 1.95.32 1.93 1.14-.26.9-1.06 1.78-.68 2.78.08.66 1.23 1.63.45 2.1-.82.4-1.95.5-2.37 1.44-.41.52-.28 2.01-1.16 1.78-.87-.28-1.73-1.02-2.7-.65-.65.08-1.6 1.22-2.08.46-.4-.8-.48-1.87-1.36-2.32-.53-.47-2.1-.31-1.88-1.22.3-.87 1.02-1.73.65-2.7-.07-.65-1.2-1.6-.45-2.08.8-.4 1.87-.48 2.32-1.36.47-.53.31-2.09 1.22-1.88.87.3 1.73 1.03 2.69.66.53-.17 1.28-.72 1.78-.7Zm2.37 10.2 3.31 7.55-2.15-.73a.57.57 0 0 0-.7.3l-.95 2.11-2.97-6.77c.5.24 1.02.46 1.6.3.91-.28 1.04-1.38 1.39-2.14.06-.3.24-.5.47-.62zm-9 .36c.2.32.3.75.45 1.09.23.66.71 1.46 1.53 1.39.65-.03 1.2-.42 1.8-.65l-3.09 7.04-.95-2.1a.57.57 0 0 0-.7-.31l-2.16.73z" ></path>
</symbol>
<symbol viewBox="0 0 24 24" id="Plus">
    <path         style="stroke-width:1;stroke-linecap:round;stroke-linejoin:round"
        d="M13.51172 4.91206C13.51167 4.19478 12.83488 3.61332 12 3.61328c-.83488.00004-1.51167.5815-1.51172 1.29878v14.17588c.00005.71728.67684 1.29874 1.51172 1.29878.83488-.00004 1.51167-.5815 1.51172-1.29878zm-8.59966 5.57622c-.71728.00005-1.29874.67684-1.29878 1.51172.00004.83488.5815 1.51167 1.29879 1.51172h14.17586c.71729-.00005 1.29875-.67684 1.29879-1.51172-.00004-.83488-.5815-1.51167-1.29878-1.51172z" ></path>
</symbol>
<symbol viewBox="0 0 24 24" id="Play">
    <path         style="stroke-width:1;stroke-linecap:round;stroke-linejoin:round"
        d="M5.66691 2.59005c-.29189.16894-.4718.4812-.47198.81923v17.1816c.00002.7289.78694 1.18419 1.41595.81924l14.83414-8.59006c.6298-.36413.6298-1.27582 0-1.63995L6.61088 2.59005a.94103.94103 0 0 0-.94397 0z" ></path>
</symbol>
<symbol viewBox="0 0 24 24" id="Phone">
    <path         style="stroke-width:1;stroke-linecap:round;stroke-linejoin:round"
        d="M7.13 2.47c-.8 0-1.45.65-1.45 1.44v16.18c0 .79.66 1.44 1.45 1.44h9.74c.8 0 1.45-.65 1.45-1.44V3.91c0-.79-.66-1.44-1.45-1.44Zm2.23.9h5.28c.16 0 .29.12.29.28 0 .16-.13.29-.29.29H9.36a.28.28 0 1 1 0-.57zM6.82 4.79h10.36v13.88H6.82ZM12 19.29a.86.86 0 0 1 .86.86.86.86 0 0 1-.86.86.86.86 0 0 1-.86-.86.86.86 0 0 1 .86-.86Z" ></path>
</symbol>
<symbol viewBox="0 0 24 24" id="Persona">
    <path         style="stroke-width:1;stroke-linecap:round;stroke-linejoin:round"
        d="M14.4 10a1.4 1.4 0 0 1-1.4 1.3 1.4 1.4 0 0 1-1.4-1.4A1.4 1.4 0 0 1 13 8.6a1.4 1.4 0 0 1 1.4 1.3M13 3a7 7 0 0 0-7 6.6l-1.9 2.6c-.2.3 0 .8.4.8H6v3c0 1.1.9 2 2 2h1v3h7v-4.7A7 7 0 0 0 13 3Zm3 7v.4l.8.7s.1.1 0 .2l-.7 1.4h-.3l-1-.3a3 3 0 0 1-.6.4l-.2 1-.2.2h-1.6c-.1 0-.2 0-.2-.2l-.1-1-.7-.4-1 .4-.3-.1-.8-1.4V11l1-.6-.1-.4v-.4L9.2 9s-.1-.1 0-.2l.7-1.4h.3l1 .3.7-.4.1-1 .2-.2h1.6c.1 0 .2 0 .2.2l.1 1 .7.4 1-.4.3.1.8 1.4V9l-1 .6.1.4Z" ></path>
</symbol>
<symbol viewBox="0 0 24 24" id="Pause">
    <path         style="stroke-width:1;stroke-linecap:round;stroke-linejoin:round"
        d="M16.46164 3.417a1.88976 1.88976 0 0 0-1.88867 1.88866v13.38672a1.88976 1.88976 0 0 0 1.88867 1.89063 1.88976 1.88976 0 0 0 1.89063-1.89063V5.30566A1.88976 1.88976 0 0 0 16.46164 3.417Zm-8.92523 0a1.88976 1.88976 0 0 0-1.88868 1.88866v13.38672a1.88976 1.88976 0 0 0 1.88868 1.89063 1.88976 1.88976 0 0 0 1.89062-1.89063V5.30566A1.88976 1.88976 0 0 0 7.5364 3.417Z" ></path>
</symbol>
<symbol viewBox="0 0 24 24" id="OpenThread">
    <path         style="stroke-width:1;stroke-linecap:round;stroke-linejoin:round"
        d="M12 5.8 15.9 9c1.2 1 2.6-.7 1.7-1.4L12 3 6.4 7.6C5.5 8.3 7 9.9 8 9Zm0 12.4L8.1 15c-1.1-1-2.7.6-1.7 1.4L12 21l5.6-4.6c.9-.7-.4-2.4-1.7-1.4Z" ></path>
</symbol>
<symbol viewBox="0 0 24 24" id="OpenInNew">
    <path         style="stroke-width:1;stroke-linecap:round;stroke-linejoin:round"
        d="M19 19H5V5h6.6V3H5a2 2 0 0 0-2 2v14c0 1.1.9 2 2 2h14a2 2 0 0 0 2-2v-6.4h-2ZM14 3c-.8 0-.8 2 0 2h3.6l-7.8 7.8c0 1 .4 1.4 1.4 1.4L19 6.4V10c0 .8 2 .8 2 0V3Z" ></path>
</symbol>
<symbol viewBox="0 0 24 24" id="Object">
    <path         style="stroke-width:1;stroke-linecap:round;stroke-linejoin:round"
        d="M4 7v2a1 1 0 0 1-1 1s-1 .04-1 2 1 2 1 2a1 1 0 0 1 1 1v2a3 3 0 0 0 3 3h3v-2H7a1 1 0 0 1-1-1v-2c0-1.3-.84-2.42-2-2.83v-.34C5.16 11.42 6 10.3 6 9V7a1 1 0 0 1 1-1h3V4H7a3 3 0 0 0-3 3Zm17 3a1 1 0 0 1-1-1V7a3 3 0 0 0-3-3h-3v2h3a1 1 0 0 1 1 1v2c0 1.3.84 2.42 2 2.83v.34A3 3 0 0 0 18 15v2a1 1 0 0 1-1 1h-3v2h3a3 3 0 0 0 3-3v-2a1 1 0 0 1 1-1s1-.04 1-2-1-2-1-2z"
    ></path>
</symbol>
<symbol viewBox="0 0 24 24" id="Number">
    <path         style="stroke-width:1;stroke-linecap:round;stroke-linejoin:round"
        d="M19.01 3h-14c-1.1 0-2 .9-2 2v14c0 1.1.9 2 2 2h14c1.1 0 2-.9 2-2V5c0-1.1-.9-2-2-2m-4 7.5c0 .83-.67 1.5-1.5 1.5.83 0 1.5.67 1.5 1.5V15c0 1.11-.9 2-2 2h-4v-2h4v-2h-2v-2h2V9h-4V7h4c1.1 0 2 .89 2 2z" ></path>
</symbol>
<symbol viewBox="0 0 24 24" id="NotificationsOff">
    <path         style="stroke-width:1;stroke-linecap:round;stroke-linejoin:round"
        d="M12.09766 2.47266c-1.16302.00313-2.12287.90943-2.19336 2.0703-2.5334.66731-4.36524 2.68841-4.36524 5.0918v6.24415c.0264.33532-.46649.71441-.66992.96875-.41235.51552-.56028 1.30897-.07031 1.3203 2.84526.06587 11.33778.09398 14.04492.05079.72415-.01156.8718-.73291.3711-1.41211-.1881-.25516-.70441-.58543-.66407-.92773V9.63477c0-2.36725-1.7777-4.36142-4.25195-5.0586-.05396-1.17637-1.02356-2.10308-2.20117-2.10351Zm0 .9453c.68147.00127 1.22462.52015 1.25586 1.20118a.94497.94497 0 0 0 .6875.86523c2.13515.60164 3.56445 2.25627 3.56445 4.1504v6.24414l.0059-.10938c-.07917.67176.2919 1.03664.4961 1.2539.14866.15819.20362.2064.25195.25-2.73254.03392-9.37081.0067-12.55664-.04687.07361-.07632.10136-.09916.20117-.21484.19774-.2292.52607-.55335.4746-1.20704l.00392.07422V9.63477c0-1.9232 1.47462-3.60155 3.6621-4.17774a.94497.94497 0 0 0 .70118-.85742c.04079-.67165.57933-1.17884 1.25195-1.18164zM9.36523 19.11524a2.653 2.653 0 0 0 2.63282 2.41211 2.653 2.653 0 0 0 2.63672-2.4121zm1.44727.94532h2.375c-.3084.31279-.71366.52003-1.18945.52148-.47443-.0021-.87773-.20982-1.18555-.52148z" ></path>
</symbol>
<symbol viewBox="0 0 24 24" id="NotificationsCustomized">
    <path         style="stroke-width:1;stroke-linecap:round;stroke-linejoin:round"
        d="M12.09782 2.47237c-1.16302.00313-2.12344.90944-2.19393 2.07033-2.5334.6673-4.36555 2.6883-4.36555 5.0917v6.24532c.0264.33533-.46607.71388-.6695.96821-.41235.51553-.56035 1.3088-.07039 1.32014 2.84527.06586 11.33881.09469 14.04596.0515.72415-.01156.8715-.73364.3708-1.41284-.1881-.25516-.7047-.5847-.66435-.92701V9.6344c0-2.36724-1.77799-4.3619-4.25225-5.05908-.05395-1.17638-1.02318-2.10252-2.2008-2.10295ZM9.36485 19.11568a2.653 2.653 0 0 0 2.6334 2.41195 2.653 2.653 0 0 0 2.63684-2.41195z" ></path>
</symbol>
<symbol viewBox="0 0 24 24" id="NotificationsAll">
    <path         style="stroke-width:1;stroke-linecap:round;stroke-linejoin:round"
        d="M12.09766 2.47266c-1.16302.00313-2.12287.90943-2.19336 2.0703-2.5334.66731-4.36524 2.68841-4.36524 5.0918v6.24415c.0264.33532-.46649.71441-.66992.96875-.41234.51552-.56027 1.30897-.07031 1.3203 2.84526.06587 11.33778.09398 14.04492.05079.72415-.01156.8718-.73291.3711-1.41211-.1881-.25516-.70441-.58543-.66407-.92773V9.63477c0-2.36725-1.7777-4.36142-4.25195-5.0586-.05396-1.17637-1.02356-2.10308-2.20117-2.10351Zm4.30664.49609a.7559.7559 0 0 0-.1914.04492.7559.7559 0 0 0-.42384.39258.7559.7559 0 0 0 .3711 1.00195s2.05422.97064 2.76367 3.1172a.7559.7559 0 0 0 .95508.48046.7559.7559 0 0 0 .48046-.95313c-.93694-2.83485-3.56835-4.01757-3.56835-4.01757a.7559.7559 0 0 0-.38672-.06641Zm-8.8086.01367a.7559.7559 0 0 0-.38672.0664s-2.63141 1.18274-3.56835 4.0176a.7559.7559 0 0 0 .48046.95507.7559.7559 0 0 0 .95508-.48046c.70945-2.14655 2.76367-3.1172 2.76367-3.1172a.7559.7559 0 0 0 .3711-1.0039.7559.7559 0 0 0-.42383-.39258.7559.7559 0 0 0-.1914-.04492Zm1.76953 16.13281a2.653 2.653 0 0 0 2.63282 2.41211 2.653 2.653 0 0 0 2.63672-2.4121z" ></path>
</symbol>
<symbol viewBox="0 0 24 24" id="Note">
    <path         style="stroke-width:1;stroke-linecap:round;stroke-linejoin:round"
        d="M5.36 2.52c-.46 0-.86.4-.86.85v17.25c0 .47.4.86.86.86h5.06c.8 0 .89-1.5 0-1.51h-4.4V4.03h11.97v6.48c0 .8 1.5.88 1.5 0V3.37a.86.86 0 0 0-.85-.85zm2.63 3.64c-1.01 0-1 1.5 0 1.51h7.42c1.05.02 1-1.5 0-1.51zm0 3.56c-1.05.01-1.06 1.5 0 1.5h7.42c1.16.02 1.1-1.51 0-1.5zm12.13 1.82-1.04 1.05 1.67 1.67 1.04-1.05c.26-.24.27-.43 0-.72l-.95-.95c-.3-.3-.45-.25-.72 0zm-1.56 1.58-6.07 6.07-.61 2.27 2.25-.6 6.08-6.09zM8 13.28c-1.05 0-1.13 1.5 0 1.5h5.47a.76.76 0 0 0 0-1.5z" ></path>
</symbol>
<symbol viewBox="0 0 24 24" id="NoAction">
    <path         style="stroke-width:1;stroke-linecap:round;stroke-linejoin:round"
        d="M12 2.4a9.6 9.6 0 1 0 0 19.2 9.6 9.6 0 0 0 0-19.2ZM12 4A8 8 0 1 1 12 20a8 8 0 0 1 0-16Z" ></path>
</symbol>
<symbol viewBox="0 0 24 24" id="MoveUpDown">
    <path         style="stroke-width:1;stroke-linecap:round;stroke-linejoin:round"
        d="M12.23 1.65c-.76.03-1.42.96-.66 1.72l1.58 1.58c-4.25.9-6.08 4.1-6.17 7.01a7 7 0 0 0 6.2 6.96c-.42.48-1.06 1.2-1.57 1.7-1.03 1.03.49 2.34 1.4 1.42l4-4-4-4c-.71-.72-2.26.55-1.4 1.4l1.4 1.43a5 5 0 0 1 .05-9.82l-1.49 1.5c-.85.86.7 2.13 1.41 1.41l4-4-4-4a1 1 0 0 0-.75-.31Z" ></path>
</symbol>
<symbol viewBox="0 0 24 24" id="MoveUp">
    <path         style="stroke-width:1;stroke-linecap:round;stroke-linejoin:round"
        d="M6.8 3.3a1 1 0 0 0-.6 1.8l1.6 1.5c-4.3 1-6.1 4.2-6.2 7a7 7 0 0 0 7 7h3v-2h-3a5 5 0 0 1-1-9.9l-1.4 1.5c-.9 1 .7 2.2 1.4 1.5l4-4-4-4a1 1 0 0 0-.8-.4Zm6.6 1.4v7h9v-7Zm0 9v7h9v-7zm2 2h5v3h-5z" ></path>
</symbol>
<symbol viewBox="0 0 24 24" id="MoveRight">
    <path         style="stroke-width:1;stroke-linecap:round;stroke-linejoin:round"
        d="M10.34 1.5a7 7 0 0 0-7 7v3h2v-3a5 5 0 0 1 9.91-.92l-1.5-1.5c-.86-.85-2.13.7-1.4 1.42l4 4 4-4c.91-.92-.4-2.43-1.42-1.41l-1.58 1.58c-.89-4.26-4.1-6.1-7-6.17Zm2.81 13v7h8.5v-7zm-9.8.03v7h8.18v-7zm11.7 1.97h4.72v3h-4.73z" ></path>
</symbol>
<symbol viewBox="0 0 24 24" id="MoveLeftRight">
    <path         style="stroke-width:1;stroke-linecap:round;stroke-linejoin:round"
        d="M12.04 1.5a7 7 0 0 0-6.96 6.2c-.48-.43-1.2-1.07-1.7-1.58-1.03-1.03-2.34.49-1.42 1.4l4 4 4-4c.72-.71-.55-2.26-1.4-1.4l-1.43 1.4a5 5 0 0 1 9.82.05l-1.5-1.49c-.86-.85-2.13.7-1.41 1.41l4 4 4-4a1 1 0 0 0 .31-.75c-.03-.76-.96-1.42-1.72-.66l-1.58 1.58c-.9-4.25-4.1-6.08-7.01-6.17Zm1.11 13v7h8.5v-7zm-9.8.03v7h8.18v-7zm11.7 1.97h4.72v3h-4.73z" ></path>
</symbol>
<symbol viewBox="0 0 24 24" id="MoveLeft">
    <path         style="stroke-width:1;stroke-linecap:round;stroke-linejoin:round"
        d="M13.65 1.5c-2.9.08-6.11 1.9-7 6.17l-1.6-1.58c-1.02-1.02-2.32.49-1.4 1.4l3.98 4 4.01-4c.73-.71-.54-2.26-1.4-1.4l-1.5 1.49a5 5 0 0 1 9.9.92v3h2v-3a7 7 0 0 0-7-7zM3.35 14.53v7h8.18v-7zm9.8-.03v7h8.5v-7zm1.9 2h4.72v3h-4.73z" ></path>
</symbol>
<symbol viewBox="0 0 24 24" id="MoveDown">
    <path         style="stroke-width:1;stroke-linecap:round;stroke-linejoin:round"
        d="M13.5 3.34v7h9v-7Zm-5 0a7 7 0 0 0-7 7c.08 2.9 1.9 6.12 6.17 7.02l-1.58 1.58c-1.02 1.02.49 2.32 1.4 1.4l4-3.98-4-4.01c-.71-.72-2.26.54-1.4 1.4l1.49 1.5a5 5 0 0 1 .92-9.9h3v-2zm7 2h5v3h-5zm-2 7v7h9v-7z" ></path>
</symbol>
<symbol viewBox="0 0 24 24" id="Month">
    <path         style="stroke-width:1;stroke-linecap:round;stroke-linejoin:round"
        d="M5.43 3.85c-.87 0-1.58.7-1.58 1.58v13.14c0 .87.7 1.58 1.58 1.58h13.14c.87 0 1.58-.7 1.58-1.58V5.43c0-.87-.7-1.58-1.58-1.58zm1.7 1.3h9.75c.28 0 .5.22.5.5v.18a.5.5 0 0 1-.5.5H7.12a.5.5 0 0 1-.5-.5v-.18c0-.28.22-.5.5-.5zm1.2 3.65h1.58c.25 0 .46.21.46.47v1.57c0 .26-.2.46-.46.46H8.33a.46.46 0 0 1-.46-.46V9.27c0-.26.2-.47.46-.47zm2.88 0h1.58c.25 0 .46.21.46.47v1.57c0 .26-.2.46-.46.46H11.2a.46.46 0 0 1-.47-.46V9.27c0-.26.21-.47.47-.47zm2.88 0h1.57c.26 0 .47.21.47.47v1.57c0 .26-.21.46-.47.46H14.1a.46.46 0 0 1-.47-.46V9.27c0-.26.21-.47.47-.47zm2.87 0h1.58c.26 0 .46.21.46.47v1.57c0 .26-.2.46-.46.46h-1.58a.46.46 0 0 1-.46-.46V9.27c0-.26.2-.47.46-.47zm-11.5 3.08h1.57c.26 0 .46.2.46.46v1.58c0 .25-.2.46-.46.46H5.45a.46.46 0 0 1-.46-.46v-1.58c0-.26.2-.46.46-.46zm2.87 0h1.58c.25 0 .46.2.46.46v1.58c0 .25-.2.46-.46.46H8.33a.46.46 0 0 1-.46-.46v-1.58c0-.26.2-.46.46-.46zm2.88 0h1.58c.25 0 .46.2.46.46v1.58c0 .25-.2.46-.46.46H11.2a.46.46 0 0 1-.47-.46v-1.58c0-.26.21-.46.47-.46zm2.88 0h1.57c.26 0 .47.2.47.46v1.58c0 .25-.21.46-.47.46H14.1a.46.46 0 0 1-.47-.46v-1.58c0-.26.21-.46.47-.46zm2.87 0h1.58c.26 0 .46.2.46.46v1.58c0 .25-.2.46-.46.46h-1.58a.46.46 0 0 1-.46-.46v-1.58c0-.26.2-.46.46-.46zm-11.6 3.07h1.59c.25 0 .46.21.46.47v1.57c0 .26-.2.47-.46.47H5.37a.46.46 0 0 1-.46-.47v-1.57c0-.26.2-.47.46-.47zm2.89 0h1.57c.26 0 .47.21.47.47v1.57c0 .26-.21.47-.47.47H8.25a.46.46 0 0 1-.47-.47v-1.57c0-.26.21-.47.47-.47zm2.87 0h1.58c.26 0 .46.21.46.47v1.57c0 .26-.2.47-.46.47h-1.58a.46.46 0 0 1-.46-.47v-1.57c0-.26.2-.47.46-.47z" ></path>
</symbol>
<symbol viewBox="0 0 24 24" id="Minus">
    <path         style="stroke-width:1;stroke-linecap:round;stroke-linejoin:round"
        d="M4.9121 10.48828A1.29886 1.51181 0 0 0 3.61329 12a1.29886 1.51181 0 0 0 1.29883 1.51172H19.0879A1.29886 1.51181 0 0 0 20.38672 12a1.29886 1.51181 0 0 0-1.29883-1.51172Z" ></path>
</symbol>
<symbol viewBox="0 0 24 24" id="MicrophoneOn">
    <path         style="stroke-width:1;stroke-linecap:round;stroke-linejoin:round"
        d="M12 2.53c-2.7 0-4.6 1.85-4.6 4.12v5.62c0 2.27 1.9 4.12 4.6 4.12 2.7 0 4.6-1.85 4.6-4.12V6.65c0-2.27-1.9-4.12-4.6-4.12Zm7.52 10.81a.57.57 0 0 0-.73.34c-.9 2.48-2.93 4.3-6.79 4.3-3.87 0-5.76-1.66-6.8-4.31a.57.57 0 0 0-1.05.41c1.1 2.82 3.44 4.76 7.28 4.95v1.87a.57.57 0 1 0 1.14 0v-1.87c3.87-.2 6.3-2.25 7.29-4.96a.57.57 0 0 0-.34-.73z" ></path>
</symbol>
<symbol viewBox="0 0 24 24" id="MicrophoneOff">
    <path         style="stroke-width:1;stroke-linecap:round;stroke-linejoin:round"
        d="M12 2.53c-2.7 0-4.61 1.849-4.61 4.122v5.614c0 2.273 1.91 4.12 4.61 4.12s4.61-1.847 4.61-4.12V6.652C16.61 4.38 14.7 2.53 12 2.53Zm0 1.134c2.213 0 3.475 1.323 3.475 2.988v5.614c0 1.665-1.262 2.988-3.475 2.988s-3.475-1.323-3.475-2.988V6.652c0-1.665 1.262-2.988 3.475-2.988Zm7.52 9.678a.567.567 0 0 0-.727.34C17.896 16.16 15.86 17.97 12 17.97c-3.873 0-5.758-1.656-6.799-4.303a.567.567 0 0 0-.734-.32.567.567 0 0 0-.32.734c1.106 2.814 3.441 4.757 7.287 4.95v1.87a.567.567 0 0 0 .566.569.567.567 0 0 0 .566-.569v-1.875c3.87-.2 6.312-2.245 7.293-4.959a.567.567 0 0 0-.34-.726z" ></path>
</symbol>
<symbol viewBox="0 0 24 24" id="MicrophoneDisabled">
    <path         style="stroke-width:1;stroke-linecap:round;stroke-linejoin:round"
        d="M3.7 4.01a.57.57 0 0 0-.4.97l16.11 16.11a.57.57 0 0 0 .8-.8L4.11 4.18a.57.57 0 0 0-.4-.17ZM12 2.53c-2.41 0-4.27 1.51-4.48 3.41l1 1.07c0-2.24 2.04-3.31 3.48-3.35 2.21 0 3.47 1.33 3.47 3v5.6c0 .5-.1.96-.32 1.37l.8.8c.42-.63.66-1.37.66-2.16V6.65c0-2.27-1.9-4.12-4.61-4.12ZM7.4 8.65v3.62c0 2.27 1.9 4.12 4.6 4.12.95 0 1.8-.23 2.5-.63l-.82-.82c-.47.2-1.03.31-1.68.31-2.21 0-3.47-1.32-3.47-2.98V9.78ZM4.75 13.3a.57.57 0 0 0-.61.77c1.1 2.82 3.44 4.76 7.28 4.95v1.87a.57.57 0 1 0 1.14 0v-1.87a9.08 9.08 0 0 0 4.08-1.13l-.77-.77a8.26 8.26 0 0 1-3.88.84c-3.87 0-5.76-1.65-6.8-4.3a.57.57 0 0 0-.44-.36Zm14.03.37c-.3.85-.74 1.61-1.34 2.25l.76.77a7.26 7.26 0 0 0 1.65-2.63c.1-.3-.01-.59-.34-.73-.37-.15-.6.1-.73.34z" ></path>
</symbol>
<symbol viewBox="0 0 24 24" id="Magic">
    <path         style="stroke-width:1;stroke-linecap:round;stroke-linejoin:round"
        d="m20.13.83-1.38 3.04-3.33.12 3.04 1.38.12 3.33 1.38-3.03 3.33-.13-3.04-1.38-.12-3.33zm-14.02.19.78 2.9L4.64 5.9l2.9-.78 2 2.25-.78-2.9 2.24-2-2.9.78-1.99-2.24zM13.66 7c-.25 0-.5.1-.7.29L1.3 18.96a.99.99 0 0 0 0 1.4l1.9 1.86a1 1 0 0 0 1.4 0l11.66-11.66a1 1 0 0 0 0-1.41l-1.88-1.86a1 1 0 0 0-.7-.3zm0 1.22 1.59 1.55-2.44 2.44-1.59-1.55 2.44-2.44zm7.24 3.7-2.44 2.4-3.24-1.11 2.4 2.44-1.11 3.23 2.44-2.4 3.23 1.12-2.4-2.44 1.12-3.24z" ></path>
</symbol>
<symbol viewBox="0 0 24 24" id="LogOut">
    <path         style="stroke-width:1;stroke-linecap:round;stroke-linejoin:round"
        d="M5.98828 3.41602c-1.4837 0-2.60156 1.30973-2.60156 2.78906v11.5918c0 1.4803 1.11967 2.7871 2.60156 2.7871h7.73828a.89778.89778 0 0 0 .89844-.89648.89778.89778 0 0 0-.89844-.89844H5.98828c-.37905 0-.80469-.40777-.80469-.99218V6.20508c0-.58538.42408-.99414.8047-.99414h7.73827a.89778.89778 0 0 0 .89844-.89844.89778.89778 0 0 0-.89844-.89648Zm9.57617 3.63867a1.0145 1.0145 0 0 0-.60547.28906 1.0145 1.0145 0 0 0-.002 1.43555l2.23438 2.24414H9.86523a.9684.9684 0 0 0-.9668.9668.9684.9684 0 0 0 .9668.96874h7.3418l-2.25 2.26172a1.0145 1.0145 0 0 0 .002 1.43555 1.0145 1.0145 0 0 0 1.43555-.002l3.89844-3.91797a1.0145 1.0145 0 0 0 .18359-.2539 1.0145 1.0145 0 0 0 .0098-.01758.9684.9684 0 0 0 .12695-.47461.9684.9684 0 0 0-.16601-.5293 1.0145 1.0145 0 0 0-.0059-.0078 1.0145 1.0145 0 0 0-.14844-.18945L16.39453 7.3457a1.0145 1.0145 0 0 0-.83008-.29101Z" ></path>
</symbol>
<symbol viewBox="0 0 24 24" id="LogIn">
    <path         style="stroke-width:1;stroke-linecap:round;stroke-linejoin:round"
        d="M10.27413 3.4152a.89778.89778 0 0 0-.89819.8982.89778.89778 0 0 0 .8982.8982h7.7367c.38061 0 .8054.40745.8054.99283v11.593c0 .5844-.42635.99098-.8054.99098h-7.7367a.89778.89778 0 0 0-.8982.89819.89778.89778 0 0 0 .8982.8982h7.7367c1.4819 0 2.60179-1.30707 2.60179-2.78738V6.20443c0-1.47933-1.1181-2.78922-2.6018-2.78922zm-.22083 3.63917a1.0145 1.0145 0 0 0-.60498.2895 1.0145 1.0145 0 0 0-.0037 1.43451l2.23433 2.24549H4.35423a.9684.9684 0 0 0-.96686.96685.9684.9684 0 0 0 .96686.96871h7.34142l-2.25104 2.26219a1.0145 1.0145 0 0 0 .0037 1.4345 1.0145 1.0145 0 0 0 1.4345-.0019l3.89898-3.91752a1.0145 1.0145 0 0 0 .18372-.25424 1.0145 1.0145 0 0 0 .0093-.01856.9684.9684 0 0 0 .12619-.47322.9684.9684 0 0 0-.16516-.5289 1.0145 1.0145 0 0 0-.0056-.0093 1.0145 1.0145 0 0 0-.14846-.18929l-3.89895-3.91746a1.0145 1.0145 0 0 0-.82953-.29136Z" ></path>
</symbol>
<symbol viewBox="0 0 24 24" id="Lock">
    <path         style="stroke-width:1;stroke-linecap:round;stroke-linejoin:round"
        d="M18 8h-1V6c0-2.76-2.24-5-5-5S7 3.24 7 6v2H6c-1.1 0-2 .9-2 2v10c0 1.1.9 2 2 2h12c1.1 0 2-.9 2-2V10c0-1.1-.9-2-2-2zm-6 9c-1.1 0-2-.9-2-2s.9-2 2-2 2 .9 2 2-.9 2-2 2zm3.1-9H8.9V6c0-1.71 1.39-3.1 3.1-3.1 1.71 0 3.1 1.39 3.1 3.1v2z" ></path>
</symbol>
<symbol viewBox="0 0 24 24" id="Link">
    <path         style="stroke-width:1;stroke-linecap:round;stroke-linejoin:round"
        d="M1.72 12a5.33 5.33 0 0 0 5.32 5.32h3c1.22 0 1.25-1.9 0-1.9h-3A3.4 3.4 0 0 1 3.6 12a3.4 3.4 0 0 1 3.43-3.43H10c1.34 0 1.32-1.88-.01-1.9h-3A5.35 5.35 0 0 0 1.71 12Zm12.33-3.43h2.91A3.4 3.4 0 0 1 20.4 12a3.4 3.4 0 0 1-3.43 3.43h-3c-1.26 0-1.24 1.88 0 1.88h3a5.33 5.33 0 0 0 0-10.63l-2.91.01c-1.63 0-1.6 1.87 0 1.88zm-6.74 2.48c-1.26 0-1.26 1.86 0 1.9h9.38c1.21-.03 1.18-1.84 0-1.9z" ></path>
</symbol>
<symbol viewBox="0 0 24 24" id="LightMode">
    <path         style="stroke-width:1;stroke-linecap:round;stroke-linejoin:round"
        d="M11.52 1.37V5.3c0 .63 1 .64 1 0V1.37c0-.62-.99-.63-1 0zM4.65 5.22l2.31 2.34c.5.46 1.18-.29.72-.7L5.36 4.5c-.42-.4-1.14.26-.7.7Zm14.13-.62-2.35 2.3c-.55.57.17 1.21.71.72l2.34-2.32c.52-.57-.12-1.17-.7-.71Zm-6.76 2.19a5.2 5.2 0 1 0 .02 10.39 5.2 5.2 0 0 0-.02-10.4zm10.6 4.68H18.7c-.88-.02-.89 1 0 1h3.93c.73.01.78-.99 0-1zm-17.27 0-3.93.01c-.82 0-.83 1 0 1h3.93c.78 0 .76-1 0-1zm1.56 4.85-2.34 2.32c-.59.55.16 1.22.7.71l2.34-2.31c.5-.62-.1-1.23-.7-.72Zm9.46.77 2.31 2.35c.56.55 1.27-.18.72-.7l-2.31-2.35c-.44-.4-1.16.21-.72.7zm-4.85 1.56v3.93c0 .68 1 .7 1 0v-3.93c0-.7-.99-.68-1 0z" ></path>
</symbol>
<symbol viewBox="0 0 24 24" id="Learn">
    <path         style="stroke-width:1;stroke-linecap:round;stroke-linejoin:round"
        d="M12 3.88 1.99 8.93l10 5.05 8.52-4.3v5.89c0 1 1.51.96 1.51 0 .01 0-.02-6.13-.01-7.26zm-7.11 8.3v4.32h.01c1.85 1.9 4.25 3.49 6.98 3.62 2.83.13 5.53-1.43 7.32-3.55h.02v-4.33l-7.1 3.42-7.23-3.48Z" ></path>
</symbol>
<symbol viewBox="0 0 24 24" id="Launch">
    <path         style="stroke-width:1;stroke-linecap:round;stroke-linejoin:round"
        d="M9.19 6.35c-2.04 2.29-3.44 5.58-3.57 5.89L2 10.69l4.05-4.05c.47-.47 1.15-.68 1.81-.55zM11.17 17s3.74-1.55 5.89-3.7c5.4-5.4 4.5-9.62 4.21-10.57-.95-.3-5.17-1.19-10.57 4.21C8.55 9.09 7 12.83 7 12.83zm6.48-2.19c-2.29 2.04-5.58 3.44-5.89 3.57L13.31 22l4.05-4.05c.47-.47.68-1.15.55-1.81zM9 18c0 .83-.34 1.58-.88 2.12C6.94 21.3 2 22 2 22s.7-4.94 1.88-6.12C4.42 15.34 5.17 15 6 15c1.66 0 3 1.34 3 3m4-9c0-1.1.9-2 2-2s2 .9 2 2-.9 2-2 2-2-.9-2-2" ></path>
</symbol>
<symbol viewBox="0 0 24 24" id="LargeCookie">
    <path         style="stroke-width:1;stroke-linecap:round;stroke-linejoin:round"
        d="M5.717 1.219c-.123 0-.222.1-.223.222a.223.223 0 0 0 .445 0c0-.122-.1-.222-.222-.222Zm1.34.332a.447.447 0 1 0-.002.893.447.447 0 0 0 .002-.893ZM5.88 16.318c.61.032 1.156.664 1.156 1.282-.149.614-.647.912-1.058 1.11-.204.098-1.254-.996-1.37-1.43.156-.697.662-.922 1.272-.962zm9.34-5.64c-.015-.25-.193-.422-.412-.414-.269.05-.542.074-.815.076-2.473 0-4.458-1.937-4.459-4.324a4.267 4.267 0 0 1 1.483-3.217.378.378 0 0 0-.297-.66A9.957 9.957 0 0 0 2.049 12c-.016 2.604.795 4.556 2.553 6.672 1.734 1.766 4.043 3.304 7.5 3.346 3.347-.006 7.667-2.602 9.148-6.42a.378.378 0 0 0-.445-.502c-.362.093-.734.14-1.108.142-1.132 0-2.043-.393-2.604-.889-.8-.642-1.243-1.353-1.603-2.207-.258-.613-.26-1.193-.27-1.464zm-.168 4.722c-.501-.1-1.296-.388-1.313-1.459-.01-.617.876-1.272 1.201-1.143.263.615 1.087 1.578 1.297 1.781.067.065-.6.938-1.185.821zM9.773 3.225c-.58.832-.995 1.764-.996 2.79.279 3.647 3.107 5.14 5.725 5.034.013.422.107.819.219 1.207-.823.194-1.492.829-1.492 1.709 0 1.027.842 1.867 1.869 1.867.653 0 1.167-.39 1.5-.902 1.175.769 2.156 1.06 3.601 1-1.515 3.162-4.651 5.253-8.199 5.263-2.14 0-4.044-.813-5.605-2.039.659-.288 1.189-.823 1.189-1.586 0-1.026-.826-1.726-1.852-1.726-.693 0-1.205.307-1.527.873-.843-1.388-1.398-2.971-1.398-4.715.003-4.242 2.947-7.749 6.966-8.775Zm4.9.468c-.448-.01-.797.512-.921 1.022-.1.409.44.337.633.521.182.174.11.493.38.493.56 0 1.142-.172 1.233-.782.082-.545-.682-1.145-1.232-1.244a.597.597 0 0 0-.092-.01zm-.857 3.885a.194.194 0 1 0 0 .387.194.194 0 0 0 0-.387zm4.14.016c-.3.011-.532.203-.532.506.41.475.757.327 1.127.058a.565.565 0 0 0-.567-.564h-.029zm-5.315.431a.268.268 0 1 0 0 .536.268.268 0 0 0 0-.536Zm9.63.235c-.17 0-.288.344-.501.35-.31.007-.717-.077-.717.189a.789.789 0 1 0 1.578 0c0-.436.076-.54-.36-.54zm-8.544.152c-.288 0-.717.445-.514.772.716.333 1.445-.049.514-.772zm-6.582.409c-.805-.077-1.756.697-1.757 1.723 0 1.027.642 1.924 1.669 1.925 1.05-.21 1.505-.83 1.681-1.958-.1-1.126-.566-1.691-1.593-1.69Zm.022.559c.618 0 1 .601 1.001 1.22 0 .618-.493 1.222-1.111 1.221-.773-.077-1.11-.603-1.11-1.221 0-.618.602-1.22 1.22-1.22Zm13.9.663c-.175.006-.411.085-.68.258-.227.378.201.755.547.656.62-.534.546-.929.132-.914zm-2.352 2.701a.462.462 0 1 0 .001.923.462.462 0 0 0-.001-.923zm-6.238 3.94c-1.026 0-1.768.808-1.868 1.867 0 1.026.875 1.436 1.956 1.59 1.026 0 2.12-.608 2.121-1.634 0-1.026-1.25-1.724-2.21-1.823zm9.21.005a.372.372 0 1 0-.001.745.372.372 0 0 0 .002-.745zm-9.233.531c.618 0 1.651.713 1.651 1.33 0 .618-.768 1.066-1.385 1.066-.618 0-1.551-.425-1.552-1.043 0-.618.669-1.352 1.286-1.353z" ></path>
</symbol>
<symbol viewBox="0 0 24 24" id="Language">
    <path         style="stroke-width:1;stroke-linecap:round;stroke-linejoin:round"
        d="M11.99 2C6.47 2 2 6.48 2 12s4.47 10 9.99 10C17.52 22 22 17.52 22 12S17.52 2 11.99 2zm6.93 6h-2.95a15.65 15.65 0 0 0-1.38-3.56A8.03 8.03 0 0 1 18.92 8zM12 4.04c.83 1.2 1.48 2.53 1.91 3.96h-3.82c.43-1.43 1.08-2.76 1.91-3.96zM4.26 14C4.1 13.36 4 12.69 4 12s.1-1.36.26-2h3.38c-.08.66-.14 1.32-.14 2 0 .68.06 1.34.14 2H4.26zm.82 2h2.95c.32 1.25.78 2.45 1.38 3.56A7.987 7.987 0 0 1 5.08 16zm2.95-8H5.08a7.987 7.987 0 0 1 4.33-3.56A15.65 15.65 0 0 0 8.03 8zM12 19.96c-.83-1.2-1.48-2.53-1.91-3.96h3.82c-.43 1.43-1.08 2.76-1.91 3.96zM14.34 14H9.66c-.09-.66-.16-1.32-.16-2 0-.68.07-1.35.16-2h4.68c.09.65.16 1.32.16 2 0 .68-.07 1.34-.16 2zm.25 5.56c.6-1.11 1.06-2.31 1.38-3.56h2.95a8.03 8.03 0 0 1-4.33 3.56zM16.36 14c.08-.66.14-1.32.14-2 0-.68-.06-1.34-.14-2h3.38c.16.64.26 1.31.26 2s-.1 1.36-.26 2h-3.38z" ></path>
</symbol>
<symbol viewBox="0 0 24 24" id="KeyPhrases">
    <path         style="stroke-width:1;stroke-linecap:round;stroke-linejoin:round"
        d="M9 15c-2.7 0-8 1.3-8 4v2h16v-2c0-2.7-5.3-4-8-4zm7.8-9.6L15 7c.8 1.2.8 2.8 0 4l1.7 1.6c2-2 2-5 0-7.2zM20 2l-1.7 1.6a8 8 0 0 1 0 10.8l1.7 1.6C24 12.1 24 6 20 2zM13 9a4 4 0 0 1-4 4 4 4 0 0 1-4-4 4 4 0 0 1 4-4 4 4 0 0 1 4 4Z" ></path>
</symbol>
<symbol viewBox="0 0 24 24" id="Invisible">
    <path         style="stroke-width:1;stroke-linecap:round;stroke-linejoin:round"
        d="m4.37 5.7 2.11 2.12a9.68 9.68 0 0 0-3.4 4.12 9.68 9.68 0 0 0 8.94 6 9.68 9.68 0 0 0 3.77-.81l2.5 2.5c.84.73 2.16-.48 1.34-1.34L5.71 4.37c-.9-.87-2.18.38-1.34 1.34Zm7.6.37a9.6 9.6 0 0 0-3.18.56l1.28 1.28a4.55 4.55 0 0 1 6.03 6.03l1.9 1.9a9.68 9.68 0 0 0 2.91-3.8 9.68 9.68 0 0 0-8.94-5.97Zm.03 3c-.23 0-.46.03-.68.09l3.52 3.52A2.92 2.92 0 0 0 12 9.08Zm-3.8.47 1.19 1.18a2.92 2.92 0 0 0 3.9 3.9l1.17 1.18A4.55 4.55 0 0 1 8.2 9.54Z" ></path>
</symbol>
<symbol viewBox="0 0 24 24" id="Info">
    <path         style="stroke-width:1;stroke-linecap:round;stroke-linejoin:round"
        d="M12 2.486c-5.246 0-9.514 4.268-9.514 9.514 0 5.246 4.268 9.514 9.514 9.514 5.246 0 9.514-4.268 9.514-9.514 0-5.246-4.268-9.514-9.514-9.514Zm0 1.381c4.5 0 8.133 3.633 8.133 8.133 0 4.5-3.633 8.133-8.133 8.133A8.122 8.122 0 0 1 3.867 12C3.867 7.5 7.5 3.867 12 3.867Zm-.02 2.153c-.746 0-1.37.624-1.37 1.37 0 .747.624 1.37 1.37 1.37.747 0 1.37-.623 1.37-1.37 0-.746-.623-1.37-1.37-1.37zm.02 4.36a1.068.953 0 0 0-1.068.954v6.287a1.068.953 0 0 0 1.068.953 1.068.953 0 0 0 1.068-.953v-6.287A1.068.953 0 0 0 12 10.381Z" ></path>
</symbol>
<symbol viewBox="0 0 24 24" id="Image">
    <path         style="stroke-width:1;stroke-linecap:round;stroke-linejoin:round"
        d="M21 19V5c0-1.1-.9-2-2-2H5c-1.1 0-2 .9-2 2v14c0 1.1.9 2 2 2h14c1.1 0 2-.9 2-2M8.5 13.5l2.5 3.01L14.5 12l4.5 6H5z" ></path>
</symbol>
<symbol viewBox="0 0 24 24" id="Home">
    <path         style="stroke-width:1;stroke-linecap:round;stroke-linejoin:round"
        d="M22.58 9.94H1.42L12 3.14l10.58 6.8Zm-18.42 0v10.92h8.6v-8.94h4.78v8.94h2.01V9.94H4.15zM6.23 12h3.91v3.91h-3.9V12z" ></path>
</symbol>
<symbol viewBox="0 0 24 24" id="History">
    <path         style="stroke-width:1;stroke-linecap:round;stroke-linejoin:round"
        d="M12.004 2.488c-5.279 0-9.576 4.282-9.576 9.547 0 5.265 4.297 9.547 9.576 9.547 5.279 0 9.578-4.282 9.578-9.547 0-5.265-4.3-9.547-9.578-9.547zm0 1.512c4.464 0 8.066 3.59 8.066 8.035s-3.602 8.035-8.066 8.035c-4.465 0-8.065-3.59-8.065-8.035S7.54 4 12.004 4Zm-.012 2.75c-.313-.002-.631.19-.748.6-.033.143-.051 4.802-.006 4.997a.753.753 0 0 0 .34.48c.184.116.388.095.606.1.88.008 4.583.027 4.685-.015a.762.762 0 0 0-.045-1.478c-.106-.025-2.685-.041-4.08-.034.007-1.426.013-4.01-.021-4.093a.76.76 0 0 0-.73-.557Z" ></path>
</symbol>
<symbol viewBox="0 0 24 24" id="Help">
    <path         style="stroke-width:1;stroke-linecap:round;stroke-linejoin:round"
        d="M12 2.486c-5.246 0-9.514 4.268-9.514 9.514 0 5.246 4.268 9.514 9.514 9.514 5.246 0 9.514-4.268 9.514-9.514 0-5.246-4.268-9.514-9.514-9.514zm0 1.381c4.5 0 8.133 3.633 8.133 8.133 0 4.5-3.633 8.133-8.133 8.133A8.122 8.122 0 0 1 3.867 12C3.867 7.5 7.5 3.867 12 3.867Zm-.057 1.934c-1.224-.014-2.513.68-3.293 1.375 0 0-.241.202-.207.308.212.3.383.633.631.903.318.29.849.354 1.172.037.646-.601 1.651-.857 2.467-.461.392.18.637.615.555 1.045-.087.699-.727 1.134-1.262 1.502-.571.403-1.224.884-1.303 1.636-.063.73.078 1.757.129 2.227h1.762l.135-1.896c.453-.473 1.073-.75 1.54-1.211.866-.764 1.305-1.994 1.034-3.127-.251-1.12-1.233-1.96-2.328-2.211a4.154 4.154 0 0 0-1.032-.127Zm-.326 9.61c-.558.018-1.097.383-1.287.915a1.407 1.407 0 0 0 .438 1.57 1.502 1.502 0 0 0 1.595.131c.56-.286.884-.99.684-1.595a1.47 1.47 0 0 0-1.375-1.022h-.055z" ></path>
</symbol>
<symbol viewBox="0 0 24 24" id="HeartFilled">
    <path         style="stroke-width:1;stroke-linecap:round;stroke-linejoin:round"
        d="M7.79883 3.35724c-1.41849 0-2.84044.54943-3.92188 1.63086-2.1636 2.1636-2.1636 5.68015 0 7.84375l.00391.0039c1.0031.98773 7.58399 7.58399 7.58399 7.58399.2948.29657.77439.29747 1.0703.002l7.5879-7.58985c2.1636-2.1636 2.1636-5.68015 0-7.84375-2.1636-2.1636-5.68015-2.1636-7.84375 0L12 5.2674l-.2793-.2793c-1.08144-1.08143-2.5034-1.63086-3.92187-1.63086Z" ></path>
</symbol>
<symbol viewBox="0 0 24 24" id="Handle">
    <path         style="stroke-width:1;stroke-linecap:round;stroke-linejoin:round"
        d="M12 2a10 10 0 0 0 0 20h5v-2h-5c-4.34 0-8-3.66-8-8s3.66-8 8-8 8 3.66 8 8v1.43c0 .79-.71 1.57-1.5 1.57s-1.5-.78-1.5-1.57V12a5 5 0 1 0-1.46 3.53A3.7 3.7 0 0 0 18.5 17c1.97 0 3.5-1.6 3.5-3.57V12A10 10 0 0 0 12 2zm0 13a3 3 0 1 1 0-6 3 3 0 0 1 0 6z" ></path>
</symbol>
<symbol viewBox="0 0 24 24" id="Grid">
    <path         style="stroke-width:1;stroke-linecap:round;stroke-linejoin:round"
        d="M4 2.9c-.63 0-1.16.52-1.16 1.15v6.24c0 .63.53 1.16 1.16 1.16h6.24c.63 0 1.15-.53 1.15-1.16V4.05c0-.63-.52-1.15-1.15-1.15zm0 1.13h6.24l.02 6.26L4 10.3V4.03zM13.76 2.9c-.63 0-1.15.52-1.15 1.15v6.24c0 .63.52 1.16 1.15 1.16H20c.63 0 1.16-.53 1.16-1.16V4.05c0-.63-.53-1.15-1.16-1.15zm0 1.13H20l.02 6.26-6.26.02V4.03zM4 12.55c-.63 0-1.16.53-1.16 1.16v6.23c0 .64.53 1.16 1.16 1.16h6.24c.63 0 1.15-.52 1.15-1.16v-6.23c0-.63-.52-1.16-1.15-1.16zm0 1.14h6.24l.02 6.25-6.26.03v-6.28zM13.76 12.55c-.63 0-1.15.53-1.15 1.16v6.23c0 .64.52 1.16 1.15 1.16H20c.63 0 1.16-.52 1.16-1.16v-6.23c0-.63-.53-1.16-1.16-1.16zm0 1.14H20l.02 6.25-6.26.03v-6.28z" ></path>
</symbol>
<symbol viewBox="0 0 24 24" id="Food">
    <path         style="stroke-width:1;stroke-linecap:round;stroke-linejoin:round"
        d="M18.06 22.99h1.66c.84 0 1.53-.64 1.63-1.46L23 5.05h-5V1h-1.97v4.05h-4.97l.3 2.34c1.71.47 3.31 1.32 4.27 2.26 1.44 1.42 2.43 2.89 2.43 5.29v8.05zM1 21.99V21h15.03v.99c0 .55-.45 1-1.01 1H2.01c-.56 0-1.01-.45-1.01-1zm15.03-7c0-8-15.03-8-15.03 0h15.03zM1.02 17h15v2h-15z" ></path>
</symbol>
<symbol viewBox="0 0 24 24" id="FocusMode">
    <path         style="stroke-width:1;stroke-linecap:round;stroke-linejoin:round"
        d="M12 4a2 2 0 0 0-2 2 2 2 0 0 0 2 2 2 2 0 0 0 2-2 2 2 0 0 0-2-2zm-.5 5a2 2 0 0 0-1.6.7l-1.3 1.6A7.2 7.2 0 0 1 3 14v2c2.8 0 5.2-1.2 7-3.3V15l-3.9 1.6c-.7.2-1.1.9-1.1 1.6 0 1 .8 1.8 1.8 1.8H9v-.5c0-1.4 1.1-2.5 2.5-2.5h3c.3 0 .5.2.5.5s-.2.5-.5.5h-3c-.8 0-1.5.7-1.5 1.5v.5h7.2a1.8 1.8 0 0 0 .7-3.4L14 15v-2.3c1.8 2.1 4.2 3.3 7 3.3v-2c-2.2 0-4.2-1-5.6-2.7l-1.3-1.6a2 2 0 0 0-1.6-.7h-1z" ></path>
</symbol>
<symbol viewBox="0 0 24 24" id="File">
    <path         style="stroke-width:1;stroke-linecap:round;stroke-linejoin:round"
        d="M16.5 6v11.5c0 2.21-1.79 4-4 4s-4-1.79-4-4V5c0-1.38 1.12-2.5 2.5-2.5s2.5 1.12 2.5 2.5v10.5c0 .55-.45 1-1 1s-1-.45-1-1V6H10v9.5c0 1.38 1.12 2.5 2.5 2.5s2.5-1.12 2.5-2.5V5c0-2.21-1.79-4-4-4S7 2.79 7 5v12.5c0 3.04 2.46 5.5 5.5 5.5s5.5-2.46 5.5-5.5V6z" ></path>
</symbol>
<symbol viewBox="0 0 24 24" id="Export">
    <path         style="stroke-width:1;stroke-linecap:round;stroke-linejoin:round"
        d="m16 5-1.42 1.42-1.59-1.59V16h-1.98V4.83L9.42 6.42 8 5l4-4 4 4zm4 5v11c0 1.1-.9 2-2 2H6c-1.11 0-2-.9-2-2V10c0-1.11.89-2 2-2h3v2H6v11h12V10h-3V8h3c1.1 0 2 .89 2 2z" ></path>
</symbol>
<symbol viewBox="0 0 24 24" id="ExpandMore">
    <path         style="stroke-width:1;stroke-linecap:round;stroke-linejoin:round"
        d="M12.6719 16.7058a.945.945 0 0 1-1.2617-.006l-8.838-7.998a.9449.9449 0 0 1-.0683-1.334.9449.9449 0 0 1 1.336-.0663l8.2109 7.4296 8.1152-7.2148a.9449.9449 0 0 1 1.334.0781.9449.9449 0 0 1-.0781 1.334Z" ></path>
</symbol>
<symbol viewBox="0 0 24 24" id="ExpandLess">
    <path         style="stroke-width:1;stroke-linecap:round;stroke-linejoin:round"
        d="M12.6719 7.295a.945.945 0 0 0-1.2617.0058l-8.838 7.998a.9449.9449 0 0 0-.0683 1.334.9449.9449 0 0 0 1.336.0664l8.2109-7.4297 8.1152 7.2149a.9449.9449 0 0 0 1.334-.0782.9449.9449 0 0 0-.0781-1.334Z" ></path>
</symbol>
<symbol viewBox="0 0 24 24" id="Error">
    <path         style="stroke-width:1;stroke-linecap:round;stroke-linejoin:round"
        d="M12 21.514c-5.246 0-9.514-4.268-9.514-9.514 0-5.246 4.268-9.514 9.514-9.514 5.246 0 9.514 4.268 9.514 9.514 0 5.246-4.268 9.514-9.514 9.514zm0-1.381c4.5 0 8.133-3.633 8.133-8.133 0-4.5-3.633-8.133-8.133-8.133A8.122 8.122 0 0 0 3.867 12c0 4.5 3.633 8.133 8.133 8.133Zm-.02-2.153a1.385 1.385 0 0 1-1.37-1.37c0-.747.624-1.37 1.37-1.37.747 0 1.37.623 1.37 1.37 0 .746-.623 1.37-1.37 1.37zm.02-4.36a1.068.953 0 0 1-1.068-.954V6.379A1.068.953 0 0 1 12 5.426a1.068.953 0 0 1 1.068.953v6.287a1.068.953 0 0 1-1.068.953Z" ></path>
</symbol>
<symbol viewBox="0 0 24 24" id="Email">
    <path         style="stroke-width:1;stroke-linecap:round;stroke-linejoin:round"
        d="M20 4H4c-1.1 0-1.99.9-1.99 2L2 18c0 1.1.9 2 2 2h16c1.1 0 2-.9 2-2V6c0-1.1-.9-2-2-2zm0 4-8 5-8-5V6l8 5 8-5v2z" ></path>
</symbol>
<symbol viewBox="0 0 24 24" id="Ellipsis">
    <path         style="stroke-width:1;stroke-linecap:round;stroke-linejoin:round"
        d="M22.28 12a2.77 2.77 0 0 1-2.77 2.77A2.77 2.77 0 0 1 16.74 12a2.77 2.77 0 0 1 2.77-2.77A2.77 2.77 0 0 1 22.28 12Zm-7.56 0a2.77 2.77 0 0 1-2.77 2.77A2.77 2.77 0 0 1 9.18 12a2.77 2.77 0 0 1 2.77-2.77A2.77 2.77 0 0 1 14.72 12Zm-7.56 0a2.77 2.77 0 0 1-2.77 2.77A2.77 2.77 0 0 1 1.62 12 2.77 2.77 0 0 1 4.4 9.23 2.77 2.77 0 0 1 7.16 12Z" ></path>
</symbol>
<symbol viewBox="0 0 24 24" id="Edit">
    <path         style="stroke-width:1;stroke-linecap:round;stroke-linejoin:round"
        d="M18.266 3.313a.88.88 0 0 0-.721.253l-1.807 1.809 2.887 2.885 1.807-1.807a.88.88 0 0 0 .002-1.244l-1.645-1.645a.88.88 0 0 0-.523-.252Zm-3.418 2.982L4.355 16.785 3.31 20.691h.003l3.893-1.04 10.5-10.499Z" ></path>
</symbol>
<symbol viewBox="0 0 24 24" id="Drag">
    <path         style="stroke-width:1;stroke-linecap:round;stroke-linejoin:round"
        d="M16 22.33a2.77 2.77 0 0 1-2.77-2.77A2.77 2.77 0 0 1 16 16.79a2.77 2.77 0 0 1 2.77 2.77A2.77 2.77 0 0 1 16 22.33zm0-7.56A2.77 2.77 0 0 1 13.23 12 2.77 2.77 0 0 1 16 9.23 2.77 2.77 0 0 1 18.77 12 2.77 2.77 0 0 1 16 14.77zm0-7.56a2.77 2.77 0 0 1-2.77-2.77A2.77 2.77 0 0 1 16 1.67a2.77 2.77 0 0 1 2.77 2.77A2.77 2.77 0 0 1 16 7.21ZM8 22.33a2.77 2.77 0 0 1-2.77-2.77A2.77 2.77 0 0 1 8 16.79a2.77 2.77 0 0 1 2.77 2.77A2.77 2.77 0 0 1 8 22.33zm0-7.56A2.77 2.77 0 0 1 5.23 12 2.77 2.77 0 0 1 8 9.23 2.77 2.77 0 0 1 10.77 12 2.77 2.77 0 0 1 8 14.77zm0-7.56a2.77 2.77 0 0 1-2.77-2.77A2.77 2.77 0 0 1 8 1.67a2.77 2.77 0 0 1 2.77 2.77A2.77 2.77 0 0 1 8 7.21Z" ></path>
</symbol>
<symbol viewBox="0 0 24 24" id="Download">
    <path         style="stroke-width:1;stroke-linecap:round;stroke-linejoin:round"
        d="m10.43 4.7-.1 7.6-2.79-2.13c-1.31-.92-2.57 1.11-1.53 1.88l4.7 3.57c1.06.87 1.38.9 2.4.05.03-.01 4.85-3.73 4.85-3.73 1.16-1-.17-2.7-1.5-1.78l-2.88 2.15.02-7.61c0-1.65-3.12-1.64-3.17 0zm-5.4 13.46c-1.12 0-1.18 2.37 0 2.37h14c1.07 0 1.07-2.37 0-2.37z" ></path>
</symbol>
<symbol viewBox="0 0 24 24" id="Donate">
    <path         style="stroke-width:1;stroke-linecap:round;stroke-linejoin:round"
        d="M1.96978 5.00453v6.00736h4.86596c-.22353-.96975.03884-2.02956.79339-2.7841.5819-.5819 1.3476-.87832 2.11086-.87832.45257 0 .90425.10687 1.31955.3128V5.00453Zm10.97068 0v2.65981c1.1152-.54969 2.50322-.36374 3.43041.56345.75455.75454 1.01692 1.81435.79339 2.7841h4.86596V5.00453Zm-2.49823 3.65828c-.52625 0-1.05506.20367-1.45627.60488-.80269.80268-.80269 2.10777 0 2.91046l.0021.0022c.37214.36644 2.8131 2.8131 2.8131 2.8131.10938.11004.28795.10963.39773 0l2.81518-2.81517c.80268-.80269.80268-2.10778 0-2.91047-.80269-.80268-2.10778-.80268-2.91047 0l-.10357.1035-.10358-.10357c-.40122-.40128-.92797-.60493-1.45422-.60493Zm-8.47245 4.23v6.10266h9.08976v-3.11969c-.76083-.76238-2.2114-2.2131-2.98504-2.98296Zm13.95572 0-2.98504 2.98712v3.11554h9.08976v-6.10265z" ></path>
</symbol>
<symbol viewBox="0 0 24 24" id="DisplaySettings">
    <path         style="stroke-width:1;stroke-linecap:round;stroke-linejoin:round"
        d="M4.9 2.46a2.71 2.71 0 0 0-2.72 2.71v9.66c0 1.49 1.22 2.7 2.71 2.7h4.6v2.5H5.95c-1.06-.02-1.07 1.5 0 1.5h12.12c1.02 0 .98-1.5 0-1.5h-3.68v-2.5h4.73c1.49 0 2.7-1.21 2.7-2.7V5.17c0-1.49-1.21-2.7-2.7-2.7H4.89zm0 1.14h14.2c.9 0 1.58.69 1.58 1.57v9.66c0 .88-.69 1.57-1.57 1.57H4.89c-.88 0-1.57-.69-1.57-1.57V5.17c0-.88.69-1.57 1.57-1.57zm2.98 1.83c-.28 0-.57.2-.57.59v1.07h-.72c-.88.02-.85 1.12 0 1.14h.72V9.3c0 .87 1.1.9 1.13 0V8.23h8.97c.83.02.84-1.12 0-1.14H8.44V6.02c0-.4-.28-.6-.56-.59zm8.23 5.12c-.28 0-.56.19-.56.6v1.06H6.58c-.84.02-.83 1.16 0 1.14h8.97v1.07c.02.9 1.13.87 1.13 0v-1.07h.71c.86-.01.9-1.12 0-1.14h-.71v-1.07a.57.57 0 0 0-.57-.59zm-5.48 6.99h2.62v2.49h-2.62v-2.5z" ></path>
</symbol>
<symbol viewBox="0 0 24 24" id="Develop">
    <path         style="stroke-width:1;stroke-linecap:round;stroke-linejoin:round"
        d="M9.805.893V2.8c-4.756.895-8.446 4.864-8.49 9.875a.756.756 0 1 0 1.511.013c.038-4.197 3.044-7.513 6.979-8.377v1.313l4.1-2.365Zm5.623 3.037a.756.756 0 0 0 .318 1.02 8.823 8.823 0 0 1 4.733 7.82c0 1.01-.223 1.988-.557 2.931l-.844-.633-.54 4.496 4.144-1.789-1.537-1.156c.498-1.228.845-2.511.845-3.85 0-3.845-2.136-7.376-5.543-9.16-.475-.218-.788-.06-1.02.32Zm-1.235 2.347-1.699 1.256a4.219 4.219 0 0 0-1.719.014L9.07 6.31c-.638.254-1.235.6-1.771 1.029l.236 2.098a5.31 5.31 0 0 0-.844 1.48l-1.945.867c-.123.698-.048 1.39.012 2.037l1.949.852a5.31 5.31 0 0 0 .856 1.476l-.22 2.094a6.967 6.967 0 0 0 1.782 1.016l1.691-1.248c.588.122 1.168.148 1.713-.01l1.705 1.238a6.978 6.978 0 0 0 1.774-1.03l-.238-2.097a5.31 5.31 0 0 0 .843-1.48l1.948-.87c.12-.696.048-1.387-.008-2.035l-1.942-.845a5.31 5.31 0 0 0-.867-1.492l.219-2.102a6.978 6.978 0 0 0-1.77-1.012Zm-2.54 3.875a2.622 2.622 0 1 1-.003 5.245 2.622 2.622 0 0 1 .002-5.245zm-8.999 4.59-.828 4.453 1.42-.502c1.93 2.734 5.037 4.414 8.406 4.414 2.007 0 3.97-.583 5.65-1.68a.756.756 0 1 0-.825-1.267 8.827 8.827 0 0 1-4.825 1.436c-2.732 0-5.24-1.31-6.902-3.436l1.324-.469-.986-.851z" ></path>
</symbol>
<symbol viewBox="0 0 24 24" id="Delete">
    <path         style="stroke-width:1;stroke-linecap:round;stroke-linejoin:round"
        d="M9.59375 2.32227c-.81429 0-1.47578.62718-1.53516 1.42578H5.03516c-.75063 0-1.35785.58782-1.39063 1.33008h-.0039V6.5332h16.71874V5.07813h-.0039c-.03278-.74226-.64-1.33008-1.39063-1.33008h-3.02343c-.05938-.7986-.72087-1.42578-1.53516-1.42578ZM5.18165 7.6621v11.44726c0 1.42325 1.14511 2.56836 2.56835 2.56836h8.49805c1.42324 0 2.5703-1.14511 2.5703-2.56835V7.6621Zm3.83202 3.07812a.94488.94488 0 0 1 .66797.27735L12 13.33594l2.31836-2.31836a.94488.94488 0 0 1 .66797-.27735.94488.94488 0 0 1 .66797.27735.94488.94488 0 0 1 0 1.33594l-2.31836 2.31836 2.3164 2.31445a.94488.94488 0 0 1 0 1.33789.94488.94488 0 0 1-1.33593 0L12 16.00782l-2.3164 2.3164a.94488.94488 0 0 1-1.33594 0 .94488.94488 0 0 1 0-1.3379l2.3164-2.31444-2.31836-2.31836a.94488.94488 0 0 1 0-1.33594.94488.94488 0 0 1 .66797-.27735z" ></path>
</symbol>
<symbol viewBox="0 0 24 24" id="Day">
    <path         style="stroke-width:1;stroke-linecap:round;stroke-linejoin:round"
        d="M5.43 3.85c-.87 0-1.58.7-1.58 1.58v13.14c0 .87.7 1.58 1.58 1.58h13.14c.87 0 1.58-.7 1.58-1.58V5.43c0-.87-.7-1.58-1.58-1.58H5.43zm1.7 1.3h9.75c.28 0 .5.22.5.5v.18a.5.5 0 0 1-.5.5H7.12a.5.5 0 0 1-.5-.5v-.18c0-.28.22-.5.5-.5zm4.8 3.87h1.15v7.09h1.46v1.03h-4.5v-1.03h1.65v-4.73c0-.19 0-.38.02-.58l-1.17.98a.51.51 0 0 1-.2.1.48.48 0 0 1-.34-.06.36.36 0 0 1-.1-.1l-.44-.6 2.48-2.1z" ></path>
</symbol>
<symbol viewBox="0 0 24 24" id="DarkMode">
    <path         style="stroke-width:1;stroke-linecap:round;stroke-linejoin:round"
        d="m7.348 1.03-1.13.958A10.284 10.284 0 0 0 2.95 7.137v.002c-1.466 5.478 1.79 11.123 7.264 12.591a10.275 10.275 0 0 0 11.789-5.271l.674-1.326-1.338.648a10.137 10.137 0 0 1-7.043.666v.002A10.152 10.152 0 0 1 7.03 2.477Z" ></path>
</symbol>
<symbol viewBox="0 0 24 24" id="CreateAccount">
    <path         style="stroke-width:1;stroke-linecap:round;stroke-linejoin:round"
        d="M9.5332 4.9707a3.56762 3.56762 0 0 0-3.56836 3.56836 3.56762 3.56762 0 0 0 3.56836 3.5664 3.56762 3.56762 0 0 0 3.5664-3.5664A3.56762 3.56762 0 0 0 9.5332 4.9707zm8.13477 2.39844a.4993.4993 0 0 0-.5.5v2.8086l-2.8086.0039a.4993.4993 0 0 0-.49804.5.4993.4993 0 0 0 .5.49804l2.80664-.0039v2.8086a.4993.4993 0 0 0 .5.49804.4993.4993 0 0 0 .5-.49804v-2.8086l2.8086-.0039a.4993.4993 0 0 0 .49804-.5.4993.4993 0 0 0-.5-.49805l-2.80664.0039V7.86914a.4993.4993 0 0 0-.5-.5zm-8.24024 5.86328c-4.58692 0-6.90234 3.09375-6.90234 3.09375v2.70313l14.01563-.03711-.0078-2.67774s-2.51855-3.08203-7.10547-3.08203z" ></path>
</symbol>
<symbol viewBox="0 0 24 24" id="Create">
    <path         style="stroke-width:1;stroke-linecap:round;stroke-linejoin:round"
        d="M12 2.422c-5.281 0-9.578 4.297-9.578 9.578S6.719 21.578 12 21.578s9.578-4.297 9.578-9.578S17.281 2.422 12 2.422zm0 1.512A8.054 8.054 0 0 1 20.066 12 8.054 8.054 0 0 1 12 20.066 8.054 8.054 0 0 1 3.934 12 8.054 8.054 0 0 1 12 3.934Zm0 3.341a.756.756 0 0 0-.756.756v3.213l-3.213.004a.756.756 0 0 0-.756.758.756.756 0 0 0 .758.754l3.211-.004v3.213a.756.756 0 0 0 .756.756.756.756 0 0 0 .756-.756v-3.213l3.213-.004a.756.756 0 0 0 .756-.758.756.756 0 0 0-.758-.754l-3.211.004V8.031A.756.756 0 0 0 12 7.275Z" ></path>
</symbol>
<symbol viewBox="0 0 24 24" id="Copy">
    <path         style="stroke-width:1;stroke-linecap:round;stroke-linejoin:round"
        d="m14.54924 3.31493-8.50847.0231c-.55078 0-1.38787.91324-1.3881 1.46402l-.00494 11.05193c.0027.39652 1.59702.39734 1.60926.0017.00073-.0237-.01815-10.68716-.01815-10.68716 0-.21776.05788-.27399.27563-.27399 9.36737 0 5.39934-.0033 8.03147-.0033.39508 0 .41284-1.57172.0033-1.57625zM9.4161 6.10267c-.98106 0-1.79247.81483-1.79247 1.79412V18.8926c0 .97929.81318 1.79247 1.79247 1.79247h8.1437c.9793 0 1.79247-.81318 1.79247-1.79247V7.8968c0-.97929-.81141-1.79412-1.79247-1.79412zm0 1.59606h8.1437c.1205 0 .19476.0758.19476.19806V18.8926c0 .12226-.0725.19641-.19476.19641H9.4161c-.12226 0-.19641-.07415-.19641-.1964V7.89678c0-.12226.07592-.19806.19641-.19806z" ></path>
</symbol>
<symbol viewBox="0 0 24 24" id="Compress">
    <path         style="stroke-width:1;stroke-linecap:round;stroke-linejoin:round"
        d="M12 1.08a.94.94 0 0 0-.95.95v2.81l-1.9.02 1.2 1.5 1.7 2.17 2.78-3.72-1.88.01v-2.8a.94.94 0 0 0-.95-.94ZM4.65 9.64a.94.94 0 0 0-.95.95.94.94 0 0 0 .95.94h14.7a.94.94 0 0 0 .95-.94.94.94 0 0 0-.95-.95zm0 2.92a.94.94 0 0 0-.95.94.94.94 0 0 0 .95.95h14.7a.94.94 0 0 0 .95-.95.94.94 0 0 0-.95-.94zm7.38 2.91L9.25 19.2l1.88-.01v2.8a.94.94 0 0 0 .95.94.94.94 0 0 0 .95-.95v-2.81l1.9-.02-1.2-1.5z" ></path>
</symbol>
<symbol viewBox="0 0 24 24" id="CompleteAll">
    <path         style="stroke-width:1;stroke-linecap:round;stroke-linejoin:round"
        d="M22.1 5.4a1 1 0 0 0-.6.2L11.2 16.2 7 11.7c-1-.9-2 .3-1.2 1.2l5.5 5.7L22.8 6.7c.5-.6 0-1.3-.7-1.3zm-4.4 0c-.2 0-.4 0-.6.2l-7.5 7.8 1.2 1.2 7.5-7.9c.5-.7 0-1.3-.6-1.3Zm-15.8 6c-.7 0-1.2 1-.7 1.5l5.6 5.7L8.7 17l-1.2-1.2-.7.5-4.3-4.5a1 1 0 0 0-.6-.3Z" ></path>
</symbol>
<symbol viewBox="0 0 24 24" id="Complete">
    <path         style="stroke-width:1;stroke-linecap:round;stroke-linejoin:round"
        d="M20.69 4.67a.94.94 0 0 0-.66.3L8.73 16.6l-4.75-4.9a.94.94 0 0 0-1.33-.02.94.94 0 0 0-.02 1.34l6.12 6.32L21.38 6.28a.94.94 0 0 0-.02-1.34.94.94 0 0 0-.67-.27z" ></path>
</symbol>
<symbol viewBox="0 0 24 24" id="Comment">
    <path         style="stroke-width:1;stroke-linecap:round;stroke-linejoin:round"
        d="M4.7 4.7h14.6c.9 0 1.6.7 1.6 1.5v13.1c0 .3-4.2-3.6-4.6-3.6H4.7C3.8 15.7 3 15 3 14V6.2c0-.8.7-1.5 1.6-1.5z" ></path>
</symbol>
<symbol viewBox="0 0 24 24" id="Close">
    <path         style="stroke-width:1;stroke-linecap:round;stroke-linejoin:round"
        d="M4.24 3.17a1.07 1.07 0 0 0-.76.31 1.07 1.07 0 0 0 0 1.51l7 7.01-7 7a1.07 1.07 0 0 0 0 1.52 1.07 1.07 0 0 0 1.51 0l7.01-7 7 7a1.07 1.07 0 0 0 1.52 0 1.07 1.07 0 0 0 0-1.51l-7-7.01 7-7a1.07 1.07 0 0 0 0-1.52 1.07 1.07 0 0 0-.76-.31 1.07 1.07 0 0 0-.75.31l-7.01 7-7-7a1.07 1.07 0 0 0-.76-.31z" ></path>
</symbol>
<symbol viewBox="0 0 24 24" id="ChevronRight">
    <path         style="stroke-width:1;stroke-linecap:round;stroke-linejoin:round"
        d="M10 6 8.59 7.41 13.17 12l-4.58 4.59L10 18l6-6z" ></path>
</symbol>
<symbol viewBox="0 0 24 24" id="ChevronLeft">
    <path         style="stroke-width:1;stroke-linecap:round;stroke-linejoin:round"
        d="M15.41 7.41 14 6l-6 6 6 6 1.41-1.41L10.83 12z" ></path>
</symbol>
<symbol viewBox="0 0 24 24" id="ChatNew">
    <path         style="stroke-width:1;stroke-linecap:round;stroke-linejoin:round"
        d="M21.99 4c0-1.1-.89-2-1.99-2H4c-1.1 0-2 .9-2 2v12c0 1.1.9 2 2 2h14l4 4zM17 11h-4v4h-2v-4H7V9h4V5h2v4h4z" ></path>
</symbol>
<symbol viewBox="0 0 24 24" id="Cancel">
    <path         style="stroke-width:1;stroke-linecap:round;stroke-linejoin:round"
        d="M12 2.42188c-5.28135 0-9.57812 4.29677-9.57813 9.57812 0 5.28135 4.29678 9.57813 9.57813 9.57813S21.57813 17.28135 21.57813 12 17.28135 2.42188 12 2.42187zm0 1.51171c4.46431 0 8.0664 3.6021 8.0664 8.06641 0 4.46431-3.60209 8.0664-8.0664 8.0664-4.46431 0-8.0664-3.60209-8.0664-8.0664 0-4.46431 3.60209-8.0664 8.0664-8.0664Zm2.80664 4.50391a.7559.7559 0 0 0-.53516.22266L12 10.93164 9.7246 8.66211a.7559.7559 0 0 0-1.06835.00195.7559.7559 0 0 0 0 1.06836l2.27344 2.26953-2.26953 2.26953a.7559.7559 0 0 0 0 1.06836.7559.7559 0 0 0 1.06836 0L12 13.06836l2.2754 2.26953a.7559.7559 0 0 0 1.06835-.002.7559.7559 0 0 0 0-1.06836L13.07031 11.998l2.26953-2.26953a.7559.7559 0 0 0 0-1.06836.7559.7559 0 0 0-.5332-.22261Z" ></path>
</symbol>
<symbol viewBox="0 0 24 24" id="CameraOpen">
    <path         style="stroke-width:1;stroke-linecap:round;stroke-linejoin:round"
        d="M12 7.94a4.07 4.07 0 0 0 0 8.12 4.07 4.07 0 0 0 0-8.12Zm0 1.14a2.91 2.91 0 1 1 0 5.85A2.91 2.91 0 0 1 9.08 12c0-1.62 1.3-2.92 2.92-2.92zm-6.54-6.6a2.31 2.31 0 0 0-2.3 2.31v3.75h1.13V4.8c0-.66.51-1.17 1.17-1.17h3.08V2.5Zm10 0v1.14h3.08c.66 0 1.17.51 1.17 1.17v3.75h1.14V4.8c0-1.27-1.04-2.3-2.3-2.3zM3.16 15.47v3.75c0 1.27 1.03 2.3 2.3 2.3h3.08v-1.13H5.46c-.66 0-1.17-.51-1.17-1.17v-3.75zm16.55 0v3.75c0 .66-.51 1.17-1.17 1.17h-3.08v1.13h3.08c1.27 0 2.3-1.03 2.3-2.3v-3.75z" ></path>
</symbol>
<symbol viewBox="0 0 24 24" id="BumpModerate">
    <path         style="stroke-width:1;stroke-linecap:round;stroke-linejoin:round"
        d="M12.0293 4.10742a.94497.94497 0 0 0-.6172.23242l-6.73046 5.8711a.94488.94488 0 0 0-.0918 1.33203.94488.94488 0 0 0 1.33399.0918l6.11523-5.33399 6.04492 5.17774a.94488.94488 0 0 0 1.33204-.10352.94488.94488 0 0 0-.10352-1.33203l-6.66406-5.70899a.94497.94497 0 0 0-.61914-.22656Zm0 7.48828a.94497.94497 0 0 0-.6172.23242l-6.73046 5.8711a.94488.94488 0 0 0-.0918 1.33398.94488.94488 0 0 0 1.33399.08984l6.11523-5.33398 6.04492 5.17773a.94488.94488 0 0 0 1.33204-.1035.94488.94488 0 0 0-.10352-1.33204l-6.66406-5.70703a.94497.94497 0 0 0-.61914-.22852z" ></path>
</symbol>
<symbol viewBox="0 0 24 24" id="BumpMinor">
    <path         style="stroke-width:1;stroke-linecap:round;stroke-linejoin:round"
        d="M12.64844 8.34766a.94497.94497 0 0 0-1.23633.00586l-6.73047 5.86914a.94488.94488 0 0 0-.0918 1.33398.94488.94488 0 0 0 1.33399.08984l6.11523-5.33203 6.04492 5.17578a.94488.94488 0 0 0 1.33204-.10351.94488.94488 0 0 0-.10352-1.33203Z" ></path>
</symbol>
<symbol viewBox="0 0 24 24" id="BumpMajor">
    <path         style="stroke-width:1;stroke-linecap:round;stroke-linejoin:round"
        d="M12.0293 1.81445a.94497.94497 0 0 0-.6172.23243L4.68165 7.91796A.94488.94488 0 0 0 4.58984 9.25a.94488.94488 0 0 0 1.33399.0918l6.11523-5.33399 6.04492 5.17774a.94488.94488 0 0 0 1.33204-.10352A.94488.94488 0 0 0 19.3125 7.75l-6.66406-5.70703a.94497.94497 0 0 0-.61914-.22852Zm0 6.32422a.94497.94497 0 0 0-.6172.23242l-6.73046 5.8711a.94488.94488 0 0 0-.0918 1.33203.94488.94488 0 0 0 1.33399.0918l6.11523-5.33399 6.04492 5.17774a.94488.94488 0 0 0 1.33204-.10352.94488.94488 0 0 0-.10352-1.33203l-6.66406-5.70899a.94497.94497 0 0 0-.61914-.22656Zm0 6.32422a.94497.94497 0 0 0-.6172.23242l-6.73046 5.86914a.94488.94488 0 0 0-.0918 1.33399.94488.94488 0 0 0 1.33399.0918l6.11523-5.33399 6.04492 5.17578a.94488.94488 0 0 0 1.33204-.10156.94488.94488 0 0 0-.10352-1.33399l-6.66406-5.70703a.94497.94497 0 0 0-.61914-.22656z" ></path>
</symbol>
<symbol viewBox="0 0 24 24" id="Build">
    <path         style="stroke-width:1;stroke-linecap:round;stroke-linejoin:round"
        d="M9.20132 3.43104a5.57104 5.57104 0 0 0-2.43694.46072l4.2596 4.25958-2.87745 2.87745L3.89704 6.7793a5.57104 5.57104 0 0 0 1.15583 6.157 5.57104 5.57104 0 0 0 6.23581 1.12147l5.94281 5.94282a1.95513 1.95513 0 0 0 2.76429 0 1.95513 1.95513 0 0 0 0-2.7643l-5.93271-5.9327a5.57104 5.57104 0 0 0-1.13158-6.24591 5.57104 5.57104 0 0 0-3.73017-1.62665Z" ></path>
</symbol>
<symbol viewBox="0 0 24 24" id="Bot">
    <path         style="stroke-width:1;stroke-linecap:round;stroke-linejoin:round"
        d="M12 2.26a1.56 1.56 0 0 0-.46 3.05l-.3 1.42h-4A3.15 3.15 0 0 0 4.1 9.88v1.28c-2.01 0-2.02 0-2.02 2.17s0 2.17 2.02 2.17v3.46c0 1.75 1.4 3.16 3.15 3.16h9.36c1.75 0 3.15-1.4 3.15-3.16V15.5c2.16.02 2.16.02 2.16-2.16 0-2.16 0-2.16-2.16-2.16V9.88c0-1.74-1.4-3.15-3.15-3.15h-3.85l-.31-1.41A1.56 1.56 0 0 0 12 2.26zM7.62 10.7h2.61v2.6h-2.6v-2.6zm6.15 0h2.6v2.6h-2.6v-2.6zm2.87 5s.02 2.76-4.67 2.77c-4.64.01-4.61-2.77-4.61-2.77h.75s.14 2.07 3.88 2.06c3.97-.01 3.95-2.06 3.95-2.06h.7z" ></path>
</symbol>
<symbol viewBox="0 0 24 24" id="BookmarkOutline">
    <path         style="stroke-width:1;stroke-linecap:round;stroke-linejoin:round"
        d="M5.01 3.29a.77.77 0 0 0-.76.76c0 5.9 0 11.79.02 17.68l7.5-5.02 7.19 5c-.02-5.9-.01-11.78-.01-17.66a.77.77 0 0 0-.77-.76zm.37 1.13h12.43v14.82l-6.06-4.1-6.37 3.91z" ></path>
</symbol>
<symbol viewBox="0 0 24 24" id="BookmarkFilled">
    <path         style="stroke-width:1;stroke-linecap:round;stroke-linejoin:round"
        d="M5.01 3.29a.77.77 0 0 0-.76.76c0 5.9 0 11.79.02 17.68l7.5-5.02 7.19 5c-.02-5.9-.01-11.78-.01-17.66a.77.77 0 0 0-.77-.76z" ></path>
</symbol>
<symbol viewBox="0 0 24 24" id="Award">
    <path         style="stroke-width:1;stroke-linecap:round;stroke-linejoin:round"
        d="M8.08 2.46c-2.17.02-2.53.3-2.58 1.86a4.7 4.7 0 0 0-2.8-.12c-.71.24-1.2.77-1.46 1.33a4.02 4.02 0 0 0-.28 2.26 5 5 0 0 0 2.79 4.15 6 6 0 0 0 2.58.65 6.47 6.47 0 0 0 4.93 3.62v3.65H8.51c-1.25-.01-1.24 1.69 0 1.68h7.01c1.35-.03 1.27-1.68 0-1.68h-2.75V16.2a6.69 6.69 0 0 0 4.9-3.6c1-.09 1.86-.3 2.58-.65a5 5 0 0 0 2.79-4.15c.01-.08.22-1.18-.28-2.26a2.5 2.5 0 0 0-1.47-1.33c-.7-.24-1.6-.22-2.77.12-.11-2.15-.93-1.83-6.57-1.84-1.7 0-2.95-.03-3.87-.02ZM21.75 6.1c.65 1.32-.3 3.69-1.96 4.68-.61.3-1.2.45-1.58.51.21-.7.33-1.46.33-2.24V5.58c1.3-.4 2.77-.29 3.21.53zM5.5 5.57v3.5c0 .78.12 1.53.33 2.24-.38-.07-.99-.2-1.6-.52-2.1-1.48-2.67-3.65-1.62-5.06.73-.63 2.17-.29 2.9-.16Z" ></path>
</symbol>
<symbol viewBox="0 0 24 24" id="Article">
    <path         style="stroke-width:1;stroke-linecap:round;stroke-linejoin:round"
        d="M5.3418 2.54297c-.78108.01028-.918.86227-.85938 1.47687v16.49188c-.04072.78228.75907 1.03336 1.39094.94531H18.6582c.78108-.01028.918-.86227.85938-1.47687V3.48828c.04072-.78228-.75907-1.03336-1.39094-.94531ZM6.99414 5.6543h4.15625c.22248-.01164.27875.03873.26953.18883-.0142 1.52985-.0077 3.89014-.02148 5.41664-.01054.15928-.0164.17375-.14481.17579-1.16145-.01442-3.20511-.0215-4.363-.0215-.1751-.01125-.16407-.0058-.16407-.187.0142-1.49698.01494-3.91595.02149-5.39503.03664-.10112.13715-.17753.2461-.17773Zm6.23242.11718c1.23488.01316 2.47607-.02622 3.70704.01954.45461.4268.44359 1.52194-.1015 1.87109-1.17045-.01317-2.51909.02624-3.68562-.01953-.43303-.40332-.48342-1.57399.08008-1.8711zm.02734 3.61133c1.23423.01316 2.3029-.02623 3.5332.01953.71493.01424.6639 1.87635-.02336 1.8711-1.1698-.01317-2.42404.02625-3.58991-.01953-.4327-.40421-.48437-1.57443.08008-1.8711zM7.69336 12.9922h8.61328c1.29942.03608 1.17473 1.89062-.14497 1.89062H7.69336c-1.23003.025-1.22986-1.91556 0-1.89062zm-.1543 3.61133h8.61328c1.28456 0 1.15837 1.89449-.05122 1.875l-8.56206.01563c-1.23418-.0013-1.24108-1.88518 0-1.89063z" ></path>
</symbol>
<symbol viewBox="0 0 24 24" id="ArrowUpRight">
    <path         style="stroke-width:1;stroke-linecap:round;stroke-linejoin:round"
        d="M6 6v2h8.59L5 17.59 6.41 19 16 9.41V18h2V6z" ></path>
</symbol>
<symbol viewBox="0 0 24 24" id="ArrowUp">
    <path         style="stroke-width:1;stroke-linecap:round;stroke-linejoin:round"
        d="M12.0039 21.90234c.5902.00036 1.06872-.47817 1.06837-1.06836V5.52734l5.48828 4.83594c.44215.39078 1.11747.3488 1.5078-.09375.3903-.44268.34744-1.11803-.0957-1.50781l-7.3523-6.45755c-.13552-.09817-.37016-.19478-.61644-.20651-.22712.01747-.4427.10712-.60124.2059-.04928.01281-7.37533 6.45816-7.37533 6.45816-.44312.38978-.48599 1.06513-.0957 1.50781.39035.44255 1.06566.48453 1.50782.09375l5.49804-4.8457v15.3164c-.00036.58943.47698 1.06764 1.0664 1.06836z" ></path>
</symbol>
<symbol viewBox="0 0 24 24" id="ArrowRight">
    <path         style="stroke-width:1;stroke-linecap:round;stroke-linejoin:round"
        d="M2.1 12c0 .6.5 1 1 1h15.4l-4.9 5.6a1 1 0 1 0 1.6 1.4l6.5-7.4.2-.6-.2-.6L15.2 4a1 1 0 1 0-1.6 1.4l4.9 5.5H3.2A1 1 0 0 0 2 12z" ></path>
</symbol>
<symbol viewBox="0 0 24 24" id="ArrowLeft">
    <path         style="stroke-width:1;stroke-linecap:round;stroke-linejoin:round"
        d="M21.9 12c0-.6-.5-1-1-1H5.4l4.9-5.6A1 1 0 1 0 8.8 4l-6.5 7.4-.2.6.2.6L8.8 20a1 1 0 1 0 1.6-1.4L5.5 13h15.3c.6 0 1.1-.5 1.1-1.1z" ></path>
</symbol>
<symbol viewBox="0 0 24 24" id="ArrowDropUp">
    <path         style="stroke-width:1;stroke-linecap:round;stroke-linejoin:round"
        d="M19.5 17.2h-15L12 6.8l7.5 10.4z" ></path>
</symbol>
<symbol viewBox="0 0 24 24" id="ArrowDropDown">
    <path         style="stroke-width:1;stroke-linecap:round;stroke-linejoin:round"
        d="M19.5 6.8h-15L12 17.2l7.5-10.4z" ></path>
</symbol>
<symbol viewBox="0 0 24 24" id="ArrowDown">
    <path         style="stroke-width:1;stroke-linecap:round;stroke-linejoin:round"
        d="M11.9961 2.09766c-.5902-.00036-1.06872.47817-1.06837 1.06836v15.30664l-5.48828-4.83594c-.44215-.39078-1.11747-.3488-1.5078.09375-.3903.44268-.34743 1.11803.0957 1.50781l7.3523 6.45755c.13552.09816.37016.19478.61644.20651.22712-.01747.4427-.10712.60124-.2059.04928-.01281 7.37533-6.45816 7.37533-6.45816.44312-.38978.48599-1.06513.0957-1.50781-.39035-.44255-1.06566-.48453-1.50782-.09375l-5.49804 4.8457V3.16602c.00036-.58943-.47698-1.06764-1.0664-1.06836Z" ></path>
</symbol>
<symbol viewBox="0 0 24 24" id="Api">
    <path         style="stroke-width:1;stroke-linecap:round;stroke-linejoin:round"
        d="M12 1.91c-1.34 0-2.79.43-3.56 1.7-2.25-.44-3.84.87-3.83 2.82-2.56 1.13-2.42 3.75-.9 4.9.66.43 2.13.54 4.4.57-.02.09-.05.2-.1.3-.14.28-.33.56-1.13.57-.59.01-1.09.2-1.43.51-.35.3-.55.7-.66 1.05-.06.15-.1.3-.12.45a1.93 1.93 0 1 0 1.15.06l.04-.16c.07-.22.18-.41.33-.54.15-.13.35-.23.7-.24 1.14-.02 1.85-.62 2.14-1.2.14-.3.2-.58.23-.8h2.41c0 .3-.02.83-.12 1.37-.07.39-.14.77-.47 1.1-.44.23-.7.3-.99.55a1.8 1.8 0 0 0-.5.63 6.14 6.14 0 0 0-.4 1.7c-.05.45-.08.9-.09 1.28a1.93 1.93 0 1 0 1.14 0c0-.35.03-.75.08-1.15.06-.53.17-1.05.32-1.38.07-.16.29-.38.62-.53.37-.15.63-.3.95-.64.33-.35.37-.9.46-1.36.11-.63.13-1.24.13-1.57h2.38c0 .25.06.64.22 1.04a2.3 2.3 0 0 0 2.14 1.45c.33 0 .5.1.65.28.16.17.29.44.36.73l.1.47a1.93 1.93 0 1 0 1.13-.07 4.76 4.76 0 0 0-.13-.69 2.8 2.8 0 0 0-.62-1.21 2.04 2.04 0 0 0-1.47-.64c-.75-.02-.95-.34-1.11-.74a2.2 2.2 0 0 1-.14-.63c2.04-.04 3.36-.16 3.98-.57 1.52-1.14 1.66-3.76-.9-4.89 0-1.95-1.58-3.26-3.83-2.83-.77-1.26-2.22-1.69-3.56-1.69Z" ></path>
</symbol>
<symbol viewBox="0 0 24 24" id="Airplane">
    <path         style="stroke-width:1;stroke-linecap:round;stroke-linejoin:round"
        d="M22 16v-2l-8.5-5V3.5c0-.83-.67-1.5-1.5-1.5s-1.5.67-1.5 1.5V9L2 14v2l8.5-2.5V19L8 20.5V22l4-1 4 1v-1.5L13.5 19v-5.5L22 16z" ></path>
</symbol>
<symbol viewBox="0 0 24 24" id="Add">
    <path         style="stroke-width:1;stroke-linecap:round;stroke-linejoin:round"
        d="M12 3.35547a1.13386 1.13386 0 0 0-1.13477 1.13476v6.37696l-6.37695.00781a1.13386 1.13386 0 0 0-1.13281 1.13477 1.13386 1.13386 0 0 0 1.13672 1.1328l6.37304-.0078v6.375A1.13386 1.13386 0 0 0 12 20.64454a1.13386 1.13386 0 0 0 1.13477-1.13476V13.1328l6.37695-.0078a1.13386 1.13386 0 0 0 1.13281-1.13476 1.13386 1.13386 0 0 0-1.13672-1.13281l-6.37304.0078v-6.375A1.13386 1.13386 0 0 0 12 3.35546Z" ></path>
</symbol>
<symbol viewBox="0 0 24 24" id="Action">
    <path         style="stroke-width:1;stroke-linecap:round;stroke-linejoin:round"
        d="M12 2.42188c-5.28135 0-9.57813 4.29677-9.57813 9.57812S6.71866 21.57813 12 21.57813 21.57813 17.28135 21.57813 12 17.28135 2.42188 12 2.42187Zm0 1.51171c4.4643 0 8.0664 3.6021 8.0664 8.06641 0 4.4643-3.6021 8.0664-8.0664 8.0664S3.9336 16.4643 3.9336 12 7.5357 3.9336 12 3.9336Zm0 3.9922A4.07517 4.07517 0 0 0 7.92578 12 4.07517 4.07517 0 0 0 12 16.07422 4.07517 4.07517 0 0 0 16.07422 12 4.07517 4.07517 0 0 0 12 7.92578Z" ></path>
</symbol>
<symbol viewBox="0 0 24 24" id="HeartOutline">
    <path         style="stroke-width:1;stroke-linecap:round;stroke-linejoin:round"
        d="M7.799 3.357a5.55 5.55 0 0 0-3.922 9.475.756.756 0 0 0 .004.004c1.003.988 7.584 7.584 7.584 7.584a.756.756 0 0 0 1.07.002l7.588-7.59a5.55 5.55 0 0 0 0-7.844 5.55 5.55 0 0 0-7.844 0l-.279.28-.28-.28a5.541 5.541 0 0 0-3.92-1.63ZM16.2 4.865c1.03 0 2.059.397 2.854 1.192a4.01 4.01 0 0 1 0 5.707L12 18.818c-.802-.803-6.08-6.094-7.055-7.054l-.004-.004a4.01 4.01 0 0 1 .004-5.703A4.014 4.014 0 0 1 7.8 4.869c1.03 0 2.058.392 2.853 1.188l.813.814a.756.756 0 0 0 1.07 0l.813-.814A4.022 4.022 0 0 1 16.2 4.865z" ></path>
</symbol>
</defs>
</svg>