<?xml version="1.0" encoding="UTF-8"?>
<svg xmlns="http://www.w3.org/2000/svg" xmlns:xlink="http://www.w3.org/1999/xlink" width="0" height="0">
<defs>
<symbol viewBox="0 0 24 24" id="YouTube">
    <path         style="stroke-width:1;stroke-linecap:round;stroke-linejoin:round"
        d="M10 15l5.19-3L10 9v6m11.56-7.83c.13.47.22 1.1.28 1.9.07.8.1 1.49.1 2.09L22 12c0 2.19-.16 3.8-.44 4.83-.25.9-.83 1.48-1.73 1.73-.47.13-1.33.22-2.65.28-1.3.07-2.49.1-3.59.1L12 19c-4.19 0-6.8-.16-7.83-.44-.9-.25-1.48-.83-1.73-1.73-.13-.47-.22-1.1-.28-1.9-.07-.8-.1-1.49-.1-2.09L2 12c0-2.19.16-3.8.44-4.83.25-.9.83-1.48 1.73-1.73.47-.13 1.33-.22 2.65-.28 1.3-.07 2.49-.1 3.59-.1L12 5c4.19 0 6.8.16 7.83.44.9.25 1.48.83 1.73 1.73z" ></path>
</symbol>
<symbol viewBox="0 0 24 24" role="img" aria-hidden="true" class="crayons-icon crayons-icon--default" id="X">
    <path         d="M14.095479,10.316482L22.286354,1h-1.940718l-7.115352,8.087682L7.551414,1H1l8.589488,12.231093L1,23h1.940717l7.509372-8.542861L16.448587,23H23L14.095479,10.316482z M11.436522,13.338465l-0.871624-1.218704l-6.924311-9.68815h2.981339l5.58978,7.82155l0.867949,1.218704l7.26506,10.166271h-2.981339L11.436522,13.338465z"></path>
</symbol>
<symbol viewBox="0 0 24 24" id="Reddit">
    <path         style="stroke-width:1;stroke-linecap:round;stroke-linejoin:round"
        d="M22 12.14a2.19 2.19 0 0 0-3.71-1.57 10.93 10.93 0 0 0-5.86-1.87l1-4.7 3.27.71a1.56 1.56 0 1 0 .16-.76l-3.64-.77c-.11-.02-.22 0-.29.06-.09.05-.14.14-.16.26l-1.11 5.22c-2.33.07-4.43.78-5.95 1.86A2.2 2.2 0 0 0 4.19 10a2.16 2.16 0 0 0-.9 4.15 3.6 3.6 0 0 0-.05.66c0 3.37 3.92 6.12 8.76 6.12s8.76-2.73 8.76-6.12c0-.21-.01-.44-.05-.66A2.21 2.21 0 0 0 22 12.14M7 13.7c0-.86.68-1.56 1.54-1.56s1.56.7 1.56 1.56a1.56 1.56 0 0 1-1.56 1.56c-.86.02-1.54-.7-1.54-1.56m8.71 4.14C14.63 18.92 12.59 19 12 19c-.61 0-2.65-.1-3.71-1.16a.4.4 0 0 1 0-.57.4.4 0 0 1 .57 0c.68.68 2.14.91 3.14.91s2.47-.23 3.14-.91a.4.4 0 0 1 .57 0c.14.16.14.41 0 .57m-.29-2.56c-.86 0-1.56-.7-1.56-1.56a1.56 1.56 0 0 1 1.56-1.56c.86 0 1.58.7 1.58 1.56a1.6 1.6 0 0 1-1.58 1.56z" ></path>
</symbol>
<symbol viewBox="0 0 24 24" id="LinkedIn">
    <path         style="stroke-width:1;stroke-linecap:round;stroke-linejoin:round"
        d="M19 3a2 2 0 0 1 2 2v14a2 2 0 0 1-2 2H5a2 2 0 0 1-2-2V5a2 2 0 0 1 2-2h14m-.5 15.5v-5.3a3.26 3.26 0 0 0-3.26-3.26c-.85 0-1.84.52-2.32 1.3v-1.11h-2.79v8.37h2.79v-4.93c0-.77.62-1.4 1.39-1.4a1.4 1.4 0 0 1 1.4 1.4v4.93h2.79M6.88 8.56a1.68 1.68 0 0 0 1.68-1.68c0-.93-.75-1.69-1.68-1.69a1.69 1.69 0 0 0-1.69 1.69c0 .93.76 1.68 1.69 1.68m1.39 9.94v-8.37H5.5v8.37h2.77z" ></path>
</symbol>
<symbol viewBox="0 0 24 24" id="Instagram">
    <path         style="stroke-width:1;stroke-linecap:round;stroke-linejoin:round"
        d="M7.8 2h8.4C19.4 2 22 4.6 22 7.8v8.4a5.8 5.8 0 0 1-5.8 5.8H7.8C4.6 22 2 19.4 2 16.2V7.8A5.8 5.8 0 0 1 7.8 2m-.2 2A3.6 3.6 0 0 0 4 7.6v8.8C4 18.39 5.61 20 7.6 20h8.8a3.6 3.6 0 0 0 3.6-3.6V7.6C20 5.61 18.39 4 16.4 4H7.6m9.65 1.5a1.25 1.25 0 0 1 1.25 1.25A1.25 1.25 0 0 1 17.25 8 1.25 1.25 0 0 1 16 6.75a1.25 1.25 0 0 1 1.25-1.25M12 7a5 5 0 0 1 5 5 5 5 0 0 1-5 5 5 5 0 0 1-5-5 5 5 0 0 1 5-5m0 2a3 3 0 0 0-3 3 3 3 0 0 0 3 3 3 3 0 0 0 3-3 3 3 0 0 0-3-3z" ></path>
</symbol>
<symbol viewBox="0 0 48 48" class="LgbsSe-Bz112c" id="Google">
    <g>
        <path fill="#EA4335"
            d="M24 9.5c3.54 0 6.71 1.22 9.21 3.6l6.85-6.85C35.9 2.38 30.47 0 24 0 14.62 0 6.51 5.38 2.56 13.22l7.98 6.19C12.43 13.72 17.74 9.5 24 9.5z"></path>
        <path fill="#4285F4"
            d="M46.98 24.55c0-1.57-.15-3.09-.38-4.55H24v9.02h12.94c-.58 2.96-2.26 5.48-4.78 7.18l7.73 6c4.51-4.18 7.09-10.36 7.09-17.65z"></path>
        <path fill="#FBBC05"
            d="M10.53 28.59c-.48-1.45-.76-2.99-.76-4.59s.27-3.14.76-4.59l-7.98-6.19C.92 16.46 0 20.12 0 24c0 3.88.92 7.54 2.56 10.78l7.97-6.19z"></path>
        <path fill="#34A853"
            d="M24 48c6.48 0 11.93-2.13 15.89-5.81l-7.73-6c-2.15 1.45-4.92 2.3-8.16 2.3-6.26 0-11.57-4.22-13.47-9.91l-7.98 6.19C6.51 42.62 14.62 48 24 48z"></path>
        <path fill="none" d="M0 0h48v48H0z"></path>
    </g>
</symbol>
<symbol viewBox="0 0 24 24" fill="none" role="img" aria-hidden="true" class="crayons-icon crayons-icon--default" id="GitHub">
    <path         d="M12 2C6.475 2 2 6.475 2 12a9.994 9.994 0 0 0 6.838 9.488c.5.087.687-.213.687-.476 0-.237-.013-1.024-.013-1.862-2.512.463-3.162-.612-3.362-1.175-.113-.288-.6-1.175-1.025-1.413-.35-.187-.85-.65-.013-.662.788-.013 1.35.725 1.538 1.025.9 1.512 2.338 1.087 2.912.825.088-.65.35-1.087.638-1.337-2.225-.25-4.55-1.113-4.55-4.938 0-1.088.387-1.987 1.025-2.688-.1-.25-.45-1.275.1-2.65 0 0 .837-.262 2.75 1.026a9.28 9.28 0 0 1 2.5-.338c.85 0 1.7.112 2.5.337 1.912-1.3 2.75-1.024 2.75-1.024.55 1.375.2 2.4.1 2.65.637.7 1.025 1.587 1.025 2.687 0 3.838-2.337 4.688-4.562 4.938.362.312.675.912.675 1.85 0 1.337-.013 2.412-.013 2.75 0 .262.188.574.688.474A10.016 10.016 0 0 0 22 12c0-5.525-4.475-10-10-10Z"
        fill="#171717"></path>
</symbol>
<symbol viewBox="0 0 24 24" fill="none" role="img" aria-hidden="true" class="crayons-icon crayons-icon--default" id="Facebook">
    <path d="M18.5 2.5a3 3 0 0 1 3 3v13a3 3 0 0 1-3 3h-13a3 3 0 0 1-3-3v-13a3 3 0 0 1 3-3h13Z"
        fill="#1877F2"></path>
    <path         d="M16.12 12h-2.636v-1.781c0-.754.368-1.485 1.544-1.485h1.2V6.395s-1.087-.184-2.126-.184c-2.167 0-3.586 1.312-3.586 3.693V12H8.105v2.75h2.41v6.75h2.97v-6.757h2.214L16.115 12h.006Z"
        fill="#fff"></path>
</symbol>
<symbol viewBox="0 0 48 48" id="Docker">
    <path fill="#2395ec"
        d="M47.527 19.847c-.13-.102-1.345-1.007-3.908-1.007-.677.003-1.352.06-2.019.171-.496-3.354-3.219-4.93-3.345-5.003l-.688-.392-.453.644c-.567.866-1.068 1.76-1.311 2.763-.459 1.915-.18 3.713.806 5.25-1.192.655-3.223.713-3.609.727H1.582c-.826.001-1.496.66-1.501 1.474-.037 2.733.353 5.553 1.306 8.119 1.089 2.818 2.71 4.894 4.818 6.164C8.567 40.184 12.405 41 16.756 41c1.965.006 3.927-.169 5.859-.524 2.686-.487 5.271-1.413 7.647-2.74 1.958-1.119 3.72-2.542 5.219-4.215 2.505-2.798 3.997-5.913 5.107-8.682h.442c2.743 0 4.429-1.083 5.359-1.99.618-.579 1.101-1.284 1.414-2.065l.197-.568-.473-.369z" ></path>
    <path fill="#2395ec"
        d="M8 22H5c-.552 0-1-.448-1-1v-3c0-.552.448-1 1-1h3c.552 0 1 .448 1 1v3c0 .552-.448 1-1 1zM14 22h-3c-.552 0-1-.448-1-1v-3c0-.552.448-1 1-1h3c.552 0 1 .448 1 1v3c0 .552-.448 1-1 1zM20 22h-3c-.552 0-1-.448-1-1v-3c0-.552.448-1 1-1h3c.552 0 1 .448 1 1v3c0 .552-.448 1-1 1zM26 22h-3c-.552 0-1-.448-1-1v-3c0-.552.448-1 1-1h3c.552 0 1 .448 1 1v3c0 .552-.448 1-1 1zM14 16h-3c-.552 0-1-.448-1-1v-3c0-.552.448-1 1-1h3c.552 0 1 .448 1 1v3c0 .552-.448 1-1 1zM20 16h-3c-.552 0-1-.448-1-1v-3c0-.552.448-1 1-1h3c.552 0 1 .448 1 1v3c0 .552-.448 1-1 1zM26 16h-3c-.552 0-1-.448-1-1v-3c0-.552.448-1 1-1h3c.552 0 1 .448 1 1v3c0 .552-.448 1-1 1zM26 10h-3c-.552 0-1-.448-1-1V6c0-.552.448-1 1-1h3c.552 0 1 .448 1 1v3c0 .552-.448 1-1 1zM32 22h-3c-.552 0-1-.448-1-1v-3c0-.552.448-1 1-1h3c.552 0 1 .448 1 1v3c0 .552-.448 1-1 1z" ></path>
</symbol>
<symbol viewBox="0 0 24 24" id="Discord">
    <path         style="stroke-width:1;stroke-linecap:round;stroke-linejoin:round"
        d="M20.317 4.37a19.791 19.791 0 0 0-4.885-1.515.074.074 0 0 0-.079.037c-.21.375-.444.864-.608 1.25a18.27 18.27 0 0 0-5.487 0 12.64 12.64 0 0 0-.617-1.25.077.077 0 0 0-.079-.037A19.736 19.736 0 0 0 3.677 4.37a.07.07 0 0 0-.032.027C.533 9.046-.32 13.58.099 18.057a.082.082 0 0 0 .031.057 19.9 19.9 0 0 0 5.993 3.03.078.078 0 0 0 .084-.028 14.09 14.09 0 0 0 1.226-1.994.076.076 0 0 0-.041-.106 13.107 13.107 0 0 1-1.872-.892.077.077 0 0 1-.008-.128 10.2 10.2 0 0 0 .372-.292.074.074 0 0 1 .077-.01c3.928 1.793 8.18 1.793 12.062 0a.074.074 0 0 1 .078.01c.12.098.246.198.373.292a.077.077 0 0 1-.006.127 12.299 12.299 0 0 1-1.873.892.077.077 0 0 0-.041.107c.36.698.772 1.362 1.225 1.993a.076.076 0 0 0 .084.028 19.839 19.839 0 0 0 6.002-3.03.077.077 0 0 0 .032-.054c.5-5.177-.838-9.674-3.549-13.66a.061.061 0 0 0-.031-.03zM8.02 15.33c-1.183 0-2.157-1.085-2.157-2.419 0-1.333.956-2.419 2.157-2.419 1.21 0 2.176 1.096 2.157 2.42 0 1.333-.956 2.418-2.157 2.418zm7.975 0c-1.183 0-2.157-1.085-2.157-2.419 0-1.333.955-2.419 2.157-2.419 1.21 0 2.176 1.096 2.157 2.42 0 1.333-.946 2.418-2.157 2.418z" ></path>
</symbol>
<symbol viewBox="0 0 24 24" id="DefaultSocial">
    <path         style="stroke-width:1;stroke-linecap:round;stroke-linejoin:round"
        d="M18.3 1a4.6 4.6 0 0 0-4.4 5c.2.5-.6.5-.9.8L9 9a4.6 4.6 0 1 0-6.7 6.2 4.6 4.6 0 0 0 6.2.2l5.4 2.9a4.6 4.6 0 0 0 4.3 4.7c2.6.2 5-2 4.8-4.6 0-2.5-2.1-4.6-4.5-4.5-1.7 0-3.4 1-4.1 2.5l-4.8-2.5a4 4 0 0 0 .5-3.4l4.6-2.4a4.6 4.6 0 0 0 6.6 1 4.6 4.6 0 0 0-3-8.1Zm.2 1.3c1.3-.1 2.2 1.7 1.2 2.7-.7 1-2.5.7-2.8-.5-.4-1 .4-2.3 1.6-2.2Zm0 3.9c1 0 3 .5 3 1.6-1.3 1.7-4 1.8-5.6.5-1.2-1.1.9-2 1.9-2l.6-.1zm-13 2.4c1.4 0 2.2 1.8 1.3 2.8-.7 1-2.5.7-2.8-.5-.5-1 .4-2.3 1.5-2.3Zm0 4c1 0 3 .5 3 1.6-1.2 1.7-4 1.7-5.5.5-1.3-1.2.9-2 1.8-2l.7-.1zm13 2.6c1.3 0 2.2 1.7 1.2 2.7-.7 1-2.5.7-2.8-.5-.4-1 .4-2.2 1.6-2.2zm0 4c1 0 3 .4 3 1.5-1.3 1.7-4 1.9-5.6.6-1.4-1.1.9-2 1.9-2.1h.6z" ></path>
</symbol>
</defs>
</svg>