<?xml version="1.0" encoding="UTF-8"?>
<svg xmlns="http://www.w3.org/2000/svg" xmlns:xlink="http://www.w3.org/1999/xlink" width="0" height="0">
<defs>
<symbol viewBox="0 0 48 48" id="YouTube">
    <path fill="#FF3D00"
        d="M43.2,33.9c-0.4,2.1-2.1,3.7-4.2,4c-3.3,0.5-8.8,1.1-15,1.1c-6.1,0-11.6-0.6-15-1.1c-2.1-0.3-3.8-1.9-4.2-4C4.4,31.6,4,28.2,4,24c0-4.2,0.4-7.6,0.8-9.9c0.4-2.1,2.1-3.7,4.2-4C12.3,9.6,17.8,9,24,9c6.2,0,11.6,0.6,15,1.1c2.1,0.3,3.8,1.9,4.2,4c0.4,2.3,0.9,5.7,0.9,9.9C44,28.2,43.6,31.6,43.2,33.9z" ></path>
    <path fill="#FFF" d="M20 31L20 17 32 24z" ></path>
</symbol>
<symbol viewBox="0 0 24 24" role="img" aria-hidden="true" class="crayons-icon crayons-icon--default" id="X">
    <path         d="M14.095479,10.316482L22.286354,1h-1.940718l-7.115352,8.087682L7.551414,1H1l8.589488,12.231093L1,23h1.940717l7.509372-8.542861L16.448587,23H23L14.095479,10.316482z M11.436522,13.338465l-0.871624-1.218704l-6.924311-9.68815h2.981339l5.58978,7.82155l0.867949,1.218704l7.26506,10.166271h-2.981339L11.436522,13.338465z"></path>
</symbol>
<symbol viewBox="0 0 48 48" fill-rule="evenodd" clip-rule="evenodd" id="TikTok">
    <path fill="#212121" fill-rule="evenodd"
        d="M10.904,6h26.191C39.804,6,42,8.196,42,10.904v26.191 C42,39.804,39.804,42,37.096,42H10.904C8.196,42,6,39.804,6,37.096V10.904C6,8.196,8.196,6,10.904,6z"
        clip-rule="evenodd" ></path>
    <path fill="#ec407a" fill-rule="evenodd"
        d="M29.208,20.607c1.576,1.126,3.507,1.788,5.592,1.788v-4.011 c-0.395,0-0.788-0.041-1.174-0.123v3.157c-2.085,0-4.015-0.663-5.592-1.788v8.184c0,4.094-3.321,7.413-7.417,7.413 c-1.528,0-2.949-0.462-4.129-1.254c1.347,1.376,3.225,2.23,5.303,2.23c4.096,0,7.417-3.319,7.417-7.413L29.208,20.607L29.208,20.607 z M30.657,16.561c-0.805-0.879-1.334-2.016-1.449-3.273v-0.516h-1.113C28.375,14.369,29.331,15.734,30.657,16.561L30.657,16.561z M19.079,30.832c-0.45-0.59-0.693-1.311-0.692-2.053c0-1.873,1.519-3.391,3.393-3.391c0.349,0,0.696,0.053,1.029,0.159v-4.1 c-0.389-0.053-0.781-0.076-1.174-0.068v3.191c-0.333-0.106-0.68-0.159-1.03-0.159c-1.874,0-3.393,1.518-3.393,3.391 C17.213,29.127,17.972,30.274,19.079,30.832z"
        clip-rule="evenodd" ></path>
    <path fill="#fff" fill-rule="evenodd"
        d="M28.034,19.63c1.576,1.126,3.507,1.788,5.592,1.788v-3.157 c-1.164-0.248-2.194-0.856-2.969-1.701c-1.326-0.827-2.281-2.191-2.561-3.788h-2.923v16.018c-0.007,1.867-1.523,3.379-3.393,3.379 c-1.102,0-2.081-0.525-2.701-1.338c-1.107-0.558-1.866-1.705-1.866-3.029c0-1.873,1.519-3.391,3.393-3.391 c0.359,0,0.705,0.056,1.03,0.159V21.38c-4.024,0.083-7.26,3.369-7.26,7.411c0,2.018,0.806,3.847,2.114,5.183 c1.18,0.792,2.601,1.254,4.129,1.254c4.096,0,7.417-3.319,7.417-7.413L28.034,19.63L28.034,19.63z"
        clip-rule="evenodd" ></path>
    <path fill="#81d4fa" fill-rule="evenodd"
        d="M33.626,18.262v-0.854c-1.05,0.002-2.078-0.292-2.969-0.848 C31.445,17.423,32.483,18.018,33.626,18.262z M28.095,12.772c-0.027-0.153-0.047-0.306-0.061-0.461v-0.516h-4.036v16.019 c-0.006,1.867-1.523,3.379-3.393,3.379c-0.549,0-1.067-0.13-1.526-0.362c0.62,0.813,1.599,1.338,2.701,1.338 c1.87,0,3.386-1.512,3.393-3.379V12.772H28.095z M21.635,21.38v-0.909c-0.337-0.046-0.677-0.069-1.018-0.069 c-4.097,0-7.417,3.319-7.417,7.413c0,2.567,1.305,4.829,3.288,6.159c-1.308-1.336-2.114-3.165-2.114-5.183 C14.374,24.749,17.611,21.463,21.635,21.38z"
        clip-rule="evenodd" ></path>
</symbol>
<symbol viewBox="-25.65 -42.75 222.3 256.5" id="Reddit">
    <g transform="translate(-85.4 -85.4)">
        <circle r="85.5" cy="170.9" cx="170.9" fill="#ff4500" ></circle>
        <path             d="M227.9 170.9c0-6.9-5.6-12.5-12.5-12.5-3.4 0-6.4 1.3-8.6 3.5-8.5-6.1-20.3-10.1-33.3-10.6l5.7-26.7 18.5 3.9c.2 4.7 4.1 8.5 8.9 8.5 4.9 0 8.9-4 8.9-8.9s-4-8.9-8.9-8.9c-3.5 0-6.5 2-7.9 5l-20.7-4.4c-.6-.1-1.2 0-1.7.3s-.8.8-1 1.4l-6.3 29.8c-13.3.4-25.2 4.3-33.8 10.6-2.2-2.1-5.3-3.5-8.6-3.5-6.9 0-12.5 5.6-12.5 12.5 0 5.1 3 9.4 7.4 11.4-.2 1.2-.3 2.5-.3 3.8 0 19.2 22.3 34.7 49.9 34.7 27.6 0 49.9-15.5 49.9-34.7 0-1.3-.1-2.5-.3-3.7 4.1-2 7.2-6.4 7.2-11.5zm-85.5 8.9c0-4.9 4-8.9 8.9-8.9s8.9 4 8.9 8.9-4 8.9-8.9 8.9-8.9-4-8.9-8.9zm49.7 23.5c-6.1 6.1-17.7 6.5-21.1 6.5-3.4 0-15.1-.5-21.1-6.5-.9-.9-.9-2.4 0-3.3.9-.9 2.4-.9 3.3 0 3.8 3.8 12 5.2 17.9 5.2 5.9 0 14-1.4 17.9-5.2.9-.9 2.4-.9 3.3 0 .7 1 .7 2.4-.2 3.3zm-1.6-14.6c-4.9 0-8.9-4-8.9-8.9s4-8.9 8.9-8.9 8.9 4 8.9 8.9-4 8.9-8.9 8.9z"
            fill="#fff" ></path>
    </g>
</symbol>
<symbol viewBox="0 0 48 48" id="LinkedIn">
    <path fill="#0288D1"
        d="M42,37c0,2.762-2.238,5-5,5H11c-2.761,0-5-2.238-5-5V11c0-2.762,2.239-5,5-5h26c2.762,0,5,2.238,5,5V37z" ></path>
    <path fill="#FFF"
        d="M12 19H17V36H12zM14.485 17h-.028C12.965 17 12 15.888 12 14.499 12 13.08 12.995 12 14.514 12c1.521 0 2.458 1.08 2.486 2.499C17 15.887 16.035 17 14.485 17zM36 36h-5v-9.099c0-2.198-1.225-3.698-3.192-3.698-1.501 0-2.313 1.012-2.707 1.99C24.957 25.543 25 26.511 25 27v9h-5V19h5v2.616C25.721 20.5 26.85 19 29.738 19c3.578 0 6.261 2.25 6.261 7.274L36 36 36 36z" ></path>
</symbol>
<symbol viewBox="0 0 48 48" id="Instagram">
    <path fill="#304ffe"
        d="M41.67,13.48c-0.4,0.26-0.97,0.5-1.21,0.77c-0.09,0.09-0.14,0.19-0.12,0.29v1.03l-0.3,1.01l-0.3,1l-0.33,1.1 l-0.68,2.25l-0.66,2.22l-0.5,1.67c0,0.26-0.01,0.52-0.03,0.77c-0.07,0.96-0.27,1.88-0.59,2.74c-0.19,0.53-0.42,1.04-0.7,1.52 c-0.1,0.19-0.22,0.38-0.34,0.56c-0.4,0.63-0.88,1.21-1.41,1.72c-0.41,0.41-0.86,0.79-1.35,1.11c0,0,0,0-0.01,0 c-0.08,0.07-0.17,0.13-0.27,0.18c-0.31,0.21-0.64,0.39-0.98,0.55c-0.23,0.12-0.46,0.22-0.7,0.31c-0.05,0.03-0.11,0.05-0.16,0.07 c-0.57,0.27-1.23,0.45-1.89,0.54c-0.04,0.01-0.07,0.01-0.11,0.02c-0.4,0.07-0.79,0.13-1.19,0.16c-0.18,0.02-0.37,0.03-0.55,0.03 l-0.71-0.04l-3.42-0.18c0-0.01-0.01,0-0.01,0l-1.72-0.09c-0.13,0-0.27,0-0.4-0.01c-0.54-0.02-1.06-0.08-1.58-0.19 c-0.01,0-0.01,0-0.01,0c-0.95-0.18-1.86-0.5-2.71-0.93c-0.47-0.24-0.93-0.51-1.36-0.82c-0.18-0.13-0.35-0.27-0.52-0.42 c-0.48-0.4-0.91-0.83-1.31-1.27c-0.06-0.06-0.11-0.12-0.16-0.18c-0.06-0.06-0.12-0.13-0.17-0.19c-0.38-0.48-0.7-0.97-0.96-1.49 c-0.24-0.46-0.43-0.95-0.58-1.49c-0.06-0.19-0.11-0.37-0.15-0.57c-0.01-0.01-0.02-0.03-0.02-0.05c-0.1-0.41-0.19-0.84-0.24-1.27 c-0.06-0.33-0.09-0.66-0.09-1c-0.02-0.13-0.02-0.27-0.02-0.4l1.91-2.95l1.87-2.88l0.85-1.31l0.77-1.18l0.26-0.41v-1.03 c0.02-0.23,0.03-0.47,0.02-0.69c-0.01-0.7-0.15-1.38-0.38-2.03c-0.22-0.69-0.53-1.34-0.85-1.94c-0.38-0.69-0.78-1.31-1.11-1.87 C14,7.4,13.66,6.73,13.75,6.26C14.47,6.09,15.23,6,16,6h16c4.18,0,7.78,2.6,9.27,6.26C41.43,12.65,41.57,13.06,41.67,13.48z" ></path>
    <path fill="#4928f4"
        d="M42,16v0.27l-1.38,0.8l-0.88,0.51l-0.97,0.56l-1.94,1.13l-1.9,1.1l-1.94,1.12l-0.77,0.45 c0,0.48-0.12,0.92-0.34,1.32c-0.31,0.58-0.83,1.06-1.49,1.47c-0.67,0.41-1.49,0.74-2.41,0.98c0,0,0-0.01-0.01,0 c-3.56,0.92-8.42,0.5-10.78-1.26c-0.66-0.49-1.12-1.09-1.32-1.78c-0.06-0.23-0.09-0.48-0.09-0.73v-7.19 c0.01-0.15-0.09-0.3-0.27-0.45c-0.54-0.43-1.81-0.84-3.23-1.25c-1.11-0.31-2.3-0.62-3.3-0.92c-0.79-0.24-1.46-0.48-1.86-0.71 c0.18-0.35,0.39-0.7,0.61-1.03c1.4-2.05,3.54-3.56,6.02-4.13C14.47,6.09,15.23,6,16,6h10.8c5.37,0.94,10.32,3.13,14.47,6.26 c0.16,0.39,0.3,0.8,0.4,1.22c0.18,0.66,0.29,1.34,0.32,2.05C42,15.68,42,15.84,42,16z" ></path>
    <path fill="#6200ea"
        d="M42,16v4.41l-0.22,0.68l-0.75,2.33l-0.78,2.4l-0.41,1.28l-0.38,1.19l-0.37,1.13l-0.36,1.12l-0.19,0.59 l-0.25,0.78c0,0.76-0.02,1.43-0.07,2c-0.01,0.06-0.02,0.12-0.02,0.18c-0.06,0.53-0.14,0.98-0.27,1.36 c-0.01,0.06-0.03,0.12-0.05,0.17c-0.26,0.72-0.65,1.18-1.23,1.48c-0.14,0.08-0.3,0.14-0.47,0.2c-0.53,0.18-1.2,0.27-2.02,0.32 c-0.6,0.04-1.29,0.05-2.07,0.05H31.4l-1.19-0.05L30,37.61l-2.17-0.09l-2.2-0.09l-7.25-0.3l-1.88-0.08h-0.26 c-0.78-0.01-1.45-0.06-2.03-0.14c-0.84-0.13-1.49-0.35-1.98-0.68c-0.7-0.45-1.11-1.11-1.35-2.03c-0.06-0.22-0.11-0.45-0.14-0.7 c-0.1-0.58-0.15-1.25-0.18-2c0-0.15,0-0.3-0.01-0.46c-0.01-0.01,0-0.01,0-0.01v-0.58c-0.01-0.29-0.01-0.59-0.01-0.9l0.05-1.61 l0.03-1.15l0.04-1.34v-0.19l0.07-2.46l0.07-2.46l0.07-2.31l0.06-2.27l0.02-0.6c0-0.31-1.05-0.49-2.22-0.64 c-0.93-0.12-1.95-0.23-2.56-0.37c0.05-0.23,0.1-0.46,0.16-0.68c0.18-0.72,0.45-1.4,0.79-2.05c0.18-0.35,0.39-0.7,0.61-1.03 c2.16-0.95,4.41-1.69,6.76-2.17c2.06-0.43,4.21-0.66,6.43-0.66c7.36,0,14.16,2.49,19.54,6.69c0.52,0.4,1.03,0.83,1.53,1.28 C42,15.68,42,15.84,42,16z" ></path>
    <path fill="#673ab7"
        d="M42,18.37v4.54l-0.55,1.06l-1.05,2.05l-0.56,1.08l-0.51,0.99l-0.22,0.43c0,0.31,0,0.61-0.02,0.9 c0,0.43-0.02,0.84-0.05,1.22c-0.04,0.45-0.1,0.86-0.16,1.24c-0.15,0.79-0.36,1.47-0.66,2.03c-0.04,0.07-0.08,0.14-0.12,0.2 c-0.11,0.18-0.24,0.35-0.38,0.51c-0.18,0.22-0.38,0.41-0.61,0.57c-0.34,0.26-0.74,0.47-1.2,0.63c-0.57,0.21-1.23,0.35-2.01,0.43 c-0.51,0.05-1.07,0.08-1.68,0.08l-0.42,0.02l-2.08,0.12h-0.01L27.5,36.6l-2.25,0.13l-3.1,0.18l-3.77,0.22l-0.55,0.03 c-0.51,0-0.99-0.03-1.45-0.09c-0.05-0.01-0.09-0.02-0.14-0.02c-0.68-0.11-1.3-0.29-1.86-0.54c-0.68-0.3-1.27-0.7-1.77-1.18 c-0.44-0.43-0.82-0.92-1.13-1.47c-0.07-0.13-0.14-0.25-0.2-0.39c-0.3-0.59-0.54-1.25-0.72-1.97c-0.03-0.12-0.06-0.25-0.08-0.38 c-0.06-0.23-0.11-0.47-0.14-0.72c-0.11-0.64-0.17-1.32-0.2-2.03v-0.01c-0.01-0.29-0.02-0.57-0.02-0.87l-0.49-1.17l-0.07-0.18 L9.5,25.99L8.75,24.2l-0.12-0.29l-0.72-1.73l-0.8-1.93c0,0,0,0-0.01,0L6.29,18.3L6,17.59V16c0-0.63,0.06-1.25,0.17-1.85 c0.05-0.23,0.1-0.46,0.16-0.68c0.85-0.49,1.74-0.94,2.65-1.34c2.08-0.93,4.31-1.62,6.62-2.04c1.72-0.31,3.51-0.48,5.32-0.48 c7.31,0,13.94,2.65,19.12,6.97c0.2,0.16,0.39,0.32,0.58,0.49C41.09,17.48,41.55,17.91,42,18.37z" ></path>
    <path fill="#8e24aa"
        d="M42,21.35v5.14l-0.57,1.19l-1.08,2.25l-0.01,0.03c0,0.43-0.02,0.82-0.05,1.17c-0.1,1.15-0.38,1.88-0.84,2.33 c-0.33,0.34-0.74,0.53-1.25,0.63c-0.03,0.01-0.07,0.01-0.1,0.02c-0.16,0.03-0.33,0.05-0.51,0.05c-0.62,0.06-1.35,0.02-2.19-0.04 c-0.09,0-0.19-0.01-0.29-0.02c-0.61-0.04-1.26-0.08-1.98-0.11c-0.39-0.01-0.8-0.02-1.22-0.02h-0.02l-1.01,0.08h-0.01l-2.27,0.16 l-2.59,0.2l-0.38,0.03l-3.03,0.22l-1.57,0.12l-1.55,0.11c-0.27,0-0.53,0-0.79-0.01c0,0-0.01-0.01-0.01,0 c-1.13-0.02-2.14-0.09-3.04-0.26c-0.83-0.14-1.56-0.36-2.18-0.69c-0.64-0.31-1.17-0.75-1.6-1.31c-0.41-0.55-0.71-1.24-0.9-2.07 c0-0.01,0-0.01,0-0.01c-0.14-0.67-0.22-1.45-0.22-2.33l-0.15-0.27L9.7,26.35l-0.13-0.22L9.5,25.99l-0.93-1.65l-0.46-0.83 l-0.58-1.03l-1-1.79L6,19.75v-3.68c0.88-0.58,1.79-1.09,2.73-1.55c1.14-0.58,2.32-1.07,3.55-1.47c1.34-0.44,2.74-0.79,4.17-1.02 c1.45-0.24,2.94-0.36,4.47-0.36c6.8,0,13.04,2.43,17.85,6.47c0.22,0.17,0.43,0.36,0.64,0.54c0.84,0.75,1.64,1.56,2.37,2.41 C41.86,21.18,41.94,21.26,42,21.35z" ></path>
    <path fill="#c2185b"
        d="M42,24.71v7.23c-0.24-0.14-0.57-0.31-0.98-0.49c-0.22-0.11-0.47-0.22-0.73-0.32 c-0.38-0.17-0.79-0.33-1.25-0.49c-0.1-0.04-0.2-0.07-0.31-0.1c-0.18-0.07-0.37-0.13-0.56-0.19c-0.59-0.18-1.24-0.35-1.92-0.5 c-0.26-0.05-0.53-0.1-0.8-0.14c-0.87-0.15-1.8-0.24-2.77-0.25c-0.08-0.01-0.17-0.01-0.25-0.01l-2.57,0.02l-3.5,0.02h-0.01 l-7.49,0.06c-2.38,0-3.84,0.57-4.72,0.8c0,0-0.01,0-0.01,0.01c-0.93,0.24-1.22,0.09-1.3-1.54c-0.02-0.45-0.03-1.03-0.03-1.74 l-0.56-0.43l-0.98-0.74l-0.6-0.46l-0.12-0.09L8.88,24.1l-0.25-0.19l-0.52-0.4l-0.96-0.72L6,21.91v-3.4 c0.1-0.08,0.19-0.15,0.29-0.21c1.45-1,3-1.85,4.64-2.54c1.46-0.62,3-1.11,4.58-1.46c0.43-0.09,0.87-0.18,1.32-0.24 c1.33-0.23,2.7-0.34,4.09-0.34c6.01,0,11.53,2.09,15.91,5.55c0.66,0.52,1.3,1.07,1.9,1.66c0.82,0.78,1.59,1.61,2.3,2.49 c0.14,0.18,0.28,0.36,0.42,0.55C41.64,24.21,41.82,24.46,42,24.71z" ></path>
    <path fill="#d81b60"
        d="M42,28.72V32c0,0.65-0.06,1.29-0.18,1.91c-0.18,0.92-0.49,1.8-0.91,2.62c-0.22,0.05-0.47,0.05-0.75,0.01 c-0.63-0.11-1.37-0.44-2.17-0.87c-0.04-0.01-0.08-0.03-0.11-0.05c-0.25-0.13-0.51-0.27-0.77-0.43c-0.53-0.29-1.09-0.61-1.65-0.91 c-0.12-0.06-0.24-0.12-0.35-0.18c-0.64-0.33-1.3-0.63-1.96-0.86c0,0,0,0-0.01,0c-0.14-0.05-0.29-0.1-0.44-0.14 c-0.57-0.16-1.15-0.26-1.71-0.26l-1.1-0.32l-4.87-1.41c0,0,0,0-0.01,0l-2.99-0.87h-0.01l-1.3-0.38c-3.76,0-6.07,1.6-7.19,0.99 c-0.44-0.23-0.7-0.81-0.79-1.95c-0.03-0.32-0.04-0.68-0.04-1.1l-1.17-0.57l-0.05-0.02h-0.01l-0.84-0.42L9.7,26.35l-0.07-0.03 l-0.17-0.09L7.5,25.28L6,24.55v-3.43c0.17-0.15,0.35-0.29,0.53-0.43c0.19-0.15,0.38-0.29,0.57-0.44c0.01,0,0.01,0,0.01,0 c1.18-0.85,2.43-1.6,3.76-2.22c1.55-0.74,3.2-1.31,4.91-1.68c0.25-0.06,0.51-0.12,0.77-0.16c1.42-0.27,2.88-0.41,4.37-0.41 c5.27,0,10.11,1.71,14.01,4.59c1.13,0.84,2.18,1.77,3.14,2.78c0.79,0.83,1.52,1.73,2.18,2.67c0.05,0.07,0.1,0.14,0.15,0.2 c0.37,0.54,0.71,1.09,1.03,1.66C41.64,28.02,41.82,28.37,42,28.72z" ></path>
    <path fill="#f50057"
        d="M41.82,33.91c-0.18,0.92-0.49,1.8-0.91,2.62c-0.19,0.37-0.4,0.72-0.63,1.06c-0.14,0.21-0.29,0.41-0.44,0.6 c-0.36-0.14-0.89-0.34-1.54-0.56c0,0,0,0,0-0.01c-0.49-0.17-1.05-0.35-1.65-0.52c-0.17-0.05-0.34-0.1-0.52-0.15 c-0.71-0.19-1.45-0.36-2.17-0.46c-0.6-0.1-1.19-0.16-1.74-0.16l-0.46-0.13h-0.01l-2.42-0.7l-1.49-0.43l-1.66-0.48h-0.01l-0.54-0.15 l-6.53-1.88l-1.88-0.54l-1.4-0.33l-2.28-0.54l-0.28-0.07c0,0,0,0-0.01,0l-2.29-0.53c0-0.01,0-0.01,0-0.01l-0.41-0.09l-0.21-0.05 l-1.67-0.39l-0.19-0.05l-1.42-1.17L6,27.9v-4.08c0.37-0.36,0.75-0.7,1.15-1.03c0.12-0.11,0.25-0.21,0.38-0.31 c0.12-0.1,0.25-0.2,0.38-0.3c0.91-0.69,1.87-1.31,2.89-1.84c1.3-0.7,2.68-1.26,4.13-1.66c0.28-0.09,0.56-0.17,0.85-0.23 c1.64-0.41,3.36-0.62,5.14-0.62c4.47,0,8.63,1.35,12.07,3.66c1.71,1.15,3.25,2.53,4.55,4.1c0.66,0.79,1.26,1.62,1.79,2.5 c0.05,0.07,0.09,0.13,0.13,0.2c0.32,0.53,0.62,1.08,0.89,1.64c0.25,0.5,0.47,1,0.67,1.52C41.34,32.25,41.6,33.07,41.82,33.91z" ></path>
    <path fill="#ff1744"
        d="M40.28,37.59c-0.14,0.21-0.29,0.41-0.44,0.6c-0.44,0.55-0.92,1.05-1.46,1.49c-0.47,0.39-0.97,0.74-1.5,1.04 c-0.2-0.05-0.4-0.11-0.61-0.19c-0.66-0.23-1.35-0.61-1.99-1.01c-0.96-0.61-1.79-1.27-2.16-1.57c-0.14-0.12-0.21-0.18-0.21-0.18 l-1.7-0.15L30,37.6l-2.2-0.19l-2.28-0.2l-3.37-0.3l-5.34-0.47l-0.02-0.01l-1.88-0.91l-1.9-0.92l-1.53-0.74l-0.33-0.16l-0.41-0.2 l-1.42-0.69L7.43,31.9l-0.59-0.29L6,31.35v-4.47c0.47-0.56,0.97-1.09,1.5-1.6c0.34-0.32,0.7-0.64,1.07-0.94 c0.06-0.05,0.12-0.1,0.18-0.14c0.04-0.05,0.09-0.08,0.13-0.1c0.59-0.48,1.21-0.91,1.85-1.3c0.74-0.47,1.52-0.89,2.33-1.24 c0.87-0.39,1.78-0.72,2.72-0.97c1.63-0.46,3.36-0.7,5.14-0.7c4.08,0,7.85,1.24,10.96,3.37c1.99,1.36,3.71,3.08,5.07,5.07 c0.45,0.64,0.85,1.32,1.22,2.02c0.13,0.26,0.26,0.52,0.37,0.78c0.12,0.25,0.23,0.5,0.34,0.75c0.21,0.52,0.4,1.04,0.57,1.58 c0.32,1,0.56,2.02,0.71,3.08C40.21,36.89,40.25,37.24,40.28,37.59z" ></path>
    <path fill="#ff5722"
        d="M38.39,39.42c0,0.08,0,0.17-0.01,0.26c-0.47,0.39-0.97,0.74-1.5,1.04c-0.22,0.12-0.44,0.24-0.67,0.34 c-0.23,0.11-0.46,0.21-0.7,0.3c-0.34-0.18-0.8-0.4-1.29-0.61c-0.69-0.31-1.44-0.59-2.02-0.68c-0.14-0.03-0.27-0.04-0.39-0.04 l-1.64-0.21h-0.02l-2.04-0.27l-2.06-0.27l-0.96-0.12l-7.56-0.98c-0.49,0-1.01-0.03-1.55-0.1c-0.66-0.06-1.35-0.16-2.04-0.3 c-0.68-0.12-1.37-0.28-2.03-0.45c-0.69-0.16-1.37-0.35-2-0.53c-0.73-0.22-1.41-0.43-1.98-0.62c-0.47-0.15-0.87-0.29-1.18-0.4 c-0.18-0.43-0.33-0.88-0.44-1.34C6.1,33.66,6,32.84,6,32v-1.67c0.32-0.53,0.67-1.05,1.06-1.54c0.71-0.94,1.52-1.8,2.4-2.56 c0.03-0.04,0.07-0.07,0.1-0.09l0.01-0.01c0.31-0.28,0.63-0.53,0.97-0.77c0.04-0.04,0.08-0.07,0.12-0.1 c0.16-0.12,0.33-0.24,0.51-0.35c1.43-0.97,3.01-1.73,4.7-2.24c1.6-0.48,3.29-0.73,5.05-0.73c3.49,0,6.75,1.03,9.47,2.79 c2.01,1.29,3.74,2.99,5.06,4.98c0.16,0.23,0.31,0.46,0.46,0.7c0.69,1.17,1.26,2.43,1.68,3.75c0.05,0.15,0.09,0.3,0.13,0.46 c0.08,0.27,0.15,0.55,0.21,0.83c0.02,0.07,0.04,0.14,0.06,0.22c0.14,0.63,0.24,1.29,0.31,1.95c0,0.01,0,0.01,0,0.01 C38.36,38.22,38.39,38.82,38.39,39.42z" ></path>
    <path fill="#ff6f00"
        d="M36.33,39.42c0,0.35-0.02,0.73-0.06,1.11c-0.02,0.18-0.04,0.36-0.06,0.53c-0.23,0.11-0.46,0.21-0.7,0.3 c-0.45,0.17-0.91,0.31-1.38,0.41c-0.32,0.07-0.65,0.13-0.98,0.16h-0.01c-0.31-0.19-0.67-0.42-1.04-0.68 c-0.67-0.47-1.37-1-1.93-1.43c-0.01-0.01-0.01-0.01-0.02-0.02c-0.59-0.45-1.01-0.79-1.01-0.79l-1.06,0.04l-2.04,0.07l-0.95,0.04 l-3.82,0.14l-3.23,0.12c-0.21,0.01-0.46,0.01-0.77,0h-0.01c-0.42-0.01-0.92-0.04-1.47-0.09c-0.64-0.05-1.34-0.11-2.05-0.18 c-0.69-0.08-1.39-0.16-2.06-0.24c-0.74-0.08-1.44-0.17-2.04-0.25c-0.47-0.06-0.88-0.11-1.21-0.15c-0.28-0.32-0.53-0.65-0.77-1.01 c-0.36-0.54-0.67-1.11-0.91-1.72c-0.18-0.43-0.33-0.88-0.44-1.34c0.29-0.89,0.67-1.73,1.12-2.54c0.36-0.66,0.78-1.29,1.24-1.89 c0.45-0.59,0.94-1.14,1.47-1.64v-0.01c0.15-0.15,0.3-0.29,0.45-0.42c0.28-0.26,0.57-0.5,0.87-0.73h0.01 c0.01-0.02,0.02-0.02,0.03-0.03c0.24-0.19,0.49-0.36,0.74-0.53c1.48-1.01,3.15-1.76,4.95-2.2c1.19-0.29,2.44-0.45,3.73-0.45 c2.54,0,4.94,0.61,7.05,1.71h0.01c1.81,0.93,3.41,2.21,4.7,3.75c0.71,0.82,1.32,1.72,1.82,2.67c0.35,0.64,0.65,1.31,0.9,1.99 c0.02,0.06,0.04,0.11,0.06,0.16c0.17,0.5,0.32,1.02,0.45,1.54c0.09,0.37,0.16,0.75,0.22,1.13c0.02,0.12,0.04,0.23,0.05,0.35 C36.28,37.99,36.33,38.7,36.33,39.42z" ></path>
    <path fill="#ff9800"
        d="M34.28,39.42v0.1c0,0.34-0.03,0.77-0.06,1.23c-0.03,0.34-0.06,0.69-0.09,1.02c-0.32,0.07-0.65,0.13-0.98,0.16 h-0.01C32.76,41.98,32.39,42,32,42h-1.75l-0.38-0.11l-1.97-0.6l-2-0.6l-4.63-1.39l-2-0.6c0,0-0.83,0.33-2,0.72h-0.01 c-0.45,0.15-0.94,0.31-1.46,0.47c-0.65,0.19-1.34,0.38-2.02,0.53c-0.7,0.16-1.39,0.28-2.01,0.33c-0.19,0.02-0.38,0.03-0.55,0.03 c-0.56-0.31-1.1-0.68-1.59-1.09c-0.43-0.36-0.83-0.75-1.2-1.18c-0.28-0.32-0.53-0.65-0.77-1.01c0.07-0.45,0.15-0.89,0.27-1.32 c0.3-1.19,0.77-2.33,1.39-3.37c0.34-0.59,0.72-1.16,1.16-1.69c0.01-0.03,0.04-0.06,0.07-0.08c-0.01-0.01,0-0.01,0-0.01 c0.13-0.17,0.27-0.33,0.41-0.48c0-0.01,0-0.01,0-0.01c0.41-0.44,0.83-0.86,1.29-1.25c0.16-0.13,0.31-0.26,0.48-0.39 c0.03-0.03,0.06-0.05,0.1-0.08c2.25-1.72,5.06-2.76,8.09-2.76c3.44,0,6.57,1.29,8.94,3.41c1.14,1.03,2.11,2.26,2.84,3.63 c0.06,0.1,0.12,0.21,0.17,0.32c0.09,0.18,0.18,0.37,0.26,0.57c0.33,0.72,0.59,1.48,0.77,2.26c0.02,0.08,0.04,0.16,0.06,0.24 c0.08,0.37,0.15,0.75,0.2,1.13C34.24,38.21,34.28,38.81,34.28,39.42z" ></path>
    <path fill="#ffc107"
        d="M32.22,39.42c0,0.2-0.01,0.42-0.02,0.65c-0.02,0.37-0.05,0.77-0.1,1.18c-0.02,0.25-0.06,0.5-0.1,0.75h-5.48 l-1.06-0.17l-4.14-0.66l-0.59-0.09l-1.35-0.22c-0.59,0-1.87,0.26-3.22,0.51c-0.71,0.13-1.43,0.27-2.08,0.36 c-0.08,0.01-0.16,0.02-0.23,0.03h-0.01c-0.7-0.15-1.38-0.38-2.02-0.68c-0.2-0.09-0.4-0.19-0.6-0.3c-0.56-0.31-1.1-0.68-1.59-1.09 c-0.01-0.12-0.02-0.22-0.02-0.27c0-0.26,0.01-0.51,0.03-0.76c0.04-0.64,0.13-1.26,0.27-1.86c0.22-0.91,0.54-1.79,0.97-2.6 c0.08-0.17,0.17-0.34,0.27-0.5c0.04-0.08,0.09-0.15,0.13-0.23c0.18-0.29,0.38-0.57,0.58-0.85c0.42-0.55,0.89-1.07,1.39-1.54 c0.01,0,0.01,0,0.01,0c0.04-0.04,0.08-0.08,0.12-0.11c0.05-0.04,0.09-0.09,0.14-0.12c0.2-0.18,0.4-0.34,0.61-0.49 c0-0.01,0.01-0.01,0.01-0.01c1.89-1.41,4.23-2.24,6.78-2.24c1.98,0,3.82,0.5,5.43,1.38h0.01c1.38,0.76,2.58,1.79,3.53,3.03 c0.37,0.48,0.7,0.99,0.98,1.53h0.01c0.05,0.1,0.1,0.2,0.15,0.3c0.3,0.59,0.54,1.21,0.72,1.85h0.01c0.01,0.05,0.03,0.1,0.04,0.15 c0.12,0.43,0.22,0.87,0.29,1.32c0.01,0.09,0.02,0.19,0.03,0.28C32.19,38.43,32.22,38.92,32.22,39.42z" ></path>
    <path fill="#ffd54f"
        d="M30.17,39.31c0,0.16,0,0.33-0.02,0.49v0.01c0,0.01,0,0.01,0,0.01c-0.02,0.72-0.12,1.43-0.28,2.07 c0,0.04-0.01,0.07-0.03,0.11h-4.67l-3.85-0.83l-0.51-0.11l-0.08,0.02l-4.27,0.88L16.27,42H16c-0.64,0-1.27-0.06-1.88-0.18 c-0.09-0.02-0.18-0.04-0.27-0.06h-0.01c-0.7-0.15-1.38-0.38-2.02-0.68c-0.02-0.11-0.04-0.22-0.05-0.33 c-0.07-0.43-0.1-0.88-0.1-1.33c0-0.17,0-0.34,0.01-0.51c0.03-0.54,0.11-1.07,0.23-1.58c0.08-0.38,0.19-0.75,0.32-1.1 c0.11-0.31,0.24-0.61,0.38-0.9c0.12-0.25,0.26-0.49,0.4-0.73c0.14-0.23,0.29-0.45,0.45-0.67c0.4-0.55,0.87-1.06,1.39-1.51 c0.3-0.26,0.63-0.51,0.97-0.73c1.46-0.96,3.21-1.52,5.1-1.52c0.37,0,0.73,0.02,1.08,0.07h0.02c1.07,0.12,2.07,0.42,2.99,0.87 c0.01,0,0.01,0,0.01,0c1.45,0.71,2.68,1.78,3.58,3.1c0.15,0.22,0.3,0.46,0.43,0.7c0.11,0.19,0.21,0.39,0.3,0.59 c0.14,0.31,0.27,0.64,0.38,0.97h0.01c0.11,0.37,0.21,0.74,0.28,1.13v0.01C30.11,38.16,30.17,38.73,30.17,39.31z" ></path>
    <path fill="#ffe082"
        d="M28.11,39.52v0.03c0,0.59-0.07,1.17-0.21,1.74c-0.05,0.24-0.12,0.48-0.21,0.71h-4.48l-2.29-0.63L18.63,42H16 c-0.64,0-1.27-0.06-1.88-0.18c-0.02-0.03-0.03-0.06-0.04-0.09c-0.14-0.43-0.25-0.86-0.3-1.31c-0.04-0.29-0.06-0.59-0.06-0.9 c0-0.12,0-0.25,0.02-0.37c0.01-0.47,0.08-0.93,0.2-1.37c0.06-0.3,0.15-0.59,0.27-0.87c0.04-0.14,0.1-0.27,0.17-0.4 c0.15-0.34,0.33-0.67,0.53-0.99c0.22-0.32,0.46-0.62,0.73-0.9c0.32-0.36,0.68-0.69,1.09-0.96c0.7-0.51,1.5-0.89,2.37-1.1 c0.58-0.16,1.19-0.24,1.82-0.24c2,0,3.79,0.8,5.09,2.09c0.05,0.05,0.11,0.11,0.16,0.18h0.01c0.14,0.15,0.27,0.3,0.4,0.47 c0.37,0.47,0.68,0.98,0.92,1.54c0.12,0.26,0.22,0.53,0.3,0.81c0.01,0.04,0.02,0.07,0.03,0.11c0.14,0.49,0.23,1,0.25,1.53 C28.1,39.2,28.11,39.36,28.11,39.52z" ></path>
    <path fill="#ffecb3"
        d="M26.06,39.52c0,0.41-0.05,0.8-0.16,1.17c-0.1,0.4-0.25,0.78-0.44,1.14c-0.03,0.06-0.1,0.17-0.1,0.17h-8.88 c-0.01-0.01-0.02-0.03-0.02-0.04c-0.12-0.19-0.22-0.38-0.3-0.59c-0.2-0.46-0.32-0.96-0.36-1.48c-0.02-0.12-0.02-0.25-0.02-0.37 c0-0.06,0-0.13,0.01-0.19c0.01-0.44,0.07-0.86,0.19-1.25c0.1-0.36,0.23-0.69,0.4-1.01c0,0,0.01-0.01,0.01-0.02 c0.12-0.21,0.25-0.42,0.4-0.62c0.49-0.66,1.14-1.2,1.89-1.55c0.01,0,0.01,0,0.01,0c0.24-0.12,0.49-0.22,0.75-0.29c0,0,0,0,0.01,0 c0.46-0.14,0.96-0.21,1.47-0.21c0.59,0,1.16,0.09,1.68,0.28c0.19,0.05,0.37,0.13,0.55,0.22c0,0,0,0,0.01,0 c0.86,0.41,1.59,1.05,2.09,1.85c0.1,0.15,0.19,0.31,0.27,0.48c0.04,0.07,0.08,0.15,0.11,0.22c0.23,0.52,0.37,1.09,0.41,1.69 c0.01,0.05,0.01,0.1,0.01,0.16C26.06,39.36,26.06,39.44,26.06,39.52z" ></path>
    <g>
        <path fill="none" stroke="#fff" stroke-linecap="round" stroke-linejoin="round"
            stroke-miterlimit="10" stroke-width="2"
            d="M30,11H18c-3.9,0-7,3.1-7,7v12c0,3.9,3.1,7,7,7h12c3.9,0,7-3.1,7-7V18C37,14.1,33.9,11,30,11z" ></path>
        <circle cx="31" cy="16" r="1" fill="#fff" ></circle>
    </g>
    <g>
        <circle cx="24" cy="24" r="6" fill="none" stroke="#fff" stroke-linecap="round"
            stroke-linejoin="round" stroke-miterlimit="10" stroke-width="2" ></circle>
    </g>
</symbol>
<symbol viewBox="0 0 48 48" id="GoogleMaps">
    <path fill="#48b564"
        d="M35.76,26.36h0.01c0,0-3.77,5.53-6.94,9.64c-2.74,3.55-3.54,6.59-3.77,8.06	C24.97,44.6,24.53,45,24,45s-0.97-0.4-1.06-0.94c-0.23-1.47-1.03-4.51-3.77-8.06c-0.42-0.55-0.85-1.12-1.28-1.7L28.24,22l8.33-9.88	C37.49,14.05,38,16.21,38,18.5C38,21.4,37.17,24.09,35.76,26.36z" ></path>
    <path fill="#fcc60e"
        d="M28.24,22L17.89,34.3c-2.82-3.78-5.66-7.94-5.66-7.94h0.01c-0.3-0.48-0.57-0.97-0.8-1.48L19.76,15	c-0.79,0.95-1.26,2.17-1.26,3.5c0,3.04,2.46,5.5,5.5,5.5C25.71,24,27.24,23.22,28.24,22z" ></path>
    <path fill="#2c85eb"
        d="M28.4,4.74l-8.57,10.18L13.27,9.2C15.83,6.02,19.69,4,24,4C25.54,4,27.02,4.26,28.4,4.74z" ></path>
    <path fill="#ed5748"
        d="M19.83,14.92L19.76,15l-8.32,9.88C10.52,22.95,10,20.79,10,18.5c0-3.54,1.23-6.79,3.27-9.3	L19.83,14.92z" ></path>
    <path fill="#5695f6"
        d="M28.24,22c0.79-0.95,1.26-2.17,1.26-3.5c0-3.04-2.46-5.5-5.5-5.5c-1.71,0-3.24,0.78-4.24,2L28.4,4.74	c3.59,1.22,6.53,3.91,8.17,7.38L28.24,22z" ></path>
</symbol>
<symbol viewBox="0 0 48 48" class="LgbsSe-Bz112c" id="Google">
    <g>
        <path fill="#EA4335"
            d="M24 9.5c3.54 0 6.71 1.22 9.21 3.6l6.85-6.85C35.9 2.38 30.47 0 24 0 14.62 0 6.51 5.38 2.56 13.22l7.98 6.19C12.43 13.72 17.74 9.5 24 9.5z"></path>
        <path fill="#4285F4"
            d="M46.98 24.55c0-1.57-.15-3.09-.38-4.55H24v9.02h12.94c-.58 2.96-2.26 5.48-4.78 7.18l7.73 6c4.51-4.18 7.09-10.36 7.09-17.65z"></path>
        <path fill="#FBBC05"
            d="M10.53 28.59c-.48-1.45-.76-2.99-.76-4.59s.27-3.14.76-4.59l-7.98-6.19C.92 16.46 0 20.12 0 24c0 3.88.92 7.54 2.56 10.78l7.97-6.19z"></path>
        <path fill="#34A853"
            d="M24 48c6.48 0 11.93-2.13 15.89-5.81l-7.73-6c-2.15 1.45-4.92 2.3-8.16 2.3-6.26 0-11.57-4.22-13.47-9.91l-7.98 6.19C6.51 42.62 14.62 48 24 48z"></path>
        <path fill="none" d="M0 0h48v48H0z"></path>
    </g>
</symbol>
<symbol viewBox="0 0 48 48" id="Goodreads">
    <path fill="#efebe9"
        d="M42,10v28c0,2.2-1.8,4-4,4H10c-2.2,0-4-1.8-4-4V10c0-2.2,1.8-4,4-4h28C40.2,6,42,7.8,42,10z" ></path>
    <path fill="#795649"
        d="M25,37c-3.925,0-7-2.196-7-5h2c0,1.626,2.29,3,5,3c3.131,0,5-1.869,5-5V13h2v17 C32,34.187,29.187,37,25,37z" ></path>
    <path fill="#795649"
        d="M24.5,30c-4.136,0-7.5-4.038-7.5-9s3.364-9,7.5-9s7.5,4.038,7.5,9S28.636,30,24.5,30z M24.5,14 c-3.033,0-5.5,3.14-5.5,7s2.467,7,5.5,7s5.5-3.14,5.5-7S27.533,14,24.5,14z" ></path>
</symbol>
<symbol viewBox="0 0 24 24" fill="none" role="img" aria-hidden="true" class="crayons-icon crayons-icon--default" id="GitHub">
    <path         d="M12 2C6.475 2 2 6.475 2 12a9.994 9.994 0 0 0 6.838 9.488c.5.087.687-.213.687-.476 0-.237-.013-1.024-.013-1.862-2.512.463-3.162-.612-3.362-1.175-.113-.288-.6-1.175-1.025-1.413-.35-.187-.85-.65-.013-.662.788-.013 1.35.725 1.538 1.025.9 1.512 2.338 1.087 2.912.825.088-.65.35-1.087.638-1.337-2.225-.25-4.55-1.113-4.55-4.938 0-1.088.387-1.987 1.025-2.688-.1-.25-.45-1.275.1-2.65 0 0 .837-.262 2.75 1.026a9.28 9.28 0 0 1 2.5-.338c.85 0 1.7.112 2.5.337 1.912-1.3 2.75-1.024 2.75-1.024.55 1.375.2 2.4.1 2.65.637.7 1.025 1.587 1.025 2.687 0 3.838-2.337 4.688-4.562 4.938.362.312.675.912.675 1.85 0 1.337-.013 2.412-.013 2.75 0 .262.188.574.688.474A10.016 10.016 0 0 0 22 12c0-5.525-4.475-10-10-10Z"
        fill="#171717"></path>
</symbol>
<symbol viewBox="0 0 24 24" fill="none" role="img" aria-hidden="true" class="crayons-icon crayons-icon--default" id="Facebook">
    <path d="M18.5 2.5a3 3 0 0 1 3 3v13a3 3 0 0 1-3 3h-13a3 3 0 0 1-3-3v-13a3 3 0 0 1 3-3h13Z"
        fill="#1877F2"></path>
    <path         d="M16.12 12h-2.636v-1.781c0-.754.368-1.485 1.544-1.485h1.2V6.395s-1.087-.184-2.126-.184c-2.167 0-3.586 1.312-3.586 3.693V12H8.105v2.75h2.41v6.75h2.97v-6.757h2.214L16.115 12h.006Z"
        fill="#fff"></path>
</symbol>
<symbol viewBox="0 0 48 48" id="Dropbox">
    <path fill="#1E88E5"
        d="M42 13.976L31.377 7.255 24 13.314 35.026 19.732zM6 25.647L16.933 32.055 24 26.633 13.528 19.969zM16.933 7.255L6 14.301 13.528 19.969 24 13.314zM24 26.633L31.209 32.055 42 25.647 35.026 19.732z" ></path>
    <path fill="#1E88E5"
        d="M32.195 33.779L31.047 34.462 29.979 33.658 24 29.162 18.155 33.646 17.091 34.464 15.933 33.785 13 32.066 13 34.738 23.988 42 35 34.794 35 32.114z" ></path>
</symbol>
<symbol viewBox="0 0 48 48" id="Docker">
    <path fill="#2395ec"
        d="M47.527 19.847c-.13-.102-1.345-1.007-3.908-1.007-.677.003-1.352.06-2.019.171-.496-3.354-3.219-4.93-3.345-5.003l-.688-.392-.453.644c-.567.866-1.068 1.76-1.311 2.763-.459 1.915-.18 3.713.806 5.25-1.192.655-3.223.713-3.609.727H1.582c-.826.001-1.496.66-1.501 1.474-.037 2.733.353 5.553 1.306 8.119 1.089 2.818 2.71 4.894 4.818 6.164C8.567 40.184 12.405 41 16.756 41c1.965.006 3.927-.169 5.859-.524 2.686-.487 5.271-1.413 7.647-2.74 1.958-1.119 3.72-2.542 5.219-4.215 2.505-2.798 3.997-5.913 5.107-8.682h.442c2.743 0 4.429-1.083 5.359-1.99.618-.579 1.101-1.284 1.414-2.065l.197-.568-.473-.369z" ></path>
    <path fill="#2395ec"
        d="M8 22H5c-.552 0-1-.448-1-1v-3c0-.552.448-1 1-1h3c.552 0 1 .448 1 1v3c0 .552-.448 1-1 1zM14 22h-3c-.552 0-1-.448-1-1v-3c0-.552.448-1 1-1h3c.552 0 1 .448 1 1v3c0 .552-.448 1-1 1zM20 22h-3c-.552 0-1-.448-1-1v-3c0-.552.448-1 1-1h3c.552 0 1 .448 1 1v3c0 .552-.448 1-1 1zM26 22h-3c-.552 0-1-.448-1-1v-3c0-.552.448-1 1-1h3c.552 0 1 .448 1 1v3c0 .552-.448 1-1 1zM14 16h-3c-.552 0-1-.448-1-1v-3c0-.552.448-1 1-1h3c.552 0 1 .448 1 1v3c0 .552-.448 1-1 1zM20 16h-3c-.552 0-1-.448-1-1v-3c0-.552.448-1 1-1h3c.552 0 1 .448 1 1v3c0 .552-.448 1-1 1zM26 16h-3c-.552 0-1-.448-1-1v-3c0-.552.448-1 1-1h3c.552 0 1 .448 1 1v3c0 .552-.448 1-1 1zM26 10h-3c-.552 0-1-.448-1-1V6c0-.552.448-1 1-1h3c.552 0 1 .448 1 1v3c0 .552-.448 1-1 1zM32 22h-3c-.552 0-1-.448-1-1v-3c0-.552.448-1 1-1h3c.552 0 1 .448 1 1v3c0 .552-.448 1-1 1z" ></path>
</symbol>
<symbol viewBox="0 0 48 48" id="Discord">
    <path fill="#536dfe"
        d="M39.248,10.177c-2.804-1.287-5.812-2.235-8.956-2.778c-0.057-0.01-0.114,0.016-0.144,0.068	c-0.387,0.688-0.815,1.585-1.115,2.291c-3.382-0.506-6.747-0.506-10.059,0c-0.3-0.721-0.744-1.603-1.133-2.291	c-0.03-0.051-0.087-0.077-0.144-0.068c-3.143,0.541-6.15,1.489-8.956,2.778c-0.024,0.01-0.045,0.028-0.059,0.051	c-5.704,8.522-7.267,16.835-6.5,25.044c0.003,0.04,0.026,0.079,0.057,0.103c3.763,2.764,7.409,4.442,10.987,5.554	c0.057,0.017,0.118-0.003,0.154-0.051c0.846-1.156,1.601-2.374,2.248-3.656c0.038-0.075,0.002-0.164-0.076-0.194	c-1.197-0.454-2.336-1.007-3.432-1.636c-0.087-0.051-0.094-0.175-0.014-0.234c0.231-0.173,0.461-0.353,0.682-0.534	c0.04-0.033,0.095-0.04,0.142-0.019c7.201,3.288,14.997,3.288,22.113,0c0.047-0.023,0.102-0.016,0.144,0.017	c0.22,0.182,0.451,0.363,0.683,0.536c0.08,0.059,0.075,0.183-0.012,0.234c-1.096,0.641-2.236,1.182-3.434,1.634	c-0.078,0.03-0.113,0.12-0.075,0.196c0.661,1.28,1.415,2.498,2.246,3.654c0.035,0.049,0.097,0.07,0.154,0.052	c3.595-1.112,7.241-2.79,11.004-5.554c0.033-0.024,0.054-0.061,0.057-0.101c0.917-9.491-1.537-17.735-6.505-25.044	C39.293,10.205,39.272,10.187,39.248,10.177z M16.703,30.273c-2.168,0-3.954-1.99-3.954-4.435s1.752-4.435,3.954-4.435	c2.22,0,3.989,2.008,3.954,4.435C20.658,28.282,18.906,30.273,16.703,30.273z M31.324,30.273c-2.168,0-3.954-1.99-3.954-4.435	s1.752-4.435,3.954-4.435c2.22,0,3.989,2.008,3.954,4.435C35.278,28.282,33.544,30.273,31.324,30.273z" ></path>
</symbol>
<symbol viewBox="0 0 24 24" id="DefaultSocial">
    <path         style="stroke-width:1;stroke-linecap:round;stroke-linejoin:round"
        d="M18.3 1a4.6 4.6 0 0 0-4.4 5c.2.5-.6.5-.9.8L9 9a4.6 4.6 0 1 0-6.7 6.2 4.6 4.6 0 0 0 6.2.2l5.4 2.9a4.6 4.6 0 0 0 4.3 4.7c2.6.2 5-2 4.8-4.6 0-2.5-2.1-4.6-4.5-4.5-1.7 0-3.4 1-4.1 2.5l-4.8-2.5a4 4 0 0 0 .5-3.4l4.6-2.4a4.6 4.6 0 0 0 6.6 1 4.6 4.6 0 0 0-3-8.1Zm.2 1.3c1.3-.1 2.2 1.7 1.2 2.7-.7 1-2.5.7-2.8-.5-.4-1 .4-2.3 1.6-2.2Zm0 3.9c1 0 3 .5 3 1.6-1.3 1.7-4 1.8-5.6.5-1.2-1.1.9-2 1.9-2l.6-.1zm-13 2.4c1.4 0 2.2 1.8 1.3 2.8-.7 1-2.5.7-2.8-.5-.5-1 .4-2.3 1.5-2.3Zm0 4c1 0 3 .5 3 1.6-1.2 1.7-4 1.7-5.5.5-1.3-1.2.9-2 1.8-2l.7-.1zm13 2.6c1.3 0 2.2 1.7 1.2 2.7-.7 1-2.5.7-2.8-.5-.4-1 .4-2.2 1.6-2.2zm0 4c1 0 3 .4 3 1.5-1.3 1.7-4 1.9-5.6.6-1.4-1.1.9-2 1.9-2.1h.6z" ></path>
</symbol>
<symbol viewBox="-47.36265 -79.99825 410.4763 479.9895" id="ChatGPT">
    <path         d="M294.93 130.971a79.712 79.712 0 00-6.85-65.48c-17.46-30.4-52.56-46.04-86.84-38.68A79.747 79.747 0 00141.11.001c-35.04-.08-66.13 22.48-76.91 55.82a79.754 79.754 0 00-53.31 38.67c-17.59 30.32-13.58 68.54 9.92 94.54a79.712 79.712 0 006.85 65.48c17.46 30.4 52.56 46.04 86.84 38.68a79.687 79.687 0 0060.13 26.8c35.06.09 66.16-22.49 76.94-55.86a79.754 79.754 0 0053.31-38.67c17.57-30.32 13.55-68.51-9.94-94.51zm-120.28 168.11a59.77 59.77 0 01-38.39-13.88c.49-.26 1.34-.73 1.89-1.07l63.72-36.8a10.36 10.36 0 005.24-9.07v-89.83l26.93 15.55c.29.14.48.42.52.74v74.39c-.04 33.08-26.83 59.9-59.91 59.97zm-128.84-55.03a59.71 59.71 0 01-7.15-40.18c.47.28 1.3.79 1.89 1.13l63.72 36.8c3.23 1.89 7.23 1.89 10.47 0l77.79-44.92v31.1c.02.32-.13.63-.38.83l-64.41 37.19c-28.69 16.52-65.33 6.7-81.92-21.95zm-16.77-139.09c7-12.16 18.05-21.46 31.21-26.29 0 .55-.03 1.52-.03 2.2v73.61c-.02 3.74 1.98 7.21 5.23 9.06l77.79 44.91-26.93 15.55c-.27.18-.61.21-.91.08l-64.42-37.22c-28.63-16.58-38.45-53.21-21.95-81.89zm221.26 51.49l-77.79-44.92 26.93-15.54c.27-.18.61-.21.91-.08l64.42 37.19c28.68 16.57 38.51 53.26 21.94 81.94a59.94 59.94 0 01-31.2 26.28v-75.81c.03-3.74-1.96-7.2-5.2-9.06zm26.8-40.34c-.47-.29-1.3-.79-1.89-1.13l-63.72-36.8a10.375 10.375 0 00-10.47 0l-77.79 44.92v-31.1c-.02-.32.13-.63.38-.83l64.41-37.16c28.69-16.55 65.37-6.7 81.91 22a59.95 59.95 0 017.15 40.1zm-168.51 55.43l-26.94-15.55a.943.943 0 01-.52-.74v-74.39c.02-33.12 26.89-59.96 60.01-59.94 14.01 0 27.57 4.92 38.34 13.88-.49.26-1.33.73-1.89 1.07l-63.72 36.8a10.344 10.344 0 00-5.24 9.06l-.04 89.79zm14.63-31.54l34.65-20.01 34.65 20v40.01l-34.65 20-34.65-20z" ></path>
</symbol>
<symbol viewBox="-150 -296.79925 1300 1780.7955" id="Apple">
    <path         d="M979.042 925.187c-17.954 41.478-39.206 79.657-63.828 114.76-33.563 47.852-61.044 80.975-82.222 99.37-32.83 30.191-68.006 45.654-105.672 46.533-27.041 0-59.652-7.695-97.611-23.304-38.085-15.535-73.084-23.23-105.086-23.23-33.563 0-69.56 7.695-108.061 23.23-38.561 15.61-69.625 23.744-93.376 24.55-36.12 1.539-72.123-14.364-108.06-47.78-22.938-20.006-51.627-54.302-85.997-102.887-36.875-51.884-67.191-112.048-90.942-180.64C12.751 781.703 0 709.96 0 640.504c0-79.562 17.192-148.183 51.627-205.687 27.063-46.189 63.066-82.625 108.127-109.372 45.06-26.748 93.749-40.379 146.182-41.25 28.69 0 66.312 8.874 113.066 26.315 46.622 17.5 76.557 26.374 89.682 26.374 9.812 0 43.068-10.377 99.443-31.064 53.313-19.185 98.307-27.13 135.168-24 99.883 8.061 174.923 47.435 224.828 118.372-89.33 54.126-133.52 129.935-132.64 227.187.806 75.751 28.287 138.788 82.295 188.84 24.476 23.23 51.81 41.184 82.222 53.935-6.595 19.126-13.557 37.447-20.958 55.034zM749.964 23.751c0 59.373-21.692 114.81-64.928 166.122-52.176 61-115.286 96.248-183.724 90.686a184.836 184.836 0 01-1.378-22.498c0-56.998 24.813-117.998 68.878-167.873 21.999-25.253 49.978-46.25 83.907-63 33.856-16.5 65.88-25.625 95.999-27.188.88 7.937 1.246 15.875 1.246 23.75z" ></path>
</symbol>
<symbol viewBox="0 0 48 48" id="Amazon">
    <path fill="#FFB300"
        d="M39.6,39c-4.2,3.1-10.5,5-15.6,5c-7.3,0-13.8-2.9-18.8-7.4c-0.4-0.4,0-0.8,0.4-0.6c5.4,3.1,11.5,4.9,18.3,4.9c4.6,0,10.4-1,15.1-3C39.7,37.7,40.3,38.5,39.6,39z M41.1,36.9c-0.5-0.7-3.5-0.3-4.8-0.2c-0.4,0-0.5-0.3-0.1-0.6c2.3-1.7,6.2-1.2,6.6-0.6c0.4,0.6-0.1,4.5-2.3,6.3c-0.3,0.3-0.7,0.1-0.5-0.2C40.5,40.4,41.6,37.6,41.1,36.9z" ></path>
    <path fill="#37474F"
        d="M36.9,29.8c-1-1.3-2-2.4-2-4.9v-8.3c0-3.5,0-6.6-2.5-9c-2-1.9-5.3-2.6-7.9-2.6C19,5,14.2,7.2,13,13.4c-0.1,0.7,0.4,1,0.8,1.1l5.1,0.6c0.5,0,0.8-0.5,0.9-1c0.4-2.1,2.1-3.1,4.1-3.1c1.1,0,3.2,0.6,3.2,3v3c-3.2,0-6.6,0-9.4,1.2c-3.3,1.4-5.6,4.3-5.6,8.6c0,5.5,3.4,8.2,7.8,8.2c3.7,0,5.9-0.9,8.8-3.8c0.9,1.4,1.3,2.2,3,3.7c0.4,0.2,0.9,0.2,1.2-0.1l0,0c1-0.9,2.9-2.6,4-3.5C37.4,30.9,37.3,30.3,36.9,29.8z M27,22.1L27,22.1c0,2-0.1,6.9-5,6.9c-3,0-3-3-3-3c0-4.5,4.2-5,8-5V22.1z" ></path>
</symbol>
</defs>
</svg>