<svg xmlns="http://www.w3.org/2000/svg" width="24" height="22" viewBox="0 0 23 22">
    <path d="M11.21875.0664062c.5-.2734372 1.113281.3554688.847656.8749998-.15625.421875-.742187.535156-1.042968.210938-.316407-.308594-.214844-.917969.195312-1.0859378M5.824219.667969c.304687-.132813.691406.15625.660156.5.03125.375-.40625.648437-.71875.472656-.410156-.164063-.363281-.855469.058594-.972656m11.042969.980469c-.472657-.058594-.550782-.832032-.089844-.988282.355468-.179687.679687.15625.730468.503906-.074218.300782-.3125.570313-.640624.484376m-9.8125 1.394531c.507812-.335938 1.234374.164062 1.15625.773437-.027344.621094-.820313.976563-1.269532.558594-.429687-.328125-.367187-1.082031.113282-1.332031m7.769531.351562c.226562-.605469 1.148437-.621093 1.40625-.03125.253906.457031-.058594 1.027344-.515625 1.183594-.601563.113281-1.175782-.558594-.890625-1.152344m-4.253907 1.117188c-.007812-.523438.453126-.910157.929688-.945313.316406.066406.664062.207032.800781.535156.25.457032.027344 1.089844-.429687 1.296876-.210938.121093-.460938.078124-.6875.0625-.347656-.175782-.640625-.523438-.613282-.949219m-8.019531.757812c.464844-.296875 1.09375.246094.914063.765625-.09375.453125-.683594.636719-1.019532.347656-.355468-.269531-.300781-.917968.105469-1.113281m17.21875 0c.394531-.316406 1.042969.046875.996094.5625.027344.46875-.535156.824219-.925781.582031-.433594-.199218-.476563-.886718-.070313-1.144531m-6.945312.933594c.648437-.242187 1.421875.050781 1.792969.652344.492187.734375.230468 1.851562-.527344 2.273437-.789063.5-1.9375.074219-2.230469-.835937-.328125-.8125.152344-1.832031.964844-2.089844m-3.820313.082031c.722656-.351562 1.691406-.058594 2.039063.707032.410156.742187.09375 1.78125-.640625 2.164062-.734375.429688-1.769532.105469-2.125-.695312-.398438-.769532-.042969-1.820313.726562-2.175782M5.179688 7.640625c.054687-.484375.492187-.796875.933593-.828125.476563.058594.859375.441406.910157.941406-.03125.496094-.402344.976563-.90625.976563-.558594.046875-1.046876-.523438-.9375-1.089844m11.296874-.722656c.570313-.347657 1.367188.15625 1.339844.835937.039063.71875-.839844 1.226563-1.410156.804688-.589844-.351563-.542969-1.34375.070312-1.640625M7.449219 9.457031c.667969-.191406 1.433593.132813 1.761719.769531.359374.640626.210937 1.53125-.347657 2-.714843.691407-2.035156.414063-2.414062-.527343-.4375-.859375.09375-2.015625 1-2.242188m7.246093-.003906c.648438-.191406 1.414063.066406 1.761719.679687.460938.699219.242188 1.746094-.445312 2.199219-.722657.523438-1.835938.25-2.234375-.570312-.480469-.851563.003906-2.050781.917968-2.308594m-11.546874.800781c.578124-.226562 1.21875.433594.984374 1.023438-.144531.542968-.878906.742187-1.257812.34375-.445312-.375-.28125-1.207032.273438-1.367188m15.65625.859375c-.015626-.496093.332031-.933593.824218-.960937.394532.0625.78125.394531.75.839844.035156.589843-.648437.988281-1.136718.710937-.226563-.117187-.339844-.359375-.4375-.589844M.308594 10.542969c.347656-.15625.777344.15625.695312.554687-.015625.453125-.664062.625-.898437.25-.210938-.265625-.0859378-.667968.203125-.804687Zm21.910156-.007813c.246094-.179687.636719-.050781.734375.246094.164063.320312-.136719.765625-.488281.710938-.492188.046874-.652344-.734376-.246094-.957032M9.335938 12.707031c.914062-.246093 1.898437.542969 1.902343 1.515625.0625.984375-.90625 1.859375-1.84375 1.632813-.722656-.121094-1.292969-.84375-1.269531-1.601563 0-.722656.527344-1.394531 1.210938-1.546875m3.621093-.003906c.929688-.269531 1.941407.535156 1.925781 1.53125.050782.96875-.886718 1.8125-1.804687 1.621094-.863281-.117188-1.5-1.097657-1.257813-1.964844.121094-.574219.585938-1.046875 1.136719-1.1875m-6.980469.601563c.640626-.113282 1.242188.628906.980469 1.257812-.1875.671875-1.132812.855469-1.550781.304688-.492188-.527344-.125-1.492188.570312-1.5625m10.621094.027343c.570313-.246093 1.273438.265625 1.230469.910157.023437.707031-.84375 1.195312-1.40625.78125-.632813-.371094-.519531-1.460938.175781-1.691407m2.964844 3.082031c-.222656-.429687.183594-1.003906.648438-.925781.230468-.003906.394531.1875.542968.34375.027344.257813.078125.5625-.125.761719-.28125.363281-.914062.257812-1.066406-.179688m-17.015625-.804687c.433594-.296875 1.058594.148437.960937.671875-.050781.464844-.617187.730469-.988281.46875-.398437-.242188-.382812-.921875.027344-1.140625m8.570313.972656c.570312-.257812 1.292968.253907 1.238281.898438.042969.714843-.851563 1.210937-1.40625.78125-.617188-.367188-.515625-1.453125.167969-1.679688m-3.96875.957031c.484374-.261718 1.132812.191407 1.089843.753907.015625.460937-.417969.851562-.859375.785156-.363281-.007813-.597656-.347656-.714844-.667969.003907-.347656.144532-.738281.484376-.871094m8.039062.007813c.5-.316406 1.207031.140625 1.160156.738281.011719.628906-.789062 1.027344-1.25.617188-.449218-.320313-.394531-1.097656.089844-1.355469M16.585938 21.125c-.21875-.34375.039062-.761719.398437-.839844.289063.058594.59375.285156.535156.632813-.042969.46875-.707031.609375-.933593.207031m-11.097657-.300781c.089844-.273438.300781-.546875.613281-.472657.457032.03125.589844.742188.191407.960938-.355469.25-.773438-.09375-.804688-.488281m5.355469.316406c.085938-.40625.59375-.605469.929688-.386719.222656.097656.285156.355469.34375.570313-.03125.113281-.058594.226562-.085938.339843-.136719.171876-.3125.339844-.542969.332032-.421875.050781-.804687-.445313-.644531-.855469" fill="#2065c2" />
</svg>