<svg xmlns="http://www.w3.org/2000/svg" width="24" height="24">
    <g fill-rule="evenodd">
        <path d="M16.507812 8.027344c.300782.871094.515626 1.757812.589844 2.679687.085938 1.144531.046875 2.277344-.195312 3.402344-.003906.03125-.019532.058594-.03125.089844-.074219 0-.152344-.007813-.226563.003906-.621093.097656-1.246093.199219-1.871093.300781-.644532.101563-1.289063.203125-1.933594.316406-.226563.039063-.507813-.007812-.601563.304688-.003906.011719-.027343.011719-.042969.015625l.03125-1.882813c-.011718-1.515624-.023437-3.03125-.03125-4.546874l.300782-.054688c.488281-.078125.980468-.160156 1.472656-.238281.585938-.09375 1.171875-.183594 1.761719-.273438.257812-.042969.515625-.078125.777343-.117187Zm0 0" fill="#439934" />
        <path d="M11.574219 20.636719c-.316407-.273438-.644531-.535157-.949219-.820313-1.632812-1.542968-2.828125-3.355468-3.417969-5.542968-.164062-.601563-.269531-1.214844-.304687-1.835938-.023438-.4375-.058594-.875-.03125-1.308594.082031-1.152344.25-2.292968.589844-3.402344l.015624-.027343c.035157.042969.082032.082031.097657.132812.332031.972657.65625 1.941407.984375 2.914063 1.023437 3.058594 2.042968 6.113281 3.070312 9.171875.019532.058593.070313.105469.109375.160156Zm0 0" fill="#45a538" />
        <path d="M16.507812 8.027344c-.261718.039062-.519531.074218-.777343.117187-.589844.089844-1.175781.179688-1.761719.273438-.492188.078125-.984375.160156-1.476562.238281l-.296876.054688-.003906-.199219c-.011718-.160157-.027344-.320313-.027344-.480469-.015624-1.027344-.023437-2.054688-.035156-3.082031-.007812-.644531-.019531-1.285157-.03125-1.929688-.007812-.398437-.019531-.796875-.035156-1.195312-.011719-.214844-.046875-.429688-.058594-.644531-.007812-.121094.003906-.246094.003906-.371094.152344.296875.304688.597656.460938.890625.25.464843.644531.808593 1.003906 1.183593 1.410156 1.480469 2.410156 3.199219 3.035156 5.144532Zm0 0" fill="#46a037" />
        <path d="M12.195312 15.140625c.015626-.003906.039063-.003906.042969-.015625.09375-.3125.375-.265625.601563-.304688.644531-.113281 1.289062-.214843 1.933594-.316406.625-.101562 1.25-.203125 1.871093-.300781.074219-.011719.152344-.003906.226563-.003906-.117188.417969-.207032.839843-.355469 1.246093-.167969.460938-.371094.90625-.585937 1.347657-.324219.65625-.726563 1.269531-1.191407 1.828125-.359375.433594-.761719.835937-1.164062 1.230468-.222657.21875-.484375.394532-.726563.589844l-.0625-.042968-.230468-.191407-.234376-.519531c-.160156-.601562-.246093-1.21875-.261718-1.84375l.003906-.105469.03125-.453125c.011719-.15625.027344-.3125.03125-.464844.027344-.5625.046875-1.121093.070312-1.679687Zm0 0" fill="#409433" />
        <path d="M12.195312 15.140625c-.023437.558594-.042968 1.117187-.066406 1.679687-.007812.152344-.023437.308594-.03125.464844l-.144531.054688c-.320313-.9375-.636719-1.867188-.949219-2.796875-.515625-1.539063-1.027344-3.082031-1.539062-4.621094-.417969-1.242187-.835938-2.484375-1.257813-3.726563-.019531-.054687-.078125-.101562-.117187-.152343l.917968-1.6875c.03125.054687.074219.105469.09375.164062.425782 1.257813.847657 2.511719 1.269532 3.773438.546875 1.636719 1.089844 3.273437 1.636718 4.910156.023438.066406.058594.125.09375.199219l.125-.144532c-.011718.625-.023437 1.253907-.03125 1.882813Zm0 0" fill="#4faa41" />
        <path d="M8.089844 6.042969c.042968.050781.097656.097656.117187.15625.421875 1.238281.839844 2.480469 1.257813 3.722656.511718 1.539063 1.023437 3.082031 1.539062 4.621094.3125.929687.628906 1.859375.949219 2.796875l.144531-.054688-.035156.453125-.027344.105469c-.050781.5-.09375.996094-.152344 1.496094-.03125.246094-.097656.492187-.144531.738281-.039062-.054687-.089843-.101563-.109375-.160156-1.027344-3.058594-2.046875-6.113281-3.070312-9.171875-.328125-.972656-.652344-1.941406-.984375-2.914063-.015625-.050781-.0625-.089843-.097657-.132812.207032-.550781.410157-1.105469.613282-1.65625Zm0 0" fill="#4aa73c" />
        <path d="m12.226562 13.257812-.125.144532c-.035156-.074219-.070312-.132813-.09375-.199219-.546874-1.636719-1.089843-3.273437-1.636718-4.910156-.421875-1.257813-.84375-2.515625-1.269532-3.773438-.019531-.058593-.0625-.109375-.09375-.164062l1.136719-1.496094c.035157.050781.085938.09375.105469.144531.316406.925782.628906 1.847656.9375 2.773438.289062.863281.578125 1.726562.871094 2.589844.019531.058593.085937.097656.132812.144531v.199219c.011719 1.515624.023438 3.03125.035156 4.546874Zm0 0" fill="#57ae47" />
        <path d="M12.191406 8.511719c-.046875-.046875-.113281-.089844-.132812-.144531-.292969-.863282-.582032-1.726563-.871094-2.589844-.308594-.925782-.621094-1.847656-.9375-2.773438-.019531-.050781-.070312-.09375-.105469-.144531.371094-.359375.726563-.734375 1.109375-1.078125.34375-.308594.617188-.636719.628906-1.121094.003907-.019531.011719-.039062.027344-.09375l.097656.242188c0 .125-.011718.25-.003906.371094.011719.214843.046875.429687.058594.644531.015625.398437.027344.796875.035156 1.195312.011719.644531.023438 1.285157.03125 1.929688.011719 1.027343.019532 2.054687.035156 3.082031 0 .160156.015626.320312.027344.480469Zm0 0" fill="#60b24f" />
        <path d="M11.738281 20.078125c.046875-.246094.113281-.492187.144531-.738281.058594-.5.101563-.996094.152344-1.496094h.023438c.015625.625.101562 1.242188.261718 1.84375-.03125.046875-.078124.085938-.097656.132812-.136718.382813-.265625.773438-.402344 1.15625-.015624.050782-.070312.09375-.105468.140626l-.140625-.480469Zm0 0" fill="#a9aa88" />
        <path d="M11.714844 21.117188c.035156-.046876.089844-.085938.105468-.140626.136719-.382812.265626-.769531.402344-1.15625.019532-.046874.066406-.085937.097656-.132812l.234376.519531c-.046876.066407-.109376.125-.136719.199219l-.449219 1.320312c-.019531.054688-.082031.09375-.125.136719Zm0 0" fill="#b6b598" />
        <path d="M11.84375 21.863281c.042969-.042969.105469-.082031.125-.136719l.449219-1.320312c.027343-.074219.089843-.132812.136719-.199219l.230468.191407c-.109375.109374-.171875.234374-.136718.394531l-.066407.226562c-.035156.039063-.078125.074219-.09375.117188-.15625.449219-.308593.902343-.464843 1.355469-.023438.054687-.078126.101562-.117188.152343-.019531-.261719-.039062-.519531-.0625-.78125Zm0 0" fill="#c2c1a7" />
        <path d="M11.90625 22.644531c.039062-.050781.09375-.097656.117188-.152343.15625-.453126.308593-.90625.464843-1.355469.015625-.042969.058594-.078125.09375-.117188l-.097656 1.039063c-.023437.03125-.0625.054687-.074219.089844-.109375.304687-.210937.609374-.316406.910156-.023438.0625-.066406.117187-.097656.175781-.03125-.039063-.085938-.074219-.085938-.117187-.011718-.15625-.003906-.316407-.003906-.472657Zm0 0" fill="#cecdb7" />
        <path d="M11.996094 23.234375c.03125-.058594.074218-.113281.097656-.175781.105469-.300782.207031-.605469.316406-.910156.011719-.035157.050782-.058594.074219-.089844l.003906.683594-.230469.585937Zm0 0" fill="#dbdac7" />
        <path d="m12.257812 23.328125.230469-.585937.046875.691406Zm0 0" fill="#ebe9dc" />
        <path d="M12.648438 20.792969c-.035157-.160157.023437-.285157.136718-.394531l.0625.042968Zm0 0" fill="#cecdb7" />
        <path d="M12.058594 17.84375h-.023438l.027344-.105469Zm0 0" fill="#4faa41" />
    </g>
</svg>