<svg xmlns="http://www.w3.org/2000/svg" width="24" height="25" viewBox="0 0 24 24">
    <path d="M323.226562 324.191406c2.8125-23.570963 1.96875-27.052213 19.546876-23.208333l4.429687.36263c13.570313.652735 31.21875-2.175781 41.625-6.9625 22.359375-10.371224 35.578125-27.704948 13.570313-23.135807C352.125 281.61862 348.609375 264.575 348.609375 264.575c53.15625-78.835807 75.304687-178.849219 56.179687-203.290495-52.242187-66.796484-142.734374-35.247656-144.28125-34.44987l-.492187.145052c-9.914063-2.103255-21.023437-3.336197-33.539063-3.553776-22.78125-.36263-40.007812 6.019662-53.15625 15.95573 0 0-161.367187-66.506381-153.84375 83.622526 1.546876 31.911458 45.773438 241.65677 98.4375 178.26901 19.265626-23.135807 37.898438-42.717838 37.898438-42.717838 9.210938 6.164713 20.320312 9.283333 31.921875 8.122916l.84375-.72526c-.28125 2.828515-.140625 5.657031.351563 8.993229-13.570313 15.157943-9.5625 17.841406-36.703126 23.425911-27.421874 5.657032-11.320312 15.738151-.773437 18.349089 12.726563 3.191146 42.328125 7.760286 62.226563-20.234766l-.773438 3.191146c5.34375 4.279037 4.992188 30.678516 5.695312 49.462761.773438 18.85677 2.039063 36.408073 5.90625 46.779296 3.796876 10.371224 8.367188 37.060808 44.015626 29.445573 29.8125-6.454817 52.59375-15.593099 54.703124-101.173828" transform="matrix(.05556 0 0 .05386 0 0)" stroke-width="37.3953" stroke="#000" />
    <path d="M22.355469 14.609375C19.5625 15.167969 19.367188 14.25 19.367188 14.25c2.953124-4.246094 4.183593-9.632812 3.121093-10.949219-2.902343-3.597656-7.929687-1.898437-8.015625-1.855469l-.027344.007813c-.550781-.113281-1.167968-.179687-1.863281-.191406-1.265625-.019531-2.222656.324219-2.953125.859375 0 0-8.964844-3.582032-8.546875 4.503906.085938 1.71875 2.542969 13.015625 5.46875 9.601562 1.070313-1.246093 2.105469-2.300781 2.105469-2.300781.511719.332031 1.125.5 1.769531.4375l.050781-.039062c-.015624.152343-.007812.304687.019532.484375-.753906.816406-.53125.960937-2.039063 1.261718-1.523437.304688-.628906.847657-.042969.988282.707032.171875 2.351563.417968 3.457032-1.089844l-.042969.171875c.296875.230469.503906 1.492187.46875 2.640625-.035156 1.144531-.058594 1.929688.175781 2.542969.230469.613281.464844 1.996093 2.445313 1.585937 1.65625-.347656 2.515625-1.238281 2.632812-2.726562.085938-1.054688.277344-.898438.289063-1.84375l.152344-.449219c.179687-1.433594.03125-1.894531 1.050781-1.679687l.246093.019531c.753907.035156 1.734376-.117188 2.3125-.375 1.242188-.558594 1.976563-1.492188.753907-1.246094Zm0 0" fill="#336791" />
    <path d="M215.859375 286.477865c-1.40625 49.535286.351563 99.360677 5.203125 111.472526 4.851562 12.111849 15.1875 35.682812 50.90625 28.067578 29.8125-6.382292 40.640625-18.784245 45.351562-46.054037 3.445313-20.089713 10.125-75.862239 10.96875-87.248828M173.109375 38.221224S11.601562-27.777474 19.125 122.351432c1.546875 31.983985 45.773438 241.656771 98.4375 178.341537 19.265625-23.208334 36.703125-41.339844 36.703125-41.339844M260.367188 26.181901c-5.625 1.813151 89.859374-34.885026 144.070312 34.44987 19.125 24.441276-3.023438 124.527213-56.179688 203.290495" transform="matrix(.05556 0 0 .05386 0 0)" fill="none" stroke-width="12.4651" stroke-linecap="round" stroke-linejoin="round" stroke="#fff" />
    <path d="M348.257812 263.922266s3.515626 17.043619 53.789063 6.672395c22.007813-4.56914 8.789063 12.764584-13.570313 23.135808-18.351562 8.558073-59.484374 10.733854-60.1875-1.015365-1.6875-30.388411 21.65625-21.177604 19.96875-28.792838-1.476562-6.817448-11.953124-13.56237-18.84375-30.315886-6.046874-14.65026-82.828124-126.848047 21.234376-110.167057 3.867187-.797787-27.140626-98.998047-124.523438-100.59362-97.382812-1.595573-94.21875 119.740495-94.21875 119.740495" transform="matrix(.05556 0 0 .05386 0 0)" fill="none" stroke-width="12.4651" stroke-linecap="round" stroke-linejoin="bevel" stroke="#fff" />
    <path d="M188.578125 274.366016c-13.570313 15.157942-9.5625 17.76888-36.703125 23.353385-27.421875 5.657031-11.320312 15.738151-.773438 18.421615 12.726563 3.191145 42.257813 7.68776 62.226563-20.234766 6.117187-8.558073 0-22.120443-8.367187-25.601693-4.007813-1.668099-9.421876-3.698828-16.382813 4.061459Zm0 0" transform="matrix(.05556 0 0 .05386 0 0)" fill="none" stroke-width="12.4651" stroke-linecap="round" stroke-linejoin="round" stroke="#fff" />
    <path d="M187.734375 274.075911c-1.40625-8.920703 2.882813-19.509505 7.523437-31.983984 6.890626-18.566667 22.851563-37.205859 10.125-96.314583-9.5625-44.023308-73.40625-9.138282-73.476562-3.191146 0 5.947135 2.882812 30.243359-1.054688 58.528516-5.132812 36.915755 23.484376 68.174479 56.460938 64.983333" transform="matrix(.05556 0 0 .05386 0 0)" fill="none" stroke-width="12.4651" stroke-linecap="round" stroke-linejoin="round" stroke="#fff" />
    <path d="M172.546875 141.715885c-.351563 2.03073 3.726563 7.470183 8.929687 8.195443 5.273438.725261 9.703126-3.553776 9.984376-5.584505s-3.726563-4.279037-8.929688-5.004297c-5.273438-.72526-9.703125.36263-9.984375 2.393359Zm0 0" transform="matrix(.05556 0 0 .05386 0 0)" fill="#fff" stroke-width="4.155" stroke="#fff" />
    <path d="M331.945312 137.509375c.28125 2.103255-3.726562 7.542708-9 8.267969-5.203124.72526-9.703124-3.553776-9.984374-5.584505-.28125-2.03073 3.726562-4.279037 9-5.004297 5.203124-.725261 9.703124.290104 9.984374 2.320833Zm0 0" transform="matrix(.05556 0 0 .05386 0 0)" fill="#fff" stroke-width="2.0775" stroke="#fff" />
    <path d="M350.648438 123.439323c.914062 15.955729-3.445313 26.907161-3.9375 43.878255-.84375 24.803906 11.742187 53.089063-7.242188 81.446745" transform="matrix(.05556 0 0 .05386 0 0)" fill="none" stroke-width="12.4651" stroke-linecap="round" stroke-linejoin="round" stroke="#fff" />
</svg>